<svg xmlns="http://www.w3.org/2000/svg" xmlns:xlink="http://www.w3.org/1999/xlink" width="66" height="66" viewBox="0 0 66 66">
  <defs>
    <clipPath id="clip-path">
      <rect id="Rectángulo_35628" data-name="Rectángulo 35628" width="66" height="66" transform="translate(462 143)" fill="#7ae582"/>
    </clipPath>
  </defs>
  <g id="Enmascarar_grupo_64" data-name="Enmascarar grupo 64" transform="translate(-462 -143)" clip-path="url(#clip-path)">
    <g id="rio_1_" data-name="rio (1)" transform="translate(462 143)">
      <g id="Grupo_101663" data-name="Grupo 101663">
        <path id="Trazado_157510" data-name="Trazado 157510" d="M64.4,13.491c-2.987.732-8.494,3.182-11.879,11.388h5.555a20.057,20.057,0,0,1,6.772-10.5.512.512,0,0,0-.448-.892Z" fill="#91de7a"/>
      </g>
      <g id="Grupo_101664" data-name="Grupo 101664">
        <path id="Trazado_157511" data-name="Trazado 157511" d="M40.222,13.491c2.987.732,8.494,3.182,11.879,11.388H46.547a20.057,20.057,0,0,0-6.772-10.5.512.512,0,0,1,.448-.892Z" fill="#91de7a"/>
      </g>
      <g id="Grupo_101665" data-name="Grupo 101665">
        <path id="Trazado_157512" data-name="Trazado 157512" d="M56.375,23.865A53.567,53.567,0,0,0,46.723,1.286a.768.768,0,0,0-1.314.781,66.309,66.309,0,0,1,5.53,21.8Z" fill="#7bce5f"/>
      </g>
      <g id="Grupo_101666" data-name="Grupo 101666">
        <path id="Trazado_157513" data-name="Trazado 157513" d="M53.679,23.865a66.309,66.309,0,0,1,5.53-21.8.768.768,0,0,0-1.314-.781,53.564,53.564,0,0,0-9.652,22.579Z" fill="#91de7a"/>
      </g>
      <g id="Grupo_101667" data-name="Grupo 101667">
        <path id="Trazado_157514" data-name="Trazado 157514" d="M45.862,24.88H58.756c-1.615-7.074,1.374-14.342,3.737-18.657a.614.614,0,0,0-.984-.719,39.969,39.969,0,0,0-9.2,15.3,39.967,39.967,0,0,0-9.2-15.3.614.614,0,0,0-.984.719c2.363,4.315,5.352,11.583,3.737,18.657Z" fill="#b0ee96"/>
      </g>
      <g id="Grupo_101668" data-name="Grupo 101668">
        <path id="Trazado_157515" data-name="Trazado 157515" d="M62.5,23.053C33.831,22.539,32.2,13.32,3.6,12.787A2.58,2.58,0,0,0,.967,15.364V35.015L33,43.659l32.033-8.645V25.63A2.58,2.58,0,0,0,62.5,23.053Z" fill="#dc9e80"/>
      </g>
      <g id="Grupo_101669" data-name="Grupo 101669">
        <path id="Trazado_157516" data-name="Trazado 157516" d="M11.645,13.21c-2.435-.221-5.1-.368-8.046-.423A2.58,2.58,0,0,0,.967,15.364V35.015L33,43.659l32.033-8.645V27.231H25.666A14.022,14.022,0,0,1,11.645,13.21Z" fill="#c58c6d"/>
      </g>
      <g id="Grupo_101670" data-name="Grupo 101670">
        <path id="Trazado_157517" data-name="Trazado 157517" d="M33,55.215H58.953l6.08-4.731V35.015a2.592,2.592,0,0,0-4.253-1.992c-1.807,1.516-3.048,3.579-6.425,3.579-5.339,0-5.339-5.156-10.678-5.156S38.339,36.6,33,36.6s-5.339-5.156-10.677-5.156S16.984,36.6,11.645,36.6c-3.377,0-4.618-2.063-6.425-3.579A2.592,2.592,0,0,0,.967,35.015V50.484l6.08,4.731Z" fill="#7ee6ff"/>
      </g>
      <g id="Grupo_101671" data-name="Grupo 101671">
        <path id="Trazado_157518" data-name="Trazado 157518" d="M33,55.215H58.953l6.08-4.731V42.072a2.592,2.592,0,0,0-4.253-1.992c-1.807,1.516-3.048,3.579-6.425,3.579-5.339,0-5.339-5.156-10.678-5.156S38.339,43.659,33,43.659,27.661,38.5,22.323,38.5a6.085,6.085,0,0,0-3.962,1.342A4.147,4.147,0,0,1,11.645,36.6c-3.377,0-4.618-2.063-6.425-3.579A2.592,2.592,0,0,0,.967,35.015V50.484l6.08,4.731Z" fill="#4ad5ed"/>
      </g>
      <g id="Grupo_101672" data-name="Grupo 101672">
        <path id="Trazado_157519" data-name="Trazado 157519" d="M.967,59.877V50.484A2.592,2.592,0,0,1,5.22,48.492c1.807,1.516,3.048,3.579,6.425,3.579,5.339,0,5.339-5.156,10.678-5.156S27.661,52.071,33,52.071s5.339-5.156,10.677-5.156,5.339,5.156,10.678,5.156c3.377,0,4.618-2.063,6.425-3.579a2.592,2.592,0,0,1,4.253,1.992v9.393a5.156,5.156,0,0,1-5.156,5.156H6.124A5.156,5.156,0,0,1,.967,59.877Z" fill="#7ee6ff"/>
      </g>
      <g id="Grupo_101673" data-name="Grupo 101673">
        <path id="Trazado_157520" data-name="Trazado 157520" d="M60.78,55.549c-1.807,1.516-3.048,3.579-6.425,3.579-5.339,0-5.339-5.156-10.678-5.156S38.339,59.128,33,59.128s-5.339-5.156-10.677-5.156a6.084,6.084,0,0,0-3.962,1.342,4.147,4.147,0,0,1-6.716-3.244c-3.377,0-4.618-2.063-6.425-3.579A2.592,2.592,0,0,0,.967,50.484v9.393a5.156,5.156,0,0,0,5.156,5.156H59.877a5.156,5.156,0,0,0,5.156-5.156V57.541a2.592,2.592,0,0,0-4.253-1.992Z" fill="#4ad5ed"/>
      </g>
      <path id="Trazado_157521" data-name="Trazado 157521" d="M62.513,22.086q-1.217-.022-2.4-.067a19.436,19.436,0,0,1,5.342-6.886,1.479,1.479,0,0,0-1.289-2.581,15.686,15.686,0,0,0-3.929,1.57,36.448,36.448,0,0,1,3.1-7.435,1.581,1.581,0,0,0-2.533-1.849A44.284,44.284,0,0,0,57.77,8.4a54.406,54.406,0,0,1,2.316-5.923A1.71,1.71,0,0,0,59.4.25a1.709,1.709,0,0,0-2.279.461,53.845,53.845,0,0,0-4.81,7.824A54.008,54.008,0,0,0,47.5.711,1.709,1.709,0,0,0,45.222.25a1.71,1.71,0,0,0-.69,2.222A54.4,54.4,0,0,1,46.848,8.4a44.314,44.314,0,0,0-3.037-3.557,1.581,1.581,0,0,0-2.533,1.849,36.441,36.441,0,0,1,3.1,7.433,15.681,15.681,0,0,0-3.926-1.568,1.479,1.479,0,0,0-1.288,2.581,19.474,19.474,0,0,1,4.191,4.773C39.639,19.04,36.433,18.008,33.3,17A89.854,89.854,0,0,0,3.617,11.82,3.547,3.547,0,0,0,0,15.364V59.877A6.13,6.13,0,0,0,6.123,66H59.877A6.13,6.13,0,0,0,66,59.877V25.63a3.565,3.565,0,0,0-3.486-3.544Zm.092-6.98A21.327,21.327,0,0,0,59.3,19.4a23.068,23.068,0,0,1,.309-2.57,14.607,14.607,0,0,1,2.993-1.724ZM57.545,3.446A62.542,62.542,0,0,0,54.33,13.578a.988.988,0,0,0-.018.1,38.033,38.033,0,0,0-2,4.234q-.449-1.126-.954-2.183a52.331,52.331,0,0,1,6.19-12.283Zm-6.3,7.331Q50.7,12,50.209,13.25a62.352,62.352,0,0,0-3.135-9.8,52.476,52.476,0,0,1,4.17,7.328ZM45,16.829a23.119,23.119,0,0,1,.31,2.576A21.717,21.717,0,0,0,42,15.1a14.6,14.6,0,0,1,3,1.726ZM2.416,14.216a1.6,1.6,0,0,1,1.165-.463A88.2,88.2,0,0,1,32.7,18.839a95.042,95.042,0,0,0,17.213,4.253.967.967,0,1,0,.268-1.915c-1-.141-1.967-.3-2.9-.462A30.236,30.236,0,0,0,44.2,8.182a38.007,38.007,0,0,1,7.184,12.907.967.967,0,0,0,1.846,0A38.005,38.005,0,0,1,60.414,8.183a29.205,29.205,0,0,0-3.05,13.7c-1.037-.064-2.05-.14-3.033-.23a.967.967,0,0,0-.177,1.925c2.6.239,5.4.386,8.324.439a1.622,1.622,0,0,1,1.588,1.611v6.219a3.642,3.642,0,0,0-.351-.16,3.5,3.5,0,0,0-3.557.592c-.4.339-.777.7-1.136,1.046-1.282,1.238-2.388,2.307-4.667,2.307s-3.386-1.069-4.667-2.307c-1.383-1.336-2.95-2.849-6.01-2.849s-4.627,1.514-6.01,2.849c-1.282,1.238-2.388,2.307-4.667,2.307s-3.385-1.069-4.667-2.307c-1.383-1.336-2.95-2.849-6.01-2.849s-4.627,1.514-6.01,2.849c-1.282,1.238-2.388,2.307-4.667,2.307s-3.386-1.069-4.667-2.307c-.36-.347-.732-.707-1.136-1.046a3.5,3.5,0,0,0-3.536-.6,3.6,3.6,0,0,0-.372.167V15.364a1.6,1.6,0,0,1,.482-1.148Zm57.461,49.85H6.123a4.194,4.194,0,0,1-4.189-4.189V50.356c0-.021.008-.043.01-.064A1.6,1.6,0,0,1,2.96,48.971a1.578,1.578,0,0,1,1.638.262c.353.3.684.616,1.036.956,1.383,1.336,2.951,2.849,6.011,2.849s4.627-1.514,6.01-2.849a7.5,7.5,0,0,1,3.013-2.08.967.967,0,1,0-.558-1.851,9.258,9.258,0,0,0-3.8,2.541c-1.282,1.238-2.388,2.307-4.667,2.307S8.259,50.035,6.978,48.8c-.36-.347-.732-.707-1.136-1.046a3.5,3.5,0,0,0-3.6-.574c-.1.042-.206.09-.305.141V34.85c.008-.03.014-.061.019-.093A1.6,1.6,0,0,1,2.992,33.49a1.573,1.573,0,0,1,1.607.274c.353.3.685.616,1.036.956,1.383,1.336,2.951,2.849,6.011,2.849s4.627-1.514,6.01-2.849c1.282-1.238,2.388-2.307,4.667-2.307s3.386,1.069,4.667,2.307c1.383,1.336,2.95,2.849,6.01,2.849s4.627-1.514,6.01-2.849c1.282-1.238,2.388-2.307,4.667-2.307s3.386,1.069,4.667,2.307c1.383,1.336,2.95,2.849,6.01,2.849s4.628-1.514,6.011-2.849c.351-.339.683-.66,1.036-.956a1.58,1.58,0,0,1,1.617-.27,1.6,1.6,0,0,1,1.032,1.284c0,.029.01.057.016.084V47.318a3.59,3.59,0,0,0-.372-.167,3.5,3.5,0,0,0-3.536.6c-.4.339-.777.7-1.136,1.046-1.282,1.238-2.388,2.307-4.667,2.307S50.97,50.035,49.688,48.8c-1.383-1.336-2.95-2.849-6.01-2.849s-4.627,1.514-6.01,2.849C36.386,50.035,35.279,51.1,33,51.1s-3.386-1.069-4.667-2.307a9.259,9.259,0,0,0-3.8-2.54.967.967,0,1,0-.558,1.851,7.5,7.5,0,0,1,3.012,2.08c1.383,1.336,2.95,2.849,6.01,2.849s4.627-1.514,6.01-2.849c1.282-1.238,2.388-2.307,4.667-2.307s3.386,1.069,4.667,2.307c1.383,1.336,2.95,2.849,6.01,2.849s4.628-1.514,6.011-2.849c.351-.339.683-.66,1.036-.956a1.572,1.572,0,0,1,1.607-.274,1.6,1.6,0,0,1,1.039,1.267c0,.032.011.063.019.093v9.558a4.2,4.2,0,0,1-4.19,4.19Z" fill="#12263f"/>
    </g>
  </g>
</svg>
