<svg xmlns="http://www.w3.org/2000/svg" xmlns:xlink="http://www.w3.org/1999/xlink" width="69" height="69" viewBox="0 0 69 69">
  <defs>
    <clipPath id="clip-path">
      <rect id="Rectángulo_35632" data-name="Rectángulo 35632" width="69" height="69" transform="translate(0.471 0.471)" fill="#3ca8f4" stroke="#707070" stroke-width="1"/>
    </clipPath>
  </defs>
  <g id="Enmascarar_grupo_68" data-name="Enmascarar grupo 68" transform="translate(-0.471 -0.471)" clip-path="url(#clip-path)">
    <g id="Page-1" transform="translate(0.532 -0.618)">
      <g id="_048---Water-Test" data-name="048---Water-Test" transform="translate(0 0)">
        <g id="Icons" transform="translate(1.133 1.153)">
          <path id="Shape" d="M71.475,47.033v19.6a8.071,8.071,0,0,1-16.141,0V57.41a17.017,17.017,0,0,0,3.459-10.284v-.092Z" transform="translate(-10.342 -7.833)" fill="#02a9f4"/>
          <path id="Shape-2" data-name="Shape" d="M69.283,47.033v19.6a8.071,8.071,0,0,1-6.341,7.886,8.451,8.451,0,0,0,1.729.184,8.071,8.071,0,0,0,8.071-8.071v-19.6Z" transform="translate(-11.609 -7.833)" fill="#0377bc"/>
          <path id="Shape-3" data-name="Shape" d="M71.475,12.45V41.274H58.792a24.442,24.442,0,0,0-3.459-11.679V12.45Z" transform="translate(-10.342 -2.074)" fill="#f5f5f5"/>
          <path id="Rectangle-path" d="M70.55,12.45h3.459V41.274H70.55Z" transform="translate(-12.876 -2.074)" fill="#cfd8dc"/>
          <rect id="Rectangle-path-2" data-name="Rectangle-path" width="23.059" height="10.376" rx="4.15" transform="translate(41.533)" fill="#9e9e9e"/>
          <path id="Shape-4" data-name="Shape" d="M74.009,0H70.55a3.459,3.459,0,0,1,3.459,3.459V6.918a3.459,3.459,0,0,1-3.459,3.459h3.459a3.459,3.459,0,0,0,3.459-3.459V3.459A3.459,3.459,0,0,0,74.009,0Z" transform="translate(-12.876 0)" fill="#707070"/>
          <path id="Shape-5" data-name="Shape" d="M22.131,31.353a10.376,10.376,0,0,1-6.918,9.777,10.492,10.492,0,0,1-5.246.461,10.376,10.376,0,0,1-8.324-7.713c-1.995-8.44,6.779-16.372,9.385-18.447a1.153,1.153,0,0,1,1.418,0c1.8,1.407,6.48,5.615,8.589,10.815A13.247,13.247,0,0,1,22.131,31.353Z" transform="translate(-1.351 -2.529)" fill="#3f51b5"/>
          <path id="Shape-6" data-name="Shape" d="M52.581,41.884a17.017,17.017,0,0,1-3.459,10.284,17.386,17.386,0,0,1-16.764,6.618A17.167,17.167,0,0,1,18.523,46.1a17.525,17.525,0,0,1-.461-4.923,10.376,10.376,0,0,0,6.848-9.823,13.247,13.247,0,0,0-1.072-5.073,55.526,55.526,0,0,1,10.3-10.665,1.925,1.925,0,0,1,2.364,0A52.7,52.7,0,0,1,49.123,30.055,24.35,24.35,0,0,1,52.581,41.884Z" transform="translate(-4.131 -2.534)" fill="#02a9f4"/>
          <g id="Grupo_101674" data-name="Grupo 101674" transform="translate(3.652 29.104)">
            <path id="Shape-7" data-name="Shape" d="M11.469,41.476h-.138a6.848,6.848,0,0,1-5.569-5.108,1.183,1.183,0,1,1,2.306-.53,4.5,4.5,0,0,0,3.643,3.344,1.157,1.157,0,1,1-.184,2.306Z" transform="translate(-5.732 -34.92)" fill="#f5f5f5"/>
            <path id="Shape-8" data-name="Shape" d="M33.85,61.119h-.184A13.685,13.685,0,0,1,22.6,51a1.155,1.155,0,1,1,2.248-.53,11.333,11.333,0,0,0,9.224,8.382,1.157,1.157,0,1,1-.184,2.306Z" transform="translate(-8.536 -37.361)" fill="#f5f5f5"/>
            <path id="Shape-9" data-name="Shape" d="M64.095,74.931a4.485,4.485,0,0,1-4.612-4.612,1.153,1.153,0,1,1,2.306,0,2.167,2.167,0,0,0,2.306,2.306,1.153,1.153,0,1,1,0,2.306Z" transform="translate(-14.684 -40.624)" fill="#f5f5f5"/>
          </g>
        </g>
        <g id="Icons_copy">
          <path id="Shape-10" data-name="Shape" d="M64.794,59.953V12.521a4.612,4.612,0,0,0,3.459-4.45V4.612A4.612,4.612,0,0,0,63.641,0H47.5a4.612,4.612,0,0,0-4.612,4.612V8.071a4.612,4.612,0,0,0,3.459,4.45v12.2a57.116,57.116,0,0,0-10.78-11.368,3.044,3.044,0,0,0-3.782,0,57.152,57.152,0,0,0-9.35,9.373A33.435,33.435,0,0,0,14.364,13.2a2.306,2.306,0,0,0-2.848,0C9.452,14.781-.555,23.232,1.7,32.767a11.529,11.529,0,0,0,9.224,8.578,10.849,10.849,0,0,0,1.983.161,11.529,11.529,0,0,0,2.306-.254,19.416,19.416,0,0,0,.519,3.712A18.366,18.366,0,0,0,30.551,58.546a19.8,19.8,0,0,0,3.113.254A18.516,18.516,0,0,0,45.7,54.4c.242-.2.45-.427.68-.646v6.2a9.224,9.224,0,0,0,18.447,0ZM45.194,8.071V4.612A2.306,2.306,0,0,1,47.5,2.306H63.641a2.306,2.306,0,0,1,2.306,2.306V8.071a2.306,2.306,0,0,1-2.306,2.306H47.5A2.306,2.306,0,0,1,45.194,8.071Zm3.459,4.612H62.488v3.459H57.876a1.153,1.153,0,0,0,0,2.306h4.612v3.459H57.876a1.153,1.153,0,0,0,0,2.306h4.612v3.459H57.876a1.153,1.153,0,0,0,0,2.306h4.612v3.459H57.876a1.153,1.153,0,0,0,0,2.306h4.612V39.2H52.111a26.218,26.218,0,0,0-3.459-10.8ZM11.332,39.073a9.154,9.154,0,0,1-7.379-6.791C1.97,23.9,11.758,15.876,12.911,14.988c.945.749,9.224,7.494,9.224,14.988a9.224,9.224,0,0,1-6.111,8.682,9.327,9.327,0,0,1-4.692.415Zm32.836,13.57A16.337,16.337,0,0,1,30.92,56.275,16.049,16.049,0,0,1,17.973,44.411a17.167,17.167,0,0,1-.45-3.885,11.437,11.437,0,0,0,6.918-10.549,14.043,14.043,0,0,0-.934-4.877,54.983,54.983,0,0,1,9.7-9.95.784.784,0,0,1,.945,0,52.574,52.574,0,0,1,12.29,13.974A23.428,23.428,0,0,1,49.805,40.5,15.911,15.911,0,0,1,44.168,52.643Zm4.485,7.31V51.144a18.078,18.078,0,0,0,3.459-9.639H62.488v3.459H57.876a1.153,1.153,0,0,0,0,2.306h4.612v3.459H57.876a1.153,1.153,0,0,0,0,2.306h4.612v6.918a6.918,6.918,0,0,1-13.835,0Z" transform="translate(-1.375 0)"/>
        </g>
      </g>
    </g>
  </g>
</svg>
