<svg xmlns="http://www.w3.org/2000/svg" xmlns:xlink="http://www.w3.org/1999/xlink" width="170" height="170" viewBox="0 0 170 170">
  <defs>
    <clipPath id="clip-path">
      <rect id="Rectángulo_35475" data-name="Rectángulo 35475" width="170" height="170" transform="translate(0.186 0)" fill="#fff" stroke="#707070" stroke-width="1"/>
    </clipPath>
  </defs>
  <g id="Enmascarar_grupo_49" data-name="Enmascarar grupo 49" transform="translate(-0.185 0)" clip-path="url(#clip-path)">
    <g id="corrosivo" transform="translate(0 0)">
      <g id="Grupo_100893" data-name="Grupo 100893" transform="translate(8.004 8.004)">
        <path id="Trazado_156252" data-name="Trazado 156252" d="M5.838,82.834l77,77,7.213-77.453L82.834,5.838Z" transform="translate(-5.838 -5.838)" fill="#ffe51b"/>
        <path id="Trazado_156253" data-name="Trazado 156253" d="M62.6,5.838V159.831l77-77Z" transform="translate(14.392 -5.838)" fill="#fb0"/>
      </g>
      <path id="Trazado_156254" data-name="Trazado 156254" d="M14.166,85,85,14.167,89.439,10.2,85,0,0,85l85,85,4.439-8L85,155.833Z" transform="translate(0 0)" fill="#7ae582"/>
      <path id="Trazado_156255" data-name="Trazado 156255" d="M62,0V14.167L132.834,85,62,155.833V170l85-85Z" transform="translate(23)" fill="#3ed549"/>
      <g id="Grupo_100894" data-name="Grupo 100894" transform="translate(-0.316 -0.001)">
        <path id="Trazado_156238" data-name="Trazado 156238" d="M102.82,101.474c.967,13.1-17.822,15.77-17.822,15.77,5.862-5.862,2.931-14.656,2.931-14.656l.088-.557a52,52,0,0,0,7.533.557A25.1,25.1,0,0,0,102.82,101.474Z" fill="#67b9cc"/>
        <path id="Trazado_156239" data-name="Trazado 156239" d="M102.82,67.355C103.787,54.252,85,51.585,85,51.585c5.862,5.862,2.931,14.656,2.931,14.656l.088.557a52,52,0,0,1,7.533-.557A25.11,25.11,0,0,1,102.82,67.355Z" fill="#67b9cc"/>
      </g>
      <path id="Trazado_156256" data-name="Trazado 156256" d="M126.035,84.3s-9.907,13.249-23.215,17.177a25.1,25.1,0,0,1-7.269,1.114,52.047,52.047,0,0,1-7.533-.557c-10.054-1.554-18.115-6.068-21.368-11.9a13.146,13.146,0,0,1-2.111,2.785,12.268,12.268,0,0,1-8.618,3.576h-6.1V72.1h6.1a12.217,12.217,0,0,1,10.728,6.361c4.016-7.211,15.447-12.458,28.9-12.458C112.376,66.007,126.035,84.3,126.035,84.3Z" transform="translate(-0.316 -0.001)" fill="#41767f"/>
      <g id="Grupo_100895" data-name="Grupo 100895" transform="translate(-0.316 -0.001)">
        <path id="Trazado_156241" data-name="Trazado 156241" d="M105.516,90.863A2.921,2.921,0,0,1,103.444,90L94.65,81.211A2.931,2.931,0,0,1,98.8,77.066l8.794,8.794a2.931,2.931,0,0,1-2.072,5Z" fill="#bdc3c7"/>
        <path id="Trazado_156242" data-name="Trazado 156242" d="M96.723,90.863a2.931,2.931,0,0,1-2.072-5l8.794-8.794a2.931,2.931,0,1,1,4.145,4.145L98.8,90A2.923,2.923,0,0,1,96.723,90.863Z" fill="#bdc3c7"/>
      </g>
    </g>
  </g>
</svg>
