<svg xmlns="http://www.w3.org/2000/svg" width="161" height="161" viewBox="0 0 161 161">
  <g id="Grupo_102468" data-name="Grupo 102468" transform="translate(-839 -957)">
    <circle id="Elipse_4349" data-name="Elipse 4349" cx="80.5" cy="80.5" r="80.5" transform="translate(839 957)" fill="#fff"/>
    <g id="cloro" transform="translate(829 994.765)">
      <path id="Trazado_157582" data-name="Trazado 157582" d="M66,125.641a7.344,7.344,0,0,0,7.344,7.344h55.078a7.344,7.344,0,0,0,7.344-7.344V84.883a27.54,27.54,0,0,0-27.539-27.539H97.211A7.346,7.346,0,0,1,89.867,50H66Zm60.586-31.578H124.75A27.54,27.54,0,0,1,97.211,66.523h11.016a18.359,18.359,0,0,1,18.359,18.359Z" transform="translate(-8.164 -40.82)" fill="#fff"/>
      <path id="Trazado_157583" data-name="Trazado 157583" d="M66,10H89.867v7.344H66Z" transform="translate(-8.164 -8.164)" fill="#ffe6b4"/>
      <path id="Trazado_157584" data-name="Trazado 157584" d="M97.211,57.344H66V50H89.867A7.344,7.344,0,0,0,97.211,57.344Z" transform="translate(-8.164 -40.82)" fill="#e2e9ee"/>
      <path id="Trazado_157585" data-name="Trazado 157585" d="M135.766,211.426v40.758a7.344,7.344,0,0,1-7.344,7.344H73.344A7.344,7.344,0,0,1,66,252.184V205.167a9.276,9.276,0,0,1,3.488,1.669,8.729,8.729,0,0,0,4.957,1.836,8.729,8.729,0,0,0,4.957-1.836,7.61,7.61,0,0,1,9.914,0,7.61,7.61,0,0,0,9.914,0,8.355,8.355,0,0,1,1.223-.8,27.532,27.532,0,0,0,24.3,14.566h1.836v-9.18a18.306,18.306,0,0,0-1.094-6.257,9.256,9.256,0,0,1,3.481,1.667,8.729,8.729,0,0,0,4.957,1.836,6.758,6.758,0,0,0,1.676-.218A27.417,27.417,0,0,1,135.766,211.426Z" transform="translate(-8.164 -167.363)" fill="#cbf4fb"/>
      <g id="Grupo_101683" data-name="Grupo 101683" transform="translate(56)">
        <path id="Trazado_157586" data-name="Trazado 157586" d="M370.183,108.642a1.837,1.837,0,1,0-.5-2.546A1.829,1.829,0,0,0,370.183,108.642Z" transform="translate(-311.837 -85.951)" fill="#12263f"/>
        <path id="Trazado_157587" data-name="Trazado 157587" d="M127.693,34.073a29.258,29.258,0,0,0-4.819-8.521,1.836,1.836,0,0,0-2.851,2.315,25.4,25.4,0,0,1,5.335,11.585,7.168,7.168,0,0,1-3.378-1.395,11.047,11.047,0,0,0-3.272-1.767c-.012-.03-.024-.06-.037-.09a20.181,20.181,0,0,0-18.607-12.334H89.047A1.837,1.837,0,0,0,87.211,25.7a29.173,29.173,0,0,0,2.31,11.434c.128.3.263.6.4.9l-.018.015a5.776,5.776,0,0,1-7.581.006,9.444,9.444,0,0,0-12.247-.006,6.92,6.92,0,0,1-3.794,1.421,6.916,6.916,0,0,1-3.788-1.415,10.994,10.994,0,0,0-2.822-1.6v-18.1h40.391a25.785,25.785,0,0,1,7.336,1.061,1.854,1.854,0,0,0,1.612-.281,1.834,1.834,0,0,0,.527-2.352,1.838,1.838,0,0,0-1.092-.887,29.448,29.448,0,0,0-8.383-1.214H89.047a5.514,5.514,0,0,1-5.193-3.672h1.521A5.508,5.508,0,0,0,85.375,0H57.836A1.836,1.836,0,0,0,56,1.836V84.82A9.173,9.173,0,0,0,65.18,94h55.078a9.173,9.173,0,0,0,9.18-9.18V44.063A29.252,29.252,0,0,0,127.693,34.073Zm-27.631-6.534a16.523,16.523,0,0,1,16.523,16.523v7.344A25.706,25.706,0,0,1,90.947,27.539ZM59.672,14.688V11.016H80.051A9.12,9.12,0,0,0,81.7,14.688Zm27.539-9.18a1.838,1.838,0,0,1-1.836,1.836H83.539V3.672h1.836A1.838,1.838,0,0,1,87.211,5.508ZM59.672,3.672h20.2V7.344h-20.2ZM125.766,84.82a5.529,5.529,0,0,1-5.508,5.508H65.18a5.529,5.529,0,0,1-5.508-5.508V40.553c.3.192.481.333.482.335a10.421,10.421,0,0,0,6.127,2.257,10.417,10.417,0,0,0,6.12-2.251A6.918,6.918,0,0,1,76.2,39.473a6.916,6.916,0,0,1,3.787,1.415,10.421,10.421,0,0,0,6.127,2.257,10.226,10.226,0,0,0,5.58-1.85c.176.28.355.559.54.833a29.45,29.45,0,0,0,12.923,10.641,29.173,29.173,0,0,0,11.434,2.31h1.836a1.837,1.837,0,0,0,1.836-1.836v-9.18a20.413,20.413,0,0,0-.2-2.858,10.287,10.287,0,0,0,5.692,1.94c.011.3.017.611.017.918Z" transform="translate(-56)" fill="#12263f"/>
      </g>
    </g>
  </g>
</svg>
