<svg xmlns="http://www.w3.org/2000/svg" xmlns:xlink="http://www.w3.org/1999/xlink" width="179" height="179" viewBox="0 0 179 179">
  <defs>
    <clipPath id="clip-path">
      <rect id="Rect치ngulo_32791" data-name="Rect치ngulo 32791" width="152" height="152" transform="translate(12254 -8724)" fill="#fff" stroke="#707070" stroke-width="1"/>
    </clipPath>
  </defs>
  <g id="Grupo_102472" data-name="Grupo 102472" transform="translate(-283 -2872)">
    <rect id="Rect치ngulo_35485" data-name="Rect치ngulo 35485" width="179" height="179" rx="30" transform="translate(283 2872)" fill="#7ae582"/>
    <g id="Enmascarar_grupo_93" data-name="Enmascarar grupo 93" transform="translate(-11957 11609)" clip-path="url(#clip-path)">
      <g id="matraz" transform="translate(12275.801 -8724)">
        <path id="Trazado_147127" data-name="Trazado 147127" d="M54.2,149.031H93.674a11.754,11.754,0,0,0,10.874-16.213L72.406,54.471A38.867,38.867,0,0,1,69.5,39.715V19.007a11.322,11.322,0,0,1,3.315-8,7.211,7.211,0,0,0,2.113-5.1V2.969H33.475V5.9A7.211,7.211,0,0,0,35.588,11a11.321,11.321,0,0,1,3.314,8V39.715a38.883,38.883,0,0,1-2.908,14.756L3.851,132.818a11.753,11.753,0,0,0,10.873,16.213Zm0,0" fill="#fff"/>
        <path id="Trazado_147128" data-name="Trazado 147128" d="M3.851,132.818a11.753,11.753,0,0,0,10.873,16.213h78.95a11.754,11.754,0,0,0,10.874-16.213L81.238,76H27.161Zm0,0" fill="#a7c5ff"/>
        <path id="Trazado_147129" data-name="Trazado 147129" d="M107.295,131.691,75.152,53.345a35.75,35.75,0,0,1-2.687-13.63V19.006a8.3,8.3,0,0,1,2.446-5.9,10.116,10.116,0,0,0,2.983-7.2V2.969A2.969,2.969,0,0,0,74.925,0H33.475a2.969,2.969,0,0,0-2.969,2.969V5.9a10.115,10.115,0,0,0,2.982,7.2,8.3,8.3,0,0,1,2.446,5.905V39.715a35.728,35.728,0,0,1-2.687,13.63L24.414,74.873l-.01.024L1.1,131.691A14.722,14.722,0,0,0,14.724,152h78.95a14.721,14.721,0,0,0,13.62-20.309ZM38.74,55.6a41.636,41.636,0,0,0,3.131-15.883V19.006A14.193,14.193,0,0,0,37.687,8.9a4.219,4.219,0,0,1-1.243-2.966H71.956A4.217,4.217,0,0,1,70.712,8.9a14.2,14.2,0,0,0-4.184,10.1V39.714A41.658,41.658,0,0,0,69.659,55.6l7.168,17.472H31.572Zm62.23,86.573a8.655,8.655,0,0,1-7.3,3.892H14.724a8.8,8.8,0,0,1-8.7-10.055h4.891a2.969,2.969,0,1,0,0-5.937H8.188l3.409-8.312h5.007a2.969,2.969,0,0,0,0-5.937H14.034l3.409-8.312h5.149a2.969,2.969,0,0,0,0-5.937H19.88l3.411-8.312h5.288a2.969,2.969,0,1,0,0-5.937H25.726l3.411-8.312H79.262L101.8,133.945a8.656,8.656,0,0,1-.831,8.226Zm0,0" fill="#12263f"/>
        <path id="Trazado_147130" data-name="Trazado 147130" d="M92.634,131.876a2.969,2.969,0,0,0-5.5,2.249l.016.037a2.968,2.968,0,1,0,5.495-2.249Zm0,0" fill="#fb0"/>
        <path id="Trazado_147131" data-name="Trazado 147131" d="M88.438,121.648,77.807,95.734a2.969,2.969,0,1,0-5.493,2.253L82.945,123.9a2.969,2.969,0,1,0,5.493-2.253Zm0,0" fill="#fb0"/>
      </g>
    </g>
  </g>
</svg>
