<svg xmlns="http://www.w3.org/2000/svg" xmlns:xlink="http://www.w3.org/1999/xlink" width="179" height="179" viewBox="0 0 179 179">
  <defs>
    <clipPath id="clip-path">
      <rect id="Rectángulo_35641" data-name="Rectángulo 35641" width="152" height="152" transform="translate(582 2885)" fill="#fff" stroke="#707070" stroke-width="1"/>
    </clipPath>
  </defs>
  <g id="Grupo_102473" data-name="Grupo 102473" transform="translate(-568 -2872)">
    <rect id="Rectángulo_35486" data-name="Rectángulo 35486" width="179" height="179" rx="20" transform="translate(568 2872)" fill="#7ae582"/>
    <g id="Enmascarar_grupo_94" data-name="Enmascarar grupo 94" clip-path="url(#clip-path)">
      <g id="peligroso" transform="translate(582 2885)">
        <path id="Trazado_157610" data-name="Trazado 157610" d="M56.387,17.161l4.9-14.71H85.806l4.9,14.71Z" fill="#48c397"/>
        <rect id="Rectángulo_35642" data-name="Rectángulo 35642" width="83.355" height="58.839" transform="translate(7.355 26.968)" fill="#92e0c0"/>
        <rect id="Rectángulo_35643" data-name="Rectángulo 35643" width="83.355" height="7.355" transform="translate(7.355 26.968)" fill="#48c397"/>
        <rect id="Rectángulo_35644" data-name="Rectángulo 35644" width="83.355" height="58.839" transform="translate(7.355 80.903)" fill="#92e0c0"/>
        <path id="Trazado_157611" data-name="Trazado 157611" d="M68.645,95.613H2.452V76h76Z" fill="#0fa196"/>
        <rect id="Rectángulo_35645" data-name="Rectángulo 35645" width="83.355" height="7.355" transform="translate(7.355 95.613)" fill="#48c397"/>
        <g id="Grupo_101689" data-name="Grupo 101689">
          <rect id="Rectángulo_35646" data-name="Rectángulo 35646" width="93.161" height="9.806" transform="translate(2.452 17.161)" fill="#0fa196"/>
          <path id="Trazado_157612" data-name="Trazado 157612" d="M105.419,149.548H2.452v-9.806H85.806Z" fill="#0fa196"/>
        </g>
        <circle id="Elipse_4555" data-name="Elipse 4555" cx="44.129" cy="44.129" r="44.129" transform="translate(61.29 61.29)" fill="#ececec"/>
        <g id="Grupo_101690" data-name="Grupo 101690">
          <circle id="Elipse_4556" data-name="Elipse 4556" cx="4.903" cy="4.903" r="4.903" transform="translate(100.516 100.516)" fill="#fcd770"/>
          <path id="Trazado_157613" data-name="Trazado 157613" d="M100.516,117.677,88.258,135.113a34.128,34.128,0,0,0,34.323,0l-12.258-17.436Z" fill="#fcd770"/>
          <path id="Trazado_157614" data-name="Trazado 157614" d="M139.715,105.434a34.128,34.128,0,0,0-17.161-29.723l-8.97,19.333,4.9,8.492Z" fill="#fcd770"/>
          <path id="Trazado_157615" data-name="Trazado 157615" d="M97.255,95.044l-8.97-19.333a34.127,34.127,0,0,0-17.161,29.723l21.229-1.9Z" fill="#fcd770"/>
        </g>
        <path id="Trazado_157616" data-name="Trazado 157616" d="M105.419,139.742a44.124,44.124,0,0,1-43.842-39.226,44.936,44.936,0,0,0-.287,4.9,44.129,44.129,0,0,0,88.258,0,44.937,44.937,0,0,0-.287-4.9A44.124,44.124,0,0,1,105.419,139.742Z" fill="#b6c1ce"/>
        <path id="Trazado_157617" data-name="Trazado 157617" d="M105.419,58.839A46.3,46.3,0,0,0,93.161,60.53V29.419h4.9V14.71H92.477L87.574,0H59.523l-4.9,14.71H0v14.71H4.9V73.548H0V98.065H4.9V137.29H0V152H105.419a46.581,46.581,0,0,0,0-93.161ZM63.058,4.9H84.041l3.268,9.806H59.79ZM9.806,29.419H78.452v-4.9H4.9v-4.9H93.161v4.9H83.355v4.9h4.9V62.156A46.659,46.659,0,0,0,71.543,73.548H9.806ZM4.9,78.452H67.51a46.141,46.141,0,0,0-3.1,4.9H39.226v4.9h22.93a45.752,45.752,0,0,0-1.625,4.9H4.9Zm4.9,19.613H59.479A45.66,45.66,0,0,0,71.543,137.29H9.806ZM4.9,147.1v-4.9H76.934a46.511,46.511,0,0,0,7.808,4.9Zm100.516,0A41.677,41.677,0,1,1,147.1,105.419,41.724,41.724,0,0,1,105.419,147.1Z" fill="#12263f"/>
        <path id="Trazado_157618" data-name="Trazado 157618" d="M105.419,112.774a7.355,7.355,0,1,0-7.355-7.355A7.364,7.364,0,0,0,105.419,112.774Zm0-9.806a2.452,2.452,0,1,1-2.452,2.452A2.454,2.454,0,0,1,105.419,102.968Z" fill="#12263f"/>
        <path id="Trazado_157619" data-name="Trazado 157619" d="M108.317,119.087l10.652,15.153a32.081,32.081,0,0,1-27.1,0l10.652-15.153-4.011-2.819-13.8,19.625,2.314,1.341a36.582,36.582,0,0,0,36.784,0l2.314-1.341-13.8-19.625Z" fill="#12263f"/>
        <path id="Trazado_157620" data-name="Trazado 157620" d="M137.266,87.032a36.752,36.752,0,0,0-13.489-13.447l-2.319-1.336L111.36,94.01l4.447,2.064,7.8-16.8a31.641,31.641,0,0,1,13.553,23.469L118.7,101.092l-.436,4.884,23.9,2.133,0-2.677A36.712,36.712,0,0,0,137.266,87.032Z" fill="#12263f"/>
        <path id="Trazado_157621" data-name="Trazado 157621" d="M92.134,101.095l-18.451,1.647A31.621,31.621,0,0,1,87.236,79.273l7.8,16.8,4.447-2.064-10.1-21.761-2.319,1.336a36.583,36.583,0,0,0-18.39,31.851l0,2.677,23.9-2.133Z" fill="#12263f"/>
        <rect id="Rectángulo_35647" data-name="Rectángulo 35647" width="41.677" height="4.903" transform="translate(14.71 34.323)" fill="#12263f"/>
        <rect id="Rectángulo_35648" data-name="Rectángulo 35648" width="4.903" height="4.903" transform="translate(61.29 34.323)" fill="#12263f"/>
        <rect id="Rectángulo_35649" data-name="Rectángulo 35649" width="4.903" height="4.903" transform="translate(9.806 83.355)"/>
        <rect id="Rectángulo_35650" data-name="Rectángulo 35650" width="4.903" height="4.903" transform="translate(19.613 83.355)"/>
        <rect id="Rectángulo_35651" data-name="Rectángulo 35651" width="4.903" height="4.903" transform="translate(29.419 83.355)"/>
      </g>
    </g>
  </g>
</svg>
