<svg xmlns="http://www.w3.org/2000/svg" xmlns:xlink="http://www.w3.org/1999/xlink" width="179" height="179" viewBox="0 0 179 179">
  <defs>
    <clipPath id="clip-path">
      <rect id="Rect치ngulo_35655" data-name="Rect치ngulo 35655" width="152" height="152" rx="20" transform="translate(149 114)" fill="#3ca8f4"/>
    </clipPath>
  </defs>
  <g id="Grupo_102476" data-name="Grupo 102476" transform="translate(-135 -100)">
    <rect id="Rect치ngulo_35496" data-name="Rect치ngulo 35496" width="179" height="179" rx="20" transform="translate(135 100)" fill="#7ae582"/>
    <g id="Enmascarar_grupo_97" data-name="Enmascarar grupo 97" clip-path="url(#clip-path)">
      <g id="lucha-contra-incendios" transform="translate(149.001 111.55)">
        <g id="Grupo_101719" data-name="Grupo 101719">
          <path id="Trazado_157655" data-name="Trazado 157655" d="M137.995,84.722a2.451,2.451,0,0,1,.262-4.474,9.783,9.783,0,0,0-3.42-18.958c.091.007-.1.015-.253.025a2.45,2.45,0,0,1-2.4-2.947A9.512,9.512,0,0,0,131.3,52a2.45,2.45,0,0,1,1.473-3.449,9.773,9.773,0,0,0-2.836-19.135,5.089,5.089,0,0,0-.726.074l-.427.054a2.452,2.452,0,0,1-2.385-3.7,7.2,7.2,0,0,0,1.086-3.778,7.364,7.364,0,0,0-7.355-7.355H93.16v4.9H102.6a13.722,13.722,0,0,1,11.373,6.465,2.5,2.5,0,0,1,.257,2.228,2.464,2.464,0,0,1-1.623,1.522,9.732,9.732,0,0,0-.218,18.725A2.45,2.45,0,0,1,113.861,52a9.212,9.212,0,0,0-.49,7.61,2.454,2.454,0,0,1-1.209,3,12.231,12.231,0,0,0-.851,21.393,2.452,2.452,0,0,1,.26,4,9.7,9.7,0,0,0,.412,15.553,2.455,2.455,0,0,1,.846,2.91,9.808,9.808,0,0,0,18.74,2.868,2.448,2.448,0,0,1,1.687-1.4l.792-.186a12.387,12.387,0,0,0,10.6-12.138,12.221,12.221,0,0,0-6.649-10.89Z" fill="#e8e8e8"/>
        </g>
        <g id="Grupo_101720" data-name="Grupo 101720">
          <path id="Trazado_157656" data-name="Trazado 157656" d="M85.805,152H26.967V56.386A12.259,12.259,0,0,1,39.225,44.129H73.548A12.259,12.259,0,0,1,85.805,56.386Z" fill="#ed634a"/>
        </g>
        <g id="Grupo_101721" data-name="Grupo 101721">
          <path id="Trazado_157657" data-name="Trazado 157657" d="M78.451,60.064A112.256,112.256,0,0,0,77.4,44.805a12.148,12.148,0,0,0-3.849-.677H39.225A12.259,12.259,0,0,0,26.967,56.386v86.678c29.336-7.585,51.483-41.853,51.483-83Z" fill="#f4a192"/>
        </g>
        <g id="Grupo_101722" data-name="Grupo 101722">
          <path id="Trazado_157658" data-name="Trazado 157658" d="M26.967,63.741H85.805v68.644H26.967Z" fill="#e7e4dd"/>
        </g>
        <g id="Grupo_101723" data-name="Grupo 101723">
          <path id="Trazado_157659" data-name="Trazado 157659" d="M26.967,63.741v68.644H47.776c17.649-14.239,29.664-39.539,30.6-68.644Z" fill="#fafaf8"/>
        </g>
        <g id="Grupo_101724" data-name="Grupo 101724">
          <path id="Trazado_157660" data-name="Trazado 157660" d="M36.774,73.548H76v49.032H36.774Z" fill="#ed634a"/>
        </g>
        <g id="Grupo_101725" data-name="Grupo 101725">
          <path id="Trazado_157661" data-name="Trazado 157661" d="M76,83.28V73.548H36.774v49.032H57.639C66.269,112.14,72.712,98.593,76,83.28Z" fill="#f4a192"/>
        </g>
        <g id="Grupo_101726" data-name="Grupo 101726">
          <path id="Trazado_157662" data-name="Trazado 157662" d="M39.225,34.322H73.548v9.806H39.225Z" fill="#8a8275"/>
        </g>
        <g id="Grupo_101727" data-name="Grupo 101727">
          <path id="Trazado_157663" data-name="Trazado 157663" d="M14.71,85.805H26.967v9.806H14.71Z" fill="#8a8275"/>
        </g>
        <g id="Grupo_101728" data-name="Grupo 101728">
          <path id="Trazado_157664" data-name="Trazado 157664" d="M49.032,9.806h14.71V34.322H49.032Z" fill="#8a8275"/>
        </g>
        <g id="Grupo_101729" data-name="Grupo 101729">
          <path id="Trazado_157665" data-name="Trazado 157665" d="M78.451,14.71,93.16,4.9V34.322l-14.71-9.806Z" fill="#4e4a40"/>
        </g>
        <g id="Grupo_101730" data-name="Grupo 101730">
          <path id="Trazado_157666" data-name="Trazado 157666" d="M63.741,14.71h14.71v9.806H63.741Z" fill="#4e4a40"/>
        </g>
        <g id="Grupo_101731" data-name="Grupo 101731">
          <path id="Trazado_157667" data-name="Trazado 157667" d="M49.032,24.516H24.516a9.807,9.807,0,0,0-9.806,9.806v76a4.9,4.9,0,0,1-9.806,0v-76A19.614,19.614,0,0,1,24.516,14.71H49.032Z" fill="#4e4a40"/>
        </g>
        <g id="Grupo_101732" data-name="Grupo 101732">
          <path id="Trazado_157668" data-name="Trazado 157668" d="M85.805,154.45H26.967A2.452,2.452,0,0,1,24.516,152V56.386a14.724,14.724,0,0,1,14.71-14.71H73.548a14.724,14.724,0,0,1,14.71,14.71V152A2.452,2.452,0,0,1,85.805,154.45Zm-56.386-4.9H83.354V56.386a9.816,9.816,0,0,0-9.806-9.806H39.225a9.816,9.816,0,0,0-9.806,9.806Z" fill="#12263f"/>
        </g>
        <g id="Grupo_101733" data-name="Grupo 101733">
          <path id="Trazado_157669" data-name="Trazado 157669" d="M76,44.129H71.1V36.774H41.677v7.355h-4.9V34.322a2.452,2.452,0,0,1,2.452-2.452H73.548A2.452,2.452,0,0,1,76,34.322Z" fill="#12263f"/>
        </g>
        <g id="Grupo_101734" data-name="Grupo 101734">
          <path id="Trazado_157670" data-name="Trazado 157670" d="M66.193,34.322h-4.9V12.258H51.483V34.322h-4.9V9.806a2.452,2.452,0,0,1,2.452-2.452h14.71a2.452,2.452,0,0,1,2.452,2.452Z" fill="#12263f"/>
        </g>
        <g id="Grupo_101735" data-name="Grupo 101735">
          <path id="Trazado_157671" data-name="Trazado 157671" d="M78.451,26.967H63.741v-4.9H76v-4.9H63.741v-4.9h14.71A2.452,2.452,0,0,1,80.9,14.71v9.806A2.452,2.452,0,0,1,78.451,26.967Z" fill="#12263f"/>
        </g>
        <g id="Grupo_101736" data-name="Grupo 101736">
          <path id="Trazado_157672" data-name="Trazado 157672" d="M93.16,36.774a2.448,2.448,0,0,1-1.361-.412L77.09,26.556l2.719-4.079,10.9,7.264V9.485l-10.9,7.264L77.093,12.67,91.8,2.863a2.45,2.45,0,0,1,3.81,2.04V34.322a2.449,2.449,0,0,1-2.452,2.452Z" fill="#12263f"/>
        </g>
        <g id="Grupo_101737" data-name="Grupo 101737">
          <path id="Trazado_157673" data-name="Trazado 157673" d="M9.806,117.676a7.364,7.364,0,0,1-7.355-7.355v-76A22.091,22.091,0,0,1,24.516,12.258H49.032v4.9H24.516A17.18,17.18,0,0,0,7.355,34.322v76a2.452,2.452,0,0,0,4.9,0v-76A12.272,12.272,0,0,1,24.516,22.064H49.032v4.9H24.516a7.364,7.364,0,0,0-7.355,7.355v76A7.364,7.364,0,0,1,9.806,117.676Z" fill="#12263f"/>
        </g>
        <g id="Grupo_101738" data-name="Grupo 101738">
          <path id="Trazado_157674" data-name="Trazado 157674" d="M14.71,83.354H26.967v4.9H14.71Z" fill="#12263f"/>
        </g>
        <g id="Grupo_101739" data-name="Grupo 101739">
          <path id="Trazado_157675" data-name="Trazado 157675" d="M14.71,93.16H26.967v4.9H14.71Z" fill="#12263f"/>
        </g>
        <g id="Grupo_101740" data-name="Grupo 101740">
          <path id="Trazado_157676" data-name="Trazado 157676" d="M26.967,61.29H85.805v4.9H26.967Z" fill="#12263f"/>
        </g>
        <g id="Grupo_101741" data-name="Grupo 101741">
          <path id="Trazado_157677" data-name="Trazado 157677" d="M26.967,129.934H85.805v4.9H26.967Z" fill="#12263f"/>
        </g>
        <g id="Grupo_101742" data-name="Grupo 101742">
          <path id="Trazado_157678" data-name="Trazado 157678" d="M76,125.031H36.774a2.452,2.452,0,0,1-2.452-2.452V73.548A2.452,2.452,0,0,1,36.774,71.1H76a2.452,2.452,0,0,1,2.452,2.452v49.032A2.452,2.452,0,0,1,76,125.031Zm-36.774-4.9H73.548V76H39.225Z" fill="#12263f"/>
        </g>
        <g id="Grupo_101743" data-name="Grupo 101743">
          <path id="Trazado_157679" data-name="Trazado 157679" d="M134.977,112.56l-.738-4.849a12.239,12.239,0,0,0,3.756-22.989,2.451,2.451,0,0,1,.262-4.474,9.783,9.783,0,0,0-3.42-18.958c.091.007-.1.015-.253.025a2.45,2.45,0,0,1-2.4-2.947A9.513,9.513,0,0,0,131.3,52a2.45,2.45,0,0,1,1.473-3.449,9.773,9.773,0,0,0-2.836-19.135,5.089,5.089,0,0,0-.726.074l-.427.054a2.452,2.452,0,0,1-2.385-3.7,7.2,7.2,0,0,0,1.086-3.778,7.364,7.364,0,0,0-7.355-7.355H93.16v-4.9h26.967a12.272,12.272,0,0,1,12.258,12.258,12,12,0,0,1-.292,2.608,14.736,14.736,0,0,1,12.55,14.553,14.568,14.568,0,0,1-7.977,13.025,14.1,14.1,0,0,1,.623,4.136v.2a14.675,14.675,0,0,1,6.455,26.163,17.071,17.071,0,0,1,5.8,12.859,17.258,17.258,0,0,1-14.57,16.948Z" fill="#12263f"/>
        </g>
        <g id="Grupo_101744" data-name="Grupo 101744">
          <path id="Trazado_157680" data-name="Trazado 157680" d="M109.125,107.546a14.741,14.741,0,0,1-6.158-11.934,14.515,14.515,0,0,1,3.322-9.24,17.137,17.137,0,0,1,1.893-27.11,13.619,13.619,0,0,1-.311-2.876,14.1,14.1,0,0,1,.623-4.136,14.616,14.616,0,0,1-.591-25.724,8.151,8.151,0,0,0-5.3-2.01H93.16v-4.9H102.6a13.722,13.722,0,0,1,11.373,6.465,2.5,2.5,0,0,1,.257,2.228,2.464,2.464,0,0,1-1.623,1.522,9.732,9.732,0,0,0-.218,18.725A2.45,2.45,0,0,1,113.861,52a9.212,9.212,0,0,0-.49,7.61,2.454,2.454,0,0,1-1.209,3,12.231,12.231,0,0,0-.851,21.393,2.452,2.452,0,0,1,.26,4,9.7,9.7,0,0,0,.412,15.553Z" fill="#12263f"/>
        </g>
        <g id="Grupo_101745" data-name="Grupo 101745">
          <path id="Trazado_157681" data-name="Trazado 157681" d="M107.151,129.216l-3.467-3.467,3.589-3.589a26.973,26.973,0,0,0,7.95-19.193h4.9a31.839,31.839,0,0,1-9.387,22.66Z" fill="#12263f"/>
        </g>
        <g id="Grupo_101746" data-name="Grupo 101746">
          <path id="Trazado_157682" data-name="Trazado 157682" d="M138.007,141.474a44.013,44.013,0,0,1-12.976-31.326v-7.181h4.9v7.181a39.143,39.143,0,0,0,11.54,27.86Z" fill="#12263f"/>
        </g>
      </g>
    </g>
  </g>
</svg>
