<svg xmlns="http://www.w3.org/2000/svg" xmlns:xlink="http://www.w3.org/1999/xlink" width="179" height="179" viewBox="0 0 179 179">
  <defs>
    <clipPath id="clip-path">
      <rect id="Rect치ngulo_35658" data-name="Rect치ngulo 35658" width="152" height="152" rx="20" transform="translate(1004 114)" fill="#3ca8f4"/>
    </clipPath>
  </defs>
  <g id="Grupo_102479" data-name="Grupo 102479" transform="translate(-990 -100)">
    <rect id="Rect치ngulo_35490" data-name="Rect치ngulo 35490" width="179" height="179" rx="20" transform="translate(990 100)" fill="#7ae582"/>
    <g id="Enmascarar_grupo_100" data-name="Enmascarar grupo 100" clip-path="url(#clip-path)">
      <g id="explosion-nuclear" transform="translate(1004 114)">
        <g id="Grupo_101800" data-name="Grupo 101800">
          <path id="Trazado_157738" data-name="Trazado 157738" d="M136.563,137.156a11.807,11.807,0,0,0-6,1.624c-.68-7.567-7.633-13.5-15.378-13.5-6.178,0-12.071,3.776-14.3,9.147A22.41,22.41,0,0,1,89.52,118.7,103.076,103.076,0,0,1,87.875,99.75a132.814,132.814,0,0,1,4.311-26.057v0L76,69.683,59.814,73.69v0A132.23,132.23,0,0,1,64.125,99.75,103.052,103.052,0,0,1,62.48,118.7a22.41,22.41,0,0,1-11.364,15.725c-2.233-5.37-8.125-9.147-14.3-9.147-7.745,0-14.7,5.932-15.378,13.5a11.807,11.807,0,0,0-6-1.624c-6.558,0-12.469,5.317-12.469,11.875H149.031C149.031,142.473,143.12,137.156,136.563,137.156Z" fill="#ff9256"/>
          <path id="Trazado_157739" data-name="Trazado 157739" d="M32.956,78.129l-.092.2a20.668,20.668,0,0,1-8.52,1.823c-11.477,0-21.375-9.3-21.375-20.781s9.9-20.781,21.375-20.781a21.045,21.045,0,0,1,4.132.41,17.794,17.794,0,0,1-1.164-6.347c0-9.838,8.568-17.812,18.406-17.812a19.511,19.511,0,0,1,5.9.935l.039-.119a29.693,29.693,0,0,1,48.688,0l.039.119a19.511,19.511,0,0,1,5.9-.935c9.838,0,18.406,7.974,18.406,17.812A17.794,17.794,0,0,1,123.524,39a21.045,21.045,0,0,1,4.133-.41c11.477,0,21.375,9.3,21.375,20.781s-9.9,20.781-21.375,20.781a20.668,20.668,0,0,1-8.52-1.823l-.344-.048a12.665,12.665,0,0,1-6.573,1.87c-6.107,0-11.732-4.61-12.395-10.539A17.813,17.813,0,0,1,76,69.683a17.813,17.813,0,0,1-23.824-.065c-.662,5.929-6.288,10.539-12.395,10.539A12.7,12.7,0,0,1,32.956,78.129Z" fill="#fff2a0"/>
          <circle id="Elipse_4566" data-name="Elipse 4566" cx="5.938" cy="5.938" r="5.938" transform="translate(130.031 8.906)" fill="#eefaff"/>
        </g>
        <g id="Grupo_101801" data-name="Grupo 101801">
          <circle id="Elipse_4567" data-name="Elipse 4567" cx="2.969" cy="2.969" r="2.969" transform="translate(12.469 23.75)" fill="#12263f"/>
          <path id="Trazado_157740" data-name="Trazado 157740" d="M98.18,74.454a15.611,15.611,0,0,0,20.879,7.066,23.553,23.553,0,0,0,8.6,1.605C140.79,83.125,152,72.5,152,59.375c0-13.262-11.4-23.86-24.554-23.749a20.934,20.934,0,0,0,.21-2.97c0-11.566-9.986-20.781-21.375-20.781a22.037,22.037,0,0,0-4.677.511,32.657,32.657,0,0,0-51.209,0,22.042,22.042,0,0,0-4.677-.511c-11.369,0-21.375,9.2-21.375,20.781a20.934,20.934,0,0,0,.21,2.97C11.476,35.513,0,46.044,0,59.375c0,13.13,11.211,23.75,24.344,23.75a23.554,23.554,0,0,0,8.6-1.6,15.5,15.5,0,0,0,6.841,1.6A15.679,15.679,0,0,0,53.82,74.454a20.721,20.721,0,0,0,3.553,1.606A144.955,144.955,0,0,1,60.4,91.706c-6.215.747-17.056,2.369-17.056,8.044,0,5.755,11.032,7.353,17.541,8.1-.289,3.49-.76,7.188-1.326,10.326a19.35,19.35,0,0,1-7.39,12.05,19.049,19.049,0,0,0-15.356-7.914,18.649,18.649,0,0,0-17.531,12.38,14.878,14.878,0,0,0-3.844-.505C7.069,134.188,0,140.985,0,149.031A2.969,2.969,0,0,0,2.969,152H62.641a2.969,2.969,0,0,0,0-5.937H6.525a9.776,9.776,0,0,1,8.912-5.937,8.887,8.887,0,0,1,4.495,1.216,2.969,2.969,0,0,0,4.459-2.295c.535-5.953,6.106-10.8,12.421-10.8,4.937,0,9.8,3.077,11.562,7.317a2.969,2.969,0,0,0,4.16,1.468A25.287,25.287,0,0,0,65.4,119.229c.6-3.3,1.092-7.188,1.4-10.858,2.023.129,4.105.214,6.233.255v4.779a2.969,2.969,0,0,0,5.938,0v-4.779c2.127-.041,4.21-.126,6.232-.255.305,3.669.8,7.555,1.4,10.857a25.288,25.288,0,0,0,12.867,17.807,2.969,2.969,0,0,0,4.16-1.468c1.763-4.24,6.625-7.317,11.562-7.317,6.315,0,11.886,4.843,12.421,10.8a2.969,2.969,0,0,0,4.459,2.295,8.887,8.887,0,0,1,4.495-1.216,9.776,9.776,0,0,1,8.912,5.938H89.359a2.969,2.969,0,0,0,0,5.938h59.672A2.969,2.969,0,0,0,152,149.031c0-8.046-7.069-14.844-15.437-14.844a14.878,14.878,0,0,0-3.844.505,18.648,18.648,0,0,0-17.531-12.38,19.05,19.05,0,0,0-15.356,7.914,19.354,19.354,0,0,1-7.39-12.051c-.566-3.138-1.037-6.836-1.326-10.325,6.315-.725,17.541-2.338,17.541-8.1,0-5.668-10.649-7.274-17.056-8.044a144.924,144.924,0,0,1,3.027-15.647,20.772,20.772,0,0,0,3.553-1.606Zm-37,27.454a46.784,46.784,0,0,1-10.371-2.157A46.585,46.585,0,0,1,61.03,97.61c.058.789.1,1.542.128,2.252.024.626.031,1.311.024,2.046Zm23.7.535c-1.918.123-3.9.206-5.918.246v-16.6a2.969,2.969,0,0,0-5.937,0v16.6c-2.022-.041-4-.123-5.918-.246.127-7.542-1.663-17.964-3.357-25.261.123,0,.245.006.368.006A20.748,20.748,0,0,0,76,73.461a20.746,20.746,0,0,0,11.875,3.727c.123,0,.246,0,.368-.006-1.69,7.28-3.484,17.711-3.357,25.261Zm16.3-2.692a46.815,46.815,0,0,1-10.371,2.157c-.007-.734,0-1.419.025-2.045.027-.71.07-1.464.128-2.253a46.586,46.586,0,0,1,10.218,2.14ZM87.875,71.25a14.824,14.824,0,0,1-9.9-3.78,2.969,2.969,0,0,0-3.959,0,14.845,14.845,0,0,1-19.852-.053,2.969,2.969,0,0,0-4.943,1.871c-.487,4.356-4.723,7.9-9.444,7.9a9.688,9.688,0,0,1-5.224-1.559,8.834,8.834,0,0,1-4.276-7.347,2.969,2.969,0,0,0-5.937,0,14.233,14.233,0,0,0,2.985,8.656,17.975,17.975,0,0,1-2.985.251c-9.977,0-18.406-8.157-18.406-17.812s8.429-17.812,18.406-17.812a18.142,18.142,0,0,1,3.55.352,2.969,2.969,0,0,0,3.356-3.968,14.8,14.8,0,0,1-.969-5.29c0-8.046,7.069-14.844,15.438-14.844a16.129,16.129,0,0,1,11.658,4.949A2.969,2.969,0,0,0,61.8,18.8a20.128,20.128,0,0,0-5.463-4.231,26.708,26.708,0,0,1,39.323,0A20.117,20.117,0,0,0,90.2,18.8a2.969,2.969,0,0,0,4.424,3.96,16.132,16.132,0,0,1,11.658-4.949c8.368,0,15.438,6.8,15.438,14.844a14.8,14.8,0,0,1-.969,5.29,2.969,2.969,0,0,0,3.356,3.968,18.142,18.142,0,0,1,3.55-.352c9.977,0,18.406,8.157,18.406,17.813s-8.429,17.813-18.406,17.813a17.953,17.953,0,0,1-2.972-.248,14.2,14.2,0,0,0,2.972-8.658,2.969,2.969,0,0,0-5.937,0,8.834,8.834,0,0,1-4.472,7.469,9.679,9.679,0,0,1-5.028,1.437c-4.721,0-8.958-3.544-9.444-7.9a2.969,2.969,0,0,0-4.943-1.871,14.822,14.822,0,0,1-9.957,3.834Z" fill="#12263f"/>
          <path id="Trazado_157741" data-name="Trazado 157741" d="M76,134.188a2.969,2.969,0,0,0,2.969-2.969v-5.937a2.969,2.969,0,0,0-5.937,0v5.938A2.969,2.969,0,0,0,76,134.188Z" fill="#12263f"/>
          <path id="Trazado_157742" data-name="Trazado 157742" d="M135.969,23.75a8.906,8.906,0,1,0-8.906-8.906A8.916,8.916,0,0,0,135.969,23.75Zm0-11.875A2.969,2.969,0,1,1,133,14.844,2.972,2.972,0,0,1,135.969,11.875Z" fill="#12263f"/>
          <circle id="Elipse_4568" data-name="Elipse 4568" cx="2.969" cy="2.969" r="2.969" transform="translate(73.031 146.063)" fill="#12263f"/>
        </g>
      </g>
    </g>
  </g>
</svg>
