<svg xmlns="http://www.w3.org/2000/svg" xmlns:xlink="http://www.w3.org/1999/xlink" width="179" height="179" viewBox="0 0 179 179">
  <defs>
    <clipPath id="clip-path">
      <rect id="Rect치ngulo_35659" data-name="Rect치ngulo 35659" width="152" height="152" rx="20" transform="translate(149 472)" fill="#3ca8f4"/>
    </clipPath>
  </defs>
  <g id="Grupo_102480" data-name="Grupo 102480" transform="translate(-135 -458)">
    <rect id="Rect치ngulo_35504" data-name="Rect치ngulo 35504" width="179" height="179" rx="20" transform="translate(135 458)" fill="#7ae582"/>
    <g id="Enmascarar_grupo_108" data-name="Enmascarar grupo 108" clip-path="url(#clip-path)">
      <g id="red" transform="translate(148.853 472)">
        <path id="Trazado_158295" data-name="Trazado 158295" d="M131.736,2.229a18.185,18.185,0,0,0-15.4,27.848L95.61,50.8A31.7,31.7,0,0,0,80.2,44.416V26.125H72.088V44.418A31.855,31.855,0,0,0,44.564,71.944H21.424V80.06h23.14a31.7,31.7,0,0,0,6.382,15.4L31.316,115.09l5.739,5.739L56.685,101.2a31.846,31.846,0,0,0,38.924,0l21.5,21.5,5.739-5.739-21.5-21.5a31.845,31.845,0,0,0,0-38.921L122.07,35.816a18.184,18.184,0,1,0,9.666-33.587Zm0,0" fill="#bddbff"/>
        <path id="Trazado_158296" data-name="Trazado 158296" d="M104.089,91.276a31.89,31.89,0,0,0,0-30.553,24.417,24.417,0,1,0,0,30.553Zm0,0" fill="#57a4ff"/>
        <path id="Trazado_158297" data-name="Trazado 158297" d="M76.147,100.418A24.417,24.417,0,1,1,100.564,76,24.445,24.445,0,0,1,76.147,100.418Zm0,0" fill="#ff7956"/>
        <path id="Trazado_158298" data-name="Trazado 158298" d="M38.513,128.4a14.77,14.77,0,1,1-14.77-14.77A14.769,14.769,0,0,1,38.513,128.4Zm0,0" fill="#ffe477"/>
        <path id="Trazado_158299" data-name="Trazado 158299" d="M142.5,20.411A10.762,10.762,0,1,1,131.736,9.651,10.762,10.762,0,0,1,142.5,20.411Zm0,0" fill="#ff6243"/>
        <path id="Trazado_158300" data-name="Trazado 158300" d="M149.92,132.232a17.54,17.54,0,1,1-17.54-17.54A17.54,17.54,0,0,1,149.92,132.232Zm0,0" fill="#d7fc7e"/>
        <path id="Trazado_158301" data-name="Trazado 158301" d="M21.424,76A9.524,9.524,0,1,1,11.9,66.476,9.524,9.524,0,0,1,21.424,76Zm0,0" fill="#57a4ff"/>
        <path id="Trazado_158302" data-name="Trazado 158302" d="M88.1,14.176A11.949,11.949,0,1,1,76.146,2.227,11.95,11.95,0,0,1,88.1,14.176Zm0,0" fill="#ffb655"/>
        <path id="Trazado_158303" data-name="Trazado 158303" d="M80.6,44.47l-.4-.053V26.125H72.087V44.418A31.853,31.853,0,0,0,44.564,71.944H53.47A31.857,31.857,0,0,1,80.6,44.47Zm0,0" fill="#57a4ff"/>
        <path id="Trazado_158304" data-name="Trazado 158304" d="M21.424,71.944H30.33V80.06H21.424Zm0,0" fill="#57a4ff"/>
        <path id="Trazado_158305" data-name="Trazado 158305" d="M40.222,115.09l19.63-19.629a31.683,31.683,0,0,1-6.382-15.4H44.564a31.7,31.7,0,0,0,6.382,15.4L31.316,115.09l5.739,5.739,4.453-4.453Zm0,0" fill="#57a4ff"/>
        <path id="Trazado_158306" data-name="Trazado 158306" d="M60.636,76A24.458,24.458,0,0,1,80.6,51.989a24.418,24.418,0,1,0,0,48.022A24.459,24.459,0,0,1,60.636,76Zm0,0" fill="#ff3f62"/>
        <path id="Trazado_158307" data-name="Trazado 158307" d="M17.88,128.4A14.774,14.774,0,0,1,28.2,114.319a14.769,14.769,0,1,0,0,28.172A14.776,14.776,0,0,1,17.88,128.4Zm0,0" fill="#ffb655"/>
        <path id="Trazado_158308" data-name="Trazado 158308" d="M129.88,20.411a10.764,10.764,0,0,1,6.309-9.8,10.761,10.761,0,1,0,0,19.6,10.764,10.764,0,0,1-6.309-9.8Zm0,0" fill="#ff6243"/>
        <path id="Trazado_158309" data-name="Trazado 158309" d="M123.745,132.232a17.548,17.548,0,0,1,13.088-16.969,17.541,17.541,0,1,0,0,33.94,17.548,17.548,0,0,1-13.088-16.971Zm0,0" fill="#55e072"/>
        <path id="Trazado_158310" data-name="Trazado 158310" d="M11.281,76a9.524,9.524,0,0,1,5.071-8.422,9.524,9.524,0,1,0,0,16.843A9.523,9.523,0,0,1,11.281,76Zm0,0" fill="#006df0"/>
        <path id="Trazado_158311" data-name="Trazado 158311" d="M73.1,14.176A11.952,11.952,0,0,1,80.6,3.085a11.949,11.949,0,1,0,0,22.182,11.952,11.952,0,0,1-7.5-11.091Zm0,0" fill="#ff7956"/>
        <path id="Trazado_158312" data-name="Trazado 158312" d="M76.147,49.357A26.644,26.644,0,1,0,102.791,76,26.674,26.674,0,0,0,76.147,49.357Zm0,48.835A22.191,22.191,0,1,1,98.338,76,22.217,22.217,0,0,1,76.147,98.191Zm0,0" fill="#12263f"/>
        <path id="Trazado_158313" data-name="Trazado 158313" d="M23.743,111.408a17,17,0,1,0,17,17,17.015,17.015,0,0,0-17-17Zm0,29.539A12.543,12.543,0,1,1,36.286,128.4,12.557,12.557,0,0,1,23.743,140.947Zm0,0" fill="#12263f"/>
        <path id="Trazado_158314" data-name="Trazado 158314" d="M144.724,20.411A12.988,12.988,0,1,0,131.736,33.4,13,13,0,0,0,144.724,20.411Zm-21.523,0a8.535,8.535,0,1,1,8.535,8.535A8.544,8.544,0,0,1,123.2,20.411Zm0,0" fill="#12263f"/>
        <path id="Trazado_158315" data-name="Trazado 158315" d="M132.38,112.466a19.767,19.767,0,1,0,19.767,19.767A19.79,19.79,0,0,0,132.38,112.466Zm0,35.081a15.314,15.314,0,1,1,15.313-15.313A15.331,15.331,0,0,1,132.38,147.547Zm0,0" fill="#12263f"/>
        <path id="Trazado_158316" data-name="Trazado 158316" d="M23.65,76A11.751,11.751,0,1,0,11.9,87.751,11.765,11.765,0,0,0,23.65,76ZM4.6,76a7.3,7.3,0,1,1,7.3,7.3A7.306,7.306,0,0,1,4.6,76Zm0,0" fill="#12263f"/>
        <path id="Trazado_158317" data-name="Trazado 158317" d="M76.146,28.352A14.176,14.176,0,1,0,61.97,14.176,14.192,14.192,0,0,0,76.146,28.352Zm0-23.9a9.723,9.723,0,1,1-9.723,9.723A9.734,9.734,0,0,1,76.146,4.453Zm0,0" fill="#12263f"/>
        <path id="Trazado_158318" data-name="Trazado 158318" d="M82.429,31.59H77.976V46.376l1.945.248A29.552,29.552,0,0,1,94.248,52.56l1.55,1.2,9.535-9.535-3.149-3.149-6.8,6.8a34.023,34.023,0,0,0-12.952-5.366Zm0,0" fill="#12263f"/>
        <path id="Trazado_158319" data-name="Trazado 158319" d="M109.534,40.023l9.629-9.626a17.15,17.15,0,0,1-3.383-9.985,15.956,15.956,0,1,1,15.957,15.956,17.175,17.175,0,0,1-9.985-3.382L98.389,56.352l1.2,1.55a29.616,29.616,0,0,1,0,36.2l-1.2,1.55L117.334,114.6l3.149-3.149L104.269,95.233a34.087,34.087,0,0,0,0-38.465l18.177-18.179a20.4,20.4,0,1,0-8.888-8.888l-7.174,7.173Zm0,0" fill="#12263f"/>
        <path id="Trazado_158320" data-name="Trazado 158320" d="M95.8,98.24l-1.55,1.2a29.62,29.62,0,0,1-36.2,0l-1.55-1.2L39.389,115.346l3.149,3.149,14.374-14.374a34.086,34.086,0,0,0,38.47,0L111.6,120.334l3.149-3.149Zm0,0" fill="#12263f"/>
        <path id="Trazado_158321" data-name="Trazado 158321" d="M48.025,95.232,33.65,109.608l3.149,3.149L53.906,95.649a30.615,30.615,0,0,1-7.134-15.871l-.247-1.945H26.816v4.452H42.661a33.985,33.985,0,0,0,5.365,12.947Zm0,0" fill="#12263f"/>
        <path id="Trazado_158322" data-name="Trazado 158322" d="M46.772,72.224a29.564,29.564,0,0,1,25.6-25.6l1.945-.247V31.592H69.861V42.513a34.014,34.014,0,0,0-27.2,27.2H26.817V74.17H46.525Zm0,0" fill="#12263f"/>
        <g id="Grupo_101976" data-name="Grupo 101976">
          <path id="Trazado_158323" data-name="Trazado 158323" d="M76.147,95.215V90.762a14.741,14.741,0,0,0,14.7-13.46l4.436.387a19.192,19.192,0,0,1-19.14,17.526ZM90.853,74.721a14.819,14.819,0,0,0-.828-3.77l4.188-1.516a19.251,19.251,0,0,1,1.077,4.9Zm-1.912-6.1a14.77,14.77,0,0,0-2.351-3.059l3.149-3.15A19.2,19.2,0,0,1,92.8,66.392Zm0,0" fill="#fff"/>
          <path id="Trazado_158324" data-name="Trazado 158324" d="M131.736,26.422a5.972,5.972,0,0,1-4.251-1.759l3.15-3.149a1.558,1.558,0,0,0,2.2-2.2l3.148-3.149a6.01,6.01,0,0,1-4.25,10.261Zm0,0" fill="#fff"/>
          <path id="Trazado_158325" data-name="Trazado 158325" d="M132.38,144.573a12.264,12.264,0,0,1-8.73-3.611l3.15-3.148a7.9,7.9,0,0,0,11.161,0,8.015,8.015,0,0,0,.55-.609l3.456,2.808a12.5,12.5,0,0,1-.856.95,12.266,12.266,0,0,1-8.73,3.611Zm11.427-7.669-4.124-1.682a7.883,7.883,0,0,0,.583-2.991c0-.136,0-.273-.01-.409l4.447-.228c.01.212.016.426.016.638a12.333,12.333,0,0,1-.913,4.672Zm-4-7.346a7.8,7.8,0,0,0-1.844-2.906l3.149-3.149A12.208,12.208,0,0,1,144,128.057Zm0,0" fill="#fff"/>
          <path id="Trazado_158326" data-name="Trazado 158326" d="M11.9,81.775a5.759,5.759,0,0,1-4.086-1.688l3.149-3.15a1.325,1.325,0,1,0,1.874-1.874l3.149-3.149A5.775,5.775,0,0,1,11.9,81.775Zm0,0" fill="#fff"/>
          <path id="Trazado_158327" data-name="Trazado 158327" d="M76.146,21.521a7.327,7.327,0,0,1-5.2-2.149l3.149-3.15a2.9,2.9,0,0,0,4.095-4.094l3.149-3.15a7.345,7.345,0,0,1-5.2,12.542Zm0,0" fill="#fff"/>
          <path id="Trazado_158328" data-name="Trazado 158328" d="M23.743,137.975a9.512,9.512,0,0,1-6.77-2.8l3.149-3.15a5.142,5.142,0,0,0,5.312,1.213l1.462,4.206a9.586,9.586,0,0,1-3.153.531Zm6.458-2.5-3.008-3.283c.058-.053.115-.108.17-.165a5.077,5.077,0,0,0,1.368-2.476l4.343.986a9.533,9.533,0,0,1-2.563,4.64c-.1.1-.205.2-.311.3Zm-1.423-7.984a5.077,5.077,0,0,0-1.415-2.706l3.15-3.149a9.519,9.519,0,0,1,2.649,5.065Zm0,0" fill="#fff"/>
        </g>
      </g>
    </g>
  </g>
</svg>
