<svg xmlns="http://www.w3.org/2000/svg" xmlns:xlink="http://www.w3.org/1999/xlink" width="179" height="179" viewBox="0 0 179 179">
  <defs>
    <clipPath id="clip-path">
      <rect id="Rect치ngulo_35662" data-name="Rect치ngulo 35662" width="152" height="152" rx="20" transform="translate(1004 472)" fill="#3ca8f4"/>
    </clipPath>
  </defs>
  <g id="Grupo_102483" data-name="Grupo 102483" transform="translate(-990 -458)">
    <rect id="Rect치ngulo_35498" data-name="Rect치ngulo 35498" width="179" height="179" rx="20" transform="translate(990 458)" fill="#7ae582"/>
    <g id="Enmascarar_grupo_103" data-name="Enmascarar grupo 103" clip-path="url(#clip-path)">
      <g id="no-toxico" transform="translate(1004 472)">
        <g id="Grupo_101944" data-name="Grupo 101944">
          <path id="Trazado_158188" data-name="Trazado 158188" d="M117.393,117.393a58.541,58.541,0,1,1,0-82.79A58.543,58.543,0,0,1,117.393,117.393Z" fill="#fff"/>
        </g>
        <g id="Grupo_101945" data-name="Grupo 101945">
          <path id="Trazado_158189" data-name="Trazado 158189" d="M38.184,52.085l12.358,38.8a21.119,21.119,0,0,0,7.686,10.659l2,1.458a21.119,21.119,0,0,0,18.846,3.055l2.006-.639A21.119,21.119,0,0,0,94.8,78.892L93.731,75.55A33.416,33.416,0,0,0,62.155,52.275Z" fill="#79e4a2"/>
        </g>
        <g id="Grupo_101949" data-name="Grupo 101949">
          <g id="Grupo_101946" data-name="Grupo 101946">
            <path id="Trazado_158190" data-name="Trazado 158190" d="M117.393,117.393a58.541,58.541,0,1,1,0-82.79A58.543,58.543,0,0,1,117.393,117.393ZM76,2.965a73.031,73.031,0,1,0,37.768,135.55,18.551,18.551,0,0,1,24.75-24.75A73.047,73.047,0,0,0,76,2.965Z" fill="#868eaf"/>
          </g>
          <g id="Grupo_101947" data-name="Grupo 101947">
            <path id="Trazado_158191" data-name="Trazado 158191" d="M109.113,44.132l-9.5,29.842a16.215,16.215,0,0,1-4.3,6.849c-.143-.644-.315-1.291-.52-1.933l-1.063-3.34A33.407,33.407,0,0,0,71.11,53.57a25.668,25.668,0,0,1,19.57-9.289Z" fill="#49dd8a"/>
          </g>
          <g id="Grupo_101948" data-name="Grupo 101948">
            <circle id="Elipse_4577" data-name="Elipse 4577" cx="18.544" cy="18.544" r="18.544" transform="translate(111.944 111.94)" fill="#ffce62"/>
          </g>
        </g>
        <g id="Grupo_101950" data-name="Grupo 101950">
          <path id="Trazado_158192" data-name="Trazado 158192" d="M111.5,42.371a2.969,2.969,0,0,0-2.414-1.207l-18.432.148A28.574,28.574,0,0,0,70.1,50.242a36.568,36.568,0,0,0-7.92-.935l-23.971-.19h-.023a2.969,2.969,0,0,0-2.829,3.869l12.358,38.8a23.928,23.928,0,0,0,8.766,12.158l2,1.459a24.175,24.175,0,0,0,17.945,4.321v9.722a2.969,2.969,0,1,0,5.938,0V108.12A24.074,24.074,0,0,0,98.5,81.791a19.245,19.245,0,0,0,3.936-6.915l9.5-29.842a2.97,2.97,0,0,0-.439-2.663ZM90.8,93.634a18.012,18.012,0,0,1-9.045,8.378A71.733,71.733,0,0,0,57.953,60.8a2.969,2.969,0,1,0-3.86,4.512A65.819,65.819,0,0,1,76.035,103.77a18.225,18.225,0,0,1-14.059-3.163l-2-1.459a18.03,18.03,0,0,1-6.6-9.161l-11.115-34.9,19.876.157a30.554,30.554,0,0,1,8.1,1.158c.021.007.041.016.062.022a30.447,30.447,0,0,1,13.776,8.4c4.219,4.48,6.721,10.168,8.211,16.082A18.013,18.013,0,0,1,90.8,93.634Zm5.986-20.561q-.172.539-.389,1.061A36.463,36.463,0,0,0,90.024,62.6a49.418,49.418,0,0,1,6.072-6.69,2.969,2.969,0,0,0-4.01-4.379,55.369,55.369,0,0,0-6.236,6.754,36.284,36.284,0,0,0-9.334-5.926A22.654,22.654,0,0,1,90.7,47.249l14.338-.115Z" fill="#12263f"/>
          <path id="Trazado_158193" data-name="Trazado 158193" d="M142.565,112.692A76.026,76.026,0,0,0,89.5,1.194a2.969,2.969,0,0,0-1.048,5.844,70.1,70.1,0,0,1,48.787,103.013,21.624,21.624,0,0,0-9.405-.919,61.462,61.462,0,1,0-18.7,18.7,21.62,21.62,0,0,0,.919,9.4A70.073,70.073,0,1,1,63.526,7.041,2.969,2.969,0,0,0,62.477,1.2,76.007,76.007,0,1,0,112.7,142.562a21.506,21.506,0,1,0,29.869-29.869ZM36.7,115.291a55.572,55.572,0,1,1,79.121-.542c-.37.345-.73.7-1.075,1.075A55.776,55.776,0,0,1,36.7,115.291Zm93.785,30.768a15.575,15.575,0,1,1,15.575-15.575A15.742,15.742,0,0,1,130.488,146.059Z" fill="#12263f"/>
          <path id="Trazado_158194" data-name="Trazado 158194" d="M134.994,124.193l-6.878,6.878-2.671-2.671a2.969,2.969,0,1,0-4.2,4.2l4.77,4.77a2.969,2.969,0,0,0,4.2,0l8.977-8.978a2.969,2.969,0,1,0-4.2-4.2Z" fill="#12263f"/>
          <path id="Trazado_158195" data-name="Trazado 158195" d="M73.26,4.1a2.966,2.966,0,1,0,5.48-2.271A2.966,2.966,0,0,0,73.26,4.1Z" fill="#12263f"/>
        </g>
      </g>
    </g>
  </g>
</svg>
