<svg xmlns="http://www.w3.org/2000/svg" xmlns:xlink="http://www.w3.org/1999/xlink" width="179" height="179" viewBox="0 0 179 179">
  <defs>
    <clipPath id="clip-path">
      <rect id="Rect치ngulo_35665" data-name="Rect치ngulo 35665" width="152" height="152" rx="20" transform="translate(149 822)" fill="#3ca8f4"/>
    </clipPath>
  </defs>
  <g id="Grupo_102484" data-name="Grupo 102484" transform="translate(-135 -808)">
    <rect id="Rect치ngulo_35512" data-name="Rect치ngulo 35512" width="179" height="179" rx="20" transform="translate(135 808)" fill="#7ae582"/>
    <g id="Enmascarar_grupo_104" data-name="Enmascarar grupo 104" clip-path="url(#clip-path)">
      <g id="expediente_1_" data-name="expediente (1)" transform="translate(149 822)">
        <g id="Grupo_101953" data-name="Grupo 101953">
          <path id="Trazado_158196" data-name="Trazado 158196" d="M116.813,44.991v78.361a11.875,11.875,0,0,1-11.875,11.875H23.3a11.875,11.875,0,0,1-11.875-11.875V14.1A11.875,11.875,0,0,1,23.3,2.227H74.122a8.907,8.907,0,0,1,6.3,2.615L114.212,38.7a8.907,8.907,0,0,1,2.6,6.291Z" fill="#f9f8f9"/>
          <path id="Trazado_158197" data-name="Trazado 158197" d="M116.813,44.991v5.222H85.843A16.963,16.963,0,0,1,68.91,33.262V2.227h5.213a8.907,8.907,0,0,1,6.3,2.615L114.213,38.7A8.9,8.9,0,0,1,116.813,44.991Z" fill="#e3e0e4"/>
          <path id="Trazado_158198" data-name="Trazado 158198" d="M32.2,135.227H23.3a11.876,11.876,0,0,1-11.875-11.875V14.1A11.876,11.876,0,0,1,23.3,2.227H32.2A11.876,11.876,0,0,0,20.329,14.1v109.25A11.876,11.876,0,0,0,32.2,135.227Z" fill="#e3e0e4"/>
          <g id="Grupo_101951" data-name="Grupo 101951">
            <path id="Trazado_158199" data-name="Trazado 158199" d="M65.189,46.758H28.466a2.227,2.227,0,0,1,0-4.453H65.189a2.227,2.227,0,0,1,0,4.453Z" fill="#a29aa5"/>
            <path id="Trazado_158200" data-name="Trazado 158200" d="M65.189,100.2H28.466a2.227,2.227,0,0,1,0-4.453H65.189a2.227,2.227,0,0,1,0,4.453Z" fill="#a29aa5"/>
            <path id="Trazado_158201" data-name="Trazado 158201" d="M94.372,64.57h-66.5a2.227,2.227,0,0,1,0-4.453h66.5a2.227,2.227,0,0,1,0,4.453Z" fill="#a29aa5"/>
            <path id="Trazado_158202" data-name="Trazado 158202" d="M94.372,82.383h-66.5a2.227,2.227,0,0,1,0-4.453h66.5a2.227,2.227,0,0,1,0,4.453Z" fill="#a29aa5"/>
            <path id="Trazado_158203" data-name="Trazado 158203" d="M116.015,41.307H85.843a8.038,8.038,0,0,1-8.027-8.045V3.034a8.779,8.779,0,0,1,2.61,1.808L114.213,38.7A8.857,8.857,0,0,1,116.015,41.307Z" fill="#a29aa5"/>
          </g>
          <ellipse id="Elipse_4578" data-name="Elipse 4578" cx="30.136" cy="30.133" rx="30.136" ry="30.133" transform="translate(80.291 89.508)" fill="#dc4955"/>
          <path id="Trazado_158204" data-name="Trazado 158204" d="M134.5,137.771a30.135,30.135,0,1,1-42.2-42.2,30.135,30.135,0,0,0,42.2,42.2Z" fill="#c42430"/>
          <g id="Grupo_101952" data-name="Grupo 101952">
            <path id="Trazado_158205" data-name="Trazado 158205" d="M122.081,131.291a4.455,4.455,0,0,1-6.3,0l-5.353-5.353-5.353,5.353a4.453,4.453,0,0,1-6.3-6.3l5.353-5.353-5.353-5.353a4.453,4.453,0,0,1,6.3-6.3l5.353,5.353,5.353-5.353a4.453,4.453,0,1,1,6.3,6.3l-5.353,5.353,5.353,5.353A4.455,4.455,0,0,1,122.081,131.291Z" fill="#f9f8f9"/>
          </g>
        </g>
        <g id="Grupo_101954" data-name="Grupo 101954">
          <path id="Trazado_158206" data-name="Trazado 158206" d="M11.437,33.1a2.226,2.226,0,0,0,2.227-2.227V14.1a9.659,9.659,0,0,1,9.648-9.648H48.384a2.227,2.227,0,0,0,0-4.453H23.312A14.118,14.118,0,0,0,9.21,14.1V30.875A2.226,2.226,0,0,0,11.437,33.1Z" fill="#12263f"/>
          <path id="Trazado_158207" data-name="Trazado 158207" d="M33.243,133H23.312a9.659,9.659,0,0,1-9.648-9.648V41.266a2.227,2.227,0,1,0-4.453,0v82.086a14.118,14.118,0,0,0,14.1,14.1h9.932a2.227,2.227,0,0,0,0-4.453Z" fill="#12263f"/>
          <path id="Trazado_158208" data-name="Trazado 158208" d="M65.2,42.3H28.48a2.227,2.227,0,0,0,0,4.453H65.2a2.227,2.227,0,0,0,0-4.453Z" fill="#12263f"/>
          <path id="Trazado_158209" data-name="Trazado 158209" d="M28.48,95.742a2.227,2.227,0,0,0,0,4.453H65.2a2.227,2.227,0,0,0,0-4.453Z" fill="#12263f"/>
          <path id="Trazado_158210" data-name="Trazado 158210" d="M94.386,60.117h-66.5a2.227,2.227,0,0,0,0,4.453h66.5a2.227,2.227,0,0,0,0-4.453Z" fill="#12263f"/>
          <path id="Trazado_158211" data-name="Trazado 158211" d="M96.612,80.156a2.226,2.226,0,0,0-2.227-2.227h-66.5a2.227,2.227,0,0,0,0,4.453h66.5A2.226,2.226,0,0,0,96.612,80.156Z" fill="#12263f"/>
          <path id="Trazado_158212" data-name="Trazado 158212" d="M119.054,88.45V44.991a11.061,11.061,0,0,0-3.252-7.864L82.016,3.269A11.058,11.058,0,0,0,74.136,0H58.774a2.227,2.227,0,0,0,0,4.453H74.136A6.719,6.719,0,0,1,75.6,4.62V33.261A10.276,10.276,0,0,0,85.858,43.534h28.578a6.716,6.716,0,0,1,.164,1.457V87.55a32.39,32.39,0,0,0-33.728,18.9,2.227,2.227,0,0,0,4.066,1.817,27.924,27.924,0,0,1,31.433-15.895l.011,0a27.907,27.907,0,1,1-33.858,27.265c0-.681.025-1.37.074-2.048a2.226,2.226,0,0,0-4.441-.321c-.057.785-.085,1.582-.085,2.37A32.172,32.172,0,0,0,80.96,133H43.634a2.227,2.227,0,0,0,0,4.453h39.8a32.355,32.355,0,1,0,35.625-49Zm-39-55.189V7.61l31.4,31.471h-25.6A5.817,5.817,0,0,1,80.057,33.261Z" fill="#12263f"/>
          <path id="Trazado_158213" data-name="Trazado 158213" d="M95.25,128.143a6.636,6.636,0,0,0,1.956,4.723,6.713,6.713,0,0,0,9.447,0l3.779-3.779,3.779,3.779a6.713,6.713,0,0,0,9.447,0h0a6.713,6.713,0,0,0,0-9.447l-3.779-3.779,3.779-3.779a6.68,6.68,0,1,0-9.446-9.447l-3.779,3.779-3.779-3.779a6.68,6.68,0,0,0-9.447,9.447l3.779,3.779-3.779,3.779a6.635,6.635,0,0,0-1.956,4.723Zm5.105-1.575,5.353-5.353a2.226,2.226,0,0,0,0-3.149l-5.353-5.353a2.226,2.226,0,0,1,3.149-3.149l5.353,5.353a2.227,2.227,0,0,0,3.149,0l5.353-5.353a2.226,2.226,0,1,1,3.148,3.149l-5.353,5.353a2.226,2.226,0,0,0,0,3.149l5.353,5.353a2.239,2.239,0,0,1,0,3.149h0a2.229,2.229,0,0,1-3.148,0L112,124.364a2.227,2.227,0,0,0-3.149,0l-5.353,5.353a2.226,2.226,0,1,1-3.148-3.149Z" fill="#12263f"/>
        </g>
      </g>
    </g>
  </g>
</svg>
