<svg xmlns="http://www.w3.org/2000/svg" xmlns:xlink="http://www.w3.org/1999/xlink" width="179" height="179" viewBox="0 0 179 179">
  <defs>
    <clipPath id="clip-path">
      <rect id="Rect치ngulo_35667" data-name="Rect치ngulo 35667" width="152" height="152" rx="20" transform="translate(719 822)" fill="#3ca8f4"/>
    </clipPath>
  </defs>
  <g id="Grupo_102486" data-name="Grupo 102486" transform="translate(-705 -808)">
    <rect id="Rect치ngulo_35508" data-name="Rect치ngulo 35508" width="179" height="179" rx="20" transform="translate(705 808)" fill="#7ae582"/>
    <g id="Enmascarar_grupo_106" data-name="Enmascarar grupo 106" clip-path="url(#clip-path)">
      <g id="normas" transform="translate(716.548 819.548)">
        <g id="Grupo_101974" data-name="Grupo 101974">
          <path id="Trazado_158235" data-name="Trazado 158235" d="M142.194,139.742H14.71A9.807,9.807,0,0,1,4.9,129.935V26.968a9.807,9.807,0,0,1,9.806-9.806H142.194A9.807,9.807,0,0,1,152,26.968V129.935A9.807,9.807,0,0,1,142.194,139.742Z" fill="#e8e4d8"/>
          <path id="Trazado_158236" data-name="Trazado 158236" d="M142.194,17.161H33.072A125.023,125.023,0,0,0,152,124.907V26.968A9.807,9.807,0,0,0,142.194,17.161Z" fill="#f2efe0"/>
          <path id="Trazado_158237" data-name="Trazado 158237" d="M76,17.161h4.9V139.742H76Z" fill="#88857c"/>
          <path id="Trazado_158238" data-name="Trazado 158238" d="M41.677,51.484a2.445,2.445,0,0,0,1.733-.718L60.572,33.6l-3.467-3.467L41.677,45.566l-5.622-5.622-3.467,3.467,7.355,7.355a2.445,2.445,0,0,0,1.733.718Z" fill="#94d531"/>
          <path id="Trazado_158239" data-name="Trazado 158239" d="M125.751,53.217l3.467-3.467-9.3-9.3,9.3-9.3-3.467-3.467-9.3,9.3-9.3-9.3-3.467,3.467,9.3,9.3-9.3,9.3,3.467,3.467,9.3-9.3Z" fill="#c64635"/>
          <g id="Grupo_101956" data-name="Grupo 101956">
            <path id="Trazado_158240" data-name="Trazado 158240" d="M24.516,78.452H14.71A2.453,2.453,0,0,1,12.258,76V66.194a2.453,2.453,0,0,1,2.452-2.452h9.806a2.453,2.453,0,0,1,2.452,2.452V76A2.453,2.453,0,0,1,24.516,78.452Zm-7.355-4.9h4.9v-4.9h-4.9Z" fill="#ffc239"/>
          </g>
          <g id="Grupo_101957" data-name="Grupo 101957">
            <path id="Trazado_158241" data-name="Trazado 158241" d="M24.516,98.065H14.71a2.453,2.453,0,0,1-2.452-2.452V85.806a2.453,2.453,0,0,1,2.452-2.452h9.806a2.453,2.453,0,0,1,2.452,2.452v9.806A2.453,2.453,0,0,1,24.516,98.065Zm-7.355-4.9h4.9v-4.9h-4.9Z" fill="#ffc239"/>
          </g>
          <g id="Grupo_101958" data-name="Grupo 101958">
            <path id="Trazado_158242" data-name="Trazado 158242" d="M24.516,117.677H14.71a2.453,2.453,0,0,1-2.452-2.452v-9.806a2.453,2.453,0,0,1,2.452-2.452h9.806a2.453,2.453,0,0,1,2.452,2.452v9.806A2.453,2.453,0,0,1,24.516,117.677Zm-7.355-4.9h4.9v-4.9h-4.9Z" fill="#ffc239"/>
          </g>
          <g id="Grupo_101959" data-name="Grupo 101959">
            <path id="Trazado_158243" data-name="Trazado 158243" d="M31.871,63.742H71.1v4.9H31.871Z" fill="#88857c"/>
          </g>
          <g id="Grupo_101960" data-name="Grupo 101960">
            <path id="Trazado_158244" data-name="Trazado 158244" d="M31.871,73.548H71.1v4.9H31.871Z" fill="#88857c"/>
          </g>
          <g id="Grupo_101961" data-name="Grupo 101961">
            <path id="Trazado_158245" data-name="Trazado 158245" d="M98.065,78.452H88.258A2.453,2.453,0,0,1,85.806,76V66.194a2.453,2.453,0,0,1,2.452-2.452h9.806a2.453,2.453,0,0,1,2.452,2.452V76A2.453,2.453,0,0,1,98.065,78.452Zm-7.355-4.9h4.9v-4.9h-4.9Z" fill="#ffc239"/>
          </g>
          <g id="Grupo_101962" data-name="Grupo 101962">
            <path id="Trazado_158246" data-name="Trazado 158246" d="M98.065,98.065H88.258a2.453,2.453,0,0,1-2.452-2.452V85.806a2.453,2.453,0,0,1,2.452-2.452h9.806a2.453,2.453,0,0,1,2.452,2.452v9.806A2.453,2.453,0,0,1,98.065,98.065Zm-7.355-4.9h4.9v-4.9h-4.9Z" fill="#ffc239"/>
          </g>
          <g id="Grupo_101963" data-name="Grupo 101963">
            <path id="Trazado_158247" data-name="Trazado 158247" d="M98.065,117.677H88.258a2.453,2.453,0,0,1-2.452-2.452v-9.806a2.453,2.453,0,0,1,2.452-2.452h9.806a2.453,2.453,0,0,1,2.452,2.452v9.806A2.453,2.453,0,0,1,98.065,117.677Zm-7.355-4.9h4.9v-4.9h-4.9Z" fill="#ffc239"/>
          </g>
          <g id="Grupo_101964" data-name="Grupo 101964">
            <path id="Trazado_158248" data-name="Trazado 158248" d="M31.871,83.355H71.1v4.9H31.871Z" fill="#88857c"/>
          </g>
          <g id="Grupo_101965" data-name="Grupo 101965">
            <path id="Trazado_158249" data-name="Trazado 158249" d="M31.871,93.161H71.1v4.9H31.871Z" fill="#88857c"/>
          </g>
          <g id="Grupo_101966" data-name="Grupo 101966">
            <path id="Trazado_158250" data-name="Trazado 158250" d="M31.871,102.968H71.1v4.9H31.871Z" fill="#88857c"/>
          </g>
          <g id="Grupo_101967" data-name="Grupo 101967">
            <path id="Trazado_158251" data-name="Trazado 158251" d="M31.871,112.774H71.1v4.9H31.871Z" fill="#88857c"/>
          </g>
          <g id="Grupo_101968" data-name="Grupo 101968">
            <path id="Trazado_158252" data-name="Trazado 158252" d="M105.419,63.742h39.226v4.9H105.419Z" fill="#88857c"/>
          </g>
          <g id="Grupo_101969" data-name="Grupo 101969">
            <path id="Trazado_158253" data-name="Trazado 158253" d="M105.419,73.548h39.226v4.9H105.419Z" fill="#88857c"/>
          </g>
          <g id="Grupo_101970" data-name="Grupo 101970">
            <path id="Trazado_158254" data-name="Trazado 158254" d="M105.419,83.355h39.226v4.9H105.419Z" fill="#88857c"/>
          </g>
          <g id="Grupo_101971" data-name="Grupo 101971">
            <path id="Trazado_158255" data-name="Trazado 158255" d="M105.419,93.161h39.226v4.9H105.419Z" fill="#88857c"/>
          </g>
          <g id="Grupo_101972" data-name="Grupo 101972">
            <path id="Trazado_158256" data-name="Trazado 158256" d="M105.419,102.968h39.226v4.9H105.419Z" fill="#88857c"/>
          </g>
          <g id="Grupo_101973" data-name="Grupo 101973">
            <path id="Trazado_158257" data-name="Trazado 158257" d="M105.419,112.774h39.226v4.9H105.419Z" fill="#88857c"/>
          </g>
        </g>
        <g id="Grupo_101975" data-name="Grupo 101975">
          <path id="Trazado_158258" data-name="Trazado 158258" d="M142.194,14.71H14.71A12.272,12.272,0,0,0,2.452,26.968V129.935A12.272,12.272,0,0,0,14.71,142.194H142.194a12.272,12.272,0,0,0,12.258-12.258V26.968A12.272,12.272,0,0,0,142.194,14.71ZM7.355,129.935V26.968a7.364,7.364,0,0,1,7.355-7.355H76V137.29H14.71A7.364,7.364,0,0,1,7.355,129.935Zm142.194,0a7.364,7.364,0,0,1-7.355,7.355H80.9V19.613h61.29a7.364,7.364,0,0,1,7.355,7.355Z" fill="#12263f"/>
          <path id="Trazado_158259" data-name="Trazado 158259" d="M41.677,51.484a2.445,2.445,0,0,0,1.733-.718L60.572,33.6l-3.467-3.467L41.677,45.566l-5.622-5.622-3.467,3.467,7.355,7.355a2.445,2.445,0,0,0,1.733.718Z" fill="#12263f"/>
          <path id="Trazado_158260" data-name="Trazado 158260" d="M107.153,53.217l9.3-9.3,9.3,9.3,3.467-3.467-9.3-9.3,9.3-9.3-3.467-3.467-9.3,9.3-9.3-9.3-3.467,3.467,9.3,9.3-9.3,9.3Z" fill="#12263f"/>
          <path id="Trazado_158261" data-name="Trazado 158261" d="M24.516,63.742H14.71a2.453,2.453,0,0,0-2.452,2.452V76a2.453,2.453,0,0,0,2.452,2.452h9.806A2.453,2.453,0,0,0,26.968,76V66.194A2.453,2.453,0,0,0,24.516,63.742Zm-2.452,9.806h-4.9v-4.9h4.9Z" fill="#12263f"/>
          <path id="Trazado_158262" data-name="Trazado 158262" d="M24.516,83.355H14.71a2.453,2.453,0,0,0-2.452,2.452v9.806a2.453,2.453,0,0,0,2.452,2.452h9.806a2.453,2.453,0,0,0,2.452-2.452V85.806A2.453,2.453,0,0,0,24.516,83.355Zm-2.452,9.806h-4.9v-4.9h4.9Z" fill="#12263f"/>
          <path id="Trazado_158263" data-name="Trazado 158263" d="M24.516,102.968H14.71a2.453,2.453,0,0,0-2.452,2.452v9.806a2.453,2.453,0,0,0,2.452,2.452h9.806a2.453,2.453,0,0,0,2.452-2.452v-9.806A2.453,2.453,0,0,0,24.516,102.968Zm-2.452,9.806h-4.9v-4.9h4.9Z" fill="#12263f"/>
          <path id="Trazado_158264" data-name="Trazado 158264" d="M31.871,63.742H71.1v4.9H31.871Z" fill="#12263f"/>
          <path id="Trazado_158265" data-name="Trazado 158265" d="M31.871,73.548H71.1v4.9H31.871Z" fill="#12263f"/>
          <path id="Trazado_158266" data-name="Trazado 158266" d="M98.065,63.742H88.258a2.453,2.453,0,0,0-2.452,2.452V76a2.453,2.453,0,0,0,2.452,2.452h9.806A2.453,2.453,0,0,0,100.516,76V66.194A2.453,2.453,0,0,0,98.065,63.742Zm-2.452,9.806h-4.9v-4.9h4.9Z" fill="#12263f"/>
          <path id="Trazado_158267" data-name="Trazado 158267" d="M98.065,83.355H88.258a2.453,2.453,0,0,0-2.452,2.452v9.806a2.453,2.453,0,0,0,2.452,2.452h9.806a2.453,2.453,0,0,0,2.452-2.452V85.806A2.453,2.453,0,0,0,98.065,83.355Zm-2.452,9.806h-4.9v-4.9h4.9Z" fill="#12263f"/>
          <path id="Trazado_158268" data-name="Trazado 158268" d="M98.065,102.968H88.258a2.453,2.453,0,0,0-2.452,2.452v9.806a2.453,2.453,0,0,0,2.452,2.452h9.806a2.453,2.453,0,0,0,2.452-2.452v-9.806A2.453,2.453,0,0,0,98.065,102.968Zm-2.452,9.806h-4.9v-4.9h4.9Z" fill="#12263f"/>
          <path id="Trazado_158269" data-name="Trazado 158269" d="M31.871,83.355H71.1v4.9H31.871Z" fill="#12263f"/>
          <path id="Trazado_158270" data-name="Trazado 158270" d="M31.871,93.161H71.1v4.9H31.871Z" fill="#12263f"/>
          <path id="Trazado_158271" data-name="Trazado 158271" d="M31.871,102.968H71.1v4.9H31.871Z" fill="#12263f"/>
          <path id="Trazado_158272" data-name="Trazado 158272" d="M31.871,112.774H71.1v4.9H31.871Z" fill="#12263f"/>
          <path id="Trazado_158273" data-name="Trazado 158273" d="M105.419,63.742h39.226v4.9H105.419Z" fill="#12263f"/>
          <path id="Trazado_158274" data-name="Trazado 158274" d="M105.419,73.548h39.226v4.9H105.419Z" fill="#12263f"/>
          <path id="Trazado_158275" data-name="Trazado 158275" d="M105.419,83.355h39.226v4.9H105.419Z" fill="#12263f"/>
          <path id="Trazado_158276" data-name="Trazado 158276" d="M105.419,93.161h39.226v4.9H105.419Z" fill="#12263f"/>
          <path id="Trazado_158277" data-name="Trazado 158277" d="M105.419,102.968h39.226v4.9H105.419Z" fill="#12263f"/>
          <path id="Trazado_158278" data-name="Trazado 158278" d="M105.419,112.774h39.226v4.9H105.419Z" fill="#12263f"/>
        </g>
      </g>
    </g>
  </g>
</svg>
