<svg xmlns="http://www.w3.org/2000/svg" width="105" height="102.487" viewBox="0 0 105 102.487">
  <g id="Grupo_100477" data-name="Grupo 100477" transform="translate(-247 -4336)">
    <rect id="Rectángulo_32727" data-name="Rectángulo 32727" width="105" height="46" transform="translate(247 4392.487)" fill="#3ca8f4"/>
    <g id="Grupo_101263" data-name="Grupo 101263" transform="translate(-206.158 4209.81)">
      <g id="Grupo_101216" data-name="Grupo 101216" transform="translate(494.364 126.19)">
        <g id="Grupo_101215" data-name="Grupo 101215" transform="translate(0 0)" style="isolation: isolate">
          <path id="Trazado_156606" data-name="Trazado 156606" d="M573.119,141.644l-3.868-1.023c2.306.61,3.977,3.084,4.034,6.406.074,4.306-2.591,8.409-5.955,9.164a4.572,4.572,0,0,1-2.188-.025l3.867,1.023a4.573,4.573,0,0,0,2.188.026c3.364-.755,6.029-4.859,5.955-9.164C577.1,144.727,575.425,142.254,573.119,141.644Z" transform="translate(-557.832 -135.979)" fill="#29b39d"/>
          <g id="Grupo_101214" data-name="Grupo 101214" transform="translate(3.867 1.023)">
            <path id="Trazado_156607" data-name="Trazado 156607" d="M563.592,129.555c5.169-1.16,9.451,3.265,9.565,9.883s-8.528,23.069-8.983,23.934c-.481-.656-9.62-13.115-9.734-19.735S558.424,130.714,563.592,129.555Zm.345,20.028c3.364-.755,6.029-4.859,5.955-9.164s-2.86-7.186-6.224-6.431-6.028,4.858-5.954,9.164,2.86,7.186,6.222,6.432" transform="translate(-554.438 -129.37)" fill="#7ae582"/>
          </g>
          <path id="Trazado_156608" data-name="Trazado 156608" d="M555.437,127.4a7.037,7.037,0,0,1,3.365.039l-3.867-1.023a7.037,7.037,0,0,0-3.365-.039c-5.168,1.16-9.265,7.465-9.151,14.083s9.253,19.079,9.734,19.735l3.867,1.023c-.481-.656-9.62-13.115-9.734-19.735S550.269,128.557,555.437,127.4Z" transform="translate(-542.416 -126.19)" fill="#29b39d"/>
        </g>
      </g>
      <g id="Grupo_101262" data-name="Grupo 101262" transform="translate(471.578 176.215)">
        <g id="Grupo_101225" data-name="Grupo 101225" transform="translate(0)">
          <g id="Grupo_101220" data-name="Grupo 101220" transform="translate(0 1.524)">
            <g id="Grupo_101219" data-name="Grupo 101219" style="isolation: isolate">
              <g id="Grupo_101217" data-name="Grupo 101217" transform="translate(0 19.639)">
                <path id="Trazado_156609" data-name="Trazado 156609" d="M539.738,347.69l-.015,5.244c-.014,5.018-3.312,10.029-9.9,13.857-13.263,7.708-34.835,7.708-48.186,0-6.718-3.878-10.073-8.969-10.058-14.052l.015-5.244c-.014,5.083,3.341,10.174,10.058,14.052,13.351,7.709,34.924,7.709,48.186,0C536.426,357.718,539.724,352.708,539.738,347.69Z" transform="translate(-471.578 -347.494)" fill="#ffcf00"/>
              </g>
              <g id="Grupo_101218" data-name="Grupo 101218" transform="translate(0.015)">
                <path id="Trazado_156610" data-name="Trazado 156610" d="M529.71,292.222c13.352,7.709,13.422,20.2.159,27.911s-34.835,7.708-48.186,0-13.42-20.2-.157-27.91S516.36,284.515,529.71,292.222Z" transform="translate(-471.624 -286.442)" fill="#ffdb45"/>
              </g>
            </g>
          </g>
          <g id="Grupo_101224" data-name="Grupo 101224" transform="translate(5.512)">
            <g id="Grupo_101223" data-name="Grupo 101223" style="isolation: isolate">
              <g id="Grupo_101221" data-name="Grupo 101221" transform="translate(0 16.462)">
                <path id="Trazado_156611" data-name="Trazado 156611" d="M545.849,333.046l-.012,4.4c-.012,4.207-2.777,8.407-8.3,11.616-11.118,6.461-29.2,6.461-40.393,0-5.631-3.251-8.443-7.519-8.431-11.78l.013-4.4c-.012,4.261,2.8,8.528,8.431,11.78,11.192,6.462,29.276,6.462,40.393,0C543.073,341.453,545.838,337.253,545.849,333.046Z" transform="translate(-488.713 -332.882)" fill="#fbba15"/>
              </g>
              <g id="Grupo_101222" data-name="Grupo 101222" transform="translate(0.013)">
                <path id="Trazado_156612" data-name="Trazado 156612" d="M537.443,286.551c11.192,6.462,11.251,16.936.133,23.4s-29.2,6.461-40.393,0-11.249-16.935-.132-23.4S526.253,280.09,537.443,286.551Z" transform="translate(-488.752 -281.705)" fill="#fcc423"/>
              </g>
            </g>
          </g>
        </g>
        <g id="Grupo_101261" data-name="Grupo 101261" transform="translate(12.198 2.086)">
          <g id="Grupo_101260" data-name="Grupo 101260" style="isolation: isolate">
            <g id="Grupo_101226" data-name="Grupo 101226" transform="translate(7.057 2.97)">
              <path id="Trazado_156613" data-name="Trazado 156613" d="M532.141,297.422l-.008,2.622c-.233.114-.465.233-.694.354l.007-2.622C531.676,297.654,531.909,297.536,532.141,297.422Z" transform="translate(-531.44 -297.422)" fill="#bcd163"/>
            </g>
            <g id="Grupo_101227" data-name="Grupo 101227" transform="translate(5.444 4.1)">
              <path id="Trazado_156614" data-name="Trazado 156614" d="M526.7,300.935l-.007,2.622c-.092.058-.184.119-.273.178l.007-2.622C526.52,301.053,526.612,300.993,526.7,300.935Z" transform="translate(-526.423 -300.935)" fill="#bcd163"/>
            </g>
            <g id="Grupo_101228" data-name="Grupo 101228" transform="translate(32.028 2.795)">
              <path id="Trazado_156615" data-name="Trazado 156615" d="M612.579,296.879l-.007,2.622-3.5,2.036.007-2.622Z" transform="translate(-609.068 -296.879)" fill="#bcd163"/>
            </g>
            <g id="Grupo_101229" data-name="Grupo 101229" transform="translate(4.5 4.943)">
              <path id="Trazado_156616" data-name="Trazado 156616" d="M527.03,305.6l-.007,2.622-3.535-2.041.007-2.622Z" transform="translate(-523.488 -303.555)" fill="#3d5561"/>
            </g>
            <g id="Grupo_101230" data-name="Grupo 101230" transform="translate(4.5 4.899)">
              <path id="Trazado_156617" data-name="Trazado 156617" d="M523.545,306.043l-.057.043.007-2.622h0q0,1.309-.008,2.619,0-1.31.008-2.619l.056-.043C523.55,304.208,523.547,305.256,523.545,306.043Z" transform="translate(-523.488 -303.421)" fill="#bcd163"/>
            </g>
            <g id="Grupo_101231" data-name="Grupo 101231" transform="translate(7.763)">
              <path id="Trazado_156618" data-name="Trazado 156618" d="M561.409,290.985l-3.5,2.036a27.228,27.228,0,0,0-20.759.165l-3.514-2.029C541.609,287.259,553.283,287.2,561.409,290.985Z" transform="translate(-533.633 -288.19)" fill="#bcd163"/>
            </g>
            <g id="Grupo_101232" data-name="Grupo 101232" transform="translate(7.756 2.967)">
              <path id="Trazado_156619" data-name="Trazado 156619" d="M537.131,299.443l-.007,2.622-3.514-2.029.008-2.622Z" transform="translate(-533.61 -297.414)" fill="#bcd163"/>
            </g>
            <g id="Grupo_101233" data-name="Grupo 101233" transform="translate(11.269 2.857)">
              <path id="Trazado_156620" data-name="Trazado 156620" d="M565.3,299.046l-.007,2.622a27.229,27.229,0,0,0-20.759.165l.007-2.622A27.228,27.228,0,0,1,565.3,299.046Z" transform="translate(-544.534 -297.072)" fill="#bcd163"/>
            </g>
            <g id="Grupo_101234" data-name="Grupo 101234" transform="translate(35.38 4.73)">
              <path id="Trazado_156621" data-name="Trazado 156621" d="M623,302.9l-.007,2.622-3.5,2.036.008-2.622Z" transform="translate(-619.488 -302.895)" fill="#3d5561"/>
            </g>
            <g id="Grupo_101235" data-name="Grupo 101235" transform="translate(7.319 6.983)">
              <path id="Trazado_156622" data-name="Trazado 156622" d="M532.254,313.156q0-1.311.007-2.622.335-.323.715-.634l-.007,2.622Q532.588,312.832,532.254,313.156Z" transform="translate(-532.254 -309.899)" fill="#bcd163"/>
            </g>
            <g id="Grupo_101236" data-name="Grupo 101236" transform="translate(6.645 7.618)">
              <path id="Trazado_156623" data-name="Trazado 156623" d="M530.833,314.493a9.827,9.827,0,0,0-.674.72q0-1.311.008-2.623.309-.365.673-.719Q530.837,313.182,530.833,314.493Z" transform="translate(-530.159 -311.871)" fill="#bcd163"/>
            </g>
            <g id="Grupo_101237" data-name="Grupo 101237" transform="translate(6.205 8.336)">
              <path id="Trazado_156624" data-name="Trazado 156624" d="M528.789,317.3q0-1.311.007-2.622.2-.288.441-.568,0,1.311-.008,2.623Q528.993,317.009,528.789,317.3Z" transform="translate(-528.789 -314.106)" fill="#bcd163"/>
            </g>
            <g id="Grupo_101238" data-name="Grupo 101238" transform="translate(5.666 8.905)">
              <path id="Trazado_156625" data-name="Trazado 156625" d="M527.653,318.495a7.638,7.638,0,0,0-.539.873q0-1.311.007-2.622a7.612,7.612,0,0,1,.539-.873q0,.787,0,1.573,0,.262,0,.524c0,.041,0,.1,0,.137,0,.067,0,.134,0,.2v.126A.218.218,0,0,1,527.653,318.495Z" transform="translate(-527.114 -315.873)" fill="#bcd163"/>
            </g>
            <g id="Grupo_101239" data-name="Grupo 101239" transform="translate(9.966 5.774)">
              <path id="Trazado_156626" data-name="Trazado 156626" d="M564.308,313.072l-.007,2.622c0-1.777-1.168-3.557-3.516-4.912-4.666-2.694-12.208-2.694-16.843,0-2.3,1.338-3.456,3.09-3.461,4.844l.007-2.622c.005-1.754,1.158-3.506,3.461-4.844,4.636-2.694,12.177-2.694,16.843,0C563.141,309.515,564.314,311.295,564.308,313.072Z" transform="translate(-540.481 -306.139)" fill="#3d5561"/>
            </g>
            <g id="Grupo_101240" data-name="Grupo 101240" transform="translate(4.932 9.778)">
              <path id="Trazado_156627" data-name="Trazado 156627" d="M525.565,321.209a6.118,6.118,0,0,0-.734,2.847l.007-2.622a6.126,6.126,0,0,1,.734-2.847q0,.655,0,1.311v.68c0,.1,0,.227,0,.325A1.438,1.438,0,0,1,525.565,321.209Z" transform="translate(-524.831 -318.587)" fill="#bcd163"/>
            </g>
            <g id="Grupo_101241" data-name="Grupo 101241" transform="translate(35.38 6.766)">
              <path id="Trazado_156628" data-name="Trazado 156628" d="M622.929,317.8c.006-2.1-1.142-4.2-3.441-5.956l.007-2.622c2.3,1.757,3.447,3.857,3.441,5.955C622.934,315.967,622.932,317.016,622.929,317.8Z" transform="translate(-619.488 -309.225)" fill="#bcd163"/>
            </g>
            <g id="Grupo_101242" data-name="Grupo 101242" transform="translate(31.845 12.706)">
              <path id="Trazado_156629" data-name="Trazado 156629" d="M610.44,330.313a5.085,5.085,0,0,1-1.941,3.762q0-1.311.007-2.622a5.083,5.083,0,0,0,1.941-3.762C610.445,328.477,610.442,329.526,610.44,330.313Z" transform="translate(-608.499 -327.691)" fill="#bcd163"/>
            </g>
            <g id="Grupo_101243" data-name="Grupo 101243" transform="translate(4.932 12.625)">
              <path id="Trazado_156630" data-name="Trazado 156630" d="M524.831,330.059l.007-2.622c-.006,2.1,1.142,4.2,3.442,5.953l-.008,2.622C525.973,334.256,524.825,332.156,524.831,330.059Z" transform="translate(-524.831 -327.437)" fill="#3d5561"/>
            </g>
            <g id="Grupo_101244" data-name="Grupo 101244" transform="translate(35.163 12.721)">
              <path id="Trazado_156631" data-name="Trazado 156631" d="M622.479,327.737l-.007,2.622c-.006,2.15-1.225,4.3-3.658,6.07l.008-2.622C621.254,332.035,622.473,329.887,622.479,327.737Z" transform="translate(-618.813 -327.737)" fill="#3d5561"/>
            </g>
            <g id="Grupo_101245" data-name="Grupo 101245" transform="translate(9.966 12.639)">
              <path id="Trazado_156632" data-name="Trazado 156632" d="M544,335.014c-2.348-1.355-3.521-3.135-3.516-4.912l.007-2.622c0,1.777,1.168,3.557,3.516,4.912,4.666,2.694,12.207,2.694,16.843,0a9.55,9.55,0,0,0,1.52-1.083q0,1.311-.007,2.622a9.542,9.542,0,0,1-1.52,1.082C556.2,337.708,548.663,337.708,544,335.014Z" transform="translate(-540.481 -327.48)" fill="#bcd163"/>
            </g>
            <g id="Grupo_101246" data-name="Grupo 101246" transform="translate(9.954 5.74)">
              <ellipse id="Elipse_4548" data-name="Elipse 4548" cx="6.899" cy="11.91" rx="6.899" ry="11.91" transform="matrix(0.003, -1, 1, 0.003, 0, 13.797)" fill="#bcd163"/>
            </g>
            <g id="Grupo_101247" data-name="Grupo 101247" transform="translate(0.008 4.899)">
              <path id="Trazado_156633" data-name="Trazado 156633" d="M514.08,303.421l-.057.043,3.534,2.041c-4.249,3.469-4.132,8.181.34,11.594l-3.5,2.036C508.009,314.567,507.9,308.038,514.08,303.421Z" transform="translate(-509.523 -303.421)" fill="#bcd163"/>
            </g>
            <g id="Grupo_101248" data-name="Grupo 101248" transform="translate(4.87 18.578)">
              <path id="Trazado_156634" data-name="Trazado 156634" d="M528.151,345.943l-.007,2.622-3.5,2.036.008-2.622Z" transform="translate(-524.641 -345.943)" fill="#bcd163"/>
            </g>
            <g id="Grupo_101249" data-name="Grupo 101249" transform="translate(35.163 18.791)">
              <path id="Trazado_156635" data-name="Trazado 156635" d="M622.335,348.635l-.008,2.622-3.514-2.029.007-2.622Z" transform="translate(-618.813 -346.606)" fill="#bcd163"/>
            </g>
            <g id="Grupo_101250" data-name="Grupo 101250" transform="translate(4.872 20.615)">
              <path id="Trazado_156636" data-name="Trazado 156636" d="M525.419,352.8l-.008,2.622c-.273-.177-.524-.347-.764-.519l.007-2.622C524.9,352.448,525.146,352.619,525.419,352.8Z" transform="translate(-524.647 -352.276)" fill="#3d5561"/>
            </g>
            <g id="Grupo_101251" data-name="Grupo 101251" transform="translate(35.171 4.73)">
              <path id="Trazado_156637" data-name="Trazado 156637" d="M622.557,302.895c6.754,4.833,6.49,11.86-.814,16.5.206-.134.41-.269.608-.406l-3.514-2.029c4.807-3.5,4.873-8.466.217-12.025Z" transform="translate(-618.837 -302.895)" fill="#bcd163"/>
            </g>
            <g id="Grupo_101252" data-name="Grupo 101252" transform="translate(5.637 21.134)">
              <path id="Trazado_156638" data-name="Trazado 156638" d="M528.731,354.873l-.007,2.622c-.312-.161-.6-.318-.883-.481s-.555-.33-.818-.5l.007-2.622q.395.256.818.5C528.131,354.555,528.419,354.712,528.731,354.873Z" transform="translate(-527.023 -353.891)" fill="#3d5561"/>
            </g>
            <g id="Grupo_101253" data-name="Grupo 101253" transform="translate(6.454 21.634)">
              <path id="Trazado_156639" data-name="Trazado 156639" d="M529.584,358.079l-.019-.011.007-2.622.019.011Q529.587,356.768,529.584,358.079Z" transform="translate(-529.565 -355.446)" fill="#bcd163"/>
            </g>
            <g id="Grupo_101254" data-name="Grupo 101254" transform="translate(8.222 20.513)">
              <path id="Trazado_156640" data-name="Trazado 156640" d="M538.571,351.959l-.007,2.622-3.5,2.036.008-2.622Z" transform="translate(-535.06 -351.959)" fill="#3d5561"/>
            </g>
            <g id="Grupo_101255" data-name="Grupo 101255" transform="translate(7.337 22.116)">
              <path id="Trazado_156641" data-name="Trazado 156641" d="M533.2,357.376,533.195,360c-.3-.14-.593-.283-.885-.433l.007-2.622C532.609,357.092,532.9,357.236,533.2,357.376Z" transform="translate(-532.31 -356.943)" fill="#3d5561"/>
            </g>
            <g id="Grupo_101256" data-name="Grupo 101256" transform="translate(31.743 20.671)">
              <path id="Trazado_156642" data-name="Trazado 156642" d="M611.725,354.495l-.007,2.622-3.537-2.042.008-2.622Z" transform="translate(-608.181 -352.453)" fill="#3d5561"/>
            </g>
            <g id="Grupo_101257" data-name="Grupo 101257" transform="translate(11.726 20.513)">
              <path id="Trazado_156643" data-name="Trazado 156643" d="M565.977,352.118l-.007,2.622a27.389,27.389,0,0,1-20.017-.159l.007-2.622A27.391,27.391,0,0,0,565.977,352.118Z" transform="translate(-545.952 -351.959)" fill="#3d5561"/>
            </g>
            <g id="Grupo_101258" data-name="Grupo 101258" transform="translate(4.507 2.795)">
              <path id="Trazado_156644" data-name="Trazado 156644" d="M557.081,315.309c-.218.139-.441.275-.671.409s-.443.25-.669.37c-.1.053-.2.107-.3.159s-.186.094-.28.139l-.17.084q-.344.168-.7.328l-3.536-2.042a27.391,27.391,0,0,1-20.017-.159l-3.5,2.036c-.3-.14-.593-.283-.885-.433-.312-.161-.6-.318-.883-.482s-.555-.33-.818-.5-.524-.347-.764-.519l3.5-2.037c-4.471-3.414-4.588-8.126-.34-11.594l-3.535-2.041c.226-.172.465-.341.71-.507.078-.052.155-.107.234-.158s.181-.12.274-.178q.309-.2.636-.389.346-.2.7-.388c.229-.121.461-.24.694-.354l3.518,2.026a27.23,27.23,0,0,1,20.759-.165l3.5-2.036c.3.14.6.285.883.434.312.161.6.319.883.482s.555.33.82.5.524.347.766.52l-3.5,2.036c4.656,3.559,4.59,8.524-.217,12.025l3.514,2.029C557.491,315.04,557.287,315.175,557.081,315.309Zm-24.588-3.674c4.666,2.694,12.207,2.694,16.843,0s4.611-7.063-.055-9.757-12.208-2.694-16.843,0-4.611,7.062.055,9.756" transform="translate(-523.511 -296.879)" fill="#3d5561"/>
            </g>
            <g id="Grupo_101259" data-name="Grupo 101259" transform="translate(8.229 20.513)">
              <path id="Trazado_156645" data-name="Trazado 156645" d="M538.587,351.959a27.391,27.391,0,0,0,20.017.159l3.535,2.041c-7.943,3.562-19.171,3.509-27.056-.164Z" transform="translate(-535.083 -351.959)" fill="#bcd163"/>
            </g>
            <path id="Trazado_156646" data-name="Trazado 156646" d="M548.184,335.61h0c-.2.136-.4.271-.608.406s-.441.275-.671.409-.443.25-.669.37c-.1.053-.2.107-.3.159s-.186.094-.28.139l-.17.084q-.344.168-.7.328v.132h0V337.5c-7.943,3.562-19.171,3.509-27.056-.164-.3-.14-.593-.283-.885-.433,0,0-.017.043-.016-.01-.289-.148-.57-.3-.848-.461,0,.083-.019-.011-.019-.011q-.422-.244-.818-.5l-.016-.01c-.259-.166-.508-.338-.748-.51,0,0,0,.053,0,0-3.254-2.329-4.878-5.166-4.87-8l-.008,2.622c-.008,2.834,1.616,5.671,4.87,8,0-.06,0,0,0,0,.24.172.489.344.748.51l.016.009q.395.256.818.5s.019-.035.019.011c.247.143.5.278.756.411l.038.028a.445.445,0,0,0,.157.074c.263.134.528.264.8.391h0c7.818,3.641,18.918,3.722,26.849.253a.564.564,0,0,0,.3-.1l.156-.105c.15-.069.3-.138.447-.21l.17-.083c.094-.045.186-.091.28-.139s.2-.106.3-.159h0c.226-.12.451-.243.669-.37s.453-.27.671-.409c3.783-2.4,5.678-5.444,5.686-8.491,0-.787.005-1.835.007-2.622C553.255,330.4,551.562,333.277,548.184,335.61Z" transform="translate(-509.5 -314.79)" fill="#a6bf41"/>
          </g>
        </g>
      </g>
    </g>
  </g>
</svg>
