<svg xmlns="http://www.w3.org/2000/svg" width="362" height="248" viewBox="0 0 362 248">
  <g id="Grupo_100932" data-name="Grupo 100932" transform="translate(-363 -4511)">
    <g id="Rectángulo_35514" data-name="Rectángulo 35514" transform="translate(363 4511)" fill="#fff" stroke="#707070" stroke-width="1">
      <rect width="362" height="248" stroke="none"/>
      <rect x="0.5" y="0.5" width="361" height="247" fill="none"/>
    </g>
    <g id="Grupo_102489" data-name="Grupo 102489">
      <g id="Grupo_100931" data-name="Grupo 100931" transform="translate(0 -1)">
        <path id="Trazado_158936" data-name="Trazado 158936" d="M5.722-4.526H4.052V0H.967V-12.8H6a5.621,5.621,0,0,1,3.56,1.01,3.421,3.421,0,0,1,1.283,2.853,4.155,4.155,0,0,1-.541,2.213A3.837,3.837,0,0,1,8.613-5.3L11.285-.132V0H7.98ZM4.052-6.9H6a1.751,1.751,0,0,0,1.323-.463A1.788,1.788,0,0,0,7.77-8.653a1.809,1.809,0,0,0-.448-1.3A1.735,1.735,0,0,0,6-10.424H4.052ZM12.2-4.843a5.613,5.613,0,0,1,.554-2.536,3.96,3.96,0,0,1,1.591-1.709,4.791,4.791,0,0,1,2.435-.6,4.373,4.373,0,0,1,3.366,1.323,5.076,5.076,0,0,1,1.23,3.6v.105A4.925,4.925,0,0,1,20.14-1.129,4.384,4.384,0,0,1,16.8.176a4.434,4.434,0,0,1-3.261-1.217,4.761,4.761,0,0,1-1.327-3.3Zm2.962.185a3.538,3.538,0,0,0,.413,1.934,1.376,1.376,0,0,0,1.222.615q1.582,0,1.617-2.435v-.3q0-2.558-1.635-2.558-1.485,0-1.608,2.206ZM26.13-11.874V-9.51h1.564v2.057H26.13V-3.1a1.111,1.111,0,0,0,.193.747,1.037,1.037,0,0,0,.765.211,4.345,4.345,0,0,0,.738-.053V-.079a5.466,5.466,0,0,1-1.67.255A3.1,3.1,0,0,1,23.9-.545a2.954,2.954,0,0,1-.729-2.188v-4.72H21.955V-9.51h1.213v-2.364ZM34.523-1.028a3.054,3.054,0,0,1-2.54,1.2,3,3,0,0,1-2.369-.91,3.826,3.826,0,0,1-.8-2.615V-9.51h2.962v6.179a1.065,1.065,0,0,0,1.187,1.222,1.548,1.548,0,0,0,1.45-.729V-9.51h2.979V0H34.611ZM42.135,0H39.164V-13.5h2.971Zm1.45-4.843a5.613,5.613,0,0,1,.554-2.536,3.96,3.96,0,0,1,1.591-1.709,4.791,4.791,0,0,1,2.435-.6A4.373,4.373,0,0,1,51.53-8.363a5.076,5.076,0,0,1,1.23,3.6v.105a4.925,4.925,0,0,1-1.235,3.529A4.384,4.384,0,0,1,48.182.176a4.434,4.434,0,0,1-3.261-1.217,4.761,4.761,0,0,1-1.327-3.3Zm2.962.185a3.538,3.538,0,0,0,.413,1.934,1.376,1.376,0,0,0,1.222.615q1.582,0,1.617-2.435v-.3Q49.8-7.4,48.164-7.4q-1.485,0-1.608,2.206Zm11.628-.167a5.809,5.809,0,0,1,.976-3.56,3.211,3.211,0,0,1,2.725-1.3,2.731,2.731,0,0,1,2.145,1V-13.5H66.99V0H64.327l-.149-1.02a2.8,2.8,0,0,1-2.32,1.2,3.205,3.205,0,0,1-2.689-1.3A5.993,5.993,0,0,1,58.175-4.825Zm2.962.185q0,2.531,1.477,2.531a1.458,1.458,0,0,0,1.406-.826V-6.557A1.419,1.419,0,0,0,62.631-7.4q-1.371,0-1.485,2.215ZM73.274.176a4.889,4.889,0,0,1-3.542-1.305,4.507,4.507,0,0,1-1.354-3.4v-.246a5.84,5.84,0,0,1,.541-2.575A3.955,3.955,0,0,1,70.5-9.075a4.763,4.763,0,0,1,2.461-.611,4.117,4.117,0,0,1,3.164,1.244,4.887,4.887,0,0,1,1.16,3.467v1.151H71.394a2.135,2.135,0,0,0,.694,1.257,2.066,2.066,0,0,0,1.389.457,2.662,2.662,0,0,0,2.2-.984l1.354,1.6A3.784,3.784,0,0,1,75.458-.277,5.3,5.3,0,0,1,73.274.176ZM72.94-7.4q-1.3,0-1.547,1.723h2.988v-.229a1.467,1.467,0,0,0-.36-1.1A1.434,1.434,0,0,0,72.94-7.4ZM86.08,0H83.109V-13.5H86.08Zm7.181,0a3.344,3.344,0,0,1-.281-.853A2.754,2.754,0,0,1,90.694.176a3.374,3.374,0,0,1-2.285-.813,2.588,2.588,0,0,1-.94-2.043,2.66,2.66,0,0,1,1.143-2.338,5.821,5.821,0,0,1,3.322-.791h.914v-.5q0-1.316-1.134-1.316a.927.927,0,0,0-1.055,1.042H87.7a2.655,2.655,0,0,1,1.173-2.239,4.931,4.931,0,0,1,2.993-.86,4.323,4.323,0,0,1,2.874.888,3.086,3.086,0,0,1,1.081,2.435v4.21a4.311,4.311,0,0,0,.4,2V0ZM91.406-1.934a1.652,1.652,0,0,0,.918-.237,1.487,1.487,0,0,0,.523-.536V-4.228h-.861q-1.547,0-1.547,1.389a.848.848,0,0,0,.272.655A.986.986,0,0,0,91.406-1.934ZM104.739-9.51l.1,1.116a3.27,3.27,0,0,1,2.716-1.292,2.407,2.407,0,0,1,2.435,1.433,3.165,3.165,0,0,1,2.795-1.433q2.892,0,2.971,3.5V0h-2.971V-6a1.813,1.813,0,0,0-.246-1.063,1.048,1.048,0,0,0-.9-.334,1.4,1.4,0,0,0-1.31.782l.009.123V0h-2.971V-5.985a1.906,1.906,0,0,0-.237-1.081,1.045,1.045,0,0,0-.905-.334,1.42,1.42,0,0,0-1.3.782V0h-2.962V-9.51Zm18.369,8.481a3.054,3.054,0,0,1-2.54,1.2,3,3,0,0,1-2.369-.91,3.826,3.826,0,0,1-.8-2.615V-9.51h2.962v6.179a1.065,1.065,0,0,0,1.187,1.222,1.548,1.548,0,0,0,1.45-.729V-9.51h2.979V0H123.2ZM132.2.176a4.889,4.889,0,0,1-3.542-1.305,4.507,4.507,0,0,1-1.354-3.4v-.246a5.84,5.84,0,0,1,.541-2.575,3.955,3.955,0,0,1,1.578-1.727,4.763,4.763,0,0,1,2.461-.611,4.117,4.117,0,0,1,3.164,1.244,4.887,4.887,0,0,1,1.16,3.467v1.151h-5.889a2.135,2.135,0,0,0,.694,1.257,2.066,2.066,0,0,0,1.389.457,2.662,2.662,0,0,0,2.2-.984l1.354,1.6A3.784,3.784,0,0,1,134.38-.277,5.3,5.3,0,0,1,132.2.176ZM131.862-7.4q-1.3,0-1.547,1.723H133.3v-.229a1.467,1.467,0,0,0-.36-1.1A1.434,1.434,0,0,0,131.862-7.4Zm10.512,4.729a.684.684,0,0,0-.4-.606,6.016,6.016,0,0,0-1.5-.475,6.853,6.853,0,0,1-1.828-.646,3.062,3.062,0,0,1-1.1-.971,2.319,2.319,0,0,1-.378-1.31,2.628,2.628,0,0,1,1.081-2.158,4.453,4.453,0,0,1,2.83-.848,4.934,4.934,0,0,1,3.023.853,2.666,2.666,0,0,1,1.143,2.241h-2.971q0-1.143-1.2-1.143a1.194,1.194,0,0,0-.782.259.8.8,0,0,0-.316.646.737.737,0,0,0,.387.642,3.654,3.654,0,0,0,1.235.4,10.671,10.671,0,0,1,1.49.378A2.706,2.706,0,0,1,145.23-2.76a2.491,2.491,0,0,1-1.156,2.118,5.068,5.068,0,0,1-2.993.817,5.172,5.172,0,0,1-2.18-.439,3.645,3.645,0,0,1-1.494-1.2,2.707,2.707,0,0,1-.536-1.591h2.769a1.145,1.145,0,0,0,.439.962,1.808,1.808,0,0,0,1.081.3,1.422,1.422,0,0,0,.91-.246A.787.787,0,0,0,142.374-2.672Zm7.69-9.2V-9.51h1.564v2.057h-1.564V-3.1a1.111,1.111,0,0,0,.193.747,1.037,1.037,0,0,0,.765.211,4.345,4.345,0,0,0,.738-.053V-.079a5.466,5.466,0,0,1-1.67.255,3.1,3.1,0,0,1-2.259-.721,2.954,2.954,0,0,1-.729-2.188v-4.72H145.89V-9.51H147.1v-2.364Zm8.481,5.045-.976-.07a1.752,1.752,0,0,0-1.793.879V0h-2.962V-9.51h2.777l.1,1.222a2.294,2.294,0,0,1,2.083-1.4,2.888,2.888,0,0,1,.826.105ZM164.707,0a3.344,3.344,0,0,1-.281-.853A2.754,2.754,0,0,1,162.141.176a3.374,3.374,0,0,1-2.285-.813,2.588,2.588,0,0,1-.94-2.043,2.66,2.66,0,0,1,1.143-2.338,5.821,5.821,0,0,1,3.322-.791h.914v-.5q0-1.316-1.134-1.316a.927.927,0,0,0-1.055,1.042h-2.962a2.655,2.655,0,0,1,1.173-2.239,4.931,4.931,0,0,1,2.993-.86,4.323,4.323,0,0,1,2.874.888,3.086,3.086,0,0,1,1.081,2.435v4.21a4.311,4.311,0,0,0,.4,2V0Zm-1.854-1.934a1.652,1.652,0,0,0,.918-.237,1.487,1.487,0,0,0,.523-.536V-4.228h-.861q-1.547,0-1.547,1.389a.848.848,0,0,0,.272.655A.986.986,0,0,0,162.853-1.934Z" transform="translate(461 4541)" fill="#12263f"/>
        <path id="Trazado_158937" data-name="Trazado 158937" d="M10.266,0H7.922L3.359-7.484V0H1.016V-11.375H3.359l4.57,7.5v-7.5h2.336Zm1.547-4.3A5.013,5.013,0,0,1,12.3-6.547,3.546,3.546,0,0,1,13.691-8.07,4.069,4.069,0,0,1,15.8-8.609,3.849,3.849,0,0,1,18.6-7.562,4.2,4.2,0,0,1,19.8-4.719l.016.578A4.418,4.418,0,0,1,18.734-1.02,3.775,3.775,0,0,1,15.82.156,3.793,3.793,0,0,1,12.9-1.016,4.5,4.5,0,0,1,11.813-4.2Zm2.258.16A3.16,3.16,0,0,0,14.523-2.3a1.5,1.5,0,0,0,1.3.638,1.5,1.5,0,0,0,1.281-.63,3.457,3.457,0,0,0,.461-2.015A3.128,3.128,0,0,0,17.1-6.14a1.5,1.5,0,0,0-1.3-.649,1.474,1.474,0,0,0-1.281.646A3.516,3.516,0,0,0,14.07-4.144Zm9.258-4.309.07.945a2.971,2.971,0,0,1,2.43-1.1A2.255,2.255,0,0,1,28.07-7.32a2.9,2.9,0,0,1,2.539-1.289,2.521,2.521,0,0,1,2.047.8,3.681,3.681,0,0,1,.672,2.41V0H31.063V-5.4a1.616,1.616,0,0,0-.281-1.053,1.245,1.245,0,0,0-.992-.333,1.409,1.409,0,0,0-1.406.971L28.391,0H26.133V-5.4a1.6,1.6,0,0,0-.289-1.065,1.257,1.257,0,0,0-.984-.329,1.463,1.463,0,0,0-1.391.8V0H21.211V-8.453Zm19.352,4.3A5.119,5.119,0,0,1,41.813-.98,2.872,2.872,0,0,1,39.391.156,2.639,2.639,0,0,1,37.2-.9l-.1.9H35.063V-12H37.32v4.3a2.571,2.571,0,0,1,2.055-.914A2.9,2.9,0,0,1,41.8-7.473a5.126,5.126,0,0,1,.879,3.2Zm-2.258-.172A3.381,3.381,0,0,0,40.016-6.2,1.372,1.372,0,0,0,38.8-6.789,1.489,1.489,0,0,0,37.32-5.9v3.346a1.509,1.509,0,0,0,1.5.893,1.4,1.4,0,0,0,1.438-1.081A5.6,5.6,0,0,0,40.422-4.321Zm8.4-2.015a6.134,6.134,0,0,0-.812-.062,1.654,1.654,0,0,0-1.68.867V0H44.07V-8.453H46.2l.063,1.008a2.092,2.092,0,0,1,1.883-1.164,2.366,2.366,0,0,1,.7.1ZM53.648.156A4.15,4.15,0,0,1,50.621-.984a4.054,4.054,0,0,1-1.168-3.039v-.219a5.106,5.106,0,0,1,.492-2.277A3.612,3.612,0,0,1,51.34-8.066,3.914,3.914,0,0,1,53.4-8.609a3.508,3.508,0,0,1,2.73,1.094,4.444,4.444,0,0,1,1,3.1v.922H51.742a2.1,2.1,0,0,0,.66,1.328,2,2,0,0,0,1.395.5,2.437,2.437,0,0,0,2.039-.945l1.109,1.242A3.389,3.389,0,0,1,55.57-.246,4.511,4.511,0,0,1,53.648.156Zm-.258-6.945a1.411,1.411,0,0,0-1.09.455,2.357,2.357,0,0,0-.535,1.3h3.141v-.181A1.681,1.681,0,0,0,54.5-6.377,1.456,1.456,0,0,0,53.391-6.789Zm5.125,5.68a1.137,1.137,0,0,1,.363-.875,1.289,1.289,0,0,1,.91-.336,1.3,1.3,0,0,1,.918.336,1.137,1.137,0,0,1,.363.875,1.121,1.121,0,0,1-.359.863,1.305,1.305,0,0,1-.922.332,1.294,1.294,0,0,1-.914-.332A1.121,1.121,0,0,1,58.516-1.109Zm0-6.4a1.137,1.137,0,0,1,.363-.875,1.289,1.289,0,0,1,.91-.336,1.3,1.3,0,0,1,.918.336,1.137,1.137,0,0,1,.363.875,1.121,1.121,0,0,1-.359.863,1.305,1.305,0,0,1-.922.332,1.294,1.294,0,0,1-.914-.332A1.121,1.121,0,0,1,58.516-7.508Z" transform="translate(390 4576)" fill="#12263f"/>
        <path id="Trazado_158938" data-name="Trazado 158938" d="M7.859-4.648h-4.5V0H1.016V-11.375H8.422v1.9H3.359v2.938h4.5Zm5.5,4.8A4.15,4.15,0,0,1,10.332-.984,4.054,4.054,0,0,1,9.164-4.023v-.219A5.106,5.106,0,0,1,9.656-6.52a3.612,3.612,0,0,1,1.395-1.547,3.914,3.914,0,0,1,2.059-.543,3.508,3.508,0,0,1,2.73,1.094,4.444,4.444,0,0,1,1,3.1v.922H11.453a2.1,2.1,0,0,0,.66,1.328,2,2,0,0,0,1.395.5,2.437,2.437,0,0,0,2.039-.945l1.109,1.242A3.389,3.389,0,0,1,15.281-.246,4.511,4.511,0,0,1,13.359.156ZM13.1-6.789a1.411,1.411,0,0,0-1.09.455,2.357,2.357,0,0,0-.535,1.3h3.141v-.181a1.681,1.681,0,0,0-.406-1.165A1.456,1.456,0,0,0,13.1-6.789Zm8.531,5.125a1.481,1.481,0,0,0,1.016-.344,1.2,1.2,0,0,0,.406-.914h2.117A2.9,2.9,0,0,1,24.7-1.348,3.093,3.093,0,0,1,23.441-.238a3.949,3.949,0,0,1-1.77.395A3.67,3.67,0,0,1,18.813-1,4.56,4.56,0,0,1,17.766-4.18v-.148A4.508,4.508,0,0,1,18.8-7.445a3.627,3.627,0,0,1,2.852-1.164,3.555,3.555,0,0,1,2.543.9,3.2,3.2,0,0,1,.973,2.4H23.055a1.551,1.551,0,0,0-.406-1.072,1.354,1.354,0,0,0-1.031-.412,1.36,1.36,0,0,0-1.191.575,3.333,3.333,0,0,0-.4,1.866v.235a3.375,3.375,0,0,0,.4,1.878A1.377,1.377,0,0,0,21.633-1.664Zm7.031-5.867a2.818,2.818,0,0,1,2.258-1.078q2.75,0,2.789,3.2V0H31.453V-5.364a1.577,1.577,0,0,0-.312-1.077A1.338,1.338,0,0,0,30.1-6.789a1.536,1.536,0,0,0-1.437.767V0H26.406V-12h2.258ZM40.313,0a2.507,2.507,0,0,1-.227-.758,2.732,2.732,0,0,1-2.133.914,3,3,0,0,1-2.059-.719,2.312,2.312,0,0,1-.816-1.812,2.389,2.389,0,0,1,1-2.062,4.915,4.915,0,0,1,2.879-.727h1.039v-.484a1.393,1.393,0,0,0-.3-.937,1.183,1.183,0,0,0-.949-.352,1.345,1.345,0,0,0-.895.273.929.929,0,0,0-.324.75H35.266a2.268,2.268,0,0,1,.453-1.359A3,3,0,0,1,37-8.254a4.669,4.669,0,0,1,1.859-.355,3.689,3.689,0,0,1,2.48.785,2.747,2.747,0,0,1,.918,2.207v3.664a4.041,4.041,0,0,0,.336,1.82V0ZM38.445-1.57a1.945,1.945,0,0,0,.922-.223,1.462,1.462,0,0,0,.625-.6V-3.844h-.844q-1.7,0-1.8,1.172l-.008.133a.9.9,0,0,0,.3.7A1.153,1.153,0,0,0,38.445-1.57Zm5.656.461a1.137,1.137,0,0,1,.363-.875,1.289,1.289,0,0,1,.91-.336,1.3,1.3,0,0,1,.918.336,1.137,1.137,0,0,1,.363.875,1.121,1.121,0,0,1-.359.863,1.305,1.305,0,0,1-.922.332,1.294,1.294,0,0,1-.914-.332A1.121,1.121,0,0,1,44.1-1.109Zm0-6.4a1.137,1.137,0,0,1,.363-.875,1.289,1.289,0,0,1,.91-.336,1.3,1.3,0,0,1,.918.336,1.137,1.137,0,0,1,.363.875,1.121,1.121,0,0,1-.359.863,1.305,1.305,0,0,1-.922.332,1.294,1.294,0,0,1-.914-.332A1.121,1.121,0,0,1,44.1-7.508Z" transform="translate(390 4596)" fill="#12263f"/>
        <path id="Trazado_158940" data-name="Trazado 158940" d="M9.578-9.477H6.094V0H3.75V-9.477H.313v-1.9H9.578ZM13.148,0H10.883V-8.453h2.266Zm-2.4-10.641a1.112,1.112,0,0,1,.34-.836,1.277,1.277,0,0,1,.926-.328,1.28,1.28,0,0,1,.922.328,1.105,1.105,0,0,1,.344.836,1.108,1.108,0,0,1-.348.844,1.283,1.283,0,0,1-.918.328A1.283,1.283,0,0,1,11.1-9.8,1.108,1.108,0,0,1,10.75-10.641ZM22.617-4.148A5.07,5.07,0,0,1,21.73-1.02,2.843,2.843,0,0,1,19.336.156a2.633,2.633,0,0,1-2.07-.891V3.25H15.008v-11.7H17.1l.078.828a2.654,2.654,0,0,1,2.141-.984,2.862,2.862,0,0,1,2.43,1.156,5.207,5.207,0,0,1,.867,3.188Zm-2.258-.172a3.345,3.345,0,0,0-.418-1.826,1.36,1.36,0,0,0-1.215-.643,1.478,1.478,0,0,0-1.461.815V-2.5a1.5,1.5,0,0,0,1.477.839Q20.359-1.664,20.359-4.321Zm3.3.016a5.013,5.013,0,0,1,.484-2.242A3.546,3.546,0,0,1,25.543-8.07a4.069,4.069,0,0,1,2.113-.539,3.849,3.849,0,0,1,2.793,1.047,4.2,4.2,0,0,1,1.207,2.844l.016.578A4.418,4.418,0,0,1,30.586-1.02,3.775,3.775,0,0,1,27.672.156a3.793,3.793,0,0,1-2.918-1.172A4.5,4.5,0,0,1,23.664-4.2Zm2.258.16A3.16,3.16,0,0,0,26.375-2.3a1.5,1.5,0,0,0,1.3.638,1.5,1.5,0,0,0,1.281-.63,3.457,3.457,0,0,0,.461-2.015,3.128,3.128,0,0,0-.461-1.831,1.5,1.5,0,0,0-1.3-.649,1.474,1.474,0,0,0-1.281.646A3.516,3.516,0,0,0,25.922-4.144ZM36.7-4.289a5.094,5.094,0,0,1,.887-3.148,2.877,2.877,0,0,1,2.426-1.172,2.589,2.589,0,0,1,2.039.922V-12h2.266V0H42.273l-.109-.9A2.657,2.657,0,0,1,39.992.156,2.869,2.869,0,0,1,37.6-1.02,5.258,5.258,0,0,1,36.7-4.289Zm2.258.161A3.355,3.355,0,0,0,39.367-2.3a1.348,1.348,0,0,0,1.2.636,1.51,1.51,0,0,0,1.477-.887V-5.9a1.489,1.489,0,0,0-1.461-.887Q38.953-6.789,38.953-4.128Zm11,4.285A4.15,4.15,0,0,1,46.926-.984a4.054,4.054,0,0,1-1.168-3.039v-.219A5.106,5.106,0,0,1,46.25-6.52a3.612,3.612,0,0,1,1.395-1.547A3.914,3.914,0,0,1,49.7-8.609a3.508,3.508,0,0,1,2.73,1.094,4.444,4.444,0,0,1,1,3.1v.922H48.047a2.1,2.1,0,0,0,.66,1.328,2,2,0,0,0,1.395.5,2.437,2.437,0,0,0,2.039-.945L53.25-1.367A3.389,3.389,0,0,1,51.875-.246,4.511,4.511,0,0,1,49.953.156ZM49.7-6.789a1.411,1.411,0,0,0-1.09.455,2.357,2.357,0,0,0-.535,1.3h3.141v-.181A1.681,1.681,0,0,0,50.8-6.377,1.456,1.456,0,0,0,49.7-6.789ZM60.813-8.453l.07.945a2.971,2.971,0,0,1,2.43-1.1A2.255,2.255,0,0,1,65.555-7.32a2.9,2.9,0,0,1,2.539-1.289,2.521,2.521,0,0,1,2.047.8,3.681,3.681,0,0,1,.672,2.41V0H68.547V-5.4a1.616,1.616,0,0,0-.281-1.053,1.245,1.245,0,0,0-.992-.333,1.409,1.409,0,0,0-1.406.971L65.875,0H63.617V-5.4a1.6,1.6,0,0,0-.289-1.065,1.257,1.257,0,0,0-.984-.329,1.463,1.463,0,0,0-1.391.8V0H58.7V-8.453Zm16.8,7.594A2.831,2.831,0,0,1,75.3.156a2.67,2.67,0,0,1-2.074-.781,3.335,3.335,0,0,1-.73-2.289V-8.453H74.75v5.467q0,1.322,1.2,1.322a1.63,1.63,0,0,0,1.578-.8V-8.453H79.8V0H77.672ZM85.391.156A4.15,4.15,0,0,1,82.363-.984,4.054,4.054,0,0,1,81.2-4.023v-.219a5.106,5.106,0,0,1,.492-2.277,3.612,3.612,0,0,1,1.395-1.547,3.914,3.914,0,0,1,2.059-.543,3.508,3.508,0,0,1,2.73,1.094,4.444,4.444,0,0,1,1,3.1v.922H83.484a2.1,2.1,0,0,0,.66,1.328,2,2,0,0,0,1.395.5,2.437,2.437,0,0,0,2.039-.945l1.109,1.242A3.389,3.389,0,0,1,87.313-.246,4.511,4.511,0,0,1,85.391.156Zm-.258-6.945a1.411,1.411,0,0,0-1.09.455,2.357,2.357,0,0,0-.535,1.3h3.141v-.181a1.681,1.681,0,0,0-.406-1.165A1.456,1.456,0,0,0,85.133-6.789Zm9.594,4.453a.727.727,0,0,0-.41-.652A4.659,4.659,0,0,0,93-3.414q-3.016-.633-3.016-2.562a2.323,2.323,0,0,1,.934-1.879,3.766,3.766,0,0,1,2.441-.754,4.053,4.053,0,0,1,2.574.758A2.388,2.388,0,0,1,96.9-5.883H94.641a1.092,1.092,0,0,0-.312-.8A1.322,1.322,0,0,0,93.352-7a1.351,1.351,0,0,0-.883.258.814.814,0,0,0-.312.656.7.7,0,0,0,.355.605,3.657,3.657,0,0,0,1.2.4,9.8,9.8,0,0,1,1.422.379A2.336,2.336,0,0,1,96.922-2.43,2.2,2.2,0,0,1,95.93-.559a4.28,4.28,0,0,1-2.562.715A4.47,4.47,0,0,1,91.48-.223a3.166,3.166,0,0,1-1.293-1.039,2.414,2.414,0,0,1-.469-1.426h2.141a1.179,1.179,0,0,0,.445.922,1.766,1.766,0,0,0,1.109.32,1.635,1.635,0,0,0,.98-.246A.766.766,0,0,0,94.727-2.336Zm6.352-8.2v2.078h1.445V-6.8h-1.445v4.219a1.007,1.007,0,0,0,.18.672.9.9,0,0,0,.688.2,3.6,3.6,0,0,0,.664-.055V-.047a4.648,4.648,0,0,1-1.367.2,2.156,2.156,0,0,1-2.422-2.4V-6.8H97.586V-8.453H98.82v-2.078Zm7.453,4.2a6.134,6.134,0,0,0-.812-.062,1.654,1.654,0,0,0-1.68.867V0h-2.258V-8.453h2.133l.063,1.008a2.092,2.092,0,0,1,1.883-1.164,2.366,2.366,0,0,1,.7.1ZM114.281,0a2.507,2.507,0,0,1-.227-.758,2.732,2.732,0,0,1-2.133.914,3,3,0,0,1-2.059-.719,2.312,2.312,0,0,1-.816-1.812,2.389,2.389,0,0,1,1-2.062,4.915,4.915,0,0,1,2.879-.727h1.039v-.484a1.393,1.393,0,0,0-.3-.937,1.183,1.183,0,0,0-.949-.352,1.345,1.345,0,0,0-.895.273.929.929,0,0,0-.324.75h-2.258a2.268,2.268,0,0,1,.453-1.359,3,3,0,0,1,1.281-.98,4.669,4.669,0,0,1,1.859-.355,3.689,3.689,0,0,1,2.48.785,2.747,2.747,0,0,1,.918,2.207v3.664a4.041,4.041,0,0,0,.336,1.82V0Zm-1.867-1.57a1.945,1.945,0,0,0,.922-.223,1.462,1.462,0,0,0,.625-.6V-3.844h-.844q-1.7,0-1.8,1.172l-.008.133a.9.9,0,0,0,.3.7A1.153,1.153,0,0,0,112.414-1.57Zm5.656.461a1.137,1.137,0,0,1,.363-.875,1.289,1.289,0,0,1,.91-.336,1.3,1.3,0,0,1,.918.336,1.137,1.137,0,0,1,.363.875,1.121,1.121,0,0,1-.359.863,1.305,1.305,0,0,1-.922.332,1.294,1.294,0,0,1-.914-.332A1.121,1.121,0,0,1,118.07-1.109Zm0-6.4a1.137,1.137,0,0,1,.363-.875,1.289,1.289,0,0,1,.91-.336,1.3,1.3,0,0,1,.918.336,1.137,1.137,0,0,1,.363.875,1.121,1.121,0,0,1-.359.863,1.305,1.305,0,0,1-.922.332,1.294,1.294,0,0,1-.914-.332A1.121,1.121,0,0,1,118.07-7.508Z" transform="translate(390 4625)" fill="#12263f"/>
        <path id="Trazado_158941" data-name="Trazado 158941" d="M3.359-1.883H8.336V0H1.016V-11.375H3.359ZM14.484-.859A2.831,2.831,0,0,1,12.172.156,2.67,2.67,0,0,1,10.1-.625a3.335,3.335,0,0,1-.73-2.289V-8.453h2.258v5.467q0,1.322,1.2,1.322a1.63,1.63,0,0,0,1.578-.8V-8.453h2.266V0H14.547Zm3.563-3.43a4.954,4.954,0,0,1,.926-3.133,3,3,0,0,1,2.5-1.187,2.631,2.631,0,0,1,2.164.953l.094-.8h2.047V-.281a3.613,3.613,0,0,1-.5,1.93A3.236,3.236,0,0,1,23.852,2.9a4.985,4.985,0,0,1-2.141.43A4.635,4.635,0,0,1,19.9,2.957,3.217,3.217,0,0,1,18.563,2l1-1.375a2.645,2.645,0,0,0,2.047.945,1.936,1.936,0,0,0,1.4-.48,1.8,1.8,0,0,0,.5-1.363V-.727a2.612,2.612,0,0,1-2.055.883,2.992,2.992,0,0,1-2.465-1.191,4.953,4.953,0,0,1-.941-3.16Zm2.258.161a3.1,3.1,0,0,0,.461,1.809,1.465,1.465,0,0,0,1.266.655,1.567,1.567,0,0,0,1.477-.777V-6.012a1.563,1.563,0,0,0-1.461-.777,1.474,1.474,0,0,0-1.277.667A3.5,3.5,0,0,0,20.3-4.128ZM32.406,0a2.507,2.507,0,0,1-.227-.758,2.732,2.732,0,0,1-2.133.914,3,3,0,0,1-2.059-.719,2.312,2.312,0,0,1-.816-1.812,2.389,2.389,0,0,1,1-2.062,4.915,4.915,0,0,1,2.879-.727h1.039v-.484a1.393,1.393,0,0,0-.3-.937,1.183,1.183,0,0,0-.949-.352,1.345,1.345,0,0,0-.895.273.929.929,0,0,0-.324.75H27.359a2.268,2.268,0,0,1,.453-1.359,3,3,0,0,1,1.281-.98,4.669,4.669,0,0,1,1.859-.355,3.689,3.689,0,0,1,2.48.785,2.747,2.747,0,0,1,.918,2.207v3.664a4.041,4.041,0,0,0,.336,1.82V0ZM30.539-1.57a1.945,1.945,0,0,0,.922-.223,1.462,1.462,0,0,0,.625-.6V-3.844h-.844q-1.7,0-1.8,1.172l-.008.133a.9.9,0,0,0,.3.7A1.153,1.153,0,0,0,30.539-1.57Zm10.3-4.766a6.134,6.134,0,0,0-.812-.062,1.654,1.654,0,0,0-1.68.867V0H36.086V-8.453h2.133l.063,1.008a2.092,2.092,0,0,1,1.883-1.164,2.366,2.366,0,0,1,.7.1Zm4.719,2.047a5.094,5.094,0,0,1,.887-3.148,2.877,2.877,0,0,1,2.426-1.172,2.589,2.589,0,0,1,2.039.922V-12h2.266V0H51.133l-.109-.9A2.657,2.657,0,0,1,48.852.156,2.869,2.869,0,0,1,46.457-1.02,5.258,5.258,0,0,1,45.555-4.289Zm2.258.161A3.355,3.355,0,0,0,48.227-2.3a1.348,1.348,0,0,0,1.2.636,1.51,1.51,0,0,0,1.477-.887V-5.9a1.489,1.489,0,0,0-1.461-.887Q47.812-6.789,47.813-4.128Zm11,4.285A4.15,4.15,0,0,1,55.785-.984a4.054,4.054,0,0,1-1.168-3.039v-.219a5.106,5.106,0,0,1,.492-2.277A3.612,3.612,0,0,1,56.5-8.066a3.914,3.914,0,0,1,2.059-.543,3.508,3.508,0,0,1,2.73,1.094,4.444,4.444,0,0,1,1,3.1v.922H56.906a2.1,2.1,0,0,0,.66,1.328,2,2,0,0,0,1.395.5A2.437,2.437,0,0,0,61-2.609l1.109,1.242A3.389,3.389,0,0,1,60.734-.246,4.511,4.511,0,0,1,58.813.156Zm-.258-6.945a1.411,1.411,0,0,0-1.09.455,2.357,2.357,0,0,0-.535,1.3H60.07v-.181a1.681,1.681,0,0,0-.406-1.165A1.456,1.456,0,0,0,58.555-6.789ZM65.953,0H63.688V-12h2.266Zm7.961-8.453.07.945a2.971,2.971,0,0,1,2.43-1.1A2.255,2.255,0,0,1,78.656-7.32,2.9,2.9,0,0,1,81.2-8.609a2.521,2.521,0,0,1,2.047.8,3.681,3.681,0,0,1,.672,2.41V0H81.648V-5.4a1.616,1.616,0,0,0-.281-1.053,1.245,1.245,0,0,0-.992-.333,1.409,1.409,0,0,0-1.406.971L78.977,0H76.719V-5.4A1.6,1.6,0,0,0,76.43-6.46a1.257,1.257,0,0,0-.984-.329,1.463,1.463,0,0,0-1.391.8V0H71.8V-8.453Zm16.8,7.594A2.831,2.831,0,0,1,88.4.156a2.67,2.67,0,0,1-2.074-.781,3.335,3.335,0,0,1-.73-2.289V-8.453h2.258v5.467q0,1.322,1.2,1.322a1.63,1.63,0,0,0,1.578-.8V-8.453H92.9V0H90.773ZM98.492.156A4.15,4.15,0,0,1,95.465-.984,4.054,4.054,0,0,1,94.3-4.023v-.219a5.106,5.106,0,0,1,.492-2.277,3.612,3.612,0,0,1,1.395-1.547,3.914,3.914,0,0,1,2.059-.543,3.508,3.508,0,0,1,2.73,1.094,4.444,4.444,0,0,1,1,3.1v.922H96.586a2.1,2.1,0,0,0,.66,1.328,2,2,0,0,0,1.395.5,2.437,2.437,0,0,0,2.039-.945l1.109,1.242a3.389,3.389,0,0,1-1.375,1.121A4.511,4.511,0,0,1,98.492.156Zm-.258-6.945a1.411,1.411,0,0,0-1.09.455,2.357,2.357,0,0,0-.535,1.3H99.75v-.181a1.681,1.681,0,0,0-.406-1.165A1.456,1.456,0,0,0,98.234-6.789Zm9.594,4.453a.727.727,0,0,0-.41-.652,4.659,4.659,0,0,0-1.316-.426q-3.016-.633-3.016-2.562a2.323,2.323,0,0,1,.934-1.879,3.766,3.766,0,0,1,2.441-.754,4.053,4.053,0,0,1,2.574.758A2.388,2.388,0,0,1,110-5.883h-2.258a1.092,1.092,0,0,0-.312-.8A1.322,1.322,0,0,0,106.453-7a1.351,1.351,0,0,0-.883.258.814.814,0,0,0-.312.656.7.7,0,0,0,.355.605,3.657,3.657,0,0,0,1.2.4,9.8,9.8,0,0,1,1.422.379,2.336,2.336,0,0,1,1.789,2.273,2.2,2.2,0,0,1-.992,1.871,4.28,4.28,0,0,1-2.562.715,4.47,4.47,0,0,1-1.887-.379,3.166,3.166,0,0,1-1.293-1.039,2.414,2.414,0,0,1-.469-1.426h2.141a1.179,1.179,0,0,0,.445.922,1.766,1.766,0,0,0,1.109.32,1.635,1.635,0,0,0,.98-.246A.766.766,0,0,0,107.828-2.336Zm6.352-8.2v2.078h1.445V-6.8H114.18v4.219a1.007,1.007,0,0,0,.18.672.9.9,0,0,0,.688.2,3.6,3.6,0,0,0,.664-.055V-.047a4.648,4.648,0,0,1-1.367.2,2.156,2.156,0,0,1-2.422-2.4V-6.8h-1.234V-8.453h1.234v-2.078Zm7.453,4.2a6.134,6.134,0,0,0-.812-.062,1.654,1.654,0,0,0-1.68.867V0h-2.258V-8.453h2.133l.063,1.008a2.092,2.092,0,0,1,1.883-1.164,2.366,2.366,0,0,1,.7.1ZM126.461.156a4.15,4.15,0,0,1-3.027-1.141,4.054,4.054,0,0,1-1.168-3.039v-.219a5.106,5.106,0,0,1,.492-2.277,3.612,3.612,0,0,1,1.395-1.547,3.914,3.914,0,0,1,2.059-.543,3.508,3.508,0,0,1,2.73,1.094,4.444,4.444,0,0,1,1,3.1v.922h-5.383a2.1,2.1,0,0,0,.66,1.328,2,2,0,0,0,1.395.5,2.437,2.437,0,0,0,2.039-.945l1.109,1.242a3.389,3.389,0,0,1-1.375,1.121A4.511,4.511,0,0,1,126.461.156ZM126.2-6.789a1.411,1.411,0,0,0-1.09.455,2.357,2.357,0,0,0-.535,1.3h3.141v-.181a1.681,1.681,0,0,0-.406-1.165A1.456,1.456,0,0,0,126.2-6.789ZM130.867-4.3a5.013,5.013,0,0,1,.484-2.242,3.546,3.546,0,0,1,1.395-1.523,4.069,4.069,0,0,1,2.113-.539,3.849,3.849,0,0,1,2.793,1.047,4.2,4.2,0,0,1,1.207,2.844l.016.578a4.418,4.418,0,0,1-1.086,3.121A3.775,3.775,0,0,1,134.875.156a3.793,3.793,0,0,1-2.918-1.172,4.5,4.5,0,0,1-1.09-3.187Zm2.258.16a3.16,3.16,0,0,0,.453,1.843,1.5,1.5,0,0,0,1.3.638,1.5,1.5,0,0,0,1.281-.63,3.457,3.457,0,0,0,.461-2.015,3.128,3.128,0,0,0-.461-1.831,1.5,1.5,0,0,0-1.3-.649,1.474,1.474,0,0,0-1.281.646A3.516,3.516,0,0,0,133.125-4.144Z" transform="translate(390 4647)" fill="#12263f"/>
        <path id="Trazado_158942" data-name="Trazado 158942" d="M5.227-4.164H3.359V0H1.016V-11.375H5.242a4.778,4.778,0,0,1,3.109.9A3.1,3.1,0,0,1,9.445-7.937,3.5,3.5,0,0,1,8.941-6,3.437,3.437,0,0,1,7.414-4.758L9.875-.109V0H7.359Zm-1.867-1.9H5.25a1.936,1.936,0,0,0,1.367-.449A1.606,1.606,0,0,0,7.1-7.75a1.719,1.719,0,0,0-.457-1.266,1.9,1.9,0,0,0-1.4-.461H3.359ZM14.969.156A4.15,4.15,0,0,1,11.941-.984a4.054,4.054,0,0,1-1.168-3.039v-.219a5.106,5.106,0,0,1,.492-2.277A3.612,3.612,0,0,1,12.66-8.066a3.914,3.914,0,0,1,2.059-.543,3.508,3.508,0,0,1,2.73,1.094,4.444,4.444,0,0,1,1,3.1v.922H13.063a2.1,2.1,0,0,0,.66,1.328,2,2,0,0,0,1.395.5,2.437,2.437,0,0,0,2.039-.945l1.109,1.242A3.389,3.389,0,0,1,16.891-.246,4.511,4.511,0,0,1,14.969.156Zm-.258-6.945a1.411,1.411,0,0,0-1.09.455,2.357,2.357,0,0,0-.535,1.3h3.141v-.181a1.681,1.681,0,0,0-.406-1.165A1.456,1.456,0,0,0,14.711-6.789ZM24.3-2.336a.727.727,0,0,0-.41-.652,4.659,4.659,0,0,0-1.316-.426q-3.016-.633-3.016-2.562A2.323,2.323,0,0,1,20.5-7.855a3.766,3.766,0,0,1,2.441-.754,4.053,4.053,0,0,1,2.574.758,2.388,2.388,0,0,1,.965,1.969H24.219a1.092,1.092,0,0,0-.312-.8A1.322,1.322,0,0,0,22.93-7a1.351,1.351,0,0,0-.883.258.814.814,0,0,0-.312.656.7.7,0,0,0,.355.605,3.657,3.657,0,0,0,1.2.4,9.8,9.8,0,0,1,1.422.379A2.336,2.336,0,0,1,26.5-2.43a2.2,2.2,0,0,1-.992,1.871,4.28,4.28,0,0,1-2.562.715,4.47,4.47,0,0,1-1.887-.379,3.166,3.166,0,0,1-1.293-1.039A2.414,2.414,0,0,1,19.3-2.687h2.141a1.179,1.179,0,0,0,.445.922,1.766,1.766,0,0,0,1.109.32,1.635,1.635,0,0,0,.98-.246A.766.766,0,0,0,24.3-2.336ZM35.563-4.148a5.07,5.07,0,0,1-.887,3.129A2.843,2.843,0,0,1,32.281.156a2.633,2.633,0,0,1-2.07-.891V3.25H27.953v-11.7h2.094l.078.828a2.654,2.654,0,0,1,2.141-.984A2.862,2.862,0,0,1,34.7-7.453a5.207,5.207,0,0,1,.867,3.188ZM33.3-4.321a3.345,3.345,0,0,0-.418-1.826,1.36,1.36,0,0,0-1.215-.643,1.478,1.478,0,0,0-1.461.815V-2.5a1.5,1.5,0,0,0,1.477.839Q33.3-1.664,33.3-4.321Zm3.3.016a5.013,5.013,0,0,1,.484-2.242A3.546,3.546,0,0,1,38.488-8.07,4.069,4.069,0,0,1,40.6-8.609a3.849,3.849,0,0,1,2.793,1.047A4.2,4.2,0,0,1,44.6-4.719l.016.578A4.418,4.418,0,0,1,43.531-1.02,3.775,3.775,0,0,1,40.617.156,3.793,3.793,0,0,1,37.7-1.016,4.5,4.5,0,0,1,36.609-4.2Zm2.258.16A3.16,3.16,0,0,0,39.32-2.3a1.5,1.5,0,0,0,1.3.638,1.5,1.5,0,0,0,1.281-.63,3.457,3.457,0,0,0,.461-2.015A3.128,3.128,0,0,0,41.9-6.14a1.5,1.5,0,0,0-1.3-.649,1.474,1.474,0,0,0-1.281.646A3.516,3.516,0,0,0,38.867-4.144Zm9.219-4.309.07.977a2.951,2.951,0,0,1,2.43-1.133,2.453,2.453,0,0,1,2,.789,3.682,3.682,0,0,1,.672,2.359V0H51V-5.419a1.47,1.47,0,0,0-.312-1.045,1.4,1.4,0,0,0-1.039-.325,1.553,1.553,0,0,0-1.43.814V0H45.961V-8.453ZM59.547-2.336a.727.727,0,0,0-.41-.652,4.659,4.659,0,0,0-1.316-.426Q54.8-4.047,54.8-5.977a2.323,2.323,0,0,1,.934-1.879,3.766,3.766,0,0,1,2.441-.754,4.053,4.053,0,0,1,2.574.758,2.388,2.388,0,0,1,.965,1.969H59.461a1.092,1.092,0,0,0-.312-.8A1.322,1.322,0,0,0,58.172-7a1.351,1.351,0,0,0-.883.258.814.814,0,0,0-.312.656.7.7,0,0,0,.355.605,3.657,3.657,0,0,0,1.2.4,9.8,9.8,0,0,1,1.422.379A2.336,2.336,0,0,1,61.742-2.43,2.2,2.2,0,0,1,60.75-.559a4.28,4.28,0,0,1-2.562.715A4.47,4.47,0,0,1,56.3-.223a3.166,3.166,0,0,1-1.293-1.039,2.414,2.414,0,0,1-.469-1.426H56.68a1.179,1.179,0,0,0,.445.922,1.766,1.766,0,0,0,1.109.32,1.635,1.635,0,0,0,.98-.246A.766.766,0,0,0,59.547-2.336ZM68.094,0a2.507,2.507,0,0,1-.227-.758,2.732,2.732,0,0,1-2.133.914,3,3,0,0,1-2.059-.719,2.312,2.312,0,0,1-.816-1.812,2.389,2.389,0,0,1,1-2.062,4.915,4.915,0,0,1,2.879-.727h1.039v-.484a1.393,1.393,0,0,0-.3-.937,1.183,1.183,0,0,0-.949-.352,1.345,1.345,0,0,0-.895.273.929.929,0,0,0-.324.75H63.047A2.268,2.268,0,0,1,63.5-7.273a3,3,0,0,1,1.281-.98,4.669,4.669,0,0,1,1.859-.355,3.689,3.689,0,0,1,2.48.785,2.747,2.747,0,0,1,.918,2.207v3.664a4.041,4.041,0,0,0,.336,1.82V0ZM66.227-1.57a1.945,1.945,0,0,0,.922-.223,1.462,1.462,0,0,0,.625-.6V-3.844H66.93q-1.7,0-1.8,1.172l-.008.133a.9.9,0,0,0,.3.7A1.153,1.153,0,0,0,66.227-1.57ZM79.391-4.148A5.119,5.119,0,0,1,78.523-.98,2.872,2.872,0,0,1,76.1.156,2.639,2.639,0,0,1,73.906-.9l-.1.9H71.773V-12h2.258v4.3a2.571,2.571,0,0,1,2.055-.914,2.9,2.9,0,0,1,2.426,1.137,5.126,5.126,0,0,1,.879,3.2Zm-2.258-.172A3.381,3.381,0,0,0,76.727-6.2a1.372,1.372,0,0,0-1.211-.592,1.489,1.489,0,0,0-1.484.885v3.346a1.509,1.509,0,0,0,1.5.893,1.4,1.4,0,0,0,1.438-1.081A5.6,5.6,0,0,0,77.133-4.321ZM83.164,0H80.9V-12h2.266Zm5.75.156A4.15,4.15,0,0,1,85.887-.984a4.054,4.054,0,0,1-1.168-3.039v-.219a5.106,5.106,0,0,1,.492-2.277,3.612,3.612,0,0,1,1.395-1.547,3.914,3.914,0,0,1,2.059-.543,3.508,3.508,0,0,1,2.73,1.094,4.444,4.444,0,0,1,1,3.1v.922H87.008a2.1,2.1,0,0,0,.66,1.328,2,2,0,0,0,1.395.5A2.437,2.437,0,0,0,91.1-2.609l1.109,1.242A3.389,3.389,0,0,1,90.836-.246,4.511,4.511,0,0,1,88.914.156Zm-.258-6.945a1.411,1.411,0,0,0-1.09.455,2.357,2.357,0,0,0-.535,1.3h3.141v-.181a1.681,1.681,0,0,0-.406-1.165A1.456,1.456,0,0,0,88.656-6.789Zm5.125,5.68a1.137,1.137,0,0,1,.363-.875,1.289,1.289,0,0,1,.91-.336,1.3,1.3,0,0,1,.918.336,1.137,1.137,0,0,1,.363.875,1.121,1.121,0,0,1-.359.863,1.305,1.305,0,0,1-.922.332,1.294,1.294,0,0,1-.914-.332A1.121,1.121,0,0,1,93.781-1.109Zm0-6.4a1.137,1.137,0,0,1,.363-.875,1.289,1.289,0,0,1,.91-.336,1.3,1.3,0,0,1,.918.336,1.137,1.137,0,0,1,.363.875,1.121,1.121,0,0,1-.359.863,1.305,1.305,0,0,1-.922.332,1.294,1.294,0,0,1-.914-.332A1.121,1.121,0,0,1,93.781-7.508Z" transform="translate(390 4676)" fill="#12263f"/>
        <path id="Trazado_158943" data-name="Trazado 158943" d="M6.939-3.212A3.941,3.941,0,0,1,5.693-.8,3.528,3.528,0,0,1,3.244.113a2.458,2.458,0,0,1-2.06-.953A2.982,2.982,0,0,1,.661-3.212L.87-4.6A3.975,3.975,0,0,1,2.079-7.012a3.359,3.359,0,0,1,2.374-.921,2.59,2.59,0,0,1,2.132.959A2.927,2.927,0,0,1,7.149-4.6Zm-.849-1.4a2.4,2.4,0,0,0-.312-1.781,1.667,1.667,0,0,0-1.461-.669,2.111,2.111,0,0,0-1.56.7,3.094,3.094,0,0,0-.83,1.754l-.209,1.4a2.481,2.481,0,0,0,.274,1.791,1.542,1.542,0,0,0,1.38.669,2.257,2.257,0,0,0,1.644-.693,3.078,3.078,0,0,0,.865-1.767ZM13.2-2.686a3.7,3.7,0,0,1-.908,2.052,2.349,2.349,0,0,1-1.778.747,1.82,1.82,0,0,1-.956-.236,1.59,1.59,0,0,1-.612-.693L8.647,0H7.836L9.093-8.379h1.058L9.663-5.124a2.349,2.349,0,0,1,.773-.591,2.261,2.261,0,0,1,.972-.2,1.632,1.632,0,0,1,1.523.867A3.48,3.48,0,0,1,13.218-2.8ZM12.16-2.8a3,3,0,0,0-.118-1.649,1.025,1.025,0,0,0-1.031-.612,1.536,1.536,0,0,0-.851.244,2.128,2.128,0,0,0-.642.658l-.376,2.5a1.383,1.383,0,0,0,.435.669,1.236,1.236,0,0,0,.8.239,1.478,1.478,0,0,0,1.179-.54,2.735,2.735,0,0,0,.588-1.4Zm5.554,1.235a.624.624,0,0,0-.183-.575,2.248,2.248,0,0,0-.956-.381,3.674,3.674,0,0,1-1.5-.618,1.074,1.074,0,0,1-.4-1.063,1.791,1.791,0,0,1,.771-1.23,2.705,2.705,0,0,1,1.641-.489,2.067,2.067,0,0,1,1.5.542A1.336,1.336,0,0,1,19.03-4.13l-.011.032H18a.8.8,0,0,0-.231-.687,1.042,1.042,0,0,0-.795-.3,1.357,1.357,0,0,0-.862.255.917.917,0,0,0-.373.6A.565.565,0,0,0,15.9-3.7a2.369,2.369,0,0,0,.945.338,3.587,3.587,0,0,1,1.531.639,1.122,1.122,0,0,1,.4,1.08,1.8,1.8,0,0,1-.8,1.276,2.932,2.932,0,0,1-1.708.475,2.257,2.257,0,0,1-1.646-.569,1.4,1.4,0,0,1-.448-1.311L14.19-1.8h1.015a.856.856,0,0,0,.306.824,1.447,1.447,0,0,0,.881.26,1.584,1.584,0,0,0,.9-.242A.894.894,0,0,0,17.714-1.563ZM22.231.113A2.11,2.11,0,0,1,20.424-.7a2.7,2.7,0,0,1-.411-2.095l.038-.236a3.48,3.48,0,0,1,1.023-2.095,2.674,2.674,0,0,1,1.893-.795,1.8,1.8,0,0,1,1.617.736A2.644,2.644,0,0,1,24.9-3.266l-.081.559H21.06a2.306,2.306,0,0,0,.183,1.458,1.17,1.17,0,0,0,1.112.534,2.872,2.872,0,0,0,.959-.156,2.517,2.517,0,0,0,.765-.419L24.39-.6a3.058,3.058,0,0,1-.9.508A3.533,3.533,0,0,1,22.231.113Zm.612-5.2a1.339,1.339,0,0,0-.964.43,2.448,2.448,0,0,0-.62,1.085l.011.032h2.616l.011-.086a1.551,1.551,0,0,0-.15-1.055A.97.97,0,0,0,22.843-5.086Zm6.236.209-.537-.032a1.306,1.306,0,0,0-.73.207,1.712,1.712,0,0,0-.537.583L26.657,0H25.6l.87-5.812h.945l-.021.822a2.442,2.442,0,0,1,.709-.685,1.639,1.639,0,0,1,.875-.244A1.322,1.322,0,0,1,29.2-5.9a1.229,1.229,0,0,1,.175.04Zm2.664,3.164.032.408.032.005.161-.414,1.95-4.1H35L31.99,0h-.8L29.9-5.812H30.98ZM38.57,0q-.011-.3-.011-.486a3.428,3.428,0,0,1,.021-.379,3.138,3.138,0,0,1-.878.7,2.2,2.2,0,0,1-1.061.282,1.657,1.657,0,0,1-1.3-.47,1.481,1.481,0,0,1-.3-1.276,1.777,1.777,0,0,1,.859-1.316,3.571,3.571,0,0,1,1.907-.457h1.149l.086-.575a.941.941,0,0,0-.185-.819,1.1,1.1,0,0,0-.841-.287,1.467,1.467,0,0,0-.859.258.9.9,0,0,0-.419.618l-1.01.011-.005-.032A1.665,1.665,0,0,1,36.5-5.406,2.82,2.82,0,0,1,38.2-5.919a2.1,2.1,0,0,1,1.493.508,1.552,1.552,0,0,1,.408,1.442l-.419,2.8a4.6,4.6,0,0,0-.062.61A3.1,3.1,0,0,0,39.66,0ZM36.932-.773A2.084,2.084,0,0,0,38-1.074a1.8,1.8,0,0,0,.714-.677l.145-.94H37.667a1.746,1.746,0,0,0-1.063.328,1.135,1.135,0,0,0-.5.752.7.7,0,0,0,.142.62A.922.922,0,0,0,36.932-.773Zm6.531.059a1.427,1.427,0,0,0,.889-.328,1.239,1.239,0,0,0,.5-.795H45.8l.011.032a1.984,1.984,0,0,1-.841,1.351,2.639,2.639,0,0,1-1.635.567A1.951,1.951,0,0,1,41.6-.728a2.827,2.827,0,0,1-.384-2.065l.032-.226a3.724,3.724,0,0,1,.978-2.087,2.674,2.674,0,0,1,2.014-.814,1.9,1.9,0,0,1,1.488.607,1.655,1.655,0,0,1,.392,1.477l-.011.027h-.967a1.152,1.152,0,0,0-.2-.916.983.983,0,0,0-.822-.363,1.456,1.456,0,0,0-1.214.615,3.105,3.105,0,0,0-.591,1.453l-.032.226A2.648,2.648,0,0,0,42.4-1.3,1.041,1.041,0,0,0,43.463-.714ZM47.948,0H46.89l.87-5.812h1.058Zm1.1-7.3H47.985l.161-1.08H49.2Zm.73,4.34a3.7,3.7,0,0,1,1.012-2.148,2.75,2.75,0,0,1,2.022-.811,2.022,2.022,0,0,1,1.759.841,2.818,2.818,0,0,1,.411,2.119l-.021.118A3.709,3.709,0,0,1,53.942-.69a2.762,2.762,0,0,1-2.025.8,2.025,2.025,0,0,1-1.759-.838,2.793,2.793,0,0,1-.406-2.116Zm1.037.118A2.53,2.53,0,0,0,50.966-1.3a1.1,1.1,0,0,0,1.074.585,1.52,1.52,0,0,0,1.222-.61A3.1,3.1,0,0,0,53.9-2.841l.021-.118A2.532,2.532,0,0,0,53.757-4.5a1.1,1.1,0,0,0-1.072-.591,1.521,1.521,0,0,0-1.227.615,3.042,3.042,0,0,0-.626,1.512Zm2.82-5.436h1.23l.011.032-1.644,1.4H52.47l-.011-.027Zm3.964,3.3a2.511,2.511,0,0,1,.83-.7,2.228,2.228,0,0,1,1.034-.244,1.639,1.639,0,0,1,1.356.556,2.139,2.139,0,0,1,.277,1.695L60.543,0H59.485l.548-3.647a1.45,1.45,0,0,0-.134-1.1,1.09,1.09,0,0,0-.886-.309,1.731,1.731,0,0,0-.849.207,1.876,1.876,0,0,0-.634.572L56.885,0H55.827l.87-5.812h.945ZM63.234,0H62.176l.161-1.085H63.4Zm.7-4.705H62.879l.161-1.085H64.1Z" transform="translate(396 4714)" fill="#12263f"/>
        <path id="Trazado_158939" data-name="Trazado 158939" d="M10.273,0H7.93V-4.875H3.359V0H1.016V-11.375H3.359v4.609H7.93v-4.609h2.344ZM11.82-4.3A5.013,5.013,0,0,1,12.3-6.547,3.546,3.546,0,0,1,13.7-8.07a4.069,4.069,0,0,1,2.113-.539,3.849,3.849,0,0,1,2.793,1.047,4.2,4.2,0,0,1,1.207,2.844l.016.578A4.418,4.418,0,0,1,18.742-1.02,3.775,3.775,0,0,1,15.828.156,3.793,3.793,0,0,1,12.91-1.016,4.5,4.5,0,0,1,11.82-4.2Zm2.258.16A3.16,3.16,0,0,0,14.531-2.3a1.5,1.5,0,0,0,1.3.638,1.5,1.5,0,0,0,1.281-.63,3.457,3.457,0,0,0,.461-2.015,3.128,3.128,0,0,0-.461-1.831,1.5,1.5,0,0,0-1.3-.649,1.474,1.474,0,0,0-1.281.646A3.516,3.516,0,0,0,14.078-4.144ZM25.969-6.336a6.134,6.134,0,0,0-.812-.062,1.654,1.654,0,0,0-1.68.867V0H21.219V-8.453h2.133l.063,1.008A2.092,2.092,0,0,1,25.3-8.609a2.366,2.366,0,0,1,.7.1ZM31.719,0a2.507,2.507,0,0,1-.227-.758,2.732,2.732,0,0,1-2.133.914A3,3,0,0,1,27.3-.562a2.312,2.312,0,0,1-.816-1.812,2.389,2.389,0,0,1,1-2.062,4.915,4.915,0,0,1,2.879-.727H31.4v-.484a1.393,1.393,0,0,0-.3-.937,1.183,1.183,0,0,0-.949-.352,1.345,1.345,0,0,0-.895.273.929.929,0,0,0-.324.75H26.672a2.268,2.268,0,0,1,.453-1.359,3,3,0,0,1,1.281-.98,4.669,4.669,0,0,1,1.859-.355,3.689,3.689,0,0,1,2.48.785,2.747,2.747,0,0,1,.918,2.207v3.664A4.041,4.041,0,0,0,34-.133V0ZM29.852-1.57a1.945,1.945,0,0,0,.922-.223,1.462,1.462,0,0,0,.625-.6V-3.844h-.844q-1.7,0-1.8,1.172l-.008.133a.9.9,0,0,0,.3.7A1.153,1.153,0,0,0,29.852-1.57Zm5.656.461a1.137,1.137,0,0,1,.363-.875,1.289,1.289,0,0,1,.91-.336,1.3,1.3,0,0,1,.918.336,1.137,1.137,0,0,1,.363.875,1.121,1.121,0,0,1-.359.863,1.305,1.305,0,0,1-.922.332,1.294,1.294,0,0,1-.914-.332A1.121,1.121,0,0,1,35.508-1.109Zm0-6.4a1.137,1.137,0,0,1,.363-.875,1.289,1.289,0,0,1,.91-.336,1.3,1.3,0,0,1,.918.336,1.137,1.137,0,0,1,.363.875,1.121,1.121,0,0,1-.359.863,1.305,1.305,0,0,1-.922.332,1.294,1.294,0,0,1-.914-.332A1.121,1.121,0,0,1,35.508-7.508Z" transform="translate(580 4596)" fill="#12263f"/>
        <line id="Línea_141" data-name="Línea 141" x2="241" transform="translate(456.5 4580.5)" fill="none" stroke="#12263f" stroke-width="1"/>
        <line id="Línea_144" data-name="Línea 144" x2="180" transform="translate(517.5 4629)" fill="none" stroke="#12263f" stroke-width="1"/>
        <line id="Línea_145" data-name="Línea 145" x2="160" transform="translate(537.5 4651.5)" fill="none" stroke="#12263f" stroke-width="1"/>
        <line id="Línea_146" data-name="Línea 146" x2="202" transform="translate(495.5 4680)" fill="none" stroke="#12263f" stroke-width="1"/>
        <line id="Línea_142" data-name="Línea 142" x2="115" transform="translate(456.5 4597.5)" fill="none" stroke="#12263f" stroke-width="1"/>
        <line id="Línea_143" data-name="Línea 143" x2="75" transform="translate(622.5 4597.5)" fill="none" stroke="#12263f" stroke-width="1"/>
        <g id="Rectángulo_35515" data-name="Rectángulo 35515" transform="translate(390 4699)" fill="none" stroke="#707070" stroke-width="1">
          <rect width="308" height="50" stroke="none"/>
          <rect x="0.5" y="0.5" width="307" height="49" fill="none"/>
        </g>
      </g>
      <path id="Trazado_158950" data-name="Trazado 158950" d="M5.117-15.1l-2.559,3.2H1.318L3.5-15.1Z" transform="translate(475 4541.598)" fill="#12263f"/>
    </g>
  </g>
</svg>
