<svg xmlns="http://www.w3.org/2000/svg" xmlns:xlink="http://www.w3.org/1999/xlink" width="177.018" height="177.018" viewBox="0 0 177.018 177.018">
  <defs>
    <linearGradient id="linear-gradient" x1="0.059" y1="-0.237" x2="1.358" y2="1.933" gradientUnits="objectBoundingBox">
      <stop offset="0" stop-color="#fff04a"/>
      <stop offset="0.43" stop-color="#ffb655"/>
      <stop offset="0.962" stop-color="#ff9100"/>
    </linearGradient>
  </defs>
  <g id="Grupo_102488" data-name="Grupo 102488" transform="translate(-1039.982 -597)">
    <path id="Trazado_158944" data-name="Trazado 158944" d="M88.509,0A88.509,88.509,0,1,1,0,88.509,88.509,88.509,0,0,1,88.509,0Z" transform="translate(1039.982 597)" fill="url(#linear-gradient)"/>
    <g id="Grupo_100944" data-name="Grupo 100944" transform="translate(1204.875 608.969) rotate(90)">
      <path id="Trazado_156338" data-name="Trazado 156338" d="M304.223,254.194a76.4,76.4,0,1,0-76.4,76.4A76.1,76.1,0,0,0,304.223,254.194Z" transform="translate(-152.339 -178.702)" fill="#fff"/>
    </g>
    <g id="Grupo_101997" data-name="Grupo 101997" transform="translate(1055.766 599.196)">
      <path id="Trazado_158329" data-name="Trazado 158329" d="M111.942,104.927a35.077,35.077,0,0,0-9.17-3.567c-.436-5.217-4.226-10.367-11.369-14.351C76.25,78.555,51.759,78.552,36.705,87s-14.969,22.162.185,30.615c7.9,4.405,18.325,6.49,28.635,6.3a20.593,20.593,0,0,0,5.681,4.674c11.321,6.536,29.62,6.536,40.865,0S123.261,111.461,111.942,104.927Z" transform="translate(0 13.105)" opacity="0.1"/>
      <g id="Grupo_101982" data-name="Grupo 101982" transform="translate(34.664 25.804)">
        <path id="Trazado_158330" data-name="Trazado 158330" d="M89.322,59.01l-.17-1.625c-.652-3.456-3.264-6.815-7.852-9.464-.654-.379-10.083-3.754-8.811-13.061l-10.5-.912L62,34.86H51.532c1.532,8.144-7.692,12.473-8.7,13.055-3.874,2.252-6.308,5.019-7.333,7.924l-.011.007h.01a9.651,9.651,0,0,0-.4,1.539h-.014v.078a9.216,9.216,0,0,0,0,3.162v49.022c-.81,4.569,1.809,9.31,7.871,12.812,10.656,6.15,27.88,6.146,38.465-.006,5.985-3.479,8.563-8.182,7.749-12.723l.146-50.615ZM62.105,43.235v.071h0Z" transform="translate(-32.4 -23.858)" fill="#5abce5"/>
        <path id="Trazado_158331" data-name="Trazado 158331" d="M71.948,70.638c-11.295-.2-1.466-13.775-.047-20.258,1.1-5.021-19.445,2.635-24.7-7.464a25.091,25.091,0,0,1-4.368,2.857c-3.874,2.252-6.308,5.019-7.333,7.924l-.011.007h.01a9.65,9.65,0,0,0-.4,1.539H35.09v.078a9.216,9.216,0,0,0,0,3.162V78.477c14.656,14.35,40.758,2.967,51.4-.953a11.55,11.55,0,0,0,2.779-1.459l.04-13.831C86.883,66.742,83.214,70.839,71.948,70.638Z" transform="translate(-32.399 -21.716)" fill="#7dd4f2"/>
        <path id="Trazado_158332" data-name="Trazado 158332" d="M89.174,96.987l.027-9.692L77.471,98.965l-42.381-3.8V96.9a9.212,9.212,0,0,0-.123,2.061c1.77,2.529,4.4,4.384,8.474,5.533,7.138,2.008,22.491,5.885,32.66,1.332,10.788-4.828,10.332-2.852,8.357-.725-1.8,1.941-6.023,6.156-10.062,7.541a31.58,31.58,0,0,0,7.028-2.936C87.41,106.231,89.988,101.528,89.174,96.987Z" transform="translate(-32.399 -11.115)" fill="#40a3c6"/>
        <path id="Trazado_158333" data-name="Trazado 158333" d="M45.644,87.383C56.886,90.707,66.96,90.9,82,85.157c0,0,5.471-3.512,4.257.929-.834,3.041-.525,4.927-1.472,6.887,1.378-1.471,3.032-3.21,4.516-4.759V68.2l-4.516,6.015L63.619,78.675,35.064,74.213V79.96A19.735,19.735,0,0,0,45.644,87.383Z" transform="translate(-32.373 -15.677)" fill="#40a3c6"/>
        <g id="Grupo_101977" data-name="Grupo 101977" transform="translate(19.132 4.861)">
          <path id="Trazado_158334" data-name="Trazado 158334" d="M66.2,31.528c4.106,2.4,4.129,6.284.051,8.681a16.175,16.175,0,0,1-14.823,0c-4.1-2.4-4.125-6.29-.048-8.686A16.159,16.159,0,0,1,66.2,31.528Z" transform="translate(-48.334 -29.728)" fill="#5abce5"/>
        </g>
        <g id="Grupo_101978" data-name="Grupo 101978" transform="translate(19.132 4.861)">
          <path id="Trazado_158335" data-name="Trazado 158335" d="M66.2,31.528c4.106,2.4,4.129,6.284.051,8.681a16.175,16.175,0,0,1-14.823,0c-4.1-2.4-4.125-6.29-.048-8.686A16.159,16.159,0,0,1,66.2,31.528Z" transform="translate(-48.334 -29.728)" fill="#0467d8"/>
        </g>
        <g id="Grupo_101979" data-name="Grupo 101979" transform="translate(0 40.482)">
          <path id="Trazado_158336" data-name="Trazado 158336" d="M89.733,63.408c1.015,4.438-1.528,9.072-7.688,12.479-10.622,5.875-27.911,5.878-38.6,0-7.132-3.919-8.014-7.446-7.858-14.468-5.322,7.529-2.385,16.44,5.591,21.138C52.852,89.438,71.782,89.4,83.4,82.554,92.192,77.378,94.292,69.769,89.733,63.408Z" transform="translate(-32.891 -57.777)" fill="#89d2f5"/>
          <path id="Trazado_158337" data-name="Trazado 158337" d="M89.792,60.488c-.1,4.782-1.587,9.049-7.748,12.454-10.622,5.875-27.911,5.88-38.6,0-7.132-3.919-8.014-7.446-7.858-14.468-5.322,7.529-2.385,16.44,5.591,21.138,11.678,6.877,30.608,6.84,42.227,0C92.192,74.434,94.348,66.849,89.792,60.488Z" transform="translate(-32.891 -58.48)" fill="#a1e0ff"/>
        </g>
        <g id="Grupo_101980" data-name="Grupo 101980" transform="translate(0 64.789)">
          <path id="Trazado_158338" data-name="Trazado 158338" d="M89.733,83.028c1.015,4.44-1.528,9.074-7.688,12.478-10.622,5.875-27.911,5.881-38.6.006-7.132-3.919-8.014-7.447-7.858-14.469-5.322,7.527-2.385,16.441,5.591,21.138,11.678,6.877,30.608,6.84,42.227,0C92.192,97,94.292,89.391,89.733,83.028Z" transform="translate(-32.891 -77.397)" fill="#89d2f5"/>
          <path id="Trazado_158339" data-name="Trazado 158339" d="M89.82,80.072c.145,4.822-1.614,9.083-7.775,12.49-10.622,5.876-27.911,5.88-38.6,0-7.132-3.917-8.014-7.444-7.858-14.466-5.322,7.529-2.385,16.44,5.591,21.138,11.678,6.877,30.608,6.841,42.227,0C92.192,94.055,94.375,86.435,89.82,80.072Z" transform="translate(-32.891 -78.1)" fill="#a1e0ff"/>
        </g>
        <rect id="Rectángulo_35669" data-name="Rectángulo 35669" width="20.958" height="4.861" transform="translate(19.131 6.14)" fill="#0467d8"/>
        <g id="Grupo_101981" data-name="Grupo 101981" transform="translate(19.132)">
          <path id="Trazado_158340" data-name="Trazado 158340" d="M66.2,27.6c4.106,2.4,4.129,6.284.051,8.681a16.172,16.172,0,0,1-14.823,0c-4.1-2.4-4.125-6.289-.048-8.686A16.159,16.159,0,0,1,66.2,27.6Z" transform="translate(-48.334 -25.804)" fill="#298bed"/>
        </g>
      </g>
      <path id="Trazado_158348" data-name="Trazado 158348" d="M83.424,55.372S81.167,61.055,71.152,64.7c-3.339,1.218-3.339,1.218-5.385,6.557L59.407,81.645l1.729,23.282S80.553,105.5,85.4,89.419Z" transform="translate(8.107 7.063)" fill="#298bed"/>
      <path id="Trazado_158349" data-name="Trazado 158349" d="M68.243,71.541l-8.836,8.185S65.491,64.8,69.3,63.4Z" transform="translate(8.107 8.981)" fill="#0467d8"/>
      <g id="Grupo_101996" data-name="Grupo 101996" transform="translate(73.872 64.731)">
        <g id="Grupo_101992" data-name="Grupo 101992" transform="translate(7.669)">
          <g id="Grupo_101991" data-name="Grupo 101991">
            <path id="Trazado_158357" data-name="Trazado 158357" d="M73.994,60.42a12.043,12.043,0,0,1-.59-1.777c-.021-.372-.748-1.056-1.184-1.217s-1.654-.451-1.472.217a13.843,13.843,0,0,1,.465,1.378,2.94,2.94,0,0,0,.714,1.378l1.033.792Z" transform="translate(-70.73 -57.226)" fill="#efb185"/>
          </g>
        </g>
        <path id="Trazado_158358" data-name="Trazado 158358" d="M88.2,68.178l-7-2.584-7.482-6.51L71.691,60.7s7.194,8.862,8.715,9.8a32.435,32.435,0,0,0,5.8,2.07Z" transform="translate(-62.831 -56.782)" fill="#ccdcf8"/>
        <path id="Trazado_158359" data-name="Trazado 158359" d="M80.469,112.766s1.194,1.918-.468,2.38-1.166-.586-4.781.331-3.194-1.122-3.117-1.544,1.663-.995,2.448-1.2,3.954-.935,3.954-.935l1.928.356Z" transform="translate(-62.746 -44.191)" fill="#111114"/>
        <path id="Trazado_158360" data-name="Trazado 158360" d="M80.824,108.289s-1.383.208-1.044,1.008,1.926,2.011,2.132,2.521,1.49,2.063,1.938,2.138c.746.13,1.511.088,1.388-1.974S82.672,108.2,80.824,108.289Z" transform="translate(-60.912 -45.029)" fill="#111114"/>
        <path id="Trazado_158361" data-name="Trazado 158361" d="M86.562,79.917s2.692,3.994.943,10.73c0,0-3.014,10.167-2.475,12.166s2.374,6.8,1.166,10.912a47.732,47.732,0,0,0-1.217,4.851c-.093,1.078-1.887,1.181-2.148-.032-.565-2.572-.141-6.4-.533-8.31-1.276-6.234-1.933-9.485-1.528-13.724s-.087-13.847-.087-13.847S85.486,83.158,86.562,79.917Z" transform="translate(-60.691 -51.805)" fill="#efb185"/>
        <path id="Trazado_158362" data-name="Trazado 158362" d="M84.488,81.87S86.8,86.1,84.432,92.642c0,0-3.951,9.847-3.6,11.887s1.728,7,.142,10.973a34.389,34.389,0,0,0-1.655,4.715c-.19,1.672-1.883,1.884-2.059.655-.367-2.5.377-7.271.162-9.209-.688-6.324-1.048-9.625-.248-13.806s1.2-13.8,1.2-13.8S83.114,85.006,84.488,81.87Z" transform="translate(-61.629 -51.339)" fill="#efb185"/>
        <path id="Trazado_158363" data-name="Trazado 158363" d="M78.22,88.3h0s.131-5.525-1.078-7.007-3.1-4.85-1.488-6.736,2.566-2.83,2.566-2.83,7.541-7.407,10.1-5.254c0,0,2.293,1.752,1.349,7.811s-2.773,7-.54,10.231c1.732,2.5,2.448,3.2,1.3,12.607-1.053,8.663-.538,9.734-.538,9.734s-7.007,3.864-13.472.9c0,0-1.34-2.058,0-9.791C77.628,91,78.22,88.3,78.22,88.3Z" transform="translate(-62.033 -55.11)" fill="#e5eeff"/>
        <path id="Trazado_158364" data-name="Trazado 158364" d="M76.8,112.233a1.531,1.531,0,0,0,2.644.461s.264,2.218-1.319,1.93S75.9,112.693,76.8,112.233Z" transform="translate(-61.708 -44.086)" fill="#111114"/>
        <path id="Trazado_158365" data-name="Trazado 158365" d="M78.911,66.967l.367,3.7s3.17,1.728,5.411-1l-.37-3.717A12.869,12.869,0,0,1,78.911,66.967Z" transform="translate(-61.107 -55.142)" fill="#efb185"/>
        <path id="Trazado_158366" data-name="Trazado 158366" d="M81.492,58.074s-2.815-.026-3.879,2.069-1.971,5.19-.645,6.94c1.414,1.868.668,3,0,3.6S84.3,74.023,87.738,68.9C87.738,68.9,90,56.187,81.492,58.074Z" transform="translate(-61.729 -57.069)" fill="#231202"/>
        <g id="Grupo_101994" data-name="Grupo 101994" transform="translate(0 14.395)">
          <g id="Grupo_101993" data-name="Grupo 101993">
            <path id="Trazado_158367" data-name="Trazado 158367" d="M66.9,72.817a11.869,11.869,0,0,0-1.532-1.073,2.252,2.252,0,0,1-.826-1.485c-.025-.463.042-1.711.628-1.348s.784.665,1.188.841a2.921,2.921,0,0,1,1.115,1.077c.113.291.462,1.218.462,1.218Z" transform="translate(-64.54 -68.845)" fill="#efb185"/>
          </g>
        </g>
        <g id="Grupo_101995" data-name="Grupo 101995" transform="translate(2.012 16.933)">
          <path id="Trazado_158368" data-name="Trazado 158368" d="M83.122,73.569c-.243-.835-1.24-1.941-3.357-1s-7.993,3.642-7.993,3.642-3.954-4.833-4.5-5.321a1.255,1.255,0,0,1-1.108,1.428s2.349,6.546,4.366,7.055S84.124,77.008,83.122,73.569Z" transform="translate(-66.164 -70.894)" fill="#f9f9f9"/>
        </g>
      </g>
    </g>
  </g>
</svg>
