<svg xmlns="http://www.w3.org/2000/svg" xmlns:xlink="http://www.w3.org/1999/xlink" width="177.017" height="177.017" viewBox="0 0 177.017 177.017">
  <defs>
    <linearGradient id="linear-gradient" x1="0.059" y1="-0.237" x2="1.358" y2="1.933" gradientUnits="objectBoundingBox">
      <stop offset="0" stop-color="#ff5e93"/>
      <stop offset="0.52" stop-color="#df2a6a"/>
      <stop offset="1" stop-color="#c50048"/>
    </linearGradient>
  </defs>
  <g id="Grupo_102472" data-name="Grupo 102472" transform="translate(-1032.982 -896)">
    <circle id="Elipse_4582" data-name="Elipse 4582" cx="88.509" cy="88.509" r="88.509" transform="translate(1032.982 896)" fill="url(#linear-gradient)"/>
    <g id="Grupo_102450" data-name="Grupo 102450" transform="translate(1197.875 907.969) rotate(90)">
      <path id="Trazado_156338" data-name="Trazado 156338" d="M304.223,254.194a76.4,76.4,0,1,0-76.4,76.4A76.1,76.1,0,0,0,304.223,254.194Z" transform="translate(-152.339 -178.702)" fill="#fff"/>
    </g>
    <g id="Grupo_102452" data-name="Grupo 102452" transform="translate(1043.614 793.764)">
      <g id="Grupo_102066" data-name="Grupo 102066">
        <g id="Grupo_102060" data-name="Grupo 102060" opacity="0">
          <path id="Trazado_158424" data-name="Trazado 158424" d="M84.082,188.951A14.158,14.158,0,1,1,69.921,174.8,14.16,14.16,0,0,1,84.082,188.951Z" fill="#fff"/>
        </g>
        <g id="Grupo_102061" data-name="Grupo 102061" opacity="0.167">
          <path id="Trazado_158425" data-name="Trazado 158425" d="M81.873,189.1a11.948,11.948,0,1,1-11.952-11.947A11.951,11.951,0,0,1,81.873,189.1Z" fill="#fff" opacity="0.883"/>
        </g>
        <g id="Grupo_102062" data-name="Grupo 102062" opacity="0.333">
          <path id="Trazado_158426" data-name="Trazado 158426" d="M79.664,189.252a9.74,9.74,0,1,1-9.743-9.738A9.741,9.741,0,0,1,79.664,189.252Z" fill="#fff" opacity="0.767"/>
        </g>
        <g id="Grupo_102063" data-name="Grupo 102063" opacity="0.5">
          <path id="Trazado_158427" data-name="Trazado 158427" d="M77.455,189.4a7.531,7.531,0,1,1-7.534-7.53A7.532,7.532,0,0,1,77.455,189.4Z" fill="#fff" opacity="0.65"/>
        </g>
        <g id="Grupo_102064" data-name="Grupo 102064" opacity="0.667">
          <path id="Trazado_158428" data-name="Trazado 158428" d="M75.246,189.554a5.322,5.322,0,1,1-5.325-5.321A5.323,5.323,0,0,1,75.246,189.554Z" fill="#fff" opacity="0.533"/>
        </g>
        <g id="Grupo_102065" data-name="Grupo 102065" opacity="0.833">
          <path id="Trazado_158429" data-name="Trazado 158429" d="M73.037,189.705a3.114,3.114,0,1,1-3.116-3.113A3.113,3.113,0,0,1,73.037,189.705Z" fill="#fff" opacity="0.417"/>
        </g>
        <path id="Trazado_158430" data-name="Trazado 158430" d="M70.828,189.855a.9.9,0,1,1-.907-.9A.9.9,0,0,1,70.828,189.855Z" fill="#fff" opacity="0.3"/>
      </g>
      <path id="Trazado_158431" data-name="Trazado 158431" d="M33.368,225.725l36.585,19.043L121.792,213.3,87.077,192.979Z" opacity="0.1"/>
      <g id="Grupo_102088" data-name="Grupo 102088">
        <g id="Grupo_102067" data-name="Grupo 102067">
          <path id="Trazado_158432" data-name="Trazado 158432" d="M40.72,167.359c-2.51,1.451-2.524,3.8-.032,5.248l23.243,13.509a9.982,9.982,0,0,0,9.06,0l37.863-21.861c2.508-1.447,2.526-3.8.031-5.246L87.643,145.5a10,10,0,0,0-9.058,0Z" fill="#0ecfd8"/>
        </g>
        <path id="Trazado_158433" data-name="Trazado 158433" d="M108.854,173.8l-21.9-12.726a9.414,9.414,0,0,0-8.533,0l-35.672,20.6c-1.617.933-2.343,2.274-1.761,3.458l1.058,8.174a9.686,9.686,0,0,0,2.044,1.83l20.988,12.2a9.014,9.014,0,0,0,8.183,0l34.191-19.74a7.866,7.866,0,0,0,2.032-2.012l1.122-8.417S110.525,174.77,108.854,173.8Z" fill="#7dd4f2" opacity="0.2"/>
        <path id="Trazado_158434" data-name="Trazado 158434" d="M111.574,160.05l-24.251-8.073a9.718,9.718,0,0,0-8.811,0L40.25,169.285c-1.669.964-.632,7.182-.632,7.182l1.335,8.788a9.959,9.959,0,0,0,2.11,1.889l21.672,12.6a9.31,9.31,0,0,0,8.449,0l35.305-20.382a8.1,8.1,0,0,0,2.1-2.079l1.157-8.69S113.3,161.053,111.574,160.05Z" fill="#7dd4f2" opacity="0.5"/>
        <rect id="Rect치ngulo_35683" data-name="Rect치ngulo 35683" width="3.127" height="5.297" transform="translate(112.746 155.815)" fill="#0467d8"/>
        <g id="Grupo_102068" data-name="Grupo 102068" opacity="0.4">
          <path id="Trazado_158435" data-name="Trazado 158435" d="M46.659,212.26c-2.089,1.206-2.1,3.162-.027,4.365l19.335,11.237a8.308,8.308,0,0,0,7.538,0L105,209.676c2.085-1.2,2.1-3.159.025-4.365L85.69,194.074a8.317,8.317,0,0,0-7.535,0Z" fill="#7dd4f2"/>
        </g>
        <g id="Grupo_102077" data-name="Grupo 102077">
          <path id="Trazado_158436" data-name="Trazado 158436" d="M85.9,182.511c-.006.069-.012.137-.024.206-.01.052-.025.1-.038.153a2.09,2.09,0,0,1-.059.2c-.016.049-.041.1-.061.148-.03.068-.06.137-.1.205-.025.047-.057.094-.084.141-.047.075-.1.149-.15.223s-.107.141-.168.21c-.016.016-.029.033-.044.05a3.319,3.319,0,0,1-.267.262c-.062.057-.132.111-.2.166s-.113.093-.176.138-.151.1-.227.153-.158.106-.245.157c-.192.111-.395.21-.6.305l-.184.076c-.162.069-.329.131-.5.19-.062.022-.123.045-.186.064-.107.034-.216.063-.324.091-.084.025-.169.049-.254.071-.117.028-.236.05-.355.074-.079.016-.157.035-.238.048-.238.044-.48.077-.725.1-.078.008-.156.013-.234.02-.14.012-.281.021-.423.028-.094,0-.186.006-.28.008-.116,0-.233,0-.349,0-.095,0-.193,0-.291-.008s-.214-.01-.322-.017-.2-.015-.3-.026-.211-.02-.314-.034-.193-.025-.289-.04c-.114-.019-.225-.038-.337-.059l-.264-.054c-.133-.03-.266-.062-.4-.1-.074-.018-.146-.036-.219-.057-.235-.069-.464-.146-.685-.232-.108-.042-.215-.089-.318-.135-.057-.025-.115-.049-.168-.074-.161-.076-.319-.157-.469-.244a3.191,3.191,0,0,1-1.884-2.631L73.1,201.2a3.193,3.193,0,0,0,1.883,2.632c.15.087.308.168.468.245l.16.068c.1.044.193.088.292.128a.378.378,0,0,1,.036.012c.221.086.45.162.684.232.019,0,.036.012.056.017.052.016.111.026.165.041.13.034.26.068.394.1l.107.026.156.028c.114.021.227.041.343.059l.133.023c.046.007.1.009.144.016.109.014.218.026.328.037.05,0,.1.011.148.016s.092,0,.138.008c.111.007.218.013.328.016.054,0,.109.008.162.01s.087,0,.128,0c.12,0,.237,0,.354,0h.17c.036,0,.066-.006.1-.008.146,0,.293-.015.44-.028.055-.006.112-.006.167-.011a.481.481,0,0,1,.053-.007c.243-.027.487-.06.726-.1.012,0,.023,0,.034-.005.07-.013.137-.03.205-.043.118-.024.239-.048.355-.077.083-.02.163-.043.244-.066.113-.03.225-.061.336-.094l.068-.021c.04-.012.075-.029.114-.043.17-.057.338-.121.5-.189.06-.025.123-.051.183-.078.206-.093.409-.194.6-.3.024-.017.051-.031.078-.047.059-.035.109-.074.166-.111.077-.05.155-.1.228-.151s.121-.1.179-.143.135-.106.2-.16c.012-.012.027-.022.039-.034.082-.075.158-.152.228-.23.016-.016.03-.035.045-.052.042-.047.085-.094.122-.143.018-.021.028-.043.044-.065.055-.072.1-.147.149-.221.021-.032.046-.063.065-.1.009-.016.014-.032.023-.05.035-.064.063-.13.091-.195a1.052,1.052,0,0,0,.055-.118.21.21,0,0,0,.011-.039,1.77,1.77,0,0,0,.054-.189c.013-.044.029-.087.038-.132,0-.011,0-.023,0-.035.012-.066.018-.132.025-.2,0-.044.011-.089.012-.133,0-.017,0-.037,0-.056l.055-18.908C85.917,182.389,85.907,182.449,85.9,182.511Z" fill="#dae5f8"/>
          <path id="Trazado_158437" data-name="Trazado 158437" d="M84.252,203.674c.077-.05.155-.1.228-.151s.121-.1.179-.143.135-.106.2-.16c.012-.012.027-.022.039-.034.082-.075.158-.152.228-.23.016-.016.03-.035.045-.052.042-.047.085-.094.122-.143.018-.021.028-.043.044-.065.055-.072.1-.147.149-.221.021-.032.046-.063.065-.1.009-.016.014-.032.023-.05.035-.064.063-.13.091-.195a1.052,1.052,0,0,0,.055-.118.21.21,0,0,0,.011-.039,1.77,1.77,0,0,0,.054-.189c.013-.044.029-.087.038-.132,0-.011,0-.023,0-.035.012-.066.018-.132.025-.2,0-.044.011-.089.012-.133,0-.017,0-.037,0-.056l.046-15.836-1.6-.631c-.081.052-.158.106-.245.157-.192.111-.395.21-.6.305l-.184.076c-.162.069-.329.131-.5.19-.062.022-.123.045-.186.064-.107.034-.216.063-.324.091-.084.025-.169.049-.254.071-.117.028-.236.05-.355.074-.079.016-.157.035-.238.048-.238.044-.48.077-.725.1-.078.008-.156.013-.234.02-.021,0-.041,0-.062.005l-7.26,2.233,0,2.082c1.664,1.582,4.893,3.59,10.036,2.6,0,0,1.018-.232.861,2.011-.1,1.518-.059,6.117-.019,8.931l.074-.044C84.145,203.75,84.195,203.711,84.252,203.674Z" fill="#c0d3ed"/>
          <g id="Grupo_102069" data-name="Grupo 102069">
            <path id="Trazado_158438" data-name="Trazado 158438" d="M84.034,182.943c2.5,1.444,2.511,3.784.027,5.228a9.942,9.942,0,0,1-9.022,0c-2.5-1.444-2.514-3.782-.029-5.225A9.944,9.944,0,0,1,84.034,182.943Z" fill="#fffffe"/>
          </g>
          <g id="Grupo_102070" data-name="Grupo 102070">
            <path id="Trazado_158439" data-name="Trazado 158439" d="M84.034,182.943c2.5,1.444,2.511,3.784.027,5.228a9.942,9.942,0,0,1-9.022,0c-2.5-1.444-2.514-3.782-.029-5.225A9.944,9.944,0,0,1,84.034,182.943Z" fill="#fffffe"/>
          </g>
          <g id="Grupo_102071" data-name="Grupo 102071">
            <path id="Trazado_158440" data-name="Trazado 158440" d="M85.027,183.182c3.051,1.762,3.065,4.621.033,6.383a12.141,12.141,0,0,1-11.014,0c-3.053-1.762-3.069-4.619-.036-6.38A12.141,12.141,0,0,1,85.027,183.182Z" fill="#dae8fa"/>
          </g>
          <g id="Grupo_102072" data-name="Grupo 102072">
            <path id="Trazado_158441" data-name="Trazado 158441" d="M85.027,181.791c3.051,1.761,3.065,4.619.033,6.381a12.132,12.132,0,0,1-11.014,0c-3.053-1.763-3.069-4.618-.036-6.38A12.138,12.138,0,0,1,85.027,181.791Z" fill="#fffffe"/>
          </g>
          <path id="Trazado_158442" data-name="Trazado 158442" d="M85.588,185.558a2.11,2.11,0,0,0,0-.9V178.44H73.429v7.118h.059a3.372,3.372,0,0,0,1.743,2.043,9.523,9.523,0,0,0,8.635,0,3.317,3.317,0,0,0,1.722-2.043Z" fill="#dae5f7"/>
          <path id="Trazado_158443" data-name="Trazado 158443" d="M85.588,185.558h0a2.11,2.11,0,0,0,0-.9V178.44H73.429v3.521c1.4,1.143,4.073,2.347,8.644,1.184,0,0,3.844-.819,1.5,1.622-1.334,1.384-.58,2.7-1.165,3.46a7.084,7.084,0,0,0,1.462-.626A3.317,3.317,0,0,0,85.588,185.558Z" fill="#c0d3ed"/>
          <g id="Grupo_102073" data-name="Grupo 102073">
            <path id="Trazado_158444" data-name="Trazado 158444" d="M83.841,175.939c2.392,1.381,2.4,3.621.025,5a9.51,9.51,0,0,1-8.635,0c-2.393-1.381-2.405-3.62-.028-5A9.523,9.523,0,0,1,83.841,175.939Z" fill="#fffffe"/>
          </g>
          <g id="Grupo_102074" data-name="Grupo 102074">
            <path id="Trazado_158445" data-name="Trazado 158445" d="M82.1,176.542c1.422.823,1.428,2.156.014,2.978a5.665,5.665,0,0,1-5.137,0c-1.424-.822-1.431-2.155-.017-2.976A5.668,5.668,0,0,1,82.1,176.542Z" fill="#dae5f7"/>
          </g>
          <rect id="Rect치ngulo_35684" data-name="Rect치ngulo 35684" width="7.233" height="4.234" transform="translate(75.902 174.07)" fill="#dae5f7"/>
          <g id="Grupo_102075" data-name="Grupo 102075">
            <path id="Trazado_158446" data-name="Trazado 158446" d="M82.1,172.581c1.422.822,1.428,2.155.014,2.978a5.665,5.665,0,0,1-5.137,0c-1.424-.823-1.431-2.155-.017-2.976A5.665,5.665,0,0,1,82.1,172.581Z" fill="#fffffe"/>
          </g>
          <g id="Grupo_102076" data-name="Grupo 102076">
            <path id="Trazado_158447" data-name="Trazado 158447" d="M81.326,173.03a1.1,1.1,0,0,1,.01,2.079,3.949,3.949,0,0,1-3.589,0,1.1,1.1,0,0,1-.012-2.079A3.959,3.959,0,0,1,81.326,173.03Z" fill="#c7d7f2"/>
          </g>
        </g>
        <path id="Trazado_158448" data-name="Trazado 158448" d="M112.5,162.916c.605-1.247.072-2.641-1.617-3.62L87.645,145.788a9.992,9.992,0,0,0-9.059,0L40.723,167.648c-1.573.908-2.165,2.167-1.778,3.338l7.093,51.006c0,.009,0,.018,0,.028h0a2.735,2.735,0,0,0,1.474,1.815l18.722,10.88a7.433,7.433,0,0,0,3.721.872l0,0,0,0a7.447,7.447,0,0,0,3.571-.872l30.5-17.61a2.708,2.708,0,0,0,1.506-1.915h0Z" fill="#defdff" opacity="0.5"/>
        <g id="Grupo_102078" data-name="Grupo 102078">
          <path id="Trazado_158449" data-name="Trazado 158449" d="M37.756,166.918c-2.724,1.572-2.738,4.122-.037,5.692l25.209,14.651a10.828,10.828,0,0,0,9.827,0l41.065-23.708c2.719-1.57,2.739-4.118.032-5.692L88.644,143.208a10.833,10.833,0,0,0-9.822,0Z" fill="#0467d8"/>
        </g>
        <path id="Trazado_158450" data-name="Trazado 158450" d="M35.724,165.234v4.8l3.1-1.57Z" fill="#0467d8"/>
        <g id="Grupo_102079" data-name="Grupo 102079">
          <path id="Trazado_158451" data-name="Trazado 158451" d="M37.756,162.122c-2.724,1.572-2.738,4.123-.037,5.693l25.209,14.651a10.831,10.831,0,0,0,9.827,0l41.065-23.709c2.719-1.569,2.739-4.118.032-5.689l-25.208-14.65a10.83,10.83,0,0,0-9.822,0Z" fill="#298bed"/>
        </g>
        <g id="Grupo_102080" data-name="Grupo 102080">
          <path id="Trazado_158452" data-name="Trazado 158452" d="M54.067,159.426c-1.555.9-1.563,2.353-.022,3.251l14.4,8.366a6.184,6.184,0,0,0,5.613,0L97.508,157.5c1.553-.9,1.564-2.352.019-3.249l-14.4-8.366a6.188,6.188,0,0,0-5.609,0Z" fill="#0467d8"/>
        </g>
        <g id="Grupo_102082" data-name="Grupo 102082">
          <path id="Trazado_158453" data-name="Trazado 158453" d="M64.907,158.024c.006.018.01.036.015.052a1.846,1.846,0,0,0,.214.416.707.707,0,0,0,.048.073,2.481,2.481,0,0,0,.356.393,3.35,3.35,0,0,0,.3.224c.1.068.177.141.288.206a5.112,5.112,0,0,0,.879.386c.112.04.229.073.346.106.144.04.288.078.435.108.185.038.367.072.556.1.041.005.082.013.124.017.25.027.5.041.759.043h.11a7.312,7.312,0,0,0,.742-.042c.039,0,.078-.008.117-.013a7.015,7.015,0,0,0,.717-.123l.126-.031a6.04,6.04,0,0,0,.62-.189c.037-.013.075-.022.111-.037a5.032,5.032,0,0,0,.682-.321l13.186-7.614a2.238,2.238,0,0,0,1.322-1.844l.012,4.134a2.238,2.238,0,0,1-1.323,1.844L72.468,163.52a4.84,4.84,0,0,1-.648.311l-.035.012c-.036.013-.073.023-.109.036-.132.049-.263.1-.4.136-.073.02-.148.036-.222.054l-.126.032c-.04.008-.078.019-.118.028-.147.03-.294.056-.444.078l-.162.017c-.033.005-.069.008-.1.012-.057.006-.112.014-.169.019-.146.013-.292.019-.44.023-.045,0-.091,0-.137,0h-.119c-.067,0-.134,0-.2,0-.165-.006-.33-.016-.494-.033l-.055-.008-.138-.018c-.127-.016-.253-.031-.377-.054-.056-.01-.108-.029-.161-.04-.154-.031-.3-.07-.451-.111-.077-.023-.16-.033-.235-.059-.036-.012-.064-.032-.1-.044a4.85,4.85,0,0,1-.882-.389l-.054-.031c-.083-.05-.143-.108-.218-.161a3.714,3.714,0,0,1-.319-.236c-.008-.008-.021-.015-.03-.023a2.569,2.569,0,0,1-.277-.3c-.017-.022-.03-.046-.047-.07s-.034-.05-.051-.074c-.026-.04-.058-.081-.081-.122a2.019,2.019,0,0,1-.121-.254.247.247,0,0,0-.01-.039c0-.017-.009-.033-.014-.051a1.236,1.236,0,0,1-.047-.162,1.333,1.333,0,0,1-.029-.258c0-.013,0-.025,0-.04l-.012-4.133A1.53,1.53,0,0,0,64.907,158.024Z" fill="#298bed"/>
          <g id="Grupo_102081" data-name="Grupo 102081">
            <path id="Trazado_158454" data-name="Trazado 158454" d="M66.15,155.723c-1.755,1.013-1.757,2.654-.019,3.665a6.972,6.972,0,0,0,6.324,0l13.186-7.614c1.754-1.013,1.763-2.65.02-3.663a6.976,6.976,0,0,0-6.326,0Z" fill="#0359ba"/>
          </g>
        </g>
        <path id="Trazado_158455" data-name="Trazado 158455" d="M106.508,207.942s-.044.883-1.507,1.734c-2.831,1.646-3.894,2.234-3.894,2.234L85.335,201.716a7.989,7.989,0,0,0-7.295,0L49.681,218.439s-2.181-1.334-2.916-1.712a5.189,5.189,0,0,1-1.68-1.588l.956,6.881.034-.015a2.775,2.775,0,0,0,1.439,1.753l18.722,10.981a7.973,7.973,0,0,0,7.3,0l30.5-17.772a2.8,2.8,0,0,0,1.464-1.792l.042.017Z" fill="#7dd4f2" opacity="0.5"/>
        <g id="Grupo_102087" data-name="Grupo 102087">
          <g id="Grupo_102086" data-name="Grupo 102086" style="isolation: isolate">
            <g id="Grupo_102083" data-name="Grupo 102083">
              <path id="Trazado_158456" data-name="Trazado 158456" d="M40.925,219.644l-5.855-3.4,4.842-27.808,5.854,3.4Z" fill="#298bed"/>
            </g>
            <g id="Grupo_102084" data-name="Grupo 102084">
              <path id="Trazado_158457" data-name="Trazado 158457" d="M45.766,191.835l-5.854-3.4L51.22,181.86l5.855,3.4Z" fill="#298bed"/>
            </g>
            <g id="Grupo_102085" data-name="Grupo 102085">
              <path id="Trazado_158458" data-name="Trazado 158458" d="M57.075,185.263l.021,7.126-7.739,4.467L45.5,219.017l-4.572.627,4.841-27.809Z" fill="#0467d8"/>
            </g>
          </g>
        </g>
        <path id="Trazado_158459" data-name="Trazado 158459" d="M92.945,142.031s11.28-1.886,13.629,0c1.582,1.271,1.886,8.891,1.886,8.891Z" fill="#298bed"/>
        <path id="Trazado_158460" data-name="Trazado 158460" d="M97.383,143.224s6.466-1.585,7.734-.064.76,5.071.76,5.071Z" fill="#0467d8"/>
      </g>
      <g id="Grupo_102179" data-name="Grupo 102179">
        <g id="Grupo_102159" data-name="Grupo 102159">
          <g id="Grupo_102158" data-name="Grupo 102158" style="isolation: isolate">
            <g id="Grupo_102089" data-name="Grupo 102089">
              <path id="Trazado_158461" data-name="Trazado 158461" d="M120.348,225.814l-1.056.035.564,1.548,1.056-.033Z" fill="#a2c4c5"/>
            </g>
            <g id="Grupo_102090" data-name="Grupo 102090">
              <path id="Trazado_158462" data-name="Trazado 158462" d="M120.912,227.363l-1.056.033-.711.41,1.056-.034Z" fill="#9fc0c1"/>
            </g>
            <g id="Grupo_102091" data-name="Grupo 102091">
              <path id="Trazado_158463" data-name="Trazado 158463" d="M120.2,227.773l-1.056.034.693,1.905,1.059-.035Z" fill="#147f91"/>
            </g>
            <g id="Grupo_102092" data-name="Grupo 102092">
              <path id="Trazado_158464" data-name="Trazado 158464" d="M120.348,225.814l-1.056.035-.71.409,1.055-.033Z" fill="#9fc0c1"/>
            </g>
            <g id="Grupo_102093" data-name="Grupo 102093">
              <path id="Trazado_158465" data-name="Trazado 158465" d="M117.241,217.282l-1.056.035.566,1.555,1.057-.034Z" fill="#a2c4c5"/>
            </g>
            <g id="Grupo_102094" data-name="Grupo 102094">
              <path id="Trazado_158466" data-name="Trazado 158466" d="M117.808,218.838l-1.057.034-.71.411,1.056-.035Z" fill="#9fc0c1"/>
            </g>
            <g id="Grupo_102095" data-name="Grupo 102095">
              <path id="Trazado_158467" data-name="Trazado 158467" d="M117.1,219.248l-1.056.035,2.541,6.975,1.055-.033Z" fill="#147f91"/>
            </g>
            <g id="Grupo_102096" data-name="Grupo 102096">
              <path id="Trazado_158468" data-name="Trazado 158468" d="M117.241,217.282l-1.056.035-.713.41,1.058-.034Z" fill="#9fc0c1"/>
            </g>
            <g id="Grupo_102097" data-name="Grupo 102097">
              <path id="Trazado_158469" data-name="Trazado 158469" d="M113.572,207.21l-1.059.034.566,1.549,1.057-.035Z" fill="#a2c4c5"/>
            </g>
            <g id="Grupo_102098" data-name="Grupo 102098">
              <path id="Trazado_158470" data-name="Trazado 158470" d="M113.426,209.169l-1.056.034,3.1,8.524,1.058-.034Z" fill="#147f91"/>
            </g>
            <g id="Grupo_102099" data-name="Grupo 102099">
              <path id="Trazado_158471" data-name="Trazado 158471" d="M114.137,208.758l-1.057.035-.71.41,1.056-.034Z" fill="#9fc0c1"/>
            </g>
            <g id="Grupo_102100" data-name="Grupo 102100">
              <path id="Trazado_158472" data-name="Trazado 158472" d="M113.572,207.21l-1.059.034-.708.41,1.057-.033Z" fill="#9fc0c1"/>
            </g>
            <g id="Grupo_102101" data-name="Grupo 102101">
              <path id="Trazado_158473" data-name="Trazado 158473" d="M108.771,194.033l-1.054.034.562,1.549,1.059-.035Z" fill="#a2c4c5"/>
            </g>
            <g id="Grupo_102102" data-name="Grupo 102102">
              <path id="Trazado_158474" data-name="Trazado 158474" d="M108.628,195.992l-1.059.033,4.236,11.629,1.057-.033Z" fill="#147f91"/>
            </g>
            <g id="Grupo_102103" data-name="Grupo 102103">
              <path id="Trazado_158475" data-name="Trazado 158475" d="M109.338,195.581l-1.059.035-.71.409,1.059-.033Z" fill="#9fc0c1"/>
            </g>
            <g id="Grupo_102104" data-name="Grupo 102104">
              <path id="Trazado_158476" data-name="Trazado 158476" d="M119.637,226.225l-1.055.033-10.033,5.792,1.056-.033Z" fill="#147f91"/>
            </g>
            <g id="Grupo_102105" data-name="Grupo 102105">
              <path id="Trazado_158477" data-name="Trazado 158477" d="M110.171,233.564l-1.059.034-.71.411,1.056-.034Z" fill="#9fc0c1"/>
            </g>
            <g id="Grupo_102106" data-name="Grupo 102106">
              <path id="Trazado_158478" data-name="Trazado 158478" d="M108.771,194.033l-1.054.034-.713.41,1.058-.034Z" fill="#9fc0c1"/>
            </g>
            <g id="Grupo_102107" data-name="Grupo 102107">
              <path id="Trazado_158479" data-name="Trazado 158479" d="M108.894,232.427l.564,1.549.713-.411,10.03-5.792.711-.409-.564-1.55-.711.411L109.6,232.017Z" fill="#29b2dc"/>
            </g>
            <g id="Grupo_102108" data-name="Grupo 102108">
              <path id="Trazado_158480" data-name="Trazado 158480" d="M108.894,232.427l-1.056.033.564,1.55,1.056-.034Z" fill="#a2c4c5"/>
            </g>
            <g id="Grupo_102109" data-name="Grupo 102109">
              <path id="Trazado_158481" data-name="Trazado 158481" d="M109.6,232.017l-1.056.033-.711.41,1.056-.033Z" fill="#9fc0c1"/>
            </g>
            <g id="Grupo_102110" data-name="Grupo 102110">
              <path id="Trazado_158482" data-name="Trazado 158482" d="M116.53,217.693l-1.058.034-10.031,5.793,1.056-.035Z" fill="#147f91"/>
            </g>
            <g id="Grupo_102111" data-name="Grupo 102111">
              <path id="Trazado_158483" data-name="Trazado 158483" d="M105.1,183.961l-1.054.032.562,1.549,1.056-.033Z" fill="#a2c4c5"/>
            </g>
            <g id="Grupo_102112" data-name="Grupo 102112">
              <path id="Trazado_158484" data-name="Trazado 158484" d="M107.064,225.041l-1.057.034-.71.409,1.055-.034Z" fill="#9fc0c1"/>
            </g>
            <g id="Grupo_102113" data-name="Grupo 102113">
              <path id="Trazado_158485" data-name="Trazado 158485" d="M105.666,185.509l-1.056.033-.71.41,1.056-.032Z" fill="#9fc0c1"/>
            </g>
            <g id="Grupo_102114" data-name="Grupo 102114">
              <path id="Trazado_158486" data-name="Trazado 158486" d="M104.956,185.92l-1.056.032,3.1,8.525,1.058-.034Z" fill="#147f91"/>
            </g>
            <g id="Grupo_102115" data-name="Grupo 102115">
              <path id="Trazado_158487" data-name="Trazado 158487" d="M105.787,223.9l-1.057.033.567,1.555,1.055-.034Z" fill="#a2c4c5"/>
            </g>
            <g id="Grupo_102116" data-name="Grupo 102116">
              <path id="Trazado_158488" data-name="Trazado 158488" d="M105.787,223.9l.565,1.554.712-.409,10.032-5.793.711-.41-.566-1.556-.711.411L106.5,223.485Z" fill="#29b2dc"/>
            </g>
            <g id="Grupo_102117" data-name="Grupo 102117">
              <path id="Trazado_158489" data-name="Trazado 158489" d="M106.5,223.485l-1.056.035-.711.409,1.057-.033Z" fill="#9fc0c1"/>
            </g>
            <g id="Grupo_102118" data-name="Grupo 102118">
              <path id="Trazado_158490" data-name="Trazado 158490" d="M105.1,183.961l-1.054.032-.711.411,1.054-.034Z" fill="#9fc0c1"/>
            </g>
            <g id="Grupo_102119" data-name="Grupo 102119">
              <path id="Trazado_158491" data-name="Trazado 158491" d="M112.862,207.621l-1.057.033-10.032,5.791,1.056-.032Z" fill="#147f91"/>
            </g>
            <g id="Grupo_102120" data-name="Grupo 102120">
              <path id="Trazado_158492" data-name="Trazado 158492" d="M103.393,214.961l-1.056.033-.71.41,1.056-.033Z" fill="#9fc0c1"/>
            </g>
            <g id="Grupo_102121" data-name="Grupo 102121">
              <path id="Trazado_158493" data-name="Trazado 158493" d="M101.149,173.105l-1.056.035.564,1.548,1.056-.033Z" fill="#a2c4c5"/>
            </g>
            <g id="Grupo_102122" data-name="Grupo 102122">
              <path id="Trazado_158494" data-name="Trazado 158494" d="M101.714,174.655l-1.056.033-.711.411,1.056-.035Z" fill="#9fc0c1"/>
            </g>
            <g id="Grupo_102123" data-name="Grupo 102123">
              <path id="Trazado_158495" data-name="Trazado 158495" d="M101,175.064l-1.056.035,3.391,9.3,1.054-.034Z" fill="#147f91"/>
            </g>
            <g id="Grupo_102124" data-name="Grupo 102124">
              <path id="Trazado_158496" data-name="Trazado 158496" d="M102.118,213.822l-1.057.034.565,1.548,1.056-.033Z" fill="#a2c4c5"/>
            </g>
            <g id="Grupo_102125" data-name="Grupo 102125">
              <path id="Trazado_158497" data-name="Trazado 158497" d="M102.829,213.413l-1.056.032-.712.411,1.057-.034Z" fill="#9fc0c1"/>
            </g>
            <g id="Grupo_102126" data-name="Grupo 102126">
              <path id="Trazado_158498" data-name="Trazado 158498" d="M102.118,213.822l.564,1.549.71-.41,10.033-5.792.711-.411-.564-1.548-.71.411-10.033,5.792Z" fill="#29b2dc"/>
            </g>
            <g id="Grupo_102127" data-name="Grupo 102127">
              <path id="Trazado_158499" data-name="Trazado 158499" d="M101.149,173.105l-1.056.035-.71.409,1.056-.033Z" fill="#9fc0c1"/>
            </g>
            <g id="Grupo_102128" data-name="Grupo 102128">
              <path id="Trazado_158500" data-name="Trazado 158500" d="M97.48,163.033l-1.056.034.565,1.549,1.056-.035Z" fill="#a2c4c5"/>
            </g>
            <g id="Grupo_102129" data-name="Grupo 102129">
              <path id="Trazado_158501" data-name="Trazado 158501" d="M97.334,164.992l-1.056.033,3.105,8.524,1.056-.033Z" fill="#147f91"/>
            </g>
            <g id="Grupo_102130" data-name="Grupo 102130">
              <path id="Trazado_158502" data-name="Trazado 158502" d="M98.045,164.581l-1.056.035-.711.409,1.056-.033Z" fill="#9fc0c1"/>
            </g>
            <g id="Grupo_102131" data-name="Grupo 102131">
              <path id="Trazado_158503" data-name="Trazado 158503" d="M108.063,194.443l-1.058.034L96.974,200.27l1.056-.034Z" fill="#147f91"/>
            </g>
            <g id="Grupo_102132" data-name="Grupo 102132">
              <path id="Trazado_158504" data-name="Trazado 158504" d="M97.48,163.033l-1.056.034-.71.409,1.056-.034Z" fill="#9fc0c1"/>
            </g>
            <g id="Grupo_102133" data-name="Grupo 102133">
              <path id="Trazado_158505" data-name="Trazado 158505" d="M98.594,201.783l-1.056.035-.711.41,1.057-.034Z" fill="#9fc0c1"/>
            </g>
            <g id="Grupo_102134" data-name="Grupo 102134">
              <path id="Trazado_158506" data-name="Trazado 158506" d="M98.029,200.235l-1.056.034-.71.41,1.056-.034Z" fill="#9fc0c1"/>
            </g>
            <g id="Grupo_102135" data-name="Grupo 102135">
              <path id="Trazado_158507" data-name="Trazado 158507" d="M97.319,200.645l.564,1.549.71-.411,10.034-5.791.71-.411-.566-1.548-.709.41-10.033,5.792Z" fill="#29b2dc"/>
            </g>
            <g id="Grupo_102136" data-name="Grupo 102136">
              <path id="Trazado_158508" data-name="Trazado 158508" d="M97.319,200.645l-1.056.034.563,1.549,1.057-.034Z" fill="#a2c4c5"/>
            </g>
            <g id="Grupo_102137" data-name="Grupo 102137">
              <path id="Trazado_158509" data-name="Trazado 158509" d="M95.807,160.792l-1.059.034.967,2.65,1.056-.034Z" fill="#147f91"/>
            </g>
            <g id="Grupo_102138" data-name="Grupo 102138">
              <path id="Trazado_158510" data-name="Trazado 158510" d="M97.228,159.972l-1.057.034-1.423.82,1.059-.034Z" fill="#29b2dc"/>
            </g>
            <g id="Grupo_102139" data-name="Grupo 102139">
              <path id="Trazado_158511" data-name="Trazado 158511" d="M95.807,160.792l.964,2.65.71-.409.564,1.548-.711.411,3.105,8.524.71-.411.564,1.55-.711.409,3.389,9.306.711-.409.563,1.548-.71.411,3.106,8.523.709-.41.566,1.548-.71.411,4.234,11.629.71-.411.564,1.548-.711.411,3.1,8.525.711-.411.566,1.556-.711.41,2.54,6.977.711-.411.564,1.55-.711.409.7,1.9,1.418-.819L97.228,159.972Z" fill="#29b2dc"/>
            </g>
            <g id="Grupo_102140" data-name="Grupo 102140">
              <path id="Trazado_158512" data-name="Trazado 158512" d="M104.392,184.37l-1.054.034L93.306,190.2l1.055-.033Z" fill="#147f91"/>
            </g>
            <g id="Grupo_102141" data-name="Grupo 102141">
              <path id="Trazado_158513" data-name="Trazado 158513" d="M94.926,191.711l-1.057.034-.71.41,1.056-.033Z" fill="#9fc0c1"/>
            </g>
            <g id="Grupo_102142" data-name="Grupo 102142">
              <path id="Trazado_158514" data-name="Trazado 158514" d="M93.65,190.571l.564,1.551.711-.411,10.03-5.791.71-.411-.563-1.548-.711.409L94.36,190.163Z" fill="#29b2dc"/>
            </g>
            <g id="Grupo_102143" data-name="Grupo 102143">
              <path id="Trazado_158515" data-name="Trazado 158515" d="M93.65,190.571l-1.058.035.566,1.549,1.056-.033Z" fill="#a2c4c5"/>
            </g>
            <g id="Grupo_102144" data-name="Grupo 102144">
              <path id="Trazado_158516" data-name="Trazado 158516" d="M94.36,190.163l-1.055.033-.713.41,1.058-.035Z" fill="#9fc0c1"/>
            </g>
            <g id="Grupo_102145" data-name="Grupo 102145">
              <path id="Trazado_158517" data-name="Trazado 158517" d="M100.439,173.517l-1.056.033-10.031,5.793,1.056-.035Z" fill="#147f91"/>
            </g>
            <g id="Grupo_102146" data-name="Grupo 102146">
              <path id="Trazado_158518" data-name="Trazado 158518" d="M90.973,180.855l-1.059.035-.711.411,1.059-.035Z" fill="#9fc0c1"/>
            </g>
            <g id="Grupo_102147" data-name="Grupo 102147">
              <path id="Trazado_158519" data-name="Trazado 158519" d="M90.408,179.308l-1.056.035-.711.41,1.056-.034Z" fill="#9fc0c1"/>
            </g>
            <g id="Grupo_102148" data-name="Grupo 102148">
              <path id="Trazado_158520" data-name="Trazado 158520" d="M89.7,179.719l.564,1.548.711-.411L101,175.064l.711-.409-.564-1.55-.71.411-10.031,5.791Z" fill="#29b2dc"/>
            </g>
            <g id="Grupo_102149" data-name="Grupo 102149">
              <path id="Trazado_158521" data-name="Trazado 158521" d="M89.7,179.719l-1.056.034L89.2,181.3l1.059-.035Z" fill="#a2c4c5"/>
            </g>
            <g id="Grupo_102150" data-name="Grupo 102150">
              <path id="Trazado_158522" data-name="Trazado 158522" d="M96.771,163.442l-1.056.034-10.033,5.792,1.059-.033Z" fill="#147f91"/>
            </g>
            <g id="Grupo_102151" data-name="Grupo 102151">
              <path id="Trazado_158523" data-name="Trazado 158523" d="M87.3,170.783l-1.058.035-.711.41,1.056-.034Z" fill="#9fc0c1"/>
            </g>
            <g id="Grupo_102152" data-name="Grupo 102152">
              <path id="Trazado_158524" data-name="Trazado 158524" d="M86.027,169.646l-1.057.033.564,1.549,1.056-.034Z" fill="#a2c4c5"/>
            </g>
            <g id="Grupo_102153" data-name="Grupo 102153">
              <path id="Trazado_158525" data-name="Trazado 158525" d="M86.74,169.235l-1.059.033-.711.411,1.057-.033Z" fill="#9fc0c1"/>
            </g>
            <g id="Grupo_102154" data-name="Grupo 102154">
              <path id="Trazado_158526" data-name="Trazado 158526" d="M86.027,169.646l.563,1.548.713-.411,10.03-5.791.711-.411-.564-1.548-.71.409-10.03,5.793Z" fill="#29b2dc"/>
            </g>
            <g id="Grupo_102155" data-name="Grupo 102155">
              <path id="Trazado_158527" data-name="Trazado 158527" d="M84.353,167.405l25.09,68.886,1.421-.82-.692-1.906-.713.411-.564-1.549.711-.41-2.54-6.976-.712.409-.565-1.554.71-.411-3.1-8.524-.71.41-.564-1.549.711-.409-4.235-11.63-.71.411-.564-1.549.71-.41-3.1-8.524-.711.411-.564-1.551.71-.408-3.388-9.308-.711.411-.564-1.548.711-.411-3.1-8.524-.713.411-.563-1.548.713-.411-.968-2.651Z" fill="#29b2dc"/>
            </g>
            <g id="Grupo_102156" data-name="Grupo 102156">
              <path id="Trazado_158528" data-name="Trazado 158528" d="M84.353,167.405l-1.057.034,25.088,68.884,1.059-.032Z" fill="#147f91"/>
            </g>
            <g id="Grupo_102157" data-name="Grupo 102157">
              <path id="Trazado_158529" data-name="Trazado 158529" d="M85.772,166.584l-1.055.034-1.422.821,1.057-.034Z" fill="#29b2dc"/>
            </g>
          </g>
        </g>
        <g id="Grupo_102178" data-name="Grupo 102178">
          <path id="Trazado_158530" data-name="Trazado 158530" d="M98.351,167.24s-1.025-3.772-2.541-3.967-2.085,1-1.8,1.287,2.43,1.657,3.013,3.222A1.253,1.253,0,0,0,98.351,167.24Z" fill="#efb185"/>
          <path id="Trazado_158531" data-name="Trazado 158531" d="M110.36,169.392c.929.419,1.721,2.293-1.047,3.571s-8.553,4.235-9.6,3.66c-.846-.468-1.823-1.789,1.529-3.668S108.07,168.357,110.36,169.392Z" fill="#f9f9f9"/>
          <path id="Trazado_158532" data-name="Trazado 158532" d="M101.795,175.9s-1.788,1.4-2.943-.139-2.445-8.836-2.445-8.836,1.759-.124,1.916-1.042C98.323,165.881,102.626,174.073,101.795,175.9Z" fill="#f9f9f9"/>
          <g id="Grupo_102160" data-name="Grupo 102160">
            <path id="Trazado_158533" data-name="Trazado 158533" d="M109.8,214.806s-1.252.3-.879,1.008,1.929,1.685,2.162,2.132,1.569,1.992,1.94,1.805,1.39-.046,1.108-1.921S111.484,214.578,109.8,214.806Z" fill="#111114"/>
          </g>
          <g id="Grupo_102161" data-name="Grupo 102161">
            <path id="Trazado_158534" data-name="Trazado 158534" d="M111.457,218.82s.954,1.66-.475,2.373-1.168-.323-4.3,1.159-3.842-.145-3.841-.539,2.063-1.511,2.745-1.839,1.976-.941,1.976-.941l3.907-.767Z" fill="#111114"/>
          </g>
          <g id="Grupo_102162" data-name="Grupo 102162">
            <path id="Trazado_158535" data-name="Trazado 158535" d="M111.512,189.658s.983,10.91,1.091,12.139,2.332,10.793,1.882,15.1c0,0-2.17,2.594-4.484.394,0,0-1.74-12.064-2.592-14.744s-1.381-11.067-1.381-11.067Z" fill="#632bee"/>
          </g>
          <g id="Grupo_102163" data-name="Grupo 102163">
            <path id="Trazado_158536" data-name="Trazado 158536" d="M107.722,188.685s.833,7.045,1.634,14.037c0,0,2.345,13.726,2.408,15.761,0,0-4.191,1.953-5.04-.032,0,0-2.254-12.045-2.859-14.534s-2.756-10.247-2.557-14.486S107.722,188.685,107.722,188.685Z" fill="#632bee"/>
          </g>
          <g id="Grupo_102164" data-name="Grupo 102164">
            <path id="Trazado_158537" data-name="Trazado 158537" d="M111.764,218.483c-.063-2.035-2.408-15.761-2.408-15.761-.539-4.707-1.187-10.218-1.489-12.807l-2.874,1.166a48.512,48.512,0,0,0,1.245,14.017c1.4,5.932,2.661,11.795,3.156,14.145A11.407,11.407,0,0,0,111.764,218.483Z" fill="#471bce"/>
          </g>
          <g id="Grupo_102165" data-name="Grupo 102165">
            <path id="Trazado_158538" data-name="Trazado 158538" d="M114.485,216.892c.45-4.3-1.774-13.866-1.882-15.1-.1-1.17-1-11.115-1.081-12.06l-2.242,2.058s-.073,7.869,1.079,12.246c1.051,3.983,1.3,11.894,1.833,14.118A3.854,3.854,0,0,0,114.485,216.892Z" fill="#471bce"/>
          </g>
          <g id="Grupo_102166" data-name="Grupo 102166">
            <path id="Trazado_158539" data-name="Trazado 158539" d="M110.171,169.432s2.429.892,1.565,4.95-1.117,8.689-.379,9.955a31.394,31.394,0,0,1,3.961,17.466s.25,3.592-6.038,4.448c-2.1.286-8.517-.353-7.97-4.448s-.714-19.488-1.04-21-1.594-4.481,2.009-6.983S107.7,169.557,110.171,169.432Z" fill="#e5eeff"/>
          </g>
          <g id="Grupo_102173" data-name="Grupo 102173">
            <g id="Grupo_102167" data-name="Grupo 102167">
              <path id="Trazado_158540" data-name="Trazado 158540" d="M107.231,167.808a6.683,6.683,0,0,0,.83,3.269c.768,1.089-3.926,2.692-4.161,1.629a4.641,4.641,0,0,0-.7-3.932C102.472,167.751,107.231,167.808,107.231,167.808Z" fill="#efb185"/>
            </g>
            <g id="Grupo_102168" data-name="Grupo 102168">
              <path id="Trazado_158541" data-name="Trazado 158541" d="M108.046,171.153a6.083,6.083,0,0,1-.82-2.911l-3.318,2.14,0,.009c.13.015,2.572.351,3.279,2C107.879,172.013,108.324,171.549,108.046,171.153Z" fill="#dd9569"/>
            </g>
            <g id="Grupo_102169" data-name="Grupo 102169">
              <path id="Trazado_158542" data-name="Trazado 158542" d="M101.549,162.952a8.783,8.783,0,0,0-.21,3.519c.353,1.7.135,2.079.33,2.831a1.842,1.842,0,0,0,.519,1.083c.586.452,1.7.518,3.124-.191,1.719-.858,3.329-3.537,2.311-5.666S104.042,160.841,101.549,162.952Z" fill="#efb185"/>
            </g>
            <g id="Grupo_102170" data-name="Grupo 102170">
              <path id="Trazado_158543" data-name="Trazado 158543" d="M107.813,166.934a31.98,31.98,0,0,0-2.992-4.233,5.776,5.776,0,0,0-1.352-.7,4.043,4.043,0,0,0-1.92.954,9.824,9.824,0,0,0-.239,1.238c.482.428,1.413.875,1.589,1.266a5.2,5.2,0,0,1,.194,3.056c-.213.672,1.044,1.478.865,2.073a.126.126,0,0,0,0,.077,5.165,5.165,0,0,0,1.353-.468A5.219,5.219,0,0,0,107.813,166.934Z" fill="#e6a376"/>
            </g>
            <g id="Grupo_102171" data-name="Grupo 102171">
              <path id="Trazado_158544" data-name="Trazado 158544" d="M100.933,162.25a2.31,2.31,0,0,0,1.574,2.211c.993.354,1.08,1.881,1.065,2.167a6.923,6.923,0,0,0-.01,1.748c.255.292.878-.777,1.235-.748.913.072.66.942-.053,1.906-.756,1.022,1.554,1.148,2.515.264.511-.468.689-.734,1.258-2.272.824-2.241.593-4.794-2.07-5.872S102.559,162.69,100.933,162.25Z" fill="#221101"/>
            </g>
            <g id="Grupo_102172" data-name="Grupo 102172">
              <path id="Trazado_158545" data-name="Trazado 158545" d="M107.259,169.8c.511-.468.689-.734,1.258-2.272.824-2.241.593-4.794-2.07-5.872s-3.888,1.036-5.514.6a2.228,2.228,0,0,0,.086.638c.807.038,3.03.221,3.694,1.093.821,1.075,1.545.616,1.647,2.054.1,1.385.663,3.149-1.563,4.189A2.345,2.345,0,0,0,107.259,169.8Z" fill="#341c09"/>
            </g>
          </g>
          <g id="Grupo_102174" data-name="Grupo 102174">
            <path id="Trazado_158546" data-name="Trazado 158546" d="M104.1,172.038l-1.419,1.5s5.038.85,6.2-1.705a1.4,1.4,0,0,0-1.088-1.583S107.848,172.211,104.1,172.038Z" fill="#17a89f"/>
          </g>
          <g id="Grupo_102177" data-name="Grupo 102177">
            <path id="Trazado_158547" data-name="Trazado 158547" d="M103.328,174.273c1.019-.05,2.579,1.256.7,3.656s-5.678,7.673-6.871,7.638c-.966-.031-2.438-.758-.313-3.961S100.818,174.4,103.328,174.273Z" fill="#f9f9f9"/>
            <g id="Grupo_102176" data-name="Grupo 102176">
              <g id="Grupo_102175" data-name="Grupo 102175">
                <path id="Trazado_158548" data-name="Trazado 158548" d="M90.335,178.388a13.533,13.533,0,0,0-1.961-.808c-.416-.056-1.147-.934-1.3-1.444s-.414-1.919.325-1.66,1.034.542,1.521.635a3.374,3.374,0,0,1,1.511.921c.2.292.831,1.237.831,1.237Z" fill="#efb185"/>
              </g>
            </g>
            <path id="Trazado_158549" data-name="Trazado 158549" d="M98.676,183.973s-.951,2.063-2.684,1.219-6.206-6.749-6.206-6.749,1.509-.911,1.231-1.8C91.017,176.643,98.584,181.969,98.676,183.973Z" fill="#f9f9f9"/>
          </g>
        </g>
      </g>
    </g>
  </g>
</svg>
