<svg xmlns="http://www.w3.org/2000/svg" xmlns:xlink="http://www.w3.org/1999/xlink" width="177.017" height="177.017" viewBox="0 0 177.017 177.017">
  <defs>
    <linearGradient id="linear-gradient" x1="0.059" y1="-0.237" x2="1.358" y2="1.933" gradientUnits="objectBoundingBox">
      <stop offset="0" stop-color="#93dcfc"/>
      <stop offset="1" stop-color="#07a9f0"/>
    </linearGradient>
    <linearGradient id="linear-gradient-2" x1="17.002" y1="0.5" x2="18.002" y2="0.5" gradientUnits="objectBoundingBox">
      <stop offset="0" stop-color="#390154"/>
      <stop offset="0.169" stop-color="#3e0259"/>
      <stop offset="0.394" stop-color="#4e076a"/>
      <stop offset="0.652" stop-color="#690e86"/>
      <stop offset="0.932" stop-color="#8d19ad"/>
      <stop offset="1" stop-color="#981cb8"/>
    </linearGradient>
    <linearGradient id="linear-gradient-3" x1="16.788" y1="0.5" x2="17.788" y2="0.5" gradientUnits="objectBoundingBox">
      <stop offset="0" stop-color="#5a2b70"/>
      <stop offset="0.188" stop-color="#5f2c75"/>
      <stop offset="0.44" stop-color="#6f3186"/>
      <stop offset="0.726" stop-color="#8938a2"/>
      <stop offset="1" stop-color="#a942c4"/>
    </linearGradient>
    <linearGradient id="linear-gradient-4" x1="16.475" y1="0.5" x2="17.475" y2="0.5" gradientUnits="objectBoundingBox">
      <stop offset="0" stop-color="#7b568d"/>
      <stop offset="0.217" stop-color="#805792"/>
      <stop offset="0.508" stop-color="#905ca3"/>
      <stop offset="0.838" stop-color="#aa63bf"/>
      <stop offset="1" stop-color="#ba68d0"/>
    </linearGradient>
    <linearGradient id="linear-gradient-5" x1="15.979" y1="0.5" x2="16.979" y2="0.5" gradientUnits="objectBoundingBox">
      <stop offset="0" stop-color="#9c80aa"/>
      <stop offset="0.261" stop-color="#a181af"/>
      <stop offset="0.611" stop-color="#b286c0"/>
      <stop offset="1" stop-color="#cc8edc"/>
    </linearGradient>
    <linearGradient id="linear-gradient-6" x1="15.072" y1="0.5" x2="16.072" y2="0.5" gradientUnits="objectBoundingBox">
      <stop offset="0" stop-color="#bdaac6"/>
      <stop offset="0.34" stop-color="#c2abcb"/>
      <stop offset="0.793" stop-color="#d3b0dc"/>
      <stop offset="1" stop-color="#ddb3e7"/>
    </linearGradient>
    <linearGradient id="linear-gradient-7" x1="12.881" y1="0.5" x2="13.881" y2="0.5" gradientUnits="objectBoundingBox">
      <stop offset="0" stop-color="#ded5e3"/>
      <stop offset="0.537" stop-color="#e3d6e8"/>
      <stop offset="1" stop-color="#eed9f3"/>
    </linearGradient>
  </defs>
  <g id="Grupo_102471" data-name="Grupo 102471" transform="translate(-1032.982 -1071)">
    <circle id="Elipse_4583" data-name="Elipse 4583" cx="88.509" cy="88.509" r="88.509" transform="translate(1032.982 1071)" fill="url(#linear-gradient)"/>
    <g id="Grupo_102453" data-name="Grupo 102453" transform="translate(1197.875 1082.969) rotate(90)">
      <path id="Trazado_156338" data-name="Trazado 156338" d="M304.223,254.194a76.4,76.4,0,1,0-76.4,76.4A76.1,76.1,0,0,0,304.223,254.194Z" transform="translate(-152.339 -178.702)" fill="#fff"/>
    </g>
    <g id="Grupo_102454" data-name="Grupo 102454" transform="translate(1047.96 850.475)">
      <path id="Trazado_158550" data-name="Trazado 158550" d="M117.872,336.059a21.085,21.085,0,0,0-9.909-2.33c2.911-7.9-.946-16.475-11.579-22.615-16.631-9.6-43.507-9.6-60.028,0s-16.433,25.168.2,34.768c16.464,9.506,42.96,9.585,59.517.266a11.61,11.61,0,0,0,1.737,1.177c5.578,3.112,14.59,3.111,20.131,0S123.451,339.171,117.872,336.059Z" transform="translate(0 3.256)" opacity="0.1"/>
      <path id="Trazado_158551" data-name="Trazado 158551" d="M101.71,297.279c.8.454,1.342,2.2-1.3,3.13s-8.195,3.138-9.089,2.538c-.727-.488-1.485-1.752,1.745-3.179S99.725,296.168,101.71,297.279Z" transform="translate(5.244 2.71)" fill="#f9f9f9"/>
      <path id="Trazado_158552" data-name="Trazado 158552" d="M93.41,301.807s-.995,1.812-2.531.974-5.262-6.36-5.262-6.36,1.435-.752,1.234-1.567C86.852,294.854,93.447,300,93.41,301.807Z" transform="translate(4.845 2.543)" fill="#f9f9f9"/>
      <g id="Grupo_102182" data-name="Grupo 102182" transform="translate(87.933 295.273)">
        <g id="Grupo_102181" data-name="Grupo 102181">
          <path id="Trazado_158553" data-name="Trazado 158553" d="M87.268,295.45a12.028,12.028,0,0,1-1.031-1.628,2.316,2.316,0,0,0-1.489-.919c-.479-.05-1.767-.039-1.416.582s.643.839.807,1.262a3.023,3.023,0,0,0,1.057,1.2c.291.124,1.229.531,1.229.531Z" transform="translate(-83.273 -292.885)" fill="#efb185"/>
        </g>
      </g>
      <path id="Trazado_158554" data-name="Trazado 158554" d="M97.77,322.842a8.909,8.909,0,0,1-.109.968c-.049.265-.127.526-.2.789-.082.3-.154.6-.261.9-.087.249-.206.5-.313.744-.136.318-.273.634-.442.944-.125.23-.273.457-.41.681-.224.358-.454.709-.712,1.057s-.515.674-.806,1c-.069.08-.129.16-.2.236-.39.425-.824.844-1.283,1.256-.292.265-.619.521-.938.776-.279.225-.547.45-.845.669-.342.249-.722.489-1.093.728s-.744.5-1.158.745a31.255,31.255,0,0,1-2.867,1.45c-.288.131-.584.252-.879.376q-1.154.484-2.37.9c-.3.1-.594.215-.9.31-.5.158-1.026.3-1.542.438-.4.111-.8.228-1.216.326-.559.137-1.127.249-1.7.365-.376.077-.748.163-1.125.23-1.143.2-2.3.36-3.474.482-.346.036-.695.057-1.039.086-.7.057-1.389.108-2.09.141-.435.019-.872.028-1.306.034-.564.013-1.132.016-1.694.007-.454,0-.9-.015-1.356-.035-.52-.019-1.041-.049-1.561-.084-.467-.031-.933-.069-1.4-.118-.519-.047-1.037-.106-1.547-.174q-.662-.084-1.314-.184c-.548-.082-1.095-.181-1.637-.285-.425-.08-.844-.162-1.259-.255-.633-.138-1.257-.293-1.876-.461-.355-.092-.713-.182-1.061-.284-1.114-.326-2.206-.69-3.254-1.1-.519-.2-1.021-.422-1.521-.646-.272-.121-.554-.23-.819-.357-.766-.365-1.511-.748-2.227-1.163-6-3.46-8.994-8.007-8.981-12.547l-.019,7.134c-.015,4.54,2.984,9.087,8.982,12.549q1.078.618,2.23,1.166c.265.121.539.234.809.352.45.2.89.407,1.355.588.05.023.108.035.162.055,1.058.412,2.153.779,3.272,1.1.091.029.174.065.263.09.251.07.513.122.767.189.632.166,1.263.326,1.909.467.169.038.33.088.5.121.244.052.5.083.746.132.535.1,1.074.194,1.621.28.218.036.428.084.648.114s.472.047.709.078c.508.064,1.014.122,1.525.173.242.022.48.057.722.08.223.019.45.019.677.036.508.034,1.018.059,1.531.083.262.009.524.036.786.041.206.007.419,0,.627,0,.554.006,1.111,0,1.667-.009.273,0,.546.009.821,0,.163,0,.324-.025.484-.031.681-.029,1.362-.077,2.041-.135.283-.026.565-.028.846-.057.09-.006.175-.025.263-.036q1.738-.183,3.438-.479c.06-.01.12-.016.178-.025.345-.066.681-.148,1.021-.218.549-.112,1.1-.22,1.643-.352.4-.1.785-.21,1.182-.319.533-.147,1.067-.291,1.588-.453.109-.037.223-.061.329-.094.179-.06.346-.137.52-.2.825-.282,1.628-.586,2.414-.914.288-.123.577-.243.865-.371a31.034,31.034,0,0,0,2.869-1.451l.37-.22c.275-.163.508-.345.773-.515.374-.243.757-.485,1.106-.738.3-.22.57-.444.85-.671.319-.255.645-.511.938-.777.057-.052.128-.1.187-.153.389-.362.75-.728,1.092-1.1.07-.08.134-.163.2-.239.2-.231.406-.457.59-.69.08-.1.133-.208.209-.31.264-.352.5-.713.722-1.074.09-.147.21-.287.293-.434.042-.073.064-.15.1-.223.173-.32.314-.643.453-.965.081-.182.186-.362.253-.54.026-.059.033-.125.055-.188.109-.3.181-.607.261-.91.055-.206.138-.409.179-.614.01-.058.005-.112.015-.169a9.069,9.069,0,0,0,.108-.934c.02-.212.069-.427.074-.644,0-.091,0-.179,0-.267q.008-3.568.02-7.136C97.846,322.257,97.8,322.547,97.77,322.842Z" transform="translate(1.019 4.662)" fill="#147f91"/>
      <g id="Grupo_102183" data-name="Grupo 102183" transform="translate(38.015 308.918)">
        <path id="Trazado_158555" data-name="Trazado 158555" d="M88.86,310.692c11.928,6.887,11.98,18.045.142,24.924s-31.1,6.887-43.027,0-11.99-18.036-.141-24.924S76.948,303.816,88.86,310.692Z" transform="translate(-36.994 -305.535)" fill="#65e0f6"/>
      </g>
      <g id="Grupo_102184" data-name="Grupo 102184" transform="translate(60.726 310.698)">
        <path id="Trazado_158556" data-name="Trazado 158556" d="M72.976,308.671c3.43,1.979,3.447,5.191.038,7.169a13.623,13.623,0,0,1-12.381,0c-3.426-1.978-3.45-5.189-.041-7.169A13.643,13.643,0,0,1,72.976,308.671Z" transform="translate(-58.049 -307.185)" fill="#147f91"/>
      </g>
      <g id="Grupo_102189" data-name="Grupo 102189" transform="translate(61.163 262.525)">
        <path id="Trazado_158557" data-name="Trazado 158557" d="M65.193,327.883h1.533a6.136,6.136,0,0,0,6.138-6.134V267.027h-13.8v54.722A6.136,6.136,0,0,0,65.193,327.883Z" transform="translate(-58.407 -262.171)" fill="#ade9f4"/>
        <path id="Trazado_158558" data-name="Trazado 158558" d="M65.263,324.968H66.4a4.528,4.528,0,0,0,4.528-4.53v-40.4H60.732v40.4A4.529,4.529,0,0,0,65.263,324.968Z" transform="translate(-58.275 -261.148)" fill="#298bed"/>
        <g id="Grupo_102185" data-name="Grupo 102185" transform="translate(2.461 15.94)">
          <path id="Trazado_158559" data-name="Trazado 158559" d="M69.512,278.2c1.946,1.176,1.878,3.044-.151,4.177a7.947,7.947,0,0,1-7.21-.076c-1.939-1.173-1.882-3.041.147-4.172A7.956,7.956,0,0,1,69.512,278.2Z" transform="translate(-60.735 -277.303)" fill="#0467d8"/>
        </g>
        <g id="Grupo_102188" data-name="Grupo 102188">
          <g id="Grupo_102186" data-name="Grupo 102186" transform="translate(0.004 8.763)">
            <path id="Trazado_158560" data-name="Trazado 158560" d="M58.458,272.1v-1.448c.005,1.086.7,1.486,2.095,2.334a11.753,11.753,0,0,0,10.678.1c1.552-.859,2.333-1.134,2.333-2.287l0,1.251c0,1.155-.777,2.307-2.326,3.171a11.761,11.761,0,0,1-10.677-.11A3.7,3.7,0,0,1,58.458,272.1Z" transform="translate(-58.458 -270.649)" fill="#4ed2f2"/>
          </g>
          <path id="Trazado_158561" data-name="Trazado 158561" d="M58.458,266.5v4.478s.058,2.473,1.047,2.9,8.258,1.067,8.258,1.067l3.911-.479,1.891-2.084,0-1.251-.011-4.629Z" transform="translate(-58.454 -262.213)" fill="#4ed2f2"/>
          <g id="Grupo_102187" data-name="Grupo 102187">
            <path id="Trazado_158562" data-name="Trazado 158562" d="M71.455,263.861c2.888,1.738,2.788,4.507-.224,6.188a11.77,11.77,0,0,1-10.678-.109c-2.881-1.738-2.786-4.508.224-6.189A11.769,11.769,0,0,1,71.455,263.861Z" transform="translate(-58.454 -262.525)" fill="#b8f8ff"/>
            <path id="Trazado_158563" data-name="Trazado 158563" d="M65.905,270.149a9.806,9.806,0,0,1-4.885-1.185,2.711,2.711,0,0,1-1.591-2.152,2.922,2.922,0,0,1,1.786-2.212,9.884,9.884,0,0,1,4.737-1.1,9.77,9.77,0,0,1,4.885,1.185,2.711,2.711,0,0,1,1.592,2.147,2.939,2.939,0,0,1-1.784,2.217A9.95,9.95,0,0,1,65.905,270.149Z" transform="translate(-58.378 -262.449)" fill="#2bb4da"/>
            <path id="Trazado_158564" data-name="Trazado 158564" d="M61.215,265.524a10.717,10.717,0,0,1,9.623.091,3.192,3.192,0,0,1,1.511,1.654,1.694,1.694,0,0,0,.081-.434,2.711,2.711,0,0,0-1.592-2.147,9.77,9.77,0,0,0-4.885-1.185,9.883,9.883,0,0,0-4.737,1.1,2.922,2.922,0,0,0-1.786,2.212,1.607,1.607,0,0,0,.08.5A3.4,3.4,0,0,1,61.215,265.524Z" transform="translate(-58.378 -262.449)" fill="#29b2dc"/>
          </g>
        </g>
      </g>
      <path id="Trazado_158565" data-name="Trazado 158565" d="M95.279,326.324,92.4,324.746a5.524,5.524,0,0,1-2.274,2.294,14.262,14.262,0,0,1-12.945,0c-3.585-2.07-3.609-5.427-.043-7.5a11.427,11.427,0,0,1,3.5-1.242l-5.611-2.781c-3.562,1.454-9.23.579-12.434-1.271-3.084-1.78-3.514-4.512-1.308-6.559l-7.134-3.911a35.892,35.892,0,0,0-8.721,3.512c-.163.095-.3.2-.458.293l3.78,2.791a13.955,13.955,0,0,1,8.187,1.455c2.792,1.614,3.393,4,1.856,5.953l5.606,4.14c1.025.256-.413.9.423,1.377,1.4.808,2.7,1.4,3.009,2.451l14.353,9.29a34.587,34.587,0,0,0,6.412-2.827A20.393,20.393,0,0,0,95.279,326.324Z" transform="translate(1.648 3.245)" fill="#65e0f6"/>
      <g id="Grupo_102190" data-name="Grupo 102190" transform="translate(75.917 325.665)">
        <path id="Trazado_158566" data-name="Trazado 158566" d="M87.058,322.543c3.432,1.982,3.447,5.2.042,7.173a13.643,13.643,0,0,1-12.384,0c-3.427-1.977-3.45-5.192-.038-7.173A13.667,13.667,0,0,1,87.058,322.543Z" transform="translate(-72.133 -321.061)" fill="#147f91"/>
      </g>
      <g id="Grupo_102195" data-name="Grupo 102195" transform="translate(76.078 274.965)">
        <path id="Trazado_158567" data-name="Trazado 158567" d="M79.019,339.418h1.534a6.136,6.136,0,0,0,6.138-6.134V278.559H72.885v54.725A6.136,6.136,0,0,0,79.019,339.418Z" transform="translate(-72.235 -273.704)" fill="#ade9f4"/>
        <path id="Trazado_158568" data-name="Trazado 158568" d="M79.088,336.5h1.135a4.529,4.529,0,0,0,4.528-4.53v-40.4H74.561v40.4A4.528,4.528,0,0,0,79.088,336.5Z" transform="translate(-72.103 -272.68)" fill="#298bed"/>
        <g id="Grupo_102191" data-name="Grupo 102191" transform="translate(2.459 15.938)">
          <path id="Trazado_158569" data-name="Trazado 158569" d="M83.338,289.735c1.946,1.176,1.879,3.044-.15,4.179a7.958,7.958,0,0,1-7.209-.073c-1.942-1.173-1.884-3.043.147-4.177A7.949,7.949,0,0,1,83.338,289.735Z" transform="translate(-74.562 -288.834)" fill="#0467d8"/>
        </g>
        <g id="Grupo_102194" data-name="Grupo 102194">
          <g id="Grupo_102192" data-name="Grupo 102192" transform="translate(0.005 8.763)">
            <path id="Trazado_158570" data-name="Trazado 158570" d="M72.287,283.627v-1.445c0,1.085.693,1.486,2.1,2.331a11.761,11.761,0,0,0,10.677.108c1.549-.861,2.329-1.137,2.329-2.288l0,1.25a3.83,3.83,0,0,1-2.325,3.17,11.766,11.766,0,0,1-10.679-.107A3.7,3.7,0,0,1,72.287,283.627Z" transform="translate(-72.287 -282.182)" fill="#4ed2f2"/>
          </g>
          <path id="Trazado_158571" data-name="Trazado 158571" d="M72.287,278.031v4.478s.055,2.472,1.045,2.9,8.257,1.065,8.257,1.065l3.911-.479,1.891-2.083,0-1.25-.009-4.629Z" transform="translate(-72.282 -273.745)" fill="#4ed2f2"/>
          <g id="Grupo_102193" data-name="Grupo 102193">
            <path id="Trazado_158572" data-name="Trazado 158572" d="M85.283,275.4c2.885,1.737,2.786,4.508-.223,6.187a11.754,11.754,0,0,1-10.677-.11c-2.885-1.737-2.787-4.506.221-6.186A11.752,11.752,0,0,1,85.283,275.4Z" transform="translate(-72.282 -274.058)" fill="#b8f8ff"/>
            <path id="Trazado_158573" data-name="Trazado 158573" d="M79.734,281.679a9.788,9.788,0,0,1-4.888-1.184,2.7,2.7,0,0,1-1.588-2.148c.011-.782.66-1.59,1.782-2.217a9.949,9.949,0,0,1,4.742-1.1,9.785,9.785,0,0,1,4.882,1.187,2.713,2.713,0,0,1,1.592,2.15,2.924,2.924,0,0,1-1.781,2.213A9.9,9.9,0,0,1,79.734,281.679Z" transform="translate(-72.205 -273.981)" fill="#2bb4da"/>
            <path id="Trazado_158574" data-name="Trazado 158574" d="M75.04,277.055a9.923,9.923,0,0,1,4.742-1.092,9.773,9.773,0,0,1,4.882,1.184,3.207,3.207,0,0,1,1.513,1.651,1.557,1.557,0,0,0,.079-.43,2.713,2.713,0,0,0-1.592-2.15,9.785,9.785,0,0,0-4.882-1.187,9.949,9.949,0,0,0-4.742,1.1c-1.122.627-1.771,1.435-1.782,2.217a1.571,1.571,0,0,0,.077.492A3.419,3.419,0,0,1,75.04,277.055Z" transform="translate(-72.205 -273.981)" fill="#29b2dc"/>
          </g>
        </g>
      </g>
      <g id="Grupo_102196" data-name="Grupo 102196" transform="translate(42.744 317.286)">
        <path id="Trazado_158575" data-name="Trazado 158575" d="M56.99,314.845c3.588,2.07,3.6,5.428.037,7.5a14.255,14.255,0,0,1-12.945,0c-3.585-2.071-3.608-5.429-.042-7.5A14.28,14.28,0,0,1,56.99,314.845Z" transform="translate(-41.379 -313.293)" fill="#147f91"/>
      </g>
      <g id="Grupo_102201" data-name="Grupo 102201" transform="translate(44.158 269.516)">
        <path id="Trazado_158576" data-name="Trazado 158576" d="M49.426,334.364h1.533a6.137,6.137,0,0,0,6.139-6.133V273.508h-13.8v54.723A6.134,6.134,0,0,0,49.426,334.364Z" transform="translate(-42.642 -268.652)" fill="#ade9f4"/>
        <path id="Trazado_158577" data-name="Trazado 158577" d="M49.5,331.448h1.133a4.53,4.53,0,0,0,4.528-4.533v-40.4H44.97v40.4A4.53,4.53,0,0,0,49.5,331.448Z" transform="translate(-42.511 -267.628)" fill="#298bed"/>
        <g id="Grupo_102197" data-name="Grupo 102197" transform="translate(2.458 15.938)">
          <path id="Trazado_158578" data-name="Trazado 158578" d="M53.745,284.684c1.945,1.172,1.88,3.042-.153,4.176a7.946,7.946,0,0,1-7.2-.074c-1.944-1.171-1.884-3.04.145-4.173A7.944,7.944,0,0,1,53.745,284.684Z" transform="translate(-44.969 -283.782)" fill="#0467d8"/>
        </g>
        <g id="Grupo_102200" data-name="Grupo 102200" transform="translate(0)">
          <g id="Grupo_102198" data-name="Grupo 102198" transform="translate(0.006 8.761)">
            <path id="Trazado_158579" data-name="Trazado 158579" d="M42.695,278.574v-1.447c0,1.086.693,1.489,2.1,2.331a11.767,11.767,0,0,0,10.677.11c1.55-.863,2.328-1.134,2.328-2.288l0,1.252c0,1.149-.774,2.306-2.327,3.169a11.761,11.761,0,0,1-10.677-.109A3.692,3.692,0,0,1,42.695,278.574Z" transform="translate(-42.695 -277.128)" fill="#4ed2f2"/>
          </g>
          <path id="Trazado_158580" data-name="Trazado 158580" d="M42.695,272.978v4.476s.053,2.476,1.044,2.9S52,281.419,52,281.419l3.91-.479,1.892-2.08,0-1.252-.009-4.63Z" transform="translate(-42.689 -268.693)" fill="#4ed2f2"/>
          <g id="Grupo_102199" data-name="Grupo 102199">
            <path id="Trazado_158581" data-name="Trazado 158581" d="M55.69,270.341c2.886,1.738,2.787,4.509-.222,6.187a11.764,11.764,0,0,1-10.677-.107c-2.885-1.738-2.787-4.509.22-6.188A11.765,11.765,0,0,1,55.69,270.341Z" transform="translate(-42.69 -269.006)" fill="#b8f8ff"/>
            <path id="Trazado_158582" data-name="Trazado 158582" d="M50.142,276.626a9.8,9.8,0,0,1-4.887-1.184,2.7,2.7,0,0,1-1.59-2.147,2.923,2.923,0,0,1,1.783-2.219,9.942,9.942,0,0,1,4.742-1.1,9.741,9.741,0,0,1,4.879,1.189,2.7,2.7,0,0,1,1.594,2.147,2.921,2.921,0,0,1-1.78,2.215A9.946,9.946,0,0,1,50.142,276.626Z" transform="translate(-42.613 -268.929)" fill="#2bb4da"/>
            <path id="Trazado_158583" data-name="Trazado 158583" d="M45.448,272a9.9,9.9,0,0,1,4.742-1.093,9.741,9.741,0,0,1,4.879,1.185,3.212,3.212,0,0,1,1.516,1.652,1.663,1.663,0,0,0,.079-.433,2.7,2.7,0,0,0-1.594-2.147,9.741,9.741,0,0,0-4.879-1.189,9.942,9.942,0,0,0-4.742,1.1,2.923,2.923,0,0,0-1.783,2.219,1.616,1.616,0,0,0,.078.494A3.4,3.4,0,0,1,45.448,272Z" transform="translate(-42.613 -268.929)" fill="#29b2dc"/>
          </g>
        </g>
      </g>
      <path id="Trazado_158584" data-name="Trazado 158584" d="M45.983,335.05c11.928,6.885,31.179,6.885,43.03,0a22.987,22.987,0,0,0,4.85-3.718l-3.892-1.176a14.361,14.361,0,0,1-12.374-.275c-2.015-1.166-2.863-2.735-2.62-4.259l-15.938-4.815a6.263,6.263,0,0,1-1.646,1.358,14.244,14.244,0,0,1-12.943,0c-2.936-1.693-3.44-4.239-1.59-6.247l-2.93-.886C34.6,321.58,36.611,329.635,45.983,335.05Zm8.707-9.194a14.288,14.288,0,0,1,12.948,0c3.588,2.073,3.6,5.431.041,7.5a14.269,14.269,0,0,1-12.948,0C51.147,331.286,51.124,327.928,54.69,325.855Z" transform="translate(1.023 4.13)" fill="#65e0f6"/>
      <g id="Grupo_102202" data-name="Grupo 102202" transform="translate(52.992 328.435)">
        <path id="Trazado_158585" data-name="Trazado 158585" d="M66.489,325.179c3.587,2.073,3.6,5.431.037,7.5a14.264,14.264,0,0,1-12.946,0c-3.583-2.07-3.606-5.428-.04-7.5A14.291,14.291,0,0,1,66.489,325.179Z" transform="translate(-50.879 -323.628)" fill="#147f91"/>
      </g>
      <g id="Grupo_102207" data-name="Grupo 102207" transform="translate(54.593 276.948)">
        <path id="Trazado_158586" data-name="Trazado 158586" d="M59.1,341.256h1.534a6.133,6.133,0,0,0,6.135-6.134V280.4H52.97v54.725A6.132,6.132,0,0,0,59.1,341.256Z" transform="translate(-52.316 -275.543)" fill="#ade9f4"/>
        <path id="Trazado_158587" data-name="Trazado 158587" d="M59.17,338.339H60.3a4.527,4.527,0,0,0,4.528-4.531v-40.4H54.642v40.4A4.531,4.531,0,0,0,59.17,338.339Z" transform="translate(-52.184 -274.519)" fill="#298bed"/>
        <g id="Grupo_102203" data-name="Grupo 102203" transform="translate(2.459 15.938)">
          <path id="Trazado_158588" data-name="Trazado 158588" d="M63.418,291.574c1.949,1.176,1.883,3.044-.149,4.178a7.956,7.956,0,0,1-7.208-.072c-1.944-1.176-1.886-3.042.147-4.178A7.944,7.944,0,0,1,63.418,291.574Z" transform="translate(-54.643 -290.672)" fill="#0467d8"/>
        </g>
        <g id="Grupo_102206" data-name="Grupo 102206" transform="translate(0)">
          <g id="Grupo_102204" data-name="Grupo 102204" transform="translate(0.005 8.762)">
            <path id="Trazado_158589" data-name="Trazado 158589" d="M52.368,285.466V284.02c0,1.086.7,1.485,2.095,2.332a11.768,11.768,0,0,0,10.679.109c1.551-.864,2.332-1.138,2.328-2.288l0,1.249c0,1.154-.773,2.309-2.321,3.169a11.771,11.771,0,0,1-10.683-.106A3.7,3.7,0,0,1,52.368,285.466Z" transform="translate(-52.368 -284.02)" fill="#4ed2f2"/>
          </g>
          <path id="Trazado_158590" data-name="Trazado 158590" d="M52.368,279.867v4.48s.054,2.473,1.045,2.9,8.257,1.068,8.257,1.068l3.911-.479,1.892-2.083,0-1.249-.006-4.633Z" transform="translate(-52.363 -275.584)" fill="#4ed2f2"/>
          <g id="Grupo_102205" data-name="Grupo 102205">
            <path id="Trazado_158591" data-name="Trazado 158591" d="M65.364,277.231c2.889,1.741,2.79,4.508-.222,6.187a11.765,11.765,0,0,1-10.679-.108c-2.883-1.736-2.786-4.5.225-6.186A11.762,11.762,0,0,1,65.364,277.231Z" transform="translate(-52.364 -275.897)" fill="#b8f8ff"/>
            <path id="Trazado_158592" data-name="Trazado 158592" d="M59.816,283.518a9.769,9.769,0,0,1-4.885-1.184,2.707,2.707,0,0,1-1.592-2.149,2.935,2.935,0,0,1,1.783-2.216,9.941,9.941,0,0,1,4.742-1.1,9.752,9.752,0,0,1,4.88,1.185,2.7,2.7,0,0,1,1.593,2.15,2.929,2.929,0,0,1-1.78,2.214A9.934,9.934,0,0,1,59.816,283.518Z" transform="translate(-52.287 -275.82)" fill="#2bb4da"/>
            <path id="Trazado_158593" data-name="Trazado 158593" d="M55.122,278.9a9.929,9.929,0,0,1,4.742-1.094,9.8,9.8,0,0,1,4.88,1.182,3.232,3.232,0,0,1,1.516,1.656,1.519,1.519,0,0,0,.078-.431,2.7,2.7,0,0,0-1.593-2.15,9.752,9.752,0,0,0-4.88-1.185,9.941,9.941,0,0,0-4.742,1.1,2.935,2.935,0,0,0-1.783,2.216,1.553,1.553,0,0,0,.081.493A3.392,3.392,0,0,1,55.122,278.9Z" transform="translate(-52.287 -275.82)" fill="#29b2dc"/>
          </g>
        </g>
      </g>
      <path id="Trazado_158594" data-name="Trazado 158594" d="M45.98,334.445c10.393,6,26.35,6.771,38.119,2.309l-9.849-6.071-4.043-.865a5.018,5.018,0,0,1-2.531,2.933,14.269,14.269,0,0,1-12.948,0c-3.07-1.777-3.507-4.488-1.329-6.536l-16.327-3.5C37.388,326.979,40.34,331.19,45.98,334.445Z" transform="translate(1.026 4.735)" fill="#65e0f6"/>
      <g id="Grupo_102214" data-name="Grupo 102214" transform="translate(49.304 274.688)" opacity="0.8">
        <g id="Grupo_102208" data-name="Grupo 102208" opacity="0">
          <path id="Trazado_158595" data-name="Trazado 158595" d="M73.281,286.711A12.911,12.911,0,1,1,60.37,273.8,12.914,12.914,0,0,1,73.281,286.711Z" transform="translate(-47.46 -273.801)" fill="url(#linear-gradient-2)"/>
        </g>
        <g id="Grupo_102209" data-name="Grupo 102209" transform="translate(2.014 2.152)" opacity="0.167">
          <path id="Trazado_158596" data-name="Trazado 158596" d="M71.119,286.692a10.9,10.9,0,1,1-10.9-10.9A10.9,10.9,0,0,1,71.119,286.692Z" transform="translate(-49.327 -275.796)" opacity="0.883" fill="url(#linear-gradient-3)"/>
        </g>
        <g id="Grupo_102210" data-name="Grupo 102210" transform="translate(4.028 4.303)" opacity="0.333">
          <path id="Trazado_158597" data-name="Trazado 158597" d="M68.958,286.672a8.882,8.882,0,1,1-8.882-8.882A8.884,8.884,0,0,1,68.958,286.672Z" transform="translate(-51.194 -277.79)" opacity="0.767" fill="url(#linear-gradient-4)"/>
        </g>
        <g id="Grupo_102211" data-name="Grupo 102211" transform="translate(6.041 6.455)" opacity="0.5">
          <path id="Trazado_158598" data-name="Trazado 158598" d="M66.8,286.653a6.868,6.868,0,1,1-6.867-6.868A6.869,6.869,0,0,1,66.8,286.653Z" transform="translate(-53.06 -279.785)" opacity="0.65" fill="url(#linear-gradient-5)"/>
        </g>
        <g id="Grupo_102212" data-name="Grupo 102212" transform="translate(8.054 8.607)" opacity="0.667">
          <path id="Trazado_158599" data-name="Trazado 158599" d="M64.636,286.634a4.855,4.855,0,1,1-4.853-4.854A4.853,4.853,0,0,1,64.636,286.634Z" transform="translate(-54.927 -281.78)" opacity="0.533" fill="url(#linear-gradient-6)"/>
        </g>
        <g id="Grupo_102213" data-name="Grupo 102213" transform="translate(10.068 10.757)" opacity="0.833">
          <path id="Trazado_158600" data-name="Trazado 158600" d="M62.474,286.614a2.84,2.84,0,1,1-2.838-2.84A2.838,2.838,0,0,1,62.474,286.614Z" transform="translate(-56.794 -283.774)" opacity="0.417" fill="url(#linear-gradient-7)"/>
        </g>
        <path id="Trazado_158601" data-name="Trazado 158601" d="M60.314,286.6a.826.826,0,1,1-.824-.825A.822.822,0,0,1,60.314,286.6Z" transform="translate(-46.579 -272.859)" fill="#fff" opacity="0.3"/>
      </g>
      <path id="Trazado_158602" data-name="Trazado 158602" d="M94.1,335.57s-2.9-2.065-3.626-1.1,2.56,3.581,3.163,3.993,5.168,3.289,3.566-1.232S94.1,335.57,94.1,335.57Z" transform="translate(5.219 5.639)" fill="#111114"/>
      <path id="Trazado_158603" data-name="Trazado 158603" d="M102.787,314.211a7.443,7.443,0,0,1-.235,8.844c-2.092,2.8-5,15.607-5,15.607a3.969,3.969,0,0,1-4.341-1.357l1.881-11.346,3.438-8.559S99.6,317.423,102.787,314.211Z" transform="translate(5.442 4.066)" fill="#06121c"/>
      <path id="Trazado_158604" data-name="Trazado 158604" d="M100.159,339.943s-3.478-.764-3.768.409,3.756,2.3,4.473,2.438,6.043,1.006,2.8-2.528S100.159,339.943,100.159,339.943Z" transform="translate(5.691 5.984)" fill="#111114"/>
      <path id="Trazado_158605" data-name="Trazado 158605" d="M99.362,317.051a7.443,7.443,0,0,1,3.244,8.231c-.829,3.4,1.5,16.319,1.5,16.319a3.97,3.97,0,0,1-4.525.45l-2.706-11.179-.183-9.221S97.688,321.252,99.362,317.051Z" transform="translate(5.716 4.289)" fill="#091b2d"/>
      <path id="Trazado_158606" data-name="Trazado 158606" d="M100.486,296.708c1.356-.03,3.281,1.55,2.048,5.425s.561,9.625,1.409,12.164c1.811,5.425-.1,13.657-.1,13.657s-5.2,3.892-10.659,2.018c0,0-.346-13.15-.705-15.45s-2.962-8.846-1.059-11.5C92.853,301.025,96.887,296.79,100.486,296.708Z" transform="translate(5.247 2.689)" fill="#e5eeff"/>
      <path id="Trazado_158607" data-name="Trazado 158607" d="M94.587,301.857c.913.117,2.072,1.534-.026,3.388s-6.42,5.987-7.472,5.765c-.858-.179-2.038-1.065.422-3.6S92.332,301.574,94.587,301.857Z" transform="translate(4.878 3.093)" fill="#f9f9f9"/>
      <g id="Grupo_102216" data-name="Grupo 102216" transform="translate(84.046 303.592)">
        <g id="Grupo_102215" data-name="Grupo 102215">
          <path id="Trazado_158608" data-name="Trazado 158608" d="M82.27,304.165a11.377,11.377,0,0,0-1.585-.847c-.347-.08-.882-.878-.961-1.319s-.162-1.642.443-1.36.825.542,1.229.663a2.805,2.805,0,0,1,1.192.9l.585,1.107Z" transform="translate(-79.669 -300.597)" fill="#efb185"/>
        </g>
      </g>
      <path id="Trazado_158609" data-name="Trazado 158609" d="M88.875,309.763s-1.085,1.76-2.575.842-4.924-6.625-4.924-6.625,1.47-.676,1.312-1.5C82.688,302.482,89.008,307.957,88.875,309.763Z" transform="translate(4.512 3.143)" fill="#f9f9f9"/>
      <g id="Grupo_102217" data-name="Grupo 102217" transform="translate(97.262 290.843)">
        <path id="Trazado_158610" data-name="Trazado 158610" d="M98.664,295.453a6.47,6.47,0,0,0,.443,3.242c.619,1.132-4.075,2.165-4.185,1.114a4.494,4.494,0,0,0-.246-3.862C94.084,294.889,98.664,295.453,98.664,295.453Z" transform="translate(-91.709 -288.264)" fill="#efb185"/>
        <path id="Trazado_158611" data-name="Trazado 158611" d="M93.825,290.588a8.515,8.515,0,0,0-.579,3.365c.148,1.679-.1,2.019.006,2.764a1.81,1.81,0,0,0,.382,1.1c.513.5,1.585.685,3.029.158,1.753-.642,3.591-3.047,2.846-5.206S96.459,288.829,93.825,290.588Z" transform="translate(-91.819 -288.691)" fill="#efb185"/>
        <path id="Trazado_158612" data-name="Trazado 158612" d="M99.411,295.1a30.475,30.475,0,0,0-2.426-4.4,5.458,5.458,0,0,0-1.223-.828,3.964,3.964,0,0,0-1.955.712,9.623,9.623,0,0,0-.361,1.166c.415.465,1.265.993,1.393,1.393a5.079,5.079,0,0,1-.142,2.964c-.28.626.839,1.537.607,2.09a.138.138,0,0,0-.01.073,4.962,4.962,0,0,0,1.352-.3A5.08,5.08,0,0,0,99.411,295.1Z" transform="translate(-91.802 -288.691)" fill="#e6a376"/>
        <path id="Trazado_158613" data-name="Trazado 158613" d="M92.031,288.8c-.559-.346,1.126,2.676,2.654,3.426.92.448.84,1.929.8,2.2a6.46,6.46,0,0,0-.206,1.684c.217.307.935-.65,1.28-.584.863.163.525.976-.265,1.827-.837.9,1.369,1.271,2.395.526.54-.394.746-.634,1.459-2.053,1.036-2.066,1.322-5.132-1.358-5.878C96.223,289.244,93.566,289.748,92.031,288.8Z" transform="translate(-91.921 -288.777)" fill="#131c24"/>
        <path id="Trazado_158614" data-name="Trazado 158614" d="M98.678,297.886c.54-.394.746-.634,1.459-2.053,1.036-2.066,1.391-4.543-1.055-5.873s-4.251.069-7.059-1.157a8.219,8.219,0,0,0,4.836,3.207c1.285.244,1.418.758,1.362,2.155-.049,1.344.294,3.107-1.963,3.861A2.279,2.279,0,0,0,98.678,297.886Z" transform="translate(-91.914 -288.776)" fill="#1d2833"/>
        <path id="Trazado_158615" data-name="Trazado 158615" d="M95.263,299l-1.6,1.028s4.831,1.627,6.225-.709a1.361,1.361,0,0,0-.872-1.647S98.849,299.577,95.263,299Z" transform="translate(-91.785 -288.078)" fill="#77d2ff"/>
      </g>
    </g>
  </g>
</svg>
