<svg xmlns="http://www.w3.org/2000/svg" xmlns:xlink="http://www.w3.org/1999/xlink" width="177.017" height="177.017" viewBox="0 0 177.017 177.017">
  <defs>
    <linearGradient id="linear-gradient" x1="0.059" y1="-0.237" x2="1.358" y2="1.933" gradientUnits="objectBoundingBox">
      <stop offset="0" stop-color="#7af4ab"/>
      <stop offset="0.281" stop-color="#53daa7"/>
      <stop offset="0.559" stop-color="#35c5a5"/>
      <stop offset="0.796" stop-color="#22b9a3"/>
      <stop offset="0.962" stop-color="#1cb5a3"/>
    </linearGradient>
  </defs>
  <g id="Grupo_102469" data-name="Grupo 102469" transform="translate(-1032.982 -1427)">
    <circle id="Elipse_4585" data-name="Elipse 4585" cx="88.509" cy="88.509" r="88.509" transform="translate(1032.982 1427)" fill="url(#linear-gradient)"/>
    <g id="Grupo_102457" data-name="Grupo 102457" transform="translate(1197.875 1438.969) rotate(90)">
      <path id="Trazado_156338" data-name="Trazado 156338" d="M304.223,254.194a76.4,76.4,0,1,0-76.4,76.4A76.1,76.1,0,0,0,304.223,254.194Z" transform="translate(-152.339 -178.702)" fill="#fff"/>
    </g>
    <g id="Grupo_102458" data-name="Grupo 102458" transform="translate(796.804 1204.797)">
      <path id="Trazado_158681" data-name="Trazado 158681" d="M275.179,334.68l45.661,23.766,64.7-39.271L342.211,293.81Z" transform="translate(0 4.955)" opacity="0.1"/>
      <g id="Grupo_102276" data-name="Grupo 102276" transform="translate(282.868 309.903)" opacity="0.2">
        <path id="Trazado_158682" data-name="Trazado 158682" d="M305.224,305.871c5.359,3.1,5.39,8.118.065,11.211s-13.982,3.093-19.348,0-5.387-8.114-.058-11.2S299.865,302.78,305.224,305.871Z" transform="translate(-281.905 -303.554)"/>
      </g>
      <path id="Trazado_158683" data-name="Trazado 158683" d="M297.716,311.2s-.558,1.332,1.341,1.642,2.777,1.448,3.466,1.428c.632-.018,1.327-.514.484-1.293a25.548,25.548,0,0,0-3.473-2.182Z" transform="translate(3.215 7.386)" fill="#171716"/>
      <path id="Trazado_158684" data-name="Trazado 158684" d="M290.173,311.5s-.639,1.51,1.514,1.863,3.147,1.637,3.93,1.615c.717-.019,1.5-.582.548-1.463a29.168,29.168,0,0,0-3.937-2.475Z" transform="translate(2.134 7.421)" fill="#171716"/>
      <path id="Trazado_158685" data-name="Trazado 158685" d="M300.577,281.7s1.586,11.818.807,17.1-.807,16.562-.807,16.562a2.358,2.358,0,0,1-2.377,0s-2.147-8.354-1.227-11.8c.861-3.219-1.455-8.51-1.839-13.2a28.4,28.4,0,0,0-.883-5.038S299.275,285.379,300.577,281.7Z" transform="translate(2.731 3.221)" fill="#102946"/>
      <path id="Trazado_158686" data-name="Trazado 158686" d="M296.395,284.907s-.106,9.118-1.38,14.3-2.355,16.22-2.355,16.22-1.468.832-2.387-.035c0,0-.959-9.046-.1-11.869.971-3.185.447-8.721-.578-13.313a15.292,15.292,0,0,1,.191-6.562A8.907,8.907,0,0,0,296.395,284.907Z" transform="translate(2.024 3.5)" fill="#102946"/>
      <path id="Trazado_158687" data-name="Trazado 158687" d="M296.858,302.426c.835-3.125-1.319-8.2-1.8-12.789,1.208,3.117,3.141,8.568,2.949,10.972-.214,2.648.622,10.4,1.035,13.955a1.649,1.649,0,0,1-.96-.334S295.938,305.876,296.858,302.426Z" transform="translate(2.846 4.357)" fill="#091b2d"/>
      <path id="Trazado_158688" data-name="Trazado 158688" d="M290.173,303.527c.971-3.185.447-8.721-.578-13.313a15.292,15.292,0,0,1,.191-6.562s-.133.458,1.711.855c.015,3.755,1.363,11.139.921,13.486-.532,2.842-1.755,11.953-1.4,17.77a1.446,1.446,0,0,1-.745-.367S289.314,306.351,290.173,303.527Z" transform="translate(2.024 3.5)" fill="#091b2d"/>
      <path id="Trazado_158689" data-name="Trazado 158689" d="M299.731,277.318s.152,2.367,2.157,2.194,8.579-4.251,8.579-4.251-1.128-1.453-.524-2.218C309.944,273.043,300.573,275.4,299.731,277.318Z" transform="translate(3.515 1.981)" fill="#ccdcf8"/>
      <path id="Trazado_158690" data-name="Trazado 158690" d="M299.564,266.948c-.968-.439-2.985.233-2.078,3.283s2.581,9.63,3.754,10.054c.952.342,2.659.2,1.82-3.729S301.957,268.03,299.564,266.948Z" transform="translate(3.161 1.092)" fill="#ccdcf8"/>
      <g id="Grupo_102277" data-name="Grupo 102277" transform="translate(291.671 268.029)">
        <path id="Trazado_158691" data-name="Trazado 158691" d="M289.742,271.306s2.127-3.45,10.214-4.363c0,0,1.3-.5,1.06,3.665a4.628,4.628,0,0,0,.966,2.2c.4.562,1.464,2.682-1.059,5.1,0,0-1.06,3.69,0,6.124.953,2.178-4.413,4.115-8.9,3.546-.556-.069-1.776-.47-1.237-2.389s1.792-5.275.991-8.865S289.085,273.1,289.742,271.306Z" transform="translate(-289.606 -266.924)" fill="#77d2ff"/>
      </g>
      <g id="Grupo_102278" data-name="Grupo 102278" transform="translate(291.671 270.375)">
        <path id="Trazado_158692" data-name="Trazado 158692" d="M289.742,271.012c-.657,1.792,1.23,1.428,2.034,5.022s-.457,6.945-.991,8.865.681,2.321,1.237,2.389a13.566,13.566,0,0,0,2.26.085c-1.479-3.5.732-9.732.935-13.2a5.585,5.585,0,0,0-3.072-5.2A7.2,7.2,0,0,0,289.742,271.012Z" transform="translate(-289.606 -268.976)" fill="#5fb9e6"/>
      </g>
      <g id="Grupo_102279" data-name="Grupo 102279" transform="translate(288.36 267.955)">
        <path id="Trazado_158693" data-name="Trazado 158693" d="M296.46,268.986s5.8,3.609.688,33.842a8.493,8.493,0,0,0,4.475-3.25s-.254-13.1,0-16.955,1.337-17.709-4.04-15.533C297.584,267.09,294.638,268.02,296.46,268.986Z" transform="translate(-285.398 -266.859)" fill="#e5eeff"/>
        <path id="Trazado_158694" data-name="Trazado 158694" d="M293.787,268.544s8.217,6.405,1.34,35.575c0,0-5.463,2.712-8.418-1.4,0,0,1.868-13.124,3.295-16.389,1.139-2.6,2.292-5.866-.918-11.388C289.086,274.943,286.352,270.722,293.787,268.544Z" transform="translate(-286.709 -266.618)" fill="#e5eeff"/>
        <path id="Trazado_158695" data-name="Trazado 158695" d="M296.546,269.332s3.944,5.459,2.39,18.457c0,0,1.307-10.3,1.82-11.332l-1.025-.6.671-2.309s-.911-4.312-2.915-6.69Z" transform="translate(-285.301 -266.859)" fill="#ccdcf8"/>
        <path id="Trazado_158696" data-name="Trazado 158696" d="M293.452,268.258s5.565,5.563,3.726,20.527c0,0-1.017-9.359-2.54-10.815l1-1.2-1.942-.942s-1.411-5.358-3.561-5.891C290.13,269.94,292.012,268.292,293.452,268.258Z" transform="translate(-286.219 -266.659)" fill="#ccdcf8"/>
      </g>
      <g id="Grupo_102288" data-name="Grupo 102288" transform="translate(293.159 259.202)">
        <g id="Grupo_102280" data-name="Grupo 102280" transform="translate(2.448)">
          <path id="Trazado_158697" data-name="Trazado 158697" d="M298.213,261.539s-.646,4.153-1.014,8.112A1.324,1.324,0,0,0,298.792,271s3.151-4.615.877-9.357a4.48,4.48,0,0,0-6.621-1.578Z" transform="translate(-293.048 -259.202)" fill="#301806"/>
        </g>
        <g id="Grupo_102283" data-name="Grupo 102283" transform="translate(2.552 5.348)">
          <g id="Grupo_102281" data-name="Grupo 102281">
            <path id="Trazado_158698" data-name="Trazado 158698" d="M298.9,266.355a3.862,3.862,0,0,0-.876,3.474c.161.5.552,2.562-2.513,1.624,0,0-3.173-1.732-2.173-2.674.66-.626,1.322-1.543.484-4.9Z" transform="translate(-293.139 -263.88)" fill="#e8a476"/>
          </g>
          <g id="Grupo_102282" data-name="Grupo 102282" transform="translate(0.02 0.368)">
            <path id="Trazado_158699" data-name="Trazado 158699" d="M293.332,268.733a.538.538,0,0,0-.175.319,5.8,5.8,0,0,0,5.04-1.328l-3.722-3.522h0s-.2.12-.5.334C294.555,267.324,293.948,268.153,293.332,268.733Z" transform="translate(-293.157 -264.202)" fill="#db9669"/>
          </g>
        </g>
        <g id="Grupo_102284" data-name="Grupo 102284" transform="translate(2.791 1.341)">
          <path id="Trazado_158700" data-name="Trazado 158700" d="M298.542,260.94s.827.316.771,2.787c0,.273.421.647.518,1.331s.153,3.445-1.452,3.683a4.915,4.915,0,0,1-4.857-3.448C292.659,262.489,295.135,258.992,298.542,260.94Z" transform="translate(-293.349 -260.375)" fill="#f1b287"/>
        </g>
        <g id="Grupo_102285" data-name="Grupo 102285" transform="translate(0 0.201)">
          <path id="Trazado_158701" data-name="Trazado 158701" d="M298.7,262.07s-7.161,2.378-2.125,11.671c0,0-3.706.243-5.254-2.991-.74-1.551-.335-4.633-.014-7.569,0,0,.96-4.5,4.73-3.71C296.041,259.472,298.519,260.507,298.7,262.07Z" transform="translate(-290.907 -259.378)" fill="#231202"/>
        </g>
        <g id="Grupo_102286" data-name="Grupo 102286" transform="translate(3.415 0.003)">
          <path id="Trazado_158702" data-name="Trazado 158702" d="M298.276,262.095s1.25-.2,1.786,2.1c0,0,0-6.447-6.167-4.685C293.894,259.51,297.529,259.8,298.276,262.095Z" transform="translate(-293.894 -259.205)" fill="#301806"/>
        </g>
        <g id="Grupo_102287" data-name="Grupo 102287" transform="translate(2.822 5.715)">
          <path id="Trazado_158703" data-name="Trazado 158703" d="M294.918,265.261s-.394-1.38-1.2-.99c-.248.123-.532.4-.179,1.118s1.119,1.38,1.74,1.322Z" transform="translate(-293.376 -264.201)" fill="#f1b287"/>
        </g>
      </g>
      <path id="Trazado_158704" data-name="Trazado 158704" d="M290.1,270.933c-1.057-.145-2.8,1.073-1.057,3.739s5.22,8.495,6.466,8.566c1.008.057,2.6-.57.681-4.093S292.7,271.288,290.1,270.933Z" transform="translate(1.88 1.678)" fill="#f9f9f9"/>
      <path id="Trazado_158705" data-name="Trazado 158705" d="M303.106,278.981s2.29-1.19,3.089-1.017,1.62.056.576.841a7.53,7.53,0,0,1-3.7,1.7c-1.315.091-.95-1.667-.95-1.667Z" transform="translate(3.851 2.683)" fill="#e8a476"/>
      <path id="Trazado_158706" data-name="Trazado 158706" d="M293.665,279.578s-.594,2.3,1.365,2.756,9.478-1.368,9.478-1.368-.621-1.733.2-2.268C304.7,278.7,295.06,278.016,293.665,279.578Z" transform="translate(2.634 2.77)" fill="#f9f9f9"/>
      <g id="Grupo_102304" data-name="Grupo 102304" transform="translate(283.987 274.198)">
        <g id="Grupo_102293" data-name="Grupo 102293" transform="translate(60.996 1.488)">
          <g id="Grupo_102292" data-name="Grupo 102292" style="isolation: isolate">
            <g id="Grupo_102289" data-name="Grupo 102289" transform="translate(20.796 12.004)">
              <path id="Trazado_158707" data-name="Trazado 158707" d="M354.433,320.791l1.541-.894.1-35.774-1.538.9Z" transform="translate(-354.433 -284.123)" fill="#e6e6ff"/>
            </g>
            <g id="Grupo_102290" data-name="Grupo 102290" transform="translate(0.102)">
              <path id="Trazado_158708" data-name="Trazado 158708" d="M357.127,286.523l1.538-.9-20.8-12-1.539.892Z" transform="translate(-336.33 -273.622)" fill="#aeb6bc"/>
            </g>
            <g id="Grupo_102291" data-name="Grupo 102291" transform="translate(0 0.892)">
              <path id="Trazado_158709" data-name="Trazado 158709" d="M336.343,274.4l-.1,35.776,20.8,12,.1-35.772Z" transform="translate(-336.241 -274.402)" fill="#c0c0f6"/>
            </g>
          </g>
        </g>
        <g id="Grupo_102298" data-name="Grupo 102298" transform="translate(9.209 31.927)">
          <g id="Grupo_102297" data-name="Grupo 102297" style="isolation: isolate">
            <g id="Grupo_102294" data-name="Grupo 102294" transform="translate(20.797 12.008)">
              <path id="Trazado_158710" data-name="Trazado 158710" d="M309.132,347.421l1.539-.892.1-35.776-1.542.9Z" transform="translate(-309.132 -310.753)" fill="#92afff"/>
            </g>
            <g id="Grupo_102295" data-name="Grupo 102295" transform="translate(0.104)">
              <path id="Trazado_158711" data-name="Trazado 158711" d="M311.824,313.153l1.542-.9-20.793-12.008-1.542.9Z" transform="translate(-291.03 -300.249)" fill="#aeb6bc"/>
            </g>
            <g id="Grupo_102296" data-name="Grupo 102296" transform="translate(0 0.898)">
              <path id="Trazado_158712" data-name="Trazado 158712" d="M291.043,301.034l-.1,35.769,20.8,12.009.1-35.772Z" transform="translate(-290.939 -301.034)" fill="#6198d8"/>
            </g>
          </g>
        </g>
        <g id="Grupo_102303" data-name="Grupo 102303">
          <g id="Grupo_102302" data-name="Grupo 102302" style="isolation: isolate">
            <g id="Grupo_102299" data-name="Grupo 102299" transform="translate(0 35.243)">
              <path id="Trazado_158713" data-name="Trazado 158713" d="M282.884,303.149l0,2.277L309.7,321l-.009-2.271Z" transform="translate(-282.884 -303.149)" fill="#92afff"/>
            </g>
            <g id="Grupo_102300" data-name="Grupo 102300" transform="translate(26.808 15.586)">
              <path id="Trazado_158714" data-name="Trazado 158714" d="M306.335,321.195l.009,2.271,61.032-35.235,0-2.276Z" transform="translate(-306.335 -285.954)" fill="#92afff"/>
            </g>
            <g id="Grupo_102301" data-name="Grupo 102301">
              <path id="Trazado_158715" data-name="Trazado 158715" d="M282.884,307.563l26.809,15.583,61.036-35.24L343.918,272.32Z" transform="translate(-282.884 -272.32)" fill="#def4ff"/>
            </g>
          </g>
        </g>
      </g>
      <g id="Grupo_102305" data-name="Grupo 102305" transform="translate(324.167 289.813)" opacity="0.1">
        <path id="Trazado_158716" data-name="Trazado 158716" d="M332.375,287.407c3.3,1.9,3.313,4.988.038,6.891a13.107,13.107,0,0,1-11.9,0c-3.3-1.9-3.313-4.988-.039-6.891A13.11,13.11,0,0,1,332.375,287.407Z" transform="translate(-318.032 -285.979)"/>
      </g>
      <g id="Grupo_102306" data-name="Grupo 102306" transform="translate(307.553 306.418)" opacity="0.1">
        <path id="Trazado_158717" data-name="Trazado 158717" d="M317.841,301.933c3.3,1.9,3.312,4.988.039,6.891a13.11,13.11,0,0,1-11.9,0c-3.3-1.9-3.314-4.988-.038-6.891A13.107,13.107,0,0,1,317.841,301.933Z" transform="translate(-303.499 -300.505)"/>
      </g>
      <g id="Grupo_102330" data-name="Grupo 102330" transform="translate(346.032 282.476)">
        <path id="Trazado_158718" data-name="Trazado 158718" d="M349.551,285.56l-1.984,1.147-2.978,1.718-2.747,1.587-1.447.836-1.692.976-1.543.889,4.082,2.378,2.306-1.331.947-.546L346.6,292l2.853-1.646,3.132-1.807,1.049-.607Z" transform="translate(-337.159 -278.702)" opacity="0.1"/>
        <g id="Grupo_102311" data-name="Grupo 102311" transform="translate(11.735 3.084)">
          <g id="Grupo_102310" data-name="Grupo 102310" style="isolation: isolate">
            <g id="Grupo_102307" data-name="Grupo 102307" transform="translate(0.958 0.553)">
              <path id="Trazado_158719" data-name="Trazado 158719" d="M348.279,282.832l.153-.089-.017,6.088-.153.089Z" transform="translate(-348.263 -282.742)" fill="#afb1b1"/>
            </g>
            <g id="Grupo_102308" data-name="Grupo 102308" transform="translate(0.017)">
              <path id="Trazado_158720" data-name="Trazado 158720" d="M347.439,282.348l.155-.089.956.553-.153.089Z" transform="translate(-347.439 -282.259)" fill="#c4c5c5"/>
            </g>
            <g id="Grupo_102309" data-name="Grupo 102309" transform="translate(0 0.089)">
              <path id="Trazado_158721" data-name="Trazado 158721" d="M348.4,282.889l-.017,6.088-.958-.553.017-6.088Z" transform="translate(-347.425 -282.337)" fill="#dee0df"/>
            </g>
          </g>
        </g>
        <path id="Trazado_158722" data-name="Trazado 158722" d="M345.649,287.68a1.989,1.989,0,0,1,1.805.018.575.575,0,0,1,.34.6l1.1.678.761-.556-3.244-1.89-1.628.94.653.376A.95.95,0,0,1,345.649,287.68Z" transform="translate(-336.068 -278.563)" fill="#f3f4f4"/>
        <path id="Trazado_158723" data-name="Trazado 158723" d="M348.062,288.191a.814.814,0,0,1-.321.3,1.989,1.989,0,0,1-1.805-.019c-.394-.237-.453-.588-.193-.864l-.647-.374-2.251,1.3.6.351a.772.772,0,0,1,.117-.08,1.983,1.983,0,0,1,1.8.018c.319.191.418.457.31.7l1.062.644,2.338-1.35Z" transform="translate(-336.345 -278.463)" fill="#f3f4f4"/>
        <path id="Trazado_158724" data-name="Trazado 158724" d="M341.427,290.053a1.994,1.994,0,0,1,1.8.018c.337.2.428.485.289.736l1.044.634.777-.447,1.723-.995L346,289.357a.762.762,0,0,1-.349.349,1.987,1.987,0,0,1-1.8-.018c-.445-.269-.466-.681-.078-.966l-.6-.351-1.184.685-1.388.8.621.357A1,1,0,0,1,341.427,290.053Z" transform="translate(-336.667 -278.3)" fill="#f3f4f4"/>
        <path id="Trazado_158725" data-name="Trazado 158725" d="M343.679,290.621a.8.8,0,0,1-.327.309,1.98,1.98,0,0,1-1.8-.017c-.4-.243-.456-.606-.174-.886l-.621-.357-1.264.729,3.346,1.948,1.887-1.092Z" transform="translate(-336.825 -278.114)" fill="#f3f4f4"/>
        <path id="Trazado_158726" data-name="Trazado 158726" d="M342.416,292.559v.276l7.559-4.4.013-.25Z" transform="translate(-336.406 -278.326)" fill="#dee0df"/>
        <path id="Trazado_158727" data-name="Trazado 158727" d="M342.835,292.256l-3.346-1.948v.318l3.346,1.906Z" transform="translate(-336.825 -278.023)" fill="#e3e5e5"/>
        <path id="Trazado_158728" data-name="Trazado 158728" d="M345.469,283.48a1.99,1.99,0,0,1,1.8.018.572.572,0,0,1,.34.6l1.1.678.777-.546-3.263-1.9-1.624.939.652.376A1.013,1.013,0,0,1,345.469,283.48Z" transform="translate(-336.094 -279.164)" fill="#f3f4f4"/>
        <path id="Trazado_158729" data-name="Trazado 158729" d="M346.23,289.374h.228a.909.909,0,0,0,.909-.91v-8.111h-2.045v8.111A.91.91,0,0,0,346.23,289.374Z" transform="translate(-335.991 -279.448)" fill="#ade9f4"/>
        <path id="Trazado_158730" data-name="Trazado 158730" d="M346.227,288.832h.168a.671.671,0,0,0,.67-.672v-5.988h-1.509v5.988A.671.671,0,0,0,346.227,288.832Z" transform="translate(-335.957 -279.187)" fill="#298bed"/>
        <g id="Grupo_102313" data-name="Grupo 102313" transform="translate(9.598 2.548)">
          <g id="Grupo_102312" data-name="Grupo 102312">
            <path id="Trazado_158731" data-name="Trazado 158731" d="M346.856,281.923c.289.175.278.452-.023.618a1.176,1.176,0,0,1-1.068-.01c-.288-.174-.279-.45.022-.618A1.182,1.182,0,0,1,346.856,281.923Z" transform="translate(-345.555 -281.79)" fill="#0467d8"/>
          </g>
        </g>
        <path id="Trazado_158732" data-name="Trazado 158732" d="M347.887,284.006a.824.824,0,0,1-.32.3,1.986,1.986,0,0,1-1.805-.018c-.4-.238-.454-.589-.194-.864l-.646-.374-2.251,1.3.6.349a1.231,1.231,0,0,1,.118-.078,1.987,1.987,0,0,1,1.8.016c.318.192.417.458.31.7l1.061.641,2.338-1.349Z" transform="translate(-336.37 -279.062)" fill="#f3f4f4"/>
        <g id="Grupo_102317" data-name="Grupo 102317" transform="translate(6.763 1.296)">
          <path id="Trazado_158733" data-name="Trazado 158733" d="M344.082,290.507h.228a.908.908,0,0,0,.909-.909v-8.112h-2.045V289.6A.907.907,0,0,0,344.082,290.507Z" transform="translate(-343.061 -280.582)" fill="#ade9f4"/>
          <path id="Trazado_158734" data-name="Trazado 158734" d="M344.077,289.965h.169a.67.67,0,0,0,.671-.67v-5.989h-1.51V289.3A.67.67,0,0,0,344.077,289.965Z" transform="translate(-343.027 -280.321)" fill="#298bed"/>
          <g id="Grupo_102314" data-name="Grupo 102314" transform="translate(0 0.654)">
            <path id="Trazado_158735" data-name="Trazado 158735" d="M343.075,281.748v-.476c0,.163.169.282.38.409a1.514,1.514,0,0,0,1.475.019c.233-.131.415-.261.415-.434v.473a.576.576,0,0,1-.349.477,1.77,1.77,0,0,1-1.6-.017A.553.553,0,0,1,343.075,281.748Z" transform="translate(-343.075 -281.267)" fill="#7fe2f4"/>
          </g>
          <g id="Grupo_102315" data-name="Grupo 102315" transform="translate(0)">
            <path id="Trazado_158736" data-name="Trazado 158736" d="M345.029,280.9c.433.261.418.677-.034.929a1.77,1.77,0,0,1-1.6-.017c-.433-.262-.418-.678.033-.931A1.772,1.772,0,0,1,345.029,280.9Z" transform="translate(-343.075 -280.695)" fill="#cdf6fc"/>
            <path id="Trazado_158737" data-name="Trazado 158737" d="M344.185,281.827a1.454,1.454,0,0,1-.73-.177c-.155-.094-.241-.207-.237-.32s.1-.237.265-.329a1.613,1.613,0,0,1,1.44.013.413.413,0,0,1,.239.321.44.44,0,0,1-.266.329A1.478,1.478,0,0,1,344.185,281.827Z" transform="translate(-343.055 -280.674)" fill="#7fe2f4"/>
          </g>
          <g id="Grupo_102316" data-name="Grupo 102316" transform="translate(0.38 2.546)">
            <path id="Trazado_158738" data-name="Trazado 158738" d="M344.708,283.057c.289.174.278.452-.024.618a1.17,1.17,0,0,1-1.067-.011c-.288-.173-.279-.449.021-.618A1.177,1.177,0,0,1,344.708,283.057Z" transform="translate(-343.407 -282.922)" fill="#0467d8"/>
          </g>
        </g>
        <path id="Trazado_158739" data-name="Trazado 158739" d="M341.252,285.867a2,2,0,0,1,1.8.018c.336.2.428.486.289.737l1.045.634.775-.449,1.723-.995-1.061-.641a.779.779,0,0,1-.348.347,1.982,1.982,0,0,1-1.805-.019c-.446-.266-.466-.68-.079-.966l-.6-.349-1.185.684-1.387.8.62.359A1.026,1.026,0,0,1,341.252,285.867Z" transform="translate(-336.692 -278.899)" fill="#f3f4f4"/>
        <path id="Trazado_158740" data-name="Trazado 158740" d="M341.941,291.7h.227a.909.909,0,0,0,.91-.91v-8.111h-2.046v8.111A.909.909,0,0,0,341.941,291.7Z" transform="translate(-336.605 -279.115)" fill="#ade9f4"/>
        <path id="Trazado_158741" data-name="Trazado 158741" d="M341.937,291.157h.168a.672.672,0,0,0,.672-.671V284.5h-1.51v5.988A.67.67,0,0,0,341.937,291.157Z" transform="translate(-336.571 -278.854)" fill="#298bed"/>
        <g id="Grupo_102318" data-name="Grupo 102318" transform="translate(4.695 5.205)">
          <path id="Trazado_158742" data-name="Trazado 158742" d="M342.567,284.248c.289.176.278.452-.022.618a1.175,1.175,0,0,1-1.069-.009c-.288-.175-.279-.452.023-.618A1.172,1.172,0,0,1,342.567,284.248Z" transform="translate(-341.266 -284.114)" fill="#0467d8"/>
        </g>
        <path id="Trazado_158743" data-name="Trazado 158743" d="M343.5,286.436a.818.818,0,0,1-.327.309,1.99,1.99,0,0,1-1.8-.018c-.4-.243-.457-.606-.175-.885l-.62-.359-1.264.729,3.345,1.948,1.89-1.089Z" transform="translate(-336.85 -278.713)" fill="#f3f4f4"/>
        <path id="Trazado_158744" data-name="Trazado 158744" d="M342.241,288.373v.276l7.571-4.4.011-.249Z" transform="translate(-336.431 -278.926)" fill="#dee0df"/>
        <path id="Trazado_158745" data-name="Trazado 158745" d="M342.66,288.069l-3.345-1.948v.318l3.345,1.906Z" transform="translate(-336.85 -278.622)" fill="#e3e5e5"/>
        <g id="Grupo_102323" data-name="Grupo 102323" transform="translate(3.365 7.363)">
          <g id="Grupo_102322" data-name="Grupo 102322" style="isolation: isolate">
            <g id="Grupo_102319" data-name="Grupo 102319" transform="translate(0.956 0.551)">
              <path id="Trazado_158746" data-name="Trazado 158746" d="M340.956,286.575l.154-.09-.018,6.089-.154.089Z" transform="translate(-340.938 -286.484)" fill="#afb1b1"/>
            </g>
            <g id="Grupo_102320" data-name="Grupo 102320" transform="translate(0.016)">
              <path id="Trazado_158747" data-name="Trazado 158747" d="M340.116,286.091l.154-.089.958.551-.154.09Z" transform="translate(-340.116 -286.002)" fill="#c4c5c5"/>
            </g>
            <g id="Grupo_102321" data-name="Grupo 102321" transform="translate(0 0.089)">
              <path id="Trazado_158748" data-name="Trazado 158748" d="M341.076,286.633l-.018,6.088-.956-.553.016-6.088Z" transform="translate(-340.102 -286.08)" fill="#dee0df"/>
            </g>
          </g>
        </g>
        <g id="Grupo_102324" data-name="Grupo 102324" transform="translate(9.22 0.654)">
          <path id="Trazado_158749" data-name="Trazado 158749" d="M345.224,280.614v-.473c0,.161.168.28.38.407a1.514,1.514,0,0,0,1.475.019c.233-.131.414-.261.414-.434v.474a.576.576,0,0,1-.349.476,1.761,1.761,0,0,1-1.6-.016A.554.554,0,0,1,345.224,280.614Z" transform="translate(-345.224 -280.133)" fill="#7fe2f4"/>
        </g>
        <g id="Grupo_102325" data-name="Grupo 102325" transform="translate(9.219)">
          <path id="Trazado_158750" data-name="Trazado 158750" d="M347.178,279.762c.432.261.418.677-.035.929a1.759,1.759,0,0,1-1.6-.017c-.433-.261-.417-.677.033-.928A1.768,1.768,0,0,1,347.178,279.762Z" transform="translate(-345.223 -279.561)" fill="#cdf6fc"/>
          <path id="Trazado_158751" data-name="Trazado 158751" d="M346.334,280.694a1.441,1.441,0,0,1-.732-.178c-.155-.093-.241-.207-.237-.319s.1-.236.265-.329a1.609,1.609,0,0,1,1.44.011.415.415,0,0,1,.239.321.439.439,0,0,1-.265.329A1.481,1.481,0,0,1,346.334,280.694Z" transform="translate(-345.203 -279.541)" fill="#7fe2f4"/>
        </g>
        <g id="Grupo_102326" data-name="Grupo 102326" transform="translate(4.317 3.313)">
          <path id="Trazado_158752" data-name="Trazado 158752" d="M340.935,282.939v-.474c0,.164.169.281.38.408a1.508,1.508,0,0,0,1.475.019c.233-.129.414-.261.414-.433v.473a.575.575,0,0,1-.349.476,1.76,1.76,0,0,1-1.6-.016A.551.551,0,0,1,340.935,282.939Z" transform="translate(-340.935 -282.459)" fill="#7fe2f4"/>
        </g>
        <g id="Grupo_102327" data-name="Grupo 102327" transform="translate(4.316 2.659)">
          <path id="Trazado_158753" data-name="Trazado 158753" d="M342.889,282.088c.432.26.418.676-.034.929a1.766,1.766,0,0,1-1.6-.017c-.434-.262-.418-.677.033-.929A1.769,1.769,0,0,1,342.889,282.088Z" transform="translate(-340.935 -281.887)" fill="#cdf6fc"/>
          <path id="Trazado_158754" data-name="Trazado 158754" d="M342.044,283.02a1.458,1.458,0,0,1-.73-.179c-.154-.093-.241-.206-.237-.319s.1-.235.266-.329a1.476,1.476,0,0,1,.709-.163,1.454,1.454,0,0,1,.73.177.4.4,0,0,1,.238.319c0,.117-.1.237-.264.33A1.5,1.5,0,0,1,342.044,283.02Z" transform="translate(-340.914 -281.867)" fill="#7fe2f4"/>
        </g>
        <g id="Grupo_102328" data-name="Grupo 102328" transform="translate(2.605 5.706)" opacity="0.4">
          <path id="Trazado_158755" data-name="Trazado 158755" d="M340.442,287.436a6.1,6.1,0,0,0,4.815,0c1.326-.658,1.32-1.727-.015-2.389a6.1,6.1,0,0,0-4.814,0c-1.326.662-1.32,1.731.014,2.389" transform="translate(-339.437 -284.552)" fill="#fcfdfd" opacity="0"/>
          <path id="Trazado_158756" data-name="Trazado 158756" d="M340.56,288.077a5.627,5.627,0,0,0,4.526,0c1.246-.63,1.24-1.655-.014-2.289a5.653,5.653,0,0,0-4.525,0c-1.246.633-1.24,1.659.013,2.289" transform="translate(-339.412 -284.443)" fill="#fdfdfd" opacity="0.167"/>
          <path id="Trazado_158757" data-name="Trazado 158757" d="M340.68,288.719a5.171,5.171,0,0,0,4.235,0c1.167-.6,1.16-1.582-.014-2.187a5.168,5.168,0,0,0-4.234,0c-1.167.6-1.16,1.582.013,2.187" transform="translate(-339.386 -284.334)" fill="#fdfefe" opacity="0.333"/>
          <path id="Trazado_158758" data-name="Trazado 158758" d="M340.8,289.359a4.721,4.721,0,0,0,3.946,0c1.087-.576,1.081-1.509-.013-2.086a4.727,4.727,0,0,0-3.945,0c-1.087.577-1.081,1.51.011,2.086" transform="translate(-339.36 -284.224)" fill="#fefefe" opacity="0.5"/>
          <path id="Trazado_158759" data-name="Trazado 158759" d="M340.918,290a4.263,4.263,0,0,0,3.655,0c1.007-.548,1-1.436-.01-1.984a4.276,4.276,0,0,0-3.657,0c-1,.549-1,1.437.013,1.984" transform="translate(-339.335 -284.115)" fill="#fefefe" opacity="0.667"/>
          <path id="Trazado_158760" data-name="Trazado 158760" d="M341.036,290.641a3.827,3.827,0,0,0,3.367,0c.927-.521.921-1.363-.011-1.884a3.834,3.834,0,0,0-3.367,0c-.926.521-.92,1.363.011,1.884" transform="translate(-339.309 -284.006)" fill="#fff" opacity="0.833"/>
          <path id="Trazado_158761" data-name="Trazado 158761" d="M341.155,291.282a3.393,3.393,0,0,0,3.076,0,.942.942,0,0,0-.01-1.783,3.4,3.4,0,0,0-3.077,0,.943.943,0,0,0,.011,1.783" transform="translate(-339.283 -283.897)" fill="#fff"/>
        </g>
        <g id="Grupo_102329" data-name="Grupo 102329" transform="translate(5.093 2.82)" opacity="0.4">
          <path id="Trazado_158762" data-name="Trazado 158762" d="M342.778,285.365a7.05,7.05,0,0,0,5.571,0c1.534-.764,1.525-2-.018-2.763a7.052,7.052,0,0,0-5.572,0c-1.533.762-1.525,2,.019,2.763" transform="translate(-341.614 -282.028)" fill="#fcfdfd" opacity="0"/>
          <path id="Trazado_158763" data-name="Trazado 158763" d="M342.915,286.106a6.507,6.507,0,0,0,5.235,0c1.443-.732,1.434-1.916-.016-2.645a6.51,6.51,0,0,0-5.236,0c-1.442.729-1.434,1.914.017,2.645" transform="translate(-341.584 -281.902)" fill="#fdfdfd" opacity="0.167"/>
          <path id="Trazado_158764" data-name="Trazado 158764" d="M343.052,286.848a5.984,5.984,0,0,0,4.9,0c1.349-.7,1.342-1.831-.016-2.53a5.993,5.993,0,0,0-4.9,0c-1.349.7-1.342,1.83.016,2.53" transform="translate(-341.555 -281.775)" fill="#fdfefe" opacity="0.333"/>
          <path id="Trazado_158765" data-name="Trazado 158765" d="M343.189,287.59a5.452,5.452,0,0,0,4.565,0c1.257-.666,1.251-1.747-.014-2.413a5.463,5.463,0,0,0-4.566,0c-1.256.666-1.251,1.747.015,2.413" transform="translate(-341.525 -281.649)" fill="#fefefe" opacity="0.5"/>
          <path id="Trazado_158766" data-name="Trazado 158766" d="M343.328,288.331a4.935,4.935,0,0,0,4.229,0c1.165-.633,1.159-1.661-.014-2.294a4.929,4.929,0,0,0-4.23,0c-1.165.633-1.159,1.661.015,2.294" transform="translate(-341.495 -281.523)" fill="#fefefe" opacity="0.667"/>
          <path id="Trazado_158767" data-name="Trazado 158767" d="M343.464,289.072a4.415,4.415,0,0,0,3.895,0c1.072-.6,1.068-1.576-.011-2.178a4.422,4.422,0,0,0-3.895,0c-1.072.6-1.068,1.576.011,2.178" transform="translate(-341.465 -281.396)" fill="#fff" opacity="0.833"/>
          <path id="Trazado_158768" data-name="Trazado 158768" d="M343.6,289.815a3.921,3.921,0,0,0,3.559,0,1.089,1.089,0,0,0-.011-2.062,3.921,3.921,0,0,0-3.559,0,1.089,1.089,0,0,0,.011,2.062" transform="translate(-341.436 -281.27)" fill="#fff"/>
        </g>
      </g>
      <g id="Grupo_102335" data-name="Grupo 102335" transform="translate(325.34 276.605)">
        <path id="Trazado_158769" data-name="Trazado 158769" d="M327.452,282.67v-7.106h-4.47v7.106a6.163,6.163,0,1,0,4.47,0Z" transform="translate(-319.058 -274.262)" fill="#4ed3f3"/>
        <path id="Trazado_158770" data-name="Trazado 158770" d="M327.452,282.67v-7.106h-4.47v7.106a6.163,6.163,0,1,0,4.47,0Z" transform="translate(-319.058 -274.262)" fill="#defdff"/>
        <path id="Trazado_158771" data-name="Trazado 158771" d="M330.4,287.387a5.273,5.273,0,1,1-5.272-5.374A5.324,5.324,0,0,1,330.4,287.387Z" transform="translate(-318.944 -273.339)" fill="#3484ff"/>
        <rect id="Rectángulo_35690" data-name="Rectángulo 35690" width="3.241" height="8.401" transform="translate(4.512 2.132)" fill="#3484ff"/>
        <path id="Trazado_158772" data-name="Trazado 158772" d="M329.642,284.167a2.4,2.4,0,0,1-1.111,2.757,7.638,7.638,0,0,1-6.721,0,2.221,2.221,0,0,1-1.171-2.709,6.049,6.049,0,0,0-1.008,3.123,5.4,5.4,0,0,0,5.507,5.286,5.291,5.291,0,0,0,5.507-5.286A6.815,6.815,0,0,0,329.642,284.167Z" transform="translate(-318.976 -273.031)" fill="#4e93f9"/>
        <path id="Trazado_158773" data-name="Trazado 158773" d="M321.713,287.148a7.638,7.638,0,0,0,6.721,0c1.134-.637,1.568-1.515,1.308-2.34a2.653,2.653,0,0,0-1.32-1.415l-.009-.006a7.637,7.637,0,0,0-6.722,0c-.035.019-.067.04-.1.059a2.64,2.64,0,0,0-1.169,1.245C320.086,285.548,320.517,286.48,321.713,287.148Z" transform="translate(-318.879 -273.254)" fill="#8dd5ff"/>
        <g id="Grupo_102333" data-name="Grupo 102333" transform="translate(3.626)">
          <g id="Grupo_102331" data-name="Grupo 102331" transform="translate(0.002)">
            <path id="Trazado_158774" data-name="Trazado 158774" d="M326.592,274.873c.969.583.935,1.512-.075,2.075a3.942,3.942,0,0,1-3.579-.035c-.969-.583-.936-1.512.073-2.076A3.95,3.95,0,0,1,326.592,274.873Z" transform="translate(-322.231 -274.425)" fill="#9ff8ff"/>
            <path id="Trazado_158775" data-name="Trazado 158775" d="M324.712,276.963a3.28,3.28,0,0,1-1.638-.4.905.905,0,0,1-.534-.72.981.981,0,0,1,.6-.743,3.33,3.33,0,0,1,1.59-.368,3.269,3.269,0,0,1,1.637.4.907.907,0,0,1,.535.72c0,.263-.223.534-.6.743A3.328,3.328,0,0,1,324.712,276.963Z" transform="translate(-322.187 -274.381)" fill="#2bb4da"/>
            <path id="Trazado_158776" data-name="Trazado 158776" d="M323.138,275.412a3.33,3.33,0,0,1,1.59-.366,3.281,3.281,0,0,1,1.637.4,1.079,1.079,0,0,1,.509.556.541.541,0,0,0,.026-.145.907.907,0,0,0-.535-.72,3.269,3.269,0,0,0-1.637-.4,3.33,3.33,0,0,0-1.59.368.981.981,0,0,0-.6.743.552.552,0,0,0,.026.166A1.141,1.141,0,0,1,323.138,275.412Z" transform="translate(-322.187 -274.381)" fill="#1c9cba"/>
          </g>
          <g id="Grupo_102332" data-name="Grupo 102332" transform="translate(0 1.459)">
            <path id="Trazado_158777" data-name="Trazado 158777" d="M322.233,276.434l0-.717a1.242,1.242,0,0,0,.708,1.013,3.942,3.942,0,0,0,3.579.035,1.286,1.286,0,0,0,.781-1.063l0,.716a1.291,1.291,0,0,1-.781,1.064,3.949,3.949,0,0,1-3.579-.037A1.24,1.24,0,0,1,322.233,276.434Z" transform="translate(-322.23 -275.702)" fill="#65e0f6"/>
          </g>
        </g>
        <g id="Grupo_102334" data-name="Grupo 102334" transform="translate(2.514 11.811)">
          <path id="Trazado_158778" data-name="Trazado 158778" d="M323.434,286.81a1.172,1.172,0,1,1-.007-1.882A1.359,1.359,0,0,1,323.434,286.81Z" transform="translate(-321.257 -284.757)" fill="#fff" opacity="0.5"/>
          <path id="Trazado_158779" data-name="Trazado 158779" d="M322.831,288.519a.566.566,0,1,1-.251-.858A.647.647,0,0,1,322.831,288.519Z" transform="translate(-321.186 -284.346)" fill="#fff" opacity="0.5"/>
        </g>
      </g>
      <g id="Grupo_102342" data-name="Grupo 102342" transform="translate(309.106 295.72)">
        <path id="Trazado_158780" data-name="Trazado 158780" d="M316.518,305.44h.015l-.126-.258-.014-.03-3.339-6.82h0V292.68h-4.61v5.652l-3.291,6.723a2.661,2.661,0,0,0-.129.263l-.037.077h.006c-.414,1.1.117,2.3,1.6,3.156a9.2,9.2,0,0,0,8.342,0C316.388,307.7,316.913,306.528,316.518,305.44Z" transform="translate(-304.857 -290.927)" fill="#d2e6fe"/>
        <path id="Trazado_158781" data-name="Trazado 158781" d="M316.518,305.44h.015l-.126-.258-.014-.03-3.339-6.82h0V292.68h-4.61v5.652l-3.291,6.723a2.661,2.661,0,0,0-.129.263l-.037.077h.006c-.414,1.1.117,2.3,1.6,3.156a9.2,9.2,0,0,0,8.342,0C316.388,307.7,316.913,306.528,316.518,305.44Z" transform="translate(-304.857 -290.927)" fill="#d2e6fe"/>
        <path id="Trazado_158782" data-name="Trazado 158782" d="M316.518,305.44h.015l-.126-.258-.014-.03-3.339-6.82h0V292.68h-4.61v5.652l-3.291,6.723a2.661,2.661,0,0,0-.129.263l-.037.077h.006c-.414,1.1.117,2.3,1.6,3.156a9.2,9.2,0,0,0,8.342,0C316.388,307.7,316.913,306.528,316.518,305.44Z" transform="translate(-304.857 -290.927)" fill="#defdff"/>
        <path id="Trazado_158783" data-name="Trazado 158783" d="M315.376,304.989h.011l-.086-.178-.034-.073-2.832-6.4h0l.024-5.816-3.684.053-.029,5.764-2.86,6.269a2.088,2.088,0,0,0-.158.332l-.007.011h0c-.346.94.1,1.961,1.343,2.691a7.559,7.559,0,0,0,6.98,0C315.265,306.921,315.706,305.918,315.376,304.989Z" transform="translate(-304.749 -290.95)" fill="#3484ff"/>
        <g id="Grupo_102336" data-name="Grupo 102336" transform="translate(3.587 0.536)">
          <path id="Trazado_158784" data-name="Trazado 158784" d="M311.925,292.007a1,1,0,0,1,.01,1.887,3.591,3.591,0,0,1-3.259,0,1,1,0,0,1-.011-1.889A3.591,3.591,0,0,1,311.925,292.007Z" transform="translate(-307.995 -291.615)" fill="#8bc3de"/>
        </g>
        <path id="Trazado_158785" data-name="Trazado 158785" d="M315.976,304.152h0l0,0a2.186,2.186,0,0,0-.222-.4l-1.77-3.241h-6.589l-1.868,3.381c-.017.031-.034.062-.05.094l0,.007h0c-.519,1.025-.054,2.177,1.4,2.984a8.712,8.712,0,0,0,7.672,0C315.9,306.207,316.379,305.137,315.976,304.152Z" transform="translate(-304.799 -289.807)" fill="#4e93f9"/>
        <g id="Grupo_102337" data-name="Grupo 102337" transform="translate(2.485 9.278)">
          <path id="Trazado_158786" data-name="Trazado 158786" d="M312.841,299.822c1.334.743,1.342,1.951.015,2.7a5.471,5.471,0,0,1-4.818,0c-1.335-.744-1.343-1.952-.016-2.7A5.477,5.477,0,0,1,312.841,299.822Z" transform="translate(-307.031 -299.263)" fill="#8dd5ff"/>
        </g>
        <path id="Trazado_158787" data-name="Trazado 158787" d="M306.593,308.55c.095.055.2.1.3.155l3.764-10.348.091-5.678h-1.925l.033,5.636-4,7.727A2.9,2.9,0,0,0,306.593,308.55Z" transform="translate(-304.857 -290.927)" fill="#fff" opacity="0.1"/>
        <g id="Grupo_102340" data-name="Grupo 102340" transform="translate(3.265)">
          <g id="Grupo_102338" data-name="Grupo 102338" transform="translate(0)">
            <path id="Trazado_158788" data-name="Trazado 158788" d="M312.184,291.607c.993.6.959,1.549-.075,2.126a4.05,4.05,0,0,1-3.673-.037c-.992-.6-.958-1.549.078-2.126A4.034,4.034,0,0,1,312.184,291.607Z" transform="translate(-307.713 -291.147)" fill="#9ff8ff"/>
            <path id="Trazado_158789" data-name="Trazado 158789" d="M310.256,293.747a3.341,3.341,0,0,1-1.678-.408.924.924,0,0,1-.548-.737,1.008,1.008,0,0,1,.613-.763,3.412,3.412,0,0,1,1.629-.376,3.374,3.374,0,0,1,1.68.407.928.928,0,0,1,.546.738c0,.27-.226.548-.613.764A3.41,3.41,0,0,1,310.256,293.747Z" transform="translate(-307.668 -291.101)" fill="#2bb4da"/>
            <path id="Trazado_158790" data-name="Trazado 158790" d="M308.643,292.158a3.411,3.411,0,0,1,1.629-.376,3.362,3.362,0,0,1,1.68.408,1.1,1.1,0,0,1,.52.568.567.567,0,0,0,.026-.15.928.928,0,0,0-.546-.738,3.374,3.374,0,0,0-1.68-.407,3.412,3.412,0,0,0-1.629.376,1.008,1.008,0,0,0-.613.763.486.486,0,0,0,.027.17A1.168,1.168,0,0,1,308.643,292.158Z" transform="translate(-307.668 -291.101)" fill="#1c9cba"/>
          </g>
          <g id="Grupo_102339" data-name="Grupo 102339" transform="translate(0 1.497)">
            <path id="Trazado_158791" data-name="Trazado 158791" d="M307.714,293.2v-.734a1.276,1.276,0,0,0,.722,1.038,4.05,4.05,0,0,0,3.673.037,1.321,1.321,0,0,0,.8-1.089l0,.734a1.323,1.323,0,0,1-.8,1.089,4.05,4.05,0,0,1-3.673-.037A1.278,1.278,0,0,1,307.714,293.2Z" transform="translate(-307.713 -292.456)" fill="#65e0f6"/>
          </g>
        </g>
        <g id="Grupo_102341" data-name="Grupo 102341" transform="translate(2.499 11.028)">
          <path id="Trazado_158792" data-name="Trazado 158792" d="M308.97,302.609a1.038,1.038,0,1,1-.006-1.664A1.2,1.2,0,0,1,308.97,302.609Z" transform="translate(-307.043 -300.793)" fill="#fff" opacity="0.5"/>
          <path id="Trazado_158793" data-name="Trazado 158793" d="M308.437,304.123a.5.5,0,1,1-.223-.76A.57.57,0,0,1,308.437,304.123Z" transform="translate(-306.98 -300.429)" fill="#fff" opacity="0.5"/>
        </g>
      </g>
      <g id="Grupo_102349" data-name="Grupo 102349" transform="translate(310.537 269.838)">
        <path id="Trazado_158794" data-name="Trazado 158794" d="M314.732,279.076h.011l-.093-.192-.01-.022-2.469-5.042h0V269.64h-3.408v4.179l-2.435,4.97a2.058,2.058,0,0,0-.1.2l-.027.055h0c-.305.815.087,1.7,1.183,2.334a6.791,6.791,0,0,0,6.169,0C314.637,280.749,315.024,279.88,314.732,279.076Z" transform="translate(-306.109 -268.344)" fill="#d2e6fe"/>
        <path id="Trazado_158795" data-name="Trazado 158795" d="M314.732,279.076h.011l-.093-.192-.01-.022-2.469-5.042h0V269.64h-3.408v4.179l-2.435,4.97a2.058,2.058,0,0,0-.1.2l-.027.055h0c-.305.815.087,1.7,1.183,2.334a6.791,6.791,0,0,0,6.169,0C314.637,280.749,315.024,279.88,314.732,279.076Z" transform="translate(-306.109 -268.344)" fill="#d2e6fe"/>
        <path id="Trazado_158796" data-name="Trazado 158796" d="M314.732,279.076h.011l-.093-.192-.01-.022-2.469-5.042h0V269.64h-3.408v4.179l-2.435,4.97a2.058,2.058,0,0,0-.1.2l-.027.055h0c-.305.815.087,1.7,1.183,2.334a6.791,6.791,0,0,0,6.169,0C314.637,280.749,315.024,279.88,314.732,279.076Z" transform="translate(-306.109 -268.344)" fill="#defdff"/>
        <path id="Trazado_158797" data-name="Trazado 158797" d="M313.887,278.742h.009l-.064-.131c-.009-.019-.016-.037-.025-.054l-2.093-4.733h0l.018-4.3-2.725.04-.021,4.262-2.115,4.636a1.451,1.451,0,0,0-.118.245l0,.008h0c-.256.7.074,1.451.992,1.991a5.6,5.6,0,0,0,5.163,0C313.8,280.171,314.132,279.429,313.887,278.742Z" transform="translate(-306.03 -268.36)" fill="#3484ff"/>
        <g id="Grupo_102343" data-name="Grupo 102343" transform="translate(2.652 0.396)">
          <path id="Trazado_158798" data-name="Trazado 158798" d="M311.337,269.142a.737.737,0,0,1,.007,1.395,2.652,2.652,0,0,1-2.411,0,.737.737,0,0,1-.008-1.4A2.658,2.658,0,0,1,311.337,269.142Z" transform="translate(-308.43 -268.852)" fill="#8bc3de"/>
        </g>
        <path id="Trazado_158799" data-name="Trazado 158799" d="M314.332,278.122h0v0a1.557,1.557,0,0,0-.163-.3l-1.309-2.4h-4.872l-1.381,2.5c-.013.024-.025.047-.037.071l0,.006h0c-.385.758-.04,1.608,1.03,2.205a6.44,6.44,0,0,0,5.674,0C314.276,279.642,314.63,278.851,314.332,278.122Z" transform="translate(-306.066 -267.515)" fill="#4e93f9"/>
        <g id="Grupo_102344" data-name="Grupo 102344" transform="translate(1.837 6.861)">
          <path id="Trazado_158800" data-name="Trazado 158800" d="M312.014,274.921c.987.55.991,1.443.009,1.993a4.045,4.045,0,0,1-3.562,0c-.988-.55-.993-1.443-.013-1.994A4.056,4.056,0,0,1,312.014,274.921Z" transform="translate(-307.717 -274.507)" fill="#8dd5ff"/>
        </g>
        <path id="Trazado_158801" data-name="Trazado 158801" d="M307.393,281.375c.072.041.146.077.221.115l2.782-7.651.069-4.2h-1.422l.024,4.167-2.955,5.714A2.142,2.142,0,0,0,307.393,281.375Z" transform="translate(-306.109 -268.344)" fill="#fff" opacity="0.1"/>
        <g id="Grupo_102347" data-name="Grupo 102347" transform="translate(2.414)">
          <g id="Grupo_102345" data-name="Grupo 102345">
            <path id="Trazado_158802" data-name="Trazado 158802" d="M311.527,268.847c.735.441.709,1.145-.056,1.572a2.986,2.986,0,0,1-2.716-.029c-.733-.441-.709-1.144.058-1.572A2.984,2.984,0,0,1,311.527,268.847Z" transform="translate(-308.221 -268.506)" fill="#9ff8ff"/>
            <path id="Trazado_158803" data-name="Trazado 158803" d="M310.1,270.429a2.486,2.486,0,0,1-1.24-.3.685.685,0,0,1-.4-.546.748.748,0,0,1,.453-.565,2.536,2.536,0,0,1,1.2-.278,2.493,2.493,0,0,1,1.244.3c.265.16.409.354.4.545s-.168.406-.454.566A2.53,2.53,0,0,1,310.1,270.429Z" transform="translate(-308.188 -268.473)" fill="#2bb4da"/>
            <path id="Trazado_158804" data-name="Trazado 158804" d="M308.909,269.255a2.523,2.523,0,0,1,1.2-.279,2.493,2.493,0,0,1,1.244.3.808.808,0,0,1,.384.421.43.43,0,0,0,.021-.112c0-.191-.139-.385-.4-.545a2.493,2.493,0,0,0-1.244-.3,2.536,2.536,0,0,0-1.2.278.748.748,0,0,0-.453.565.378.378,0,0,0,.021.127A.852.852,0,0,1,308.909,269.255Z" transform="translate(-308.188 -268.473)" fill="#1c9cba"/>
          </g>
          <g id="Grupo_102346" data-name="Grupo 102346" transform="translate(0.001 1.108)">
            <path id="Trazado_158805" data-name="Trazado 158805" d="M308.222,270.027v-.543a.935.935,0,0,0,.533.767,2.986,2.986,0,0,0,2.716.029.98.98,0,0,0,.592-.8v.541a.973.973,0,0,1-.591.806,3,3,0,0,1-2.716-.026A.952.952,0,0,1,308.222,270.027Z" transform="translate(-308.222 -269.475)" fill="#65e0f6"/>
          </g>
        </g>
        <g id="Grupo_102348" data-name="Grupo 102348" transform="translate(1.847 8.154)">
          <path id="Trazado_158806" data-name="Trazado 158806" d="M309.153,276.982a.768.768,0,1,1-.006-1.232A.895.895,0,0,1,309.153,276.982Z" transform="translate(-307.725 -275.638)" fill="#fff" opacity="0.5"/>
          <path id="Trazado_158807" data-name="Trazado 158807" d="M308.757,278.1a.37.37,0,1,1-.165-.562A.422.422,0,0,1,308.757,278.1Z" transform="translate(-307.679 -275.369)" fill="#fff" opacity="0.5"/>
        </g>
      </g>
      <path id="Trazado_158808" data-name="Trazado 158808" d="M312.806,273.379s-2.253-.792-2.026.391S312.12,277.062,312.806,273.379Z" transform="translate(5.094 1.993)" fill="#e8a476"/>
    </g>
  </g>
</svg>
