<svg xmlns="http://www.w3.org/2000/svg" xmlns:xlink="http://www.w3.org/1999/xlink" width="177.017" height="177.017" viewBox="0 0 177.017 177.017">
  <defs>
    <linearGradient id="linear-gradient" x1="0.059" y1="-0.237" x2="1.358" y2="1.933" gradientUnits="objectBoundingBox">
      <stop offset="0" stop-color="#e7fe8f"/>
      <stop offset="0.962" stop-color="#7af4ab"/>
    </linearGradient>
  </defs>
  <g id="Grupo_102468" data-name="Grupo 102468" transform="translate(-1032.983 -1603)">
    <circle id="Elipse_4586" data-name="Elipse 4586" cx="88.509" cy="88.509" r="88.509" transform="translate(1210 1603) rotate(90)" fill="url(#linear-gradient)"/>
    <g id="Grupo_102459" data-name="Grupo 102459" transform="translate(1197.875 1614.969) rotate(90)">
      <path id="Trazado_156338" data-name="Trazado 156338" d="M304.223,254.194a76.4,76.4,0,1,0-76.4,76.4A76.1,76.1,0,0,0,304.223,254.194Z" transform="translate(-152.339 -178.702)" fill="#fff"/>
    </g>
    <g id="Grupo_102460" data-name="Grupo 102460" transform="translate(710.642 1620.227)">
      <path id="Trazado_158809" data-name="Trazado 158809" d="M463.109,91.96a21.283,21.283,0,0,0-9.645-2.528c6.83-7.592,4.705-17.193-6.348-23.574C433.5,58,411.5,58,397.974,65.858c-.5.29-.974.587-1.435.89-11.547-1.738-24.307-.011-33.315,5.225-13.526,7.86-13.454,20.605.161,28.463s35.615,7.861,49.14,0c.5-.29.973-.587,1.435-.889a58.528,58.528,0,0,0,23.479-1.23c.092,2.171,1.562,4.328,4.431,5.984,5.9,3.409,15.442,3.409,21.307,0S469.012,95.368,463.109,91.96Z" opacity="0.1"/>
      <g id="Grupo_102357" data-name="Grupo 102357">
        <path id="Trazado_158810" data-name="Trazado 158810" d="M447.874,75.2h.057l-.456-.933q-.025-.055-.051-.108l-12.06-24.638h0V29.11H418.708V49.524L406.817,73.811a9.062,9.062,0,0,0-.468.955l-.133.271h.021c-1.495,3.98.423,8.307,5.783,11.4,8.349,4.819,21.836,4.818,30.131,0C447.4,83.387,449.3,79.135,447.874,75.2Z" fill="#d2e6fe"/>
        <path id="Trazado_158811" data-name="Trazado 158811" d="M447.874,75.2h.057l-.456-.933q-.025-.055-.051-.108l-12.06-24.638h0V29.11H418.708V49.524L406.817,73.811a9.062,9.062,0,0,0-.468.955l-.133.271h.021c-1.495,3.98.423,8.307,5.783,11.4,8.349,4.819,21.836,4.818,30.131,0C447.4,83.387,449.3,79.135,447.874,75.2Z" fill="#d2e6fe"/>
        <path id="Trazado_158812" data-name="Trazado 158812" d="M447.874,75.2h.057l-.456-.933q-.025-.055-.051-.108l-12.06-24.638h0V29.11H418.708V49.524L406.817,73.811a9.062,9.062,0,0,0-.468.955l-.133.271h.021c-1.495,3.98.423,8.307,5.783,11.4,8.349,4.819,21.836,4.818,30.131,0C447.4,83.387,449.3,79.135,447.874,75.2Z" fill="#defdff"/>
        <path id="Trazado_158813" data-name="Trazado 158813" d="M444.137,73.492h.043l-.312-.648c-.04-.087-.079-.172-.125-.257L433.517,49.47h0l.088-21.017-13.313.2-.1,20.822L409.858,72.111a7.711,7.711,0,0,0-.574,1.2l-.02.045h.005c-1.25,3.392.365,7.084,4.852,9.723,6.986,4.112,18.277,4.112,25.221,0C443.738,80.474,445.331,76.847,444.137,73.492Z" fill="#3484ff"/>
        <g id="Grupo_102351" data-name="Grupo 102351">
          <path id="Trazado_158814" data-name="Trazado 158814" d="M432.9,26.123c3.265,1.883,3.282,4.937.04,6.822a12.985,12.985,0,0,1-11.778,0c-3.263-1.885-3.281-4.939-.039-6.823A12.973,12.973,0,0,1,432.9,26.123Z" fill="#8bc3de"/>
        </g>
        <path id="Trazado_158815" data-name="Trazado 158815" d="M446.128,74.6h0l-.008-.015a8.02,8.02,0,0,0-.8-1.457l-6.4-11.708h-23.8l-6.744,12.22c-.063.111-.127.22-.184.334l-.013.023h0c-1.876,3.708-.193,7.867,5.043,10.786,7.677,4.284,20.083,4.282,27.711,0C445.859,82.023,447.585,78.151,446.128,74.6Z" fill="#4e93f9"/>
        <g id="Grupo_102352" data-name="Grupo 102352">
          <path id="Trazado_158816" data-name="Trazado 158816" d="M435.714,58.31c4.821,2.691,4.848,7.052.055,9.743s-12.584,2.69-17.411,0S413.509,61,418.3,58.31,430.889,55.619,435.714,58.31Z" fill="#8dd5ff"/>
        </g>
        <path id="Trazado_158817" data-name="Trazado 158817" d="M412.02,86.439c.344.2.712.377,1.074.561l13.6-37.376.335-20.514h-6.957l.125,20.36L405.757,77.381C405.619,80.648,407.7,83.943,412.02,86.439Z" fill="#fff" opacity="0.1"/>
        <g id="Grupo_102355" data-name="Grupo 102355">
          <g id="Grupo_102353" data-name="Grupo 102353">
            <path id="Trazado_158818" data-name="Trazado 158818" d="M433.694,24.435c3.588,2.158,3.463,5.6-.275,7.684a14.609,14.609,0,0,1-13.266-.136c-3.586-2.158-3.463-5.6.277-7.684A14.608,14.608,0,0,1,433.694,24.435Z" fill="#9ff8ff"/>
            <path id="Trazado_158819" data-name="Trazado 158819" d="M426.894,32.335a12.129,12.129,0,0,1-6.066-1.473c-1.29-.776-1.993-1.722-1.978-2.668.017-.971.826-1.976,2.216-2.751a12.33,12.33,0,0,1,5.887-1.361,12.131,12.131,0,0,1,6.066,1.473c1.291.777,2,1.725,1.977,2.667-.015.974-.82,1.978-2.212,2.753A12.324,12.324,0,0,1,426.894,32.335Z" fill="#2bb4da"/>
            <path id="Trazado_158820" data-name="Trazado 158820" d="M421.066,26.594a12.306,12.306,0,0,1,5.887-1.36,12.131,12.131,0,0,1,6.066,1.472,3.983,3.983,0,0,1,1.88,2.053,1.868,1.868,0,0,0,.1-.537c.019-.942-.686-1.89-1.977-2.667a12.131,12.131,0,0,0-6.066-1.473,12.33,12.33,0,0,0-5.887,1.361c-1.39.775-2.2,1.78-2.216,2.751a1.958,1.958,0,0,0,.1.616A4.224,4.224,0,0,1,421.066,26.594Z" fill="#1c9cba"/>
          </g>
          <g id="Grupo_102354" data-name="Grupo 102354">
            <path id="Trazado_158821" data-name="Trazado 158821" d="M417.548,30.887l-.007-2.651c0,1.349.871,2.7,2.612,3.747a14.609,14.609,0,0,0,13.266.136c1.925-1.072,2.891-2.507,2.887-3.937l.006,2.65c0,1.432-.96,2.864-2.886,3.937a14.616,14.616,0,0,1-13.265-.133C418.421,33.585,417.552,32.236,417.548,30.887Z" fill="#65e0f6"/>
          </g>
        </g>
        <g id="Grupo_102356" data-name="Grupo 102356">
          <path id="Trazado_158822" data-name="Trazado 158822" d="M421.74,69.174c-1.587,2.146-4.164,2.927-5.758,1.749s-1.608-3.874-.021-6.017,4.159-2.926,5.757-1.747S423.324,67.032,421.74,69.174Z" fill="#fff" opacity="0.5"/>
          <path id="Trazado_158823" data-name="Trazado 158823" d="M420.036,75.961a1.809,1.809,0,1,1-.805-2.747A2.057,2.057,0,0,1,420.036,75.961Z" fill="#fff" opacity="0.5"/>
        </g>
      </g>
      <g id="Grupo_102362" data-name="Grupo 102362">
        <path id="Trazado_158824" data-name="Trazado 158824" d="M389,58.345V35.157H374.417v23.19a20.1,20.1,0,1,0,14.584,0Z" fill="#4ed3f3"/>
        <path id="Trazado_158825" data-name="Trazado 158825" d="M389,58.345V35.157H374.417v23.19a20.1,20.1,0,1,0,14.584,0Z" fill="#defdff"/>
        <path id="Trazado_158826" data-name="Trazado 158826" d="M398.984,76.745a17.2,17.2,0,1,1-17.2-17.532A17.37,17.37,0,0,1,398.984,76.745Z" fill="#3484ff"/>
        <rect id="Rectángulo_35691" data-name="Rectángulo 35691" width="10.572" height="27.413" transform="translate(376.331 37.865)" fill="#3484ff"/>
        <path id="Trazado_158827" data-name="Trazado 158827" d="M396.4,67.248a7.83,7.83,0,0,1-3.622,9c-6.034,3.389-15.851,3.391-21.928,0-3.9-2.177-4.912-6.042-3.821-8.84A19.78,19.78,0,0,0,363.746,77.6c0,9.523,8.045,17.245,17.968,17.245s17.964-7.157,17.964-17.245A22.226,22.226,0,0,0,396.4,67.248Z" fill="#4e93f9"/>
        <path id="Trazado_158828" data-name="Trazado 158828" d="M370.855,76.244c6.077,3.391,15.894,3.389,21.928,0,3.7-2.076,5.116-4.945,4.265-7.635a8.647,8.647,0,0,0-4.3-4.618.124.124,0,0,0-.03-.017c-6.075-3.391-15.9-3.391-21.933,0-.113.063-.22.13-.332.195a8.6,8.6,0,0,0-3.811,4.058C365.547,71.023,366.952,74.067,370.855,76.244Z" fill="#8dd5ff"/>
        <g id="Grupo_102360" data-name="Grupo 102360">
          <g id="Grupo_102358" data-name="Grupo 102358">
            <path id="Trazado_158829" data-name="Trazado 158829" d="M387.675,32.374c3.158,1.9,3.051,4.934-.246,6.77a12.869,12.869,0,0,1-11.684-.119c-3.158-1.9-3.051-4.932.242-6.77A12.883,12.883,0,0,1,387.675,32.374Z" fill="#9ff8ff"/>
            <path id="Trazado_158830" data-name="Trazado 158830" d="M381.684,39.334a10.7,10.7,0,0,1-5.345-1.3,2.96,2.96,0,0,1-1.742-2.348,3.2,3.2,0,0,1,1.952-2.424,10.853,10.853,0,0,1,5.187-1.2,10.687,10.687,0,0,1,5.341,1.3,2.959,2.959,0,0,1,1.744,2.352,3.2,3.2,0,0,1-1.95,2.425A10.858,10.858,0,0,1,381.684,39.334Z" fill="#2bb4da"/>
            <path id="Trazado_158831" data-name="Trazado 158831" d="M376.549,34.277a10.841,10.841,0,0,1,5.187-1.2,10.677,10.677,0,0,1,5.341,1.3,3.5,3.5,0,0,1,1.659,1.809,1.775,1.775,0,0,0,.085-.473,2.959,2.959,0,0,0-1.744-2.352,10.687,10.687,0,0,0-5.341-1.3,10.853,10.853,0,0,0-5.187,1.2,3.2,3.2,0,0,0-1.952,2.424,1.782,1.782,0,0,0,.085.541A3.716,3.716,0,0,1,376.549,34.277Z" fill="#1c9cba"/>
          </g>
          <g id="Grupo_102359" data-name="Grupo 102359">
            <path id="Trazado_158832" data-name="Trazado 158832" d="M373.45,38.06l-.008-2.336a4.049,4.049,0,0,0,2.3,3.3,12.869,12.869,0,0,0,11.684.119c1.7-.945,2.548-2.208,2.545-3.469l.007,2.335c0,1.261-.848,2.524-2.545,3.469a12.873,12.873,0,0,1-11.683-.118A4.053,4.053,0,0,1,373.45,38.06Z" fill="#65e0f6"/>
          </g>
        </g>
        <g id="Grupo_102361" data-name="Grupo 102361">
          <path id="Trazado_158833" data-name="Trazado 158833" d="M376.913,76.145c-1.617,2.187-4.247,2.984-5.874,1.782s-1.638-3.951-.02-6.137,4.243-2.984,5.872-1.781S378.53,73.959,376.913,76.145Z" fill="#fff" opacity="0.5"/>
          <path id="Trazado_158834" data-name="Trazado 158834" d="M375.177,83.066a1.845,1.845,0,1,1-.823-2.8A2.1,2.1,0,0,1,375.177,83.066Z" fill="#fff" opacity="0.5"/>
        </g>
      </g>
      <g id="Grupo_102433" data-name="Grupo 102433">
        <g id="Grupo_102432" data-name="Grupo 102432" style="isolation: isolate">
          <g id="Grupo_102363" data-name="Grupo 102363">
            <path id="Trazado_158835" data-name="Trazado 158835" d="M459.485,93.732l-.987.033.528,1.446.987-.032Z" fill="#a2c4c5"/>
          </g>
          <g id="Grupo_102364" data-name="Grupo 102364">
            <path id="Trazado_158836" data-name="Trazado 158836" d="M460.014,95.18l-.987.032-.665.383.987-.031Z" fill="#9fc0c1"/>
          </g>
          <g id="Grupo_102365" data-name="Grupo 102365">
            <path id="Trazado_158837" data-name="Trazado 158837" d="M459.349,95.563l-.987.031.647,1.781.99-.033Z" fill="#147f91"/>
          </g>
          <g id="Grupo_102366" data-name="Grupo 102366">
            <path id="Trazado_158838" data-name="Trazado 158838" d="M459.485,93.732l-.987.033-.664.382.987-.031Z" fill="#9fc0c1"/>
          </g>
          <g id="Grupo_102367" data-name="Grupo 102367">
            <path id="Trazado_158839" data-name="Trazado 158839" d="M456.581,85.759l-.986.032.529,1.454.986-.032Z" fill="#a2c4c5"/>
          </g>
          <g id="Grupo_102368" data-name="Grupo 102368">
            <path id="Trazado_158840" data-name="Trazado 158840" d="M457.11,87.213l-.986.032-.664.383.987-.032Z" fill="#9fc0c1"/>
          </g>
          <g id="Grupo_102369" data-name="Grupo 102369">
            <path id="Trazado_158841" data-name="Trazado 158841" d="M456.447,87.6l-.987.032,2.374,6.52.987-.031Z" fill="#147f91"/>
          </g>
          <g id="Grupo_102370" data-name="Grupo 102370">
            <path id="Trazado_158842" data-name="Trazado 158842" d="M456.581,85.759l-.986.032-.666.384.989-.031Z" fill="#9fc0c1"/>
          </g>
          <g id="Grupo_102371" data-name="Grupo 102371">
            <path id="Trazado_158843" data-name="Trazado 158843" d="M453.153,76.345l-.989.031.529,1.448.987-.032Z" fill="#a2c4c5"/>
          </g>
          <g id="Grupo_102372" data-name="Grupo 102372">
            <path id="Trazado_158844" data-name="Trazado 158844" d="M453.017,78.175l-.987.032,2.9,7.968.989-.031Z" fill="#147f91"/>
          </g>
          <g id="Grupo_102373" data-name="Grupo 102373">
            <path id="Trazado_158845" data-name="Trazado 158845" d="M453.681,77.792l-.987.032-.664.383.987-.032Z" fill="#9fc0c1"/>
          </g>
          <g id="Grupo_102374" data-name="Grupo 102374">
            <path id="Trazado_158846" data-name="Trazado 158846" d="M453.153,76.345l-.989.031-.662.383.987-.03Z" fill="#9fc0c1"/>
          </g>
          <g id="Grupo_102375" data-name="Grupo 102375">
            <path id="Trazado_158847" data-name="Trazado 158847" d="M448.665,64.029l-.984.03.525,1.448.989-.032Z" fill="#a2c4c5"/>
          </g>
          <g id="Grupo_102376" data-name="Grupo 102376">
            <path id="Trazado_158848" data-name="Trazado 158848" d="M448.53,65.859l-.988.032,3.96,10.867.987-.03Z" fill="#147f91"/>
          </g>
          <g id="Grupo_102377" data-name="Grupo 102377">
            <path id="Trazado_158849" data-name="Trazado 158849" d="M449.2,65.476l-.989.032-.664.384.988-.032Z" fill="#9fc0c1"/>
          </g>
          <g id="Grupo_102378" data-name="Grupo 102378">
            <path id="Trazado_158850" data-name="Trazado 158850" d="M458.821,94.116l-.987.031-9.377,5.414.986-.032Z" fill="#147f91"/>
          </g>
          <g id="Grupo_102379" data-name="Grupo 102379">
            <path id="Trazado_158851" data-name="Trazado 158851" d="M449.974,100.977l-.989.032-.664.385.987-.033Z" fill="#9fc0c1"/>
          </g>
          <g id="Grupo_102380" data-name="Grupo 102380">
            <path id="Trazado_158852" data-name="Trazado 158852" d="M448.665,64.029l-.984.03-.667.384.99-.031Z" fill="#9fc0c1"/>
          </g>
          <g id="Grupo_102381" data-name="Grupo 102381">
            <path id="Trazado_158853" data-name="Trazado 158853" d="M448.78,99.913l.527,1.447.666-.384,9.375-5.413.665-.384-.528-1.447-.664.384-9.378,5.413Z" fill="#29b2dc"/>
          </g>
          <g id="Grupo_102382" data-name="Grupo 102382">
            <path id="Trazado_158854" data-name="Trazado 158854" d="M448.78,99.913l-.987.031.527,1.449.987-.033Z" fill="#a2c4c5"/>
          </g>
          <g id="Grupo_102383" data-name="Grupo 102383">
            <path id="Trazado_158855" data-name="Trazado 158855" d="M449.443,99.529l-.986.032-.664.383.987-.031Z" fill="#9fc0c1"/>
          </g>
          <g id="Grupo_102384" data-name="Grupo 102384">
            <path id="Trazado_158856" data-name="Trazado 158856" d="M455.918,86.144l-.989.031-9.375,5.413.987-.032Z" fill="#147f91"/>
          </g>
          <g id="Grupo_102385" data-name="Grupo 102385">
            <path id="Trazado_158857" data-name="Trazado 158857" d="M445.237,54.614l-.985.031.525,1.448.987-.032Z" fill="#a2c4c5"/>
          </g>
          <g id="Grupo_102386" data-name="Grupo 102386">
            <path id="Trazado_158858" data-name="Trazado 158858" d="M447.069,93.01l-.986.032-.664.383.986-.032Z" fill="#9fc0c1"/>
          </g>
          <g id="Grupo_102387" data-name="Grupo 102387">
            <path id="Trazado_158859" data-name="Trazado 158859" d="M445.765,56.062l-.987.032-.664.383.987-.031Z" fill="#9fc0c1"/>
          </g>
          <g id="Grupo_102388" data-name="Grupo 102388">
            <path id="Trazado_158860" data-name="Trazado 158860" d="M445.1,56.445l-.987.031,2.9,7.967.99-.031Z" fill="#147f91"/>
          </g>
          <g id="Grupo_102389" data-name="Grupo 102389">
            <path id="Trazado_158861" data-name="Trazado 158861" d="M445.877,91.94l-.987.032.529,1.452.986-.032Z" fill="#a2c4c5"/>
          </g>
          <g id="Grupo_102390" data-name="Grupo 102390">
            <path id="Trazado_158862" data-name="Trazado 158862" d="M445.877,91.94l.528,1.452.664-.383,9.378-5.414.663-.383-.529-1.454-.663.385-9.377,5.412Z" fill="#29b2dc"/>
          </g>
          <g id="Grupo_102391" data-name="Grupo 102391">
            <path id="Trazado_158863" data-name="Trazado 158863" d="M446.541,91.556l-.987.032-.664.385.987-.032Z" fill="#9fc0c1"/>
          </g>
          <g id="Grupo_102392" data-name="Grupo 102392">
            <path id="Trazado_158864" data-name="Trazado 158864" d="M445.237,54.614l-.985.031-.664.384.984-.033Z" fill="#9fc0c1"/>
          </g>
          <g id="Grupo_102393" data-name="Grupo 102393">
            <path id="Trazado_158865" data-name="Trazado 158865" d="M452.489,76.729l-.987.03-9.378,5.413.987-.029Z" fill="#147f91"/>
          </g>
          <g id="Grupo_102394" data-name="Grupo 102394">
            <path id="Trazado_158866" data-name="Trazado 158866" d="M443.639,83.589l-.987.031-.664.384.987-.031Z" fill="#9fc0c1"/>
          </g>
          <g id="Grupo_102395" data-name="Grupo 102395">
            <path id="Trazado_158867" data-name="Trazado 158867" d="M441.542,44.469l-.986.033.526,1.447.987-.031Z" fill="#a2c4c5"/>
          </g>
          <g id="Grupo_102396" data-name="Grupo 102396">
            <path id="Trazado_158868" data-name="Trazado 158868" d="M442.069,45.918l-.987.031-.664.384.987-.033Z" fill="#9fc0c1"/>
          </g>
          <g id="Grupo_102397" data-name="Grupo 102397">
            <path id="Trazado_158869" data-name="Trazado 158869" d="M441.405,46.3l-.987.033,3.17,8.7.984-.033Z" fill="#147f91"/>
          </g>
          <g id="Grupo_102398" data-name="Grupo 102398">
            <path id="Trazado_158870" data-name="Trazado 158870" d="M442.447,82.525l-.987.032L441.987,84l.987-.031Z" fill="#a2c4c5"/>
          </g>
          <g id="Grupo_102399" data-name="Grupo 102399">
            <path id="Trazado_158871" data-name="Trazado 158871" d="M443.111,82.143l-.987.029-.664.386.987-.032Z" fill="#9fc0c1"/>
          </g>
          <g id="Grupo_102400" data-name="Grupo 102400">
            <path id="Trazado_158872" data-name="Trazado 158872" d="M442.447,82.525l.527,1.447.664-.384,9.378-5.414.664-.383-.527-1.447-.664.384-9.378,5.414Z" fill="#29b2dc"/>
          </g>
          <g id="Grupo_102401" data-name="Grupo 102401">
            <path id="Trazado_158873" data-name="Trazado 158873" d="M441.542,44.469l-.986.033-.664.383.987-.031Z" fill="#9fc0c1"/>
          </g>
          <g id="Grupo_102402" data-name="Grupo 102402">
            <path id="Trazado_158874" data-name="Trazado 158874" d="M438.113,35.055l-.987.032.527,1.447.987-.032Z" fill="#a2c4c5"/>
          </g>
          <g id="Grupo_102403" data-name="Grupo 102403">
            <path id="Trazado_158875" data-name="Trazado 158875" d="M437.977,36.885l-.987.032,2.9,7.968.987-.031Z" fill="#147f91"/>
          </g>
          <g id="Grupo_102404" data-name="Grupo 102404">
            <path id="Trazado_158876" data-name="Trazado 158876" d="M438.641,36.5l-.987.032-.664.383.987-.032Z" fill="#9fc0c1"/>
          </g>
          <g id="Grupo_102405" data-name="Grupo 102405">
            <path id="Trazado_158877" data-name="Trazado 158877" d="M448,64.412l-.99.031-9.374,5.414.986-.032Z" fill="#147f91"/>
          </g>
          <g id="Grupo_102406" data-name="Grupo 102406">
            <path id="Trazado_158878" data-name="Trazado 158878" d="M438.113,35.055l-.987.032-.664.382.987-.031Z" fill="#9fc0c1"/>
          </g>
          <g id="Grupo_102407" data-name="Grupo 102407">
            <path id="Trazado_158879" data-name="Trazado 158879" d="M439.153,71.272l-.987.033-.664.384.987-.032Z" fill="#9fc0c1"/>
          </g>
          <g id="Grupo_102408" data-name="Grupo 102408">
            <path id="Trazado_158880" data-name="Trazado 158880" d="M438.626,69.825l-.986.032-.664.383.986-.03Z" fill="#9fc0c1"/>
          </g>
          <g id="Grupo_102409" data-name="Grupo 102409">
            <path id="Trazado_158881" data-name="Trazado 158881" d="M437.962,70.21l.527,1.447.664-.385,9.377-5.413.665-.384-.53-1.446-.661.383-9.378,5.413Z" fill="#29b2dc"/>
          </g>
          <g id="Grupo_102410" data-name="Grupo 102410">
            <path id="Trazado_158882" data-name="Trazado 158882" d="M437.962,70.21l-.986.03.526,1.449.987-.032Z" fill="#a2c4c5"/>
          </g>
          <g id="Grupo_102411" data-name="Grupo 102411">
            <path id="Trazado_158883" data-name="Trazado 158883" d="M436.548,32.96l-.988.033.9,2.476.987-.031Z" fill="#147f91"/>
          </g>
          <g id="Grupo_102412" data-name="Grupo 102412">
            <path id="Trazado_158884" data-name="Trazado 158884" d="M437.876,32.194l-.986.032-1.33.767.988-.033Z" fill="#29b2dc"/>
          </g>
          <g id="Grupo_102413" data-name="Grupo 102413">
            <path id="Trazado_158885" data-name="Trazado 158885" d="M436.548,32.96l.9,2.478.664-.383.527,1.447-.664.383,2.9,7.969.663-.385.527,1.449-.664.382,3.167,8.7.665-.382.527,1.447-.664.384,2.9,7.967.661-.383.53,1.446-.665.384,3.959,10.869.664-.384.527,1.447-.664.383,2.9,7.969.663-.385.529,1.454-.663.383,2.374,6.521.664-.384.528,1.447-.665.384.65,1.779,1.326-.767L437.876,32.194Z" fill="#29b2dc"/>
          </g>
          <g id="Grupo_102414" data-name="Grupo 102414">
            <path id="Trazado_158886" data-name="Trazado 158886" d="M444.572,55l-.984.033-9.378,5.413.987-.03Z" fill="#147f91"/>
          </g>
          <g id="Grupo_102415" data-name="Grupo 102415">
            <path id="Trazado_158887" data-name="Trazado 158887" d="M435.725,61.859l-.987.031-.664.383.987-.031Z" fill="#9fc0c1"/>
          </g>
          <g id="Grupo_102416" data-name="Grupo 102416">
            <path id="Trazado_158888" data-name="Trazado 158888" d="M434.533,60.794l.527,1.448.664-.383,9.376-5.414.664-.384-.527-1.447-.665.382L435.2,60.412Z" fill="#29b2dc"/>
          </g>
          <g id="Grupo_102417" data-name="Grupo 102417">
            <path id="Trazado_158889" data-name="Trazado 158889" d="M434.533,60.794l-.989.032.529,1.447.987-.031Z" fill="#a2c4c5"/>
          </g>
          <g id="Grupo_102418" data-name="Grupo 102418">
            <path id="Trazado_158890" data-name="Trazado 158890" d="M435.2,60.412l-.987.03-.666.384.989-.032Z" fill="#9fc0c1"/>
          </g>
          <g id="Grupo_102419" data-name="Grupo 102419">
            <path id="Trazado_158891" data-name="Trazado 158891" d="M440.879,44.854l-.987.031L430.516,50.3l.987-.031Z" fill="#147f91"/>
          </g>
          <g id="Grupo_102420" data-name="Grupo 102420">
            <path id="Trazado_158892" data-name="Trazado 158892" d="M432.03,51.713l-.989.032-.664.385.989-.033Z" fill="#9fc0c1"/>
          </g>
          <g id="Grupo_102421" data-name="Grupo 102421">
            <path id="Trazado_158893" data-name="Trazado 158893" d="M431.5,50.267l-.987.031-.664.385.987-.032Z" fill="#9fc0c1"/>
          </g>
          <g id="Grupo_102422" data-name="Grupo 102422">
            <path id="Trazado_158894" data-name="Trazado 158894" d="M430.839,50.65l.527,1.446.664-.384,9.375-5.413.664-.382-.527-1.449-.663.385L431.5,50.267Z" fill="#29b2dc"/>
          </g>
          <g id="Grupo_102423" data-name="Grupo 102423">
            <path id="Trazado_158895" data-name="Trazado 158895" d="M430.839,50.65l-.987.032.525,1.447.989-.033Z" fill="#a2c4c5"/>
          </g>
          <g id="Grupo_102424" data-name="Grupo 102424">
            <path id="Trazado_158896" data-name="Trazado 158896" d="M437.449,35.438l-.987.031-9.377,5.415.988-.031Z" fill="#147f91"/>
          </g>
          <g id="Grupo_102425" data-name="Grupo 102425">
            <path id="Trazado_158897" data-name="Trazado 158897" d="M428.6,42.3l-.989.033-.664.383.987-.032Z" fill="#9fc0c1"/>
          </g>
          <g id="Grupo_102426" data-name="Grupo 102426">
            <path id="Trazado_158898" data-name="Trazado 158898" d="M427.407,41.236l-.986.031.526,1.447.987-.032Z" fill="#a2c4c5"/>
          </g>
          <g id="Grupo_102427" data-name="Grupo 102427">
            <path id="Trazado_158899" data-name="Trazado 158899" d="M428.073,40.853l-.988.031-.664.384.986-.031Z" fill="#9fc0c1"/>
          </g>
          <g id="Grupo_102428" data-name="Grupo 102428">
            <path id="Trazado_158900" data-name="Trazado 158900" d="M427.407,41.236l.527,1.446.666-.384,9.376-5.414.664-.383-.527-1.447-.664.383-9.376,5.415Z" fill="#29b2dc"/>
          </g>
          <g id="Grupo_102429" data-name="Grupo 102429">
            <path id="Trazado_158901" data-name="Trazado 158901" d="M425.843,39.142l23.45,64.383,1.328-.766-.647-1.782-.666.384-.527-1.447.663-.384-2.374-6.519-.664.383-.528-1.452.664-.385-2.9-7.967-.664.384-.527-1.447.664-.383-3.958-10.87-.664.385-.527-1.447.664-.385-2.9-7.966-.664.383-.527-1.448.664-.382-3.167-8.7-.664.384-.527-1.446.664-.384L428.6,42.3l-.666.384-.527-1.446.666-.384-.9-2.479Z" fill="#29b2dc"/>
          </g>
          <g id="Grupo_102430" data-name="Grupo 102430">
            <path id="Trazado_158902" data-name="Trazado 158902" d="M425.843,39.142l-.987.032L448.3,103.555l.988-.03Z" fill="#147f91"/>
          </g>
          <g id="Grupo_102431" data-name="Grupo 102431">
            <path id="Trazado_158903" data-name="Trazado 158903" d="M427.171,38.374l-.987.032-1.328.768.987-.032Z" fill="#29b2dc"/>
          </g>
        </g>
      </g>
      <g id="Grupo_102440" data-name="Grupo 102440">
        <path id="Trazado_158904" data-name="Trazado 158904" d="M452.117,89.555s.845,1.354-.328,1.677-.821-.411-3.374.233-2.248-.791-2.2-1.086,1.169-.7,1.727-.85,2.786-.663,2.786-.663l1.363.253Z" fill="#111114"/>
        <path id="Trazado_158905" data-name="Trazado 158905" d="M453.663,85.81s-.976.143-.736.708,1.358,1.421,1.506,1.777a4.329,4.329,0,0,0,1.36,1.51c.529.09,1.068.06.979-1.394A3.185,3.185,0,0,0,453.663,85.81Z" fill="#111114"/>
        <path id="Trazado_158906" data-name="Trazado 158906" d="M457.863,61.02s1.9,2.816.666,7.566c0,0-2.125,7.172-1.747,8.58s1.677,4.8.823,7.7a33.031,33.031,0,0,0-.854,3.419c-.066.765-1.331.834-1.518-.022-.4-1.816-.1-4.514-.373-5.859-.9-4.4-1.365-6.687-1.082-9.68s-.061-9.765-.061-9.765S457.1,63.307,457.863,61.02Z" fill="#efb185"/>
        <path id="Trazado_158907" data-name="Trazado 158907" d="M455.74,62.727s1.632,2.982-.039,7.6c0,0-2.784,6.945-2.536,8.382s1.222,4.934.1,7.738a24.293,24.293,0,0,0-1.17,3.326c-.135,1.178-1.325,1.328-1.45.461-.256-1.763.264-5.126.116-6.494-.487-4.459-.741-6.783-.176-9.735s.845-9.733.845-9.733S454.774,64.94,455.74,62.727Z" fill="#efb185"/>
        <path id="Trazado_158908" data-name="Trazado 158908" d="M458.443,62.321s2.013,1.868,1.2,8.5c-.743,6.11-.379,6.866-.379,6.866s-4.944,2.724-9.5.631c0,0-.507-1.395,0-6.9s1.267-6.813,1.267-6.813A6.4,6.4,0,0,0,458.443,62.321Z" fill="#f29200"/>
        <path id="Trazado_158909" data-name="Trazado 158909" d="M450.265,89.253a1.082,1.082,0,0,0,1.867.326s.185,1.564-.934,1.361S449.632,89.579,450.265,89.253Z" fill="#111114"/>
        <path id="Trazado_158910" data-name="Trazado 158910" d="M444.25,45.6s-2.194-2.556-3.448-2.147-1.251,1.552-.923,1.669,2.505.388,3.538,1.393C443.417,46.519,444.221,46.327,444.25,45.6Z" fill="#efb185"/>
        <path id="Trazado_158911" data-name="Trazado 158911" d="M458.086,47.855c.7.528,1.02,2.252-1.547,2.81s-7.992,1.962-8.765,1.283c-.624-.553-1.2-1.846,1.975-2.8S456.354,46.556,458.086,47.855Z" fill="#f9f9f9"/>
        <path id="Trazado_158912" data-name="Trazado 158912" d="M450.139,51.068s-.874,1.755-2.345.984-5.174-5.977-5.174-5.977,1.323-.747,1.105-1.519C443.725,44.556,450.108,49.341,450.139,51.068Z" fill="#f9f9f9"/>
        <g id="Grupo_102434" data-name="Grupo 102434">
          <path id="Trazado_158913" data-name="Trazado 158913" d="M457.865,46.931s2.23.763,1.259,4.043-1.395,7.036-.756,8.076a22.3,22.3,0,0,1,2.985,14.244s.087,2.92-5.814,3.509c-1.972.195-8.015-.452-7.257-3.748a33.651,33.651,0,0,0,.153-14.407c-.245-1.238-1.16-6.159,2.3-8.128S455.555,46.988,457.865,46.931Z" fill="#e5eeff"/>
        </g>
        <g id="Grupo_102437" data-name="Grupo 102437">
          <path id="Trazado_158914" data-name="Trazado 158914" d="M451.394,51.005c.869-.044,2.2,1.072.594,3.125s-4.853,6.559-5.873,6.527c-.825-.024-2.084-.647-.267-3.386S449.248,51.11,451.394,51.005Z" fill="#f9f9f9"/>
          <g id="Grupo_102436" data-name="Grupo 102436">
            <g id="Grupo_102435" data-name="Grupo 102435">
              <path id="Trazado_158915" data-name="Trazado 158915" d="M440.287,54.521a11.347,11.347,0,0,0-1.677-.69c-.354-.048-.979-.8-1.111-1.234s-.353-1.641.278-1.418.884.462,1.3.543a2.854,2.854,0,0,1,1.291.785c.171.25.712,1.058.712,1.058Z" fill="#efb185"/>
            </g>
          </g>
          <path id="Trazado_158916" data-name="Trazado 158916" d="M447.416,59.294s-.812,1.765-2.294,1.043-5.3-5.768-5.3-5.768,1.29-.779,1.051-1.54C440.869,53.029,447.338,57.582,447.416,59.294Z" fill="#f9f9f9"/>
        </g>
        <g id="Grupo_102439" data-name="Grupo 102439">
          <path id="Trazado_158917" data-name="Trazado 158917" d="M452.017,47.61v2.022a2.779,2.779,0,0,0,2.978-.255V47.348A6.956,6.956,0,0,1,452.017,47.61Z" fill="#efb185"/>
          <g id="Grupo_102438" data-name="Grupo 102438">
            <path id="Trazado_158918" data-name="Trazado 158918" d="M451.51,41.1a4.915,4.915,0,0,0-.974,2.9c.144,1.552-.086,1.865.008,2.556a1.681,1.681,0,0,0,.353,1.019c.482.464,1.467.631,2.806.143,1.62-.594,3.326-2.816,2.631-4.819S453.947,39.47,451.51,41.1Z" fill="#efb185"/>
            <path id="Trazado_158919" data-name="Trazado 158919" d="M456.262,45.068a28.7,28.7,0,0,0-2.246-4.077,5.085,5.085,0,0,0-1.131-.759,3.614,3.614,0,0,0-1.807.656,8.7,8.7,0,0,0-.339,1.079c.389.431,1.173.924,1.293,1.287A4.7,4.7,0,0,1,451.9,46c-.258.576.78,1.422.563,1.934a.1.1,0,0,0-.007.068,4.53,4.53,0,0,0,1.251-.281A4.69,4.69,0,0,0,456.262,45.068Z" fill="#e6a376"/>
            <path id="Trazado_158920" data-name="Trazado 158920" d="M452.269,40.232s-2.543.649-1.9,2.233,2.785,1.274,2.6,2.286-1.211,2.755-.508,3.184-1.542,1.659.476,3.069c2.041,1.424.249.21,1.547,1.126,1.78,1.253,2.717,1.289,3.668-.36s1.991-.689,1.85-3.117c-.237-4.1-1.344-5.088-2.293-6.353A5.368,5.368,0,0,0,452.269,40.232Z" fill="#231202"/>
          </g>
        </g>
      </g>
      <g id="Grupo_102441" data-name="Grupo 102441" opacity="0.1">
        <path id="Trazado_158921" data-name="Trazado 158921" d="M428.646,96.408c9.485,5.476,9.534,14.353.112,19.829s-24.75,5.476-34.235,0-9.532-14.353-.111-19.829S419.162,90.933,428.646,96.408Z"/>
      </g>
      <g id="Grupo_102445" data-name="Grupo 102445">
        <g id="Grupo_102442" data-name="Grupo 102442" opacity="0.4">
          <path id="Trazado_158922" data-name="Trazado 158922" d="M394.2,88.253c8.972,4.441,23.469,4.441,32.384,0s8.867-11.626-.107-16.064-23.468-4.438-32.383,0-8.867,11.631.106,16.064" fill="#fcfdfd" opacity="0"/>
          <path id="Trazado_158923" data-name="Trazado 158923" d="M394.244,92.3c8.948,4.551,23.407,4.551,32.3,0s8.845-11.915-.106-16.464-23.408-4.548-32.3,0-8.844,11.92.1,16.464" fill="#fdfdfd" opacity="0.167"/>
          <path id="Trazado_158924" data-name="Trazado 158924" d="M394.287,96.351c8.924,4.66,23.346,4.66,32.214,0s8.821-12.2-.107-16.864-23.346-4.658-32.211,0-8.822,12.209.1,16.864" fill="#fdfefe" opacity="0.333"/>
          <path id="Trazado_158925" data-name="Trazado 158925" d="M394.329,100.4c8.9,4.77,23.284,4.77,32.129,0s8.8-12.493-.106-17.264-23.287-4.768-32.126,0-8.8,12.5.1,17.264" fill="#fefefe" opacity="0.5"/>
          <path id="Trazado_158926" data-name="Trazado 158926" d="M394.372,104.449c8.875,4.88,23.222,4.88,32.043,0s8.776-12.782-.105-17.663-23.226-4.879-32.041,0-8.776,12.785.1,17.663" fill="#fefefe" opacity="0.667"/>
          <path id="Trazado_158927" data-name="Trazado 158927" d="M394.414,108.5c8.852,4.989,23.161,4.989,31.959,0s8.753-13.071-.1-18.063-23.166-4.989-31.956,0-8.753,13.074.1,18.063" fill="#fff" opacity="0.833"/>
          <path id="Trazado_158928" data-name="Trazado 158928" d="M394.457,112.547c8.827,5.1,23.1,5.1,31.873,0s8.73-13.361-.1-18.463-23.105-5.1-31.871,0-8.73,13.362.1,18.463" fill="#fff"/>
        </g>
        <path id="Trazado_158929" data-name="Trazado 158929" d="M432.471,100.852c-.006.114-.013.229-.026.342s-.022.2-.036.294c-.015.114-.031.227-.053.34-.018.1-.039.195-.061.294s-.052.223-.082.334-.055.192-.084.289-.071.223-.11.334-.071.191-.107.285c-.047.115-.1.229-.146.344-.042.1-.085.19-.132.283-.056.114-.115.227-.175.338-.049.092-.1.183-.15.273q-.118.2-.249.4c-.05.081-.1.162-.156.243-.1.147-.21.292-.319.437-.048.061-.092.125-.141.186-.18.23-.377.456-.583.681-.054.058-.112.116-.167.174-.162.169-.33.338-.507.5-.082.078-.165.155-.248.231-.1.094-.212.187-.32.278s-.208.178-.315.264-.229.18-.346.269-.226.173-.344.259-.241.172-.366.257-.247.17-.375.253-.256.166-.387.245c-.177.111-.351.222-.536.328-.336.2-.682.38-1.033.561-.1.052-.208.1-.313.155q-.4.2-.824.389c-.1.044-.194.089-.294.132-.366.16-.738.311-1.117.456-.069.026-.141.05-.212.077q-.477.177-.969.34c-.135.044-.273.089-.411.132-.179.058-.361.113-.543.167-.156.047-.313.092-.47.134-.185.051-.37.1-.556.149l-.477.119c-.19.045-.379.09-.572.133l-.476.1c-.2.04-.4.077-.6.116-.148.029-.3.056-.442.083-.425.076-.849.144-1.278.2-.06.009-.121.014-.181.023q-.558.075-1.119.133l-.434.044c-.242.022-.482.041-.726.059-.149.012-.3.022-.447.032-.26.015-.52.028-.778.038-.135,0-.269.013-.4.017-.227.007-.455.01-.682.014-.147,0-.294.005-.44.005-.239,0-.478,0-.718-.006-.133,0-.268,0-.4-.006q-.34-.011-.681-.026l-.411-.018c-.264-.015-.528-.034-.79-.054l-.3-.02c-.323-.026-.644-.059-.965-.1-.04,0-.08-.007-.119-.011-.364-.041-.724-.085-1.084-.137-.031,0-.061-.01-.091-.014-.335-.049-.665-.1-.995-.156l-.341-.065c-.247-.045-.494-.089-.739-.141-.11-.022-.216-.046-.326-.071-.263-.057-.527-.115-.789-.178l-.4-.1c-.234-.057-.466-.119-.7-.184-.127-.035-.252-.072-.379-.109-.361-.1-.716-.214-1.069-.331l-.184-.058c-.4-.139-.8-.286-1.195-.438-.155-.061-.31-.124-.462-.187-.127-.051-.256-.1-.38-.158-.178-.075-.352-.154-.525-.235l-.34-.153c-.192-.093-.379-.186-.566-.283-.091-.045-.183-.089-.272-.136q-.414-.216-.812-.446c-4.437-2.56-6.652-5.924-6.645-9.281q0,1.539-.007,3.077c-.01,3.358,2.2,6.721,6.643,9.281.266.156.534.3.81.447.1.049.191.094.287.144.183.093.365.185.552.274.114.054.231.1.346.157.173.079.343.157.519.233.125.053.249.1.376.154s.236.1.356.149c.038.016.078.027.115.042.391.154.788.3,1.192.436l.183.058c.351.118.7.226,1.063.33.061.02.119.039.18.057l.214.057c.222.062.447.12.673.178.141.036.281.073.421.105.251.061.505.117.759.173.094.019.187.044.281.062.026.006.051.011.077.015.224.046.452.087.678.129.133.024.267.053.4.074.285.051.569.094.855.137.074.009.148.023.222.034h.011c.357.052.714.1,1.075.137.036,0,.07.005.1.01q.492.054.985.1h.012l.283.019c.26.02.523.04.785.054.165.009.328.014.491.02.2.009.4.018.6.023l.057,0c.127,0,.256,0,.381,0,.229,0,.46.008.689.008.145,0,.289,0,.434,0,.23,0,.461-.008.69-.015.037,0,.076,0,.114,0,.093,0,.186-.009.281-.014.263-.01.525-.024.787-.039l.444-.031q.363-.027.72-.06c.087-.008.175-.012.261-.021.062-.007.123-.016.185-.022.374-.038.748-.084,1.119-.134.058-.008.117-.013.173-.022q.643-.09,1.276-.2c.042-.006.08-.011.12-.018.112-.021.222-.045.334-.065.2-.038.393-.077.589-.117.159-.032.317-.068.475-.1.194-.044.385-.088.576-.135.158-.037.313-.076.47-.117.189-.049.378-.1.566-.151l.458-.131c.187-.056.374-.114.561-.171.077-.025.155-.046.233-.071.053-.018.106-.04.161-.058.333-.109.661-.225.987-.346.066-.024.132-.046.2-.071.38-.145.755-.3,1.122-.458.1-.041.192-.086.286-.129.283-.126.561-.258.836-.393.1-.049.2-.1.3-.152.354-.181.7-.366,1.037-.563.093-.052.184-.106.275-.161s.166-.105.251-.16c.134-.084.27-.167.4-.253s.244-.164.364-.247.254-.175.377-.263.227-.168.338-.254.236-.18.349-.273.21-.174.314-.262.215-.186.32-.279c.043-.039.092-.077.134-.119s.076-.074.115-.111q.264-.252.508-.506c.055-.058.112-.114.165-.172.208-.225.4-.452.585-.683a.273.273,0,0,1,.023-.027c.04-.05.071-.1.11-.151.114-.149.222-.3.325-.445.055-.081.105-.161.157-.242.086-.131.17-.263.247-.4.02-.036.046-.073.066-.11.031-.054.057-.109.086-.165.06-.112.119-.223.173-.336.046-.094.091-.189.134-.286s.1-.227.143-.341c.021-.051.045-.1.065-.15s.028-.091.045-.136c.038-.111.075-.222.108-.334.031-.1.06-.192.087-.289s.056-.224.081-.335c.013-.057.03-.116.041-.174.008-.04.012-.08.02-.118.02-.113.037-.227.052-.341.014-.1.029-.195.037-.293.012-.115.019-.229.026-.343,0-.066.011-.131.014-.2s0-.131,0-.2l.011-3.078C432.488,100.59,432.477,100.721,432.471,100.852Z" fill="#abd9ce"/>
        <g id="Grupo_102443" data-name="Grupo 102443">
          <path id="Trazado_158930" data-name="Trazado 158930" d="M425.845,91.176c8.817,5.09,8.863,13.345.105,18.433s-23.01,5.092-31.827,0-8.865-13.344-.1-18.435S417.027,86.085,425.845,91.176Z" fill="#edf9f5"/>
        </g>
        <g id="Grupo_102444" data-name="Grupo 102444">
          <path id="Trazado_158931" data-name="Trazado 158931" d="M425.068,91.56c8.389,4.842,8.434,12.694.1,17.534s-21.888,4.842-30.275,0-8.43-12.694-.1-17.536S416.683,86.718,425.068,91.56Z" fill="#abd9ce"/>
        </g>
        <path id="Trazado_158932" data-name="Trazado 158932" d="M394.9,109.1c8.387,4.841,21.943,4.841,30.275,0,3.539-2.057,5.56-4.659,6.078-7.34-.518-2.718-2.577-5.356-6.185-7.44-8.386-4.843-21.943-4.843-30.272,0-3.54,2.057-5.563,4.659-6.081,7.341C389.23,104.372,391.289,107.012,394.9,109.1Z" fill="#4e93f9"/>
      </g>
      <g id="Grupo_102446" data-name="Grupo 102446" opacity="0.4">
        <path id="Trazado_158933" data-name="Trazado 158933" d="M401.353,99c1.577.911,1.585,2.387.019,3.3a6.277,6.277,0,0,1-5.693,0c-1.577-.911-1.585-2.387-.019-3.3A6.277,6.277,0,0,1,401.353,99Z" fill="#fff"/>
      </g>
      <g id="Grupo_102447" data-name="Grupo 102447" opacity="0.4">
        <path id="Trazado_158934" data-name="Trazado 158934" d="M406.769,95.886a1.006,1.006,0,0,1,.011,1.9,3.629,3.629,0,0,1-3.288,0,1.007,1.007,0,0,1-.011-1.9A3.623,3.623,0,0,1,406.769,95.886Z" fill="#fff"/>
      </g>
    </g>
  </g>
</svg>
