<svg xmlns="http://www.w3.org/2000/svg" xmlns:xlink="http://www.w3.org/1999/xlink" width="187" height="187" viewBox="0 0 187 187">
  <defs>
    <clipPath id="clip-path">
      <rect id="Rectángulo_32768" data-name="Rectángulo 32768" width="120" height="120" fill="#fff" stroke="#707070" stroke-width="1"/>
    </clipPath>
  </defs>
  <g id="Grupo_102474" data-name="Grupo 102474" transform="translate(-375 -2149)">
    <circle id="Elipse_4328" data-name="Elipse 4328" cx="83.5" cy="83.5" r="83.5" transform="translate(385 2159)" fill="#fff"/>
    <g id="Elipse_157" data-name="Elipse 157" transform="translate(385 2159)" fill="none" stroke="#3ca8f4" stroke-linejoin="round" stroke-width="10">
      <circle cx="83.5" cy="83.5" r="83.5" stroke="none"/>
      <circle cx="83.5" cy="83.5" r="88.5" fill="none"/>
    </g>
    <g id="Enmascarar_grupo_84" data-name="Enmascarar grupo 84" transform="translate(408 2184)" clip-path="url(#clip-path)">
      <g id="nevera-portatil" transform="translate(0 14.941)">
        <path id="Trazado_146997" data-name="Trazado 146997" d="M70.254,55.206H2.227V99.843a7.435,7.435,0,0,0,7.411,6.837H111.3a7.435,7.435,0,0,0,7.411-6.837V55.206Z" transform="translate(-0.469 -26.563)" fill="#dff6fd"/>
        <path id="Trazado_146998" data-name="Trazado 146998" d="M118.711,34.722H2.227V28.995a7.843,7.843,0,0,1,7.843-7.843h100.8a7.843,7.843,0,0,1,7.843,7.843Z" transform="translate(-0.469 -19.394)" fill="#dff6fd"/>
        <path id="Trazado_146999" data-name="Trazado 146999" d="M145.984,55.207V99.842a7.436,7.436,0,0,1-7.411,6.837h-6.8a7.434,7.434,0,0,0,7.411-6.837V55.207Z" transform="translate(-27.742 -26.563)" fill="#99e6fc"/>
        <path id="Trazado_147000" data-name="Trazado 147000" d="M145.869,29v5.725h-6.8V29a7.841,7.841,0,0,0-7.842-7.842h6.8A7.842,7.842,0,0,1,145.869,29Z" transform="translate(-27.627 -19.394)" fill="#99e6fc"/>
        <path id="Trazado_147001" data-name="Trazado 147001" d="M2.227,38.34H118.711V51.656H2.227Z" transform="translate(-0.469 -23.012)" fill="#fee8c7"/>
        <path id="Trazado_147002" data-name="Trazado 147002" d="M140.774,38.34h7.1V51.656h-7.1Z" transform="translate(-29.637 -23.012)" fill="#fedba6"/>
        <path id="Trazado_147003" data-name="Trazado 147003" d="M109.529,128.65H15.875a3.22,3.22,0,0,1-3.22-3.22v-5.025H112.749v5.025A3.22,3.22,0,0,1,109.529,128.65Z" transform="translate(-2.664 -40.289)" fill="#01d0fb"/>
        <path id="Trazado_147004" data-name="Trazado 147004" d="M12.656,120.405H112.748v4.122H12.656Z" transform="translate(-2.664 -40.289)" fill="#01c0fa"/>
        <g id="Grupo_87345" data-name="Grupo 87345" transform="translate(19.307 52.993)">
          <path id="Trazado_147005" data-name="Trazado 147005" d="M36.645,113.172H24.455V92.144a6.1,6.1,0,1,1,12.191,0v21.028Z" transform="translate(-24.455 -86.049)" fill="#99e6fc"/>
          <path id="Trazado_147006" data-name="Trazado 147006" d="M65.894,113.172H53.7V92.144a6.1,6.1,0,1,1,12.191,0Z" transform="translate(-30.612 -86.049)" fill="#99e6fc"/>
          <path id="Trazado_147007" data-name="Trazado 147007" d="M95.142,113.172H82.952V92.144a6.1,6.1,0,1,1,12.191,0Z" transform="translate(-36.77 -86.049)" fill="#99e6fc"/>
          <path id="Trazado_147008" data-name="Trazado 147008" d="M124.39,113.172H112.2V92.144a6.1,6.1,0,1,1,12.191,0Z" transform="translate(-42.928 -86.049)" fill="#99e6fc"/>
        </g>
        <path id="Trazado_147009" data-name="Trazado 147009" d="M37.641,92.143v21.028H32.913V92.143a6.1,6.1,0,0,0-3.73-5.62,6.094,6.094,0,0,1,8.459,5.62Z" transform="translate(-6.144 -33.056)" fill="#62dbfb"/>
        <path id="Trazado_147010" data-name="Trazado 147010" d="M66.888,92.143v21.028H62.161V92.143a6.093,6.093,0,0,0-3.73-5.62,6.093,6.093,0,0,1,8.457,5.62Z" transform="translate(-12.301 -33.056)" fill="#62dbfb"/>
        <path id="Trazado_147011" data-name="Trazado 147011" d="M96.137,92.143v21.028H91.41V92.143a6.1,6.1,0,0,0-3.73-5.62,6.093,6.093,0,0,1,8.457,5.62Z" transform="translate(-18.459 -33.056)" fill="#62dbfb"/>
        <path id="Trazado_147012" data-name="Trazado 147012" d="M125.385,92.143v21.028h-4.729V92.143a6.093,6.093,0,0,0-3.73-5.62,6.094,6.094,0,0,1,8.459,5.62Z" transform="translate(-24.616 -33.056)" fill="#62dbfb"/>
        <path id="Trazado_147013" data-name="Trazado 147013" d="M33.5,53.735H23.756A1.937,1.937,0,0,1,21.82,51.8V36.685a1.937,1.937,0,0,1,1.937-1.937H33.5a1.937,1.937,0,0,1,1.937,1.937V51.8A1.937,1.937,0,0,1,33.5,53.735Z" transform="translate(-4.594 -22.256)" fill="#9c9c9c"/>
        <path id="Trazado_147014" data-name="Trazado 147014" d="M124.708,53.735h-9.744a1.937,1.937,0,0,1-1.937-1.937V36.685a1.937,1.937,0,0,1,1.937-1.937h9.744a1.937,1.937,0,0,1,1.937,1.937V51.8A1.937,1.937,0,0,1,124.708,53.735Z" transform="translate(-23.795 -22.256)" fill="#9c9c9c"/>
        <path id="Trazado_147015" data-name="Trazado 147015" d="M58.98,38.34l1.311,4.489A2.835,2.835,0,0,0,63.046,45H81.863a2.835,2.835,0,0,0,2.756-2.169l1.311-4.489Z" transform="translate(-12.417 -23.012)" fill="#fece85"/>
        <path id="Trazado_147016" data-name="Trazado 147016" d="M110.4,18.925H42.26a1.758,1.758,0,1,0,0,3.517H110.4a6.091,6.091,0,0,1,6.084,6.084v3.968H104.5a3.7,3.7,0,0,0-3.59-2.835H91.169a3.7,3.7,0,0,0-3.59,2.835H32.5a3.7,3.7,0,0,0-3.59-2.835H19.163a3.7,3.7,0,0,0-3.59,2.835H3.517V28.526A6.091,6.091,0,0,1,9.6,22.442h24.57a1.758,1.758,0,1,0,0-3.517H9.6a9.612,9.612,0,0,0-9.6,9.6V92.2q0,.071.006.142a9.25,9.25,0,0,0,8.227,8.4v3.316a4.984,4.984,0,0,0,4.978,4.978h7.518a1.758,1.758,0,0,0,0-3.517H13.211a1.463,1.463,0,0,1-1.461-1.461V100.8h96.576v3.266a1.463,1.463,0,0,1-1.461,1.461H28.818a1.758,1.758,0,0,0,0,3.517h78.047a4.984,4.984,0,0,0,4.978-4.978v-3.325a9.25,9.25,0,0,0,8.152-8.395c0-.047.006-.094.006-.142V28.526a9.612,9.612,0,0,0-9.6-9.6ZM90.99,33.354a.178.178,0,0,1,.178-.178h9.744a.178.178,0,0,1,.178.178V48.467a.178.178,0,0,1-.178.178H91.169a.178.178,0,0,1-.178-.178ZM71.167,36.011l-.653,2.238c-.008.026-.015.053-.021.08a1.074,1.074,0,0,1-1.047.824H50.63a1.074,1.074,0,0,1-1.047-.824c-.007-.027-.014-.053-.021-.08l-.653-2.238Zm-38.565,0H45.245l.931,3.189a4.581,4.581,0,0,0,4.454,3.469H69.446A4.58,4.58,0,0,0,73.9,39.2l.931-3.189H87.474v9.8H32.6ZM18.985,33.354a.178.178,0,0,1,.178-.178h9.744a.178.178,0,0,1,.178.178V48.467a.178.178,0,0,1-.178.178H19.163a.178.178,0,0,1-.178-.178V33.354ZM3.517,36.011H15.468v9.8H3.517ZM29.738,97.283H21.065V78.013a4.337,4.337,0,1,1,8.674,0v19.27Zm23.091,0H44.156V78.013a4.337,4.337,0,0,1,8.674,0Zm46.181,0H90.337V78.013a4.337,4.337,0,1,1,8.674,0Zm17.472-5.154a5.707,5.707,0,0,1-5.652,5.154h-8.3V78.013a7.854,7.854,0,1,0-15.707,0v19.27H79.437V86.094a1.758,1.758,0,1,0-3.517,0V97.283H67.246V78.013a4.337,4.337,0,1,1,8.674,0,1.758,1.758,0,0,0,3.517,0,7.854,7.854,0,1,0-15.707,0v19.27H56.346V78.013a7.854,7.854,0,1,0-15.707,0v19.27H33.255V78.013a7.854,7.854,0,1,0-15.707,0v19.27H9.169a5.708,5.708,0,0,1-5.652-5.154v-42.8H15.573a3.7,3.7,0,0,0,3.59,2.835h9.744a3.7,3.7,0,0,0,3.59-2.835H87.579a3.7,3.7,0,0,0,3.59,2.835h9.744a3.7,3.7,0,0,0,3.59-2.835h11.98v42.8Zm0-46.319H104.608v-9.8h11.875Z" transform="translate(0 -18.925)" fill="#12263f"/>
      </g>
    </g>
  </g>
</svg>
