<svg xmlns="http://www.w3.org/2000/svg" xmlns:xlink="http://www.w3.org/1999/xlink" width="359" height="302" viewBox="0 0 359 302">
  <defs>
    <clipPath id="clip-path">
      <rect id="Rectángulo_35619" data-name="Rectángulo 35619" width="359" height="302" transform="translate(1105 2277)" fill="#fff" stroke="#707070" stroke-width="1"/>
    </clipPath>
  </defs>
  <g id="Enmascarar_grupo_51" data-name="Enmascarar grupo 51" transform="translate(-1105 -2277)" clip-path="url(#clip-path)">
    <g id="Grupo_101622" data-name="Grupo 101622" transform="translate(109.265 2661.35)">
      <path id="Trazado_157414" data-name="Trazado 157414" d="M1508.934,616.737c1.9.192.1-.015,0,0Z" transform="translate(-436.219 -882.119)" opacity="0.3"/>
      <path id="Trazado_157415" data-name="Trazado 157415" d="M1364.011,489.569c1.555-.048,2.8,1.573,3.528,2.776.974-2.08,5.543-4.018,7.826-3.378,1.516.424,3.585,2.612,4.92,3.6-1.537,1.448-3.055,2.916-4.577,4.379-1.955,1.862-4.888,2.706-7.32,3.83-1.461.687-4.827,0-6.374-.452-2.012-.594-3.731-2.883-5.418-4.3a19.533,19.533,0,0,1-4.095-4.356c-1.622-2.6-.531-4.832.513-7.483.985-2.523,2.044-6.038,4.661-7.315,2.2-1.069,5.772-.89,7.616.874,1.412,1.353.9,4.441,1.015,6.17.118,1.852.006,5.035-2.3,5.655C1365.923,489.51,1364.108,489.541,1364.011,489.569Z" transform="translate(-302.55 -762.67)" fill="#c38571"/>
      <path id="Trazado_157416" data-name="Trazado 157416" d="M1309.706,486.483c.22,2.09.291,3.427,1.6,5.141a26.429,26.429,0,0,0,3.814,4c1.478,1.237,2.968,2.434,4.339,3.794,1.8,1.774,2.1,2.142,4.54,2.429,1.352.163,4.845,1.264,6.082.694,2.173-1.018,4.352-2.025,6.529-3.042,3.552-1.647,6.08-4.792,8.9-7.486-1.716-1.243-4.146-3.94-6.154-4.484-2.855-.769-8.535,1.611-9.762,4.22-.884-1.5-2.459-3.53-4.4-3.465,3.18-1.071,2.98-5.2,2.831-7.863-.238-4.328.131-7.451-4.861-8.53C1314.4,470,1311.85,480.064,1309.706,486.483Z" transform="translate(-266.875 -758.802)" fill="#d9967d"/>
      <path id="Trazado_157417" data-name="Trazado 157417" d="M1268.872,463.818c1.321,1.33,1.3,3.442,1.364,5.18.105,2.52.43,5.124.289,7.646-.179,2.99-1.267,5.153-3.853,6.552,2.5-.21,4.7,2.675,5.794,4.568,1.057-2.569,4.249-3.863,6.716-4.568,1.571-.441,4.515-1.449,6.166-1,1.207.333,2.975,2.176,3.98,2.9,1.376,1.014,2.754,2.018,4.136,3.029q-4.153,3.964-8.3,7.935c-2.417,2.3-6.52,3.374-9.512,4.769-.873.409-2.031,1.288-3.024,1.169-2.139-.252-4.267-.5-6.4-.76-.842-.1-3.708.058-4.328-.563-1.351-1.33-2.64-2.729-4.037-4-2.6-2.362-5.211-4.454-7.615-7.021a21.276,21.276,0,0,1-2.755-3.4c-1.079-1.726-1.055-3.278-1.266-5.307-.119-1.22,1.088-3.261,1.5-4.372a80.915,80.915,0,0,1,3.792-8.9c1.548-3.039,3.539-5.39,7.025-6.15,3.212-.7,7.89-.169,10.328,2.3C1270.125,465.082,1268.515,463.451,1268.872,463.818Z" transform="translate(-212.907 -749.943)" fill="#e09b86"/>
      <path id="Trazado_157418" data-name="Trazado 157418" d="M1155.208,803.4c-2.085-3.374-2.968-9.469-3.438-14.713C1153.558,788.771,1154.911,794.93,1155.208,803.4Z" transform="translate(-132.63 -1028.274)" fill="#fdc0af"/>
      <path id="Trazado_157419" data-name="Trazado 157419" d="M1413.353,540.63l-.031,0-.011.007c-6.881.449-36.277,2.454-37.776,2.618-2.551.267-5.076.607-7.6,1.056q-2.756.485-5.472,1.184s-.007-.007-.009,0c-.6.152-1.2.321-1.793.494h-.005c-.306.086-.609.177-.9.267-.15.041-.285.083-.43.136-1.2.365-4.257,1.363-4.412,1.417-.331.118-2.726.968-3.069,1.092-1.008.367-2.007.781-2.988,1.21-.067.029-.129.053-.182.081-.833.343-1.638.7-2.429,1.085-.445.214-.877.418-1.306.632s-.844.424-1.253.649c-.724.4-1.433.788-2.129,1.194-.129.082-.258.15-.386.233-.521.318-1.047.649-1.566.992-.291.194-.6.4-.9.6-.177.111-.351.229-.518.354s-.319.253-.473.382h-.015c-.006.018-.025.017-.034.029a.941.941,0,0,0-.145.087.34.34,0,0,0-.079.064.277.277,0,0,0-.061.069c-.052.042-.112.077-.162.126-1.315.958-2.608,2.05-3.857,3.127-.235.187-.464.385-.7.576-.917.768-1.854,1.535-2.816,2.26-.482.35-.974.7-1.463,1.039a2.359,2.359,0,0,1-.288.185,3.507,3.507,0,0,1-.344.221.335.335,0,0,1-.108.079c-.38.259-.791.489-1.171.7-.14.088-.291.164-.427.239s-.282.148-.412.22c-.15.071-.292.149-.442.22s-.3.132-.433.193-.281.125-.419.179c-.411.161-.83.307-1.256.456-.1.037-.2.064-.3.1-.01,0-.025,0-.026.006-.114.034-.22.058-.343.094s-.221.064-.33.1a.114.114,0,0,0-.036.008c-.321.086-.638.174-.945.244-.261.066-.481.125-.7.182a.064.064,0,0,1-.034,0c-.061.02-.124.03-.184.05-.4.105-.792.194-1.181.279a1.225,1.225,0,0,1-.192.033c-.4.1-.8.178-1.214.258-.043.011-.1.022-.146.028l-.149.037c-.8.188-1.618.343-2.431.5-.086.008-.167.031-.25.045-.315.049-.638.109-.955.167-.207.034-.416.077-.636.12-.1.013-.22.03-.329.049s-.21.042-.313.059c-2.03.342-4.07.637-6.1.9-.675.088-18.06,2.372-18.122,2.383-1.446.215-2.9.451-4.349.731-.09.021-.229.042-.313.059l-.136.026c-.163.018-.317.043-.473.068-.592.1-1.919.347-1.981.357l0,0-.156.029c-.047.01-.1.018-.131.028-.158.034-.305.066-.469.089a1.918,1.918,0,0,1-.245.031c-.987.162-2.059.279-3.115.454l-.01,0a14.428,14.428,0,0,0-3.812,1.085l-.005,0a2.773,2.773,0,0,0-.289.028,9.661,9.661,0,0,0-1.561.333,22.922,22.922,0,0,0-2.951,1.137c-.111.039-.214.09-.317.136-.009,0-.03,0-.032.009a.16.16,0,0,0-.091.055l0,.009a.393.393,0,0,0-.047.009,116.167,116.167,0,0,0-16.593,7.207c-.325.173-.664.337-.983.507a.168.168,0,0,0-.048.029.511.511,0,0,1-.068.028.288.288,0,0,1-.126.059q-1.561.756-3.073,1.546a.1.1,0,0,1,0,.01c-.22.108-.429.21-.64.32-.508.244-1.009.495-1.5.761-.128.063-.259.142-.4.209s-.231.116-.339.174c-.012.006-.011.006-.013.01a.77.77,0,0,0-.1.059c-.045.02-.094.049-.139.07-1.332.648-2.689,1.319-4.013,2.008-1.8.929-3.631,1.888-5.457,2.8-.051.009-.119.036-.162.047-.154.055-.284.122-.454.2-.025-.018-.021.033-.021.033-.5.217-1.014.419-1.5.621a.4.4,0,0,1-.079.034l-.031,0s-.009,0-.011,0a.283.283,0,0,0-.084.018c-.022.008-.052.008-.074.016a5.666,5.666,0,0,1-1.909.3,2.873,2.873,0,0,1-.293-.037,2.343,2.343,0,0,1-.375-.024.225.225,0,0,1-.055-.018,2.78,2.78,0,0,1-1.111-.71,3.839,3.839,0,0,1-.4-.64.715.715,0,0,1-.073-.175.749.749,0,0,1-.1-.26,3.6,3.6,0,0,1-.169-.558,1.89,1.89,0,0,1-.111-.589c-.009-.253-.055-.484-.075-.735a4.969,4.969,0,0,1,.007-.586,1.508,1.508,0,0,0-.01-.219.517.517,0,0,0,.154.072c2.089.82,4.289-.225,6.339-1.384.875-.507,1.749-1.013,2.517-1.431.189-.1.431-.219.62-.321.112-.044.171-.074.284-.122a1.269,1.269,0,0,0,.277-.164,1.67,1.67,0,0,0,.3-.151c3.316-1.662,11.882-6,12.848-6.478a156.514,156.514,0,0,1,19.682-8.161l.02-.033a1.147,1.147,0,0,1,.2-.055c.45-.118.893-.251,1.342-.37.113-.048.229-.042.327-.089a.221.221,0,0,1,.1-.014c15.616-4.633,32.488-3.957,48.281-8.1a6.37,6.37,0,0,0,.96-.294c4.657-1.479,7.484-4.451,11.343-7.567a59.036,59.036,0,0,1,14.677-8.753c.974-.431,1.963-.819,2.971-1.186,1.871-.681,3.758-1.318,5.629-1.842,1.209-.353,2.442-.689,3.654-1a97.508,97.508,0,0,1,9.784-2.044c1.164-.176,2.313-.337,3.461-.493.889-.13,1.8-.247,2.7-.339.939-.148,1.838-.23,2.773-.335.358-.03.649-.067.984-.07,2.684-.27,5.444-.5,8.159-.674,4.07-.308,20.432-1.264,24.507-1.526l.009,0C1412.437,537.718,1412.889,539.194,1413.353,540.63Z" transform="translate(-196.655 -813.742)" opacity="0.1"/>
      <path id="Trazado_157420" data-name="Trazado 157420" d="M1296.8,498.376a7.458,7.458,0,0,1-.386,3.309c-.4,1.033-2.537.208-3.428.013-2.964-.627-6.45-1.746-8.113-4.5a60.478,60.478,0,0,1-5.838,10.705,19.753,19.753,0,0,1-5.208,5.56c-1.465.95-.9,3.791-1.185,5.512-1.256-1.344-3-2.38-2.741-4.252a28.389,28.389,0,0,0,.295-3.926c0-.848,2.2-1.909,2.866-2.548,4.442-4.234,7.7-9.943,10.458-15.385,1.434,2.381,4.307,3.549,6.877,4.209.871.228,6.377.82,6.4,1.3C1296.94,500.207,1296.788,498.276,1296.8,498.376Z" transform="translate(-233.014 -776.83)" opacity="0.1"/>
      <path id="Trazado_157421" data-name="Trazado 157421" d="M1509.6,561.272c2.633,1.921,3.32,2.548,4.366,5.794A54.308,54.308,0,0,0,1509.6,561.272Z" transform="translate(-436.785 -834.974)" opacity="0.1"/>
      <path id="Trazado_157422" data-name="Trazado 157422" d="M1197.477,831.342c-.085.459-.205.971-.35,1.465.024.018.006.042-.013.074a12.185,12.185,0,0,1-.809,2.181,13.025,13.025,0,0,1-2.073,3.493,8.679,8.679,0,0,1-2.11,1.828,3.539,3.539,0,0,1-.956.452l-.018.028a1.834,1.834,0,0,1-.277-.4c-.154.335-.561.57-1.536.644a1.623,1.623,0,0,1-.578.153.163.163,0,0,1-.117,0,2.6,2.6,0,0,1-.759-.051,16.507,16.507,0,0,0,2.406-2.3c.176-.156.313-.344.456-.486a13.279,13.279,0,0,0,2.651-4.716c.086-.056.166-.124.227-.16.088-.061.157-.093.236-.157a22.144,22.144,0,0,1,3.4-1.965A.892.892,0,0,0,1197.477,831.342Z" transform="translate(-163.324 -1064.534)" opacity="0.1"/>
      <path id="Trazado_157423" data-name="Trazado 157423" d="M1332.126,257.32c4.33,13.945,13.892,44.724,14.318,46.172,0,.006,0,.013,0,.018a.011.011,0,0,1,.01.013c-1.47.095-36.3,2.447-37.79,2.61-2.552.266-5.079.6-7.611,1.055-1.833.326-3.647.721-5.466,1.193h-.006c-.6.148-1.192.3-1.792.483,0-.007,0-.007,0-.007-.294.093-.6.19-.895.277a4.368,4.368,0,0,0-.438.137c-1.217.354-2.418.755-3.608,1.139-.118.038-.227.079-.351.114-.146.061-.3.1-.46.163-.321.113-.661.228-1.014.354-.107.037-.228.085-.336.134a1.63,1.63,0,0,1-.162.047l-.024,0c-.158.06-.333.111-.505.186-.35.108-.689.242-1.017.372-.992.393-2.022.745-2.991,1.2-.065.031-.133.051-.185.079-.85.337-1.642.7-2.426,1.091-.44.221-.874.417-1.31.619s-.854.438-1.261.651a23.55,23.55,0,0,0-2.119,1.2,4.288,4.288,0,0,1-.366.249c-.376.236-1.442.878-1.591.977-.285.19-.586.407-.891.606a5.379,5.379,0,0,0-.514.358,3.448,3.448,0,0,0-.493.379c0,.006-.026.014-.027.02a.761.761,0,0,1-.15.085.309.309,0,0,0-.075.06.342.342,0,0,0-.089.076.973.973,0,0,0-.131.117c-.948.746-1.871,1.532-2.81,2.333a55.89,55.89,0,0,1-6.835,5.211,12.065,12.065,0,0,1-1.089.653c-.144.086-.3.164-.448.237s-.289.141-.412.206c-.142.074-.3.164-.446.225s-.3.14-.423.2c-.148.067-.282.13-.428.186a12.425,12.425,0,0,1-1.268.417,1.152,1.152,0,0,1-.288.136.046.046,0,0,1-.02,0,2.489,2.489,0,0,1-.357.113l-.322.077c-.013.01-.013.01-.044.011-.311.084-.64.155-.935.229-.256.064-.5.122-.7.193-.026.014-.033.012-.045.01-.063.02-.13.041-.194.067-.391.1-.785.18-1.173.259-.064.026-.123.023-.2.048-.39.09-.8.158-1.213.247a1.127,1.127,0,0,1-.147.026.434.434,0,0,1-.136.033c-.809.182-1.638.338-2.433.5a2.324,2.324,0,0,0-.256.039c-.322.057-.644.118-.946.18-.209.04-.417.075-.642.106a2.741,2.741,0,0,1-.324.052c-.109.015-.215.039-.323.047-2.021.346-4.072.651-6.1.918-.676.095-1.362.171-2.024.25-.1.015-.19.037-.275.042-.135.021-.267.034-.4.047-.241.023-.473.054-.7.073-.947.144-1.918.254-2.876.36-.579.08-1.162.147-1.731.2-.4.06-.772.1-1.188.161-.152.019-.315.03-.474.054-2.246.258-4.5.485-6.75.886-.514.084-1.014.193-1.5.287a1.862,1.862,0,0,0-.188.025c-1.466.227-2.921.461-4.349.747-.109.007-.232.037-.323.047l-.61.087c-.136.033-.265.056-.4.089,0,0-1.012.181-1.412.259-.073.007-.122.017-.176.021l-.153.025a.763.763,0,0,1-.129.022c-.155.036-.3.068-.463.1a.663.663,0,0,1-.118-.006.441.441,0,0,1-.141.021c-.979.163-2.059.28-3.112.462l-.012,0a13.322,13.322,0,0,0-3.8,1.084,1.184,1.184,0,0,0-.3.027,9.3,9.3,0,0,0-1.553.331,20.573,20.573,0,0,0-2.946,1.138,1.619,1.619,0,0,0-.331.135s-.024,0-.026.014a.093.093,0,0,0-.09.046.255.255,0,0,0-.045.023,1.793,1.793,0,0,1-.193.091c-.1.045-.2.092-.294.134-.538.236-1.022.443-1.448.653-.374.147-2.033.827-2.509,1.018-.651.278-1.29.563-1.913.857-.164.059-.291.111-.429.156a.112.112,0,0,1-.063.02c-.376.158-.773.337-1.169.51a2.728,2.728,0,0,1-.268.115c-.413.17-.834.356-1.257.544-.3.135-.6.243-.9.377s-.61.271-.929.421c-.2.093-.41.189-.61.29-.135.063-.28.113-.416.188-1.776.741-3.459,1.531-5.181,2.352l-.039.024c-.03,0-.044.017-.069.02a.35.35,0,0,1-.132.046c-1.032.513-2.064,1.021-3.07,1.561,0,.006,0,0,0,0-.225.109-.425.21-.645.32-.508.246-1,.493-1.507.775-.121.053-.254.141-.383.2-.146.056-.252.129-.359.167,0,.012,0,.012,0,.012a.445.445,0,0,0-.1.05.756.756,0,0,0-.137.075,67.21,67.21,0,0,1-9.6,5.086c-.315.114-.648.225-.955.321a6.408,6.408,0,0,1-1.036.3.453.453,0,0,1-.1.02.1.1,0,0,1-.016.027l-.01-.009c-.014.016-.057.017-.107.033l-.054,0a7.6,7.6,0,0,1-.916.142,5.97,5.97,0,0,1-.964.1,2.339,2.339,0,0,0-.312.013,1.521,1.521,0,0,1-.394-.041c-.012,0-.037.013-.042.006a4.842,4.842,0,0,1-3.833-2.088l-.03-.04c-.04-.054-.06-.116-.1-.17-.1-.158-.184-.314-.271-.488a7.987,7.987,0,0,1-.347-.757c-.028-.01-.045-.06-.036-.118a.524.524,0,0,1-.092-.175,7.828,7.828,0,0,0,1.015-.439c.106-.068.207-.12.3-.182.3-.194.574-.366.838-.576a10.24,10.24,0,0,0,.971-.9,3.582,3.582,0,0,1,.317-.358,3.415,3.415,0,0,0,.584-.789,10.574,10.574,0,0,0,1.357-2.433s-.012-.038.028-.026c.21-.6.407-1.233.588-1.8a.457.457,0,0,0,.014-.248c.039-.024.051-.058.008-.094.054-.278.077-.627.111-1.015.017-.111.022-.229.035-.353.031-.359.06-.755.082-1.175.19-2.447.475-5.525,1.119-6.472.023,0,.023,0,.034-.031.12-.083.233-.2.342-.289a1.2,1.2,0,0,1,.309-.306c.117-.094.193-.21.312-.287a4.363,4.363,0,0,1,1.091-.671,6.976,6.976,0,0,1,.9-.777,7.145,7.145,0,0,1,.611-.493c.067-.049.141-.1.207-.148.351-.269.7-.528,1.072-.781a76.145,76.145,0,0,1,10.828-5.576c5.622-2.548,11.468-4.99,16.625-8.413a35.774,35.774,0,0,0,3.73-2.779c2.357-2.082,4.983-5.353,3.464-8.38,0-.03-.034-.041-.03-.07a2.767,2.767,0,0,0-.185-.325c-.072-.108-.149-.213-.219-.321-.394-.6-.8-1.2-1.233-1.76-.426-.577-.879-1.14-1.32-1.7a2.259,2.259,0,0,0-.207-.288c-.07-.084-.144-.153-.214-.236-.206-.3-.427-.619-.668-.912a4.293,4.293,0,0,0-.556-.578,1.668,1.668,0,0,0-.178-.14c-1.567-.767-5.344,0-7.144-.17-.572-.009-1.189-.04-1.832-.085-.242-.017-.478-.03-.723-.067a23.493,23.493,0,0,1-3.351-.567c-.195-.053-.39-.1-.591-.154a.336.336,0,0,1-.11-.023c-.126-.04-.253-.068-.39-.112l-.166-.049a13.883,13.883,0,0,1-4.016-1.894,3.736,3.736,0,0,1-.382-.279,8.447,8.447,0,0,1-1.834-2c-.7,1.655-1.462,3.289-2.286,4.877-.21.4-.418.8-.639,1.192-.642,1.174-1.342,2.333-2.067,3.459-.15.24-.314.5-.488.738s-.349.5-.532.725c-.158.221-.311.438-.475.662-.319.434-.638.866-.981,1.279-.049.059-.1.115-.152.174-.128.152-.248.3-.377.445a2.242,2.242,0,0,1-.375.349c-.247.213-.541.434-.851.66-.293.214-.61.451-.925.672-.143.1-.289.206-.423.311a5.451,5.451,0,0,0-1.021.921.513.513,0,0,0-.109.139,1.5,1.5,0,0,0-.087.142c-.018.039-.028.073-.049.123a4.686,4.686,0,0,0-.186,1.822c.007.163.007.311.013.472s.007.311,0,.46a2.971,2.971,0,0,1,0,.454l0,.023c-.005.113-.011.231-.021.331a.3.3,0,0,0-.011.07,2.636,2.636,0,0,1-.068.616,2.087,2.087,0,0,1,0,.279,4.784,4.784,0,0,1-.159.853,11.58,11.58,0,0,1-.234,1.159l-.019.129c-.036.12-.055.254-.1.367a25.884,25.884,0,0,1-2.288,6.105c-.01.064-.05.094-.066.163-1.484,2.682.816,6.62.414,9.489l0,.012v.036a1.928,1.928,0,0,1-.051.261c-.035.114-.058.225-.093.339a4.38,4.38,0,0,1-.316.709c-.107.157-.214.314-.339.468a2.881,2.881,0,0,1-.306.3.2.2,0,0,0-.068.085l-.01-.006c-.013.01-.015.015-.028.025-3.753,3.33-6.073,6.847-6.141,12.171a1.647,1.647,0,0,0-.033.419c0,.179.022.331.029.517a.8.8,0,0,0,.021.3c.063.928.359,1.611.124,2.023a.829.829,0,0,1-.6.471,3.046,3.046,0,0,1-.918.2,2.035,2.035,0,0,1-.588.144.274.274,0,0,1-.135.022,3.984,3.984,0,0,1-.739-.082,3.385,3.385,0,0,1-1.138-.368.512.512,0,0,0-.115-.107,1.991,1.991,0,0,0-.256-.241l-.041-.048a2.349,2.349,0,0,1-.325-.377,6.856,6.856,0,0,1-.7-1.132c-.126-.27-.25-.557-.365-.866-.238-.639-.44-1.283-.627-1.979-.034-.13-.066-.256-.1-.386s-.057-.242-.089-.36-.057-.217-.076-.328c-.038-.024-.028-.094-.076-.167a.449.449,0,0,1-.043-.148c-.033-.22-.084-.432-.108-.632a.137.137,0,0,0-.059-.081c-.14-.618-.262-1.264-.4-1.911-.044-.3-.076-.607-.126-.913a10.445,10.445,0,0,0-.179-1.071c-.067-.386-.082-.717-.139-1.048a.4.4,0,0,0-.031-.04c-.194-1.324-.316-2.691-.42-4.019-.061-.9-.156-1.814-.231-2.666-.058-.88-.112-1.747-.16-2.619a105.325,105.325,0,0,1,1.238-21.954c1.091-6.643,3.085-12.118,7.332-17.373a131.45,131.45,0,0,1,10.989-11.87,224.072,224.072,0,0,1,18.344-16.256c2.367-1.893,3.94-2.909,7.072-3.1,3.38-.135,6.86.921,10.015,1.915,7.247,2.351,14.22,5.371,21.466,7.728,5.835,1.9,11.867,2.576,17.887,3.167,4.228.452,8.451.814,12.664,1.163,1.827.15,3.637.3,5.452.44.478.036.946.059,1.416.07a79.181,79.181,0,0,0,12.423-.794c5.293-.562,10.171-2.441,15.231-4.071C1304.031,266.35,1318.336,262.36,1332.126,257.32Z" transform="translate(-129.784 -576.615)" fill="#f7b08d"/>
      <g id="Grupo_101615" data-name="Grupo 101615" transform="translate(1018.639 -319.295)" opacity="0.1">
        <path id="Trazado_157424" data-name="Trazado 157424" d="M1332.135,257.32l.7,2.247c-13.7,4.992-27.916,8.962-41.792,13.419-5.06,1.629-9.94,3.511-15.232,4.071a73.552,73.552,0,0,1-13.832.732c-1.822-.151-13.893-1.156-18.12-1.6-6.023-.6-12.05-1.269-17.889-3.168-7.244-2.362-14.222-5.379-21.469-7.73-3.145-1-6.637-2.062-10.013-1.924-3.134.189-4.707,1.21-7.07,3.1a224.129,224.129,0,0,0-18.34,16.26,130.637,130.637,0,0,0-10.989,11.866c-4.249,5.252-6.243,10.729-7.336,17.374a105.034,105.034,0,0,0-1.238,21.948c.046.876.107,1.743.164,2.622.064.857.171,1.775.225,2.665.111,1.338.225,2.7.425,4.032l.027.033c.058.326.076.663.142,1.041a10.836,10.836,0,0,1,.18,1.077c.051.311.078.615.121.911.142.647.269,1.3.411,1.912a.211.211,0,0,1,.061.08,5.279,5.279,0,0,0,.108.637.419.419,0,0,0,.029.144c.065.069.043.137.085.162a1.213,1.213,0,0,0,.081.333,2.827,2.827,0,0,0,.084.359c.032.133.066.256.1.388.131.5.274.971.439,1.429a7.093,7.093,0,0,1-.411-.731,9.31,9.31,0,0,1-.369-.866c-.242-.642-.436-1.28-.624-1.978-.032-.133-.068-.255-.1-.388a2.975,2.975,0,0,1-.1-.362,1.748,1.748,0,0,1-.069-.329c-.042-.025-.033-.1-.086-.162a.872.872,0,0,1-.039-.148c-.03-.219-.086-.432-.109-.636-.012-.041-.012-.041-.061-.08-.141-.61-.259-1.26-.4-1.908-.043-.3-.081-.6-.131-.915-.048-.359-.091-.693-.169-1.073s-.084-.715-.142-1.041l-.038-.036c-.189-1.326-.315-2.694-.414-4.028-.065-.894-.175-1.808-.236-2.669s-.107-1.743-.153-2.618a105.061,105.061,0,0,1,1.238-21.948c1.081-6.648,3.087-12.121,7.336-17.374a130.592,130.592,0,0,1,10.978-11.869,221.891,221.891,0,0,1,18.351-16.256c2.363-1.893,3.937-2.914,7.07-3.1,3.376-.138,6.857.925,10.013,1.924,7.247,2.351,14.225,5.368,21.469,7.73,5.828,1.9,11.867,2.565,17.878,3.164,4.226.448,16.309,1.456,18.12,1.6a73.646,73.646,0,0,0,13.842-.73c5.292-.56,10.172-2.442,15.231-4.071C1304.037,266.346,1318.347,262.359,1332.135,257.32Z" transform="translate(-1148.432 -257.32)" fill="#fff"/>
      </g>
      <path id="Trazado_157425" data-name="Trazado 157425" d="M1157.925,827.845a4.855,4.855,0,0,1-.467-.828,7.2,7.2,0,0,1-.611-1.216c-.12-.278-.246-.563-.365-.874-.236-.628-.431-1.288-.629-1.974a9.863,9.863,0,0,1-.348-1.24c-.027-.038-.018-.07-.046-.138-.061-.245-.1-.48-.158-.721-.15-.611-.272-1.263-.4-1.907-.181-1.023-.356-2.064-.509-3.049l.064.011c1.343.066,2.67,4.489,3.33,10.729.033.207.059.44.094.672C1157.884,827.474,1157.918,827.68,1157.925,827.845Z" transform="translate(-134.855 -1051.405)" fill="#fdc0af"/>
      <path id="Trazado_157426" data-name="Trazado 157426" d="M1266.708,486.558c.212,1.225,2.747,3.282,3.515,4.329,1.346,1.611,1.966,4.281,2.6,6.255a2.229,2.229,0,0,0-.185-.325c-.073-.108-.148-.213-.219-.321-.393-.6-.8-1.2-1.235-1.758-.425-.579-.875-1.145-1.318-1.7a2.293,2.293,0,0,0-.207-.288c-.069-.085-.139-.17-.2-.243-.207-.288-.444-.617-.684-.9a4.935,4.935,0,0,0-.554-.578,1.777,1.777,0,0,0-.178-.14c-1.567-.766-5.347,0-7.144-.17-.571-.009-1.189-.033-1.832-.085-.241-.012-.478-.038-.723-.067a27.516,27.516,0,0,1-3.351-.567l-.591-.154a.414.414,0,0,1-.11-.023c-.126-.039-.263-.072-.386-.121a.994.994,0,0,1-.168-.042,13.921,13.921,0,0,1-4.02-1.894,3.837,3.837,0,0,1-.38-.277,8.24,8.24,0,0,1-1.832-2c-.7,1.653-1.462,3.283-2.288,4.874-.211.4-.419.794-.639,1.193-.655,1.177-1.345,2.333-2.078,3.454-.149.24-.3.5-.476.743s-.352.494-.526.729c-.158.214-.32.443-.482.657-.326.43-.643.865-.983,1.276-.049.06-.1.117-.15.177-.125.151-.254.291-.381.434a3.831,3.831,0,0,1-.369.363c-.246.21-.54.436-.853.657-.291.217-1.209.877-1.348.983a5.618,5.618,0,0,0-1.023.923.649.649,0,0,0-.108.136,1.575,1.575,0,0,0-.087.143.612.612,0,0,0-.049.123,5.121,5.121,0,0,0-.186,1.822c.013.163.009.312.012.472s.009.311.005.458a3.614,3.614,0,0,1,0,.455c-.007.125-.014.251-.024.354-.009.029,0,.051-.011.07a3.183,3.183,0,0,1-.057.621,2.569,2.569,0,0,1-.011.274,4.772,4.772,0,0,1-.159.853,11.01,11.01,0,0,1-.234,1.159l-.021.132c-.036.116-.06.247-.094.364a28.546,28.546,0,0,1-2.29,6.107c-.009.061-.05.091-.061.162-1.486,2.682.812,6.62.413,9.492l-.012.039c-.018.09-.022.174-.04.264-.036.116-.059.225-.1.341a3.917,3.917,0,0,1-.316.709q-.155.239-.339.468a2.706,2.706,0,0,1-.307.3.213.213,0,0,0-.068.085l-.039.019a1.856,1.856,0,0,0-.336.224,12.581,12.581,0,0,0-2.284,2.039c.214-3.27.217-6.542.135-9.82-.009-.513-.059-1.07-.124-1.644a14.693,14.693,0,0,1-.044-4.69,4.268,4.268,0,0,1,.457-1.122,25.515,25.515,0,0,0,3.3-13.592c.03-.267,3.54-2.851,3.948-3.283a43.7,43.7,0,0,0,4.611-6.083,91.157,91.157,0,0,0,4.8-8.236,6.629,6.629,0,0,0,.993,1.278c2.124,2.183,5.58,3.062,8.617,3.511.6.1,1.19.17,1.743.237C1258.155,486.277,1266.7,486.459,1266.708,486.558Z" transform="translate(-198.189 -766.885)" opacity="0.1"/>
      <path id="Trazado_157427" data-name="Trazado 157427" d="M1210.314,886.146a7.924,7.924,0,0,0,1.147-.755l-1.411,2.734a7,7,0,0,1-.623-1.244c-.023-.007-.047-.053-.04-.114a.737.737,0,0,1-.083-.178A6.473,6.473,0,0,0,1210.314,886.146Z" transform="translate(-181.533 -1110.475)" opacity="0.3"/>
      <path id="Trazado_157428" data-name="Trazado 157428" d="M1227.16,889.175c.941.412.42,1.986.452,2.948a6.642,6.642,0,0,1-.452-2.948C1227.306,889.24,1227.147,889.78,1227.16,889.175Z" transform="translate(-196.71 -1113.691)" opacity="0.1"/>
      <path id="Trazado_157429" data-name="Trazado 157429" d="M1210.291,889.44c.1-.063.207-.116.3-.182l-.842,1.67a6.707,6.707,0,0,1-.347-.757c-.029-.009-.045-.057-.037-.118a.637.637,0,0,1-.094-.178A6.756,6.756,0,0,0,1210.291,889.44Z" transform="translate(-181.507 -1113.762)" opacity="0.3"/>
      <g id="Grupo_101618" data-name="Grupo 101618" transform="translate(995.735 -239.633)">
        <ellipse id="Elipse_4551" data-name="Elipse 4551" cx="19.688" cy="2.188" rx="19.688" ry="2.188" transform="translate(18.481 139.027)" opacity="0.3"/>
        <g id="Grupo_101617" data-name="Grupo 101617" transform="translate(0)">
          <path id="Trazado_157430" data-name="Trazado 157430" d="M1122.519,889.78a27.315,27.315,0,1,1-27.315-27.315A27.315,27.315,0,0,1,1122.519,889.78Z" transform="translate(-1057.067 -851.355)" fill="#b53535"/>
          <path id="Trazado_157431" data-name="Trazado 157431" d="M1140.079,911.113a23.551,23.551,0,1,1-23.551-23.551A23.551,23.551,0,0,1,1140.079,911.113Z" transform="translate(-1078.39 -872.688)" fill="#fff"/>
          <g id="Grupo_101616" data-name="Grupo 101616">
            <path id="Trazado_157432" data-name="Trazado 157432" d="M1288.147,826.553a38.389,38.389,0,0,1-3.446,15.868l-34.674,87.274v-76.7a26.45,26.45,0,0,0,0-52.9V788.41a36.8,36.8,0,0,1,5.783.439,38.206,38.206,0,0,1,32.337,37.7Z" transform="translate(-1211.883 -788.409)" fill="#cc3e3e"/>
            <path id="Trazado_157433" data-name="Trazado 157433" d="M1007.428,826.538a26.445,26.445,0,0,1,26.445-26.445V788.4A38.128,38.128,0,0,0,999.2,842.426l34.669,87.264V852.984A26.445,26.445,0,0,1,1007.428,826.538Z" transform="translate(-995.735 -788.401)" fill="#e24141"/>
          </g>
        </g>
      </g>
      <path id="Trazado_157434" data-name="Trazado 157434" d="M1260.6,801.911c-2.1.971-8.72,4.233-8.859,4.3-.115.069-.231.116-.324.185h-.023a.318.318,0,0,1-.093.069c-.046,0-.093.046-.139.069-.393.208-.814.455-1.249.717-.187.113-.372.228-.578.347-.934.54-1.966,1.156-3.03,1.735a35.775,35.775,0,0,1-4.765,2.267c-.3.116-.624.231-.948.324a2.82,2.82,0,0,1-.324.116c-.231.069-.486.139-.717.185-.023.023-.046.023-.069.046h-.046c-.023.023-.046.023-.115.023h-.046c-.116.047-.254.069-.393.116-.278.046-.532.115-.763.139a4.8,4.8,0,0,1-2.614-.185,5.967,5.967,0,0,1-1.3-.578,9.926,9.926,0,0,1-.925-.74c-.509-.37-.9-1.6-1.226-2.059-.023-.023-.069-.046-.069-.092a1.6,1.6,0,0,1-.278-.393,5.82,5.82,0,0,1-.578-1.55,6.927,6.927,0,0,1-.139-.995,12.123,12.123,0,0,1,.232-2.845,2.7,2.7,0,0,1,.093-.417,4.218,4.218,0,0,1,.139-.578,15.089,15.089,0,0,1,2.383-5.32,19.751,19.751,0,0,1,4.6-4.6c.324-.231.648-.486.971-.694.07-.046.139-.115.208-.162A37.67,37.67,0,0,1,1260.6,801.911Z" transform="translate(-199.958 -1030.532)" opacity="0.3"/>
      <path id="Trazado_157435" data-name="Trazado 157435" d="M1220.015,769.256c.031,2.129-1.046,3.1-2.332,4.668a7.371,7.371,0,0,0-1.438,3.534c-.048.122-.048.245-.094.363l0,.05c-.383,1.916-.561,4.746-2.252,6.076-.018.023-.018.023-.07.037a3.9,3.9,0,0,1-.847.481c-.021-.027-.05,0-.05,0-.213.086-.19.294-.419.336-.111.043-.255.1-.337.118-1.587.422-3.221.961-4.766.316a5.594,5.594,0,0,1-1.3-.573,7.185,7.185,0,0,1-.907-.75c-.516-.358-.921-1.59-1.238-2.053a.106.106,0,0,1-.064-.078,1.829,1.829,0,0,1-.277-.4,5.41,5.41,0,0,1-.583-1.556,9.628,9.628,0,0,1,.093-3.847c.917-4.85,3.48-8.121,7.227-10.919.305-.224.647-.47.951-.689a16.579,16.579,0,0,1,2.9-2.036,3.452,3.452,0,0,1,2.261-.452C1219.3,762.464,1219.98,766.92,1220.015,769.256Z" transform="translate(-176.082 -1005.455)" fill="#f7b08d"/>
      <path id="Trazado_157436" data-name="Trazado 157436" d="M1281.128,669.85l30.891-16.584,9.244,9.777-7.97,10.653-27.64,13.013-4.082.25-.283-6.191Z" transform="translate(-242.584 -913.168)" fill="#f7b08d"/>
      <path id="Trazado_157437" data-name="Trazado 157437" d="M1320.02,572.827c.093-.014.232-.037.322-.056,1.516-.323,3.046-.529,4.551-.761,1.3-.2,7.137-1.028,8.748-1.225,1.926-.237,6.7-.81,7.139-.865,2.707-.338,5.436-.691,8.146-1.168.406-.071.86-.151,1.268-.227,1.271-.236,2.539-.476,3.785-.745.926-.2,1.813-.363,2.733-.6.283-.072.579-.153.913-.235.426-.1.875-.228,1.322-.353.241-.067.449-.128.668-.208a15.9,15.9,0,0,0,1.67-.631c.287-.116.592-.261.893-.408.25-.142.556-.287.829-.457.39-.212.792-.444,1.17-.7a.452.452,0,0,0,.165-.12c.468-.271.883-.572,1.318-.873,1.479-1.025,2.871-2.219,4.23-3.379,1.31-1.117,2.656-2.25,4.026-3.245a.912.912,0,0,1,.333-.25,9.361,9.361,0,0,1,.99-.735c.825-.533,1.638-1.089,2.464-1.589s1.657-.954,2.516-1.426c.83-.457,1.676-.857,2.559-1.277.846-.4,1.719-.778,2.611-1.17,1.312-.576,2.641-1.1,4.015-1.576.215-.09.458-.156.674-.24.594-.234,1.215-.44,1.811-.646,1.434-.5,2.929-.944,4.4-1.392,9.568-2.921,19.707-3.4,29.649-4.069,7.975-.525,15.923-1.029,23.906-1.551l.041-.007c-.462-1.44-.911-2.91-1.354-4.334-4.084.26-29.978,1.939-32.673,2.192-1.271.12-2.515.261-3.759.41-.9.108-1.811.213-2.7.339-1.147.162-2.3.311-3.461.493a99.6,99.6,0,0,0-9.784,2.045c-1.211.317-2.443.656-3.655,1-1.868.534-3.757,1.155-5.628,1.842-1.01.371-2,.754-2.979,1.179a71.644,71.644,0,0,0-13.447,7.861c-3.866,2.8-6.826,6.742-11.539,8.193-.337.076-.664.21-1.027.272a7.263,7.263,0,0,1-.96.294c-15.732,4.213-32.444,4.02-48.282,8.1a.228.228,0,0,0-.091.011c-.114.048-.229.042-.332.087l-1.348.374a.729.729,0,0,0-.191.063l-.019.029a116.436,116.436,0,0,0-19.687,8.159c-.965.483-9.51,4.853-12.847,6.479a1.9,1.9,0,0,1-.3.151c-.069.032-.171.072-.283.122-.07.031-.171.074-.281.113-1.2.522-3.136,1.4-3.134,1.8.007,1.6-.022,3.177-.048,4.739a.435.435,0,0,1,.017.1c-.021-.027-.018.024-.018.024a.029.029,0,0,1,.007.041c.191-.107.43-.214.628-.314,1.827-.923,8.235-4.216,9.611-4.881a2.98,2.98,0,0,1,.459-.244c.827-.448,1.671-.864,2.532-1.289q4.423-2.185,8.912-4.216c.828-.374,1.62-.748,2.435-1.088.433-.181,8.878-3.761,9.6-4.1.015-.03.082-.058.125-.069a30.336,30.336,0,0,1,5.132-1.634,63.347,63.347,0,0,1,6.919-1.542Z" transform="translate(-233.187 -813.757)" fill="#f7b08d"/>
      <path id="Trazado_157438" data-name="Trazado 157438" d="M1429,540.63l-.031,0-.011.007c-6.881.449-36.277,2.454-37.776,2.618-2.551.267-5.076.607-7.6,1.056q-2.757.485-5.473,1.184s-.007-.007-.008,0c-.6.152-1.2.321-1.793.494h-.005c-.306.086-.609.177-.9.267-.15.041-.285.083-.43.136-1.2.365-4.257,1.363-4.412,1.417-.331.118-2.726.968-3.069,1.092-1.008.367-2.007.781-2.988,1.21-.067.029-.129.053-.182.081-.833.343-1.638.7-2.429,1.085-.445.214-.877.418-1.306.632s-.844.424-1.253.649c-.724.4-1.434.788-2.129,1.194-.129.082-.258.15-.387.233-.521.318-1.047.649-1.566.992-.291.194-.6.4-.9.6-.177.111-.351.229-.518.354s-.319.253-.473.382h-.015c-.006.018-.025.017-.034.029a.927.927,0,0,0-.145.087.334.334,0,0,0-.079.064.274.274,0,0,0-.061.069c-.052.042-.112.077-.162.126-1.315.958-2.608,2.05-3.857,3.127-.235.187-.464.385-.7.576-.913.77-1.854,1.535-2.816,2.26-.233.182-.473.366-.722.535l-.741.5a2.35,2.35,0,0,1-.288.185c-.094.064-.187.128-.288.184a.093.093,0,0,1-.056.037.336.336,0,0,1-.108.079c-.38.259-.791.489-1.171.7-.14.088-.291.164-.427.239s-.282.148-.412.22c-.15.071-.292.149-.442.22s-.3.132-.433.193-.281.125-.419.179c-.411.161-.83.307-1.256.456-.1.037-.2.064-.3.1-.01,0-.024,0-.026.006-.113.034-.22.058-.343.094s-.221.064-.33.1a.114.114,0,0,0-.037.008c-.321.086-.638.174-.945.244-.261.066-.481.125-.7.182a.065.065,0,0,1-.034,0c-.061.02-.123.03-.184.05-.4.105-.792.194-1.181.279a1.219,1.219,0,0,1-.192.033c-.4.1-.8.178-1.214.258-.043.011-.1.022-.146.028l-.149.037c-.8.188-1.618.343-2.432.5-.086.008-.167.031-.25.045-.315.049-.638.109-.955.167-.207.034-.416.077-.636.12-.1.013-.22.03-.33.049s-.21.042-.313.059c-2.03.342-4.07.637-6.1.9-.675.088-18.06,2.372-18.122,2.383-1.446.215-2.9.451-4.349.731-.09.021-.229.042-.313.059l-2.589.452v0l-.156.029-.131.028-.715.12a70.528,70.528,0,0,0-6.937,1.541,37.6,37.6,0,0,0-4.805,1.5c-.111.039-.214.09-.317.136-.009,0-.03,0-.032.009a.161.161,0,0,0-.091.055l0,.009c-.075.035-.154.068-.237.1-.1.046-.2.1-.294.14-.52.235-1.011.44-1.45.651-.369.145-2.034.826-2.5,1.016-.664.273-1.312.556-1.952.847-.137.06-.272.109-.412.171l-.05.019c-.385.164-.771.333-1.168.5-.08.038-.168.065-.249.109-.436.168-.853.354-1.286.535-.609.255-2.72,1.215-2.86,1.285-2.849,1.268-5.671,2.637-8.484,4.01l0,.01c-.22.108-.429.21-.64.32-.508.244-1.009.495-1.5.761-.128.063-.259.142-.4.209s-.231.116-.339.174c-.012.006-.011.006-.013.01a.778.778,0,0,0-.1.059c-.045.02-.094.049-.139.07-2.487,1.426-6.117,3.779-9.613,5.076a9.272,9.272,0,0,1-.945.323,6.9,6.9,0,0,1-1.047.306.4.4,0,0,1-.08.034l-.031,0s-.009,0-.01,0a.267.267,0,0,1-.106.025.114.114,0,0,1-.052.008,6.06,6.06,0,0,1-1.909.3l.016-.054c.2-.587.564-1.521.555-1.558.028-1.566,3.166-2.656,3.164-4.251,0-.4,1.931-1.281,3.125-1.805a1.8,1.8,0,0,0,.29-.11c.112-.044.214-.09.283-.122a1.681,1.681,0,0,0,.3-.151c3.316-1.662,11.882-6,12.848-6.478a116.43,116.43,0,0,1,19.682-8.161l.02-.033a1.15,1.15,0,0,1,.2-.055c.449-.118.893-.251,1.342-.37.113-.048.229-.042.327-.089a.221.221,0,0,1,.1-.014c15.838-4.083,32.594-3.728,48.282-8.1a6.379,6.379,0,0,0,.96-.294c.363-.063.688-.192,1.027-.272,4.713-1.452,7.673-5.4,11.539-8.194a71.506,71.506,0,0,1,13.454-7.854c.974-.431,1.963-.819,2.971-1.186,1.871-.681,3.758-1.318,5.629-1.842,1.209-.353,2.443-.689,3.655-1a97.494,97.494,0,0,1,9.784-2.044c1.164-.176,2.313-.337,3.461-.493.889-.13,1.8-.233,2.7-.339,1.242-.146,2.489-.3,3.757-.405,2.684-.27,5.444-.5,8.159-.674,4.07-.308,20.432-1.264,24.507-1.526l.009,0C1428.082,537.718,1428.533,539.194,1429,540.63Z" transform="translate(-212.299 -813.742)" opacity="0.1"/>
      <path id="Trazado_157439" data-name="Trazado 157439" d="M1224.413,845.369c1.069,1.32,3.008,2.932,3.58,4.524,1.295,3.613-3.494,5.5-6.461,6.232-3.615.921-7.581-3.335-4.906-6.586C1218.474,847.291,1221.665,846.09,1224.413,845.369Z" transform="translate(-187.012 -1076.456)" fill="#fdc0af"/>
      <path id="Trazado_157440" data-name="Trazado 157440" d="M1978.085,257.32c4.33,13.945,13.891,44.724,14.318,46.172-1.465.1-36.285,2.479-37.777,2.642-2.552.266-5.078.6-7.611,1.055-1.833.326-3.647.721-5.466,1.193h-.006c-.6.148-1.192.3-1.792.483-.005-.007,0-.007,0-.007-.294.093-.6.19-.895.277a4.37,4.37,0,0,0-.438.137c-1.217.354-2.418.755-3.608,1.139-.118.038-.227.079-.351.114-.147.061-.3.1-.46.163-.321.113-.661.228-1.014.354-.107.037-.228.085-.336.134a1.6,1.6,0,0,1-.162.047l-.024,0c-.158.06-.333.111-.505.186-.351.108-.689.242-1.017.372-.992.393-2.021.745-2.991,1.2-.065.031-.133.051-.185.079-.85.337-1.642.7-2.426,1.091-.44.221-.874.417-1.31.619s-.853.438-1.261.651a23.536,23.536,0,0,0-2.119,1.2,4.267,4.267,0,0,1-.366.249c-.376.236-.755.459-1.137.7l-4.4-17.113,0-.018-5.641-21.953-.018,0-.708-2.78a79.181,79.181,0,0,0,12.423-.794c5.293-.562,10.171-2.441,15.231-4.071C1949.989,266.35,1964.295,262.36,1978.085,257.32Z" transform="translate(-775.742 -576.615)" opacity="0.3"/>
      <g id="Grupo_101621" data-name="Grupo 101621" transform="translate(1135.512 -421.05)">
        <g id="Grupo_101619" data-name="Grupo 101619" transform="translate(0)">
          <path id="Trazado_157441" data-name="Trazado 157441" d="M1962.466,507.172l6.178-1.509,5.844,24.107-4.467,1.084a1.9,1.9,0,0,1-2.183-1.55Z" transform="translate(-1957.234 -366.656)" fill="#e4e4e4"/>
          <path id="Trazado_157442" data-name="Trazado 157442" d="M1933.347,349.98s-3.451.835-4.421,1.071a1.925,1.925,0,0,0-1.277,2.4l5.17,21.393,6.175-1.508Z" transform="translate(-1927.584 -234.326)" fill="#fff"/>
          <path id="Trazado_157443" data-name="Trazado 157443" d="M1950.887,349.974v.007l11.5,47.454-2.754.682-11.4-47.5Z" transform="translate(-1945.127 -234.321)" opacity="0.1"/>
          <path id="Trazado_157444" data-name="Trazado 157444" d="M2331.093-421.05,1962.381-310.9a2.2,2.2,0,0,0-1.462,2.577l6.366,26.281L2295.053-370.4Z" transform="translate(-1955.87 421.05)" fill="#231f20"/>
          <path id="Trazado_157445" data-name="Trazado 157445" d="M2003.686,4.964,2331.451-83.4l-20.106,43.024L2012.132,31.239c-1.091.246-2.12-.14-2.295-.86l-.307-1.3,0-.009Z" transform="translate(-1992.271 134.044)"/>
          <path id="Trazado_157446" data-name="Trazado 157446" d="M1994.794,321.689a3.94,3.94,0,1,0-4.762,2.9A3.937,3.937,0,0,0,1994.794,321.689Z" transform="translate(-1978.107 -206.139)" opacity="0.1"/>
          <path id="Trazado_157447" data-name="Trazado 157447" d="M2003.435,326.557a3.941,3.941,0,1,0-4.761,2.9A3.942,3.942,0,0,0,2003.435,326.557Z" transform="translate(-1985.452 -210.274)"/>
          <path id="Trazado_157448" data-name="Trazado 157448" d="M1997.67,323.185a3.941,3.941,0,1,0-4.761,2.9A3.942,3.942,0,0,0,1997.67,323.185Z" transform="translate(-1980.552 -207.408)" fill="#d8d8d8"/>
        </g>
        <g id="Grupo_101620" data-name="Grupo 101620" transform="translate(11.31 113.153)">
          <path id="Trazado_157449" data-name="Trazado 157449" d="M2004.158,345.236a.632.632,0,1,0-.843.217A.614.614,0,0,0,2004.158,345.236Z" transform="translate(-2002.983 -342.674)" fill="#3c3c3a"/>
          <path id="Trazado_157450" data-name="Trazado 157450" d="M2014.6,351.008a.633.633,0,1,0-.845.22A.618.618,0,0,0,2014.6,351.008Z" transform="translate(-2011.857 -347.58)" fill="#3c3c3a"/>
          <path id="Trazado_157451" data-name="Trazado 157451" d="M2010.249,334.22a.616.616,0,0,0-.264-.829.6.6,0,1,0,.264.829Z" transform="translate(-2008.159 -333.307)" fill="#3c3c3a"/>
          <path id="Trazado_157452" data-name="Trazado 157452" d="M2020.7,340a.634.634,0,0,0-1.109-.611.634.634,0,0,0,1.109.611Z" transform="translate(-2017.038 -338.225)" fill="#3c3c3a"/>
        </g>
      </g>
    </g>
  </g>
</svg>
