<svg xmlns="http://www.w3.org/2000/svg" xmlns:xlink="http://www.w3.org/1999/xlink" width="199.474" height="147.627" viewBox="0 0 199.474 147.627">
  <defs>
    <linearGradient id="linear-gradient" y1="0.5" x2="1" y2="0.5" gradientUnits="objectBoundingBox">
      <stop offset="0" stop-color="#ded3c9"/>
      <stop offset="1" stop-color="#cec4b7"/>
    </linearGradient>
    <clipPath id="clip-path">
      <ellipse id="Cylinder_face" data-name="Cylinder face" cx="91.419" cy="52.781" rx="91.419" ry="52.781" fill="url(#linear-gradient)"/>
    </clipPath>
    <linearGradient id="linear-gradient-3" x1="-0.011" y1="0.876" x2="0.878" y2="0.222" gradientUnits="objectBoundingBox">
      <stop offset="0.005" stop-color="#33858c"/>
      <stop offset="1" stop-color="#48989a"/>
    </linearGradient>
    <linearGradient id="linear-gradient-4" y1="0.5" x2="1" y2="0.5" gradientUnits="objectBoundingBox">
      <stop offset="0" stop-color="#cec4b7"/>
      <stop offset="1" stop-color="#ded3c9"/>
    </linearGradient>
    <clipPath id="clip-path-2">
      <ellipse id="Cylinder_face-2" data-name="Cylinder face" cx="91.419" cy="52.781" rx="91.419" ry="52.781" fill="none"/>
    </clipPath>
  </defs>
  <g id="_7" data-name="7" transform="translate(-26.511 -239.309)">
    <g id="Grupo_100804" data-name="Grupo 100804" transform="translate(26.511 244.737)">
      <g id="Axonometric_Cylinder" data-name="Axonometric Cylinder">
        <ellipse id="Cylinder_face-3" data-name="Cylinder face" cx="95.632" cy="55.213" rx="95.632" ry="55.213" fill="#f2e8df"/>
        <g id="Grupo_100762" data-name="Grupo 100762" transform="translate(4.213 2.433)">
          <ellipse id="Cylinder_face-4" data-name="Cylinder face" cx="91.419" cy="52.781" rx="91.419" ry="52.781" fill="url(#linear-gradient)"/>
          <g id="Grupo_100761" data-name="Grupo 100761" clip-path="url(#clip-path)">
            <g id="Grupo_100760" data-name="Grupo 100760" transform="translate(-0.936 3.51)">
              <ellipse id="Cylinder_face-5" data-name="Cylinder face" cx="91.419" cy="52.781" rx="91.419" ry="52.781" transform="translate(0.936)" fill="url(#linear-gradient-3)"/>
              <path id="Trazado_156073" data-name="Trazado 156073" d="M138.748,295.42l71.208-6.543-.262-.878-.736.067c-.019-.067-70.525,6.4-70.525,6.4a10.148,10.148,0,0,0-2.488-3.506l60.512-22.8-.871-.756-.527.2-.229-.2-59.992,22.62a19.116,19.116,0,0,0-4.449-2.527l39.179-35.114-1.285-.491-.226.2-.529-.2-38.993,34.948a31.219,31.219,0,0,0-5.6-1.285l11.009-41.166c-.508-.046-1.016-.087-1.523-.128a3.17,3.17,0,0,1-.756,0L120.64,285.368c-.97-.063-1.942-.1-2.919-.082-1.035,0-2.065.048-3.092.135L95.965,245.6c-.236.036-.472.067-.71.1a7.4,7.4,0,0,0-1.55.113l18.671,39.845a29.7,29.7,0,0,0-5.739,1.5L62.265,255.55c-.152.07-.294.149-.438.226l-.32-.226c-.395.185-.753.407-1.143.6l44.516,31.714a17.385,17.385,0,0,0-4.445,2.888l-61.91-18.241c-.053.06-.1.118-.154.178l-.6-.178c-.236.27-.462.539-.691.809L99.464,291.7a8.46,8.46,0,0,0-2.079,3.963L28.7,293.574c0,.024-.756,0-.756,0-.029.3-.051.594-.07.89l69.391,2.108a7.222,7.222,0,0,0,.97,4.2L33.689,315.14c.183.279.356.561.549.84l.659-.147c.034.048.063.1.1.147l63.871-14.219a13.938,13.938,0,0,0,3.867,3.453L54.052,333.5c.173.1.337.209.513.313.2.113.411.207.609.318l.359-.207c.135.067.27.135.4.207l48.335-28.09a25.792,25.792,0,0,0,5.792,2.1l-24.572,37.4c.484.111.979.19,1.466.3l.087-.135c.224.043.448.087.669.135l24.529-37.3a34.706,34.706,0,0,0,6.538.448l3.865,40.189c.25,0,.5-.014.753-.022.515.01,1.028,0,1.54-.022l-3.865-40.214a31.946,31.946,0,0,0,6.247-1.073L159.229,343.9c.2-.058.407-.111.611-.164l.147.164c.467-.132.948-.243,1.415-.38L129.3,307.257a20.575,20.575,0,0,0,4.921-2.505l54.943,25.705.31-.209.448.209c.33-.226.679-.448,1-.679l-55.453-25.946a10.852,10.852,0,0,0,2.791-3.523L207,310.977c.048-.108.756,0,.756,0l.39-.866-69.492-10.788A6.911,6.911,0,0,0,138.748,295.42Z" transform="translate(-27.873 -243.714)" fill="#4070a2" opacity="0.4" style="mix-blend-mode: multiply;isolation: isolate"/>
              <path id="Trazado_156074" data-name="Trazado 156074" d="M132.5,259.484c-18.549-10.708-43.082-15.839-67.382-15.42,22.476.385,44.752,5.518,61.9,15.42,35.7,20.613,35.7,54.031,0,74.644-17.153,9.9-39.429,15.035-61.9,15.42,24.3.419,48.833-4.712,67.382-15.42C168.2,313.515,168.2,280.1,132.5,259.484Z" transform="translate(24.503 -244.026)" fill="#4070a2" opacity="0.4" style="mix-blend-mode: multiply;isolation: isolate"/>
            </g>
          </g>
        </g>
        <path id="Cylinder_body" data-name="Cylinder body" d="M217.769,264.3v31.774c.226,14.3-9.108,28.641-28.006,39.549-37.347,21.564-97.9,21.564-135.245,0-18.45-10.651-27.784-24.572-28.006-38.531V265.315c.221,13.962,9.556,27.883,28.006,38.534,37.347,21.561,97.9,21.561,135.245,0C208.661,292.938,218,278.6,217.769,264.3Z" transform="translate(-26.509 -209.594)" fill="url(#linear-gradient-4)"/>
      </g>
      <g id="Grupo_100803" data-name="Grupo 100803" transform="translate(4.213 2.433)">
        <g id="Grupo_100802" data-name="Grupo 100802" clip-path="url(#clip-path-2)">
          <g id="Grupo_100801" data-name="Grupo 100801" transform="translate(0.106 1.284)" style="isolation: isolate">
            <g id="Grupo_100763" data-name="Grupo 100763" transform="translate(95.591 0.148)">
              <path id="Trazado_156075" data-name="Trazado 156075" d="M79.077,243.17l-.007,2.524L68.03,286.973l.007-2.524Z" transform="translate(-68.03 -243.17)" fill="#ded3c9"/>
            </g>
            <g id="Grupo_100764" data-name="Grupo 100764" transform="translate(66.967 1.346)">
              <path id="Trazado_156076" data-name="Trazado 156076" d="M74.972,283.85l-.007,2.524-18.83-40.182.007-2.524Z" transform="translate(-56.135 -243.668)" fill="#cec4b7"/>
            </g>
            <g id="Grupo_100765" data-name="Grupo 100765" transform="translate(103.051 8.252)">
              <path id="Trazado_156077" data-name="Trazado 156077" d="M110.315,246.538l-.007,2.524L71.13,284.176l.007-2.524Z" transform="translate(-71.13 -246.538)" fill="#ded3c9"/>
            </g>
            <g id="Grupo_100766" data-name="Grupo 100766" transform="translate(33.147 11.563)">
              <path id="Trazado_156078" data-name="Trazado 156078" d="M87.242,280.083l-.007,2.524L42.081,250.439l.007-2.524Z" transform="translate(-42.081 -247.914)" fill="#cec4b7"/>
            </g>
            <g id="Grupo_100767" data-name="Grupo 100767" transform="translate(108.609 24.028)">
              <path id="Trazado_156079" data-name="Trazado 156079" d="M133.958,253.094l-.007,2.524-60.512,22.8.007-2.525Z" transform="translate(-73.439 -253.094)" fill="#ded3c9"/>
            </g>
            <g id="Grupo_100768" data-name="Grupo 100768" transform="translate(9.457 28.881)">
              <path id="Trazado_156080" data-name="Trazado 156080" d="M95.669,273.8l-.007,2.524L32.236,257.635l.007-2.524Z" transform="translate(-32.236 -255.111)" fill="#cec4b7"/>
            </g>
            <g id="Grupo_100769" data-name="Grupo 100769" transform="translate(111.413 44.747)">
              <path id="Trazado_156081" data-name="Trazado 156081" d="M145.818,261.7l-.007,2.524L74.6,270.77l.007-2.525Z" transform="translate(-74.604 -261.704)" fill="#ded3c9"/>
            </g>
            <g id="Grupo_100770" data-name="Grupo 100770" transform="translate(0 50.296)">
              <path id="Trazado_156082" data-name="Trazado 156082" d="M99,266.155l-.007,2.525-70.683-2.146.007-2.524Z" transform="translate(-28.306 -264.01)" fill="#cec4b7"/>
            </g>
            <g id="Grupo_100772" data-name="Grupo 100772" transform="translate(111.315 53.093)" style="isolation: isolate">
              <g id="Grupo_100771" data-name="Grupo 100771" style="isolation: isolate">
                <path id="Trazado_156083" data-name="Trazado 156083" d="M74.9,265.172,74.9,267.7a7.052,7.052,0,0,1-.332,2.1l.007-2.524a7.053,7.053,0,0,0,.332-2.1Z" transform="translate(-74.564 -265.172)" fill="#ded3c9"/>
              </g>
            </g>
            <g id="Grupo_100774" data-name="Grupo 100774" transform="translate(70.661 52.982)" style="isolation: isolate">
              <g id="Grupo_100773" data-name="Grupo 100773" style="isolation: isolate">
                <path id="Trazado_156084" data-name="Trazado 156084" d="M58.669,268.786l-.007,2.524a7.294,7.294,0,0,1-.991-3.66l.007-2.524a7.294,7.294,0,0,0,.991,3.66Z" transform="translate(-57.67 -265.126)" fill="#cec4b7"/>
              </g>
            </g>
            <g id="Grupo_100776" data-name="Grupo 100776" transform="translate(108.129 56.072)" style="isolation: isolate">
              <g id="Grupo_100775" data-name="Grupo 100775" style="isolation: isolate">
                <path id="Trazado_156085" data-name="Trazado 156085" d="M76.1,266.41l-.007,2.524a10.752,10.752,0,0,1-2.856,3.629l.007-2.524A10.75,10.75,0,0,0,76.1,266.41Z" transform="translate(-73.24 -266.41)" fill="#ded3c9"/>
              </g>
            </g>
            <g id="Grupo_100778" data-name="Grupo 100778" transform="translate(72.17 57.487)" style="isolation: isolate">
              <g id="Grupo_100777" data-name="Grupo 100777" style="isolation: isolate">
                <path id="Trazado_156086" data-name="Trazado 156086" d="M62.284,270.593l0,2.524a13.7,13.7,0,0,1-3.983-3.6L58.3,267a13.721,13.721,0,0,0,3.98,3.6Z" transform="translate(-58.297 -266.998)" fill="#cec4b7"/>
              </g>
            </g>
            <g id="Grupo_100780" data-name="Grupo 100780" transform="translate(101.961 60.42)" style="isolation: isolate">
              <g id="Grupo_100779" data-name="Grupo 100779" style="isolation: isolate">
                <path id="Trazado_156087" data-name="Trazado 156087" d="M75.93,268.217l-.007,2.524a17.482,17.482,0,0,1-1.511.994,22.244,22.244,0,0,1-3.735,1.711l.007-2.522a22.349,22.349,0,0,0,3.732-1.713,17.187,17.187,0,0,0,1.514-.994Z" transform="translate(-70.677 -268.217)" fill="#ded3c9"/>
              </g>
            </g>
            <g id="Grupo_100782" data-name="Grupo 100782" transform="translate(77.26 61.722)">
              <g id="Grupo_100781" data-name="Grupo 100781" style="isolation: isolate">
                <path id="Trazado_156088" data-name="Trazado 156088" d="M66.64,271.054l-.007,2.524a25.731,25.731,0,0,1-6.221-2.3l.007-2.524a25.735,25.735,0,0,0,6.221,2.3Z" transform="translate(-60.412 -268.758)" fill="#cec4b7"/>
              </g>
            </g>
            <g id="Grupo_100784" data-name="Grupo 100784" transform="translate(93.731 63.57)" style="isolation: isolate">
              <g id="Grupo_100783" data-name="Grupo 100783" style="isolation: isolate">
                <path id="Trazado_156089" data-name="Trazado 156089" d="M74.135,269.526l0,2.527a31.232,31.232,0,0,1-6.873,1.22l.007-2.524a31.037,31.037,0,0,0,6.87-1.222Z" transform="translate(-67.257 -269.526)" fill="#ded3c9"/>
              </g>
            </g>
            <g id="Grupo_100786" data-name="Grupo 100786" transform="translate(84.96 64.326)" style="isolation: isolate">
              <g id="Grupo_100785" data-name="Grupo 100785" style="isolation: isolate">
                <path id="Trazado_156090" data-name="Trazado 156090" d="M70.855,270.377l-.007,2.524a34.642,34.642,0,0,1-7.236-.537l.007-2.524a34.646,34.646,0,0,0,7.236.537Z" transform="translate(-63.612 -269.84)" fill="#ded3c9"/>
              </g>
            </g>
            <g id="Grupo_100787" data-name="Grupo 100787" transform="translate(180.417 65.98)">
              <path id="Trazado_156091" data-name="Trazado 156091" d="M103.676,270.527l-.007,2.524-.389.868.007-2.524Z" transform="translate(-103.28 -270.527)" fill="#ded3c9"/>
            </g>
            <g id="Grupo_100788" data-name="Grupo 100788" transform="translate(110.986 56.071)">
              <path id="Trazado_156092" data-name="Trazado 156092" d="M143.866,277.186l-.007,2.524L74.427,268.934l.007-2.524Z" transform="translate(-74.427 -266.41)" fill="#cec4b7"/>
            </g>
            <g id="Grupo_100789" data-name="Grupo 100789" transform="translate(6.429 57.487)">
              <path id="Trazado_156093" data-name="Trazado 156093" d="M96.726,267l-.007,2.524L30.978,284.157l.007-2.524Z" transform="translate(-30.978 -266.998)" fill="#cec4b7"/>
            </g>
            <g id="Grupo_100790" data-name="Grupo 100790" transform="translate(5.853 71.289)">
              <path id="Trazado_156094" data-name="Trazado 156094" d="M31.322,273.567l-.007,2.524-.576-.833.007-2.524Z" transform="translate(-30.738 -272.733)" fill="#ded3c9"/>
            </g>
            <g id="Grupo_100791" data-name="Grupo 100791" transform="translate(162.889 85.774)">
              <path id="Trazado_156095" data-name="Trazado 156095" d="M96.965,278.753l-.007,2.524-.962.7L96,279.449Z" transform="translate(-95.996 -278.753)" fill="#ded3c9"/>
            </g>
            <g id="Grupo_100792" data-name="Grupo 100792" transform="translate(107.207 60.421)">
              <path id="Trazado_156096" data-name="Trazado 156096" d="M128.546,294.267l-.007,2.525-55.682-26.05.007-2.525Z" transform="translate(-72.857 -268.217)" fill="#cec4b7"/>
            </g>
            <g id="Grupo_100793" data-name="Grupo 100793" transform="translate(27.601 61.722)">
              <path id="Trazado_156097" data-name="Trazado 156097" d="M89.441,268.758l-.007,2.524L39.776,300.141l.007-2.525Z" transform="translate(-39.776 -268.758)" fill="#ded3c9"/>
            </g>
            <g id="Grupo_100794" data-name="Grupo 100794" transform="translate(26.493 89.941)">
              <path id="Trazado_156098" data-name="Trazado 156098" d="M40.43,281.124l-.007,2.525-1.107-.639.007-2.524Z" transform="translate(-39.316 -280.485)" fill="#ded3c9"/>
            </g>
            <g id="Grupo_100795" data-name="Grupo 100795" transform="translate(133.071 99.849)">
              <path id="Trazado_156099" data-name="Trazado 156099" d="M85.009,284.6,85,287.126l-1.4.4L83.612,285Z" transform="translate(-83.605 -284.602)" fill="#ded3c9"/>
            </g>
            <g id="Grupo_100796" data-name="Grupo 100796" transform="translate(100.603 63.571)">
              <path id="Trazado_156100" data-name="Trazado 156100" d="M102.587,306.2l-.007,2.524L70.112,272.051l.007-2.524Z" transform="translate(-70.112 -269.526)" fill="#cec4b7"/>
            </g>
            <g id="Grupo_100797" data-name="Grupo 100797" transform="translate(59.87 64.325)">
              <path id="Trazado_156101" data-name="Trazado 156101" d="M78.282,269.84l-.007,2.525-25.09,38.15.007-2.524Z" transform="translate(-53.186 -269.84)" fill="#ded3c9"/>
            </g>
            <g id="Grupo_100798" data-name="Grupo 100798" transform="translate(58.429 102.144)">
              <path id="Trazado_156102" data-name="Trazado 156102" d="M54.034,285.887l-.007,2.524-1.44-.331.007-2.524Z" transform="translate(-52.587 -285.556)" fill="#ded3c9"/>
            </g>
            <g id="Grupo_100799" data-name="Grupo 100799" transform="translate(92.195 64.861)">
              <path id="Trazado_156103" data-name="Trazado 156103" d="M70.561,311l-.007,2.524-3.935-40.935.007-2.524Z" transform="translate(-66.619 -270.063)" fill="#ded3c9"/>
            </g>
            <g id="Grupo_100800" data-name="Grupo 100800" transform="translate(96.131 105.751)">
              <path id="Trazado_156104" data-name="Trazado 156104" d="M69.8,287.055l-.007,2.525-1.537.045.007-2.524Z" transform="translate(-68.254 -287.055)" fill="#ded3c9"/>
            </g>
            <path id="Trazado_156105" data-name="Trazado 156105" d="M196.558,266.384l.871.753-60.512,22.8a10.153,10.153,0,0,1,2.524,3.574l71.225-6.529.262.878L139.721,294.4a6.919,6.919,0,0,1-.1,3.906l69.492,10.786-.39.869-69.432-10.776a10.751,10.751,0,0,1-2.856,3.629l55.723,26.073-.963.7-55.682-26.049a17.177,17.177,0,0,1-1.514.994,22.349,22.349,0,0,1-3.732,1.713l32.506,36.722-1.4.4-32.47-36.678a31.037,31.037,0,0,1-6.87,1.222l3.937,40.96-1.538.046-3.934-40.935a34.646,34.646,0,0,1-7.236-.537L88.178,345.583l-1.439-.33,25.051-38.127a25.733,25.733,0,0,1-6.221-2.3L55.91,333.689l-1.107-.638,49.656-28.86a13.722,13.722,0,0,1-3.98-3.6L34.739,315.231l-.578-.833,65.8-14.648a7.214,7.214,0,0,1-.97-4.2l-70.683-2.144.075-.89,70.722,2.144a8.469,8.469,0,0,1,2.086-3.983L37.766,271.991l.686-.811,63.505,18.71a15.659,15.659,0,0,1,2.943-2.171c.551-.32,1.119-.6,1.711-.878L61.457,254.672l1.2-.558,45.192,32.19a29.6,29.6,0,0,1,6.259-1.668l-18.83-40.182,1.5-.226,18.849,40.216a35.053,35.053,0,0,1,6.74-.07l11.06-41.265,1.518.147L123.9,284.535a30.537,30.537,0,0,1,6.175,1.449l39.179-35.114,1.285.491-39.179,35.114a23.564,23.564,0,0,1,2.548,1.244,18.138,18.138,0,0,1,2.156,1.473Z" transform="translate(-28.302 -243.109)" fill="#f2e8df"/>
          </g>
        </g>
      </g>
    </g>
    <path id="Trazado_156106" data-name="Trazado 156106" d="M89.428,263.83c-7.012-4.05-18.383-4.05-25.4,0s-7.012,10.615,0,14.662,18.385,4.05,25.4,0S96.443,267.88,89.428,263.83Zm-.8,14.2c-6.572,3.795-17.23,3.795-23.8,0s-6.574-9.948,0-13.743,17.23-3.795,23.8,0S95.2,274.238,88.631,278.033Z" transform="translate(45.371 30.215)" fill="#cec4b7"/>
    <g id="Grupo_100805" data-name="Grupo 100805" transform="translate(114.993 289.916)">
      <path id="Trazado_156107" data-name="Trazado 156107" d="M63.281,262.125v7.188a3.592,3.592,0,0,0,2.1,2.895,11.24,11.24,0,0,0,10.165,0,3.554,3.554,0,0,0,2.106-2.972v-7.188Z" transform="translate(-63.28 -257.937)" fill="url(#linear-gradient-4)"/>
      <ellipse id="Cylinder_face-6" data-name="Cylinder face" cx="7.187" cy="4.15" rx="7.187" ry="4.15" fill="#efebe5"/>
    </g>
    <g id="Grupo_100842" data-name="Grupo 100842" transform="translate(188.197 332.58)">
      <g id="Grupo_100824" data-name="Grupo 100824">
        <g id="Grupo_100823" data-name="Grupo 100823" transform="translate(0.005)" style="isolation: isolate">
          <g id="Grupo_100806" data-name="Grupo 100806" transform="translate(15.845 20.768)">
            <path id="Trazado_156108" data-name="Trazado 156108" d="M100.288,294.074l12.7-7.374,9.238,5.333-12.7,7.374Z" transform="translate(-100.288 -286.699)" fill="#b1bcbc"/>
          </g>
          <g id="Grupo_100807" data-name="Grupo 100807" transform="translate(14.582 18.59)">
            <path id="Trazado_156109" data-name="Trazado 156109" d="M99.763,293.168l12.7-7.374,1.267.732-12.7,7.374Z" transform="translate(-99.763 -285.794)" fill="#b1bcbc"/>
          </g>
          <g id="Grupo_100808" data-name="Grupo 100808" transform="translate(15.845 19.321)">
            <path id="Trazado_156110" data-name="Trazado 156110" d="M100.292,293.472l12.7-7.374,0,1.447-12.7,7.374Z" transform="translate(-100.288 -286.098)" fill="#a0aaaa"/>
          </g>
          <g id="Grupo_100809" data-name="Grupo 100809" transform="translate(13.323 16.408)">
            <path id="Trazado_156111" data-name="Trazado 156111" d="M99.24,292.262l12.7-7.374,1.263.73-12.7,7.374Z" transform="translate(-99.24 -284.887)" fill="#b1bcbc"/>
          </g>
          <g id="Grupo_100810" data-name="Grupo 100810" transform="translate(14.582 17.138)">
            <path id="Trazado_156112" data-name="Trazado 156112" d="M99.767,292.565l12.7-7.374,0,1.452-12.7,7.374Z" transform="translate(-99.763 -285.19)" fill="#a0aaaa"/>
          </g>
          <g id="Grupo_100811" data-name="Grupo 100811" transform="translate(12.059 14.225)">
            <path id="Trazado_156113" data-name="Trazado 156113" d="M98.715,291.354l12.7-7.374,1.267.732-12.7,7.374Z" transform="translate(-98.715 -283.98)" fill="#b1bcbc"/>
          </g>
          <g id="Grupo_100812" data-name="Grupo 100812" transform="translate(13.323 14.956)">
            <path id="Trazado_156114" data-name="Trazado 156114" d="M99.244,291.658l12.7-7.374,0,1.452-12.7,7.374Z" transform="translate(-99.24 -284.284)" fill="#a0aaaa"/>
          </g>
          <g id="Grupo_100813" data-name="Grupo 100813" transform="translate(10.8 12.048)">
            <path id="Trazado_156115" data-name="Trazado 156115" d="M98.191,290.45l12.7-7.375,1.264.73-12.7,7.374Z" transform="translate(-98.191 -283.075)" fill="#b1bcbc"/>
          </g>
          <g id="Grupo_100814" data-name="Grupo 100814" transform="translate(12.059 12.777)">
            <path id="Trazado_156116" data-name="Trazado 156116" d="M98.719,290.753l12.7-7.374,0,1.447-12.7,7.374Z" transform="translate(-98.715 -283.378)" fill="#a0aaaa"/>
          </g>
          <g id="Grupo_100815" data-name="Grupo 100815" transform="translate(10.8 10.596)">
            <path id="Trazado_156117" data-name="Trazado 156117" d="M98.2,289.846l12.7-7.374,0,1.452-12.7,7.375Z" transform="translate(-98.191 -282.472)" fill="#a0aaaa"/>
          </g>
          <g id="Grupo_100816" data-name="Grupo 100816" transform="translate(9.537 9.864)">
            <path id="Trazado_156118" data-name="Trazado 156118" d="M97.666,289.542l12.7-7.374,1.267.732-12.7,7.374Z" transform="translate(-97.666 -282.168)" fill="#b1bcbc"/>
          </g>
          <g id="Grupo_100817" data-name="Grupo 100817" transform="translate(8.273 7.681)">
            <path id="Trazado_156119" data-name="Trazado 156119" d="M97.141,288.635l12.7-7.374,1.267.732-12.7,7.374Z" transform="translate(-97.141 -281.26)" fill="#b1bcbc"/>
          </g>
          <g id="Grupo_100818" data-name="Grupo 100818" transform="translate(9.537 8.412)">
            <path id="Trazado_156120" data-name="Trazado 156120" d="M97.67,288.939l12.7-7.374,0,1.452-12.7,7.374Z" transform="translate(-97.666 -281.565)" fill="#a0aaaa"/>
          </g>
          <g id="Grupo_100819" data-name="Grupo 100819" transform="translate(7.014 5.504)">
            <path id="Trazado_156121" data-name="Trazado 156121" d="M96.618,287.73l12.7-7.374,1.264.729-12.7,7.374Z" transform="translate(-96.618 -280.356)" fill="#b1bcbc"/>
          </g>
          <g id="Grupo_100820" data-name="Grupo 100820" transform="translate(8.273 6.233)">
            <path id="Trazado_156122" data-name="Trazado 156122" d="M97.145,288.033l12.7-7.374,0,1.447-12.7,7.374Z" transform="translate(-97.141 -280.659)" fill="#a0aaaa"/>
          </g>
          <g id="Grupo_100821" data-name="Grupo 100821" transform="translate(7.014 4.052)">
            <path id="Trazado_156123" data-name="Trazado 156123" d="M96.622,287.127l12.7-7.374,0,1.452-12.7,7.374Z" transform="translate(-96.618 -279.753)" fill="#a0aaaa"/>
          </g>
          <g id="Grupo_100822" data-name="Grupo 100822">
            <path id="Trazado_156124" data-name="Trazado 156124" d="M93.7,285.443l12.7-7.374,7.018,4.052-12.7,7.374Z" transform="translate(-93.703 -278.069)" fill="#b1bcbc"/>
          </g>
        </g>
        <path id="Trazado_156125" data-name="Trazado 156125" d="M109.552,301.9l0-1.449-1.268-.731,0-1.451-1.266-.729,0-1.453-1.266-.732,0-1.446-1.263-.729,0-1.453L103.242,291l0-1.451-1.268-.732,0-1.449-1.263-.729,0-1.451-7.017-4.052,0,1.47,6.23,3.6,0,1.449,1.263.729,0,1.451,1.268.732,0,1.449,1.261.729,0,1.451,1.266.731c-.031,0-.036,1.463-.036,1.463l1.268.734,0,1.446,1.263.729,0,1.451,1.268.734,0,1.446,10.061,5.763,0-1.451Z" transform="translate(-93.701 -273.759)" fill="#8d9696"/>
      </g>
      <g id="Grupo_100841" data-name="Grupo 100841" transform="translate(2.869 26.101)" style="isolation: isolate">
        <g id="Grupo_100825" data-name="Grupo 100825" transform="translate(0 16.543)">
          <path id="Trazado_156126" data-name="Trazado 156126" d="M107.493,302.33,96.161,295.79l-1.267.732,11.332,6.541Z" transform="translate(-94.893 -295.79)" fill="#b1bcbc"/>
        </g>
        <g id="Grupo_100826" data-name="Grupo 100826" transform="translate(0 17.275)">
          <path id="Trazado_156127" data-name="Trazado 156127" d="M106.226,302.634l-11.332-6.541,0,1.447,11.333,6.541Z" transform="translate(-94.893 -296.094)" fill="#8d9696"/>
        </g>
        <g id="Grupo_100827" data-name="Grupo 100827" transform="translate(1.263 14.362)">
          <path id="Trazado_156128" data-name="Trazado 156128" d="M108.014,301.424l-11.332-6.541-1.264.73,11.332,6.541Z" transform="translate(-95.418 -294.883)" fill="#b1bcbc"/>
        </g>
        <g id="Grupo_100828" data-name="Grupo 100828" transform="translate(1.263 15.092)">
          <path id="Trazado_156129" data-name="Trazado 156129" d="M106.751,301.727l-11.332-6.541,0,1.452,11.332,6.541Z" transform="translate(-95.418 -295.186)" fill="#8d9696"/>
        </g>
        <g id="Grupo_100829" data-name="Grupo 100829" transform="translate(2.523 12.178)">
          <path id="Trazado_156130" data-name="Trazado 156130" d="M108.542,300.516l-11.332-6.541-1.267.732,11.332,6.541Z" transform="translate(-95.942 -293.976)" fill="#b1bcbc"/>
        </g>
        <g id="Grupo_100830" data-name="Grupo 100830" transform="translate(2.523 12.91)">
          <path id="Trazado_156131" data-name="Trazado 156131" d="M107.274,300.82,95.942,294.28l0,1.452,11.332,6.541Z" transform="translate(-95.942 -294.28)" fill="#8d9696"/>
        </g>
        <g id="Grupo_100831" data-name="Grupo 100831" transform="translate(3.786 10.001)">
          <path id="Trazado_156132" data-name="Trazado 156132" d="M109.062,299.612,97.73,293.071l-1.263.73,11.332,6.541Z" transform="translate(-96.467 -293.071)" fill="#b1bcbc"/>
        </g>
        <g id="Grupo_100832" data-name="Grupo 100832" transform="translate(3.786 10.731)">
          <path id="Trazado_156133" data-name="Trazado 156133" d="M107.8,299.915l-11.332-6.541,0,1.447,11.332,6.541Z" transform="translate(-96.467 -293.374)" fill="#8d9696"/>
        </g>
        <g id="Grupo_100833" data-name="Grupo 100833" transform="translate(5.046 8.55)">
          <path id="Trazado_156134" data-name="Trazado 156134" d="M108.322,299.009,96.99,292.468l0,1.452,11.332,6.541Z" transform="translate(-96.99 -292.468)" fill="#8d9696"/>
        </g>
        <g id="Grupo_100834" data-name="Grupo 100834" transform="translate(5.046 7.818)">
          <path id="Trazado_156135" data-name="Trazado 156135" d="M109.59,298.7l-11.332-6.541-1.267.732,11.332,6.541Z" transform="translate(-96.99 -292.164)" fill="#b1bcbc"/>
        </g>
        <g id="Grupo_100835" data-name="Grupo 100835" transform="translate(6.309 5.634)">
          <path id="Trazado_156136" data-name="Trazado 156136" d="M110.115,297.8l-11.332-6.54-1.267.732,11.332,6.541Z" transform="translate(-97.515 -291.256)" fill="#b1bcbc"/>
        </g>
        <g id="Grupo_100836" data-name="Grupo 100836" transform="translate(6.309 6.366)">
          <path id="Trazado_156137" data-name="Trazado 156137" d="M108.847,298.1,97.515,291.56l0,1.452,11.332,6.541Z" transform="translate(-97.515 -291.56)" fill="#8d9696"/>
        </g>
        <g id="Grupo_100837" data-name="Grupo 100837" transform="translate(7.572 3.458)">
          <path id="Trazado_156138" data-name="Trazado 156138" d="M110.636,296.892,99.3,290.352l-1.264.729,11.332,6.541Z" transform="translate(-98.04 -290.352)" fill="#b1bcbc"/>
        </g>
        <g id="Grupo_100838" data-name="Grupo 100838" transform="translate(7.572 4.187)">
          <path id="Trazado_156139" data-name="Trazado 156139" d="M109.372,297.2,98.04,290.655l0,1.447,11.332,6.54Z" transform="translate(-98.04 -290.655)" fill="#8d9696"/>
        </g>
        <path id="Trazado_156140" data-name="Trazado 156140" d="M123.19,288.915l-12.7,7.376c0-.017-2.055,1.17-2.055,1.17l0,1.453-1.263.729,0,1.446-1.268.732,0,1.453-1.268.732,0,1.451-1.263.729,0,1.449-1.268.731,0,1.451-1.266.729,0,1.453-1.268.732,0,1.446,23.583-13.6Z" transform="translate(-88.271 -288.915)" fill="#a0aaaa"/>
        <g id="Grupo_100839" data-name="Grupo 100839" transform="translate(8.832 2.006)">
          <path id="Trazado_156141" data-name="Trazado 156141" d="M109.9,296.289l-11.332-6.541,0,1.452,11.332,6.541Z" transform="translate(-98.563 -289.748)" fill="#8d9696"/>
        </g>
        <g id="Grupo_100840" data-name="Grupo 100840" transform="translate(8.832 0.818)">
          <path id="Trazado_156142" data-name="Trazado 156142" d="M111.952,295.8l-11.332-6.541-2.057,1.187,11.332,6.541Z" transform="translate(-98.563 -289.255)" fill="#b1bcbc"/>
        </g>
      </g>
    </g>
    <g id="Grupo_100849" data-name="Grupo 100849" transform="translate(84.501 266.333)">
      <g id="Grupo_100843" data-name="Grupo 100843" transform="translate(0 4.435)">
        <g id="Axonometric_Cube" data-name="Axonometric Cube" transform="translate(0 11.24)">
          <path id="Cube_face_-_left" data-name="Cube face - left" d="M70.077,275.641,50.609,264.4v1.3l19.467,11.239Z" transform="translate(-50.609 -246.716)" fill="#8d9696"/>
          <path id="Cube_face_-_right" data-name="Cube face - right" d="M108.8,258.356,58.7,287.281v-1.3l50.1-28.925Z" transform="translate(-39.232 -257.053)" fill="#a0aaaa"/>
        </g>
        <g id="Axonometric_Cube-2" data-name="Axonometric Cube">
          <path id="Cube_face_-_left-2" data-name="Cube face - left" d="M136.3,305.21,66.2,264.74v1.3l70.1,40.47Z" transform="translate(-28.678 -235.001)" fill="#8d9696"/>
          <path id="Cube_face_-_right-2" data-name="Cube face - right" d="M108.157,279.785l-12.824,7.4v-1.3l12.824-7.4Z" transform="translate(12.29 -215.676)" fill="#a0aaaa"/>
          <path id="Trazado_156143" data-name="Trazado 156143" d="M100.96,274.717l19.216-11.1-19.468-11.24-50.1,28.925,19.467,11.24,18.06-10.427,70.1,40.472,12.825-7.4Z" transform="translate(-50.609 -252.382)" fill="#b1bcbc"/>
          <path id="Trazado_156144" data-name="Trazado 156144" d="M86.7,279.882,68.646,290.307l-17.019-9.827,47.65-27.512L116.3,262.8l-19.219,11.1,71.309,41.168-10.376,5.991Z" transform="translate(-49.178 -251.556)" fill="#ffca55"/>
        </g>
      </g>
      <g id="Grupo_100844" data-name="Grupo 100844" transform="translate(49.131 21.944)">
        <path id="Trazado_156145" data-name="Trazado 156145" d="M71.026,264.245V259.86a.2.2,0,1,1,.4,0v4.384C71.43,264.42,71.026,264.423,71.026,264.245Z" transform="translate(-71.026 -259.658)" fill="#5b5651"/>
        <path id="Trazado_156146" data-name="Trazado 156146" d="M73.548,265.7v-4.384a.2.2,0,0,1,.4,0V265.7C73.952,265.876,73.548,265.879,73.548,265.7Z" transform="translate(-67.479 -257.61)" fill="#5b5651"/>
        <path id="Trazado_156147" data-name="Trazado 156147" d="M76.071,267.157v-4.385a.2.2,0,0,1,.4,0v4.385C76.475,267.332,76.071,267.335,76.071,267.157Z" transform="translate(-63.931 -255.563)" fill="#5b5651"/>
        <path id="Trazado_156148" data-name="Trazado 156148" d="M78.593,268.615v-4.384a.2.2,0,1,1,.4,0v4.384C79,268.791,78.593,268.791,78.593,268.615Z" transform="translate(-60.384 -253.515)" fill="#5b5651"/>
        <path id="Trazado_156149" data-name="Trazado 156149" d="M81.115,270.07v-4.385a.2.2,0,0,1,.4,0v4.385C81.519,270.245,81.115,270.248,81.115,270.07Z" transform="translate(-56.837 -251.466)" fill="#5b5651"/>
        <path id="Trazado_156150" data-name="Trazado 156150" d="M83.638,271.526v-4.384a.2.2,0,1,1,.4,0v4.384C84.042,271.7,83.638,271.7,83.638,271.526Z" transform="translate(-53.288 -249.418)" fill="#5b5651"/>
        <path id="Trazado_156151" data-name="Trazado 156151" d="M86.16,272.984V268.6a.2.2,0,1,1,.4,0v4.387C86.564,273.157,86.16,273.16,86.16,272.984Z" transform="translate(-49.741 -247.37)" fill="#5b5651"/>
        <path id="Trazado_156152" data-name="Trazado 156152" d="M88.682,274.439v-4.384a.2.2,0,0,1,.407,0v4.384C89.089,274.614,88.682,274.614,88.682,274.439Z" transform="translate(-46.194 -245.321)" fill="#5b5651"/>
        <path id="Trazado_156153" data-name="Trazado 156153" d="M91.205,275.895V271.51a.2.2,0,0,1,.4,0v4.384C91.609,276.07,91.205,276.073,91.205,275.895Z" transform="translate(-42.646 -243.273)" fill="#5b5651"/>
        <path id="Trazado_156154" data-name="Trazado 156154" d="M93.727,277.351v-4.384a.2.2,0,0,1,.4,0v4.384C94.131,277.526,93.727,277.529,93.727,277.351Z" transform="translate(-39.099 -241.226)" fill="#5b5651"/>
        <path id="Trazado_156155" data-name="Trazado 156155" d="M96.249,278.809v-4.384a.2.2,0,1,1,.407,0v4.384C96.656,278.985,96.249,278.985,96.249,278.809Z" transform="translate(-35.552 -239.178)" fill="#5b5651"/>
        <path id="Trazado_156156" data-name="Trazado 156156" d="M98.772,280.264v-4.385a.2.2,0,1,1,.4,0v4.385C99.176,280.439,98.772,280.442,98.772,280.264Z" transform="translate(-32.004 -237.129)" fill="#5b5651"/>
      </g>
      <g id="Grupo_100845" data-name="Grupo 100845" transform="translate(25.218 14.455)">
        <path id="Trazado_156157" data-name="Trazado 156157" d="M66.056,267.114v-4.385a.2.2,0,0,1,.407,0v4.385C66.463,267.289,66.056,267.289,66.056,267.114Z" transform="translate(-54.103 -248.134)" fill="#5b5651"/>
        <path id="Trazado_156158" data-name="Trazado 156158" d="M63.627,268.516v-4.384a.2.2,0,0,1,.407,0v4.384C64.034,268.691,63.627,268.694,63.627,268.516Z" transform="translate(-57.52 -246.163)" fill="#5b5651"/>
        <path id="Trazado_156159" data-name="Trazado 156159" d="M61.089,269.982V265.6a.2.2,0,1,1,.4,0v4.384C61.493,270.157,61.089,270.16,61.089,269.982Z" transform="translate(-61.089 -244.101)" fill="#5b5651"/>
        <path id="Trazado_156160" data-name="Trazado 156160" d="M76.415,261.133v-4.384a.2.2,0,1,1,.4,0v4.384C76.819,261.308,76.415,261.311,76.415,261.133Z" transform="translate(-39.534 -256.546)" fill="#5b5651"/>
        <path id="Trazado_156161" data-name="Trazado 156161" d="M73.877,262.6v-4.385a.2.2,0,1,1,.4,0V262.6C74.281,262.774,73.877,262.777,73.877,262.6Z" transform="translate(-43.104 -254.484)" fill="#5b5651"/>
        <path id="Trazado_156162" data-name="Trazado 156162" d="M68.579,268.57v-4.385a.2.2,0,0,1,.4,0v4.385C68.983,268.745,68.579,268.748,68.579,268.57Z" transform="translate(-50.555 -246.087)" fill="#5b5651"/>
        <path id="Trazado_156163" data-name="Trazado 156163" d="M71.1,270.026v-4.384a.2.2,0,0,1,.407,0v4.384C71.508,270.2,71.1,270.2,71.1,270.026Z" transform="translate(-47.008 -244.039)" fill="#5b5651"/>
        <path id="Trazado_156164" data-name="Trazado 156164" d="M73.624,271.483V267.1a.2.2,0,1,1,.4,0v4.384C74.028,271.658,73.624,271.658,73.624,271.483Z" transform="translate(-43.46 -241.99)" fill="#5b5651"/>
        <path id="Trazado_156165" data-name="Trazado 156165" d="M76.146,272.939v-4.384a.2.2,0,1,1,.4,0v4.384C76.55,273.114,76.146,273.117,76.146,272.939Z" transform="translate(-39.913 -239.942)" fill="#5b5651"/>
        <path id="Trazado_156166" data-name="Trazado 156166" d="M78.668,274.395V270.01a.2.2,0,0,1,.407,0v4.384C79.075,274.57,78.668,274.573,78.668,274.395Z" transform="translate(-36.366 -237.894)" fill="#5b5651"/>
        <path id="Trazado_156167" data-name="Trazado 156167" d="M81.191,275.853v-4.384a.2.2,0,1,1,.4,0v4.384C81.6,276.029,81.191,276.029,81.191,275.853Z" transform="translate(-32.817 -235.846)" fill="#5b5651"/>
        <path id="Trazado_156168" data-name="Trazado 156168" d="M83.713,277.308v-4.385a.2.2,0,0,1,.4,0v4.385C84.117,277.483,83.713,277.486,83.713,277.308Z" transform="translate(-29.27 -233.797)" fill="#5b5651"/>
        <path id="Trazado_156169" data-name="Trazado 156169" d="M86.235,278.764v-4.384a.2.2,0,0,1,.407,0v4.384C86.642,278.939,86.235,278.942,86.235,278.764Z" transform="translate(-25.723 -231.75)" fill="#5b5651"/>
        <path id="Trazado_156170" data-name="Trazado 156170" d="M88.758,280.222v-4.387a.2.2,0,1,1,.4,0v4.387C89.162,280.4,88.758,280.4,88.758,280.222Z" transform="translate(-22.175 -229.702)" fill="#5b5651"/>
        <path id="Trazado_156171" data-name="Trazado 156171" d="M91.28,281.677v-4.384a.2.2,0,1,1,.4,0v4.384C91.684,281.852,91.28,281.852,91.28,281.677Z" transform="translate(-18.628 -227.653)" fill="#5b5651"/>
        <path id="Trazado_156172" data-name="Trazado 156172" d="M93.8,283.133v-4.384a.2.2,0,0,1,.407,0v4.384C94.209,283.308,93.8,283.311,93.8,283.133Z" transform="translate(-15.081 -225.605)" fill="#5b5651"/>
      </g>
      <g id="Cube_face_-_top" data-name="Cube face - top" transform="translate(0.784)">
        <path id="Trazado_156173" data-name="Trazado 156173" d="M154.7,318.708a.45.45,0,0,1-.214-.055L87.471,279.967,69.919,290.1a.417.417,0,0,1-.424,0L51.147,279.51a.426.426,0,0,1,0-.736l48.8-28.177a.417.417,0,0,1,.424,0l18.349,10.591a.428.428,0,0,1,0,.739l-18.395,10.619,66.583,38.442a.425.425,0,0,1,.154.58.429.429,0,0,1-.58.159L99.265,272.914a.428.428,0,0,1,0-.739l18.395-10.619-17.5-10.1L52.21,279.142l17.5,10.1L87.26,279.105a.433.433,0,0,1,.426,0l67.228,38.808a.426.426,0,0,1-.212.794Z" transform="translate(-50.935 -250.539)" fill="#5b5651"/>
      </g>
      <g id="Grupo_100846" data-name="Grupo 100846" transform="translate(1.082 28.687)">
        <path id="Trazado_156174" data-name="Trazado 156174" d="M51.059,267.047v-4.384a.2.2,0,1,1,.4,0v4.384C51.463,267.222,51.059,267.222,51.059,267.047Z" transform="translate(-51.059 -262.46)" fill="#5b5651"/>
        <path id="Trazado_156175" data-name="Trazado 156175" d="M53.581,268.5v-4.384a.2.2,0,0,1,.407,0V268.5C53.988,268.678,53.581,268.681,53.581,268.5Z" transform="translate(-47.512 -260.412)" fill="#5b5651"/>
        <path id="Trazado_156176" data-name="Trazado 156176" d="M56.1,269.959v-4.385a.2.2,0,0,1,.4,0v4.385C56.508,270.134,56.1,270.137,56.1,269.959Z" transform="translate(-43.964 -258.364)" fill="#5b5651"/>
        <path id="Trazado_156177" data-name="Trazado 156177" d="M58.626,271.417v-4.384a.2.2,0,1,1,.4,0v4.384C59.03,271.593,58.626,271.593,58.626,271.417Z" transform="translate(-40.417 -256.317)" fill="#5b5651"/>
      </g>
      <g id="Grupo_100847" data-name="Grupo 100847" transform="translate(49.85 0.529)">
        <path id="Trazado_156178" data-name="Trazado 156178" d="M71.325,255.346v-4.384a.2.2,0,0,1,.4,0v4.384C71.729,255.521,71.325,255.524,71.325,255.346Z" transform="translate(-71.325 -250.759)" fill="#5b5651"/>
        <path id="Trazado_156179" data-name="Trazado 156179" d="M73.847,256.8v-4.387a.2.2,0,1,1,.4,0V256.8C74.251,256.98,73.847,256.98,73.847,256.8Z" transform="translate(-67.778 -248.711)" fill="#5b5651"/>
        <path id="Trazado_156180" data-name="Trazado 156180" d="M76.37,258.259v-4.384a.2.2,0,1,1,.4,0v4.384C76.774,258.434,76.37,258.434,76.37,258.259Z" transform="translate(-64.23 -246.662)" fill="#5b5651"/>
        <path id="Trazado_156181" data-name="Trazado 156181" d="M78.892,259.715V255.33a.2.2,0,1,1,.4,0v4.384C79.3,259.89,78.892,259.893,78.892,259.715Z" transform="translate(-60.683 -244.614)" fill="#5b5651"/>
      </g>
      <g id="Grupo_100848" data-name="Grupo 100848" transform="translate(7.654 3.703)">
        <path id="Trazado_156182" data-name="Trazado 156182" d="M69.328,256.665V252.28a.2.2,0,0,0-.4,0v4.384C68.924,256.84,69.328,256.843,69.328,256.665Z" transform="translate(-32.505 -252.078)" fill="#5b5651"/>
        <path id="Trazado_156183" data-name="Trazado 156183" d="M66.806,258.121v-4.384a.2.2,0,1,0-.4,0v4.384C66.4,258.3,66.806,258.3,66.806,258.121Z" transform="translate(-36.052 -250.03)" fill="#5b5651"/>
        <path id="Trazado_156184" data-name="Trazado 156184" d="M64.286,259.577v-4.384a.2.2,0,0,0-.407,0v4.384C63.879,259.752,64.286,259.755,64.286,259.577Z" transform="translate(-39.601 -247.983)" fill="#5b5651"/>
        <path id="Trazado_156185" data-name="Trazado 156185" d="M61.761,261.034v-4.384a.2.2,0,1,0-.4,0v4.384C61.357,261.209,61.761,261.209,61.761,261.034Z" transform="translate(-43.148 -245.933)" fill="#5b5651"/>
        <path id="Trazado_156186" data-name="Trazado 156186" d="M59.239,262.49v-4.384a.2.2,0,0,0-.4,0v4.384C58.835,262.665,59.239,262.668,59.239,262.49Z" transform="translate(-46.695 -243.886)" fill="#5b5651"/>
        <path id="Trazado_156187" data-name="Trazado 156187" d="M56.719,263.946v-4.384a.2.2,0,0,0-.407,0v4.384C56.312,264.121,56.719,264.124,56.719,263.946Z" transform="translate(-50.243 -241.838)" fill="#5b5651"/>
        <path id="Trazado_156188" data-name="Trazado 156188" d="M54.194,265.4v-4.387a.2.2,0,0,0-.4,0V265.4C53.79,265.58,54.194,265.58,54.194,265.4Z" transform="translate(-53.79 -239.79)" fill="#5b5651"/>
      </g>
    </g>
    <g id="Grupo_100879" data-name="Grupo 100879" transform="translate(28.433 239.309)">
      <g id="Grupo_100878" data-name="Grupo 100878" transform="translate(0.096 0.206)">
        <g id="Grupo_100850" data-name="Grupo 100850" transform="translate(181.022 73.4)">
          <path id="Trazado_156189" data-name="Trazado 156189" d="M102.9,276.722a.33.33,0,0,1-.33-.33v-6.163a.331.331,0,1,1,.662,0v6.163A.331.331,0,0,1,102.9,276.722Z" transform="translate(-102.575 -269.897)" fill="#5b5651"/>
        </g>
        <g id="Grupo_100851" data-name="Grupo 100851" transform="translate(186.092 62.478)">
          <path id="Trazado_156190" data-name="Trazado 156190" d="M105.012,272.183a.329.329,0,0,1-.33-.33V265.69a.33.33,0,1,1,.659,0v6.163A.33.33,0,0,1,105.012,272.183Z" transform="translate(-104.682 -265.358)" fill="#5b5651"/>
        </g>
        <g id="Grupo_100852" data-name="Grupo 100852" transform="translate(187.117 51.184)">
          <path id="Trazado_156191" data-name="Trazado 156191" d="M105.438,267.49a.329.329,0,0,1-.33-.332V261a.33.33,0,1,1,.659,0v6.16A.329.329,0,0,1,105.438,267.49Z" transform="translate(-105.108 -260.665)" fill="#5b5651"/>
        </g>
        <g id="Grupo_100853" data-name="Grupo 100853" transform="translate(184.052 40.014)">
          <path id="Trazado_156192" data-name="Trazado 156192" d="M104.166,262.85a.331.331,0,0,1-.332-.33v-6.165a.331.331,0,1,1,.662,0v6.165A.33.33,0,0,1,104.166,262.85Z" transform="translate(-103.834 -256.023)" fill="#5b5651"/>
        </g>
        <g id="Grupo_100854" data-name="Grupo 100854" transform="translate(177.032 29.459)">
          <path id="Trazado_156193" data-name="Trazado 156193" d="M101.249,258.462a.333.333,0,0,1-.332-.332v-6.163a.331.331,0,0,1,.662,0v6.163A.332.332,0,0,1,101.249,258.462Z" transform="translate(-100.917 -251.637)" fill="#5b5651"/>
        </g>
        <g id="Grupo_100855" data-name="Grupo 100855" transform="translate(166.367 19.976)">
          <path id="Trazado_156194" data-name="Trazado 156194" d="M96.815,254.521a.329.329,0,0,1-.33-.33v-6.163a.33.33,0,1,1,.659,0v6.163A.329.329,0,0,1,96.815,254.521Z" transform="translate(-96.485 -247.696)" fill="#5b5651"/>
        </g>
        <g id="Grupo_100856" data-name="Grupo 100856" transform="translate(152.518 11.979)">
          <path id="Trazado_156195" data-name="Trazado 156195" d="M91.06,251.2a.331.331,0,0,1-.33-.332v-6.16a.33.33,0,1,1,.659,0v6.16A.332.332,0,0,1,91.06,251.2Z" transform="translate(-90.73 -244.373)" fill="#5b5651"/>
        </g>
        <g id="Grupo_100857" data-name="Grupo 100857" transform="translate(136.092 5.821)">
          <path id="Trazado_156196" data-name="Trazado 156196" d="M84.234,248.636a.329.329,0,0,1-.33-.33v-6.163a.33.33,0,0,1,.659,0v6.163A.329.329,0,0,1,84.234,248.636Z" transform="translate(-83.904 -241.814)" fill="#5b5651"/>
        </g>
        <g id="Grupo_100858" data-name="Grupo 100858" transform="translate(117.806 1.769)">
          <path id="Trazado_156197" data-name="Trazado 156197" d="M76.635,246.955a.332.332,0,0,1-.33-.332v-6.16a.331.331,0,1,1,.662,0v6.16A.333.333,0,0,1,76.635,246.955Z" transform="translate(-76.305 -240.13)" fill="#5b5651"/>
        </g>
        <g id="Grupo_100859" data-name="Grupo 100859" transform="translate(98.461)">
          <path id="Trazado_156198" data-name="Trazado 156198" d="M68.6,246.217a.33.33,0,0,1-.33-.33v-6.163a.331.331,0,0,1,.662,0v6.163A.331.331,0,0,1,68.6,246.217Z" transform="translate(-68.266 -239.395)" fill="#5b5651"/>
        </g>
        <g id="Grupo_100860" data-name="Grupo 100860" transform="translate(78.901 0.592)">
          <path id="Trazado_156199" data-name="Trazado 156199" d="M60.468,246.466a.332.332,0,0,1-.33-.332v-6.163a.331.331,0,0,1,.662,0v6.163A.333.333,0,0,1,60.468,246.466Z" transform="translate(-60.138 -239.641)" fill="#5b5651"/>
        </g>
        <g id="Grupo_100861" data-name="Grupo 100861" transform="translate(59.982 3.516)">
          <path id="Trazado_156200" data-name="Trazado 156200" d="M52.608,247.681a.331.331,0,0,1-.332-.33v-6.163a.331.331,0,1,1,.662,0v6.163A.33.33,0,0,1,52.608,247.681Z" transform="translate(-52.276 -240.856)" fill="#5b5651"/>
        </g>
        <g id="Grupo_100862" data-name="Grupo 100862" transform="translate(42.531 8.651)">
          <path id="Trazado_156201" data-name="Trazado 156201" d="M45.356,249.815a.331.331,0,0,1-.332-.33v-6.163a.331.331,0,1,1,.662,0v6.163A.33.33,0,0,1,45.356,249.815Z" transform="translate(-45.024 -242.99)" fill="#5b5651"/>
        </g>
        <g id="Grupo_100863" data-name="Grupo 100863" transform="translate(27.31 15.767)">
          <path id="Trazado_156202" data-name="Trazado 156202" d="M39.029,252.772a.33.33,0,0,1-.33-.33v-6.163a.331.331,0,1,1,.662,0v6.163A.331.331,0,0,1,39.029,252.772Z" transform="translate(-38.699 -245.947)" fill="#5b5651"/>
        </g>
        <g id="Grupo_100864" data-name="Grupo 100864" transform="translate(14.985 24.557)">
          <path id="Trazado_156203" data-name="Trazado 156203" d="M33.907,256.422a.33.33,0,0,1-.33-.33V249.93a.331.331,0,0,1,.662,0v6.163A.331.331,0,0,1,33.907,256.422Z" transform="translate(-33.577 -249.6)" fill="#5b5651"/>
        </g>
        <g id="Grupo_100865" data-name="Grupo 100865" transform="translate(6.093 34.631)">
          <path id="Trazado_156204" data-name="Trazado 156204" d="M30.214,260.611a.333.333,0,0,1-.332-.332v-6.16a.331.331,0,1,1,.662,0v6.16A.332.332,0,0,1,30.214,260.611Z" transform="translate(-29.882 -253.786)" fill="#5b5651"/>
        </g>
        <g id="Grupo_100866" data-name="Grupo 100866" transform="translate(1.023 45.553)">
          <path id="Trazado_156205" data-name="Trazado 156205" d="M28.107,265.15a.331.331,0,0,1-.332-.332v-6.16a.331.331,0,1,1,.662,0v6.16A.331.331,0,0,1,28.107,265.15Z" transform="translate(-27.775 -258.325)" fill="#5b5651"/>
        </g>
        <g id="Grupo_100867" data-name="Grupo 100867" transform="translate(0 56.849)">
          <path id="Trazado_156206" data-name="Trazado 156206" d="M27.68,269.839a.329.329,0,0,1-.33-.33v-6.16a.33.33,0,0,1,.659,0v6.16A.329.329,0,0,1,27.68,269.839Z" transform="translate(-27.35 -263.019)" fill="#5b5651"/>
        </g>
        <g id="Grupo_100868" data-name="Grupo 100868" transform="translate(3.063 68.015)">
          <path id="Trazado_156207" data-name="Trazado 156207" d="M28.953,274.484a.329.329,0,0,1-.33-.332v-6.16a.33.33,0,1,1,.659,0v6.16A.331.331,0,0,1,28.953,274.484Z" transform="translate(-28.623 -267.659)" fill="#5b5651"/>
        </g>
        <g id="Grupo_100869" data-name="Grupo 100869" transform="translate(10.083 78.574)">
          <path id="Trazado_156208" data-name="Trazado 156208" d="M31.87,278.872a.331.331,0,0,1-.33-.332v-6.16a.33.33,0,1,1,.659,0v6.16A.332.332,0,0,1,31.87,278.872Z" transform="translate(-31.54 -272.047)" fill="#5b5651"/>
        </g>
        <g id="Grupo_100870" data-name="Grupo 100870" transform="translate(20.748 88.055)">
          <path id="Trazado_156209" data-name="Trazado 156209" d="M36.3,282.812a.331.331,0,0,1-.33-.332v-6.16a.331.331,0,1,1,.662,0v6.16A.331.331,0,0,1,36.3,282.812Z" transform="translate(-35.972 -275.987)" fill="#5b5651"/>
        </g>
        <g id="Grupo_100871" data-name="Grupo 100871" transform="translate(34.597 96.052)">
          <path id="Trazado_156210" data-name="Trazado 156210" d="M42.059,286.137a.333.333,0,0,1-.332-.332v-6.163a.331.331,0,1,1,.662,0V285.8A.332.332,0,0,1,42.059,286.137Z" transform="translate(-41.727 -279.31)" fill="#5b5651"/>
        </g>
        <g id="Grupo_100872" data-name="Grupo 100872" transform="translate(51.025 102.21)">
          <path id="Trazado_156211" data-name="Trazado 156211" d="M48.884,288.7a.329.329,0,0,1-.33-.332V282.2a.33.33,0,1,1,.659,0v6.163A.329.329,0,0,1,48.884,288.7Z" transform="translate(-48.554 -281.869)" fill="#5b5651"/>
        </g>
        <g id="Grupo_100873" data-name="Grupo 100873" transform="translate(69.309 106.264)">
          <path id="Trazado_156212" data-name="Trazado 156212" d="M56.484,290.379a.333.333,0,0,1-.332-.332v-6.163a.331.331,0,0,1,.662,0v6.163A.332.332,0,0,1,56.484,290.379Z" transform="translate(-56.152 -283.554)" fill="#5b5651"/>
        </g>
        <g id="Grupo_100874" data-name="Grupo 100874" transform="translate(88.654 108.033)">
          <path id="Trazado_156213" data-name="Trazado 156213" d="M64.521,291.114a.329.329,0,0,1-.33-.332v-6.16a.33.33,0,1,1,.659,0v6.16A.329.329,0,0,1,64.521,291.114Z" transform="translate(-64.191 -284.289)" fill="#5b5651"/>
        </g>
        <g id="Grupo_100875" data-name="Grupo 100875" transform="translate(108.214 107.441)">
          <path id="Trazado_156214" data-name="Trazado 156214" d="M72.649,290.868a.331.331,0,0,1-.33-.332v-6.16a.33.33,0,1,1,.659,0v6.16A.331.331,0,0,1,72.649,290.868Z" transform="translate(-72.319 -284.043)" fill="#5b5651"/>
        </g>
        <g id="Grupo_100876" data-name="Grupo 100876" transform="translate(127.133 104.513)">
          <path id="Trazado_156215" data-name="Trazado 156215" d="M80.511,289.651a.329.329,0,0,1-.33-.332v-6.16a.33.33,0,1,1,.659,0v6.16A.329.329,0,0,1,80.511,289.651Z" transform="translate(-80.181 -282.826)" fill="#5b5651"/>
        </g>
        <g id="Grupo_100877" data-name="Grupo 100877" transform="translate(144.584 99.38)">
          <path id="Trazado_156216" data-name="Trazado 156216" d="M87.763,287.518a.329.329,0,0,1-.33-.33v-6.163a.33.33,0,1,1,.659,0v6.163A.33.33,0,0,1,87.763,287.518Z" transform="translate(-87.433 -280.693)" fill="#5b5651"/>
        </g>
      </g>
      <g id="Cylinder_face-7" data-name="Cylinder face">
        <path id="Trazado_156217" data-name="Trazado 156217" d="M121.53,348.264c-24.293,0-48.431-5.4-66.573-15.877-17.829-10.292-27.647-24-27.647-38.606s9.818-28.314,27.647-38.608c36.638-21.15,96.251-21.15,132.891,0,15.1,8.716,24.423,19.8,26.966,32.046,1.988,9.573-.411,19.29-6.942,28.1a.426.426,0,1,1-.683-.508c6.382-8.613,8.73-18.1,6.793-27.426-2.493-12-11.678-22.887-26.56-31.478-36.4-21.018-95.635-21.018-132.04,0-17.555,10.133-27.221,23.583-27.221,37.87s9.667,27.736,27.221,37.87c31.449,18.159,81.055,20.972,117.95,6.692a.426.426,0,0,1,.308.794C157.8,345.268,139.619,348.264,121.53,348.264Z" transform="translate(-27.31 -239.309)" fill="#5b5651"/>
      </g>
    </g>
  </g>
</svg>
