<svg xmlns="http://www.w3.org/2000/svg" xmlns:xlink="http://www.w3.org/1999/xlink" width="50" height="50" viewBox="0 0 50 50">
  <defs>
    <clipPath id="clip-path">
      <rect id="Rectángulo_35453" data-name="Rectángulo 35453" width="50" height="50" transform="translate(285 2616)" fill="#12263f" stroke="#707070" stroke-width="1"/>
    </clipPath>
  </defs>
  <g id="Enmascarar_grupo_71" data-name="Enmascarar grupo 71" transform="translate(-285 -2616)" clip-path="url(#clip-path)">
    <g id="alta-calidad" transform="translate(285 2616)">
      <path id="Trazado_157525" data-name="Trazado 157525" d="M22.763,14.582a.732.732,0,0,0-.732.732V16.3a.732.732,0,0,0,1.465,0v-.986A.732.732,0,0,0,22.763,14.582Z" fill="#12263f"/>
      <path id="Trazado_157526" data-name="Trazado 157526" d="M25.009,17.032a.732.732,0,0,0,.732-.732v-.986a.732.732,0,1,0-1.465,0V16.3A.732.732,0,0,0,25.009,17.032Z" fill="#12263f"/>
      <path id="Trazado_157527" data-name="Trazado 157527" d="M27.254,17.032a.732.732,0,0,0,.732-.732v-.986a.732.732,0,1,0-1.465,0V16.3A.732.732,0,0,0,27.254,17.032Z" fill="#12263f"/>
      <path id="Trazado_157528" data-name="Trazado 157528" d="M18.088,16.539H19.76a.732.732,0,0,0,0-1.465H18.088a.732.732,0,0,0,0,1.465Z" fill="#12263f"/>
      <path id="Trazado_157529" data-name="Trazado 157529" d="M30.258,16.539h1.672a.732.732,0,0,0,0-1.465H30.258a.732.732,0,1,0,0,1.465Z" fill="#12263f"/>
      <path id="Trazado_157530" data-name="Trazado 157530" d="M27.759,21.181h-.981a.732.732,0,0,0-.292,1.4.541.541,0,0,1-1.013-.265v-1.58a.542.542,0,0,1,.541-.542.536.536,0,0,1,.4.182.732.732,0,1,0,1.094-.974,2.006,2.006,0,0,0-3.505,1.334v1.58a2.005,2.005,0,0,0,3.99.286.732.732,0,0,0-.238-1.424Z" fill="#12263f"/>
      <path id="Trazado_157531" data-name="Trazado 157531" d="M22.452,18.733a.732.732,0,0,0-.732.732v4.128a.732.732,0,0,0,1.465,0V19.465A.732.732,0,0,0,22.452,18.733Z" fill="#12263f"/>
      <path id="Trazado_157532" data-name="Trazado 157532" d="M20.146,18.733a.732.732,0,0,0-.732.732V20.8H18.331V19.465a.732.732,0,0,0-1.465,0v4.128a.732.732,0,0,0,1.465,0V22.262h1.083v1.331a.732.732,0,0,0,1.465,0V19.465A.732.732,0,0,0,20.146,18.733Z" fill="#12263f"/>
      <path id="Trazado_157533" data-name="Trazado 157533" d="M32.4,18.733a.732.732,0,0,0-.732.732V20.8H30.586V19.465a.732.732,0,0,0-1.465,0v4.128a.732.732,0,0,0,1.465,0V22.262h1.083v1.331a.732.732,0,0,0,1.465,0V19.465A.732.732,0,0,0,32.4,18.733Z" fill="#12263f"/>
      <path id="Trazado_157534" data-name="Trazado 157534" d="M43.286,25.521c0-.174.008-.348.008-.521a18.253,18.253,0,0,0-6.557-14.017V1.926A1.927,1.927,0,0,0,34.155.115L25.009,3.426,15.863.115A1.927,1.927,0,0,0,13.28,1.926V4.19a.732.732,0,0,0,1.465,0V1.926a.462.462,0,0,1,.619-.434l9.4,3.4a.732.732,0,0,0,.5,0l9.4-3.4a.462.462,0,0,1,.619.434V9.874a18.249,18.249,0,0,0-20.527,0V7.51a.732.732,0,0,0-1.465,0v3.473A18.253,18.253,0,0,0,6.723,25c0,.171,0,.343.007.514A1.71,1.71,0,0,0,5.6,27.122v8.053a1.711,1.711,0,0,0,1.709,1.709h3.806a18.526,18.526,0,0,0,2.168,2.149v9.041a1.927,1.927,0,0,0,2.582,1.812l9.146-3.311,9.146,3.311a1.927,1.927,0,0,0,2.582-1.812V39.033A18.571,18.571,0,0,0,38.9,36.884h3.79A1.711,1.711,0,0,0,44.4,35.175V27.122A1.71,1.71,0,0,0,43.286,25.521ZM25.009,8.179A16.84,16.84,0,0,1,41.829,25c0,.137,0,.275-.005.412H40.087c0-.138.007-.275.007-.412a14.971,14.971,0,0,0-2.9-8.89.732.732,0,1,0-1.183.864A13.516,13.516,0,0,1,38.63,25c0,.137,0,.275-.007.412H11.395c0-.138-.007-.276-.007-.412A13.62,13.62,0,0,1,33.872,14.658a.732.732,0,1,0,.954-1.112A15.085,15.085,0,0,0,9.923,25c0,.137,0,.275.007.412H8.194c0-.138-.005-.275-.005-.412A16.84,16.84,0,0,1,25.009,8.179ZM26.5,41.754a.732.732,0,0,0,.063,1.462l.065,0a18.13,18.13,0,0,0,8.645-3.071v7.932a.462.462,0,0,1-.619.434l-9.4-3.4a.732.732,0,0,0-.5,0l-9.4,3.4a.462.462,0,0,1-.619-.434V40.14a18.147,18.147,0,0,0,8.425,3.053q.037,0,.074,0a.732.732,0,0,0,.072-1.461A16.7,16.7,0,0,1,13.1,36.884h2.611a14.936,14.936,0,0,0,9.293,3.2,15.129,15.129,0,0,0,9.293-3.2h2.611A16.666,16.666,0,0,1,26.5,41.754Zm-8.155-4.871H31.675a13.657,13.657,0,0,1-13.332,0Zm24.594-1.709a.244.244,0,0,1-.244.244H7.306a.244.244,0,0,1-.244-.244V27.122a.244.244,0,0,1,.244-.244H42.694a.244.244,0,0,1,.244.244Z" fill="#12263f"/>
      <path id="Trazado_157535" data-name="Trazado 157535" d="M14.109,31.933v-1.58a2.006,2.006,0,1,0-4.013,0v1.58a2,2,0,0,0,2.812,1.836.732.732,0,0,0,1.031-1.031,1.993,1.993,0,0,0,.17-.805Zm-2.548,0v-1.58a.542.542,0,1,1,1.083,0v1.228a.731.731,0,0,0-.916.742A.54.54,0,0,1,11.561,31.933Z" fill="#12263f"/>
      <path id="Trazado_157536" data-name="Trazado 157536" d="M18.055,28.346a.732.732,0,0,0-.732.732v2.854a.541.541,0,0,1-1.083,0V29.079a.732.732,0,1,0-1.465,0v2.854a2.006,2.006,0,0,0,4.013,0V29.079A.732.732,0,0,0,18.055,28.346Z" fill="#12263f"/>
      <path id="Trazado_157537" data-name="Trazado 157537" d="M29.851,28.346a.732.732,0,0,0-.732.732v4.128a.732.732,0,1,0,1.465,0V29.079a.732.732,0,0,0-.732-.732Z" fill="#12263f"/>
      <path id="Trazado_157538" data-name="Trazado 157538" d="M21.635,28.367a2,2,0,0,0-1.994,1.994v2.825a.732.732,0,0,0,1.465,0V32.4h1.057v.788a.732.732,0,0,0,1.465,0V30.361A2,2,0,0,0,21.635,28.367Zm-.529,2.565v-.572a.529.529,0,1,1,1.057,0v.572Z" fill="#12263f"/>
      <path id="Trazado_157539" data-name="Trazado 157539" d="M27.681,32.474H25.913V29.1a.732.732,0,0,0-1.465,0v4.107a.732.732,0,0,0,.732.732h2.5a.732.732,0,1,0,0-1.465Z" fill="#12263f"/>
      <path id="Trazado_157540" data-name="Trazado 157540" d="M39.609,28.5a.733.733,0,0,0-1.025.148l-.687.92-.687-.92a.732.732,0,0,0-1.174.877l1.128,1.51v2.179a.732.732,0,1,0,1.465,0V31.038l1.128-1.51A.732.732,0,0,0,39.609,28.5Z" fill="#12263f"/>
      <path id="Trazado_157541" data-name="Trazado 157541" d="M34.587,28.357H32.039a.732.732,0,0,0,0,1.465h.542v3.4a.732.732,0,0,0,1.465,0v-3.4h.542a.732.732,0,1,0,0-1.465Z" fill="#12263f"/>
    </g>
  </g>
</svg>
