<svg xmlns="http://www.w3.org/2000/svg" width="105" height="82.213" viewBox="0 0 105 82.213">
  <g id="Grupo_100476" data-name="Grupo 100476" transform="translate(-826 -4075.667)">
    <rect id="Rectángulo_32728" data-name="Rectángulo 32728" width="105" height="46" transform="translate(826 4111.88)" fill="#3ca8f4"/>
    <g id="Grupo_87070" data-name="Grupo 87070" transform="translate(810.797 3725.104)">
      <g id="Grupo_87067" data-name="Grupo 87067" transform="translate(72.025 350.563)">
        <path id="Trazado_145997" data-name="Trazado 145997" d="M80.918,396.47a24.008,24.008,0,0,1-11.893-2.86c-3.344-1.918-5.191-4.549-5.191-7.367s1.847-5.44,5.191-7.382a24.382,24.382,0,0,1,11.893-2.844,24.207,24.207,0,0,1,11.9,2.859c3.342,1.928,5.191,4.544,5.191,7.368s-1.849,5.45-5.191,7.367A24.04,24.04,0,0,1,80.918,396.47Z" transform="translate(-63.833 -344.541)" fill="#0d0d0d" opacity="0.3"/>
        <path id="Trazado_145998" data-name="Trazado 145998" d="M65.319,358.765l3.41-4.458,4.9-2.2,6.054-.879h4.459l3.742,1.43,3.247,1.157,3.413,2.806,1.429,3.137v32.791l-3.09,4.58-5.55,2.862-6,.714-5.723-.4-3.963-.981-3.193-2.035-1.927-1.982-1.21-2.763Z" transform="translate(-63.481 -350.406)" fill="#659ec9" opacity="0.7"/>
        <g id="Grupo_87066" data-name="Grupo 87066" transform="translate(3.939 12.161)">
          <path id="Trazado_145999" data-name="Trazado 145999" d="M80.164,394.8a18.788,18.788,0,0,1-9.147-2.175c-2.577-1.488-4-3.511-4-5.688V366.763h26.3v20.174c0,2.178-1.42,4.2-4,5.688A18.81,18.81,0,0,1,80.164,394.8Z" transform="translate(-67.018 -358.891)" fill="#00537d"/>
          <path id="Trazado_146000" data-name="Trazado 146000" d="M80.164,376.15a18.552,18.552,0,0,1-9.147-2.207c-2.577-1.473-4-3.495-4-5.673s1.422-4.193,4-5.661a20.047,20.047,0,0,1,18.3,0c2.576,1.468,4,3.485,4,5.661s-1.42,4.2-4,5.673A18.53,18.53,0,0,1,80.164,376.15Z" transform="translate(-67.018 -360.397)" fill="#1078ad"/>
        </g>
        <path id="Trazado_146001" data-name="Trazado 146001" d="M74.023,396.613l-4.4-1.675V364.332l4.4,1.237Z" transform="translate(-62.462 -347.305)" fill="#fff" opacity="0.2"/>
        <path id="Trazado_146002" data-name="Trazado 146002" d="M81.788,397.6l7.2-3.38V362.664l-7.2,3.3Z" transform="translate(-59.585 -347.7)" fill="#0d0d0d" opacity="0.2"/>
        <path id="Trazado_146003" data-name="Trazado 146003" d="M96.8,360.165c0-2.65-1.737-5.1-4.867-6.915a22.789,22.789,0,0,0-11.211-2.687,22.714,22.714,0,0,0-11.2,2.687c-3.136,1.812-4.873,4.265-4.873,6.915v31.712c0,2.653,1.737,5.116,4.873,6.943a23.03,23.03,0,0,0,11.2,2.672,22.939,22.939,0,0,0,11.2-2.672c3.145-1.828,4.882-4.291,4.882-6.943V360.165Zm-30.522,0c0-2.04,1.444-4,4.061-5.509a21.067,21.067,0,0,1,10.384-2.469,21,21,0,0,1,10.384,2.469c2.631,1.512,4.062,3.469,4.062,5.509,0,2.064-1.431,4.031-4.062,5.534a21,21,0,0,1-10.384,2.477A21.068,21.068,0,0,1,70.34,365.7c-2.617-1.5-4.061-3.47-4.061-5.51v-.023Zm28.89,31.712c0,2.047-1.431,4.013-4.062,5.529-5.728,3.3-15.039,3.3-20.767,0-2.617-1.516-4.061-3.482-4.061-5.529V364.424a11.568,11.568,0,0,0,3.248,2.687,22.843,22.843,0,0,0,11.2,2.691,22.823,22.823,0,0,0,11.2-2.691,11.283,11.283,0,0,0,3.25-2.687Z" transform="translate(-63.639 -350.563)" fill="#b2c4da"/>
      </g>
      <g id="Grupo_87069" data-name="Grupo 87069" transform="translate(29.204 350.562)">
        <path id="Trazado_146004" data-name="Trazado 146004" d="M36.242,410.878c-3.8-2.194-5.889-5.149-5.889-8.358s2.086-6.189,5.889-8.385a27.566,27.566,0,0,1,13.5-3.22,27.632,27.632,0,0,1,13.516,3.22c3.784,2.2,5.871,5.187,5.871,8.385s-2.087,6.164-5.871,8.358a27.486,27.486,0,0,1-13.516,3.236A27.421,27.421,0,0,1,36.242,410.878Z" transform="translate(-28.932 -341.016)" fill="#0d0d0d" opacity="0.3"/>
        <path id="Trazado_146005" data-name="Trazado 146005" d="M41.911,380.48V360.706l2.75-8.033h9.345l2.739,8.033V380.48a19.241,19.241,0,1,1-14.834,0Z" transform="translate(-28.995 -350.063)" fill="#659ec9" opacity="0.7"/>
        <g id="Grupo_87068" data-name="Grupo 87068" transform="translate(4.326 38.952)">
          <path id="Trazado_146006" data-name="Trazado 146006" d="M64.727,389.526a16.012,16.012,0,0,1-32.025,0Z" transform="translate(-32.702 -380.296)" fill="#4fbeff"/>
          <path id="Trazado_146007" data-name="Trazado 146007" d="M37.427,397.809c6.247,3.59,16.362,3.59,22.608,0s6.246-9.449,0-13.061c-6.246-3.581-16.361-3.581-22.608,0C31.178,388.36,31.178,394.224,37.427,397.809Z" transform="translate(-32.693 -382.062)" fill="#8dd5ff"/>
        </g>
        <path id="Trazado_146008" data-name="Trazado 146008" d="M48.126,358.6v23.752s-11.338,5.529-11.338,15.818c0,9.408,4.782,12.592,11.943,14.671-9.434,0-16.029-6.862-16.029-16.292,0-7.243,5.347-12.144,12.156-14.557l1.105-.372V358.6Z" transform="translate(-28.376 -348.66)" fill="#fff" opacity="0.2"/>
        <path id="Trazado_146009" data-name="Trazado 146009" d="M41.7,378.211V356.824H44.6v22.443l-1.175.413a18.44,18.44,0,1,0,12.227,0l-1.175-.413V356.824h2.891v21.387a20.331,20.331,0,1,1-15.676,0Z" transform="translate(-29.204 -349.081)" fill="#b4caed"/>
        <path id="Trazado_146010" data-name="Trazado 146010" d="M40.561,360.29a15.409,15.409,0,0,0,13.984,0c3.846-2.21,3.846-5.814,0-8.061a15.5,15.5,0,0,0-13.984,0C36.694,354.476,36.694,358.08,40.561,360.29Zm3.558-7.893a7.618,7.618,0,0,1,6.905,0c1.911,1.1,1.911,2.871,0,3.99a7.766,7.766,0,0,1-6.905,0C42.217,355.268,42.217,353.5,44.118,352.4Z" transform="translate(-27.203 -350.562)" fill="#dae5f8"/>
        <path id="Trazado_146011" data-name="Trazado 146011" d="M54.933,380.312c3.344,2.466,6.727,6.216,6.727,11.328,0,9.43-6.585,16.292-16,16.292,7.119-2.079,11.913-5.263,11.913-14.671,0-5.477-3.2-9.593-6.2-12.241C50.08,379.868,52.255,378.345,54.933,380.312Z" transform="translate(-25.31 -343.748)" opacity="0.3"/>
        <path id="Trazado_146012" data-name="Trazado 146012" d="M50.57,355.836a5.347,5.347,0,0,0-.508-.34,7.528,7.528,0,0,0-6.905,0,3.739,3.739,0,0,0-.5.34c-1.371-1.105-1.228-2.656.5-3.632a7.618,7.618,0,0,1,6.905,0C51.785,353.18,51.95,354.731,50.57,355.836Z" transform="translate(-26.241 -350.369)" fill="#81a1cc"/>
      </g>
    </g>
  </g>
</svg>
