<svg xmlns="http://www.w3.org/2000/svg" width="161" height="161" viewBox="0 0 161 161">
  <g id="Grupo_102471" data-name="Grupo 102471" transform="translate(-53 -67)">
    <circle id="Elipse_4554" data-name="Elipse 4554" cx="80.5" cy="80.5" r="80.5" transform="translate(53 67)" fill="#fff"/>
    <g id="roca" transform="translate(69.5 87.768)">
      <g id="Grupo_101681" data-name="Grupo 101681">
        <path id="Trazado_157576" data-name="Trazado 157576" d="M90.625,47.25V71l-26.75,39.018-24-23.268L46.375,67l-9-32.25L62,17.982Z" fill="#b25f4c"/>
        <path id="Trazado_157577" data-name="Trazado 157577" d="M62,17.982,46.375,67l17.5,43.018L90.625,47.25Z" fill="#c5715d"/>
        <path id="Trazado_157578" data-name="Trazado 157578" d="M37.375,34.75,90.625,71V47.25L62,17.982Z" fill="#d2866d"/>
      </g>
      <g id="Grupo_101682" data-name="Grupo 101682">
        <path id="Trazado_157579" data-name="Trazado 157579" d="M91.876,46.026,77.629,31.459a1.75,1.75,0,0,0-2.5,2.448l13.43,13.731-7.39,17.337L81.16,65,63.912,105.47,59.749,95.231a1.75,1.75,0,1,0-3.242,1.318l2.611,6.419L41.88,86.256l4.668-14.185,4.5,11.069a1.75,1.75,0,1,0,3.242-1.319L48.23,66.928,54.172,48.3,76.277,63.35a1.75,1.75,0,1,0,1.969-2.893L55.281,44.823l7.5-23.536,3.6,3.675a1.75,1.75,0,1,0,2.5-2.447l-5.63-5.756a1.75,1.75,0,0,0-2.236-.223L36.39,33.3a1.749,1.749,0,0,0-.7,1.916l8.858,31.738L38.213,86.2a1.749,1.749,0,0,0,.444,1.8l24,23.268a1.751,1.751,0,0,0,1.218.494,1.723,1.723,0,0,0,.175-.009A1.751,1.751,0,0,0,65.318,111L92.068,71.99a1.744,1.744,0,0,0,.307-.99V47.25a1.751,1.751,0,0,0-.5-1.224ZM39.4,35.49,58.793,22.283l-6.53,20.485-7.256-4.939a1.75,1.75,0,1,0-1.969,2.893l8.116,5.525L46.487,60.889ZM83.555,68.3l4.634,3.154L72.39,94.5Zm1.4-3.281,3.921-9.2v11.87Z" fill="#12263f"/>
        <path id="Trazado_157580" data-name="Trazado 157580" d="M70.894,29.578a1.75,1.75,0,1,0,2.5-2.449l-.555-.566a1.75,1.75,0,1,0-2.5,2.449Z" fill="#12263f"/>
        <path id="Trazado_157581" data-name="Trazado 157581" d="M54.5,86.966a1.751,1.751,0,0,0-.961,2.281l.407,1a1.751,1.751,0,1,0,3.243-1.32l-.408-1a1.751,1.751,0,0,0-2.281-.961Z" fill="#12263f"/>
      </g>
    </g>
  </g>
</svg>
