<svg xmlns="http://www.w3.org/2000/svg" width="105" height="96.333" viewBox="0 0 105 96.333">
  <g id="Grupo_100475" data-name="Grupo 100475" transform="translate(-247 -4204.32)">
    <rect id="Rectángulo_32724" data-name="Rectángulo 32724" width="105" height="46" transform="translate(247 4254.654)" fill="#3ca8f4"/>
    <g id="Grupo_87064" data-name="Grupo 87064" transform="translate(26.74 3857.138)">
      <g id="Grupo_86989" data-name="Grupo 86989" transform="translate(249.34 347.182)">
        <path id="Trazado_145756" data-name="Trazado 145756" d="M273.139,355.719s.077-.809-1.272-.809-1.276.9-1.276.9l.092.818,1.092.723,1.322-.744Z" transform="translate(-243.636 -345.633)" fill="#c2d2ed"/>
        <path id="Trazado_145757" data-name="Trazado 145757" d="M272.848,356.261l-.181-1.309-1.587.415.061,1.692,1.526-.166Z" transform="translate(-243.537 -345.625)" fill="#ffc654"/>
        <path id="Trazado_145758" data-name="Trazado 145758" d="M261.7,355.1a9.035,9.035,0,0,1,2.542.25c.855.309,1.443.886,2.569,1.342s5.36,1.406,5.36,1.406a8.673,8.673,0,0,0,.286-2.328c.092.731,2.188,1.041,2.549-.086a28.9,28.9,0,0,1,.188,4.128c-.143.771-.945,1.356-2.262,1.284s-7.621-1.5-8.18-1.7a11.52,11.52,0,0,0-2.383-.155l-1.115-2.778Z" transform="translate(-245.506 -345.596)" fill="#e7edf8"/>
        <path id="Trazado_145759" data-name="Trazado 145759" d="M270.257,359.851s-.855-1.487.186-2.056A6.6,6.6,0,0,0,270.257,359.851Z" transform="translate(-243.769 -345.055)" fill="#c2d2ed"/>
        <path id="Trazado_145760" data-name="Trazado 145760" d="M271.661,353.528c-1.427.4-2.233.049-2.262.263-.12.916,1.982.631,1.982.631A2.514,2.514,0,0,0,271.661,353.528Z" transform="translate(-243.875 -345.91)" fill="#f0c6b4"/>
        <path id="Trazado_145761" data-name="Trazado 145761" d="M264.314,403.476a13.7,13.7,0,0,1-12.4,0c-3.42-1.976-3.42-5.18,0-7.158a13.7,13.7,0,0,1,12.4,0C267.738,398.295,267.738,401.5,264.314,403.476Z" transform="translate(-247.892 -337.632)" opacity="0.3"/>
        <path id="Trazado_145762" data-name="Trazado 145762" d="M250.505,396.607a1.383,1.383,0,0,0-.1.918,20.146,20.146,0,0,0,1.42,3.51,2.313,2.313,0,0,0,2.607,1.277c1.432-.5.577-1.822.577-1.822s-.27-.472-.591-1.133Z" transform="translate(-247.69 -337.276)"/>
        <path id="Trazado_145763" data-name="Trazado 145763" d="M254.4,401.39a8.326,8.326,0,0,1-.983-3.269,26.729,26.729,0,0,1,2.318-8.889,3.661,3.661,0,0,0-.024-1.861l-3.392-.91a3.486,3.486,0,0,0-.759,1.227c-.357,1.24.319,4.6-.647,9.638-.062.319-.269.66-.427,1.313.857,1.594,1.411,3.269,2.353,3.51C254.392,402.546,254.4,401.39,254.4,401.39Z" transform="translate(-247.666 -339.31)" fill="#f0c6b4"/>
        <path id="Trazado_145764" data-name="Trazado 145764" d="M255.694,397.708c-.109.675-.108,1.3.369,1.469a30.111,30.111,0,0,0,3.216.371,20.481,20.481,0,0,1,2.383,1.1c.651.281,3.048.573,3.253-.255s-1.522-1.6-2.455-2.057Z" transform="translate(-246.633 -337.056)"/>
        <path id="Trazado_145765" data-name="Trazado 145765" d="M262.45,400.907c-.247-.2-2.575-.643-2.921-2.541-.718-3.959,1.385-10.277,2.073-11.616a1.832,1.832,0,0,0-.068-1.885l-5.057,3.348s-.2.433-.349.867a79.806,79.806,0,0,1-.155,9.7c-.04.384-.241,1.157-.288,1.5-.023.256,1.264.539,2.723.886C260.533,401.673,263.029,402.091,262.45,400.907Z" transform="translate(-246.623 -339.63)" fill="#f0c6b4"/>
        <path id="Trazado_145766" data-name="Trazado 145766" d="M265,372.636s-.443,11.656-.889,14.281-6.1,4.364-9.548,4.366c-2.7,0-2.961-1.852-2.814-2.368a29.35,29.35,0,0,0,.819-5.877l1.821-8.851Z" transform="translate(-247.418 -342.081)" fill="#003552"/>
        <path id="Trazado_145767" data-name="Trazado 145767" d="M256.347,354.092a10.277,10.277,0,0,1,.013,2.344v2.044l2.985,1.749,2.33-2.382v-3l-2.988-1.658-1.773.072S256.212,353.842,256.347,354.092Z" transform="translate(-246.494 -345.978)" fill="#c7a495"/>
        <path id="Trazado_145768" data-name="Trazado 145768" d="M256.553,356.483s1.112,2.565,3.269,1.672c1.412-.585.819-2.354.819-2.354l1.811.112,3.061,7.551s-1.4,12.472-1.424,12.768a16.62,16.62,0,0,1-4.168,2.726l.348-12.817-4.092-7.289Z" transform="translate(-246.524 -345.455)" fill="#ffc654"/>
        <path id="Trazado_145769" data-name="Trazado 145769" d="M259.9,355.708c.248,3.1,3.508,6.048,3.744,9.078.156,1.982-1.241,11.21-1.438,22.467a3.856,3.856,0,0,0,2.678-3.774c0-9.824,1.328-17.751.942-19.537s-1.425-2.937-2.058-5.207c-.431-1.545-.3-2.966-2.182-3.844C261.582,354.891,260.157,355.058,259.9,355.708Z" transform="translate(-245.779 -345.637)" fill="#fff"/>
        <path id="Trazado_145770" data-name="Trazado 145770" d="M253.634,359.974s2.935-3.187,3.594-4.08c.232,1.841,4.424,6.085,5.068,8.941s-1.239,14.133-.819,23.654c-2.432,1.538-9.481,1.091-9.481-1.338,0-3.671-.044-8.211,1.023-10.49s2.982-3.556,2.953-4.883c-.047-2.12-2.7-6.2-2.7-6.2Z" transform="translate(-247.362 -345.436)" fill="#fff"/>
        <path id="Trazado_145771" data-name="Trazado 145771" d="M255.261,373.355s.6.795.073,1.412a5.416,5.416,0,0,1-2,1.477c-.284.052-2.637.322-2.4-1.332.095-.677,2.064-.325,2.064-.325l1.1-1.392Z" transform="translate(-247.578 -341.969)" fill="#f0c6b4"/>
        <path id="Trazado_145772" data-name="Trazado 145772" d="M255.428,347.6c-.511-.337-3.177,2.043-3.177,4.536,0,3.026,2.148,4.276,2.395,5.529,1.5-.485,1.933-2.492,1.933-2.492l-1.04-2.071.793-4.235A3.37,3.37,0,0,0,255.428,347.6Z" transform="translate(-247.311 -347.106)" fill="#572b26"/>
        <path id="Trazado_145773" data-name="Trazado 145773" d="M256.856,348.871a1.357,1.357,0,1,1-1.359-1.344A1.352,1.352,0,0,1,256.856,348.871Z" transform="translate(-246.932 -347.113)" fill="#ffc654"/>
        <path id="Trazado_145774" data-name="Trazado 145774" d="M262.684,349.531s.89,1.961,1.012,2.452a1.336,1.336,0,0,1-.106.6,6.285,6.285,0,0,1,.226,1.3,27.765,27.765,0,0,1-.5,3.676,1.574,1.574,0,0,1-1.136.7,7.861,7.861,0,0,1-3.137-.936,5.3,5.3,0,0,1-1.157-1.761,1.38,1.38,0,0,1-1.23-.52c-.172-.094-1-.539-1-.539l-.743-2.214,1.9-3.22,3.72-.983Z" transform="translate(-246.779 -347.001)" fill="#f0c6b4"/>
        <path id="Trazado_145775" data-name="Trazado 145775" d="M256.806,355.222c-.109-.226-.78-1.6-.346-1.726.4-.047.515.4,1.538.888.617.293.11-.447,1.414-1.172.334-.186-.243-.986.24-1.562s2.456-.019,3.169-1.545c.385-.826-2.089-3.757-5.379-2.695a4.875,4.875,0,0,0-3.011,6.359C255.26,355.9,256.919,355.444,256.806,355.222Z" transform="translate(-246.932 -347.182)" fill="#85413a"/>
        <path id="Trazado_145776" data-name="Trazado 145776" d="M252.582,374.434a9.744,9.744,0,0,1,.876.577c.667.472,1.9-1.246,1.36-1.707s-.773-.669-.773-.669Z" transform="translate(-247.245 -342.081)" fill="#ffc654"/>
        <path id="Trazado_145777" data-name="Trazado 145777" d="M256.449,359.606a2.384,2.384,0,0,0-3.575,1.209c-.552,1.314-3.865,9.213-4.644,10.824s3.562,4.688,4.546,5.728,3.408-1.293,2.277-2.343a34.406,34.406,0,0,1-3.216-3.683s4.067-6.546,4.959-7.712A2.983,2.983,0,0,0,256.449,359.606Z" transform="translate(-248.136 -344.779)" fill="#e7edf8"/>
        <path id="Trazado_145778" data-name="Trazado 145778" d="M257.209,365.9c1.043,1.787,3.224,1.042,3.224,1.042A1.928,1.928,0,0,1,257.209,365.9Z" transform="translate(-246.317 -343.431)" fill="#e7edf8"/>
        <g id="Grupo_86988" data-name="Grupo 86988" transform="translate(26.356 6.423)">
          <path id="Trazado_145779" data-name="Trazado 145779" d="M270.353,352.784l.521-.138.56.223v6.914l-.321.383h-.475l-.285-.383Z" transform="translate(-270.039 -352.51)" fill="#659ec9" opacity="0.7"/>
          <g id="Grupo_86987" data-name="Grupo 86987" transform="translate(0.516 4.547)">
            <path id="Trazado_145780" data-name="Trazado 145780" d="M270.524,356.473v2.384a.313.313,0,0,0,.313.311h0a.312.312,0,0,0,.313-.311v-2.384Z" transform="translate(-270.521 -356.29)" fill="#4fbeff"/>
            <path id="Trazado_145781" data-name="Trazado 145781" d="M270.617,356.633a.482.482,0,0,0,.45,0,.137.137,0,0,0,0-.26.511.511,0,0,0-.45,0C270.49,356.445,270.49,356.562,270.617,356.633Z" transform="translate(-270.522 -356.32)" fill="#8dd5ff"/>
          </g>
          <path id="Trazado_145782" data-name="Trazado 145782" d="M270.494,353.016v6.564a.408.408,0,0,0,.408.408h.007a.409.409,0,0,0,.411-.408v-6.564h.292v6.564a.7.7,0,0,1-.7.7H270.9a.7.7,0,0,1-.7-.7v-6.564Z" transform="translate(-270.069 -352.436)" fill="#517fa2"/>
          <path id="Trazado_145783" data-name="Trazado 145783" d="M270.513,353.016v6.564c0,.227.185.382.185,0v-6.564Z" transform="translate(-270.007 -352.436)" fill="#fff" opacity="0.2"/>
          <path id="Trazado_145784" data-name="Trazado 145784" d="M270.91,353.016v6.564c0,.227.18.382.18,0v-6.564Z" transform="translate(-269.927 -352.436)" opacity="0.3"/>
          <path id="Trazado_145785" data-name="Trazado 145785" d="M270.337,353.354a1.3,1.3,0,0,0,1.18,0,.362.362,0,0,0,0-.683,1.324,1.324,0,0,0-1.18,0A.36.36,0,0,0,270.337,353.354Zm.3-.665a.639.639,0,0,1,.582,0,.174.174,0,0,1,0,.333.639.639,0,0,1-.582,0A.175.175,0,0,1,270.637,352.689Z" transform="translate(-270.091 -352.533)" fill="#659ec9"/>
          <path id="Trazado_145786" data-name="Trazado 145786" d="M271.189,352.98a.118.118,0,0,0-.041-.03.654.654,0,0,0-.582,0,.13.13,0,0,0-.041.03c-.12-.094-.106-.227.041-.3a.639.639,0,0,1,.582,0C271.294,352.753,271.308,352.886,271.189,352.98Z" transform="translate(-270.02 -352.518)" fill="#295e87"/>
        </g>
        <path id="Trazado_145787" data-name="Trazado 145787" d="M271.9,353.472c-.367-.1-.565.055-.856.12s-.81.462-.689,1.514.653,1.863,1.043,1.936c1.424.265,1.422-1.316,1.422-2.292C272.818,353.726,272.262,353.572,271.9,353.472Z" transform="translate(-243.687 -345.928)" fill="#f0c6b4"/>
      </g>
      <g id="Grupo_87063" data-name="Grupo 87063" transform="translate(242.128 371.86)">
        <g id="Grupo_86995" data-name="Grupo 86995">
          <g id="Grupo_86994" data-name="Grupo 86994">
            <path id="Trazado_145788" data-name="Trazado 145788" d="M267,431.492l-24.869-14.358,48.671-28.1,24.871,14.358Z" transform="translate(-242.128 -363.472)" opacity="0.3"/>
            <g id="Grupo_86990" data-name="Grupo 86990" transform="translate(43.47 5.373)">
              <path id="Trazado_145789" data-name="Trazado 145789" d="M292.9,394.57V383.41l5.482,2.23.968-.557V382.3L281.87,372.216l-.964.558,7.414,7.995v11.159l-9.015-1.292-.965.557,1.777,6.569.966-.557v-1.131L299.5,406.5l.825,2.922.968-.558.622-5.18Zm5.5,8.788-17.309-9.993v-.816l9.525,2.993,5.333,5.815Z" transform="translate(-278.34 -372.216)" fill="#003552"/>
              <path id="Trazado_145790" data-name="Trazado 145790" d="M291.93,395.035V383.876l6.447,1.671v-2.777l-17.471-10.09v2.778l6.45,5.774v11.16L278.34,391.1l.622,5.9,1.155.667v-2.14l19.051,11v2.14l1.154.666.624-5.181Zm7.237,9.794-19.051-11v-.818L289.643,396l9.524,8.007Z" transform="translate(-278.34 -372.123)" fill="#00537d"/>
            </g>
            <g id="Grupo_86991" data-name="Grupo 86991" transform="translate(17.025 32.123)">
              <path id="Trazado_145791" data-name="Trazado 145791" d="M257.827,413.172v1.754l-1.517-.878V412.3Z" transform="translate(-256.31 -390.933)" fill="#1d374e"/>
              <path id="Trazado_145792" data-name="Trazado 145792" d="M293.31,394.5l1.52.877-37,21.363-1.517-.874Z" transform="translate(-256.31 -394.5)" fill="#1078ad"/>
              <path id="Trazado_145793" data-name="Trazado 145793" d="M294.577,395.23v1.754l-37,21.363v-1.754Z" transform="translate(-256.057 -394.354)" fill="#003552"/>
            </g>
            <g id="Grupo_86992" data-name="Grupo 86992" transform="translate(6.458 26.741)">
              <path id="Trazado_145794" data-name="Trazado 145794" d="M262.063,412.372V401.213l5.484,2.229.966-.558v-2.779l-17.477-10.088-.964.557,7.413,8V409.73l-9.014-1.3-.963.561,1.777,6.568.964-.558v-1.128l18.413,10.429.826,2.923.965-.556.624-5.185Zm5.493,8.789-17.308-9.992v-.82l9.527,2.99,5.333,5.817Z" transform="translate(-247.508 -390.017)" fill="#003552"/>
              <path id="Trazado_145795" data-name="Trazado 145795" d="M261.1,412.835V401.677l6.449,1.672v-2.779l-17.475-10.09v2.779l6.449,5.774v11.159l-9.013-1.29.621,5.9,1.156.666v-2.139l19.049,11v2.142l1.154.666.624-5.182Zm7.236,9.8-19.049-11v-.819l9.527,2.991,9.523,8.007Z" transform="translate(-247.508 -389.924)" fill="#00537d"/>
            </g>
            <g id="Grupo_86993" data-name="Grupo 86993">
              <path id="Trazado_145796" data-name="Trazado 145796" d="M242.128,392.773,267,407.134v-1.628l-24.869-14.358Z" transform="translate(-242.128 -363.049)" fill="#ffc654"/>
              <path id="Trazado_145797" data-name="Trazado 145797" d="M311.518,381.326l-48.673,28.1V407.8l48.673-28.1Z" transform="translate(-237.976 -365.343)" fill="#f5a52e"/>
              <path id="Trazado_145798" data-name="Trazado 145798" d="M267,410.2l-24.869-14.358,48.671-28.1L315.67,382.1Z" transform="translate(-242.128 -367.74)" fill="#ffec7a"/>
            </g>
          </g>
        </g>
        <g id="Grupo_87003" data-name="Grupo 87003" transform="translate(32.861 1.952)">
          <g id="Grupo_86996" data-name="Grupo 86996" transform="translate(0 0.442)">
            <path id="Trazado_145799" data-name="Trazado 145799" d="M278.916,383.989l-9.413-5.436,14.676-8.471,9.413,5.434Z" transform="translate(-269.503 -369.665)" fill="#0d0d0d" opacity="0.3"/>
            <path id="Trazado_145800" data-name="Trazado 145800" d="M270.155,377.249l8.684,5.013V381.4l-8.684-5.014Z" transform="translate(-269.372 -368.401)" fill="#a7a9ac"/>
            <path id="Trazado_145801" data-name="Trazado 145801" d="M291.227,374.772l-13.838,7.987V381.9l13.838-7.988Z" transform="translate(-267.922 -368.897)" fill="#939598"/>
            <path id="Trazado_145802" data-name="Trazado 145802" d="M278.84,382.736l-8.684-5.014,13.835-7.988,8.687,5.014Z" transform="translate(-269.372 -369.734)" fill="#bcbec0"/>
            <path id="Trazado_145803" data-name="Trazado 145803" d="M291.461,374.655l-.539.312-7.184-4.145-12.295,7.1-.539-.312,12.834-7.416Z" transform="translate(-269.222 -369.641)" fill="#939598"/>
            <path id="Trazado_145804" data-name="Trazado 145804" d="M290.832,374.863l-12.3,7.1-7.181-4.145,12.295-7.1Z" transform="translate(-269.132 -369.537)" fill="#a7a9ac"/>
          </g>
          <g id="Grupo_86998" data-name="Grupo 86998" transform="translate(10.883)">
            <path id="Trazado_145805" data-name="Trazado 145805" d="M280.473,374.56a2.669,2.669,0,0,1-1.325-.318.87.87,0,0,1,0-1.64,2.914,2.914,0,0,1,2.651,0,.871.871,0,0,1,0,1.639A2.676,2.676,0,0,1,280.473,374.56Z" transform="translate(-278.569 -368.781)" fill="#0d0d0d" opacity="0.3"/>
            <path id="Trazado_145806" data-name="Trazado 145806" d="M278.741,370.281l.381-.495.544-.246.674-.1h.495l.417.157.362.131.379.313.159.347v3.649l-.343.51-.618.319-.667.08-.638-.046-.442-.108-.354-.226-.215-.222-.135-.307Z" transform="translate(-278.534 -369.351)" fill="#659ec9" opacity="0.7"/>
            <g id="Grupo_86997" data-name="Grupo 86997" transform="translate(0.439 1.354)">
              <path id="Trazado_145807" data-name="Trazado 145807" d="M280.4,374.344a2.1,2.1,0,0,1-1.017-.242.763.763,0,0,1-.448-.633v-2.245h2.928v2.245a.766.766,0,0,1-.444.633A2.117,2.117,0,0,1,280.4,374.344Z" transform="translate(-278.935 -370.348)" fill="#70ab44"/>
              <path id="Trazado_145808" data-name="Trazado 145808" d="M280.4,372.247a2.048,2.048,0,0,1-1.017-.245.668.668,0,0,1,0-1.262,2.228,2.228,0,0,1,2.036,0,.67.67,0,0,1,0,1.262A2.058,2.058,0,0,1,280.4,372.247Z" transform="translate(-278.935 -370.494)" fill="#9de368"/>
            </g>
            <path id="Trazado_145809" data-name="Trazado 145809" d="M279.724,374.536l-.488-.185v-3.405l.488.137Z" transform="translate(-278.435 -369.049)" fill="#fff" opacity="0.2"/>
            <path id="Trazado_145810" data-name="Trazado 145810" d="M280.629,374.64l.8-.375v-3.511l-.8.367Z" transform="translate(-278.156 -369.088)" fill="#0d0d0d" opacity="0.2"/>
            <path id="Trazado_145811" data-name="Trazado 145811" d="M282.241,370.436a.93.93,0,0,0-.54-.771,2.749,2.749,0,0,0-2.493,0,.928.928,0,0,0-.543.771v3.528a.933.933,0,0,0,.543.773,2.756,2.756,0,0,0,2.492,0,.934.934,0,0,0,.541-.773v-3.528Zm-3.4,0a.767.767,0,0,1,.451-.615,2.588,2.588,0,0,1,2.312,0,.645.645,0,0,1,0,1.23,2.568,2.568,0,0,1-2.312,0,.763.763,0,0,1-.451-.613v0Zm3.215,3.528a.764.764,0,0,1-.451.617,2.563,2.563,0,0,1-2.312,0,.769.769,0,0,1-.451-.617v-3.056a1.308,1.308,0,0,0,.363.3,2.737,2.737,0,0,0,2.492,0,1.262,1.262,0,0,0,.36-.3Z" transform="translate(-278.55 -369.366)" fill="#517fa2"/>
          </g>
          <g id="Grupo_87000" data-name="Grupo 87000" transform="translate(6.734 2.461)">
            <path id="Trazado_145812" data-name="Trazado 145812" d="M277.014,376.609a2.685,2.685,0,0,1-1.323-.316.871.871,0,0,1,0-1.641,2.9,2.9,0,0,1,2.648,0,.871.871,0,0,1,0,1.64A2.7,2.7,0,0,1,277.014,376.609Z" transform="translate(-275.113 -370.831)" fill="#0d0d0d" opacity="0.3"/>
            <path id="Trazado_145813" data-name="Trazado 145813" d="M275.283,372.33l.381-.493.545-.246.673-.1h.495l.417.156.36.13.381.312.161.351v3.649l-.345.509-.619.319-.667.078-.635-.045-.442-.108-.355-.228-.214-.218-.135-.308Z" transform="translate(-275.079 -371.401)" fill="#659ec9" opacity="0.7"/>
            <g id="Grupo_86999" data-name="Grupo 86999" transform="translate(0.437 1.354)">
              <path id="Trazado_145814" data-name="Trazado 145814" d="M276.942,376.394a2.073,2.073,0,0,1-1.016-.244.759.759,0,0,1-.449-.631v-2.246h2.929v2.246a.765.765,0,0,1-.444.631A2.085,2.085,0,0,1,276.942,376.394Z" transform="translate(-275.477 -372.398)" fill="#ffc654"/>
              <path id="Trazado_145815" data-name="Trazado 145815" d="M276.942,374.3a2.041,2.041,0,0,1-1.016-.245.668.668,0,0,1,0-1.263,2.041,2.041,0,0,1,1.016-.245,2.069,2.069,0,0,1,1.02.245.671.671,0,0,1,0,1.263A2.069,2.069,0,0,1,276.942,374.3Z" transform="translate(-275.477 -372.544)" fill="#ffec7a"/>
            </g>
            <path id="Trazado_145816" data-name="Trazado 145816" d="M276.267,376.586l-.49-.185V373l.49.136Z" transform="translate(-274.98 -371.1)" fill="#fff" opacity="0.2"/>
            <path id="Trazado_145817" data-name="Trazado 145817" d="M277.171,376.69l.8-.375V372.8l-.8.365Z" transform="translate(-274.701 -371.138)" fill="#0d0d0d" opacity="0.2"/>
            <path id="Trazado_145818" data-name="Trazado 145818" d="M278.783,372.486a.929.929,0,0,0-.54-.771,2.746,2.746,0,0,0-2.492,0,.924.924,0,0,0-.543.771v3.528a.931.931,0,0,0,.543.773,2.764,2.764,0,0,0,2.491,0,.934.934,0,0,0,.541-.773v-3.528Zm-3.4,0a.76.76,0,0,1,.453-.613,2.556,2.556,0,0,1,2.311,0,.642.642,0,0,1,0,1.227,2.536,2.536,0,0,1-2.311,0,.754.754,0,0,1-.453-.611v0Zm3.216,3.528a.764.764,0,0,1-.453.617,2.568,2.568,0,0,1-2.311,0,.771.771,0,0,1-.453-.617v-3.055a1.3,1.3,0,0,0,.364.3,2.734,2.734,0,0,0,2.491,0,1.25,1.25,0,0,0,.361-.3Z" transform="translate(-275.094 -371.416)" fill="#517fa2"/>
          </g>
          <g id="Grupo_87002" data-name="Grupo 87002" transform="translate(16.197 1.287)">
            <path id="Trazado_145819" data-name="Trazado 145819" d="M284.9,375.632a2.687,2.687,0,0,1-1.322-.318.873.873,0,0,1,0-1.642,2.91,2.91,0,0,1,2.646,0,.871.871,0,0,1,0,1.64A2.7,2.7,0,0,1,284.9,375.632Z" transform="translate(-282.996 -369.853)" fill="#0d0d0d" opacity="0.3"/>
            <path id="Trazado_145820" data-name="Trazado 145820" d="M283.163,371.352l.381-.5.545-.245.674-.1h.495l.417.158.362.129.379.312.16.35v3.648l-.344.509-.617.319-.668.081-.637-.046-.442-.109-.356-.227-.213-.219-.136-.307Z" transform="translate(-282.963 -370.423)" fill="#659ec9" opacity="0.7"/>
            <g id="Grupo_87001" data-name="Grupo 87001" transform="translate(0.437 1.353)">
              <path id="Trazado_145821" data-name="Trazado 145821" d="M284.822,375.416a2.084,2.084,0,0,1-1.018-.245.756.756,0,0,1-.444-.63V372.3h2.924v2.246a.756.756,0,0,1-.443.63A2.088,2.088,0,0,1,284.822,375.416Z" transform="translate(-283.36 -371.419)" fill="#ff6669"/>
              <path id="Trazado_145822" data-name="Trazado 145822" d="M284.822,373.318a2.048,2.048,0,0,1-1.018-.247.668.668,0,0,1,0-1.259,2.231,2.231,0,0,1,2.037,0,.669.669,0,0,1,0,1.259A2.049,2.049,0,0,1,284.822,373.318Z" transform="translate(-283.36 -371.565)" fill="#ff8d8f"/>
            </g>
            <path id="Trazado_145823" data-name="Trazado 145823" d="M284.147,375.609l-.489-.186v-3.405l.489.137Z" transform="translate(-282.863 -370.122)" fill="#fff" opacity="0.2"/>
            <path id="Trazado_145824" data-name="Trazado 145824" d="M285.053,375.713l.8-.376v-3.511l-.8.367Z" transform="translate(-282.584 -370.16)" fill="#0d0d0d" opacity="0.2"/>
            <path id="Trazado_145825" data-name="Trazado 145825" d="M286.665,371.505a.927.927,0,0,0-.543-.769,2.759,2.759,0,0,0-2.493,0,.93.93,0,0,0-.541.769v3.53a.935.935,0,0,0,.541.772,2.767,2.767,0,0,0,2.492,0,.931.931,0,0,0,.544-.772v-3.53Zm-3.4,0a.768.768,0,0,1,.454-.613,2.6,2.6,0,0,1,2.312,0,.645.645,0,0,1,0,1.23,2.558,2.558,0,0,1-2.312,0,.762.762,0,0,1-.454-.615v0Zm3.217,3.53a.764.764,0,0,1-.451.616,2.571,2.571,0,0,1-2.312,0,.77.77,0,0,1-.454-.616v-3.056a1.324,1.324,0,0,0,.363.3,2.746,2.746,0,0,0,2.492,0,1.225,1.225,0,0,0,.363-.3Z" transform="translate(-282.978 -370.438)" fill="#517fa2"/>
          </g>
        </g>
        <g id="Grupo_87021" data-name="Grupo 87021" transform="translate(10.195 19.608)">
          <path id="Trazado_145826" data-name="Trazado 145826" d="M256.8,389.305l-6.175,3.563,1.252.725,6.176-3.565Z" transform="translate(-250.621 -383.026)" fill="#0d0d0d" opacity="0.3"/>
          <g id="Grupo_87004" data-name="Grupo 87004" transform="translate(0.04 1.198)">
            <path id="Trazado_145827" data-name="Trazado 145827" d="M250.911,388.189v.292l-.257-.147v-.292Z" transform="translate(-250.654 -384.477)" fill="#00537d"/>
            <path id="Trazado_145828" data-name="Trazado 145828" d="M256.831,385.072l.253.148-6.173,3.565-.257-.146Z" transform="translate(-250.654 -385.072)" fill="#1078ad"/>
            <path id="Trazado_145829" data-name="Trazado 145829" d="M257.041,385.2v.292l-6.173,3.565v-.292Z" transform="translate(-250.611 -385.048)" fill="#003552"/>
          </g>
          <g id="Grupo_87006" data-name="Grupo 87006" transform="translate(3.989 0.817)">
            <g id="Grupo_87005" data-name="Grupo 87005" transform="translate(0.443 2.167)">
              <path id="Trazado_145830" data-name="Trazado 145830" d="M254.317,386.693v3.154a.268.268,0,0,0,.269.269h0a.268.268,0,0,0,.269-.269v-3.154Z" transform="translate(-254.313 -386.534)" fill="#003552"/>
              <path id="Trazado_145831" data-name="Trazado 145831" d="M254.393,386.832a.43.43,0,0,0,.39,0,.118.118,0,0,0,0-.224.423.423,0,0,0-.39,0A.119.119,0,0,0,254.393,386.832Z" transform="translate(-254.313 -386.56)" fill="#00537d"/>
            </g>
            <path id="Trazado_145832" data-name="Trazado 145832" d="M254.292,385.172v5.007a.352.352,0,0,0,.351.352h.006a.354.354,0,0,0,.352-.352v-5.007h.253v5.007a.606.606,0,0,1-.605.6h-.006a.608.608,0,0,1-.606-.6v-5.007Z" transform="translate(-253.926 -384.672)" fill="#517fa2"/>
            <path id="Trazado_145833" data-name="Trazado 145833" d="M254.306,385.172v5.007c0,.192.158.327.158,0v-5.007Z" transform="translate(-253.871 -384.672)" fill="#fff" opacity="0.2"/>
            <path id="Trazado_145834" data-name="Trazado 145834" d="M254.647,385.172v5.007c0,.192.158.327.158,0v-5.007Z" transform="translate(-253.803 -384.672)" opacity="0.3"/>
            <path id="Trazado_145835" data-name="Trazado 145835" d="M254.153,385.463a1.134,1.134,0,0,0,1.018,0,.311.311,0,0,0,0-.588,1.142,1.142,0,0,0-1.018,0A.311.311,0,0,0,254.153,385.463Zm.259-.575a.555.555,0,0,1,.5,0,.154.154,0,0,1,0,.291.562.562,0,0,1-.5,0A.154.154,0,0,1,254.412,384.888Z" transform="translate(-253.944 -384.755)" fill="#659ec9"/>
            <path id="Trazado_145836" data-name="Trazado 145836" d="M254.89,385.14c-.011-.007-.023-.017-.036-.024a.562.562,0,0,0-.5,0,.135.135,0,0,0-.034.024c-.1-.078-.091-.191.034-.264a.555.555,0,0,1,.5,0C254.978,384.949,254.99,385.062,254.89,385.14Z" transform="translate(-253.883 -384.743)" fill="#295e87"/>
          </g>
          <g id="Grupo_87008" data-name="Grupo 87008" transform="translate(2.516 1.667)">
            <g id="Grupo_87007" data-name="Grupo 87007" transform="translate(0.444 2.166)">
              <path id="Trazado_145837" data-name="Trazado 145837" d="M253.09,387.4v3.155a.269.269,0,0,0,.268.269h0a.271.271,0,0,0,.271-.269V387.4Z" transform="translate(-253.086 -387.241)" fill="#295e87"/>
              <path id="Trazado_145838" data-name="Trazado 145838" d="M253.165,387.539a.425.425,0,0,0,.391,0c.11-.062.11-.163,0-.226a.44.44,0,0,0-.391,0A.12.12,0,0,0,253.165,387.539Z" transform="translate(-253.087 -387.268)" fill="#517fa2"/>
            </g>
            <path id="Trazado_145839" data-name="Trazado 145839" d="M253.063,385.878v5.006a.349.349,0,0,0,.353.351h.006a.349.349,0,0,0,.35-.351v-5.006h.256v5.006a.609.609,0,0,1-.606.607h-.006a.608.608,0,0,1-.606-.607v-5.006Z" transform="translate(-252.699 -385.38)" fill="#517fa2"/>
            <path id="Trazado_145840" data-name="Trazado 145840" d="M253.079,385.878v5.006c0,.2.16.331.16,0v-5.006Z" transform="translate(-252.645 -385.38)" fill="#fff" opacity="0.2"/>
            <path id="Trazado_145841" data-name="Trazado 145841" d="M253.421,385.878v5.006c0,.2.16.331.16,0v-5.006Z" transform="translate(-252.576 -385.38)" opacity="0.3"/>
            <path id="Trazado_145842" data-name="Trazado 145842" d="M252.927,386.17a1.129,1.129,0,0,0,1.016,0,.308.308,0,0,0,0-.585,1.114,1.114,0,0,0-1.016,0A.309.309,0,0,0,252.927,386.17Zm.259-.575a.562.562,0,0,1,.5,0,.154.154,0,0,1,0,.291.562.562,0,0,1-.5,0A.154.154,0,0,1,253.186,385.6Z" transform="translate(-252.717 -385.463)" fill="#659ec9"/>
            <path id="Trazado_145843" data-name="Trazado 145843" d="M253.666,385.847c-.013-.008-.025-.018-.037-.024a.547.547,0,0,0-.5,0,.327.327,0,0,0-.037.024c-.1-.078-.088-.192.037-.264a.562.562,0,0,1,.5,0C253.753,385.655,253.765,385.769,253.666,385.847Z" transform="translate(-252.656 -385.451)" fill="#295e87"/>
          </g>
          <g id="Grupo_87010" data-name="Grupo 87010" transform="translate(0.995 2.546)">
            <g id="Grupo_87009" data-name="Grupo 87009" transform="translate(0.444 2.167)">
              <path id="Trazado_145844" data-name="Trazado 145844" d="M251.82,388.134v3.156a.27.27,0,0,0,.27.266h.007a.267.267,0,0,0,.266-.266v-3.156Z" transform="translate(-251.819 -387.975)" fill="#8dd5ff"/>
              <path id="Trazado_145845" data-name="Trazado 145845" d="M251.9,388.273a.427.427,0,0,0,.389,0,.118.118,0,0,0,0-.224.42.42,0,0,0-.389,0A.118.118,0,0,0,251.9,388.273Z" transform="translate(-251.819 -388.001)" fill="#c7f2ff"/>
            </g>
            <path id="Trazado_145846" data-name="Trazado 145846" d="M251.8,386.612v5a.349.349,0,0,0,.348.353h.008a.35.35,0,0,0,.352-.353v-5h.255v5a.607.607,0,0,1-.606.607h-.008a.607.607,0,0,1-.6-.607v-5Z" transform="translate(-251.431 -386.112)" fill="#517fa2"/>
            <path id="Trazado_145847" data-name="Trazado 145847" d="M251.811,386.612v5c0,.2.16.333.16,0v-5Z" transform="translate(-251.377 -386.112)" fill="#fff" opacity="0.2"/>
            <path id="Trazado_145848" data-name="Trazado 145848" d="M252.153,386.612v5c0,.2.16.333.16,0v-5Z" transform="translate(-251.309 -386.112)" opacity="0.3"/>
            <path id="Trazado_145849" data-name="Trazado 145849" d="M251.66,386.9a1.126,1.126,0,0,0,1.014,0,.31.31,0,0,0,0-.587,1.119,1.119,0,0,0-1.014,0A.31.31,0,0,0,251.66,386.9Zm.258-.575a.562.562,0,0,1,.5,0c.138.079.138.208,0,.289a.562.562,0,0,1-.5,0A.154.154,0,0,1,251.918,386.329Z" transform="translate(-251.45 -386.196)" fill="#659ec9"/>
            <path id="Trazado_145850" data-name="Trazado 145850" d="M252.4,386.58l-.036-.024a.562.562,0,0,0-.5,0c-.012.01-.026.016-.037.024-.1-.077-.09-.192.037-.263a.562.562,0,0,1,.5,0C252.483,386.388,252.5,386.5,252.4,386.58Z" transform="translate(-251.389 -386.183)" fill="#295e87"/>
          </g>
          <g id="Grupo_87011" data-name="Grupo 87011" transform="translate(5.92 5.986)">
            <path id="Trazado_145851" data-name="Trazado 145851" d="M256.6,389.811v.293l.254-.148v-.292Z" transform="translate(-255.343 -388.941)" fill="#003552"/>
            <path id="Trazado_145852" data-name="Trazado 145852" d="M255.807,389.062l-.254.145,1.253.724.254-.146Z" transform="translate(-255.553 -389.062)" fill="#1078ad"/>
            <path id="Trazado_145853" data-name="Trazado 145853" d="M255.553,389.183v.291l1.253.727v-.293Z" transform="translate(-255.553 -389.037)" fill="#00537d"/>
          </g>
          <g id="Grupo_87012" data-name="Grupo 87012" transform="translate(6.438 1.764)">
            <path id="Trazado_145854" data-name="Trazado 145854" d="M256.239,385.837l.252-.147-.252-.147-.254.147Z" transform="translate(-255.984 -385.544)" fill="#1d374e"/>
            <path id="Trazado_145855" data-name="Trazado 145855" d="M255.984,390.185l.254.144v-4.517l-.254-.147Z" transform="translate(-255.984 -385.519)" fill="#00537d"/>
            <path id="Trazado_145856" data-name="Trazado 145856" d="M256.2,390.329l.252-.144v-4.519l-.252.147Z" transform="translate(-255.942 -385.519)" fill="#003552"/>
          </g>
          <g id="Grupo_87013" data-name="Grupo 87013" transform="translate(6.217 1.345)">
            <path id="Trazado_145857" data-name="Trazado 145857" d="M256.5,385.746v.292l.253-.145V385.6Z" transform="translate(-255.659 -385.114)" fill="#1d374e"/>
            <path id="Trazado_145858" data-name="Trazado 145858" d="M256.053,385.2l-.253.147.842.485.253-.147Z" transform="translate(-255.8 -385.195)" fill="#1078ad"/>
            <path id="Trazado_145859" data-name="Trazado 145859" d="M255.8,385.317v.292l.842.485V385.8Z" transform="translate(-255.8 -385.171)" fill="#00537d"/>
          </g>
          <g id="Grupo_87015" data-name="Grupo 87015" transform="translate(5.418)">
            <g id="Grupo_87014" data-name="Grupo 87014" transform="translate(0.444 2.166)">
              <path id="Trazado_145860" data-name="Trazado 145860" d="M255.507,386.012v3.155a.268.268,0,0,0,.269.268h.006a.269.269,0,0,0,.268-.268v-3.155Z" transform="translate(-255.504 -385.852)" fill="#4fbeff"/>
              <path id="Trazado_145861" data-name="Trazado 145861" d="M255.586,386.15a.422.422,0,0,0,.387,0c.11-.061.11-.163,0-.224a.422.422,0,0,0-.387,0A.118.118,0,0,0,255.586,386.15Z" transform="translate(-255.505 -385.879)" fill="#8dd5ff"/>
            </g>
            <path id="Trazado_145862" data-name="Trazado 145862" d="M255.482,384.49V389.5a.351.351,0,0,0,.352.352h.006a.352.352,0,0,0,.352-.352V384.49h.254V389.5a.608.608,0,0,1-.606.607h-.006a.608.608,0,0,1-.606-.607V384.49Z" transform="translate(-255.116 -383.991)" fill="#517fa2"/>
            <path id="Trazado_145863" data-name="Trazado 145863" d="M255.5,384.49V389.5c0,.193.16.33.16,0V384.49Z" transform="translate(-255.062 -383.991)" fill="#fff" opacity="0.2"/>
            <path id="Trazado_145864" data-name="Trazado 145864" d="M255.84,384.49V389.5c0,.193.157.33.157,0V384.49Z" transform="translate(-254.993 -383.991)" opacity="0.3"/>
            <path id="Trazado_145865" data-name="Trazado 145865" d="M255.345,384.781a1.121,1.121,0,0,0,1.016,0,.309.309,0,0,0,0-.586,1.129,1.129,0,0,0-1.016,0A.309.309,0,0,0,255.345,384.781Zm.258-.575a.57.57,0,0,1,.5,0c.139.079.139.209,0,.291a.562.562,0,0,1-.5,0A.154.154,0,0,1,255.6,384.206Z" transform="translate(-255.135 -384.074)" fill="#659ec9"/>
            <path id="Trazado_145866" data-name="Trazado 145866" d="M256.083,384.459l-.037-.024a.547.547,0,0,0-.5,0c-.013.008-.024.014-.037.024-.1-.079-.088-.192.037-.265a.57.57,0,0,1,.5,0C256.173,384.267,256.183,384.38,256.083,384.459Z" transform="translate(-255.074 -384.062)" fill="#295e87"/>
          </g>
          <g id="Grupo_87016" data-name="Grupo 87016" transform="translate(0.76 6.43)">
            <path id="Trazado_145867" data-name="Trazado 145867" d="M251.506,392.314v.293l-.252-.148v-.292Z" transform="translate(-251.254 -388.882)" fill="#1d374e"/>
            <path id="Trazado_145868" data-name="Trazado 145868" d="M256.932,389.431l.254.144-5.681,3.288-.252-.146Z" transform="translate(-251.254 -389.431)" fill="#1078ad"/>
            <path id="Trazado_145869" data-name="Trazado 145869" d="M257.145,389.551v.293l-5.681,3.288v-.293Z" transform="translate(-251.212 -389.407)" fill="#003552"/>
          </g>
          <g id="Grupo_87017" data-name="Grupo 87017" transform="translate(0.007 9.407)">
            <path id="Trazado_145870" data-name="Trazado 145870" d="M251.671,392.661v.3l.252-.149v-.292Z" transform="translate(-250.418 -391.79)" fill="#003552"/>
            <path id="Trazado_145871" data-name="Trazado 145871" d="M250.88,391.911l-.253.147,1.253.724.252-.145Z" transform="translate(-250.627 -391.911)" fill="#1078ad"/>
            <path id="Trazado_145872" data-name="Trazado 145872" d="M250.627,392.033v.294l1.253.726v-.3Z" transform="translate(-250.627 -391.887)" fill="#00537d"/>
          </g>
          <g id="Grupo_87018" data-name="Grupo 87018" transform="translate(0.507 5.179)">
            <path id="Trazado_145873" data-name="Trazado 145873" d="M251.3,388.681l.252-.146-.252-.145-.253.145Z" transform="translate(-251.043 -388.389)" fill="#1d374e"/>
            <path id="Trazado_145874" data-name="Trazado 145874" d="M251.043,393.03l.253.144v-4.518l-.253-.146Z" transform="translate(-251.043 -388.364)" fill="#00537d"/>
            <path id="Trazado_145875" data-name="Trazado 145875" d="M251.254,393.174l.252-.145V388.51l-.252.146Z" transform="translate(-251.001 -388.364)" fill="#003552"/>
          </g>
          <g id="Grupo_87019" data-name="Grupo 87019" transform="translate(0.297 4.764)">
            <path id="Trazado_145876" data-name="Trazado 145876" d="M251.568,388.594v.293l.253-.147v-.292Z" transform="translate(-250.728 -387.962)" fill="#1d374e"/>
            <path id="Trazado_145877" data-name="Trazado 145877" d="M251.119,388.043l-.251.146.841.485.253-.145Z" transform="translate(-250.868 -388.043)" fill="#1078ad"/>
            <path id="Trazado_145878" data-name="Trazado 145878" d="M250.868,388.165v.292l.841.487v-.293Z" transform="translate(-250.868 -388.019)" fill="#00537d"/>
          </g>
          <g id="Grupo_87020" data-name="Grupo 87020" transform="translate(1.137 1.831)">
            <path id="Trazado_145879" data-name="Trazado 145879" d="M251.822,388.716v.293l-.253-.146v-.293Z" transform="translate(-251.568 -385.004)" fill="#00537d"/>
            <path id="Trazado_145880" data-name="Trazado 145880" d="M257.743,385.6l.254.147-6.176,3.565-.253-.147Z" transform="translate(-251.568 -385.6)" fill="#1078ad"/>
            <path id="Trazado_145881" data-name="Trazado 145881" d="M257.955,385.722v.292l-6.176,3.566v-.293Z" transform="translate(-251.526 -385.575)" fill="#003552"/>
          </g>
        </g>
        <g id="Grupo_87039" data-name="Grupo 87039" transform="translate(15.028 22.012)">
          <path id="Trazado_145882" data-name="Trazado 145882" d="M260.822,391.309l-6.175,3.563,1.256.724,6.174-3.564Z" transform="translate(-254.647 -385.029)" fill="#0d0d0d" opacity="0.3"/>
          <g id="Grupo_87022" data-name="Grupo 87022" transform="translate(0.043 1.201)">
            <path id="Trazado_145883" data-name="Trazado 145883" d="M254.937,390.192v.293l-.254-.145v-.293Z" transform="translate(-254.683 -386.483)" fill="#00537d"/>
            <path id="Trazado_145884" data-name="Trazado 145884" d="M260.857,387.078l.253.145-6.173,3.564-.254-.145Z" transform="translate(-254.683 -387.078)" fill="#1078ad"/>
            <path id="Trazado_145885" data-name="Trazado 145885" d="M261.068,387.2v.293l-6.173,3.564v-.293Z" transform="translate(-254.64 -387.054)" fill="#003552"/>
          </g>
          <g id="Grupo_87024" data-name="Grupo 87024" transform="translate(3.989 0.819)">
            <g id="Grupo_87023" data-name="Grupo 87023" transform="translate(0.444 2.168)">
              <path id="Trazado_145886" data-name="Trazado 145886" d="M258.343,388.7v3.154a.269.269,0,0,0,.269.27h.006a.271.271,0,0,0,.27-.27V388.7Z" transform="translate(-258.34 -388.539)" fill="#003552"/>
              <path id="Trazado_145887" data-name="Trazado 145887" d="M258.42,388.836a.43.43,0,0,0,.39,0c.109-.062.109-.163,0-.224a.437.437,0,0,0-.39,0A.119.119,0,0,0,258.42,388.836Z" transform="translate(-258.34 -388.566)" fill="#00537d"/>
            </g>
            <path id="Trazado_145888" data-name="Trazado 145888" d="M258.319,387.176v5.007a.35.35,0,0,0,.349.352h.008a.352.352,0,0,0,.352-.352v-5.007h.252v5.007a.605.605,0,0,1-.6.605h-.008a.606.606,0,0,1-.605-.605v-5.007Z" transform="translate(-257.952 -386.676)" fill="#517fa2"/>
            <path id="Trazado_145889" data-name="Trazado 145889" d="M258.333,387.176v5.007c0,.194.16.328.16,0v-5.007Z" transform="translate(-257.898 -386.676)" fill="#fff" opacity="0.2"/>
            <path id="Trazado_145890" data-name="Trazado 145890" d="M258.674,387.176v5.007c0,.194.16.328.16,0v-5.007Z" transform="translate(-257.829 -386.676)" opacity="0.3"/>
            <path id="Trazado_145891" data-name="Trazado 145891" d="M258.18,387.467a1.124,1.124,0,0,0,1.017,0c.282-.162.282-.421,0-.586a1.124,1.124,0,0,0-1.017,0A.309.309,0,0,0,258.18,387.467Zm.26-.575a.554.554,0,0,1,.5,0,.153.153,0,0,1,0,.291.562.562,0,0,1-.5,0A.154.154,0,0,1,258.441,386.892Z" transform="translate(-257.97 -386.76)" fill="#659ec9"/>
            <path id="Trazado_145892" data-name="Trazado 145892" d="M258.917,387.145a.3.3,0,0,0-.038-.025.554.554,0,0,0-.5,0,.347.347,0,0,0-.036.025c-.1-.082-.089-.192.036-.265a.554.554,0,0,1,.5,0C259.006,386.953,259.017,387.064,258.917,387.145Z" transform="translate(-257.909 -386.748)" fill="#295e87"/>
          </g>
          <g id="Grupo_87026" data-name="Grupo 87026" transform="translate(2.517 1.668)">
            <g id="Grupo_87025" data-name="Grupo 87025" transform="translate(0.445 2.166)">
              <path id="Trazado_145893" data-name="Trazado 145893" d="M257.115,389.4v3.155a.27.27,0,0,0,.27.269h.006a.267.267,0,0,0,.268-.269V389.4Z" transform="translate(-257.114 -389.244)" fill="#295e87"/>
              <path id="Trazado_145894" data-name="Trazado 145894" d="M257.2,389.545a.432.432,0,0,0,.388,0c.11-.064.11-.164,0-.227a.425.425,0,0,0-.388,0A.12.12,0,0,0,257.2,389.545Z" transform="translate(-257.115 -389.271)" fill="#517fa2"/>
            </g>
            <path id="Trazado_145895" data-name="Trazado 145895" d="M257.09,387.883v5.006a.354.354,0,0,0,.352.353h.007a.352.352,0,0,0,.352-.353v-5.006h.254v5.006a.608.608,0,0,1-.606.606h-.007a.607.607,0,0,1-.6-.606v-5.006Z" transform="translate(-256.725 -387.383)" fill="#517fa2"/>
            <path id="Trazado_145896" data-name="Trazado 145896" d="M257.106,387.883v5.006c0,.193.16.33.16,0v-5.006Z" transform="translate(-256.671 -387.383)" fill="#fff" opacity="0.2"/>
            <path id="Trazado_145897" data-name="Trazado 145897" d="M257.448,387.883v5.006c0,.193.16.33.16,0v-5.006Z" transform="translate(-256.603 -387.383)" opacity="0.3"/>
            <path id="Trazado_145898" data-name="Trazado 145898" d="M256.955,388.177a1.144,1.144,0,0,0,1.016,0,.311.311,0,0,0,0-.589,1.129,1.129,0,0,0-1.016,0A.311.311,0,0,0,256.955,388.177Zm.258-.577a.567.567,0,0,1,.5,0,.152.152,0,0,1,0,.289.552.552,0,0,1-.5,0A.152.152,0,0,1,257.213,387.6Z" transform="translate(-256.744 -387.467)" fill="#659ec9"/>
            <path id="Trazado_145899" data-name="Trazado 145899" d="M257.692,387.851c-.013-.007-.024-.018-.037-.024a.552.552,0,0,0-.5,0,.413.413,0,0,0-.038.024c-.1-.079-.088-.192.038-.264a.567.567,0,0,1,.5,0C257.78,387.659,257.794,387.772,257.692,387.851Z" transform="translate(-256.683 -387.454)" fill="#295e87"/>
          </g>
          <g id="Grupo_87028" data-name="Grupo 87028" transform="translate(0.995 2.549)">
            <g id="Grupo_87027" data-name="Grupo 87027" transform="translate(0.444 2.168)">
              <path id="Trazado_145900" data-name="Trazado 145900" d="M255.848,390.139v3.156a.269.269,0,0,0,.269.266h0a.268.268,0,0,0,.27-.266v-3.156Z" transform="translate(-255.845 -389.98)" fill="#8dd5ff"/>
              <path id="Trazado_145901" data-name="Trazado 145901" d="M255.928,390.277a.42.42,0,0,0,.389,0,.119.119,0,0,0,0-.224.435.435,0,0,0-.389,0A.118.118,0,0,0,255.928,390.277Z" transform="translate(-255.846 -390.007)" fill="#c7f2ff"/>
            </g>
            <path id="Trazado_145902" data-name="Trazado 145902" d="M255.822,388.616v5.007a.35.35,0,0,0,.351.351h.007a.35.35,0,0,0,.353-.351v-5.007h.253v5.007a.607.607,0,0,1-.606.606h-.007a.609.609,0,0,1-.605-.606v-5.007Z" transform="translate(-255.457 -388.118)" fill="#517fa2"/>
            <path id="Trazado_145903" data-name="Trazado 145903" d="M255.839,388.616v5.007c0,.2.158.331.158,0v-5.007Z" transform="translate(-255.403 -388.118)" fill="#fff" opacity="0.2"/>
            <path id="Trazado_145904" data-name="Trazado 145904" d="M256.18,388.616v5.007c0,.2.16.331.16,0v-5.007Z" transform="translate(-255.335 -388.118)" opacity="0.3"/>
            <path id="Trazado_145905" data-name="Trazado 145905" d="M255.687,388.908a1.122,1.122,0,0,0,1.016,0,.309.309,0,0,0,0-.586,1.121,1.121,0,0,0-1.016,0A.309.309,0,0,0,255.687,388.908Zm.26-.576a.562.562,0,0,1,.5,0,.155.155,0,0,1,0,.292.562.562,0,0,1-.5,0C255.807,388.542,255.807,388.414,255.948,388.332Z" transform="translate(-255.476 -388.201)" fill="#659ec9"/>
            <path id="Trazado_145906" data-name="Trazado 145906" d="M256.422,388.585a.144.144,0,0,0-.036-.023.54.54,0,0,0-.5,0,.2.2,0,0,0-.04.023c-.1-.079-.086-.192.04-.265a.562.562,0,0,1,.5,0C256.511,388.393,256.522,388.506,256.422,388.585Z" transform="translate(-255.415 -388.189)" fill="#295e87"/>
          </g>
          <g id="Grupo_87029" data-name="Grupo 87029" transform="translate(5.921 5.987)">
            <path id="Trazado_145907" data-name="Trazado 145907" d="M260.622,391.814v.292l.257-.147v-.292Z" transform="translate(-259.37 -390.944)" fill="#003552"/>
            <path id="Trazado_145908" data-name="Trazado 145908" d="M259.833,391.065l-.254.146,1.252.724.257-.146Z" transform="translate(-259.579 -391.065)" fill="#1078ad"/>
            <path id="Trazado_145909" data-name="Trazado 145909" d="M259.579,391.187v.291l1.252.726v-.292Z" transform="translate(-259.579 -391.04)" fill="#00537d"/>
          </g>
          <g id="Grupo_87030" data-name="Grupo 87030" transform="translate(6.44 1.766)">
            <path id="Trazado_145910" data-name="Trazado 145910" d="M260.264,387.841l.253-.145-.253-.147-.252.147Z" transform="translate(-260.012 -387.549)" fill="#1d374e"/>
            <path id="Trazado_145911" data-name="Trazado 145911" d="M260.012,392.19l.252.144v-4.518l-.252-.145Z" transform="translate(-260.012 -387.524)" fill="#00537d"/>
            <path id="Trazado_145912" data-name="Trazado 145912" d="M260.222,392.334l.253-.145v-4.518l-.253.145Z" transform="translate(-259.97 -387.524)" fill="#003552"/>
          </g>
          <g id="Grupo_87031" data-name="Grupo 87031" transform="translate(6.217 1.347)">
            <path id="Trazado_145913" data-name="Trazado 145913" d="M260.527,387.752v.291l.254-.145V387.6Z" transform="translate(-259.686 -387.118)" fill="#1d374e"/>
            <path id="Trazado_145914" data-name="Trazado 145914" d="M260.079,387.2l-.253.145.842.489.254-.149Z" transform="translate(-259.826 -387.199)" fill="#1078ad"/>
            <path id="Trazado_145915" data-name="Trazado 145915" d="M259.826,387.32v.292l.842.488v-.291Z" transform="translate(-259.826 -387.175)" fill="#00537d"/>
          </g>
          <g id="Grupo_87033" data-name="Grupo 87033" transform="translate(5.42)">
            <g id="Grupo_87032" data-name="Grupo 87032" transform="translate(0.444 2.168)">
              <path id="Trazado_145916" data-name="Trazado 145916" d="M259.533,388.016v3.154a.267.267,0,0,0,.269.268h.007a.266.266,0,0,0,.268-.268v-3.154Z" transform="translate(-259.531 -387.856)" fill="#4fbeff"/>
              <path id="Trazado_145917" data-name="Trazado 145917" d="M259.613,388.156a.437.437,0,0,0,.39,0,.119.119,0,0,0,0-.226.43.43,0,0,0-.39,0A.119.119,0,0,0,259.613,388.156Z" transform="translate(-259.532 -387.883)" fill="#8dd5ff"/>
            </g>
            <path id="Trazado_145918" data-name="Trazado 145918" d="M259.508,386.495v5a.351.351,0,0,0,.351.352h.008a.35.35,0,0,0,.351-.352v-5h.254v5a.607.607,0,0,1-.605.606h-.008a.6.6,0,0,1-.6-.606v-5Z" transform="translate(-259.143 -385.993)" fill="#517fa2"/>
            <path id="Trazado_145919" data-name="Trazado 145919" d="M259.523,386.495v5c0,.194.16.331.16,0v-5Z" transform="translate(-259.09 -385.993)" fill="#fff" opacity="0.2"/>
            <path id="Trazado_145920" data-name="Trazado 145920" d="M259.865,386.495v5c0,.194.161.331.161,0v-5Z" transform="translate(-259.021 -385.993)" opacity="0.3"/>
            <path id="Trazado_145921" data-name="Trazado 145921" d="M259.374,386.786a1.124,1.124,0,0,0,1.013,0,.309.309,0,0,0,0-.586,1.1,1.1,0,0,0-1.013,0C259.091,386.363,259.091,386.623,259.374,386.786Zm.257-.576a.567.567,0,0,1,.5,0,.154.154,0,0,1,0,.292.559.559,0,0,1-.5,0C259.491,386.422,259.491,386.292,259.631,386.21Z" transform="translate(-259.162 -386.077)" fill="#659ec9"/>
            <path id="Trazado_145922" data-name="Trazado 145922" d="M260.108,386.462a.265.265,0,0,0-.036-.022.544.544,0,0,0-.5,0,.4.4,0,0,0-.038.022c-.1-.078-.085-.192.038-.264a.567.567,0,0,1,.5,0C260.2,386.27,260.21,386.384,260.108,386.462Z" transform="translate(-259.101 -386.065)" fill="#295e87"/>
          </g>
          <g id="Grupo_87034" data-name="Grupo 87034" transform="translate(0.761 6.431)">
            <path id="Trazado_145923" data-name="Trazado 145923" d="M255.533,394.32v.293l-.252-.149v-.292Z" transform="translate(-255.281 -390.886)" fill="#1d374e"/>
            <path id="Trazado_145924" data-name="Trazado 145924" d="M260.96,391.435l.252.145-5.679,3.288-.252-.148Z" transform="translate(-255.281 -391.435)" fill="#1078ad"/>
            <path id="Trazado_145925" data-name="Trazado 145925" d="M261.17,391.556v.293l-5.679,3.288v-.293Z" transform="translate(-255.239 -391.41)" fill="#003552"/>
          </g>
          <g id="Grupo_87035" data-name="Grupo 87035" transform="translate(0.008 9.41)">
            <path id="Trazado_145926" data-name="Trazado 145926" d="M255.7,394.666v.294l.254-.148v-.293Z" transform="translate(-254.444 -393.795)" fill="#003552"/>
            <path id="Trazado_145927" data-name="Trazado 145927" d="M254.907,393.916l-.253.148,1.253.723.254-.147Z" transform="translate(-254.653 -393.916)" fill="#1078ad"/>
            <path id="Trazado_145928" data-name="Trazado 145928" d="M254.653,394.039v.291l1.253.727v-.294Z" transform="translate(-254.653 -393.891)" fill="#00537d"/>
          </g>
          <g id="Grupo_87036" data-name="Grupo 87036" transform="translate(0.509 5.183)">
            <path id="Trazado_145929" data-name="Trazado 145929" d="M255.323,390.684l.252-.144-.252-.145-.252.145Z" transform="translate(-255.071 -390.395)" fill="#1d374e"/>
            <path id="Trazado_145930" data-name="Trazado 145930" d="M255.071,395.034l.252.145V390.66l-.252-.144Z" transform="translate(-255.071 -390.37)" fill="#00537d"/>
            <path id="Trazado_145931" data-name="Trazado 145931" d="M255.281,395.179l.252-.147v-4.517l-.252.144Z" transform="translate(-255.029 -390.37)" fill="#003552"/>
          </g>
          <g id="Grupo_87037" data-name="Grupo 87037" transform="translate(0.297 4.765)">
            <path id="Trazado_145932" data-name="Trazado 145932" d="M255.6,390.6v.292l.252-.147v-.293Z" transform="translate(-254.754 -389.966)" fill="#1d374e"/>
            <path id="Trazado_145933" data-name="Trazado 145933" d="M255.147,390.047l-.252.145.842.488.252-.148Z" transform="translate(-254.895 -390.047)" fill="#1078ad"/>
            <path id="Trazado_145934" data-name="Trazado 145934" d="M254.895,390.168v.293l.842.487v-.292Z" transform="translate(-254.895 -390.023)" fill="#00537d"/>
          </g>
          <g id="Grupo_87038" data-name="Grupo 87038" transform="translate(1.139 1.832)">
            <path id="Trazado_145935" data-name="Trazado 145935" d="M255.848,390.72v.293l-.252-.147v-.292Z" transform="translate(-255.596 -387.008)" fill="#00537d"/>
            <path id="Trazado_145936" data-name="Trazado 145936" d="M261.77,387.6l.253.149-6.176,3.563-.252-.145Z" transform="translate(-255.596 -387.603)" fill="#1078ad"/>
            <path id="Trazado_145937" data-name="Trazado 145937" d="M261.981,387.728v.291l-6.176,3.565v-.293Z" transform="translate(-255.554 -387.579)" fill="#003552"/>
          </g>
        </g>
        <g id="Grupo_87056" data-name="Grupo 87056" transform="translate(26.465 6.986)">
          <g id="Grupo_87040" data-name="Grupo 87040" transform="translate(0.351 10.267)">
            <path id="Trazado_145938" data-name="Trazado 145938" d="M269.9,385.915a4.986,4.986,0,0,1-4.5,0,1.371,1.371,0,0,1,0-2.6,4.957,4.957,0,0,1,4.5,0A1.37,1.37,0,0,1,269.9,385.915Z" transform="translate(-264.466 -381.979)" fill="#0d0d0d" opacity="0.3"/>
            <path id="Trazado_145939" data-name="Trazado 145939" d="M264.6,383.574v.82a1.512,1.512,0,0,0,.888,1.24,4.758,4.758,0,0,0,4.3,0,1.512,1.512,0,0,0,.892-1.24v-.82Z" transform="translate(-264.439 -381.82)" fill="#003552"/>
            <path id="Trazado_145940" data-name="Trazado 145940" d="M269.79,385.106a4.75,4.75,0,0,1-4.3,0,1.309,1.309,0,0,1,0-2.479,4.75,4.75,0,0,1,4.3,0A1.308,1.308,0,0,1,269.79,385.106Z" transform="translate(-264.439 -382.113)" fill="#1078ad"/>
          </g>
          <g id="Grupo_87041" data-name="Grupo 87041" transform="translate(1.03 10.113)">
            <path id="Trazado_145941" data-name="Trazado 145941" d="M265.033,383.2v.294h0a1.254,1.254,0,0,0,.737,1.031,3.947,3.947,0,0,0,3.57,0,1.256,1.256,0,0,0,.738-1.031V383.2Z" transform="translate(-265.032 -381.741)" fill="#f26716"/>
            <path id="Trazado_145942" data-name="Trazado 145942" d="M269.34,384.472a3.962,3.962,0,0,1-3.57,0,1.088,1.088,0,0,1,0-2.061,3.947,3.947,0,0,1,3.57,0A1.088,1.088,0,0,1,269.34,384.472Z" transform="translate(-265.032 -381.984)" fill="#ffa769"/>
          </g>
          <g id="Grupo_87042" data-name="Grupo 87042" transform="translate(1.501 8.164)">
            <path id="Trazado_145943" data-name="Trazado 145943" d="M265.633,383.06l.639.366v-2.4a3.821,3.821,0,0,1-.847-.666Z" transform="translate(-265.424 -380.361)" fill="#ff8530"/>
            <path id="Trazado_145944" data-name="Trazado 145944" d="M266.766,383.01l-.637.366v-2.4l.637-.368Z" transform="translate(-265.283 -380.311)" fill="#f26716"/>
          </g>
          <g id="Grupo_87043" data-name="Grupo 87043" transform="translate(0 2.812)">
            <path id="Trazado_145945" data-name="Trazado 145945" d="M267,381a3.992,3.992,0,0,1-1.808-3.108c0-.894.481-1.382,1.162-1.286.079.01.013.5.1.533l.531-.307,0-.618a1.635,1.635,0,0,0-1.633-.156h0l-.008.008h0l-.543.316.066.225a2.2,2.2,0,0,0-.2.98c-.3.287-.529,1.013.342,2.391.379.6,1.477,1.946,1.477,1.946l.528-.3Z" transform="translate(-264.131 -375.902)" fill="#f26716"/>
            <path id="Trazado_145946" data-name="Trazado 145946" d="M264.869,380.138a4.75,4.75,0,0,0,1.653,1.732l0-.619a3.976,3.976,0,0,1-1.809-3.109c-.007-1.148.8-1.622,1.787-1.055l0-.619c-1.286-.735-2.326-.12-2.319,1.372A4.784,4.784,0,0,0,264.869,380.138Z" transform="translate(-264.174 -375.851)" fill="#ff8530"/>
          </g>
          <g id="Grupo_87044" data-name="Grupo 87044" transform="translate(2.319 3.033)">
            <path id="Trazado_145947" data-name="Trazado 145947" d="M266.814,376.619v-.012a.352.352,0,0,1,.13-.307l-.368-.214-.469.273.881.792A1.051,1.051,0,0,1,266.814,376.619Z" transform="translate(-266.106 -376.086)" fill="#1078ad"/>
            <path id="Trazado_145948" data-name="Trazado 145948" d="M267.251,376.29a.354.354,0,0,0-.347-.036v0l0,0,0,0-.487.282.539,1.283.468-.272v-1.163Z" transform="translate(-266.045 -376.059)" fill="#f26716"/>
            <path id="Trazado_145949" data-name="Trazado 145949" d="M266.346,376.844v-.012a.364.364,0,0,1,.126-.309l-.366-.21v.825l.412.236A1.024,1.024,0,0,1,266.346,376.844Z" transform="translate(-266.106 -376.041)" fill="#00537d"/>
            <path id="Trazado_145950" data-name="Trazado 145950" d="M266.306,376.8v.012a1.1,1.1,0,0,0,.5.864l.164.1v-1.166l-.164-.095C266.527,376.358,266.306,376.484,266.306,376.8Z" transform="translate(-266.066 -376.013)" fill="#ff8530"/>
            <path id="Trazado_145951" data-name="Trazado 145951" d="M266.6,376.806c-.067-.041-.121-.008-.121.068a.27.27,0,0,0,.121.21c.066.038.121.006.121-.068A.266.266,0,0,0,266.6,376.806Z" transform="translate(-266.031 -375.945)" fill="#00537d"/>
          </g>
          <g id="Grupo_87049" data-name="Grupo 87049" transform="translate(3.143)">
            <g id="Grupo_87045" data-name="Grupo 87045" transform="translate(0.426 5.951)">
              <path id="Trazado_145952" data-name="Trazado 145952" d="M267.147,378.691v1.289h0a.18.18,0,0,0,.106.15.575.575,0,0,0,.513,0,.179.179,0,0,0,.107-.15h0v-1.289Z" transform="translate(-267.147 -378.482)" fill="#003552"/>
              <path id="Trazado_145953" data-name="Trazado 145953" d="M267.765,378.875a.567.567,0,0,1-.513,0,.157.157,0,0,1,0-.3.567.567,0,0,1,.513,0A.157.157,0,0,1,267.765,378.875Z" transform="translate(-267.147 -378.517)" fill="#1d374e"/>
            </g>
            <g id="Grupo_87046" data-name="Grupo 87046" transform="translate(0 5.501)">
              <path id="Trazado_145954" data-name="Trazado 145954" d="M266.792,378.534v.364h0a.4.4,0,0,0,.237.333,1.257,1.257,0,0,0,1.155,0,.4.4,0,0,0,.24-.333h0v-.364Z" transform="translate(-266.792 -378.063)" fill="#00537d"/>
              <path id="Trazado_145955" data-name="Trazado 145955" d="M268.183,378.945a1.257,1.257,0,0,1-1.155,0,.353.353,0,0,1,0-.666,1.286,1.286,0,0,1,1.155,0A.351.351,0,0,1,268.183,378.945Z" transform="translate(-266.792 -378.142)" fill="#1d374e"/>
            </g>
            <g id="Grupo_87047" data-name="Grupo 87047" transform="translate(0 1.879)">
              <path id="Trazado_145956" data-name="Trazado 145956" d="M266.792,375.516v3.623h0a.4.4,0,0,0,.237.333,1.257,1.257,0,0,0,1.155,0,.4.4,0,0,0,.24-.333h0v-3.623Z" transform="translate(-266.792 -375.047)" fill="#ff8530"/>
              <path id="Trazado_145957" data-name="Trazado 145957" d="M268.183,375.928a1.279,1.279,0,0,1-1.155,0,.352.352,0,0,1,0-.665,1.279,1.279,0,0,1,1.155,0A.351.351,0,0,1,268.183,375.928Z" transform="translate(-266.792 -375.125)" fill="#ffa769"/>
            </g>
            <g id="Grupo_87048" data-name="Grupo 87048" transform="translate(0.274)">
              <path id="Trazado_145958" data-name="Trazado 145958" d="M267.02,373.82V375.8h0a.271.271,0,0,0,.158.22.842.842,0,0,0,.765,0,.268.268,0,0,0,.16-.22h0V373.82Z" transform="translate(-267.02 -373.508)" fill="#00537d"/>
              <path id="Trazado_145959" data-name="Trazado 145959" d="M267.943,374.093a.849.849,0,0,1-.765,0,.233.233,0,0,1,0-.441.834.834,0,0,1,.765,0A.232.232,0,0,1,267.943,374.093Z" transform="translate(-267.02 -373.56)" fill="#1078ad"/>
              <path id="Trazado_145960" data-name="Trazado 145960" d="M267.847,373.933a.294.294,0,0,0-.072-.061.547.547,0,0,0-.492,0,.281.281,0,0,0-.073.061c-.054-.073-.031-.16.073-.222a.554.554,0,0,1,.492,0C267.88,373.773,267.9,373.859,267.847,373.933Z" transform="translate(-266.988 -373.541)" fill="#003552"/>
              <path id="Trazado_145961" data-name="Trazado 145961" d="M267.842,373.906a.219.219,0,0,1-.072.062.539.539,0,0,1-.492,0,.213.213,0,0,1-.073-.062.279.279,0,0,1,.073-.061.546.546,0,0,1,.492,0A.291.291,0,0,1,267.842,373.906Z" transform="translate(-266.983 -373.514)" fill="#4fbeff"/>
            </g>
          </g>
          <g id="Grupo_87054" data-name="Grupo 87054" transform="translate(1.109 7.867)">
            <path id="Trazado_145962" data-name="Trazado 145962" d="M265.1,381.779l2.908,1.679v-.268l-2.908-1.679Z" transform="translate(-265.098 -379.833)" fill="#00537d"/>
            <path id="Trazado_145963" data-name="Trazado 145963" d="M270.427,381.779l-2.906,1.679v-.268l2.906-1.679Z" transform="translate(-264.612 -379.833)" fill="#003552"/>
            <path id="Trazado_145964" data-name="Trazado 145964" d="M268.006,383.47l-2.908-1.679,2.908-1.677,2.906,1.677Z" transform="translate(-265.098 -380.113)" fill="#1078ad"/>
            <g id="Grupo_87050" data-name="Grupo 87050" transform="translate(1.736 1.001)">
              <path id="Trazado_145965" data-name="Trazado 145965" d="M269.28,381.852a.758.758,0,0,0-.385-.451,2.176,2.176,0,0,0-1.95,0,.752.752,0,0,0-.387.451c-.06-.238.071-.49.387-.671a2.146,2.146,0,0,1,1.95,0A.624.624,0,0,1,269.28,381.852Z" transform="translate(-266.544 -380.947)" fill="#003552"/>
              <path id="Trazado_145966" data-name="Trazado 145966" d="M269.277,381.815a.74.74,0,0,1-.385.45,2.146,2.146,0,0,1-1.95,0,.735.735,0,0,1-.387-.45.752.752,0,0,1,.387-.451,2.176,2.176,0,0,1,1.95,0A.758.758,0,0,1,269.277,381.815Z" transform="translate(-266.542 -380.91)" fill="#659ec9"/>
            </g>
            <g id="Grupo_87051" data-name="Grupo 87051" transform="translate(1.608 0.837)">
              <path id="Trazado_145967" data-name="Trazado 145967" d="M269.5,381.217l-2.343,1.354-.72-.419v-.059l3.063-.937Z" transform="translate(-266.438 -380.741)" fill="#1da4b5"/>
              <path id="Trazado_145968" data-name="Trazado 145968" d="M269.5,381.227l-2.343,1.353-.72-.416,2.345-1.353Z" transform="translate(-266.438 -380.81)" fill="#4debff"/>
            </g>
            <g id="Grupo_87052" data-name="Grupo 87052" transform="translate(1.262 1.253)">
              <path id="Trazado_145969" data-name="Trazado 145969" d="M266.149,381.3l2.345,1.355.177-.1v-.059l-2.522-1.252Z" transform="translate(-266.149 -381.14)" fill="#808285"/>
              <path id="Trazado_145970" data-name="Trazado 145970" d="M266.149,381.258l2.345,1.353.177-.1-2.343-1.353Z" transform="translate(-266.149 -381.157)" fill="#bcbec0"/>
              <path id="Trazado_145971" data-name="Trazado 145971" d="M266.349,381.268a.076.076,0,0,1-.078,0c-.023-.012-.023-.03,0-.044a.076.076,0,0,1,.078,0C266.372,381.238,266.372,381.256,266.349,381.268Z" transform="translate(-266.128 -381.146)" fill="#0f2034"/>
            </g>
            <g id="Grupo_87053" data-name="Grupo 87053" transform="translate(2.371 0.607)">
              <path id="Trazado_145972" data-name="Trazado 145972" d="M267.073,380.764l2.343,1.354.178-.1v-.059l-2.522-1.252Z" transform="translate(-267.073 -380.602)" fill="#808285"/>
              <path id="Trazado_145973" data-name="Trazado 145973" d="M267.073,380.721l2.343,1.354.178-.1-2.345-1.354Z" transform="translate(-267.073 -380.619)" fill="#bcbec0"/>
              <path id="Trazado_145974" data-name="Trazado 145974" d="M267.274,380.735a.094.094,0,0,1-.08,0c-.022-.014-.023-.035,0-.048a.094.094,0,0,1,.08,0C267.3,380.7,267.3,380.72,267.274,380.735Z" transform="translate(-267.052 -380.607)" fill="#0f2034"/>
            </g>
          </g>
          <g id="Grupo_87055" data-name="Grupo 87055" transform="translate(2.344 7.907)">
            <path id="Trazado_145975" data-name="Trazado 145975" d="M266.127,381.02l.527.3-.527-.924Z" transform="translate(-266.127 -380.096)" fill="#939598"/>
            <path id="Trazado_145976" data-name="Trazado 145976" d="M266.654,381.374l-.527-.924.527-.3.529.924Z" transform="translate(-266.127 -380.147)" fill="#bcbec0"/>
          </g>
        </g>
        <g id="Grupo_87062" data-name="Grupo 87062" transform="translate(39.483 11.844)">
          <g id="Grupo_87057" data-name="Grupo 87057">
            <path id="Trazado_145977" data-name="Trazado 145977" d="M284.433,391.862l-9.415-5.436,14.676-8.471,9.415,5.436Z" transform="translate(-275.019 -377.537)" fill="#0d0d0d" opacity="0.3"/>
            <path id="Trazado_145978" data-name="Trazado 145978" d="M275.672,385.122l8.684,5.014v-.858l-8.684-5.015Z" transform="translate(-274.888 -376.272)" fill="#a7a9ac"/>
            <path id="Trazado_145979" data-name="Trazado 145979" d="M296.744,382.643l-13.838,7.989v-.858l13.838-7.99Z" transform="translate(-273.438 -376.769)" fill="#939598"/>
            <path id="Trazado_145980" data-name="Trazado 145980" d="M284.356,390.612l-8.684-5.015,13.835-7.99,8.687,5.015Z" transform="translate(-274.888 -377.606)" fill="#bcbec0"/>
            <path id="Trazado_145981" data-name="Trazado 145981" d="M296.978,382.527l-.539.314-7.184-4.146-12.295,7.1-.538-.313,12.833-7.413Z" transform="translate(-274.737 -377.513)" fill="#939598"/>
            <path id="Trazado_145982" data-name="Trazado 145982" d="M296.349,382.737l-12.3,7.1-7.181-4.145,12.295-7.1Z" transform="translate(-274.648 -377.409)" fill="#a7a9ac"/>
          </g>
          <g id="Grupo_87059" data-name="Grupo 87059" transform="translate(9.468 1.534)">
            <path id="Trazado_145983" data-name="Trazado 145983" d="M284.809,384.077a2.7,2.7,0,0,1-1.324-.317.872.872,0,0,1,0-1.642,2.73,2.73,0,0,1,1.324-.317,2.7,2.7,0,0,1,1.324.319.871.871,0,0,1,0,1.64A2.707,2.707,0,0,1,284.809,384.077Z" transform="translate(-282.906 -378.299)" fill="#0d0d0d" opacity="0.3"/>
            <path id="Trazado_145984" data-name="Trazado 145984" d="M283.077,379.8l.38-.5.544-.245.674-.1h.5l.415.159.361.129.38.313.16.348v3.649l-.343.51-.618.317-.667.081-.64-.045-.44-.109-.354-.226-.215-.22-.135-.307Z" transform="translate(-282.872 -378.869)" fill="#659ec9" opacity="0.7"/>
            <g id="Grupo_87058" data-name="Grupo 87058" transform="translate(0.438 1.353)">
              <path id="Trazado_145985" data-name="Trazado 145985" d="M284.736,383.861a2.079,2.079,0,0,1-1.018-.244.759.759,0,0,1-.447-.631V380.74H286.2v2.246a.761.761,0,0,1-.444.631A2.082,2.082,0,0,1,284.736,383.861Z" transform="translate(-283.271 -379.865)" fill="#00537d"/>
              <path id="Trazado_145986" data-name="Trazado 145986" d="M284.736,381.762a2.079,2.079,0,0,1-1.018-.244.669.669,0,0,1,0-1.262,2.228,2.228,0,0,1,2.036,0,.67.67,0,0,1,0,1.262A2.082,2.082,0,0,1,284.736,381.762Z" transform="translate(-283.271 -380.011)" fill="#1078ad"/>
            </g>
            <path id="Trazado_145987" data-name="Trazado 145987" d="M284.06,384.055l-.49-.188v-3.4l.49.136Z" transform="translate(-282.773 -378.568)" fill="#fff" opacity="0.2"/>
            <path id="Trazado_145988" data-name="Trazado 145988" d="M284.964,384.158l.8-.376v-3.511l-.8.367Z" transform="translate(-282.494 -378.606)" fill="#0d0d0d" opacity="0.2"/>
            <path id="Trazado_145989" data-name="Trazado 145989" d="M286.577,379.951a.932.932,0,0,0-.541-.771,2.769,2.769,0,0,0-2.493,0,.93.93,0,0,0-.541.771v3.529a.93.93,0,0,0,.541.773,2.776,2.776,0,0,0,2.492,0,.932.932,0,0,0,.543-.773v-3.529Zm-3.4,0a.766.766,0,0,1,.453-.612,2.568,2.568,0,0,1,2.312,0,.643.643,0,0,1,0,1.228,2.548,2.548,0,0,1-2.312,0,.76.76,0,0,1-.453-.612v0Zm3.216,3.529a.764.764,0,0,1-.451.616,2.571,2.571,0,0,1-2.312,0,.771.771,0,0,1-.453-.616v-3.056a1.325,1.325,0,0,0,.363.3,2.747,2.747,0,0,0,2.492,0,1.284,1.284,0,0,0,.361-.3Z" transform="translate(-282.887 -378.884)" fill="#517fa2"/>
          </g>
          <g id="Grupo_87061" data-name="Grupo 87061" transform="translate(4.833 3.746)">
            <path id="Trazado_145990" data-name="Trazado 145990" d="M280.946,385.92a2.673,2.673,0,0,1-1.323-.319.872.872,0,0,1,0-1.642,2.711,2.711,0,0,1,1.323-.316,2.676,2.676,0,0,1,1.323.318.87.87,0,0,1,0,1.64A2.673,2.673,0,0,1,280.946,385.92Z" transform="translate(-279.045 -380.143)" fill="#0d0d0d" opacity="0.3"/>
            <path id="Trazado_145991" data-name="Trazado 145991" d="M279.216,381.64l.38-.495.543-.246.677-.1h.494l.415.159.362.129.38.312.162.349v3.65l-.345.509-.618.318-.668.08-.638-.045-.44-.109-.356-.225-.215-.22-.134-.307Z" transform="translate(-279.011 -380.712)" fill="#659ec9" opacity="0.7"/>
            <g id="Grupo_87060" data-name="Grupo 87060" transform="translate(0.437 1.352)">
              <path id="Trazado_145992" data-name="Trazado 145992" d="M280.874,385.7a2.094,2.094,0,0,1-1.018-.245.763.763,0,0,1-.447-.631v-2.245h2.928v2.245a.759.759,0,0,1-.445.631A2.093,2.093,0,0,1,280.874,385.7Z" transform="translate(-279.409 -381.707)" fill="#4fbeff"/>
              <path id="Trazado_145993" data-name="Trazado 145993" d="M280.874,383.606a2.064,2.064,0,0,1-1.018-.246.668.668,0,0,1,0-1.26,2.228,2.228,0,0,1,2.036,0,.669.669,0,0,1,0,1.26A2.05,2.05,0,0,1,280.874,383.606Z" transform="translate(-279.409 -381.853)" fill="#8dd5ff"/>
            </g>
            <path id="Trazado_145994" data-name="Trazado 145994" d="M280.2,385.894l-.49-.184V382.3l.49.137Z" transform="translate(-278.912 -380.411)" fill="#fff" opacity="0.2"/>
            <path id="Trazado_145995" data-name="Trazado 145995" d="M281.1,386l.8-.376v-3.51l-.8.366Z" transform="translate(-278.633 -380.449)" fill="#0d0d0d" opacity="0.2"/>
            <path id="Trazado_145996" data-name="Trazado 145996" d="M282.716,381.793a.927.927,0,0,0-.541-.768,2.761,2.761,0,0,0-2.494,0,.924.924,0,0,0-.54.768v3.53a.931.931,0,0,0,.54.772,2.766,2.766,0,0,0,2.492,0,.934.934,0,0,0,.544-.772v-3.53Zm-3.4,0a.767.767,0,0,1,.45-.615,2.591,2.591,0,0,1,2.313,0,.646.646,0,0,1,0,1.232,2.581,2.581,0,0,1-2.313,0,.762.762,0,0,1-.45-.615v0Zm3.215,3.53a.761.761,0,0,1-.451.615,2.573,2.573,0,0,1-2.313,0,.764.764,0,0,1-.45-.615v-3.056a1.338,1.338,0,0,0,.36.3,2.747,2.747,0,0,0,2.492,0,1.279,1.279,0,0,0,.363-.3Z" transform="translate(-279.026 -380.727)" fill="#517fa2"/>
          </g>
        </g>
      </g>
    </g>
  </g>
</svg>
