<svg xmlns="http://www.w3.org/2000/svg" width="161" height="161" viewBox="0 0 161 161">
  <g id="Grupo_102470" data-name="Grupo 102470" transform="translate(-839 -1185)">
    <circle id="Elipse_4350" data-name="Elipse 4350" cx="80.5" cy="80.5" r="80.5" transform="translate(839 1185)" fill="#fff"/>
    <g id="Fill_out_line" data-name="Fill out line" transform="translate(859 1202)">
      <path id="Trazado_157595" data-name="Trazado 157595" d="M96,312h8.9v11.867H96Z" transform="translate(-65.167 -241.117)" fill="#efdd9b"/>
      <circle id="Elipse_4552" data-name="Elipse 4552" cx="16.5" cy="16.5" r="16.5" transform="translate(19 40.999)" fill="#8bcde8"/>
      <path id="Trazado_157596" data-name="Trazado 157596" d="M48.317,152a16.317,16.317,0,1,0,16.317,16.317A16.317,16.317,0,0,0,48.317,152Zm0,28.183a11.867,11.867,0,1,1,11.867-11.867,11.867,11.867,0,0,1-11.867,11.867Z" transform="translate(-13.033 -110.783)" fill="#2f4054"/>
      <circle id="Elipse_4553" data-name="Elipse 4553" cx="3" cy="3" r="3" transform="translate(32 54.999)" fill="#2f4054"/>
      <path id="Trazado_157597" data-name="Trazado 157597" d="M56,376h74.167v17.8H56Z" transform="translate(-32.583 -293.25)" fill="#efdd9b"/>
      <path id="Trazado_157598" data-name="Trazado 157598" d="M24,360h5.933v23.733H24Z" transform="translate(-6.517 -280.217)" fill="#e54042"/>
      <path id="Trazado_157599" data-name="Trazado 157599" d="M456,360h5.933v23.733H456Z" transform="translate(-358.417 -280.217)" fill="#e54042"/>
      <path id="Trazado_157600" data-name="Trazado 157600" d="M184,16v1.483a4.45,4.45,0,0,0,4.45,4.45h14.092a6.675,6.675,0,0,1,0,13.35H201.8a10.383,10.383,0,0,0-10.383,10.383h0A10.383,10.383,0,0,0,201.8,56.05h1.484a3.708,3.708,0,0,1,0,7.417h-3.656a5.244,5.244,0,0,0-3.708,8.953L206.25,82.75v-8.9a4.45,4.45,0,0,1,4.45-4.45h10.549a5.762,5.762,0,0,0,5.763-5.767v-.376a5.729,5.729,0,0,0-5.73-5.725h-.418a7.2,7.2,0,0,1-7.2-7.193v-.222a7.415,7.415,0,0,1,7.415-7.418H228.5a11.867,11.867,0,0,0,11.867-11.867V16Z" transform="translate(-136.85)" fill="#c5d5e1"/>
      <path id="Trazado_157601" data-name="Trazado 157601" d="M82.88,224.854a4.455,4.455,0,1,0-4.374-3.637l-4.075,2.353,1.483,2.569,4.077-2.354a4.429,4.429,0,0,0,2.889,1.069Zm0-5.933A1.483,1.483,0,1,1,81.4,220.4,1.483,1.483,0,0,1,82.88,218.921Z" transform="translate(-47.597 -162.871)" fill="#12263f"/>
      <path id="Trazado_157602" data-name="Trazado 157602" d="M74.7,181.35A13.35,13.35,0,1,0,61.35,194.7,13.35,13.35,0,0,0,74.7,181.35Zm-23.733,0a10.329,10.329,0,0,1,2.071-6.215l2.02,2.02,2.1-2.1-2.019-2.019a10.331,10.331,0,0,1,4.732-1.963v2.859h2.967v-2.859a10.331,10.331,0,0,1,4.732,1.963l-2.019,2.019,2.1,2.1,2.02-2.02a10.382,10.382,0,1,1-18.7,6.215Z" transform="translate(-26.067 -123.817)" fill="#12263f"/>
      <path id="Trazado_157603" data-name="Trazado 157603" d="M80.037,45.923a5.894,5.894,0,0,1,4.2-1.739H91.65A13.365,13.365,0,0,0,105,30.833V16h-2.967V30.833A10.4,10.4,0,0,1,91.65,41.217H84.233a8.9,8.9,0,0,0-8.9,8.9v.222a8.69,8.69,0,0,0,8.679,8.676h.417a4.251,4.251,0,0,1,4.246,4.242l0,.376A4.282,4.282,0,0,1,84.4,67.919l-10.55,0a5.932,5.932,0,0,0-5.933,5.933v5.32l-7.8-7.8a3.762,3.762,0,0,1,2.659-6.421h3.656a5.192,5.192,0,1,0,0-10.383H64.95a8.9,8.9,0,0,1,0-17.8h.742a8.158,8.158,0,0,0,0-16.317H51.6a2.971,2.971,0,0,1-2.967-2.967V16H45.667v1.483A5.94,5.94,0,0,0,51.6,23.417H65.692a5.192,5.192,0,0,1,0,10.383H64.95a11.867,11.867,0,1,0,0,23.733h1.483a2.225,2.225,0,1,1,0,4.45H62.777a6.727,6.727,0,0,0-4.756,11.485l7.8,7.8h-24.6V74.315a17.8,17.8,0,1,0-11.867,0v6.951H24.9V79.783A1.483,1.483,0,0,0,23.417,78.3H17.483A1.483,1.483,0,0,0,16,79.783v23.733A1.483,1.483,0,0,0,17.483,105h5.933a1.483,1.483,0,0,0,1.483-1.483v-1.483H96.1v1.483A1.483,1.483,0,0,0,97.583,105h5.933A1.483,1.483,0,0,0,105,103.517V79.783a1.483,1.483,0,0,0-1.483-1.483H97.583A1.483,1.483,0,0,0,96.1,79.783v1.483H70.883V73.85a2.969,2.969,0,0,1,2.967-2.967l10.548,0h0a7.248,7.248,0,0,0,7.246-7.252l0-.376a7.22,7.22,0,0,0-7.213-7.207h-.417A5.719,5.719,0,0,1,78.3,50.341v-.222a5.887,5.887,0,0,1,1.736-4.2Zm-58.1,56.111H18.967V81.267h2.967ZM99.067,81.267h2.967v20.767H99.067ZM20.45,57.533A14.833,14.833,0,1,1,35.283,72.367,14.833,14.833,0,0,1,20.45,57.533Zm75.65,26.7V99.067H24.9V84.233h5.933a1.483,1.483,0,0,0,1.483-1.483V75.085a17.838,17.838,0,0,0,5.933,0v6.182H35.283v2.967H65.818l-.434.434a1.486,1.486,0,0,0,0,2.1l3.4,3.4-1.919,1.917,2.1,2.1,2.967-2.967a1.486,1.486,0,0,0,0-2.1l-3.4-3.4,1.485-1.483Z" transform="translate(0 0)" fill="#12263f"/>
      <path id="Trazado_157604" data-name="Trazado 157604" d="M269.35,165.35v-2.225a5.2,5.2,0,0,0-5.192-5.192H260.45a1.483,1.483,0,0,1,0-2.967h4.45V152h-4.45a4.45,4.45,0,0,0,0,8.9h3.708a2.227,2.227,0,0,1,2.225,2.225v2.225Z" transform="translate(-195.5 -110.783)" fill="#12263f"/>
      <path id="Trazado_157605" data-name="Trazado 157605" d="M320,152h2.967v2.967H320Z" transform="translate(-247.633 -110.783)" fill="#12263f"/>
      <path id="Trazado_157606" data-name="Trazado 157606" d="M346.967,76.052a3.156,3.156,0,0,1,3.152-3.152h5.563a6.126,6.126,0,0,0,6.119-6.119V64h-2.967v2.781a3.156,3.156,0,0,1-3.152,3.152h-5.562A6.126,6.126,0,0,0,344,76.052v2.781h2.967Z" transform="translate(-267.183 -39.1)" fill="#12263f"/>
      <path id="Trazado_157607" data-name="Trazado 157607" d="M424,32h2.967v2.967H424Z" transform="translate(-332.35 -13.033)" fill="#12263f"/>
      <path id="Trazado_157608" data-name="Trazado 157608" d="M320,272h2.967v2.967H320Z" transform="translate(-247.633 -208.533)" fill="#12263f"/>
      <path id="Trazado_157609" data-name="Trazado 157609" d="M351.417,257.483V256H348.45v1.483a1.485,1.485,0,0,1-1.483,1.483H344v2.967h2.967a4.455,4.455,0,0,0,4.45-4.45Z" transform="translate(-267.183 -195.5)" fill="#12263f"/>
    </g>
  </g>
</svg>
