<svg id="decreto" xmlns="http://www.w3.org/2000/svg" width="144.574" height="144.885" viewBox="0 0 144.574 144.885">
  <path id="Trazado_156273" data-name="Trazado 156273" d="M124.082,0l15.064,54.3-15.064,77.567L77.57,119.16V8.471A8.471,8.471,0,0,1,86.041,0Z" transform="translate(-55.667)" fill="#f2e6e9"/>
  <path id="Trazado_156274" data-name="Trazado 156274" d="M295.666,0,288.8,25.413V127.631c0-4.679-3.792-3.882-8.471-3.882l-38.038,8.117V0Z" transform="translate(-173.874)" fill="#e6cfd7"/>
  <path id="Trazado_156275" data-name="Trazado 156275" d="M426.574,12.707a12.722,12.722,0,0,1-12.707,12.707H407V8.471C407,3.792,409.191,0,413.867,0A12.722,12.722,0,0,1,426.574,12.707Z" transform="translate(-292.075)" fill="#cc5f29"/>
  <g id="Grupo_100907" data-name="Grupo 100907" transform="translate(0 119.16)">
    <g id="Grupo_100906" data-name="Grupo 100906">
      <path id="Trazado_156276" data-name="Trazado 156276" d="M68.415,422,76.5,432.19l-8.089,15.223H12.707a12.707,12.707,0,0,1,0-25.413Z" transform="translate(0 -422)" fill="#e6cfd7"/>
    </g>
  </g>
  <g id="Grupo_100909" data-name="Grupo 100909" transform="translate(38.288 18.961)">
    <g id="Grupo_100908" data-name="Grupo 100908">
      <path id="Trazado_156277" data-name="Trazado 156277" d="M138.783,106.032l4.634,2.708h26.877l2.148-2.708,3.51-4.425L165.722,67.15a4.236,4.236,0,0,0-3.756,2.276L154.362,84l-12.376-7.322a4.235,4.235,0,0,0-6.359,4.173Z" transform="translate(-135.594 -67.15)" fill="#fd3"/>
    </g>
  </g>
  <g id="Grupo_100911" data-name="Grupo 100911" transform="translate(72.651 77.609)">
    <g id="Grupo_100910" data-name="Grupo 100910">
      <path id="Trazado_156278" data-name="Trazado 156278" d="M282.621,283.32h-21.1a4.236,4.236,0,0,1,0-8.471h21.1a4.236,4.236,0,0,1,0,8.471Z" transform="translate(-257.29 -274.849)" fill="#66283d"/>
    </g>
  </g>
  <g id="Grupo_100913" data-name="Grupo 100913" transform="translate(34.61 77.609)">
    <g id="Grupo_100912" data-name="Grupo 100912">
      <path id="Trazado_156279" data-name="Trazado 156279" d="M147.9,283.32h-21.1a4.236,4.236,0,1,1,0-8.471h21.1a4.236,4.236,0,1,1,0,8.471Z" transform="translate(-122.57 -274.849)" fill="#804055"/>
    </g>
  </g>
  <g id="Grupo_100914" data-name="Grupo 100914" transform="translate(34.61 94.552)">
    <path id="Trazado_156280" data-name="Trazado 156280" d="M156.375,334.85l4.732,4.236-4.732,4.236h-29.57a4.236,4.236,0,1,1,0-8.471Z" transform="translate(-122.57 -334.85)" fill="#804055"/>
  </g>
  <g id="Grupo_100915" data-name="Grupo 100915" transform="translate(123.396 8.471)">
    <path id="Trazado_156281" data-name="Trazado 156281" d="M453.942,38.471H441.236a4.236,4.236,0,1,1,0-8.471h12.707a4.236,4.236,0,0,1,0,8.471Z" transform="translate(-437 -30)" fill="#99341f"/>
  </g>
  <path id="Trazado_156282" data-name="Trazado 156282" d="M242.29,422h38.038v25.413H242.29Z" transform="translate(-173.874 -302.84)" fill="#d9b9c3"/>
  <g id="Grupo_100916" data-name="Grupo 100916" transform="translate(93.474 118.712)">
    <ellipse id="Elipse_4352" data-name="Elipse 4352" cx="12.619" cy="13.086" rx="12.619" ry="13.086" transform="translate(0 0)" fill="#cc5f29"/>
  </g>
  <g id="Grupo_100917" data-name="Grupo 100917" transform="translate(106.454 127.631)">
    <path id="Trazado_156283" data-name="Trazado 156283" d="M393.721,460.471H381.236a4.236,4.236,0,0,1,0-8.471h12.485a4.236,4.236,0,0,1,0,8.471Z" transform="translate(-377 -452)" fill="#99341f"/>
  </g>
  <path id="Trazado_156284" data-name="Trazado 156284" d="M266.12,108.74l3.108-2.708,3.157-25.176a4.236,4.236,0,0,0-6.359-4.173L253.65,84l-7.6-14.579a4.239,4.239,0,0,0-3.756-2.276v41.59Z" transform="translate(-173.875 -48.189)" fill="#fb3"/>
  <path id="Trazado_156285" data-name="Trazado 156285" d="M276.093,339.086a4.237,4.237,0,0,1-4.236,4.236H242.29V334.85h29.567A4.237,4.237,0,0,1,276.093,339.086Z" transform="translate(-173.875 -240.298)" fill="#66283d"/>
  <path id="Trazado_156286" data-name="Trazado 156286" d="M173.828,204.85v8.471H151.69a4.24,4.24,0,0,1-4.2-3.708l-.6-4.764Z" transform="translate(-105.413 -147.006)" fill="#fb3"/>
  <path id="Trazado_156287" data-name="Trazado 156287" d="M269.228,204.85l-.6,4.761a4.235,4.235,0,0,1-4.2,3.71H242.29V204.85Z" transform="translate(-173.875 -147.006)" fill="#f93"/>
</svg>
