<svg xmlns="http://www.w3.org/2000/svg" xmlns:xlink="http://www.w3.org/1999/xlink" width="179" height="179" viewBox="0 0 179 179">
  <defs>
    <clipPath id="clip-path">
      <rect id="Rect치ngulo_35652" data-name="Rect치ngulo 35652" width="152" height="152" rx="20" transform="translate(867 2885)" fill="#12263f"/>
    </clipPath>
  </defs>
  <g id="Grupo_102474" data-name="Grupo 102474" transform="translate(-853 -2872)">
    <rect id="Rect치ngulo_35487" data-name="Rect치ngulo 35487" width="179" height="179" rx="20" transform="translate(853 2872)" fill="#7ae582"/>
    <g id="Enmascarar_grupo_95" data-name="Enmascarar grupo 95" clip-path="url(#clip-path)">
      <g id="expediente" transform="translate(867 2885)">
        <g id="Grupo_101695" data-name="Grupo 101695">
          <g id="Grupo_101691" data-name="Grupo 101691">
            <path id="Trazado_157622" data-name="Trazado 157622" d="M112.7,59.409a28.2,28.2,0,0,1-8.316-1.246v67.063a7.835,7.835,0,0,1-7.835,7.835H31.313V141.2a7.835,7.835,0,0,0,7.835,7.835H116.77a7.835,7.835,0,0,0,7.835-7.835V56.779A28.1,28.1,0,0,1,112.7,59.409Z" fill="#3ca8f4"/>
          </g>
          <g id="Grupo_101692" data-name="Grupo 101692">
            <path id="Trazado_157623" data-name="Trazado 157623" d="M94.179,9.395H18.924a7.835,7.835,0,0,0-7.835,7.835v108a7.835,7.835,0,0,0,7.835,7.835H96.546a7.836,7.836,0,0,0,7.835-7.835V58.756" fill="#faf7f5"/>
          </g>
          <g id="Grupo_101693" data-name="Grupo 101693">
            <ellipse id="Elipse_4557" data-name="Elipse 4557" cx="28.214" cy="28.22" rx="28.214" ry="28.22" transform="translate(84.483 2.969)" fill="#fb0"/>
          </g>
          <g id="Grupo_101694" data-name="Grupo 101694">
            <path id="Trazado_157624" data-name="Trazado 157624" d="M30.987,32.84h53.5V45.379h-53.5Z" fill="#7ae582"/>
          </g>
        </g>
        <g id="Grupo_101713" data-name="Grupo 101713">
          <g id="Grupo_101697" data-name="Grupo 101697">
            <g id="Grupo_101696" data-name="Grupo 101696">
              <path id="Trazado_157625" data-name="Trazado 157625" d="M112.71,50.568a2.969,2.969,0,0,1-2.969-2.969V27.3a2.969,2.969,0,0,1,5.938,0V47.6A2.969,2.969,0,0,1,112.71,50.568Z" fill="#12263f"/>
            </g>
          </g>
          <g id="Grupo_101699" data-name="Grupo 101699">
            <g id="Grupo_101698" data-name="Grupo 101698">
              <circle id="Elipse_4558" data-name="Elipse 4558" cx="2.969" cy="2.969" r="2.969" transform="translate(109.729 14.778)" fill="#12263f"/>
            </g>
          </g>
          <g id="Grupo_101702" data-name="Grupo 101702">
            <path id="Trazado_157626" data-name="Trazado 157626" d="M143.88,31.189A31.167,31.167,0,0,0,93.758,6.426H18.924a10.816,10.816,0,0,0-10.8,10.8v108a10.817,10.817,0,0,0,10.8,10.8h9.42V141.2a10.817,10.817,0,0,0,10.8,10.8H116.77a10.817,10.817,0,0,0,10.8-10.8V100.018a2.969,2.969,0,1,0-5.937,0V141.2a4.872,4.872,0,0,1-4.867,4.867H39.149a4.872,4.872,0,0,1-4.867-4.867V136.03H96.546a10.817,10.817,0,0,0,10.8-10.8V61.919a31.3,31.3,0,0,0,14.287-.847V73.178a2.969,2.969,0,0,0,5.938,0V58.594a31.217,31.217,0,0,0,16.306-27.4Zm-42.467,94.037a4.873,4.873,0,0,1-4.867,4.867H18.924a4.872,4.872,0,0,1-4.867-4.867v-108a4.872,4.872,0,0,1,4.867-4.867H87.85a31.025,31.025,0,0,0-6.308,17.508H30.987a2.969,2.969,0,0,0-2.969,2.969V45.379a2.969,2.969,0,0,0,2.969,2.969h53.5a2.956,2.956,0,0,0,1.8-.6,31.365,31.365,0,0,0,15.134,12.522Zm-19.9-89.417v6.6H33.956v-6.6ZM112.7,56.44a25.251,25.251,0,1,1,25.245-25.251A25.277,25.277,0,0,1,112.7,56.44Z" fill="#12263f"/>
            <g id="Grupo_101701" data-name="Grupo 101701">
              <g id="Grupo_101700" data-name="Grupo 101700">
                <path id="Trazado_157627" data-name="Trazado 157627" d="M124.6,89.514a2.969,2.969,0,1,1,2.892-2.3A3,3,0,0,1,124.6,89.514Z" fill="#12263f"/>
              </g>
            </g>
          </g>
          <g id="Grupo_101712" data-name="Grupo 101712">
            <g id="Grupo_101711" data-name="Grupo 101711">
              <g id="Grupo_101704" data-name="Grupo 101704">
                <g id="Grupo_101703" data-name="Grupo 101703">
                  <path id="Trazado_157628" data-name="Trazado 157628" d="M84.483,64.61h-53.5a2.969,2.969,0,0,1,0-5.937h53.5a2.969,2.969,0,0,1,0,5.938Z" fill="#12263f"/>
                </g>
              </g>
              <g id="Grupo_101706" data-name="Grupo 101706">
                <g id="Grupo_101705" data-name="Grupo 101705">
                  <path id="Trazado_157629" data-name="Trazado 157629" d="M84.483,78.691h-53.5a2.969,2.969,0,0,1,0-5.937h53.5a2.969,2.969,0,0,1,0,5.938Z" fill="#12263f"/>
                </g>
              </g>
              <g id="Grupo_101708" data-name="Grupo 101708">
                <g id="Grupo_101707" data-name="Grupo 101707">
                  <path id="Trazado_157630" data-name="Trazado 157630" d="M84.483,92.771h-53.5a2.969,2.969,0,0,1,0-5.937h53.5a2.969,2.969,0,0,1,0,5.938Z" fill="#12263f"/>
                </g>
              </g>
              <g id="Grupo_101710" data-name="Grupo 101710">
                <g id="Grupo_101709" data-name="Grupo 101709">
                  <path id="Trazado_157631" data-name="Trazado 157631" d="M84.483,106.852h-53.5a2.969,2.969,0,0,1,0-5.937h53.5a2.969,2.969,0,0,1,0,5.938Z" fill="#12263f"/>
                </g>
              </g>
            </g>
          </g>
        </g>
      </g>
    </g>
  </g>
</svg>
