<svg xmlns="http://www.w3.org/2000/svg" xmlns:xlink="http://www.w3.org/1999/xlink" width="179" height="179" viewBox="0 0 179 179">
  <defs>
    <clipPath id="clip-path">
      <rect id="Rect치ngulo_35656" data-name="Rect치ngulo 35656" width="152" height="152" rx="20" transform="translate(434 114)" fill="#3ca8f4"/>
    </clipPath>
  </defs>
  <g id="Grupo_102477" data-name="Grupo 102477" transform="translate(-420 -100)">
    <rect id="Rect치ngulo_35494" data-name="Rect치ngulo 35494" width="179" height="179" rx="20" transform="translate(420 100)" fill="#7ae582"/>
    <g id="Enmascarar_grupo_98" data-name="Enmascarar grupo 98" clip-path="url(#clip-path)">
      <g id="reaccion-quimica" transform="translate(431.548 111.532)">
        <g id="Grupo_101770" data-name="Grupo 101770">
          <g id="Grupo_101747" data-name="Grupo 101747">
            <path id="Trazado_157683" data-name="Trazado 157683" d="M51.484,98.065h2.452a9.806,9.806,0,0,0,0,19.613v24.516A9.8,9.8,0,0,0,63.742,152H17.161a12.252,12.252,0,0,1-1.643-24.394,6.372,6.372,0,0,1,.319-.883,14.744,14.744,0,0,1,13.582-9.046,9.755,9.755,0,0,0-4.854-8.458c-.025-.441-.049-.883-.049-1.348a14.721,14.721,0,0,1,14.71-14.71,13.05,13.05,0,0,1,2.623.245h.025A12.182,12.182,0,0,0,51.484,98.065Z" fill="#e6e9ed"/>
          </g>
          <g id="Grupo_101748" data-name="Grupo 101748">
            <path id="Trazado_157684" data-name="Trazado 157684" d="M78.452,80.9v7.355H51.484a2.459,2.459,0,0,0-2.452,2.452v4.9a2.459,2.459,0,0,0,2.452,2.452,12.258,12.258,0,1,1,4.364-23.732,13.181,13.181,0,0,1,2.206-2.6,12.261,12.261,0,0,1,20.4,9.169Z" fill="#e6e9ed"/>
          </g>
          <g id="Grupo_101749" data-name="Grupo 101749">
            <path id="Trazado_157685" data-name="Trazado 157685" d="M93.161,53.935a9.809,9.809,0,0,1,5.688,17.8,12.261,12.261,0,0,0-20.4,9.169,12.261,12.261,0,0,0-20.4-9.169,9.809,9.809,0,0,1,5.688-17.8v2.452H93.161Z" fill="#e6e9ed"/>
          </g>
          <g id="Grupo_101750" data-name="Grupo 101750">
            <path id="Trazado_157686" data-name="Trazado 157686" d="M105.419,88.258H78.452V80.9a12.261,12.261,0,0,1,20.4-9.169,13.181,13.181,0,0,1,2.206,2.6,12.3,12.3,0,0,1,16.622,11.474,12.272,12.272,0,0,1-12.258,12.258,2.459,2.459,0,0,0,2.452-2.452v-4.9A2.459,2.459,0,0,0,105.419,88.258Z" fill="#e6e9ed"/>
          </g>
          <g id="Grupo_101751" data-name="Grupo 101751">
            <path id="Trazado_157687" data-name="Trazado 157687" d="M141.385,127.606A12.252,12.252,0,0,1,139.742,152H93.161a9.8,9.8,0,0,0,9.806-9.806V117.677a9.806,9.806,0,0,0,0-19.613h2.452a12.182,12.182,0,0,0,9.61-4.658h.025a13.05,13.05,0,0,1,2.623-.245,14.721,14.721,0,0,1,14.71,14.71c0,.466-.025.907-.049,1.348a9.755,9.755,0,0,0-4.854,8.458,14.744,14.744,0,0,1,13.582,9.046A6.375,6.375,0,0,1,141.385,127.606Z" fill="#e6e9ed"/>
          </g>
          <g id="Grupo_101752" data-name="Grupo 101752">
            <path id="Trazado_157688" data-name="Trazado 157688" d="M53.935,107.871v9.806a9.806,9.806,0,0,1,0-19.613Z" fill="#69d6f4"/>
          </g>
          <g id="Grupo_101753" data-name="Grupo 101753">
            <path id="Trazado_157689" data-name="Trazado 157689" d="M24.565,109.219a9.755,9.755,0,0,1,4.854,8.458,14.744,14.744,0,0,0-13.582,9.046,9.8,9.8,0,1,1,8.728-17.5Z" fill="#69d6f4"/>
          </g>
          <g id="Grupo_101754" data-name="Grupo 101754">
            <circle id="Elipse_4559" data-name="Elipse 4559" cx="14.71" cy="14.71" r="14.71" transform="translate(9.806 44.129)" fill="#69d6f4"/>
          </g>
          <g id="Grupo_101755" data-name="Grupo 101755">
            <circle id="Elipse_4560" data-name="Elipse 4560" cx="4.903" cy="4.903" r="4.903" transform="translate(112.774 53.935)" fill="#69d6f4"/>
          </g>
          <g id="Grupo_101756" data-name="Grupo 101756">
            <circle id="Elipse_4561" data-name="Elipse 4561" cx="9.806" cy="9.806" r="9.806" transform="translate(132.387 71.097)" fill="#69d6f4"/>
          </g>
          <g id="Grupo_101757" data-name="Grupo 101757">
            <path id="Trazado_157690" data-name="Trazado 157690" d="M127.484,117.677a9.806,9.806,0,1,1,13.582,9.046A14.744,14.744,0,0,0,127.484,117.677Z" fill="#69d6f4"/>
          </g>
          <g id="Grupo_101758" data-name="Grupo 101758">
            <path id="Trazado_157691" data-name="Trazado 157691" d="M102.968,98.065a9.806,9.806,0,0,1,0,19.613Z" fill="#69d6f4"/>
          </g>
          <g id="Grupo_101759" data-name="Grupo 101759">
            <circle id="Elipse_4562" data-name="Elipse 4562" cx="4.903" cy="4.903" r="4.903" transform="translate(34.323 132.387)" fill="#69d6f4"/>
          </g>
          <g id="Grupo_101760" data-name="Grupo 101760">
            <circle id="Elipse_4563" data-name="Elipse 4563" cx="4.903" cy="4.903" r="4.903" transform="translate(112.774 132.387)" fill="#69d6f4"/>
          </g>
          <g id="Grupo_101761" data-name="Grupo 101761">
            <path id="Trazado_157692" data-name="Trazado 157692" d="M107.871,90.71v4.9a2.459,2.459,0,0,1-2.452,2.452H51.484a2.459,2.459,0,0,1-2.452-2.452v-4.9a2.459,2.459,0,0,1,2.452-2.452h53.935A2.459,2.459,0,0,1,107.871,90.71Z" fill="#aab2bd"/>
          </g>
          <g id="Grupo_101762" data-name="Grupo 101762">
            <path id="Trazado_157693" data-name="Trazado 157693" d="M53.935,137.29V98.065h49.032v44.129A9.8,9.8,0,0,1,93.161,152H63.742a9.8,9.8,0,0,1-9.806-9.806Z" fill="#ffeaa7"/>
          </g>
          <g id="Grupo_101763" data-name="Grupo 101763">
            <circle id="Elipse_4564" data-name="Elipse 4564" cx="4.903" cy="4.903" r="4.903" transform="translate(78.452 132.387)" fill="#4fc1e9"/>
          </g>
          <g id="Grupo_101764" data-name="Grupo 101764">
            <circle id="Elipse_4565" data-name="Elipse 4565" cx="4.903" cy="4.903" r="4.903" transform="translate(83.355 107.871)" fill="#4fc1e9"/>
          </g>
          <g id="Grupo_101765" data-name="Grupo 101765">
            <path id="Trazado_157694" data-name="Trazado 157694" d="M49.032,14.71h9.806V34.323H14.71a9.806,9.806,0,1,1,0-19.613H49.032Z" fill="#ffeaa7"/>
          </g>
          <g id="Grupo_101766" data-name="Grupo 101766">
            <path id="Trazado_157695" data-name="Trazado 157695" d="M68.645,34.323v2.452a2.459,2.459,0,0,1-2.452,2.452h-4.9a2.459,2.459,0,0,1-2.452-2.452V12.258A2.459,2.459,0,0,1,61.29,9.806h4.9a2.459,2.459,0,0,1,2.452,2.452Z" fill="#fcd770"/>
          </g>
          <g id="Grupo_101767" data-name="Grupo 101767">
            <path id="Trazado_157696" data-name="Trazado 157696" d="M98.065,34.323v2.452a2.459,2.459,0,0,1-2.452,2.452h-4.9a2.459,2.459,0,0,1-2.452-2.452V17.161A2.459,2.459,0,0,1,90.71,14.71h4.9a2.459,2.459,0,0,1,2.452,2.452V34.323Z" fill="#b4dd7f"/>
          </g>
          <g id="Grupo_101768" data-name="Grupo 101768">
            <path id="Trazado_157697" data-name="Trazado 157697" d="M117.677,34.323H98.065V19.613h19.613l20.03-13.361a8.138,8.138,0,0,1,8.973,0l3.138,2.108A4.856,4.856,0,0,1,152,12.43v16.99c-5.712,0-5.712,4.9-11.425,4.9-5.737,0-5.737-4.9-11.449-4.9C123.39,29.419,123.39,34.323,117.677,34.323Z" fill="#e6e9ed"/>
          </g>
          <g id="Grupo_101769" data-name="Grupo 101769">
            <path id="Trazado_157698" data-name="Trazado 157698" d="M152,29.419V41.506a4.856,4.856,0,0,1-2.182,4.07l-3.138,2.108a8.138,8.138,0,0,1-8.973,0l-20.03-13.361c5.712,0,5.712-4.9,11.449-4.9,5.712,0,5.712,4.9,11.449,4.9,5.712,0,5.712-4.9,11.425-4.9Z" fill="#69d6f4"/>
          </g>
        </g>
        <g id="Grupo_101771" data-name="Grupo 101771">
          <path id="Trazado_157699" data-name="Trazado 157699" d="M151.176,6.31l-3.131-2.089a10.719,10.719,0,0,0-11.7,0l-19.409,12.94H100.516a4.908,4.908,0,0,0-4.9-4.9h-4.9a4.908,4.908,0,0,0-4.9,4.9V32.322a7.345,7.345,0,0,0-4.9,6.9V56.387h4.9V39.226a2.416,2.416,0,0,1,.238-1.02,4.895,4.895,0,0,0,4.665,3.471h4.9a4.908,4.908,0,0,0,4.9-4.9h16.418l19.407,12.937a10.547,10.547,0,0,0,11.7,0l3.131-2.089a7.337,7.337,0,0,0,3.275-6.117V12.43a7.345,7.345,0,0,0-3.275-6.119ZM95.613,36.774h-4.9l0-19.613h4.906Zm4.9-4.9V22.065h4.9v4.9h4.9v-4.9h4.9v4.9h4.9V20.925L139.063,8.3a5.737,5.737,0,0,1,6.264,0l3.131,2.089a2.444,2.444,0,0,1,1.091,2.037V27.242a11.075,11.075,0,0,0-4.862,2.768c-1.307,1.12-2.17,1.861-4.124,1.861s-2.819-.74-4.126-1.861a10.319,10.319,0,0,0-14.634,0c-1.307,1.12-2.172,1.861-4.126,1.861Zm47.941,11.675-3.131,2.089a5.737,5.737,0,0,1-6.264,0L123.26,35.1A20.275,20.275,0,0,0,125,33.734c1.3-1.123,2.17-1.863,4.124-1.863s2.817.74,4.126,1.861a10.314,10.314,0,0,0,14.629,0,10.886,10.886,0,0,1,1.67-1.253v9.027A2.443,2.443,0,0,1,148.457,43.546Z" fill="#12263f"/>
          <path id="Trazado_157700" data-name="Trazado 157700" d="M14.71,36.774H56.387a4.908,4.908,0,0,0,4.9,4.9h4.9a4.895,4.895,0,0,0,4.665-3.471,2.416,2.416,0,0,1,.238,1.02V56.387H76V39.226a7.345,7.345,0,0,0-4.9-6.9V12.258a4.908,4.908,0,0,0-4.9-4.9h-4.9a4.908,4.908,0,0,0-4.9,4.9H14.71a12.258,12.258,0,1,0,0,24.516ZM61.29,12.258h4.9V36.774h-4.9Zm-46.581,4.9h2.452v9.806h4.9V17.161h4.9v4.9h4.9v-4.9h4.9v9.806h4.9V17.161h4.9v4.9h4.9v-4.9h4.9v14.71H14.71a7.355,7.355,0,1,1,0-14.71Z" fill="#12263f"/>
          <path id="Trazado_157701" data-name="Trazado 157701" d="M83.355,129.935a7.355,7.355,0,1,0,7.355,7.355A7.364,7.364,0,0,0,83.355,129.935Zm0,9.806a2.452,2.452,0,1,1,2.452-2.452A2.456,2.456,0,0,1,83.355,139.742Z" fill="#12263f"/>
          <path id="Trazado_157702" data-name="Trazado 157702" d="M88.258,105.419a7.355,7.355,0,1,0,7.355,7.355A7.364,7.364,0,0,0,88.258,105.419Zm0,9.806a2.452,2.452,0,1,1,2.452-2.452A2.456,2.456,0,0,1,88.258,115.226Z" fill="#12263f"/>
          <path id="Trazado_157703" data-name="Trazado 157703" d="M7.355,58.839A17.161,17.161,0,1,0,24.516,41.677,17.18,17.18,0,0,0,7.355,58.839Zm29.419,0A12.258,12.258,0,1,1,24.516,46.581,12.272,12.272,0,0,1,36.774,58.839Z" fill="#12263f"/>
          <path id="Trazado_157704" data-name="Trazado 157704" d="M24.516,56.387a2.456,2.456,0,0,1,2.452,2.452h4.9a7.364,7.364,0,0,0-7.355-7.355Z" fill="#12263f"/>
          <path id="Trazado_157705" data-name="Trazado 157705" d="M39.226,129.935a7.355,7.355,0,1,0,7.355,7.355A7.364,7.364,0,0,0,39.226,129.935Zm0,9.806a2.452,2.452,0,1,1,2.452-2.452A2.456,2.456,0,0,1,39.226,139.742Z" fill="#12263f"/>
          <path id="Trazado_157706" data-name="Trazado 157706" d="M145.846,126.42a12.222,12.222,0,0,0-11.16-20.709,17.18,17.18,0,0,0-15.445-14.923A14.667,14.667,0,0,0,105.419,71.1a14.841,14.841,0,0,0-2.665.24,12.227,12.227,0,0,0-7.142-19.606V46.581h-4.9V61.29h4.9V56.838A7.32,7.32,0,0,1,98.7,68.572a14.665,14.665,0,0,0-20.25,4.217A14.665,14.665,0,0,0,58.2,68.572,7.32,7.32,0,0,1,61.29,56.838V61.29h4.9V46.581h-4.9v5.151a12.227,12.227,0,0,0-7.142,19.606A14.725,14.725,0,0,0,36.774,85.806a14.607,14.607,0,0,0,.887,4.982,17.175,17.175,0,0,0-15.445,14.923,12.229,12.229,0,0,0-11.16,20.709,14.673,14.673,0,0,0,6.1,28.032H139.742a14.673,14.673,0,0,0,6.1-28.032Zm-1.2-8.742a7.334,7.334,0,0,1-2.623,5.631,17.172,17.172,0,0,0-11.714-7.83,7.334,7.334,0,0,1,14.337,2.2ZM90.71,71.1a9.816,9.816,0,0,1,9.806,9.806h4.9a14.572,14.572,0,0,0-.831-4.827c.277-.025.549-.076.831-.076a9.775,9.775,0,0,1,4.9,18.25V90.71a4.908,4.908,0,0,0-4.9-4.9H80.9V80.9A9.816,9.816,0,0,1,90.71,71.1Zm-39.226,29.87v13.805a7.31,7.31,0,0,1,0-13.805Zm0-5.354v-4.9h53.935l0,4.9H51.484Zm53.935,5.354a7.312,7.312,0,0,1,0,13.807ZM51.484,76c.282,0,.554.051.831.076a14.572,14.572,0,0,0-.831,4.827h4.9A9.806,9.806,0,0,1,76,80.9v4.9H51.484a4.908,4.908,0,0,0-4.9,4.9v3.54A9.775,9.775,0,0,1,51.484,76ZM19.613,110.323a7.305,7.305,0,0,1,6.955,5.161,17.171,17.171,0,0,0-11.687,7.828,7.357,7.357,0,0,1,4.732-12.989ZM7.355,139.742a9.827,9.827,0,0,1,4.962-8.507c-.027.382-.059.762-.059,1.152a17.345,17.345,0,0,0,.238,2.859l4.837-.814a12.071,12.071,0,0,1-.172-2.045,12.262,12.262,0,0,1,18.385-10.62L38,117.525a17.116,17.116,0,0,0-6.364-2.153,12.228,12.228,0,0,0-4.668-7.436c0-.022,0-.044,0-.066a11.934,11.934,0,0,1,13.7-12.131,14.793,14.793,0,0,0,4.67,3.413,12.243,12.243,0,0,0,6.146,20.728v22.312A12.131,12.131,0,0,0,54,149.548H17.161a9.816,9.816,0,0,1-9.806-9.806Zm56.387,9.806a7.364,7.364,0,0,1-7.355-7.355v-2.452h9.806v-4.9H56.387v-4.9H71.1v-4.9H56.387v-4.9h9.806v-4.9H56.387v-4.9H71.1v-4.9H56.387v-4.9h44.129v41.677a7.364,7.364,0,0,1-7.355,7.355Zm76,0H102.9a12.131,12.131,0,0,0,2.515-7.355V119.881a12.243,12.243,0,0,0,6.146-20.728,14.718,14.718,0,0,0,4.67-3.413,11.934,11.934,0,0,1,13.7,12.131c0,.022,0,.044,0,.066a12.239,12.239,0,0,0-4.668,7.436,17.116,17.116,0,0,0-6.364,2.153l2.457,4.241a12.268,12.268,0,0,1,18.215,12.665l4.837.814a17.615,17.615,0,0,0,.235-2.859c0-.39-.032-.77-.059-1.152a9.794,9.794,0,0,1-4.844,18.314Z" fill="#12263f"/>
          <path id="Trazado_157707" data-name="Trazado 157707" d="M117.677,129.935a7.355,7.355,0,1,0,7.355,7.355A7.364,7.364,0,0,0,117.677,129.935Zm0,9.806a2.452,2.452,0,1,1,2.452-2.452A2.456,2.456,0,0,1,117.677,139.742Z" fill="#12263f"/>
          <path id="Trazado_157708" data-name="Trazado 157708" d="M142.194,68.645A12.258,12.258,0,1,0,154.452,80.9,12.272,12.272,0,0,0,142.194,68.645Zm0,19.613a7.355,7.355,0,1,1,7.355-7.355A7.364,7.364,0,0,1,142.194,88.258Z" fill="#12263f"/>
          <path id="Trazado_157709" data-name="Trazado 157709" d="M125.032,58.839a7.355,7.355,0,1,0-7.355,7.355A7.364,7.364,0,0,0,125.032,58.839Zm-9.806,0a2.452,2.452,0,1,1,2.452,2.452A2.456,2.456,0,0,1,115.226,58.839Z" fill="#12263f"/>
        </g>
      </g>
    </g>
  </g>
</svg>
