<svg xmlns="http://www.w3.org/2000/svg" xmlns:xlink="http://www.w3.org/1999/xlink" width="179" height="179" viewBox="0 0 179 179">
  <defs>
    <clipPath id="clip-path">
      <rect id="Rect치ngulo_35657" data-name="Rect치ngulo 35657" width="152" height="152" rx="20" transform="translate(719 114)" fill="#3ca8f4"/>
    </clipPath>
  </defs>
  <g id="Grupo_102478" data-name="Grupo 102478" transform="translate(-705 -100)">
    <rect id="Rect치ngulo_35492" data-name="Rect치ngulo 35492" width="179" height="179" rx="20" transform="translate(705 100)" fill="#7ae582"/>
    <g id="Enmascarar_grupo_99" data-name="Enmascarar grupo 99" clip-path="url(#clip-path)">
      <g id="quimica" transform="translate(716.548 111.549)">
        <g id="Grupo_101798" data-name="Grupo 101798">
          <g id="Grupo_101772" data-name="Grupo 101772">
            <path id="Trazado_157710" data-name="Trazado 157710" d="M51.484,102.968l4.241,29.64v.025a3.944,3.944,0,0,0-1.422-.245,4.544,4.544,0,0,0-4.07,2.5l-1.2,2.4H41.677l4.9-34.323Z" fill="#ffeaa7"/>
          </g>
          <g id="Grupo_101773" data-name="Grupo 101773">
            <path id="Trazado_157711" data-name="Trazado 157711" d="M55.774,96.52l-4.29,6.448h-4.9l-4.29-6.423,6.742-3.383Z" fill="#fcd770"/>
          </g>
          <g id="Grupo_101774" data-name="Grupo 101774">
            <path id="Trazado_157712" data-name="Trazado 157712" d="M63.742,125.032v12.7a6.8,6.8,0,0,0-2.452-.441H58.839v-.368a4.5,4.5,0,0,0-3.114-4.29v-.025l-4.241-29.64,4.29-6.448,7.968,4Z" fill="#b4dd7f"/>
          </g>
          <g id="Grupo_101775" data-name="Grupo 101775">
            <path id="Trazado_157713" data-name="Trazado 157713" d="M42.29,96.545l4.29,6.423-4.9,34.323H34.323V100.516Z" fill="#b4dd7f"/>
          </g>
          <g id="Grupo_101776" data-name="Grupo 101776">
            <path id="Trazado_157714" data-name="Trazado 157714" d="M63.742,83.355v17.161l-7.968-4-6.742-3.359,9.806-9.806Z" fill="#a0d468"/>
          </g>
          <g id="Grupo_101777" data-name="Grupo 101777">
            <path id="Trazado_157715" data-name="Trazado 157715" d="M49.032,93.161,42.29,96.545l-7.968,3.972V84.041a35.767,35.767,0,0,1,4.9-.686Z" fill="#a0d468"/>
          </g>
          <g id="Grupo_101778" data-name="Grupo 101778">
            <path id="Trazado_157716" data-name="Trazado 157716" d="M73.548,83.355a39.215,39.215,0,0,0,39.226-39.226v7.355a4.939,4.939,0,0,0,4.9,4.9,4.918,4.918,0,0,0,4.9-4.9v-4.9a4.939,4.939,0,0,0,4.9,4.9V58.3a51.486,51.486,0,0,1-19.613,40.452V95.613a2.459,2.459,0,0,0-2.452-2.452h-4.9a2.459,2.459,0,0,0-2.452,2.452v9.218A52.751,52.751,0,0,1,86.1,108.8l-7.649,1.52v12.258H66.194a2.459,2.459,0,0,0-2.452,2.452V83.355Z" fill="#e6e9ed"/>
          </g>
          <g id="Grupo_101779" data-name="Grupo 101779">
            <path id="Trazado_157717" data-name="Trazado 157717" d="M34.323,137.29h14.71V152H29.419A24.525,24.525,0,0,1,4.9,127.484v-7.257A36.933,36.933,0,0,1,34.323,84.041V137.29Z" fill="#e6e9ed"/>
          </g>
          <g id="Grupo_101780" data-name="Grupo 101780">
            <path id="Trazado_157718" data-name="Trazado 157718" d="M122.581,19.613V31.871h-9.806V19.613a4.918,4.918,0,0,1,4.9-4.9,4.939,4.939,0,0,1,4.9,4.9Z" fill="#ccd1d9"/>
          </g>
          <g id="Grupo_101781" data-name="Grupo 101781">
            <path id="Trazado_157719" data-name="Trazado 157719" d="M122.581,46.581v4.9a4.918,4.918,0,0,1-4.9,4.9,4.939,4.939,0,0,1-4.9-4.9V31.871h9.806v14.71Z" fill="#69d6f4"/>
          </g>
          <g id="Grupo_101782" data-name="Grupo 101782">
            <path id="Trazado_157720" data-name="Trazado 157720" d="M88.258,44.129a14.721,14.721,0,0,1-14.71,14.71h-.172a12.6,12.6,0,0,0,.172-2.157v-8.09a7.326,7.326,0,0,0,0-13.827V29.419a4.918,4.918,0,0,0-4.9-4.9H49.032a9.8,9.8,0,0,0-9.806,9.806v4.9H35.475a6.053,6.053,0,0,0-2.7,11.474l6.448,3.236V72.225a9.537,9.537,0,0,1-4.9,1.324,9.8,9.8,0,0,1-9.806-9.806,9.8,9.8,0,0,1-7.11-16.548,14.706,14.706,0,0,1,7.11-27.581A14.721,14.721,0,0,1,39.226,4.9a14.54,14.54,0,0,1,9.806,3.775,14.675,14.675,0,0,1,21.133,1.545,13.9,13.9,0,0,1,3.383-.417,14.721,14.721,0,0,1,14.71,14.71,14.54,14.54,0,0,1-3.775,9.806A14.54,14.54,0,0,1,88.258,44.129Z" fill="#656d78"/>
          </g>
          <g id="Grupo_101783" data-name="Grupo 101783">
            <path id="Trazado_157721" data-name="Trazado 157721" d="M73.548,34.739v.025a6.8,6.8,0,0,0-2.452-.441,7.276,7.276,0,0,0-6.914,4.9H53.543l-.049.025a7.319,7.319,0,0,0-13.876.123l-.392-.147v-4.9a9.8,9.8,0,0,1,9.806-9.806H68.645a4.918,4.918,0,0,1,4.9,4.9Z" fill="#f0d0b4"/>
          </g>
          <g id="Grupo_101784" data-name="Grupo 101784">
            <path id="Trazado_157722" data-name="Trazado 157722" d="M73.548,48.615v8.066a12.6,12.6,0,0,1-.172,2.157,16.75,16.75,0,0,1-16.4,14.685v.025l1.863,9.806-9.806,9.806-9.806-9.806V53.935L32.778,50.7a6.053,6.053,0,0,1,2.7-11.474h3.751l.392.147a6.5,6.5,0,0,0-.392,2.3,7.355,7.355,0,0,0,14.71,0,6.664,6.664,0,0,0-.441-2.427l.049-.025h10.64a6.8,6.8,0,0,0-.441,2.452A7.345,7.345,0,0,0,71.1,49.032a6.8,6.8,0,0,0,2.452-.441Z" fill="#f0d0b4"/>
          </g>
          <g id="Grupo_101785" data-name="Grupo 101785">
            <path id="Trazado_157723" data-name="Trazado 157723" d="M71.1,34.323a6.8,6.8,0,0,1,2.452.441,7.326,7.326,0,0,1,0,13.827,6.8,6.8,0,0,1-2.452.441,7.345,7.345,0,0,1-7.355-7.355,6.8,6.8,0,0,1,.441-2.452A7.276,7.276,0,0,1,71.1,34.323Z" fill="#69d6f4"/>
          </g>
          <g id="Grupo_101786" data-name="Grupo 101786">
            <path id="Trazado_157724" data-name="Trazado 157724" d="M53.494,39.25a6.664,6.664,0,0,1,.441,2.427,7.355,7.355,0,0,1-14.71,0,6.5,6.5,0,0,1,.392-2.3,7.319,7.319,0,0,1,13.876-.123Z" fill="#69d6f4"/>
          </g>
          <g id="Grupo_101787" data-name="Grupo 101787">
            <path id="Trazado_157725" data-name="Trazado 157725" d="M132.387,46.581a4.918,4.918,0,0,1-4.9,4.9,4.939,4.939,0,0,1-4.9-4.9V36.774a4.918,4.918,0,0,1,4.9-4.9,4.939,4.939,0,0,1,4.9,4.9Z" fill="#f0d0b4"/>
          </g>
          <g id="Grupo_101788" data-name="Grupo 101788">
            <path id="Trazado_157726" data-name="Trazado 157726" d="M111.328,33.317a4.9,4.9,0,0,1-3.457,8.36,4.918,4.918,0,0,1-4.9-4.9,4.889,4.889,0,0,1,8.36-3.457Z" fill="#f0d0b4"/>
          </g>
          <g id="Grupo_101789" data-name="Grupo 101789">
            <path id="Trazado_157727" data-name="Trazado 157727" d="M68.645,144.645a7.328,7.328,0,0,1-3.236,6.1h-.025A7.339,7.339,0,0,1,61.29,152H49.032V137.29l1.2-2.4a4.544,4.544,0,0,1,4.07-2.5,3.944,3.944,0,0,1,1.422.245,4.5,4.5,0,0,1,3.114,4.29v.368H61.29a6.8,6.8,0,0,1,2.452.441,6.957,6.957,0,0,1,2.746,1.716A7.337,7.337,0,0,1,68.645,144.645Z" fill="#f0d0b4"/>
          </g>
          <g id="Grupo_101790" data-name="Grupo 101790">
            <path id="Trazado_157728" data-name="Trazado 157728" d="M88.258,142.194v4.9a4.917,4.917,0,0,1-2.231,4.119,5.016,5.016,0,0,1-2.672.785H68.645a4.757,4.757,0,0,1-3.236-1.25,7.36,7.36,0,0,0,1.079-11.3,6.957,6.957,0,0,0-2.746-1.716v-12.7a2.459,2.459,0,0,1,2.452-2.452H85.806a2.459,2.459,0,0,1,2.452,2.452v17.161Z" fill="#ffeaa7"/>
          </g>
          <g id="Grupo_101791" data-name="Grupo 101791">
            <path id="Trazado_157729" data-name="Trazado 157729" d="M137.29,95.613v12.258h-9.806V95.613a2.459,2.459,0,0,1,2.452-2.452h4.9A2.459,2.459,0,0,1,137.29,95.613Z" fill="#cf9e76"/>
          </g>
          <g id="Grupo_101792" data-name="Grupo 101792">
            <path id="Trazado_157730" data-name="Trazado 157730" d="M107.871,98.751v9.12H98.065V95.613a2.459,2.459,0,0,1,2.452-2.452h4.9a2.459,2.459,0,0,1,2.452,2.452Z" fill="#cf9e76"/>
          </g>
          <g id="Grupo_101793" data-name="Grupo 101793">
            <path id="Trazado_157731" data-name="Trazado 157731" d="M98.065,107.871h9.806v9.806H98.065Z" fill="#ccd1d9"/>
          </g>
          <g id="Grupo_101794" data-name="Grupo 101794">
            <path id="Trazado_157732" data-name="Trazado 157732" d="M109.514,137.29c-6.546,0-6.546,4.9-13.092,4.9-4.315,0-5.786-2.133-8.164-3.6v-.49l9.806-13.067v-7.355h9.806v7.355l5.59,7.453,7.159,9.537C115.961,141.164,115.3,137.29,109.514,137.29Z" fill="#e6e9ed"/>
          </g>
          <g id="Grupo_101795" data-name="Grupo 101795">
            <path id="Trazado_157733" data-name="Trazado 157733" d="M152,136.972a1.4,1.4,0,0,1-.025.319c-6.521-.025-6.521-4.9-13.043-4.9-6.546,0-6.546,4.9-13.092,4.9-6.276,0-6.521-4.535-12.356-4.879a14.925,14.925,0,0,1,4.707-6.987l9.292-7.747v-9.806h9.806v9.806l9.292,7.747A15.04,15.04,0,0,1,152,136.972Z" fill="#e6e9ed"/>
          </g>
          <g id="Grupo_101796" data-name="Grupo 101796">
            <path id="Trazado_157734" data-name="Trazado 157734" d="M88.258,138.59c2.378,1.471,3.849,3.6,8.164,3.6,6.546,0,6.546-4.9,13.092-4.9,5.786,0,6.448,3.874,11.106,4.732l.858,1.152a5.51,5.51,0,0,1-.49,7.183l-.025.025a5.484,5.484,0,0,1-3.9,1.618H88.871a5.625,5.625,0,0,1-2.844-.785,4.917,4.917,0,0,0,2.231-4.119V138.59Z" fill="#4fc1e9"/>
          </g>
          <g id="Grupo_101797" data-name="Grupo 101797">
            <path id="Trazado_157735" data-name="Trazado 157735" d="M113.485,132.412c5.835.343,6.08,4.879,12.356,4.879,6.546,0,6.546-4.9,13.092-4.9,6.521,0,6.521,4.879,13.043,4.9a14.975,14.975,0,0,1-15,14.71H127.8a14.8,14.8,0,0,1-6.815-1.643,5.51,5.51,0,0,0,.49-7.183l-.858-1.152-7.159-9.537c0-.025.025-.049.025-.074Z" fill="#69d6f4"/>
          </g>
        </g>
        <g id="Grupo_101799" data-name="Grupo 101799">
          <path id="Trazado_157736" data-name="Trazado 157736" d="M61.29,58.26a5.482,5.482,0,0,1-9.806,0l-.257-.517-4.386,2.194.257.515a10.385,10.385,0,0,0,18.578,0l.257-.517L61.548,57.74Z" fill="#12263f"/>
          <path id="Trazado_157737" data-name="Trazado 157737" d="M148.166,123.547l-8.424-7.017V95.613a4.908,4.908,0,0,0-4.9-4.9h-4.9a4.908,4.908,0,0,0-4.9,4.9V116.53l-8.424,7.017a17.394,17.394,0,0,0-3.626,4.214l-2.66-3.545V99.893a53.625,53.625,0,0,0,19.613-41.582V53.487a7.345,7.345,0,0,0,4.9-6.9V36.777a7.364,7.364,0,0,0-7.355-7.355,7.272,7.272,0,0,0-2.452.451V19.613a7.355,7.355,0,0,0-14.71,0V29.87a7.272,7.272,0,0,0-2.452-.451,7.355,7.355,0,0,0,0,14.71,7.272,7.272,0,0,0,2.452-.451v.451A36.816,36.816,0,0,1,73.548,80.9H60.869l-.983-5.193A19.351,19.351,0,0,0,75.448,61.18,17.135,17.135,0,0,0,87.613,34.323,17.137,17.137,0,0,0,71.043,7.549a17.124,17.124,0,0,0-22.011-2A17.141,17.141,0,0,0,22.217,17.316a17.158,17.158,0,0,0-8.3,30.5,12.14,12.14,0,0,0-1.655,6.124A12.28,12.28,0,0,0,22.27,65.988a12.121,12.121,0,0,0,14.5,9.738v5.457A39.532,39.532,0,0,0,2.452,120.217v7.267a27,27,0,0,0,26.968,26.968H61.29a9.721,9.721,0,0,0,3.969-.856,7.324,7.324,0,0,0,3.386.856h14.71a7.287,7.287,0,0,0,2.7-.53,7.975,7.975,0,0,0,2.814.53h28.194a7.9,7.9,0,0,0,4.266-1.263,17.54,17.54,0,0,0,6.47,1.263h9.174a17.48,17.48,0,0,0,11.192-30.905ZM134.839,95.613v9.806h-4.9V95.613Zm-15.087,31.7,10.184-8.487v-8.5h4.9v8.5l10.184,8.487a12.536,12.536,0,0,1,4.241,7.019,11.144,11.144,0,0,1-2.331-1.454,12.377,12.377,0,0,0-16.021,0,7.521,7.521,0,0,1-10.13,0,14.584,14.584,0,0,0-3.807-2.238,12.454,12.454,0,0,1,2.778-3.327ZM112.4,135.16a12.812,12.812,0,0,0-2.9-.321,12.043,12.043,0,0,0-8.009,2.942,7.28,7.28,0,0,1-5.067,1.961,7.12,7.12,0,0,1-4.93-1.863l9.022-12.03v-5.72h4.9v5.72ZM80.9,112.333l5.673-1.135a54.225,54.225,0,0,0,9.037-2.655v15.673l-4.9,6.538v-5.722a4.908,4.908,0,0,0-4.9-4.9H80.9Zm24.516,2.893h-4.9v-4.9h4.9Zm0-9.806h-4.9V95.613h4.9Zm22.065-71.1a2.454,2.454,0,0,1,2.452,2.452v9.806a2.452,2.452,0,1,1-4.9,0V36.774A2.454,2.454,0,0,1,127.484,34.323Zm-9.806-17.161a2.454,2.454,0,0,1,2.452,2.452v9.806h-4.9V19.613A2.454,2.454,0,0,1,117.677,17.161Zm-9.806,22.065a2.452,2.452,0,1,1,2.452-2.452A2.454,2.454,0,0,1,107.871,39.226Zm7.355-4.9h4.9V51.484a2.452,2.452,0,1,1-4.9,0ZM113.1,57.194a7.277,7.277,0,0,0,11.65-3.8c.091.037.191.054.284.088v4.827a48.72,48.72,0,0,1-15.1,35.382,4.9,4.9,0,0,0-4.509-2.984h-4.9a4.908,4.908,0,0,0-4.9,4.9v7.615a49.2,49.2,0,0,1-10,3.163l-4.712.941v-6.815H76v19.613H66.194V85.806h7.355A41.727,41.727,0,0,0,113.1,57.194ZM61.29,134.839h-.321a7,7,0,0,0-3-3.834l-3.923-27.458,2.569-3.854,4.678,2.339ZM48.034,133.8l-.517,1.035H44.5l4.2-29.419h.65l3.53,24.712A6.909,6.909,0,0,0,48.034,133.8Zm-9.7-47.875,6.561,6.561-8.12,4.06V86.118c.515-.078,1.037-.135,1.559-.189Zm21.52-.123H61.29V96.549l-8.12-4.06Zm-9.681,14.71h-2.28L45.87,97.483,49.032,95.9l3.163,1.581Zm-13.4,1.515,4.678-2.339,2.569,3.854-4.472,31.292H36.774ZM71.1,56.674A14.421,14.421,0,0,1,52.114,70.356L47.358,68.77l-1.552,4.651,4.756,1.586a19.343,19.343,0,0,0,4.361.851l1.265,6.678-7.156,7.159L41.677,82.34V52.42l-7.813-3.905a3.61,3.61,0,0,1,1.616-6.838h1.294a9.806,9.806,0,1,0,19.613,0h4.9A9.816,9.816,0,0,0,71.1,51.484ZM68.645,26.968A2.454,2.454,0,0,1,71.1,29.419v2.452a9.775,9.775,0,0,0-8.443,4.9H55.022a9.637,9.637,0,0,0-13.231-3.6,7.353,7.353,0,0,1,7.242-6.205ZM71.1,46.581a4.9,4.9,0,1,1,4.9-4.9A4.908,4.908,0,0,1,71.1,46.581ZM46.581,36.774a4.9,4.9,0,1,1-4.9,4.9A4.908,4.908,0,0,1,46.581,36.774ZM34.323,71.1a7.364,7.364,0,0,1-7.355-7.355V61.29H24.516a7.333,7.333,0,0,1-5.322-12.4l2.182-2.3L18.6,45.058a12.258,12.258,0,0,1,5.916-22.994h2.452V19.613A12.242,12.242,0,0,1,47.4,10.5l1.635,1.466L50.667,10.5a12.233,12.233,0,0,1,17.6,1.287l.971,1.169,1.481-.351A12.235,12.235,0,0,1,82.666,32.685l-1.471,1.638,1.471,1.638A12.238,12.238,0,0,1,76,56.139V50.121a9.721,9.721,0,0,0,0-16.887V29.419a7.364,7.364,0,0,0-7.355-7.355H58.839a2.452,2.452,0,1,1,0-4.9H61.29v-4.9H58.839a7.364,7.364,0,0,0-7.355,7.355,7.272,7.272,0,0,0,.451,2.452h-2.9A12.272,12.272,0,0,0,36.774,34.323v2.452H35.48A8.512,8.512,0,0,0,31.672,52.9l5.1,2.552V70.621a7.321,7.321,0,0,1-2.452.476ZM7.355,127.484v-7.267A34.636,34.636,0,0,1,31.871,87.231v47.608H29.419a7.364,7.364,0,0,1-7.355-7.355V110.323h-4.9v17.161a12.272,12.272,0,0,0,12.258,12.258H46.581v9.806H29.419A22.09,22.09,0,0,1,7.355,127.484Zm44.129,22.065V137.869L52.42,136a2.094,2.094,0,0,1,3.967.937v2.81h4.9a4.9,4.9,0,1,1,0,9.806Zm18.25,0a9.65,9.65,0,0,0-3.54-13.347v-11.17H85.806v4.9H76v4.9h9.806v4.9H80.9v4.9h4.9V147.1a2.454,2.454,0,0,1-2.452,2.452Zm47.331,0H90.259a7.272,7.272,0,0,0,.451-2.452v-3.854a11.341,11.341,0,0,0,5.715,1.4,12.043,12.043,0,0,0,8.009-2.942,7.53,7.53,0,0,1,10.137,0,13.8,13.8,0,0,0,4.577,2.452l.368.49a3.065,3.065,0,0,1-2.452,4.9Zm19.91,0H127.8a12.6,12.6,0,0,1-3.248-.436,7.855,7.855,0,0,0,.481-2.628,8.008,8.008,0,0,0-1.594-4.781l-2.094-2.792a11.7,11.7,0,0,0,4.5.831,12.043,12.043,0,0,0,8.009-2.942,7.53,7.53,0,0,1,10.137,0,12.819,12.819,0,0,0,5.305,2.67,12.6,12.6,0,0,1-12.322,10.079Z" fill="#12263f"/>
        </g>
      </g>
    </g>
  </g>
</svg>
