<svg xmlns="http://www.w3.org/2000/svg" xmlns:xlink="http://www.w3.org/1999/xlink" width="179" height="179" viewBox="0 0 179 179">
  <defs>
    <clipPath id="clip-path">
      <rect id="Rect치ngulo_35660" data-name="Rect치ngulo 35660" width="152" height="152" rx="20" transform="translate(434 472)" fill="#3ca8f4"/>
    </clipPath>
  </defs>
  <g id="Grupo_102481" data-name="Grupo 102481" transform="translate(-420 -458)">
    <rect id="Rect치ngulo_35502" data-name="Rect치ngulo 35502" width="179" height="179" rx="20" transform="translate(420 458)" fill="#7ae582"/>
    <g id="Enmascarar_grupo_101" data-name="Enmascarar grupo 101" clip-path="url(#clip-path)">
      <g id="chimney" transform="translate(429.878 466.975)">
        <path id="Trazado_158136" data-name="Trazado 158136" d="M148.563,7.554A5.036,5.036,0,0,1,149.62,17.5a10.031,10.031,0,1,1-17.35,10.073,11.957,11.957,0,0,1-1.333.125,9.41,9.41,0,0,1-2.543-.378c0,.126.025.252.025.378a5.036,5.036,0,1,1-6.094-4.91,10.031,10.031,0,1,1,17.35-10.073,11.955,11.955,0,0,1,1.333-.125,9.41,9.41,0,0,1,2.543.378c0-.126-.025-.252-.025-.378A5.051,5.051,0,0,1,148.563,7.554Z" fill="#ffe477"/>
        <path id="Trazado_158137" data-name="Trazado 158137" d="M153.6,143.527a10.072,10.072,0,1,1-20.144,0c0-7.554,10.072-20.144,10.072-20.144S153.6,135.973,153.6,143.527Z" fill="#ff5023"/>
        <circle id="Elipse_4570" data-name="Elipse 4570" cx="5.036" cy="5.036" r="5.036" transform="translate(138.491 42.806)" fill="#e0e0e2"/>
        <path id="Trazado_158138" data-name="Trazado 158138" d="M143.527,83.094a10.072,10.072,0,1,1-20.144,0c0-7.554,10.072-20.144,10.072-20.144S143.527,75.54,143.527,83.094Z" fill="#ff5023"/>
        <path id="Trazado_158139" data-name="Trazado 158139" d="M133.455,118.347a10.072,10.072,0,0,1-20.144,0c0-7.554,10.072-20.144,10.072-20.144S133.455,110.792,133.455,118.347Z" fill="#ff5023"/>
        <g id="Grupo_101939" data-name="Grupo 101939">
          <path id="Trazado_158140" data-name="Trazado 158140" d="M153.6,143.527a10.059,10.059,0,0,1-19.238,4.13,9.9,9.9,0,0,0,4.13.906,10.072,10.072,0,0,0,10.072-10.072c0-4.155-3.047-9.845-5.791-14.1.453-.655.755-1.007.755-1.007S153.6,135.973,153.6,143.527Z" fill="#cd2a00"/>
          <path id="Trazado_158141" data-name="Trazado 158141" d="M143.527,83.094a10.059,10.059,0,0,1-19.238,4.13,9.9,9.9,0,0,0,4.13.906,10.072,10.072,0,0,0,10.072-10.072c0-4.155-3.047-9.845-5.791-14.1.453-.655.755-1.007.755-1.007S143.527,75.54,143.527,83.094Z" fill="#cd2a00"/>
          <path id="Trazado_158142" data-name="Trazado 158142" d="M133.455,118.347a10.059,10.059,0,0,1-19.238,4.13,9.9,9.9,0,0,0,4.13.906,10.072,10.072,0,0,0,10.072-10.072c0-4.155-3.047-9.845-5.791-14.1.453-.655.755-1.007.755-1.007S133.455,110.792,133.455,118.347Z" fill="#cd2a00"/>
        </g>
        <path id="Trazado_158143" data-name="Trazado 158143" d="M126.732,48.648a5.036,5.036,0,1,1-7.1,7.126L105.379,41.522a5.036,5.036,0,1,1,7.126-7.1Z" fill="#00d7df"/>
        <path id="Trazado_158144" data-name="Trazado 158144" d="M126.732,55.774a4.986,4.986,0,0,1-7.1,0l-1.788-1.788-.025-.025a4.955,4.955,0,0,0-1.158-5.313L104.22,36.209a5.081,5.081,0,0,1,1.158-1.788,5.016,5.016,0,0,1,7.126,0l14.227,14.227a5,5,0,0,1,0,7.126Z" fill="#00b6bd"/>
        <path id="Trazado_158145" data-name="Trazado 158145" d="M97.5,74.332A50.36,50.36,0,1,1,86.821,63.655L107.167,43.31l10.676,10.676Z" fill="#00d7df"/>
        <path id="Trazado_158146" data-name="Trazado 158146" d="M97.5,74.332a50.333,50.333,0,0,1-76.119,65.443,46.893,46.893,0,0,1-4.658-5.414,50.312,50.312,0,0,0,70.706-70.1l20.346-20.346,10.072,10.072Z" fill="#00b6bd"/>
        <circle id="Elipse_4571" data-name="Elipse 4571" cx="5.036" cy="5.036" r="5.036" transform="translate(98.202 7.554)" fill="#e0e0e2"/>
        <circle id="Elipse_4572" data-name="Elipse 4572" cx="5.036" cy="5.036" r="5.036" transform="translate(85.612 22.662)" fill="#e0e0e2"/>
        <path id="Trazado_158147" data-name="Trazado 158147" d="M85.486,75.666A40.293,40.293,0,0,1,28.5,132.649l-1.763-1.788c4.734-4.734,11.86,2.367,16.594-2.367s-2.367-11.86,2.367-16.619,11.885,2.392,16.619-2.367-2.367-11.86,2.367-16.619,11.885,2.367,16.644-2.367S78.965,78.638,83.7,73.878Z" fill="#ff5023"/>
        <path id="Trazado_158148" data-name="Trazado 158148" d="M85.486,132.649a40.333,40.333,0,0,1-56.983,0l-1.763-1.788a5.716,5.716,0,0,1,1.486-1.083A40.288,40.288,0,0,0,82.616,75.389,5.426,5.426,0,0,1,83.7,73.878l1.788,1.788A40.334,40.334,0,0,1,85.486,132.649Z" fill="#cd2a00"/>
        <circle id="Elipse_4573" data-name="Elipse 4573" cx="5.036" cy="5.036" r="5.036" transform="translate(65.468 65.468)" fill="#e0e0e2"/>
        <path id="Trazado_158149" data-name="Trazado 158149" d="M55.4,73.022a5.036,5.036,0,0,1,1.058,9.946A10.031,10.031,0,1,1,39.1,93.041a11.954,11.954,0,0,1-1.333.125,9.41,9.41,0,0,1-2.543-.378c0,.126.025.252.025.378a5.036,5.036,0,1,1-6.094-4.91,10.031,10.031,0,1,1,17.35-10.073,11.958,11.958,0,0,1,1.333-.125,9.41,9.41,0,0,1,2.543.378c0-.126-.025-.252-.025-.378A5.051,5.051,0,0,1,55.4,73.022Z" fill="#ffe477"/>
        <circle id="Elipse_4574" data-name="Elipse 4574" cx="5.036" cy="5.036" r="5.036" transform="translate(17.626 113.31)" fill="#e0e0e2"/>
        <path id="Trazado_158150" data-name="Trazado 158150" d="M128.519,46.885,114.267,32.633A7.554,7.554,0,0,0,103.591,43.31L86.544,60.357A52.881,52.881,0,1,0,100.8,74.609l17.047-17.047a7.554,7.554,0,1,0,10.676-10.676ZM95.735,72.544a2.518,2.518,0,0,0-.252,3.273A47.669,47.669,0,1,1,85.335,65.67a2.5,2.5,0,0,0,3.273-.252l18.558-18.533,7.1,7.1Zm29.234-18.558a2.538,2.538,0,0,1-3.576,0L107.167,39.759a2.519,2.519,0,1,1,3.55-3.576l14.252,14.252A2.518,2.518,0,0,1,124.969,53.986Z" fill="#12263f"/>
        <path id="Trazado_158151" data-name="Trazado 158151" d="M85.486,72.106a2.518,2.518,0,0,0-3.56,0c-3.329,3.329-2.518,7.353-1.881,10.576.589,2.949.856,4.684-.5,6.043s-3.092,1.088-6.043.5c-3.231-.647-7.257-1.448-10.576,1.878s-2.518,7.353-1.876,10.576c.592,2.949.859,4.681-.5,6.043s-3.082,1.085-6.031.5c-3.231-.647-7.252-1.45-10.576,1.873s-2.518,7.35-1.876,10.576c.589,2.949.859,4.681-.5,6.043s-3.09,1.085-6.043.5c-3.231-.65-7.254-1.455-10.576,1.873a2.518,2.518,0,0,0,0,3.56l1.78,1.78A42.816,42.816,0,0,0,87.267,73.886Zm-1.78,58.758a37.826,37.826,0,0,1-52.591.8,18.886,18.886,0,0,1,3.427.483c3.231.645,7.252,1.453,10.576-1.873s2.518-7.35,1.876-10.576c-.592-2.946-.859-4.678.5-6.043s3.082-1.085,6.043-.5c3.233.65,7.257,1.455,10.576-1.873s2.518-7.35,1.878-10.576c-.592-2.946-.859-4.681.5-6.043s3.09-1.088,6.043-.5c3.231.647,7.257,1.448,10.576-1.878S85.635,84.925,85,81.7a19.032,19.032,0,0,1-.481-3.44,37.826,37.826,0,0,1-.8,52.6Z" fill="#12263f"/>
        <path id="Trazado_158152" data-name="Trazado 158152" d="M151.081,47.842a7.554,7.554,0,1,0-7.554,7.554A7.554,7.554,0,0,0,151.081,47.842Zm-7.554,2.518a2.518,2.518,0,1,1,2.518-2.518A2.518,2.518,0,0,1,143.527,50.36Z" fill="#12263f"/>
        <path id="Trazado_158153" data-name="Trazado 158153" d="M90.648,35.252A7.554,7.554,0,1,0,83.094,27.7a7.554,7.554,0,0,0,7.554,7.554Zm0-10.072A2.518,2.518,0,1,1,88.13,27.7,2.518,2.518,0,0,1,90.648,25.18Z" fill="#12263f"/>
        <path id="Trazado_158154" data-name="Trazado 158154" d="M70.5,78.058A7.554,7.554,0,1,0,62.95,70.5,7.554,7.554,0,0,0,70.5,78.058Zm0-10.072A2.518,2.518,0,1,1,67.986,70.5,2.518,2.518,0,0,1,70.5,67.986Z" fill="#12263f"/>
        <path id="Trazado_158155" data-name="Trazado 158155" d="M103.238,20.144a7.554,7.554,0,1,0-7.554-7.554A7.554,7.554,0,0,0,103.238,20.144Zm0-10.072a2.518,2.518,0,1,1-2.518,2.518A2.518,2.518,0,0,1,103.238,10.072Z" fill="#12263f"/>
        <path id="Trazado_158156" data-name="Trazado 158156" d="M123.383,35.252a7.567,7.567,0,0,0,7.126-5.036h.483A12.552,12.552,0,0,0,153.6,22.662a12.291,12.291,0,0,0-.652-3.931,7.554,7.554,0,1,0-11.51-8.659h-.483a12.552,12.552,0,0,0-22.607,7.554A12.291,12.291,0,0,0,119,21.557a7.554,7.554,0,0,0,4.384,13.7Zm-.531-10.012a2.518,2.518,0,0,0,1.632-3.757,7.438,7.438,0,0,1-1.1-3.858,7.524,7.524,0,0,1,14.1-3.669,2.86,2.86,0,0,0,2.77,1.229,6.383,6.383,0,0,1,2.651.206,2.518,2.518,0,0,0,3.155-2.611l-.015-.191a2.518,2.518,0,1,1,3.049,2.458A2.518,2.518,0,0,0,147.46,18.8a7.416,7.416,0,0,1,1.1,3.858,7.524,7.524,0,0,1-14.1,3.669,2.79,2.79,0,0,0-2.4-1.259,2.7,2.7,0,0,0-.38.025,6.3,6.3,0,0,1-2.651-.206,2.518,2.518,0,0,0-3.155,2.611l.023.2a2.518,2.518,0,1,1-3.049-2.458Z" fill="#12263f"/>
        <path id="Trazado_158157" data-name="Trazado 158157" d="M30.216,100.72a7.567,7.567,0,0,0,7.126-5.036h.483A12.552,12.552,0,0,0,60.432,88.13,12.29,12.29,0,0,0,59.78,84.2,7.554,7.554,0,1,0,48.27,75.54h-.483A12.552,12.552,0,0,0,25.18,83.094a12.29,12.29,0,0,0,.652,3.931,7.554,7.554,0,0,0,4.384,13.7Zm-.531-10.012a2.518,2.518,0,0,0,1.632-3.757,7.438,7.438,0,0,1-1.1-3.858,7.524,7.524,0,0,1,14.1-3.669,2.845,2.845,0,0,0,2.77,1.229,6.386,6.386,0,0,1,2.651.206,2.518,2.518,0,0,0,3.155-2.611l-.015-.191a2.518,2.518,0,1,1,3.049,2.458,2.518,2.518,0,0,0-1.634,3.757,7.415,7.415,0,0,1,1.1,3.858A7.524,7.524,0,0,1,41.3,91.8a2.79,2.79,0,0,0-2.4-1.259,2.705,2.705,0,0,0-.38.025,6.3,6.3,0,0,1-2.651-.206,2.518,2.518,0,0,0-3.155,2.611l.023.2a2.518,2.518,0,1,1-3.049-2.458Z" fill="#12263f"/>
        <path id="Trazado_158158" data-name="Trazado 158158" d="M131.488,61.377c-1.088,1.36-10.623,13.517-10.623,21.718a12.59,12.59,0,0,0,25.18,0c0-8.2-9.536-20.358-10.624-21.718a2.609,2.609,0,0,0-3.933,0Zm1.967,29.272a7.554,7.554,0,0,1-7.554-7.554c0-4.389,4.437-11.583,7.554-15.949,3.117,4.366,7.554,11.553,7.554,15.949a7.554,7.554,0,0,1-7.554,7.554Z" fill="#12263f"/>
        <path id="Trazado_158159" data-name="Trazado 158159" d="M135.973,118.347c0-8.2-9.536-20.358-10.623-21.718a2.609,2.609,0,0,0-3.933,0c-1.088,1.36-10.623,13.517-10.623,21.718a12.59,12.59,0,1,0,25.18,0Zm-12.59,7.554a7.554,7.554,0,0,1-7.554-7.554c0-4.389,4.437-11.583,7.554-15.949,3.117,4.366,7.554,11.553,7.554,15.949a7.554,7.554,0,0,1-7.554,7.554Z" fill="#12263f"/>
        <path id="Trazado_158160" data-name="Trazado 158160" d="M141.56,121.809c-1.088,1.36-10.623,13.517-10.623,21.718a12.59,12.59,0,1,0,25.18,0c0-8.2-9.536-20.358-10.624-21.718a2.609,2.609,0,0,0-3.933,0Zm1.967,29.272a7.554,7.554,0,0,1-7.554-7.554c0-4.389,4.437-11.583,7.554-15.949,3.117,4.366,7.554,11.553,7.554,15.949A7.554,7.554,0,0,1,143.527,151.081Z" fill="#12263f"/>
        <path id="Trazado_158161" data-name="Trazado 158161" d="M30.216,118.347a7.554,7.554,0,1,0-7.554,7.554A7.554,7.554,0,0,0,30.216,118.347Zm-7.554,2.518a2.518,2.518,0,1,1,2.518-2.518A2.518,2.518,0,0,1,22.662,120.865Z" fill="#12263f"/>
      </g>
    </g>
  </g>
</svg>
