<svg xmlns="http://www.w3.org/2000/svg" xmlns:xlink="http://www.w3.org/1999/xlink" width="179" height="179" viewBox="0 0 179 179">
  <defs>
    <clipPath id="clip-path">
      <rect id="Rectángulo_35661" data-name="Rectángulo 35661" width="152" height="152" rx="20" transform="translate(719 472)" fill="#3ca8f4"/>
    </clipPath>
  </defs>
  <g id="Grupo_102482" data-name="Grupo 102482" transform="translate(-705 -458)">
    <rect id="Rectángulo_35500" data-name="Rectángulo 35500" width="179" height="179" rx="20" transform="translate(705 458)" fill="#7ae582"/>
    <g id="Enmascarar_grupo_102" data-name="Enmascarar grupo 102" clip-path="url(#clip-path)">
      <g id="toxico_1_" data-name="toxico (1)" transform="translate(719 472)">
        <path id="Trazado_158162" data-name="Trazado 158162" d="M94.884,78.548a12.638,12.638,0,0,0-5.556-1.279H28.4A12.694,12.694,0,0,0,15.708,89.963V149.62h86.313v-.127a6.346,6.346,0,0,1-5.077-6.22V117.888a6.346,6.346,0,0,1,5.077-6.22V90.251A20.945,20.945,0,0,1,94.884,78.548Z" fill="#faec8e"/>
        <path id="Trazado_158163" data-name="Trazado 158163" d="M39.825,77.27H28.4A12.694,12.694,0,0,0,15.708,89.963v59.658H27.131V89.963A12.694,12.694,0,0,1,39.825,77.27Z" fill="#fbc96c"/>
        <path id="Trazado_158164" data-name="Trazado 158164" d="M58.864,2.38A36.814,36.814,0,0,0,39.733,70.644l2.208,6.626H75.787L78,70.644A36.814,36.814,0,0,0,58.864,2.38Z" fill="#faec8e"/>
        <circle id="Elipse_4575" data-name="Elipse 4575" cx="11.424" cy="11.424" r="11.424" transform="translate(28.401 29.036)" fill="#bee7f3"/>
        <g id="Grupo_101940" data-name="Grupo 101940">
          <path id="Trazado_158165" data-name="Trazado 158165" d="M46.154,30.956a11.354,11.354,0,0,0-6.024-1.91L28.412,40.765a11.349,11.349,0,0,0,1.91,6.024Z" fill="#fff"/>
          <path id="Trazado_158166" data-name="Trazado 158166" d="M49.393,34.223,33.588,50.028A11.383,11.383,0,0,0,35.8,51.151L50.516,36.432A11.35,11.35,0,0,0,49.393,34.223Z" fill="#fff"/>
        </g>
        <circle id="Elipse_4576" data-name="Elipse 4576" cx="11.424" cy="11.424" r="11.424" transform="translate(66.48 29.036)" fill="#bee7f3"/>
        <g id="Grupo_101941" data-name="Grupo 101941">
          <path id="Trazado_158167" data-name="Trazado 158167" d="M84.234,30.956a11.354,11.354,0,0,0-6.024-1.91L66.492,40.765a11.35,11.35,0,0,0,1.91,6.024Z" fill="#fff"/>
          <path id="Trazado_158168" data-name="Trazado 158168" d="M87.473,34.223,71.668,50.028a11.392,11.392,0,0,0,2.209,1.123L88.6,36.432A11.367,11.367,0,0,0,87.473,34.223Z" fill="#fff"/>
        </g>
        <rect id="Rectángulo_35663" data-name="Rectángulo 35663" width="17.77" height="35.046" transform="translate(49.979 114.575)" fill="#5293c4"/>
        <path id="Trazado_158169" data-name="Trazado 158169" d="M58.864,149.462a2.38,2.38,0,0,1-2.38-2.38V116.618a2.38,2.38,0,0,1,4.76,0v30.464A2.38,2.38,0,0,1,58.864,149.462Z" fill="#fff"/>
        <path id="Trazado_158170" data-name="Trazado 158170" d="M58.864,53.153a17.769,17.769,0,0,0-17.77,17.77l2.891,11.57H73.744l2.891-11.57A17.769,17.769,0,0,0,58.864,53.153Z" fill="#c1bcbf"/>
        <path id="Trazado_158171" data-name="Trazado 158171" d="M58.864,53.153a17.769,17.769,0,0,0-17.77,17.77l2.891,11.57H58.97V53.155Z" fill="#a19aa0"/>
        <path id="Trazado_158172" data-name="Trazado 158172" d="M58.864,68.384c-6.191,0-9.91,5.068-11.341,11.075H70.206C68.774,73.452,65.056,68.384,58.864,68.384Z" fill="#f9f8f9"/>
        <g id="Grupo_101942" data-name="Grupo 101942">
          <path id="Trazado_158173" data-name="Trazado 158173" d="M58.864,68.384c-6.191,0-9.91,5.068-11.341,11.075H58.944V68.386Z" fill="#e0dddf"/>
          <path id="Trazado_158174" data-name="Trazado 158174" d="M70.206,79.459a20.276,20.276,0,1,1-22.682,0,20.323,20.323,0,0,1,22.682,0Z" fill="#e0dddf"/>
        </g>
        <g id="Grupo_101943" data-name="Grupo 101943">
          <path id="Trazado_158175" data-name="Trazado 158175" d="M72.827,92.5a5.077,5.077,0,1,0-5.077,5.077A5.076,5.076,0,0,0,72.827,92.5Z" fill="#a19aa0"/>
          <path id="Trazado_158176" data-name="Trazado 158176" d="M63.942,105.194a5.077,5.077,0,1,0-5.077,5.077A5.076,5.076,0,0,0,63.942,105.194Z" fill="#a19aa0"/>
          <path id="Trazado_158177" data-name="Trazado 158177" d="M55.056,92.5a5.077,5.077,0,1,0-5.077,5.077A5.076,5.076,0,0,0,55.056,92.5Z" fill="#a19aa0"/>
        </g>
        <path id="Trazado_158178" data-name="Trazado 158178" d="M135.023,124.234v12.693a12.694,12.694,0,0,1-12.693,12.693H103.29a6.425,6.425,0,0,1-1.269-.127,6.346,6.346,0,0,1-5.077-6.22V117.888a6.346,6.346,0,0,1,5.077-6.22,6.423,6.423,0,0,1,1.269-.127h19.04A12.693,12.693,0,0,1,135.023,124.234Z" fill="#c1bcbf"/>
        <path id="Trazado_158179" data-name="Trazado 158179" d="M115.349,53.153A20.941,20.941,0,1,1,94.405,74.1,20.944,20.944,0,0,1,115.349,53.153Z" fill="#db3d5a"/>
        <path id="Trazado_158180" data-name="Trazado 158180" d="M115.349,58.23A15.865,15.865,0,1,1,99.482,74.1,15.867,15.867,0,0,1,115.349,58.23Z" fill="#ff675c"/>
        <rect id="Rectángulo_35664" data-name="Rectángulo 35664" width="22.848" height="7.616" transform="translate(104.56 69.654)" fill="#fff"/>
        <path id="Trazado_158181" data-name="Trazado 158181" d="M57.437,92.5a7.457,7.457,0,1,0-7.457,7.457A7.466,7.466,0,0,0,57.437,92.5Zm-10.155,0a2.7,2.7,0,1,1,2.7,2.7A2.7,2.7,0,0,1,47.282,92.5Z" fill="#12263f"/>
        <path id="Trazado_158182" data-name="Trazado 158182" d="M67.75,99.958A7.457,7.457,0,1,0,60.292,92.5,7.466,7.466,0,0,0,67.75,99.958Zm0-10.154a2.7,2.7,0,1,1-2.7,2.7A2.7,2.7,0,0,1,67.75,89.8Z" fill="#12263f"/>
        <path id="Trazado_158183" data-name="Trazado 158183" d="M51.407,105.194a7.457,7.457,0,1,0,7.457-7.457A7.466,7.466,0,0,0,51.407,105.194Zm7.457-2.7a2.7,2.7,0,1,1-2.7,2.7A2.7,2.7,0,0,1,58.864,102.5Z" fill="#12263f"/>
        <path id="Trazado_158184" data-name="Trazado 158184" d="M39.825,54.263a13.8,13.8,0,1,0-13.8-13.8A13.819,13.819,0,0,0,39.825,54.263Zm0-22.848a9.044,9.044,0,1,1-9.044,9.044A9.054,9.054,0,0,1,39.825,31.415Z" fill="#12263f"/>
        <path id="Trazado_158185" data-name="Trazado 158185" d="M91.708,40.459a13.8,13.8,0,1,0-13.8,13.8A13.819,13.819,0,0,0,91.708,40.459Zm-22.848,0A9.044,9.044,0,1,1,77.9,49.5,9.054,9.054,0,0,1,68.86,40.459Z" fill="#12263f"/>
        <path id="Trazado_158186" data-name="Trazado 158186" d="M122.33,109.161h-3.967V97.218A23.321,23.321,0,1,0,92.025,74.1c0,.347.012.694.028,1.042a15.163,15.163,0,0,0-2.726-.248H79.089l.894-2.682A39.193,39.193,0,0,0,58.864,0a40.075,40.075,0,0,0-23.1,7.579,2.38,2.38,0,1,0,2.772,3.869A35.276,35.276,0,0,1,58.864,4.76,34.433,34.433,0,0,1,78.69,67.344a20.145,20.145,0,0,0-39.651,0A34.454,34.454,0,0,1,28.869,22.273a2.38,2.38,0,0,0-4.144-2.342,39.191,39.191,0,0,0,13.02,52.276l.894,2.682H28.4A15.091,15.091,0,0,0,13.328,89.962V149.62a2.38,2.38,0,0,0,2.38,2.38H25.765a2.38,2.38,0,1,0,0-4.76H18.088V89.963A10.325,10.325,0,0,1,28.4,79.649H40.822l.554,2.217A22.677,22.677,0,0,0,47.6,116.005V147.24H36.651a2.38,2.38,0,0,0,0,4.76H122.33A15.09,15.09,0,0,0,137.4,136.927V124.234A15.09,15.09,0,0,0,122.33,109.161Zm-17.929,0V94.684a23.387,23.387,0,0,0,9.2,2.665v11.811Zm10.948-53.628a18.564,18.564,0,1,1-11.811,32.885l0,0A18.637,18.637,0,0,1,97.21,78.044h0a18.563,18.563,0,0,1,18.139-22.511ZM92.863,80.274a23.447,23.447,0,0,0,6.779,11.058v18.636a8.755,8.755,0,0,0-5.077,7.92v25.386a8.671,8.671,0,0,0,.968,3.967H70.13V116.006a22.677,22.677,0,0,0,6.223-34.138l.554-2.217H89.328A10.2,10.2,0,0,1,92.863,80.274Zm-36.378,38.6v28.211c0,.054,0,.106.008.159H52.359V118.048A22.4,22.4,0,0,0,56.484,118.871Zm4.76,28.21V118.871a22.361,22.361,0,0,0,4.125-.823V147.24H61.237C61.24,147.188,61.244,147.135,61.244,147.082Zm-2.38-91.549A15.408,15.408,0,0,1,74.252,70.64l-1.513,6.052v0l-.35,1.4-.094-.068C70.217,70.481,65.247,66,58.864,66S47.512,70.481,45.435,78.03l-.094.068-.35-1.4v0L43.477,70.64A15.408,15.408,0,0,1,58.864,55.532Zm6.787,19.122a22.776,22.776,0,0,0-13.573,0,7.864,7.864,0,0,1,13.573,0ZM40.935,96.309a17.865,17.865,0,0,1,4.791-12.194h0a18.091,18.091,0,0,1,3.123-2.68l0,0a17.942,17.942,0,0,1,20.021,0h0A18.11,18.11,0,0,1,72,84.114h0a17.927,17.927,0,0,1-5.294,28.319h0a17.953,17.953,0,0,1-15.686,0h0A17.822,17.822,0,0,1,40.935,96.309Zm91.708,40.618A10.325,10.325,0,0,1,122.33,147.24H103.29a4.046,4.046,0,0,1-.8-.08h0a3.974,3.974,0,0,1-3.168-3.887v-1.436c.053,0,.105.008.159.008h12.693a2.38,2.38,0,0,0,0-4.76H99.482c-.054,0-.106,0-.159.008v-4.141c.053,0,.105.008.159.008h12.693a2.38,2.38,0,0,0,0-4.76H99.482c-.054,0-.106,0-.159.008v-4.141c.053,0,.105.008.159.008h12.693a2.38,2.38,0,0,0,0-4.76H99.482c-.054,0-.106,0-.159.008v-1.436A3.974,3.974,0,0,1,102.492,114h0a4.046,4.046,0,0,1,.8-.08h19.04a10.325,10.325,0,0,1,10.313,10.313v12.693Z" fill="#12263f"/>
        <path id="Trazado_158187" data-name="Trazado 158187" d="M104.56,79.649h22.848a2.38,2.38,0,0,0,2.38-2.38V69.654a2.38,2.38,0,0,0-2.38-2.38H104.56a2.38,2.38,0,0,0-2.38,2.38v7.616A2.38,2.38,0,0,0,104.56,79.649Zm2.38-7.616h18.088V74.89H106.94Z" fill="#12263f"/>
      </g>
    </g>
  </g>
</svg>
