<svg xmlns="http://www.w3.org/2000/svg" xmlns:xlink="http://www.w3.org/1999/xlink" width="179" height="179" viewBox="0 0 179 179">
  <defs>
    <clipPath id="clip-path">
      <rect id="Rect치ngulo_35666" data-name="Rect치ngulo 35666" width="152" height="152" rx="20" transform="translate(434 822)" fill="#3ca8f4"/>
    </clipPath>
  </defs>
  <g id="Grupo_102485" data-name="Grupo 102485" transform="translate(-420 -808)">
    <rect id="Rect치ngulo_35510" data-name="Rect치ngulo 35510" width="179" height="179" rx="20" transform="translate(420 808)" fill="#7ae582"/>
    <g id="Enmascarar_grupo_105" data-name="Enmascarar grupo 105" clip-path="url(#clip-path)">
      <g id="transporte" transform="translate(434 822)">
        <path id="Trazado_158214" data-name="Trazado 158214" d="M55.733,111.467,50.667,83.6H15.2l-5.067,27.867,22.8-7.6Z" fill="#f7ec2f"/>
        <path id="Trazado_158215" data-name="Trazado 158215" d="M21.974,149.467c5.49,0,5.49-5.067,10.979-5.067s5.485,5.067,10.969,5.067c4.423,0,5.317-3.258,8.36-4.535L63.333,114l-30.4-10.133L2.533,114l11.043,30.924c3.068,1.267,3.957,4.542,8.4,4.542Z" fill="#3f4e56"/>
        <path id="Trazado_158216" data-name="Trazado 158216" d="M129.912,36.242a28.558,28.558,0,0,0-20.2-8.375H27.867l15.2,15.21,93.733.056Z" fill="#f5fafc"/>
        <path id="Trazado_158217" data-name="Trazado 158217" d="M137.76,44.093l-.96-.96-93.733-.056.626.626a32.4,32.4,0,0,0,22.917,9.5h4.578l2.25-5.067h15.19L85.082,53.2h48.906a5.335,5.335,0,0,0,3.772-9.107Z" fill="#1493b0"/>
        <path id="Trazado_158218" data-name="Trazado 158218" d="M27.867,73.467H38V83.6H27.867Z" fill="#ed4720"/>
        <path id="Trazado_158219" data-name="Trazado 158219" d="M73.467,96.267v45.6H86.133a7.6,7.6,0,0,1,15.2,0h22.8v-45.6Z" fill="#d3d3d3"/>
        <circle id="Elipse_4579" data-name="Elipse 4579" cx="7.6" cy="7.6" r="7.6" transform="translate(86.133 134.267)" fill="#3f4e56"/>
        <path id="Trazado_158220" data-name="Trazado 158220" d="M141.867,106.4H124.133v35.467a7.6,7.6,0,0,1,15.2,0h10.133V121.6Z" fill="#55d5f2"/>
        <circle id="Elipse_4580" data-name="Elipse 4580" cx="7.6" cy="7.6" r="7.6" transform="translate(124.133 134.267)" fill="#3f4e56"/>
        <g id="Grupo_101955" data-name="Grupo 101955">
          <path id="Trazado_158221" data-name="Trazado 158221" d="M40.533,2.533H27.867V27.867H48.133Z" fill="#55d5f2"/>
          <path id="Trazado_158222" data-name="Trazado 158222" d="M68.4,7.6l5.067,20.267h15.2L76,7.6Z" fill="#55d5f2"/>
          <path id="Trazado_158223" data-name="Trazado 158223" d="M73.439,48.133l-10.126,22.8,7.595,2.533L88.631,48.133Z" fill="#55d5f2"/>
        </g>
        <path id="Trazado_158224" data-name="Trazado 158224" d="M65.867,152a9.822,9.822,0,0,1-7.2-3.2c-1.257-1.163-2.017-1.862-3.767-1.862s-2.511.7-3.765,1.859a9.7,9.7,0,0,1-14.41,0c-1.254-1.16-2.014-1.859-3.765-1.859s-2.516.7-3.772,1.862a9.716,9.716,0,0,1-14.422,0c-1.257-1.16-2.017-1.862-3.775-1.862s-2.518.7-3.777,1.862A9.83,9.83,0,0,1,0,152v-5.067c1.756,0,2.518-.7,3.777-1.862a9.716,9.716,0,0,1,14.422,0c1.259,1.16,2.019,1.862,3.775,1.862s2.513-.7,3.772-1.862a9.7,9.7,0,0,1,14.415,0c1.254,1.16,2.011,1.859,3.765,1.859s2.511-.7,3.765-1.859a9.7,9.7,0,0,1,14.41,0c1.257,1.163,2.017,1.862,3.767,1.862Z" fill="#1493b0"/>
        <path id="Trazado_158225" data-name="Trazado 158225" d="M134.267,106.4v15.2h15.2l-7.6-15.2Z" fill="#f5fafc"/>
        <path id="Trazado_158226" data-name="Trazado 158226" d="M15.6,143.057,5.789,115.583l24.611-8.2V142.2a10.1,10.1,0,0,1,5.067-.013v-34.8l24.611,8.2-9.817,27.489a8.937,8.937,0,0,1,4.633-1.208,10.27,10.27,0,0,1,1.15.071l9.672-27.086a2.535,2.535,0,0,0-1.586-3.255l-6.176-2.06-4.8-26.39a2.532,2.532,0,0,0-2.49-2.08H40.533v-7.6A2.534,2.534,0,0,0,38,70.933H27.867a2.534,2.534,0,0,0-2.533,2.533v7.6H15.2a2.536,2.536,0,0,0-2.493,2.08l-4.8,26.39L1.733,111.6a2.535,2.535,0,0,0-1.586,3.255l9.675,27.086a10.589,10.589,0,0,1,1.165-.071,8.981,8.981,0,0,1,4.616,1.191ZM30.4,76h5.067v5.067H30.4ZM27.867,86.133H48.554l3.922,21.576-18.739-6.247a2.573,2.573,0,0,0-.8-.129,2.546,2.546,0,0,0-.8.129L13.394,107.71l3.919-21.576Z" fill="#12263f"/>
        <path id="Trazado_158227" data-name="Trazado 158227" d="M25.5,28.7c.028.079.048.16.084.236a2.485,2.485,0,0,0,.491.73L41.9,45.494a34.709,34.709,0,0,0,24.708,10.24h.681L61,69.9a2.534,2.534,0,0,0,1.515,3.433L70.1,75.871a2.585,2.585,0,0,0,.8.129,2.531,2.531,0,0,0,2.075-1.082L86.4,55.733h47.589A7.869,7.869,0,0,0,139.554,42.3l-7.848-7.853a30.9,30.9,0,0,0-22-9.115H90.073L78.151,6.257A2.543,2.543,0,0,0,76,5.067H68.4a2.535,2.535,0,0,0-2.457,3.149l4.279,17.118h-20.2L42.96,1.806A2.536,2.536,0,0,0,40.533,0H27.867a2.534,2.534,0,0,0-2.533,2.533V27.867c0,.056.028.1.03.157A2.552,2.552,0,0,0,25.5,28.7ZM30.4,5.067h8.249l6.08,20.267H30.4Zm44.2,5.067,9.5,15.2H75.445l-3.8-15.2ZM73.467,30.4h36.242a25.8,25.8,0,0,1,15.385,5.067H106.4v5.067h24.221l2.594,2.6,2.754,2.754a2.8,2.8,0,0,1-1.976,4.783H89.949l.755-1.082A2.534,2.534,0,0,0,88.629,45.6H73.439a2.683,2.683,0,0,0-2.315,1.5l-1.581,3.562H66.611a29.611,29.611,0,0,1-19.839-7.59c-.431-.385-.874-.755-1.284-1.168L33.98,30.4H73.467ZM66.761,69.413l8.327-18.747h8.679l-13.85,19.8Z" fill="#12263f"/>
        <path id="Trazado_158228" data-name="Trazado 158228" d="M22.8,91.2H43.067v5.067H22.8Z" fill="#12263f"/>
        <path id="Trazado_158229" data-name="Trazado 158229" d="M55.733,35.467H60.8v5.067H55.733Z" fill="#12263f"/>
        <path id="Trazado_158230" data-name="Trazado 158230" d="M65.867,35.467h5.064v5.067H65.867Z" fill="#12263f"/>
        <path id="Trazado_158231" data-name="Trazado 158231" d="M76,35.467h5.064v5.067H76Z" fill="#12263f"/>
        <path id="Trazado_158232" data-name="Trazado 158232" d="M86.133,35.467H91.2v5.067H86.133Z" fill="#12263f"/>
        <path id="Trazado_158233" data-name="Trazado 158233" d="M96.269,35.467h5.064v5.067H96.269Z" fill="#12263f"/>
        <path id="Trazado_158234" data-name="Trazado 158234" d="M151.734,120.468l-7.6-15.2a2.536,2.536,0,0,0-2.267-1.4h-15.2v-7.6a2.534,2.534,0,0,0-2.533-2.533H73.467a2.534,2.534,0,0,0-2.533,2.533v45.6a2.534,2.534,0,0,0,2.533,2.533H83.96a10.084,10.084,0,0,0,19.547,0H121.96a10.084,10.084,0,0,0,19.547,0h7.96A2.534,2.534,0,0,0,152,141.867V121.6c0-.028-.018-.051-.018-.079a2.561,2.561,0,0,0-.248-1.054ZM141.188,138.31c-.058-.152-.1-.312-.16-.459a10.012,10.012,0,0,0-.869-1.6c-.073-.109-.165-.2-.241-.309a10.667,10.667,0,0,0-.9-1.094c-.147-.152-.309-.289-.466-.431a10.775,10.775,0,0,0-.909-.752c-.187-.134-.38-.258-.575-.383a10.074,10.074,0,0,0-1.016-.552c-.208-.1-.413-.2-.628-.281a10,10,0,0,0-1.2-.372c-.2-.051-.385-.114-.585-.152a9.85,9.85,0,0,0-1.9-.2,10.018,10.018,0,0,0-1.819.185c-.144.025-.284.053-.426.086a9.9,9.9,0,0,0-1.682.524c-.023.01-.041.023-.063.03a10.093,10.093,0,0,0-1.074.535v-24.16h5.067V121.6a2.534,2.534,0,0,0,2.533,2.533h12.667v15.2H141.55a10.633,10.633,0,0,0-.362-1.023Zm-9.454,8.623a5.067,5.067,0,1,1,5.067-5.067A5.072,5.072,0,0,1,131.733,146.933Zm-28.546-8.623c-.058-.152-.1-.312-.16-.459a10.011,10.011,0,0,0-.869-1.6c-.073-.109-.165-.2-.241-.309a10.666,10.666,0,0,0-.9-1.094c-.147-.152-.309-.289-.466-.431a10.775,10.775,0,0,0-.909-.752c-.187-.134-.38-.258-.575-.383a10.072,10.072,0,0,0-1.016-.552c-.208-.1-.413-.2-.628-.281a10,10,0,0,0-1.2-.372c-.2-.051-.385-.114-.585-.152a9.85,9.85,0,0,0-1.9-.2,10.005,10.005,0,0,0-1.9.193c-.2.038-.388.1-.585.152a10.148,10.148,0,0,0-1.2.372c-.215.084-.421.182-.628.281a10.079,10.079,0,0,0-1.016.552c-.2.122-.39.246-.575.383a9.25,9.25,0,0,0-.909.752c-.157.144-.319.279-.466.431a10.093,10.093,0,0,0-.9,1.094c-.076.106-.17.2-.241.309a10.01,10.01,0,0,0-.869,1.6c-.063.149-.1.307-.16.459a10.181,10.181,0,0,0-.357,1.023H76V98.8h45.6v40.533H103.547a9.978,9.978,0,0,0-.36-1.023Zm-9.454,8.623a5.067,5.067,0,1,1,5.067-5.067A5.072,5.072,0,0,1,93.733,146.933Zm51.634-27.867H136.8V108.933h3.5Z" fill="#12263f"/>
      </g>
    </g>
  </g>
</svg>
