<svg xmlns="http://www.w3.org/2000/svg" width="66.087" height="83.25" viewBox="0 0 66.087 83.25">
  <g id="prueba-de-sangre" transform="translate(-52.778)">
    <g id="Grupo_100938" data-name="Grupo 100938" transform="translate(53.997 1.219)">
      <g id="Grupo_100936" data-name="Grupo 100936" transform="translate(0)">
        <path id="Trazado_156313" data-name="Trazado 156313" d="M89.546,19.695V9.939A2.446,2.446,0,0,0,87.107,7.5H62.717a2.446,2.446,0,0,0-2.439,2.439v9.756a2.446,2.446,0,0,0,2.439,2.439h24.39A2.446,2.446,0,0,0,89.546,19.695Z" transform="translate(-60.278 -7.5)" fill="#f8fafc" fill-rule="evenodd"/>
        <path id="Trazado_156314" data-name="Trazado 156314" d="M90.278,97.5H109.79v14.634H90.278Z" transform="translate(-85.4 -82.866)" fill="#a4d7f5" fill-rule="evenodd"/>
        <path id="Trazado_156315" data-name="Trazado 156315" d="M109.79,187.5H90.278v41.788a9.756,9.756,0,1,0,19.512,0Zm-4.878,6.1v24.39H95.156V193.6Z" transform="translate(-85.4 -158.232)" fill="#3ca8f4" fill-rule="evenodd"/>
        <path id="Trazado_156316" data-name="Trazado 156316" d="M256.722,84.353a15.779,15.779,0,0,0,2.2,8.067V98h5.582a15.855,15.855,0,1,0-7.786-13.649Zm14.129,6.9-6.9-6.9L267.4,80.9l3.449,3.449,6.9-6.9L281.2,80.9Z" transform="translate(-224.78 -58.582)" fill="#3ca8f4" fill-rule="evenodd"/>
        <path id="Trazado_156317" data-name="Trazado 156317" d="M301.19,130.473l6.9,6.9,10.348-10.348-3.449-3.449-6.9,6.9-3.449-3.449Z" transform="translate(-262.018 -104.701)" fill="#7ae582" fill-rule="evenodd"/>
        <path id="Trazado_156318" data-name="Trazado 156318" d="M66.374,7.5H62.716a2.446,2.446,0,0,0-2.439,2.439v9.756a2.446,2.446,0,0,0,2.439,2.439h3.658a2.446,2.446,0,0,1-2.439-2.439V9.939A2.446,2.446,0,0,1,66.374,7.5Z" transform="translate(-60.277 -7.5)" fill="#d6e1ef" fill-rule="evenodd"/>
        <path id="Trazado_156319" data-name="Trazado 156319" d="M90.278,97.5h3.658v14.634H90.278Z" transform="translate(-85.4 -82.866)" fill="#6e91ef" fill-rule="evenodd"/>
        <path id="Trazado_156320" data-name="Trazado 156320" d="M93.936,187.5H90.278v41.788a9.751,9.751,0,0,0,11.585,9.582,9.793,9.793,0,0,1-7.927-9.582Z" transform="translate(-85.4 -158.232)" fill="#0b86dc" fill-rule="evenodd"/>
        <path id="Trazado_156321" data-name="Trazado 156321" d="M120.277,225h9.756v24.39h-9.756Z" transform="translate(-110.521 -189.634)" fill="#7ae582" fill-rule="evenodd"/>
      </g>
      <g id="Grupo_100937" data-name="Grupo 100937" transform="translate(23.17 3.658)">
        <path id="Trazado_156322" data-name="Trazado 156322" d="M205.217,37.317h-2.439V34.878h2.439Zm0-4.878h-2.439V30h2.439Z" transform="translate(-202.778 -30)" fill="#fff"/>
      </g>
      <path id="Trazado_156323" data-name="Trazado 156323" d="M256.722,84.354a15.779,15.779,0,0,0,2.2,8.067V98h3.658V92.421A15.857,15.857,0,0,1,274.4,68.606,15.855,15.855,0,0,0,256.722,84.354Z" transform="translate(-224.78 -58.582)" fill="#1889d9" fill-rule="evenodd"/>
      <path id="Trazado_156324" data-name="Trazado 156324" d="M120.277,352.5h9.756v3.658h-9.756Z" transform="translate(-110.521 -296.403)" fill="#52cd8d" fill-rule="evenodd"/>
    </g>
    <g id="Grupo_100939" data-name="Grupo 100939" transform="translate(52.778)">
      <path id="Trazado_156325" data-name="Trazado 156325" d="M80.826,0H56.436a3.662,3.662,0,0,0-3.658,3.658V7.317h2.439V3.658a1.221,1.221,0,0,1,1.219-1.219h24.39a1.221,1.221,0,0,1,1.219,1.219v9.756a1.221,1.221,0,0,1-1.219,1.219H56.436a1.221,1.221,0,0,1-1.219-1.219V9.756H52.778v3.658a3.663,3.663,0,0,0,3.658,3.658h1.219v55.2a10.975,10.975,0,1,0,21.951,0V68.616H77.168v3.658a8.536,8.536,0,1,1-17.073,0V31.707H77.168V61.3h2.439V17.073h1.219a3.662,3.662,0,0,0,3.658-3.658V3.658A3.662,3.662,0,0,0,80.826,0ZM77.168,29.268H60.095V17.073H77.168Z" transform="translate(-52.778)"/>
      <path id="Trazado_156326" data-name="Trazado 156326" d="M202.778,392h2.439v2.439h-2.439Z" transform="translate(-178.388 -328.262)"/>
      <path id="Trazado_156327" data-name="Trazado 156327" d="M124.972,244.328V217.5H112.777v26.829Zm-9.756-24.39h7.317v21.951h-7.317Z" transform="translate(-103.021 -182.134)"/>
      <path id="Trazado_156328" data-name="Trazado 156328" d="M306.105,112.969l-6.9,6.9-3.449-3.449-5.174,5.174,8.623,8.623,12.072-12.072Zm-12.072,8.623,1.725-1.725,3.449,3.449,6.9-6.9,1.725,1.725-8.623,8.623Z" transform="translate(-251.917 -94.601)"/>
      <path id="Trazado_156329" data-name="Trazado 156329" d="M266.295,61a17.076,17.076,0,0,0-14.869,25.467v6.474H257.9A17.074,17.074,0,1,0,266.295,61Zm0,31.707a14.618,14.618,0,0,1-7.446-2.034l-.287-.17h-4.7v-4.7l-.17-.287a14.635,14.635,0,1,1,12.6,7.188Z" transform="translate(-217.281 -51.082)"/>
    </g>
  </g>
</svg>
