<svg xmlns="http://www.w3.org/2000/svg" xmlns:xlink="http://www.w3.org/1999/xlink" width="397.313" height="238.315" viewBox="0 0 397.313 238.315">
  <defs>
    <linearGradient id="linear-gradient" x1="-0.95" y1="1.962" x2="11.832" y2="-10.927" gradientUnits="objectBoundingBox">
      <stop offset="0" stop-color="#ffe25b"/>
      <stop offset="1" stop-color="#ff7270"/>
    </linearGradient>
    <linearGradient id="linear-gradient-2" x1="-2.188" y1="3.21" x2="10.594" y2="-9.678" xlink:href="#linear-gradient"/>
    <linearGradient id="linear-gradient-3" x1="-3.426" y1="4.459" x2="9.356" y2="-8.43" xlink:href="#linear-gradient"/>
    <linearGradient id="linear-gradient-4" x1="-4.664" y1="5.707" x2="8.118" y2="-7.182" xlink:href="#linear-gradient"/>
    <linearGradient id="linear-gradient-5" x1="-5.902" y1="6.955" x2="6.88" y2="-5.933" xlink:href="#linear-gradient"/>
    <linearGradient id="linear-gradient-6" x1="-7.14" y1="8.203" x2="5.643" y2="-4.685" xlink:href="#linear-gradient"/>
    <linearGradient id="linear-gradient-7" x1="-6.911" y1="23.532" x2="3.698" y2="-9.448" xlink:href="#linear-gradient"/>
    <linearGradient id="linear-gradient-8" x1="-9.256" y1="10.337" x2="3.481" y2="-2.506" xlink:href="#linear-gradient"/>
    <linearGradient id="linear-gradient-9" x1="-9.873" y1="10.959" x2="2.864" y2="-1.884" xlink:href="#linear-gradient"/>
    <linearGradient id="linear-gradient-10" x1="-10.49" y1="11.581" x2="2.247" y2="-1.262" xlink:href="#linear-gradient"/>
    <linearGradient id="linear-gradient-11" x1="-11.106" y1="12.203" x2="1.631" y2="-0.64" xlink:href="#linear-gradient"/>
    <linearGradient id="linear-gradient-12" x1="-11.723" y1="12.825" x2="1.014" y2="-0.018" xlink:href="#linear-gradient"/>
    <linearGradient id="linear-gradient-13" x1="-12.339" y1="13.447" x2="0.397" y2="0.604" xlink:href="#linear-gradient"/>
    <linearGradient id="linear-gradient-14" x1="-12.956" y1="14.069" x2="-0.22" y2="1.226" xlink:href="#linear-gradient"/>
    <linearGradient id="linear-gradient-15" x1="-13.573" y1="14.69" x2="-0.837" y2="1.848" xlink:href="#linear-gradient"/>
    <linearGradient id="linear-gradient-16" x1="-15.886" y1="0.5" x2="0.29" y2="0.5" gradientUnits="objectBoundingBox">
      <stop offset="0" stop-color="#57a2ff"/>
      <stop offset="1" stop-color="#ff7270"/>
    </linearGradient>
  </defs>
  <g id="Grupo_101938" data-name="Grupo 101938" transform="translate(-314.149 -277.42)">
    <path id="Trazado_157743" data-name="Trazado 157743" d="M407.872,295.161a222.673,222.673,0,0,0-36.586,16.679q-5.475,3.162-10.44,6.5l44.9,25.922a6.579,6.579,0,0,1,0,11.394l-91.594,52.88c2.894,13.263,9.731,26.3,20.5,38.5l112.562-64.985a23.99,23.99,0,0,1,23.99,0L646.642,483.344c3.858-1.912,7.651-3.89,11.305-6a157.434,157.434,0,0,0,28.93-21.1Z" transform="translate(0 9.481)" fill="#85787c"/>
    <g id="Grupo_101802" data-name="Grupo 101802" transform="translate(323.093 359.144)">
      <path id="Trazado_157744" data-name="Trazado 157744" d="M319.978,381.3l3.645,2.1,13.245-7.647-3.645-2.1Z" transform="translate(-319.978 -307.715)" fill="url(#linear-gradient)"/>
      <path id="Trazado_157745" data-name="Trazado 157745" d="M333.633,373.42l3.645,2.1,13.245-7.647-3.645-2.1Z" transform="translate(-312.68 -311.928)" fill="url(#linear-gradient-2)"/>
      <path id="Trazado_157746" data-name="Trazado 157746" d="M347.289,365.536l3.645,2.1,13.245-7.647-3.645-2.1Z" transform="translate(-305.383 -316.141)" fill="url(#linear-gradient-3)"/>
      <path id="Trazado_157747" data-name="Trazado 157747" d="M360.944,357.652l3.645,2.1,13.245-7.647-3.645-2.1Z" transform="translate(-298.085 -320.354)" fill="url(#linear-gradient-4)"/>
      <path id="Trazado_157748" data-name="Trazado 157748" d="M374.6,349.768l3.645,2.1,13.245-7.647-3.645-2.1Z" transform="translate(-290.788 -324.567)" fill="url(#linear-gradient-5)"/>
      <path id="Trazado_157749" data-name="Trazado 157749" d="M388.255,341.884l3.645,2.1,13.245-7.647-3.645-2.1Z" transform="translate(-283.491 -328.781)" fill="url(#linear-gradient-6)"/>
      <path id="Trazado_157750" data-name="Trazado 157750" d="M402.92,332l1.579,1.936a1.545,1.545,0,0,0,1.557.517,32.244,32.244,0,0,1,7.064-.8,31.728,31.728,0,0,1,7.077.779,1.546,1.546,0,0,0,1.57-.543l1.5-1.918A40.459,40.459,0,0,0,402.92,332Z" transform="translate(-275.654 -330.681)" fill="url(#linear-gradient-7)"/>
      <path id="Trazado_157751" data-name="Trazado 157751" d="M419.932,336.31l13.328,7.7,3.622-2.091-13.328-7.7Z" transform="translate(-266.562 -328.79)" fill="url(#linear-gradient-8)"/>
      <path id="Trazado_157752" data-name="Trazado 157752" d="M433.673,344.243l13.328,7.7,3.622-2.092L437.3,342.152Z" transform="translate(-259.219 -324.551)" fill="url(#linear-gradient-9)"/>
      <path id="Trazado_157753" data-name="Trazado 157753" d="M447.415,352.177l13.328,7.695,3.622-2.092-13.328-7.695Z" transform="translate(-251.876 -320.311)" fill="url(#linear-gradient-10)"/>
      <path id="Trazado_157754" data-name="Trazado 157754" d="M461.156,360.11l13.328,7.7,3.622-2.091-13.328-7.695Z" transform="translate(-244.532 -316.071)" fill="url(#linear-gradient-11)"/>
      <path id="Trazado_157755" data-name="Trazado 157755" d="M474.9,368.044l13.328,7.695,3.622-2.091-13.328-7.7Z" transform="translate(-237.189 -311.832)" fill="url(#linear-gradient-12)"/>
      <path id="Trazado_157756" data-name="Trazado 157756" d="M488.638,375.977l13.328,7.7,3.622-2.091-13.328-7.7Z" transform="translate(-229.846 -307.592)" fill="url(#linear-gradient-13)"/>
      <path id="Trazado_157757" data-name="Trazado 157757" d="M502.38,383.911l13.328,7.7,3.623-2.091L506,381.819Z" transform="translate(-222.503 -303.353)" fill="url(#linear-gradient-14)"/>
      <path id="Trazado_157758" data-name="Trazado 157758" d="M519.744,389.753l-3.622,2.092,13.328,7.695,3.623-2.091Z" transform="translate(-215.159 -299.113)" fill="url(#linear-gradient-15)"/>
    </g>
    <g id="Grupo_101836" data-name="Grupo 101836" transform="translate(433.513 277.42)">
      <g id="Grupo_101805" data-name="Grupo 101805" transform="translate(137.221 27.667)">
        <path id="Trazado_157759" data-name="Trazado 157759" d="M500.6,329.39l-19.231-11.307,24.338-13.246,1.966,24.553Z" transform="translate(-481.371 -290.435)" fill="#dfe4eb" style="mix-blend-mode: multiply;isolation: isolate"/>
        <g id="Grupo_101804" data-name="Grupo 101804" transform="translate(7.076)">
          <g id="Grupo_101803" data-name="Grupo 101803">
            <path id="Trazado_157760" data-name="Trazado 157760" d="M522.852,302.82v14.406l-24.338,13.243V316.063Z" transform="translate(-479.286 -291.513)" fill="#edf4ff"/>
            <path id="Trazado_157761" data-name="Trazado 157761" d="M505.211,315.387v14.406l-19.228-11.306v-14.4Z" transform="translate(-485.982 -290.838)" fill="#dde7f8"/>
            <path id="Trazado_157762" data-name="Trazado 157762" d="M505.214,320,485.982,308.7l24.338-13.246,19.231,11.307Z" transform="translate(-485.982 -295.451)" fill="#ebf4ff"/>
          </g>
        </g>
      </g>
      <g id="Grupo_101808" data-name="Grupo 101808" transform="translate(168.913 22.788)">
        <path id="Trazado_157763" data-name="Trazado 157763" d="M529.169,346.65l-27.144-15.958L536.377,312l-.137,34.655Z" transform="translate(-502.025 -281.731)" fill="#dfe4eb" style="mix-blend-mode: multiply;isolation: isolate"/>
        <g id="Grupo_101807" data-name="Grupo 101807" transform="translate(7.076)">
          <g id="Grupo_101806" data-name="Grupo 101806">
            <path id="Trazado_157764" data-name="Trazado 157764" d="M558.675,302.672v30.269l-34.351,18.691V321.364Z" transform="translate(-497.185 -286.714)" fill="#edf4ff"/>
            <path id="Trazado_157765" data-name="Trazado 157765" d="M533.776,320.41V350.68l-27.139-15.957V304.456Z" transform="translate(-506.637 -285.76)" fill="#dde7f8"/>
            <path id="Trazado_157766" data-name="Trazado 157766" d="M533.781,326.926l-27.144-15.958,34.352-18.7,27.144,15.958Z" transform="translate(-506.637 -292.271)" fill="#ebf4ff"/>
          </g>
        </g>
      </g>
      <g id="Grupo_101811" data-name="Grupo 101811" transform="translate(214.58 60.43)">
        <path id="Trazado_157767" data-name="Trazado 157767" d="M551.019,350.743l-19.231-11.307,24.338-13.246,1.966,24.553Z" transform="translate(-531.787 -311.788)" fill="#dfe4eb" style="mix-blend-mode: multiply;isolation: isolate"/>
        <g id="Grupo_101810" data-name="Grupo 101810" transform="translate(7.076)">
          <g id="Grupo_101809" data-name="Grupo 101809">
            <path id="Trazado_157768" data-name="Trazado 157768" d="M573.268,324.172v14.406L548.93,351.821V337.415Z" transform="translate(-529.702 -312.866)" fill="#edf4ff"/>
            <path id="Trazado_157769" data-name="Trazado 157769" d="M555.627,336.74v14.406L536.4,339.84v-14.4Z" transform="translate(-536.399 -312.19)" fill="#dde7f8"/>
            <path id="Trazado_157770" data-name="Trazado 157770" d="M555.63,341.357,536.4,330.05,560.737,316.8l19.231,11.307Z" transform="translate(-536.399 -316.804)" fill="#ebf4ff"/>
          </g>
        </g>
      </g>
      <g id="Grupo_101814" data-name="Grupo 101814">
        <path id="Trazado_157771" data-name="Trazado 157771" d="M409.224,310.611,391.941,300.45l21.872-11.9,2.484,22.065Z" transform="translate(-391.941 -271.474)" fill="#dfe4eb" style="mix-blend-mode: multiply;isolation: isolate"/>
        <g id="Grupo_101813" data-name="Grupo 101813" transform="translate(7.076)">
          <g id="Grupo_101812" data-name="Grupo 101812">
            <path id="Trazado_157772" data-name="Trazado 157772" d="M429.687,284.042v17.075l-21.872,11.9V295.943Z" transform="translate(-390.535 -273.881)" fill="#edf4ff"/>
            <path id="Trazado_157773" data-name="Trazado 157773" d="M413.833,295.336v17.075l-17.28-10.161V285.178Z" transform="translate(-396.553 -273.274)" fill="#dde7f8"/>
            <path id="Trazado_157774" data-name="Trazado 157774" d="M413.836,299.485l-17.283-10.161,21.872-11.9,17.283,10.161Z" transform="translate(-396.553 -277.42)" fill="#ebf4ff"/>
          </g>
        </g>
      </g>
      <g id="Grupo_101817" data-name="Grupo 101817" transform="translate(73.323 0.266)">
        <path id="Trazado_157775" data-name="Trazado 157775" d="M452.85,306.01l-13.122-7.715,16.607-9.039,3.589,17.129Z" transform="translate(-439.727 -271.361)" fill="#dfe4eb" style="mix-blend-mode: multiply;isolation: isolate"/>
        <g id="Grupo_101816" data-name="Grupo 101816" transform="translate(7.076)">
          <g id="Grupo_101815" data-name="Grupo 101815">
            <path id="Trazado_157776" data-name="Trazado 157776" d="M469.5,282.621v18.273L452.89,309.93V291.658Z" transform="translate(-439.77 -274.906)" fill="#edf4ff"/>
            <path id="Trazado_157777" data-name="Trazado 157777" d="M457.459,291.2v18.273l-13.12-7.715V283.484Z" transform="translate(-444.339 -274.445)" fill="#dde7f8"/>
            <path id="Trazado_157778" data-name="Trazado 157778" d="M457.461,294.347l-13.122-7.715,16.607-9.039,13.122,7.715Z" transform="translate(-444.339 -277.593)" fill="#ebf4ff"/>
          </g>
        </g>
      </g>
      <g id="Grupo_101820" data-name="Grupo 101820" transform="translate(239.487 96.413)">
        <path id="Trazado_157779" data-name="Trazado 157779" d="M565.3,363.657,548.02,353.5l14.1-7.674,10.254,17.835Z" transform="translate(-548.02 -337.278)" fill="#dfe4eb" style="mix-blend-mode: multiply;isolation: isolate"/>
        <g id="Grupo_101819" data-name="Grupo 101819" transform="translate(7.076)">
          <g id="Grupo_101818" data-name="Grupo 101818">
            <path id="Trazado_157780" data-name="Trazado 157780" d="M578,346.876v8.548l-14.1,7.67v-8.548Z" transform="translate(-546.614 -336.715)" fill="#edf4ff"/>
            <path id="Trazado_157781" data-name="Trazado 157781" d="M569.912,355.413v8.548l-17.28-10.16v-8.546Z" transform="translate(-552.632 -337.582)" fill="#dde7f8"/>
            <path id="Trazado_157782" data-name="Trazado 157782" d="M569.915,358.089l-17.283-10.161,14.1-7.674,17.283,10.161Z" transform="translate(-552.632 -340.254)" fill="#ebf4ff"/>
          </g>
        </g>
      </g>
      <g id="Grupo_101823" data-name="Grupo 101823" transform="translate(227.31 126.225)">
        <path id="Trazado_157783" data-name="Trazado 157783" d="M557.366,388.036l-17.283-10.161,23.2-12.622,1.155,22.784Z" transform="translate(-540.084 -356.708)" fill="#dfe4eb" style="mix-blend-mode: multiply;isolation: isolate"/>
        <g id="Grupo_101822" data-name="Grupo 101822" transform="translate(7.076)">
          <g id="Grupo_101821" data-name="Grupo 101821">
            <path id="Trazado_157784" data-name="Trazado 157784" d="M579.158,366.306v8.548l-23.2,12.619v-8.548Z" transform="translate(-538.677 -356.145)" fill="#edf4ff"/>
            <path id="Trazado_157785" data-name="Trazado 157785" d="M561.975,378.068v8.548L544.7,376.456v-8.546Z" transform="translate(-544.695 -355.288)" fill="#dde7f8"/>
            <path id="Trazado_157786" data-name="Trazado 157786" d="M561.978,382.467,544.7,372.306l23.2-12.623,17.283,10.161Z" transform="translate(-544.695 -359.684)" fill="#ebf4ff"/>
          </g>
        </g>
      </g>
      <g id="Grupo_101826" data-name="Grupo 101826" transform="translate(111.595 12.875)">
        <path id="Trazado_157787" data-name="Trazado 157787" d="M481.953,309.214,464.67,299.053l14.1-7.674,10.254,17.835Z" transform="translate(-464.67 -282.835)" fill="#dfe4eb" style="mix-blend-mode: multiply;isolation: isolate"/>
        <g id="Grupo_101825" data-name="Grupo 101825" transform="translate(7.076)">
          <g id="Grupo_101824" data-name="Grupo 101824">
            <path id="Trazado_157788" data-name="Trazado 157788" d="M494.646,292.433v8.548l-14.1,7.67V300.1Z" transform="translate(-463.263 -282.272)" fill="#edf4ff"/>
            <path id="Trazado_157789" data-name="Trazado 157789" d="M486.562,300.97v8.548l-17.28-10.16v-8.546Z" transform="translate(-469.282 -283.138)" fill="#dde7f8"/>
            <path id="Trazado_157790" data-name="Trazado 157790" d="M486.565,303.645l-17.283-10.161,14.1-7.674,17.283,10.161Z" transform="translate(-469.282 -285.811)" fill="#ebf4ff"/>
          </g>
        </g>
      </g>
      <g id="Grupo_101829" data-name="Grupo 101829" transform="translate(60.188 22.065)">
        <path id="Trazado_157791" data-name="Trazado 157791" d="M472.81,332.6,431.167,308.12l19.753-10.751,41.643,24.483Z" transform="translate(-431.167 -288.824)" fill="#dfe4eb" style="mix-blend-mode: multiply;isolation: isolate"/>
        <g id="Grupo_101828" data-name="Grupo 101828" transform="translate(7.076)">
          <g id="Grupo_101827" data-name="Grupo 101827">
            <path id="Trazado_157792" data-name="Trazado 157792" d="M482.669,307.756v11.692L462.917,330.2V318.5Z" transform="translate(-421.276 -283.273)" fill="#edf4ff"/>
            <path id="Trazado_157793" data-name="Trazado 157793" d="M477.419,323.287v11.692L435.779,310.5v-11.69Z" transform="translate(-435.779 -288.056)" fill="#dde7f8"/>
            <path id="Trazado_157794" data-name="Trazado 157794" d="M477.422,327.034l-41.643-24.483,19.753-10.75,41.643,24.483Z" transform="translate(-435.779 -291.8)" fill="#ebf4ff"/>
          </g>
        </g>
      </g>
      <g id="Grupo_101832" data-name="Grupo 101832" transform="translate(166.858 78.038)">
        <path id="Trazado_157795" data-name="Trazado 157795" d="M547.136,380l-46.45-26.819L520.2,341.912l34,38.083Z" transform="translate(-500.686 -320.994)" fill="#dfe4eb" style="mix-blend-mode: multiply;isolation: isolate"/>
        <g id="Grupo_101831" data-name="Grupo 101831" transform="translate(7.076)">
          <g id="Grupo_101830" data-name="Grupo 101830">
            <path id="Trazado_157796" data-name="Trazado 157796" d="M555.085,345.758v20.924l-19.518,11.26V357.017Z" transform="translate(-489.122 -318.939)" fill="#edf4ff"/>
            <path id="Trazado_157797" data-name="Trazado 157797" d="M551.743,362.435v20.924L505.3,356.541V335.62Z" transform="translate(-505.298 -324.356)" fill="#dde7f8"/>
            <path id="Trazado_157798" data-name="Trazado 157798" d="M551.748,366.363,505.3,339.544l19.518-11.265,46.45,26.819Z" transform="translate(-505.298 -328.279)" fill="#ebf4ff"/>
          </g>
        </g>
      </g>
      <g id="Grupo_101835" data-name="Grupo 101835" transform="translate(116.031 58.886)">
        <path id="Trazado_157799" data-name="Trazado 157799" d="M499.4,355.409l-31.843-18.385,20.559-11.855,18.357,30.2Z" transform="translate(-467.561 -310.789)" fill="#dfe4eb" style="mix-blend-mode: multiply;isolation: isolate"/>
        <g id="Grupo_101834" data-name="Grupo 101834" transform="translate(7.076)">
          <g id="Grupo_101833" data-name="Grupo 101833">
            <path id="Trazado_157800" data-name="Trazado 157800" d="M513.481,327.779v14.344l-20.558,11.851V339.63Z" transform="translate(-461.083 -309.394)" fill="#edf4ff"/>
            <path id="Trazado_157801" data-name="Trazado 157801" d="M504.012,341.905v14.344l-31.84-18.384V323.522Z" transform="translate(-472.172 -311.668)" fill="#dde7f8"/>
            <path id="Trazado_157802" data-name="Trazado 157802" d="M504.015,346.037l-31.843-18.385L492.731,315.8l31.843,18.385Z" transform="translate(-472.172 -315.797)" fill="#ebf4ff"/>
          </g>
        </g>
      </g>
    </g>
    <g id="Grupo_101840" data-name="Grupo 101840" transform="translate(631.418 385.422)">
      <path id="Trazado_157803" data-name="Trazado 157803" d="M545.821,406.558a14.107,14.107,0,0,1-12.763-.023c-3.535-2.042-3.554-5.341-.04-7.37a14.107,14.107,0,0,1,12.763.023C549.318,401.229,549.334,404.53,545.821,406.558Z" transform="translate(-515.857 -321.171)" fill="url(#linear-gradient-16)"/>
      <g id="Grupo_101839" data-name="Grupo 101839" transform="translate(0)">
        <g id="Grupo_101838" data-name="Grupo 101838">
          <path id="Trazado_157804" data-name="Trazado 157804" d="M550.962,348.51l-.011.015c-3.185-1.324-7.328-.859-11.872,1.765-10.03,5.791-18.16,19.812-18.16,31.322,0,15.663,18.16,33.482,18.16,33.482l5.4,2.67,11.984-66.518Z" transform="translate(-520.92 -347.807)" fill="#ff4c4a"/>
          <g id="Grupo_101837" data-name="Grupo 101837" transform="translate(5.403 2.656)">
            <path id="Trazado_157805" data-name="Trazado 157805" d="M542.6,352.033c10.032-5.791,18.16-1.157,18.16,10.354,0,15.663-18.16,54.451-18.16,54.451s-18.16-17.819-18.16-33.482C524.441,371.845,532.57,357.825,542.6,352.033Z" transform="translate(-524.441 -349.538)" fill="#ff4c4a"/>
            <ellipse id="Elipse_4569" data-name="Elipse 4569" cx="14.831" cy="8.562" rx="14.831" ry="8.562" transform="translate(3.285 31.813) rotate(-59.689)" fill="#fcfbfa"/>
          </g>
        </g>
        <path id="Trazado_157806" data-name="Trazado 157806" d="M525.88,383.964c0-11.244,7.941-24.94,17.739-30.6,9.691-5.6,16.957-1.49,17.125,9.489,0-.153.015-.319.015-.468,0-11.511-8.128-16.145-18.16-10.354s-18.16,19.812-18.16,31.323c0,15.663,18.16,33.481,18.16,33.481h0S525.88,399.262,525.88,383.964Z" transform="translate(-519.038 -346.883)" fill="#ff8685"/>
      </g>
    </g>
    <g id="Grupo_101899" data-name="Grupo 101899" transform="translate(453.712 295.272)">
      <g id="Grupo_101897" data-name="Grupo 101897">
        <g id="Grupo_101888" data-name="Grupo 101888">
          <g id="Grupo_101874" data-name="Grupo 101874">
            <path id="Trazado_157807" data-name="Trazado 157807" d="M447.422,328.462,572.64,400.775l-42.317,24.432L405.105,352.894Z" transform="translate(-405.105 -267.995)" fill="#bfb5bf" style="mix-blend-mode: multiply;isolation: isolate"/>
            <path id="Trazado_157808" data-name="Trazado 157808" d="M421.044,353.813l5.674-4.379,20.132,14.157,48.4,33.065,6.3-3.787,16.8,10.663-7.775-21.584-89.289-44.333Z" transform="translate(-396.588 -263.104)" fill="#0f0e1b"/>
            <path id="Trazado_157809" data-name="Trazado 157809" d="M493.259,386c0-5.489-3.877-12.175-8.66-14.937-2.385-1.376-4.543-1.518-6.109-.632h0l-.037.021-5.469,3.159v4.236l12.283,16.863,5.13-2.98a4.2,4.2,0,0,0,.687-.4h0C492.438,390.355,493.259,388.524,493.259,386Z" transform="translate(-368.832 -245.865)" fill="#23222d"/>
            <path id="Trazado_157810" data-name="Trazado 157810" d="M444.553,357.841c0-5.489-3.877-12.177-8.662-14.937-2.529-1.461-4.8-1.53-6.388-.46l-5.415,3.133,3.667,5.98a20.378,20.378,0,0,0,5.866,9.565l3.227,5.26,4.757-2.774a4.1,4.1,0,0,0,.861-.5h0C443.766,362.117,444.553,360.311,444.553,357.841Z" transform="translate(-394.961 -260.913)" fill="#23222d"/>
            <g id="Grupo_101853" data-name="Grupo 101853" transform="translate(38.279)">
              <path id="Trazado_157811" data-name="Trazado 157811" d="M552.636,394.393v15.3l-6.532-3.772a23.817,23.817,0,0,0-10.257-13.237c-6.165-3.56-7.011.583-10.478,6.761a13.929,13.929,0,0,0-.68,1.725l-51.933-29.984q.018-1,.017-2.107c0-7.075-5-19.525-11.164-23.085s-11.164-.71-11.164,6.365q0,1.121.038,2.139l-16.559-9.561v-55l101.183,58.418,5.966,31.988Z" transform="translate(-427.984 -288.583)" fill="#e4dfd9"/>
              <path id="Trazado_157812" data-name="Trazado 157812" d="M512.415,374.346c0,5.489-3.877,7.7-8.662,4.938s-8.66-9.449-8.66-14.937,3.877-7.7,8.66-4.938S512.415,368.857,512.415,374.346Z" transform="translate(-395.295 -252.093)" fill="#2d2c37"/>
              <path id="Trazado_157813" data-name="Trazado 157813" d="M463.642,347.521c0,5.489-3.877,7.7-8.66,4.938s-8.66-13.279-8.66-18.767,3.877-7.7,8.66-4.938S463.642,342.033,463.642,347.521Z" transform="translate(-421.358 -268.474)" fill="#2d2c37"/>
              <path id="Trazado_157814" data-name="Trazado 157814" d="M460.078,344.812c0,3.813-2.693,5.349-6.016,3.431s-6.018-10.394-6.018-14.207,2.694-5.349,6.018-3.431S460.078,341,460.078,344.812Z" transform="translate(-420.438 -267.291)" fill="#504f58"/>
              <path id="Trazado_157815" data-name="Trazado 157815" d="M459.316,344.232c0,3.455-2.441,4.847-5.452,3.109s-5.452-9.777-5.452-13.231,2.44-4.847,5.452-3.109S459.316,340.778,459.316,344.232Z" transform="translate(-420.241 -267.038)" fill="#c2c7d6"/>
              <path id="Trazado_157816" data-name="Trazado 157816" d="M458.578,343.671c0,3.109-2.2,4.361-4.9,2.8s-4.9-9.179-4.9-12.286,2.2-4.361,4.9-2.8S458.578,340.564,458.578,343.671Z" transform="translate(-420.05 -266.793)" fill="#a5acc2"/>
              <path id="Trazado_157817" data-name="Trazado 157817" d="M456.023,337.9c0,1.907-1.347,6.5-3.009,5.544S450,336.334,450,334.426s1.347-2.674,3.009-1.715A6.628,6.628,0,0,1,456.023,337.9Z" transform="translate(-419.39 -265.945)" fill="#cfd9e7"/>
              <path id="Trazado_157818" data-name="Trazado 157818" d="M508.85,371.636c0,3.815-2.694,5.35-6.018,3.431a13.26,13.26,0,0,1-6.016-10.379c0-3.813,2.694-5.349,6.016-3.431A13.26,13.26,0,0,1,508.85,371.636Z" transform="translate(-394.374 -250.91)" fill="#504f58"/>
              <path id="Trazado_157819" data-name="Trazado 157819" d="M508.089,371.058c0,3.454-2.441,4.846-5.453,3.107a12.012,12.012,0,0,1-5.452-9.4c0-3.456,2.441-4.847,5.452-3.109A12.012,12.012,0,0,1,508.089,371.058Z" transform="translate(-394.177 -250.657)" fill="#b5bbcd"/>
              <path id="Trazado_157820" data-name="Trazado 157820" d="M506.374,369.754c0,2.65-1.872,3.718-4.181,2.384a9.215,9.215,0,0,1-4.18-7.212c0-2.65,1.872-3.716,4.18-2.383A9.21,9.21,0,0,1,506.374,369.754Z" transform="translate(-393.734 -250.088)" fill="#cfd9e7"/>
              <path id="Trazado_157821" data-name="Trazado 157821" d="M503.813,367.809c0,1.445-1.022,2.027-2.282,1.3a5.025,5.025,0,0,1-2.28-3.934c0-1.445,1.02-2.028,2.28-1.3A5.027,5.027,0,0,1,503.813,367.809Z" transform="translate(-393.073 -249.239)" fill="#e1e7ef"/>
              <path id="Trazado_157822" data-name="Trazado 157822" d="M502.408,366.739c0,.786-.555,1.1-1.24.707a2.73,2.73,0,0,1-1.238-2.137c0-.786.554-1.1,1.238-.706A2.729,2.729,0,0,1,502.408,366.739Z" transform="translate(-392.71 -248.772)" fill="#c2c7d6"/>
              <path id="Trazado_157823" data-name="Trazado 157823" d="M528.6,375.608l-36.486,16-6.1-2.092-3.813-2.2,38.9-22.459,5.982,3.453,1.518,2.234Z" transform="translate(-402.185 -248.547)" fill="#6b6164"/>
              <path id="Trazado_157824" data-name="Trazado 157824" d="M534.435,346.6l-99.677-57.549-.835,1.354,101.184,58.419Z" transform="translate(-427.984 -289.054)" fill="#f3f1ee"/>
              <path id="Trazado_157825" data-name="Trazado 157825" d="M507.2,356.211l-72.264-41.722v-2.1L507.2,354.116Z" transform="translate(-427.445 -276.582)" fill="#98979d"/>
              <g id="Grupo_101841" data-name="Grupo 101841" transform="translate(80.724 50.758)">
                <path id="Trazado_157826" data-name="Trazado 157826" d="M482.662,372.616V322.134L503.5,334.162v33.6l-6.852,12.925Z" transform="translate(-482.662 -322.134)" fill="#cdc6bc"/>
              </g>
              <path id="Trazado_157827" data-name="Trazado 157827" d="M501.8,333.181l-4.7-2.711v26.577l6.956,4.016,1.966-3.2Z" transform="translate(-394.222 -266.922)" fill="#2d2c37"/>
              <path id="Trazado_157828" data-name="Trazado 157828" d="M497.509,356.315V331.174l3.587,2.071,4.042,23.77-1.679,2.734Z" transform="translate(-394.003 -266.545)" fill="#7572a4"/>
              <g id="Grupo_101842" data-name="Grupo 101842" transform="translate(79.75 101.318)">
                <path id="Trazado_157829" data-name="Trazado 157829" d="M498.982,364.874l-16.955-9.789v1.477l16.955,9.789Z" transform="translate(-482.027 -355.085)" fill="#9b897f"/>
              </g>
              <g id="Grupo_101843" data-name="Grupo 101843" transform="translate(0 51.446)">
                <path id="Trazado_157830" data-name="Trazado 157830" d="M435.991,326.011l-5.939-3.429v1.477l5.939,3.429Z" transform="translate(-430.052 -322.583)" fill="#9b897f"/>
              </g>
              <path id="Trazado_157831" data-name="Trazado 157831" d="M510.939,363.134l-2.487-1.436v-2.854l2.487,1.436Z" transform="translate(-388.156 -251.758)" fill="#504f58"/>
              <path id="Trazado_157832" data-name="Trazado 157832" d="M510.654,362.643l-2.065-1.192v-2.369l2.065,1.192Z" transform="translate(-388.082 -251.632)" fill="#ff9a2e"/>
              <path id="Trazado_157833" data-name="Trazado 157833" d="M438.375,319.413c0,.882-.623,1.237-1.39.793a3.067,3.067,0,0,1-1.392-2.4c0-.882.623-1.238,1.392-.793A3.066,3.066,0,0,1,438.375,319.413Z" transform="translate(-427.091 -274.216)" fill="#504f58"/>
              <path id="Trazado_157834" data-name="Trazado 157834" d="M437.986,319.116c0,.7-.494.979-1.1.628a2.426,2.426,0,0,1-1.1-1.9c0-.7.494-.98,1.1-.629A2.432,2.432,0,0,1,437.986,319.116Z" transform="translate(-426.991 -274.086)" fill="#ff512e"/>
              <path id="Trazado_157835" data-name="Trazado 157835" d="M437.673,322.422c0,.6-.424.841-.945.54a2.085,2.085,0,0,1-.947-1.631c0-.6.423-.841.947-.54A2.087,2.087,0,0,1,437.673,322.422Z" transform="translate(-426.991 -272.163)" fill="#f9f1ec"/>
              <path id="Trazado_157836" data-name="Trazado 157836" d="M437.478,322.275c0,.509-.359.713-.8.457a1.764,1.764,0,0,1-.8-1.382c0-.509.359-.714.8-.457A1.766,1.766,0,0,1,437.478,322.275Z" transform="translate(-426.941 -272.099)" fill="#ff9a2e"/>
              <path id="Trazado_157837" data-name="Trazado 157837" d="M462.809,340.723c0,.6-.423.841-.947.54a2.087,2.087,0,0,1-.945-1.631c0-.6.424-4.669.945-4.368S462.809,340.125,462.809,340.723Z" transform="translate(-413.558 -264.369)" fill="#f9f1ec"/>
              <path id="Trazado_157838" data-name="Trazado 157838" d="M462.614,339.282c0,.509-.359.713-.8.457a1.766,1.766,0,0,1-.8-1.383c0-.509.359-.713.8-.457A1.764,1.764,0,0,1,462.614,339.282Z" transform="translate(-413.508 -263.011)" fill="#ff9a2e"/>
              <path id="Trazado_157839" data-name="Trazado 157839" d="M481.283,347.6c0,.6-.423.841-.945.54a2.087,2.087,0,0,1-.945-1.631c0-.6.423-.841.945-.54A2.087,2.087,0,0,1,481.283,347.6Z" transform="translate(-403.685 -258.708)" fill="#f9f1ec"/>
              <path id="Trazado_157840" data-name="Trazado 157840" d="M481.091,347.454c0,.509-.359.714-.8.457a1.764,1.764,0,0,1-.8-1.383c0-.509.359-.714.8-.457A1.764,1.764,0,0,1,481.091,347.454Z" transform="translate(-403.635 -258.643)" fill="#ff9a2e"/>
              <g id="Grupo_101844" data-name="Grupo 101844" transform="translate(8.79 3.878)">
                <path id="Trazado_157841" data-name="Trazado 157841" d="M439.016,294.886l-3.235-1.867v-1.437l3.235,1.867Z" transform="translate(-435.781 -291.582)" fill="#cdc6bc"/>
              </g>
              <path id="Trazado_157842" data-name="Trazado 157842" d="M438.63,294.367l-2.662-1.537v-1.063l2.662,1.537Z" transform="translate(-426.891 -287.604)" fill="#ff9a2e"/>
              <g id="Grupo_101845" data-name="Grupo 101845" transform="translate(49.107 27.155)">
                <path id="Trazado_157843" data-name="Trazado 157843" d="M465.291,310.056l-3.235-1.867v-1.437l3.235,1.868Z" transform="translate(-462.056 -306.752)" fill="#cdc6bc"/>
              </g>
              <path id="Trazado_157844" data-name="Trazado 157844" d="M464.9,309.537,462.243,308v-1.063l2.662,1.537Z" transform="translate(-412.85 -279.497)" fill="#ff9a2e"/>
              <g id="Grupo_101846" data-name="Grupo 101846" transform="translate(99.941 56.504)">
                <path id="Trazado_157845" data-name="Trazado 157845" d="M498.42,329.183l-3.235-1.868v-1.437l3.235,1.868Z" transform="translate(-495.186 -325.879)" fill="#cdc6bc"/>
              </g>
              <path id="Trazado_157846" data-name="Trazado 157846" d="M498.034,328.664l-2.662-1.537v-1.063l2.662,1.537Z" transform="translate(-395.145 -269.276)" fill="#ff9a2e"/>
              <g id="Grupo_101848" data-name="Grupo 101848" transform="translate(8.598 10.628)">
                <g id="Grupo_101847" data-name="Grupo 101847">
                  <path id="Trazado_157847" data-name="Trazado 157847" d="M461.423,330.557a3.234,3.234,0,0,1-1.6-.479l-20.377-11.766c-2.087-1.2-3.785-4.434-3.785-7.2V299.484a3.539,3.539,0,0,1,1.418-3.215,2.645,2.645,0,0,1,2.7.19l20.377,11.764c2.088,1.2,3.785,4.436,3.785,7.2v11.626a3.537,3.537,0,0,1-1.418,3.216A2.175,2.175,0,0,1,461.423,330.557Zm-1.27-1.059a2.015,2.015,0,0,0,2.033.19,2.919,2.919,0,0,0,1.082-2.636V315.426c0-2.553-1.547-5.524-3.449-6.621l-20.377-11.764a2.012,2.012,0,0,0-2.031-.192,2.915,2.915,0,0,0-1.083,2.635v11.628c0,2.553,1.548,5.522,3.449,6.621Z" transform="translate(-435.656 -295.981)" fill="#cdc6bc"/>
                </g>
              </g>
              <g id="Grupo_101850" data-name="Grupo 101850" transform="translate(40.307 28.935)">
                <g id="Grupo_101849" data-name="Grupo 101849">
                  <path id="Trazado_157848" data-name="Trazado 157848" d="M482.088,342.488a3.232,3.232,0,0,1-1.6-.48L460.1,330.244c-2.087-1.2-3.784-4.436-3.784-7.2V311.415a3.54,3.54,0,0,1,1.418-3.216,2.649,2.649,0,0,1,2.7.192l20.377,11.764c2.087,1.2,3.784,4.436,3.784,7.2v11.628a3.537,3.537,0,0,1-1.418,3.216A2.17,2.17,0,0,1,482.088,342.488Zm-23.252-33.9a1.493,1.493,0,0,0-.761.2,2.916,2.916,0,0,0-1.085,2.635v11.628c0,2.552,1.548,5.522,3.451,6.619l20.377,11.766a2.012,2.012,0,0,0,2.031.19,2.917,2.917,0,0,0,1.083-2.635V327.356c0-2.552-1.548-5.522-3.449-6.619L460.1,308.971A2.587,2.587,0,0,0,458.836,308.584Z" transform="translate(-456.321 -307.912)" fill="#cdc6bc"/>
                </g>
              </g>
              <path id="Trazado_157849" data-name="Trazado 157849" d="M497.449,356.287l-11.2-10.294a5.141,5.141,0,0,1-2.148-4.1V326.644c0-1.582.962-2.309,2.148-1.623l11.2,6.466a5.142,5.142,0,0,1,2.148,4.1v19.074C499.6,356.246,498.635,356.972,497.449,356.287Z" transform="translate(-401.169 -269.972)" fill="#2d2c37"/>
              <path id="Trazado_157850" data-name="Trazado 157850" d="M484.509,342.091V326.612c0-1.12.681-1.634,1.522-1.149l11.2,6.466a3.642,3.642,0,0,1,1.522,2.908v19.306c0,1.122-.681,1.636-1.522,1.151L486.031,345A3.642,3.642,0,0,1,484.509,342.091Z" transform="translate(-400.951 -269.695)" fill="#7572a4"/>
              <path id="Trazado_157851" data-name="Trazado 157851" d="M489.7,361.275l-3.452-1.992c-1.186-.686-2.148-6.351-2.148-7.933v-9.708c0-1.582.962-2.308,2.148-1.623l3.452,1.993a5.144,5.144,0,0,1,2.148,4.1v13.536C491.85,361.233,490.888,361.961,489.7,361.275Z" transform="translate(-401.169 -261.957)" fill="#2d2c37"/>
              <path id="Trazado_157852" data-name="Trazado 157852" d="M484.509,351.553v-9.941c0-1.12.681-1.636,1.522-1.151l3.452,1.993a3.644,3.644,0,0,1,1.522,2.908v13.77c0,1.12-.681,1.636-1.522,1.149l-3.452-1.993C485.19,357.8,484.509,352.673,484.509,351.553Z" transform="translate(-400.951 -261.68)" fill="#7572a4"/>
              <path id="Trazado_157853" data-name="Trazado 157853" d="M499.443,365.715a4.736,4.736,0,0,0,1.053,1.866.931.931,0,0,1,.261.746h0c-.061.2-.347.138-.608-.167a7.568,7.568,0,0,1-1.4-2.477c-.124-.379-.02-.64.184-.585h0A.97.97,0,0,1,499.443,365.715Z" transform="translate(-393.369 -248.42)" fill="#504f58"/>
              <path id="Trazado_157854" data-name="Trazado 157854" d="M502.755,366.391a4.746,4.746,0,0,0-1.053-1.866.931.931,0,0,1-.261-.746h0c.061-.195.347-.138.608.169a7.538,7.538,0,0,1,1.4,2.477c.124.377.02.638-.184.583h0A.963.963,0,0,1,502.755,366.391Z" transform="translate(-391.91 -249.182)" fill="#504f58"/>
              <path id="Trazado_157855" data-name="Trazado 157855" d="M501.646,367.967a1.012,1.012,0,0,0,1.1-.575c.1-.166.318-.187.519,0h0a.7.7,0,0,1,.158.789,1.559,1.559,0,0,1-1.455.764.737.737,0,0,1-.6-.557h0C501.311,368.123,501.446,367.959,501.646,367.967Z" transform="translate(-391.949 -247.262)" fill="#504f58"/>
              <path id="Trazado_157856" data-name="Trazado 157856" d="M500.571,363.562a1.014,1.014,0,0,0-1.1.575c-.1.167-.318.187-.519,0h0a.7.7,0,0,1-.158-.789,1.554,1.554,0,0,1,1.455-.763.734.734,0,0,1,.6.555h0C500.906,363.406,500.771,363.569,500.571,363.562Z" transform="translate(-393.35 -249.762)" fill="#504f58"/>
              <g id="Grupo_101851" data-name="Grupo 101851" transform="translate(110.88 91.698)">
                <path id="Trazado_157857" data-name="Trazado 157857" d="M502.65,363.546h-.335l.012-9.608,2.04-5.122.311.124-2.028,5.092Z" transform="translate(-502.315 -348.816)" fill="#c9c3b9"/>
              </g>
              <g id="Grupo_101852" data-name="Grupo 101852" transform="translate(111.944 94.209)">
                <path id="Trazado_157858" data-name="Trazado 157858" d="M515.592,364.69l-12.584-14.013.248-.224,12.584,14.013Z" transform="translate(-503.008 -350.452)" fill="#c9c3b9"/>
              </g>
            </g>
            <path id="Trazado_157859" data-name="Trazado 157859" d="M412.32,343.86l-5.939-3.429,7.055-4.074,5.939,3.429Z" transform="translate(-404.424 -263.775)" fill="#6b6164"/>
            <g id="Grupo_101868" data-name="Grupo 101868" transform="translate(1.958 20.97)">
              <path id="Trazado_157860" data-name="Trazado 157860" d="M528.965,408.059v15.3l-6.532-3.772a23.82,23.82,0,0,0-10.257-13.239c-6.165-3.56-7.011.583-10.478,6.762a13.929,13.929,0,0,0-.68,1.725l-51.933-29.984c.012-.666.017-1.367.017-2.108,0-7.075-5-15.7-11.164-19.257s-11.164-.709-11.164,6.365q0,1.121.038,2.14l-16.559-9.561V303.6l101.183,58.419L517.4,394.01Z" transform="translate(-404.313 -302.249)" fill="#ded8d1"/>
              <g id="Grupo_101854" data-name="Grupo 101854" transform="translate(8.535 47.873)">
                <path id="Trazado_157861" data-name="Trazado 157861" d="M414.149,335.973c0,.7-.494.98-1.1.629a2.432,2.432,0,0,1-1.1-1.9c0-.7.494-.98,1.1-.629A2.429,2.429,0,0,1,414.149,335.973Z" transform="translate(-411.944 -333.921)" fill="#cdc6bc"/>
              </g>
              <g id="Grupo_101855" data-name="Grupo 101855" transform="translate(6.559 39.64)">
                <path id="Trazado_157862" data-name="Trazado 157862" d="M482.92,373.434l-72.264-41.722v-2.1l.927-1.062,71.337,42.784.927,1.033Z" transform="translate(-410.656 -328.555)" fill="#cdc6bc"/>
              </g>
              <g id="Grupo_101856" data-name="Grupo 101856" transform="translate(120.025 107.45)">
                <path id="Trazado_157863" data-name="Trazado 157863" d="M486.265,377.111l-1.661-.959v-1.906l.483-1.5,2.065,3.561Z" transform="translate(-484.604 -372.749)" fill="#b5aa9c"/>
              </g>
              <path id="Trazado_157864" data-name="Trazado 157864" d="M488.744,388.012c0,5.489-3.877,7.7-8.662,4.938s-8.66-9.449-8.66-14.937,3.877-7.7,8.66-4.938S488.744,382.523,488.744,388.012Z" transform="translate(-371.624 -265.76)" fill="#2d2c37"/>
              <path id="Trazado_157865" data-name="Trazado 157865" d="M488.744,388.012c0,5.489-3.877,7.7-8.662,4.938s-8.66-9.449-8.66-14.937,3.877-7.7,8.66-4.938S488.744,382.523,488.744,388.012Z" transform="translate(-371.624 -265.76)" fill="#393843"/>
              <path id="Trazado_157866" data-name="Trazado 157866" d="M488.162,387.733c0,5.28-3.73,7.407-8.332,4.75s-8.33-9.09-8.33-14.37,3.729-7.406,8.33-4.75S488.162,382.453,488.162,387.733Z" transform="translate(-371.582 -265.581)" fill="#2d2c37"/>
              <path id="Trazado_157867" data-name="Trazado 157867" d="M439.971,359.854c0,5.489-3.877,7.7-8.66,4.938s-8.66-9.449-8.66-14.937,3.877-7.7,8.66-4.938S439.971,354.365,439.971,359.854Z" transform="translate(-397.687 -280.807)" fill="#393843"/>
              <path id="Trazado_157868" data-name="Trazado 157868" d="M439.175,359.575c0,5.28-3.73,7.406-8.33,4.75s-8.332-9.091-8.332-14.37,3.73-7.407,8.332-4.75S439.175,354.3,439.175,359.575Z" transform="translate(-397.761 -280.628)" fill="#2d2c37"/>
              <path id="Trazado_157869" data-name="Trazado 157869" d="M436.3,357.223c0,3.813-2.694,5.349-6.018,3.431a13.259,13.259,0,0,1-6.016-10.379c0-3.813,2.693-5.349,6.016-3.431A13.258,13.258,0,0,1,436.3,357.223Z" transform="translate(-396.822 -279.582)" fill="#504f58"/>
              <path id="Trazado_157870" data-name="Trazado 157870" d="M435.645,356.566c0,3.456-2.441,4.847-5.452,3.109a12.015,12.015,0,0,1-5.452-9.4c0-3.456,2.441-4.847,5.452-3.109A12.015,12.015,0,0,1,435.645,356.566Z" transform="translate(-396.57 -279.372)" fill="#c4c2bb"/>
              <path id="Trazado_157871" data-name="Trazado 157871" d="M434.907,356c0,3.107-2.2,4.359-4.9,2.8a10.8,10.8,0,0,1-4.9-8.459c0-3.107,2.194-4.359,4.9-2.8a7.14,7.14,0,0,1,.729.483,11.211,11.211,0,0,1,4.117,7.069A7.334,7.334,0,0,1,434.907,356Z" transform="translate(-396.379 -279.126)" fill="#b0ac9e"/>
              <path id="Trazado_157872" data-name="Trazado 157872" d="M431.772,357.536a10.227,10.227,0,0,1-4.642-8.008,3.585,3.585,0,0,1,.913-2.645c-1.732-.134-2.945,1.149-2.945,3.458A10.8,10.8,0,0,0,430,358.8c1.973,1.139,3.673.783,4.451-.7A3.722,3.722,0,0,1,431.772,357.536Z" transform="translate(-396.379 -279.126)" fill="#b7b4a9"/>
              <g id="Grupo_101857" data-name="Grupo 101857" transform="translate(32.225 70.728)" style="mix-blend-mode: multiply;isolation: isolate">
                <path id="Trazado_157873" data-name="Trazado 157873" d="M433.4,354.418c0,1.907-1.347,2.674-3.009,1.715a6.63,6.63,0,0,1-3.007-5.189c0-1.906,1.347-2.674,3.007-1.715A6.63,6.63,0,0,1,433.4,354.418Z" transform="translate(-427.383 -348.816)" fill="#cdc6bc"/>
              </g>
              <path id="Trazado_157874" data-name="Trazado 157874" d="M433.413,354.695c-.516.749-1.5.89-2.619.241a6.63,6.63,0,0,1-3.007-5.189c0-1.28.606-2.047,1.51-2.121A11.211,11.211,0,0,1,433.413,354.695Z" transform="translate(-394.943 -278.723)" fill="#9d9783"/>
              <path id="Trazado_157875" data-name="Trazado 157875" d="M429.081,347.79l-2.256,1.307,4.445,7.216,2.225-1.284-1.519-3.629Z" transform="translate(-395.457 -278.636)" fill="#9d9783"/>
              <path id="Trazado_157876" data-name="Trazado 157876" d="M432.352,354.061c0,1.907-1.347,2.676-3.009,1.715a6.628,6.628,0,0,1-3.009-5.189c0-1.906,1.347-2.674,3.009-1.715A6.633,6.633,0,0,1,432.352,354.061Z" transform="translate(-395.719 -278.278)" fill="#b7b4a9"/>
              <path id="Trazado_157877" data-name="Trazado 157877" d="M432.069,353.944c0,1.823-1.287,2.558-2.877,1.64a6.34,6.34,0,0,1-2.877-4.961c0-1.824,1.289-2.558,2.877-1.64A6.333,6.333,0,0,1,432.069,353.944Z" transform="translate(-395.729 -278.209)" fill="#d5d2c9"/>
              <path id="Trazado_157878" data-name="Trazado 157878" d="M485.074,385.381c0,3.815-2.693,5.35-6.016,3.431a13.258,13.258,0,0,1-6.018-10.379c0-3.813,2.694-5.349,6.018-3.431A13.259,13.259,0,0,1,485.074,385.381Z" transform="translate(-370.759 -264.535)" fill="#504f58"/>
              <path id="Trazado_157879" data-name="Trazado 157879" d="M484.418,384.724c0,3.455-2.441,4.847-5.453,3.109a12.015,12.015,0,0,1-5.452-9.4c0-3.454,2.441-4.846,5.452-3.107A12.007,12.007,0,0,1,484.418,384.724Z" transform="translate(-370.506 -264.324)" fill="#c4c2bb"/>
              <path id="Trazado_157880" data-name="Trazado 157880" d="M483.5,384.026c0,3.023-2.136,4.24-4.77,2.719a10.513,10.513,0,0,1-4.769-8.227c0-3.023,2.136-4.241,4.769-2.72A10.513,10.513,0,0,1,483.5,384.026Z" transform="translate(-370.269 -264.019)" fill="#b7b4a9"/>
              <path id="Trazado_157881" data-name="Trazado 157881" d="M482.7,383.422c0,2.65-1.872,3.716-4.181,2.383a9.212,9.212,0,0,1-4.18-7.21c0-2.65,1.872-3.718,4.18-2.384A9.213,9.213,0,0,1,482.7,383.422Z" transform="translate(-370.063 -263.755)" fill="#d5d2c9"/>
              <path id="Trazado_157882" data-name="Trazado 157882" d="M480.208,381.9c0,1.583-1.119,2.222-2.5,1.425a5.509,5.509,0,0,1-2.5-4.31c0-1.585,1.119-2.222,2.5-1.425A5.5,5.5,0,0,1,480.208,381.9Z" transform="translate(-369.599 -262.893)" fill="#cac6bc"/>
              <path id="Trazado_157883" data-name="Trazado 157883" d="M475.772,379.382a4.731,4.731,0,0,0,1.053,1.864.936.936,0,0,1,.261.747h0c-.061.195-.347.138-.608-.169a7.538,7.538,0,0,1-1.4-2.477c-.124-.378-.02-.638.183-.583h0A.96.96,0,0,1,475.772,379.382Z" transform="translate(-369.698 -262.086)" fill="#504f58"/>
              <path id="Trazado_157884" data-name="Trazado 157884" d="M479.612,381.609c0,1.395-.987,1.956-2.2,1.254a4.849,4.849,0,0,1-2.2-3.8c0-1.395.985-1.956,2.2-1.255A4.853,4.853,0,0,1,479.612,381.609Z" transform="translate(-369.599 -262.754)" fill="#dddddb"/>
              <path id="Trazado_157885" data-name="Trazado 157885" d="M478.256,380.577c0,.758-.534,1.063-1.2.683a2.639,2.639,0,0,1-1.2-2.064c0-.756.535-1.062,1.2-.681A2.632,2.632,0,0,1,478.256,380.577Z" transform="translate(-369.249 -262.304)" fill="#b7b4a9"/>
              <path id="Trazado_157886" data-name="Trazado 157886" d="M492.114,388.851l-6.314-.7-2.922-1.687-.678-6.977,3.813,2.2,6.1,2.092Z" transform="translate(-365.864 -261.695)" fill="#493f41"/>
              <path id="Trazado_157887" data-name="Trazado 157887" d="M510.764,360.269l-99.677-57.549-.835,1.354,101.184,58.419Z" transform="translate(-404.313 -302.721)" fill="#f3f1ee"/>
              <path id="Trazado_157888" data-name="Trazado 157888" d="M483.082,370.669l-72.264-41.722.679-.392,72.264,41.722Z" transform="translate(-404.01 -288.915)" fill="#6b6164"/>
              <path id="Trazado_157889" data-name="Trazado 157889" d="M457.914,356.138v2.1l.679-.392v-2.1Z" transform="translate(-378.842 -274.384)" fill="#554d4e"/>
              <g id="Grupo_101858" data-name="Grupo 101858" transform="translate(80.724 54.586)">
                <path id="Trazado_157890" data-name="Trazado 157890" d="M458.991,384.95V338.3l20.833,12.028V380.1l-6.852,12.925Z" transform="translate(-458.991 -338.295)" fill="#cdc6bc"/>
              </g>
              <path id="Trazado_157891" data-name="Trazado 157891" d="M478.126,346.848l-4.7-2.711v26.577l6.956,4.016,1.966-3.2Z" transform="translate(-370.551 -280.588)" fill="#2d2c37"/>
              <path id="Trazado_157892" data-name="Trazado 157892" d="M473.838,369.981V344.841l3.587,2.071,4.042,23.77-1.679,2.734Z" transform="translate(-370.333 -280.212)" fill="#573f3f"/>
              <path id="Trazado_157893" data-name="Trazado 157893" d="M412.32,342.442l-5.939-3.429v1.064l5.939,3.429Z" transform="translate(-406.381 -283.326)" fill="#493f41"/>
              <path id="Trazado_157894" data-name="Trazado 157894" d="M487.268,376.8l-2.487-1.436v-2.854l2.487,1.436Z" transform="translate(-364.485 -265.425)" fill="#504f58"/>
              <path id="Trazado_157895" data-name="Trazado 157895" d="M487.215,376.31l-2.731-2.711.667-.85,2.065,1.192Z" transform="translate(-364.643 -265.298)" fill="#ff9a2e"/>
              <path id="Trazado_157896" data-name="Trazado 157896" d="M486.145,376.167l-1.661-.959V373.3l1.661.959Z" transform="translate(-364.643 -265.002)" fill="#e06f2e"/>
              <path id="Trazado_157897" data-name="Trazado 157897" d="M414.7,335.573c0,.882-.623,1.237-1.392.793a3.067,3.067,0,0,1-1.39-2.4c0-.882.623-1.237,1.39-.793A3.064,3.064,0,0,1,414.7,335.573Z" transform="translate(-403.421 -286.549)" fill="#504f58"/>
              <path id="Trazado_157898" data-name="Trazado 157898" d="M414.315,335.277c0,.7-.494.98-1.1.629a2.431,2.431,0,0,1-1.1-1.9c0-.7.494-.981,1.1-.629A2.429,2.429,0,0,1,414.315,335.277Z" transform="translate(-403.32 -286.42)" fill="#d83b2e"/>
              <path id="Trazado_157899" data-name="Trazado 157899" d="M412.48,333.309a3.975,3.975,0,0,0-.6.766c-.1.256,1.175,2.047,1.175,2.047a2.827,2.827,0,0,0,1.053-.175C414.507,335.756,412.48,333.309,412.48,333.309Z" transform="translate(-403.448 -286.375)" fill="#d83b2e"/>
              <g id="Grupo_101859" data-name="Grupo 101859" transform="translate(8.894 52.714)">
                <path id="Trazado_157900" data-name="Trazado 157900" d="M414.068,338.836c0,.6-.424.841-.945.54a2.083,2.083,0,0,1-.945-1.631c0-.6.422-.841.945-.54A2.087,2.087,0,0,1,414.068,338.836Z" transform="translate(-412.178 -337.076)" fill="#b5aa9c"/>
              </g>
              <g id="Grupo_101860" data-name="Grupo 101860" transform="translate(47.463 74.982)">
                <path id="Trazado_157901" data-name="Trazado 157901" d="M439.2,353.349c0,.6-.423.839-.945.539a2.083,2.083,0,0,1-.945-1.631c0-.6.422-.841.945-.539A2.082,2.082,0,0,1,439.2,353.349Z" transform="translate(-437.314 -351.588)" fill="#b5aa9c"/>
              </g>
              <g id="Grupo_101861" data-name="Grupo 101861" transform="translate(75.811 91.349)">
                <path id="Trazado_157902" data-name="Trazado 157902" d="M457.679,364.015c0,.6-.422.841-.945.54a2.087,2.087,0,0,1-.945-1.631c0-.6.423-.841.945-.54A2.083,2.083,0,0,1,457.679,364.015Z" transform="translate(-455.789 -362.255)" fill="#b5aa9c"/>
              </g>
              <path id="Trazado_157903" data-name="Trazado 157903" d="M413.53,335.3c0,.549-.388.77-.865.494a1.908,1.908,0,0,1-.867-1.493c0-.549.388-.77.867-.494A1.911,1.911,0,0,1,413.53,335.3Z" transform="translate(-403.487 -286.17)" fill="#ff512e"/>
              <path id="Trazado_157904" data-name="Trazado 157904" d="M414.136,338.525c0,.6-.424.841-.945.539a2.08,2.08,0,0,1-.947-1.631c0-.6.423-.841.947-.539A2.082,2.082,0,0,1,414.136,338.525Z" transform="translate(-403.248 -284.528)" fill="#9da1bf"/>
              <path id="Trazado_157905" data-name="Trazado 157905" d="M439.272,353.037c0,.6-.423.841-.945.539a2.08,2.08,0,0,1-.947-1.631c0-.6.423-.841.947-.539A2.082,2.082,0,0,1,439.272,353.037Z" transform="translate(-389.816 -276.773)" fill="#9da1bf"/>
              <path id="Trazado_157906" data-name="Trazado 157906" d="M457.746,363.7c0,.6-.423.841-.945.539a2.082,2.082,0,0,1-.945-1.631c0-.6.423-.841.945-.539A2.082,2.082,0,0,1,457.746,363.7Z" transform="translate(-379.942 -271.072)" fill="#9da1bf"/>
              <path id="Trazado_157907" data-name="Trazado 157907" d="M414,338.585c0,.6-.423.841-.945.539a2.08,2.08,0,0,1-.947-1.631c0-.6.424-.841.947-.539A2.082,2.082,0,0,1,414,338.585Z" transform="translate(-403.32 -284.497)" fill="#f9f1ec"/>
              <path id="Trazado_157908" data-name="Trazado 157908" d="M413.807,338.437c0,.508-.359.712-.8.457a1.769,1.769,0,0,1-.8-1.384c0-.508.359-.714.8-.457A1.769,1.769,0,0,1,413.807,338.437Z" transform="translate(-403.27 -284.432)" fill="#e06f2e"/>
              <path id="Trazado_157909" data-name="Trazado 157909" d="M439.138,353.1c0,.6-.423.841-.947.539a2.083,2.083,0,0,1-.945-1.631c0-.6.424-.841.945-.539A2.08,2.08,0,0,1,439.138,353.1Z" transform="translate(-389.887 -276.741)" fill="#f9f1ec"/>
              <path id="Trazado_157910" data-name="Trazado 157910" d="M438.943,352.949c0,.508-.359.714-.8.457a1.771,1.771,0,0,1-.8-1.384c0-.508.359-.714.8-.457A1.767,1.767,0,0,1,438.943,352.949Z" transform="translate(-389.837 -276.677)" fill="#e06f2e"/>
              <path id="Trazado_157911" data-name="Trazado 157911" d="M457.612,363.763c0,.6-.423.841-.945.539a2.082,2.082,0,0,1-.945-1.631c0-.6.423-.841.945-.539A2.082,2.082,0,0,1,457.612,363.763Z" transform="translate(-380.014 -271.041)" fill="#f9f1ec"/>
              <path id="Trazado_157912" data-name="Trazado 157912" d="M457.42,363.616c0,.508-.359.712-.8.457a1.769,1.769,0,0,1-.8-1.384c0-.508.359-.714.8-.457A1.766,1.766,0,0,1,457.42,363.616Z" transform="translate(-379.964 -270.977)" fill="#e06f2e"/>
              <g id="Grupo_101862" data-name="Grupo 101862" transform="translate(8.79 3.878)">
                <path id="Trazado_157913" data-name="Trazado 157913" d="M415.345,308.553l-3.234-1.867v-1.437l3.234,1.868Z" transform="translate(-412.11 -305.248)" fill="#cdc6bc"/>
              </g>
              <path id="Trazado_157914" data-name="Trazado 157914" d="M414.959,308.034,412.3,306.5v-1.063l2.662,1.537Z" transform="translate(-403.22 -301.271)" fill="#e06f2e"/>
              <g id="Grupo_101863" data-name="Grupo 101863" transform="translate(49.107 27.155)">
                <path id="Trazado_157915" data-name="Trazado 157915" d="M441.62,323.722l-3.235-1.867v-1.437l3.235,1.867Z" transform="translate(-438.385 -320.418)" fill="#cdc6bc"/>
              </g>
              <path id="Trazado_157916" data-name="Trazado 157916" d="M441.234,323.2l-2.662-1.537V320.6l2.662,1.537Z" transform="translate(-389.179 -293.164)" fill="#e06f2e"/>
              <g id="Grupo_101864" data-name="Grupo 101864" transform="translate(99.941 56.504)">
                <path id="Trazado_157917" data-name="Trazado 157917" d="M474.749,342.85l-3.235-1.867v-1.437l3.235,1.867Z" transform="translate(-471.515 -339.546)" fill="#cdc6bc"/>
              </g>
              <path id="Trazado_157918" data-name="Trazado 157918" d="M474.363,342.331l-2.662-1.537v-1.063l2.662,1.537Z" transform="translate(-371.474 -282.942)" fill="#e06f2e"/>
              <path id="Trazado_157919" data-name="Trazado 157919" d="M473.778,368.621l-11.2-6.466a5.147,5.147,0,0,1-2.148-4.1V342.805c0-1.582.962-2.308,2.148-1.623l11.2,6.466a5.144,5.144,0,0,1,2.148,4.1V367C475.926,368.578,474.964,369.306,473.778,368.621Z" transform="translate(-377.498 -282.305)" fill="#2d2c37"/>
              <path id="Trazado_157920" data-name="Trazado 157920" d="M460.838,358.253V342.774c0-1.12.681-1.636,1.522-1.151l11.2,6.466A3.644,3.644,0,0,1,475.082,351v15.479c0,1.12-.681,1.636-1.522,1.149l-11.2-6.466A3.641,3.641,0,0,1,460.838,358.253Z" transform="translate(-377.28 -282.029)" fill="#573f3f"/>
              <path id="Trazado_157921" data-name="Trazado 157921" d="M466.031,373.609l-3.452-1.993a5.144,5.144,0,0,1-2.148-4.1V357.8c0-1.582.962-2.309,2.148-1.625l3.452,1.993a5.147,5.147,0,0,1,2.148,4.1v9.708C468.179,373.567,467.217,374.293,466.031,373.609Z" transform="translate(-377.498 -274.29)" fill="#2d2c37"/>
              <path id="Trazado_157922" data-name="Trazado 157922" d="M460.838,367.713v-9.941c0-1.12.681-1.636,1.522-1.149l3.452,1.993a3.641,3.641,0,0,1,1.522,2.906v9.941c0,1.12-.681,1.636-1.522,1.151l-3.452-1.993A3.644,3.644,0,0,1,460.838,367.713Z" transform="translate(-377.28 -274.014)" fill="#573f3f"/>
              <path id="Trazado_157923" data-name="Trazado 157923" d="M479.084,380.058a4.737,4.737,0,0,0-1.053-1.866.931.931,0,0,1-.261-.746h0c.061-.2.347-.138.608.167a7.568,7.568,0,0,1,1.4,2.477c.124.379.02.64-.184.583h0A.963.963,0,0,1,479.084,380.058Z" transform="translate(-368.24 -262.848)" fill="#504f58"/>
              <path id="Trazado_157924" data-name="Trazado 157924" d="M477.975,381.634a1.011,1.011,0,0,0,1.1-.575c.1-.167.319-.187.52,0h0a.7.7,0,0,1,.158.789,1.554,1.554,0,0,1-1.455.763.734.734,0,0,1-.6-.555h0C477.64,381.789,477.775,381.626,477.975,381.634Z" transform="translate(-368.278 -260.928)" fill="#504f58"/>
              <path id="Trazado_157925" data-name="Trazado 157925" d="M476.9,377.229a1.012,1.012,0,0,0-1.1.575c-.1.166-.318.186-.519,0h0a.7.7,0,0,1-.158-.789,1.558,1.558,0,0,1,1.455-.764.737.737,0,0,1,.6.557h0C477.235,377.072,477.1,377.237,476.9,377.229Z" transform="translate(-369.679 -263.428)" fill="#504f58"/>
              <path id="Trazado_157926" data-name="Trazado 157926" d="M476.667,381.566a7.546,7.546,0,0,1-1.4-2.475.88.88,0,0,1-.044-.325c-.175-.011-.261.229-.146.578a7.538,7.538,0,0,0,1.4,2.477c.261.307.545.364.608.169.012-.041-.012-.1-.014-.152A.726.726,0,0,1,476.667,381.566Z" transform="translate(-369.697 -262.082)" fill="#b7b4a9"/>
              <path id="Trazado_157927" data-name="Trazado 157927" d="M479.784,380.418a.964.964,0,0,1-.509-.617,4.746,4.746,0,0,0-1.053-1.866,1.039,1.039,0,0,1-.247-.594.162.162,0,0,0-.2.1.934.934,0,0,0,.261.747,4.737,4.737,0,0,1,1.053,1.866.97.97,0,0,0,.508.617c.135.037.219-.075.229-.259C479.807,380.413,479.8,380.423,479.784,380.418Z" transform="translate(-368.24 -262.846)" fill="#b7b4a9"/>
              <path id="Trazado_157928" data-name="Trazado 157928" d="M478.484,382.1a.739.739,0,0,1-.6-.557c-.012-.057.015-.086.018-.134a.294.294,0,0,0-.209.388.734.734,0,0,0,.6.555,1.554,1.554,0,0,0,1.455-.763l0-.017A1.561,1.561,0,0,1,478.484,382.1Z" transform="translate(-368.278 -260.67)" fill="#b7b4a9"/>
              <g id="Grupo_101865" data-name="Grupo 101865" transform="translate(105.383 113.349)">
                <path id="Trazado_157929" data-name="Trazado 157929" d="M475.475,377.365a.7.7,0,0,1-.163-.772,1.32,1.32,0,0,0-.186.238.7.7,0,0,0,.158.789c.2.187.417.166.519,0a2.09,2.09,0,0,1,.173-.238C475.871,377.529,475.668,377.543,475.475,377.365Z" transform="translate(-475.062 -376.593)" fill="#b7b4a9"/>
                <path id="Trazado_157930" data-name="Trazado 157930" d="M476.754,376.732a1,1,0,0,0-1.063.531,1,1,0,0,1,.873-.276c.156.006.246-.117.262-.287C476.8,376.706,476.785,376.734,476.754,376.732Z" transform="translate(-474.726 -376.536)" fill="#b7b4a9"/>
              </g>
              <g id="Grupo_101866" data-name="Grupo 101866" transform="translate(110.879 91.698)">
                <path id="Trazado_157931" data-name="Trazado 157931" d="M478.979,377.213h-.335l.012-9.608,2.042-5.122.311.124-2.03,5.092Z" transform="translate(-478.644 -362.483)" fill="#c9c3b9"/>
              </g>
              <g id="Grupo_101867" data-name="Grupo 101867" transform="translate(111.943 94.209)">
                <path id="Trazado_157932" data-name="Trazado 157932" d="M491.922,378.355l-12.585-14.012.248-.224,12.585,14.012Z" transform="translate(-479.337 -364.119)" fill="#c9c3b9"/>
              </g>
            </g>
            <path id="Trazado_157933" data-name="Trazado 157933" d="M523.941,358.013l-36.321,20.97v15.3l36.321-20.97Z" transform="translate(-361.01 -252.203)" fill="#e4dfd9"/>
            <path id="Trazado_157934" data-name="Trazado 157934" d="M513.35,361.48l-20.611,11.9v15.1l20.611-11.9Z" transform="translate(-358.274 -250.35)" fill="#ebe7e3"/>
            <path id="Trazado_157935" data-name="Trazado 157935" d="M511.942,363.1,493.42,373.793v3.761l18.522-10.694Z" transform="translate(-357.91 -249.485)" fill="#554d4e"/>
            <path id="Trazado_157936" data-name="Trazado 157936" d="M511.942,367.453,493.42,378.147v5.54l18.522-10.694Z" transform="translate(-357.91 -247.158)" fill="#554d4e"/>
            <path id="Trazado_157937" data-name="Trazado 157937" d="M510.865,366.239,493.42,376.311v1.243l18.522-10.694V363.1l-1.077.622Z" transform="translate(-357.91 -249.485)" fill="#cdc6bc"/>
            <path id="Trazado_157938" data-name="Trazado 157938" d="M510.865,368.075v4.3L493.42,382.444v1.243l18.522-10.694v-5.54Z" transform="translate(-357.91 -247.158)" fill="#cdc6bc"/>
            <path id="Trazado_157939" data-name="Trazado 157939" d="M491.647,383.876l36.321-20.97L516.4,348.856l-36.321,20.97Z" transform="translate(-365.037 -257.096)" fill="#f3f1ee"/>
            <path id="Trazado_157940" data-name="Trazado 157940" d="M480.083,369.826l11.654,13.36,6.823-3.7,28.91-16.781L516.4,348.856l11.564,14.05-36.321,20.97Z" transform="translate(-365.037 -257.096)" fill="#faf8f5"/>
            <path id="Trazado_157941" data-name="Trazado 157941" d="M495.283,376.358l20.611-11.9-7.3-8.55-20.611,11.9Z" transform="translate(-360.818 -253.328)" fill="#f3f1ee"/>
            <path id="Trazado_157942" data-name="Trazado 157942" d="M476.2,348.979l36.321-20.97L518.481,360l-36.321,20.97Z" transform="translate(-367.115 -268.237)" fill="#ebe7e3"/>
            <path id="Trazado_157943" data-name="Trazado 157943" d="M499.9,362.595l.131.619-18.118,10.461-4.274-24.562,18.012-10.4.131.62Z" transform="translate(-366.343 -262.517)" fill="#554d4e"/>
            <path id="Trazado_157944" data-name="Trazado 157944" d="M499.115,362.584l-6.586,3.8L482.1,372.41l-.947-5.5-2.958-17.169-.112-.653,10.07-5.815L495,339.323,497.65,354.3l.54,3.052Z" transform="translate(-366.107 -262.19)" fill="#b08480"/>
            <path id="Trazado_157945" data-name="Trazado 157945" d="M510.18,356.968,494.2,366.195l-.131-.619-4.117-23.261-.131-.621,16.089-9.288Z" transform="translate(-359.835 -265.887)" fill="#554d4e"/>
            <path id="Trazado_157946" data-name="Trazado 157946" d="M509.265,356.336l-5.457,3.151-7.416,4.282-2.013,1.163-.778-4.4-.142-.8-2.73-15.426-.466-2.631,9.28-5.357,5.707-3.3,2.136,12.4,1.671,9.7Z" transform="translate(-359.598 -265.56)" fill="#b08480"/>
            <path id="Trazado_157947" data-name="Trazado 157947" d="M505.138,356l-.43.7-2.386,1.377-4.813-2.778v-20.08l3.729-2.153Z" transform="translate(-355.725 -265.533)" fill="#d6b6b2"/>
            <path id="Trazado_157948" data-name="Trazado 157948" d="M476.429,349.754l36.321-20.97-.672-2.224-36.321,20.97Z" transform="translate(-367.349 -269.011)" fill="#f3f1ee"/>
            <path id="Trazado_157949" data-name="Trazado 157949" d="M546.794,346.6l-99.677-57.549L410.8,310.024l99.677,57.549Z" transform="translate(-402.064 -289.054)" fill="#fcfbfa"/>
            <path id="Trazado_157950" data-name="Trazado 157950" d="M525.147,368.56l-36.486,21.065v5.067l36.486-21.065Z" transform="translate(-360.453 -246.566)" fill="#554d4e"/>
            <path id="Trazado_157951" data-name="Trazado 157951" d="M486.637,373.525l-1.071.617v1.906l1.071-.153Z" transform="translate(-362.107 -243.913)" fill="#e07427"/>
            <path id="Trazado_157952" data-name="Trazado 157952" d="M492.269,369v15.3l.722.17v-15.1Z" transform="translate(-358.525 -246.334)" fill="#ded8d1"/>
            <path id="Trazado_157953" data-name="Trazado 157953" d="M483.082,372.628l-72.264-41.722v-2.1l72.264,41.722Z" transform="translate(-402.053 -267.808)" fill="#493f41"/>
            <g id="Grupo_101870" data-name="Grupo 101870" transform="translate(155.313 108.634)">
              <path id="Trazado_157954" data-name="Trazado 157954" d="M506.55,370.709l4.969-2.869-4.546.684-.423.684Z" transform="translate(-506.206 -355.586)" fill="#b5aa9c"/>
              <path id="Trazado_157955" data-name="Trazado 157955" d="M507.006,362.244l3.836-1.812c.376-.216.681-.043.681.388v8a1.5,1.5,0,0,1-.681,1.174l-3.836,2.214c-.376.218-.68.043-.68-.388v-8A2.362,2.362,0,0,1,507.006,362.244Z" transform="translate(-506.326 -359.594)" fill="#b5aa9c"/>
              <path id="Trazado_157956" data-name="Trazado 157956" d="M511.911,360.129l-.39-.227-.008-.006,0,0h0a.487.487,0,0,0-.476.054l-3.834,2.214a1.5,1.5,0,0,0-.681,1.174v8a.486.486,0,0,0,.176.42h0l0,0a.33.33,0,0,0,.046.026l.377.216.12-.3,3.795-2.19a1.5,1.5,0,0,0,.681-1.175v-7.724Z" transform="translate(-506.223 -359.854)" fill="#393843"/>
              <g id="Grupo_101869" data-name="Grupo 101869" transform="translate(0.652 0.206)">
                <path id="Trazado_157957" data-name="Trazado 157957" d="M507.432,362.3l3.834-2.214c.378-.218.681-.044.681.388v8a1.5,1.5,0,0,1-.681,1.175l-3.834,2.214c-.376.216-.681.043-.681-.388v-8A1.5,1.5,0,0,1,507.432,362.3Z" transform="translate(-506.751 -359.988)" fill="#5c5b64"/>
                <path id="Trazado_157958" data-name="Trazado 157958" d="M507.482,362.511l3.449-1.992c.255-.147.462-.031.462.261v7.353a1.015,1.015,0,0,1-.462.793l-3.449,1.992c-.255.147-.462.032-.462-.259V363.3A1.017,1.017,0,0,1,507.482,362.511Z" transform="translate(-506.607 -359.738)" fill="#cfcedf"/>
                <path id="Trazado_157959" data-name="Trazado 157959" d="M512.028,361.139l-.8-.652-4.1,10.464.972.2Z" transform="translate(-506.548 -359.721)" fill="#cfcedf"/>
                <path id="Trazado_157960" data-name="Trazado 157960" d="M508.095,362.845l3.3-1.907c.244-.141.443-.031.443.249v7.043a.97.97,0,0,1-.443.759l-3.3,1.907c-.244.141-.442.031-.442-.249V363.6A.971.971,0,0,1,508.095,362.845Z" transform="translate(-506.269 -359.513)" fill="#f3f1ee"/>
                <path id="Trazado_157961" data-name="Trazado 157961" d="M507.586,362.647l3.3-1.907c.244-.141.442-.029.442.249v7.043a.973.973,0,0,1-.442.761l-3.3,1.907c-.244.141-.443.029-.443-.25v-7.043A.975.975,0,0,1,507.586,362.647Z" transform="translate(-506.542 -359.619)" fill="#eefaf9" style="mix-blend-mode: multiply;isolation: isolate"/>
              </g>
              <path id="Trazado_157962" data-name="Trazado 157962" d="M507.227,371.018l4.969-2.869v-1.5l-4.969,2.869Z" transform="translate(-505.844 -356.223)" fill="#e07427"/>
              <path id="Trazado_157963" data-name="Trazado 157963" d="M507.442,369.641l-.616-.356,4.969-2.869.616.356Z" transform="translate(-506.059 -356.346)" fill="#ff9a2e"/>
              <path id="Trazado_157964" data-name="Trazado 157964" d="M507.442,368.642l-.616-.356v1.5l.616.356Z" transform="translate(-506.059 -355.347)" fill="#e06f2e"/>
            </g>
            <g id="Grupo_101872" data-name="Grupo 101872" transform="translate(127.391 118.779)">
              <path id="Trazado_157965" data-name="Trazado 157965" d="M488.353,381.234l4.969-2.869-4.546.684-.423.684Z" transform="translate(-488.009 -360.106)" fill="#b5aa9c"/>
              <path id="Trazado_157966" data-name="Trazado 157966" d="M488.809,372.769l3.836-1.812c.376-.218.68-.043.68.388v8a1.5,1.5,0,0,1-.68,1.175l-3.836,2.214c-.376.216-.68.043-.68-.388v-8A2.362,2.362,0,0,1,488.809,372.769Z" transform="translate(-488.129 -364.115)" fill="#b5aa9c"/>
              <path id="Trazado_157967" data-name="Trazado 157967" d="M493.714,370.654l-.39-.229-.008,0,0,0h0a.487.487,0,0,0-.474.052L489,372.685a1.5,1.5,0,0,0-.681,1.175v8a.488.488,0,0,0,.176.422h0a.23.23,0,0,0,.046.028l.377.215.12-.3,3.795-2.191a1.5,1.5,0,0,0,.681-1.174v-7.724Z" transform="translate(-488.026 -364.374)" fill="#393843"/>
              <g id="Grupo_101871" data-name="Grupo 101871" transform="translate(0.652 6.21)">
                <path id="Trazado_157968" data-name="Trazado 157968" d="M489.235,372.82l3.834-2.214c.378-.216.681-.043.681.388v8a1.5,1.5,0,0,1-.681,1.174l-3.834,2.214c-.376.218-.681.044-.681-.388v-8A1.5,1.5,0,0,1,489.235,372.82Z" transform="translate(-488.554 -370.512)" fill="#5c5b64"/>
                <path id="Trazado_157969" data-name="Trazado 157969" d="M489.285,373.034l3.449-1.99c.255-.147.462-.031.462.259v7.354a1.017,1.017,0,0,1-.462.793l-3.449,1.992c-.256.147-.462.031-.462-.261v-7.353A1.015,1.015,0,0,1,489.285,373.034Z" transform="translate(-488.41 -370.262)" fill="#cfcedf"/>
                <path id="Trazado_157970" data-name="Trazado 157970" d="M493.831,371.664l-.8-.652-4.1,10.464.972.2Z" transform="translate(-488.352 -370.245)" fill="#cfcedf"/>
                <path id="Trazado_157971" data-name="Trazado 157971" d="M489.9,373.369l3.3-1.907c.244-.141.442-.029.442.25v7.043a.973.973,0,0,1-.442.76l-3.3,1.907c-.244.141-.442.029-.442-.249V374.13A.973.973,0,0,1,489.9,373.369Z" transform="translate(-488.072 -370.038)" fill="#f3f1ee"/>
              </g>
              <path id="Trazado_157972" data-name="Trazado 157972" d="M489.03,381.542,494,378.673v-1.5l-4.969,2.869Z" transform="translate(-487.647 -360.743)" fill="#e07427"/>
              <path id="Trazado_157973" data-name="Trazado 157973" d="M506.894,370.835l4.969-2.869v-1.5l-4.969,2.869Z" transform="translate(-478.101 -366.465)" fill="#f5ec73" style="mix-blend-mode: multiply;isolation: isolate"/>
              <path id="Trazado_157974" data-name="Trazado 157974" d="M488.7,381.359l4.969-2.869v-1.5l-4.969,2.869Z" transform="translate(-487.826 -360.841)" fill="#f5ec73" style="mix-blend-mode: multiply;isolation: isolate"/>
              <path id="Trazado_157975" data-name="Trazado 157975" d="M489.245,380.166l-.616-.356,4.969-2.869.616.356Z" transform="translate(-487.862 -360.867)" fill="#ff9a2e"/>
              <path id="Trazado_157976" data-name="Trazado 157976" d="M489.245,379.167l-.616-.356v1.5l.616.356Z" transform="translate(-487.862 -359.867)" fill="#e06f2e"/>
            </g>
            <path id="Trazado_157977" data-name="Trazado 157977" d="M460.076,384.323v-45.4l-1.085-.626V384.95l13.982,8.072.508-.959Z" transform="translate(-376.309 -262.74)" fill="#9b897f"/>
            <path id="Trazado_157978" data-name="Trazado 157978" d="M497.121,351.074l.925,5.23L481.03,366.13l-.947-5.5Z" transform="translate(-365.037 -255.911)" fill="#997a77"/>
            <path id="Trazado_157979" data-name="Trazado 157979" d="M508.152,349.06l-14.886,8.6-.92-5.2,10.371-5.818,5.227,1.214Z" transform="translate(-358.484 -258.285)" fill="#997a77"/>
            <path id="Trazado_157980" data-name="Trazado 157980" d="M460.076,368.293l-1.085.626,13.982,8.072.508-.959Z" transform="translate(-376.309 -246.709)" fill="#f3f1ee"/>
            <g id="Grupo_101873" data-name="Grupo 101873" transform="translate(79.028 122.7)">
              <path id="Trazado_157981" data-name="Trazado 157981" d="M473.564,379.818l-16.955-9.789v1.064l16.955,9.789Z" transform="translate(-456.609 -368.482)" fill="#493f41"/>
              <path id="Trazado_157982" data-name="Trazado 157982" d="M467.659,376.948l2.681-1.548v1.064l-2.681,1.548Z" transform="translate(-450.704 -365.611)" fill="#554d4e"/>
              <path id="Trazado_157983" data-name="Trazado 157983" d="M473.564,380.357l2.681-1.548-16.955-9.789-2.681,1.548Z" transform="translate(-456.609 -369.021)" fill="#6b6164"/>
            </g>
            <path id="Trazado_157984" data-name="Trazado 157984" d="M489.375,373.094l3.3-1.907c.245-.141.443-.029.443.249v7.043a.971.971,0,0,1-.443.761l-3.3,1.907c-.244.141-.442.029-.442-.25v-7.041A.974.974,0,0,1,489.375,373.094Z" transform="translate(-360.308 -245.196)" fill="#eefaf9" style="mix-blend-mode: multiply;isolation: isolate"/>
            <path id="Trazado_157985" data-name="Trazado 157985" d="M459.7,338.7v.951l18.418,10.84v29.279l-5.914,11.55.9.521,6.343-11.966V350.105Z" transform="translate(-375.931 -262.522)" fill="#f2f1f0" style="mix-blend-mode: multiply;isolation: isolate"/>
          </g>
          <path id="Trazado_157986" data-name="Trazado 157986" d="M495.655,373.114l-9.724-11.825,10.446,12.194Z" transform="translate(-361.912 -250.452)" fill="#ded8d1"/>
          <path id="Trazado_157987" data-name="Trazado 157987" d="M510.865,365.145l1.077.622L493.42,376.461v-1.243Z" transform="translate(-357.91 -248.391)" fill="#f3f1ee"/>
          <path id="Trazado_157988" data-name="Trazado 157988" d="M510.865,370.659l1.077.622L493.42,381.974v-1.243Z" transform="translate(-357.91 -245.445)" fill="#f3f1ee"/>
          <path id="Trazado_157989" data-name="Trazado 157989" d="M489.864,339.323l.688,3.888-2.863-2.633Z" transform="translate(-360.972 -262.19)" fill="#cbcadd"/>
          <path id="Trazado_157990" data-name="Trazado 157990" d="M495.678,336.618v11.467c0,1.12-.681,1.634-1.522,1.149l-2.645-2.432-1.249-7.057Z" transform="translate(-359.598 -263.636)" fill="#cbcadd"/>
          <path id="Trazado_157991" data-name="Trazado 157991" d="M490.552,343.212l-2.863-2.633,2.175-1.255Z" transform="translate(-360.972 -262.19)" fill="#d6b6b2"/>
          <path id="Trazado_157992" data-name="Trazado 157992" d="M490.262,339.745l5.416-3.127v11.467c0,1.12-.681,1.634-1.522,1.149l-2.645-2.432Z" transform="translate(-359.598 -263.636)" fill="#d6b6b2"/>
          <g id="Grupo_101883" data-name="Grupo 101883" transform="translate(11.121 1.804)">
            <g id="Grupo_101875" data-name="Grupo 101875" transform="translate(0 18.021)">
              <path id="Trazado_157993" data-name="Trazado 157993" d="M509.252,358.536l-96.9-56.024.678-.392,96.456,56.416Z" transform="translate(-412.353 -301.898)" fill="#ebe7e3"/>
              <path id="Trazado_157994" data-name="Trazado 157994" d="M509.405,358.391l-96.9-56.025.679-.392L510.084,358Z" transform="translate(-412.271 -301.975)" fill="#fcfbfa"/>
              <path id="Trazado_157995" data-name="Trazado 157995" d="M475.657,338.879v.222l.679-.392v-.222Z" transform="translate(-378.523 -282.463)" fill="#ebe7e3"/>
              <path id="Trazado_157996" data-name="Trazado 157996" d="M509.405,358.477l-96.9-56.024v-.223l96.9,56.025Z" transform="translate(-412.271 -301.839)" fill="#cdc6bc"/>
            </g>
            <g id="Grupo_101876" data-name="Grupo 101876" transform="translate(4.459 15.447)">
              <path id="Trazado_157997" data-name="Trazado 157997" d="M512.158,356.859l-96.9-56.025.678-.392,96.456,56.416Z" transform="translate(-415.259 -300.22)" fill="#ebe7e3"/>
              <path id="Trazado_157998" data-name="Trazado 157998" d="M512.311,356.714l-96.9-56.025.679-.392,96.9,56.024Z" transform="translate(-415.177 -300.297)" fill="#fcfbfa"/>
              <path id="Trazado_157999" data-name="Trazado 157999" d="M478.563,337.2v.222l.679-.392v-.223Z" transform="translate(-381.429 -280.785)" fill="#ebe7e3"/>
              <path id="Trazado_158000" data-name="Trazado 158000" d="M512.311,356.8l-96.9-56.025v-.222l96.9,56.025Z" transform="translate(-415.177 -300.161)" fill="#cdc6bc"/>
            </g>
            <g id="Grupo_101877" data-name="Grupo 101877" transform="translate(8.918 12.872)">
              <path id="Trazado_158001" data-name="Trazado 158001" d="M515.064,355.181l-96.9-56.025.679-.392L515.3,355.181Z" transform="translate(-418.165 -298.542)" fill="#ebe7e3"/>
              <path id="Trazado_158002" data-name="Trazado 158002" d="M515.217,355.036l-96.9-56.024.679-.392,96.9,56.025Z" transform="translate(-418.083 -298.619)" fill="#fcfbfa"/>
              <path id="Trazado_158003" data-name="Trazado 158003" d="M481.47,335.523v.223l.679-.392v-.223Z" transform="translate(-384.336 -279.107)" fill="#ebe7e3"/>
              <path id="Trazado_158004" data-name="Trazado 158004" d="M515.217,355.122l-96.9-56.025v-.223l96.9,56.024Z" transform="translate(-418.083 -298.483)" fill="#cdc6bc"/>
            </g>
            <g id="Grupo_101878" data-name="Grupo 101878" transform="translate(13.377 10.298)">
              <path id="Trazado_158005" data-name="Trazado 158005" d="M517.97,353.5l-96.9-56.024.678-.392L518.205,353.5Z" transform="translate(-421.071 -296.864)" fill="#ebe7e3"/>
              <path id="Trazado_158006" data-name="Trazado 158006" d="M518.123,353.358l-96.9-56.025.678-.392,96.9,56.025Z" transform="translate(-420.989 -296.942)" fill="#fcfbfa"/>
              <path id="Trazado_158007" data-name="Trazado 158007" d="M484.376,333.846v.222l.679-.392v-.222Z" transform="translate(-387.242 -277.429)" fill="#ebe7e3"/>
              <path id="Trazado_158008" data-name="Trazado 158008" d="M518.123,353.444l-96.9-56.024V297.2l96.9,56.025Z" transform="translate(-420.989 -296.805)" fill="#cdc6bc"/>
            </g>
            <g id="Grupo_101879" data-name="Grupo 101879" transform="translate(17.836 7.723)">
              <path id="Trazado_158009" data-name="Trazado 158009" d="M520.876,351.825l-96.9-56.025.678-.392,96.456,56.416Z" transform="translate(-423.978 -295.186)" fill="#ebe7e3"/>
              <path id="Trazado_158010" data-name="Trazado 158010" d="M521.03,351.68l-96.9-56.025.678-.392,96.9,56.024Z" transform="translate(-423.896 -295.264)" fill="#fcfbfa"/>
              <path id="Trazado_158011" data-name="Trazado 158011" d="M487.282,332.168v.223l.678-.392v-.223Z" transform="translate(-390.148 -275.752)" fill="#ebe7e3"/>
              <path id="Trazado_158012" data-name="Trazado 158012" d="M521.03,351.766l-96.9-56.025v-.222l96.9,56.025Z" transform="translate(-423.896 -295.127)" fill="#cdc6bc"/>
            </g>
            <g id="Grupo_101880" data-name="Grupo 101880" transform="translate(22.296 5.149)">
              <path id="Trazado_158013" data-name="Trazado 158013" d="M523.782,350.147l-96.9-56.025.678-.392,96.456,56.416Z" transform="translate(-426.884 -293.508)" fill="#ebe7e3"/>
              <path id="Trazado_158014" data-name="Trazado 158014" d="M523.936,350l-96.9-56.024.678-.392,96.9,56.025Z" transform="translate(-426.802 -293.586)" fill="#fcfbfa"/>
              <path id="Trazado_158015" data-name="Trazado 158015" d="M490.188,330.49v.223l.678-.392V330.1Z" transform="translate(-393.054 -274.074)" fill="#ebe7e3"/>
              <path id="Trazado_158016" data-name="Trazado 158016" d="M523.936,350.088l-96.9-56.025v-.222l96.9,56.024Z" transform="translate(-426.802 -293.449)" fill="#cdc6bc"/>
            </g>
            <g id="Grupo_101881" data-name="Grupo 101881" transform="translate(26.755 2.574)">
              <path id="Trazado_158017" data-name="Trazado 158017" d="M526.688,348.469l-96.9-56.024.679-.392,96.456,56.416Z" transform="translate(-429.79 -291.831)" fill="#ebe7e3"/>
              <path id="Trazado_158018" data-name="Trazado 158018" d="M526.842,348.324l-96.9-56.025.679-.392,96.9,56.025Z" transform="translate(-429.708 -291.908)" fill="#fcfbfa"/>
              <path id="Trazado_158019" data-name="Trazado 158019" d="M493.094,328.812v.222l.678-.392v-.222Z" transform="translate(-395.96 -272.396)" fill="#ebe7e3"/>
              <path id="Trazado_158020" data-name="Trazado 158020" d="M526.842,348.41l-96.9-56.024v-.223l96.9,56.025Z" transform="translate(-429.708 -291.772)" fill="#cdc6bc"/>
            </g>
            <g id="Grupo_101882" data-name="Grupo 101882" transform="translate(31.214)">
              <path id="Trazado_158021" data-name="Trazado 158021" d="M529.594,346.792l-96.9-56.025.679-.392,96.456,56.416Z" transform="translate(-432.696 -290.153)" fill="#ebe7e3"/>
              <path id="Trazado_158022" data-name="Trazado 158022" d="M529.748,346.647l-96.9-56.025.679-.392,96.9,56.024Z" transform="translate(-432.614 -290.23)" fill="#fcfbfa"/>
              <path id="Trazado_158023" data-name="Trazado 158023" d="M496,327.134v.223l.679-.392v-.223Z" transform="translate(-398.866 -270.718)" fill="#ebe7e3"/>
              <path id="Trazado_158024" data-name="Trazado 158024" d="M529.748,346.733l-96.9-56.025v-.223l96.9,56.025Z" transform="translate(-432.614 -290.094)" fill="#cdc6bc"/>
            </g>
          </g>
          <g id="Grupo_101887" data-name="Grupo 101887" transform="translate(115.866 62.417)">
            <g id="Grupo_101884" data-name="Grupo 101884" transform="translate(0 7.518)">
              <path id="Trazado_158025" data-name="Trazado 158025" d="M482.216,336.707l-1.6-.914,1.263-.752,1.243,1.666Z" transform="translate(-480.618 -334.414)" fill="#ebe7e3"/>
              <path id="Trazado_158026" data-name="Trazado 158026" d="M482.251,336.606l1.263-.752v-.626l-1.263.752Z" transform="translate(-479.745 -334.314)" fill="#e07427"/>
              <path id="Trazado_158027" data-name="Trazado 158027" d="M482.808,336.3l-1.6-.915,1.263-.752,1.6.915Z" transform="translate(-480.302 -334.633)" fill="#ff9a2e"/>
              <path id="Trazado_158028" data-name="Trazado 158028" d="M482.808,336.037l-1.6-.915v.626l1.6.914Z" transform="translate(-480.302 -334.371)" fill="#e06f2e"/>
            </g>
            <g id="Grupo_101885" data-name="Grupo 101885" transform="translate(6.317 3.759)">
              <path id="Trazado_158029" data-name="Trazado 158029" d="M486.333,334.257l-1.6-.915,1.263-.752,1.243,1.666Z" transform="translate(-484.735 -331.964)" fill="#ebe7e3"/>
              <path id="Trazado_158030" data-name="Trazado 158030" d="M486.368,334.157l1.263-.752v-.626l-1.263.752Z" transform="translate(-483.862 -331.864)" fill="#e07427"/>
              <path id="Trazado_158031" data-name="Trazado 158031" d="M486.925,333.849l-1.6-.915,1.263-.752,1.6.915Z" transform="translate(-484.419 -332.183)" fill="#ff9a2e"/>
              <path id="Trazado_158032" data-name="Trazado 158032" d="M486.925,333.587l-1.6-.915v.626l1.6.914Z" transform="translate(-484.419 -331.921)" fill="#e06f2e"/>
            </g>
            <g id="Grupo_101886" data-name="Grupo 101886" transform="translate(12.634)">
              <path id="Trazado_158033" data-name="Trazado 158033" d="M490.45,331.807l-1.6-.915,1.263-.752,1.243,1.667Z" transform="translate(-488.852 -329.515)" fill="#ebe7e3"/>
              <path id="Trazado_158034" data-name="Trazado 158034" d="M490.485,331.707l1.263-.752v-.626l-1.263.752Z" transform="translate(-487.979 -329.414)" fill="#e07427"/>
              <path id="Trazado_158035" data-name="Trazado 158035" d="M491.042,331.4l-1.6-.915,1.263-.752,1.6.914Z" transform="translate(-488.536 -329.733)" fill="#ff9a2e"/>
              <path id="Trazado_158036" data-name="Trazado 158036" d="M491.042,331.137l-1.6-.915v.626l1.6.915Z" transform="translate(-488.536 -329.471)" fill="#e06f2e"/>
            </g>
          </g>
          <path id="Trazado_158037" data-name="Trazado 158037" d="M488.452,362.8l8.287-4.784-1.607-1.966-8.286,4.784Z" transform="translate(-361.424 -253.254)" fill="#cdc6bc"/>
          <path id="Trazado_158038" data-name="Trazado 158038" d="M495.993,358.414l8.286-4.784-1.607-1.966-8.286,4.784Z" transform="translate(-357.394 -255.596)" fill="#cdc6bc"/>
          <path id="Trazado_158039" data-name="Trazado 158039" d="M490.235,356.762a.37.37,0,0,0,.6-.072.608.608,0,0,0-.054-.735.371.371,0,0,0-.6.072A.607.607,0,0,0,490.235,356.762Z" transform="translate(-359.694 -253.366)" fill="#493f41"/>
          <path id="Trazado_158040" data-name="Trazado 158040" d="M490.25,356.688a.324.324,0,0,0,.52-.063.529.529,0,0,0-.046-.641.32.32,0,0,0-.488.02.307.307,0,0,0-.032.043A.529.529,0,0,0,490.25,356.688Z" transform="translate(-359.675 -253.342)" fill="#493f41"/>
          <path id="Trazado_158041" data-name="Trazado 158041" d="M490.383,355.88a1.986,1.986,0,0,1,.38.063c.092.04.054.689.054.689a1.517,1.517,0,0,1-.4.156C490.234,356.821,490.383,355.88,490.383,355.88Z" transform="translate(-359.564 -253.343)" fill="#493f41"/>
          <path id="Trazado_158042" data-name="Trazado 158042" d="M490.494,356.553a.256.256,0,0,0,.41-.049.419.419,0,0,0-.037-.5.256.256,0,0,0-.41.049A.419.419,0,0,0,490.494,356.553Z" transform="translate(-359.529 -253.322)" fill="#5c504e"/>
          <path id="Trazado_158043" data-name="Trazado 158043" d="M498.19,355.978l.925,5.23-6.586,3.8-14.335-16.644-.112-.653,10.07-5.815,9.5,11.027Z" transform="translate(-366.107 -260.814)" fill="#383838" style="mix-blend-mode: screen;isolation: isolate"/>
          <path id="Trazado_158044" data-name="Trazado 158044" d="M495.23,354.188l-2.013,1.163-.778-4.4Z" transform="translate(-358.435 -255.979)" fill="#383838" style="mix-blend-mode: screen;isolation: isolate"/>
          <path id="Trazado_158045" data-name="Trazado 158045" d="M509.265,355.188l-5.457,3.151-13.08-15.186-.466-2.631,9.28-5.357,7.844,9.106,1.671,9.7Z" transform="translate(-359.598 -264.413)" fill="#383838" style="mix-blend-mode: screen;isolation: isolate"/>
          <path id="Trazado_158046" data-name="Trazado 158046" d="M496.518,380.07l-2.313,1.335v-1.027l2.313-1.335Z" transform="translate(-357.491 -240.965)" fill="#493f41"/>
          <path id="Trazado_158047" data-name="Trazado 158047" d="M496.242,379.935l-1.9,1.1v-.76l1.9-1.1Z" transform="translate(-357.419 -240.894)" fill="#e06f2e"/>
          <path id="Trazado_158048" data-name="Trazado 158048" d="M507.1,373.5l-1.9,1.1v-.76l1.9-1.1Z" transform="translate(-351.615 -244.335)" fill="#e06f2e"/>
          <path id="Trazado_158049" data-name="Trazado 158049" d="M488,356.523l-.523.495,4.4-.446-.048-.622Z" transform="translate(-361.085 -253.305)" fill="#493f41"/>
          <path id="Trazado_158050" data-name="Trazado 158050" d="M494.948,355.3c-.044,0-12.472,6.451-12.472,6.451l-.133-.393,12.109-6.549Z" transform="translate(-363.83 -253.913)" fill="#5c504e"/>
        </g>
        <g id="Grupo_101891" data-name="Grupo 101891" transform="translate(41.876 53.344)">
          <g id="Grupo_101889" data-name="Grupo 101889" transform="translate(0.014 0.665)">
            <path id="Trazado_158051" data-name="Trazado 158051" d="M458.561,359.606a3.623,3.623,0,0,1-1.8-.531l-20.377-11.766c-2.231-1.287-3.977-4.6-3.977-7.537V328.146a3.9,3.9,0,0,1,1.611-3.552,3.016,3.016,0,0,1,3.09.192l20.377,11.764c2.229,1.287,3.977,4.6,3.977,7.537v11.628a3.9,3.9,0,0,1-1.611,3.551A2.539,2.539,0,0,1,458.561,359.606Zm-1.077-1.783a1.682,1.682,0,0,0,1.645.19,2.6,2.6,0,0,0,.888-2.3V344.087c0-2.388-1.493-5.266-3.258-6.285l-20.377-11.766a1.687,1.687,0,0,0-1.645-.19,2.608,2.608,0,0,0-.888,2.3v11.626c0,2.389,1.493,5.268,3.258,6.286Z" transform="translate(-432.406 -324.253)" fill="#e9e5e1"/>
          </g>
          <g id="Grupo_101890" data-name="Grupo 101890">
            <path id="Trazado_158052" data-name="Trazado 158052" d="M458.552,359.173a3.605,3.605,0,0,1-1.8-.532l-20.378-11.764c-2.229-1.289-3.977-4.6-3.977-7.537V327.713a3.9,3.9,0,0,1,1.613-3.552,3.016,3.016,0,0,1,3.089.19l20.378,11.766c2.231,1.287,3.977,4.6,3.977,7.537V355.28a3.908,3.908,0,0,1-1.611,3.552A2.56,2.56,0,0,1,458.552,359.173ZM435.3,325.264a1.123,1.123,0,0,0-.572.149,2.6,2.6,0,0,0-.89,2.3v11.626c0,2.388,1.493,5.266,3.258,6.285l20.378,11.766a1.679,1.679,0,0,0,1.643.19,2.608,2.608,0,0,0,.89-2.3V343.654c0-2.388-1.493-5.266-3.258-6.285L436.374,325.6A2.246,2.246,0,0,0,435.3,325.264Z" transform="translate(-432.397 -323.82)" fill="#d9d3cc"/>
          </g>
        </g>
        <g id="Grupo_101894" data-name="Grupo 101894" transform="translate(10.169 35.038)">
          <g id="Grupo_101892" data-name="Grupo 101892" transform="translate(0.012 0.664)">
            <path id="Trazado_158053" data-name="Trazado 158053" d="M437.9,347.676a3.626,3.626,0,0,1-1.8-.532L415.72,335.38c-2.231-1.287-3.979-4.6-3.979-7.537V316.215a3.9,3.9,0,0,1,1.611-3.551,3.015,3.015,0,0,1,3.092.19l20.375,11.766c2.231,1.287,3.979,4.6,3.979,7.537v11.626a3.908,3.908,0,0,1-1.611,3.552A2.558,2.558,0,0,1,437.9,347.676Zm-1.079-1.784a1.676,1.676,0,0,0,1.643.192,2.6,2.6,0,0,0,.89-2.3V332.157c0-2.389-1.491-5.268-3.256-6.286L415.72,314.107a1.679,1.679,0,0,0-1.643-.19,2.6,2.6,0,0,0-.89,2.3v11.628c0,2.388,1.491,5.266,3.258,6.285Z" transform="translate(-411.741 -312.322)" fill="#e9e5e1"/>
          </g>
          <g id="Grupo_101893" data-name="Grupo 101893">
            <path id="Trazado_158054" data-name="Trazado 158054" d="M437.888,347.243a3.616,3.616,0,0,1-1.8-.532L415.71,334.945c-2.231-1.287-3.977-4.6-3.977-7.537V315.782a3.907,3.907,0,0,1,1.61-3.552,3.022,3.022,0,0,1,3.092.192l20.378,11.764c2.229,1.289,3.977,4.6,3.977,7.539V343.35a3.9,3.9,0,0,1-1.613,3.551A2.541,2.541,0,0,1,437.888,347.243Zm-23.251-33.909a1.122,1.122,0,0,0-.571.149,2.6,2.6,0,0,0-.89,2.3v11.626c0,2.388,1.493,5.266,3.258,6.286l20.378,11.764a1.678,1.678,0,0,0,1.643.19,2.6,2.6,0,0,0,.888-2.3V331.724c0-2.389-1.491-5.268-3.256-6.286L415.71,313.673A2.23,2.23,0,0,0,414.638,313.334Z" transform="translate(-411.733 -311.889)" fill="#d9d3cc"/>
          </g>
        </g>
        <path id="Trazado_158055" data-name="Trazado 158055" d="M482.516,369.272,410.252,327.55v-2.1l72.264,41.722Z" transform="translate(-402.355 -269.602)" fill="#f5b53d"/>
        <path id="Trazado_158075" data-name="Trazado 158075" d="M501.023,350.514a.373.373,0,0,0,.6-.072.607.607,0,0,0-.054-.735.371.371,0,0,0-.6.072A.61.61,0,0,0,501.023,350.514Z" transform="translate(-353.928 -256.706)" fill="#493f41"/>
        <path id="Trazado_158076" data-name="Trazado 158076" d="M501.039,350.438a.324.324,0,0,0,.52-.063.531.531,0,0,0-.046-.641.32.32,0,0,0-.488.02.465.465,0,0,0-.034.043A.532.532,0,0,0,501.039,350.438Z" transform="translate(-353.909 -256.682)" fill="#493f41"/>
        <path id="Trazado_158077" data-name="Trazado 158077" d="M501.172,349.631a2.052,2.052,0,0,1,.379.061c.094.04.055.689.055.689a1.554,1.554,0,0,1-.4.158C501.023,350.57,501.172,349.631,501.172,349.631Z" transform="translate(-353.798 -256.682)" fill="#493f41"/>
        <path id="Trazado_158078" data-name="Trazado 158078" d="M501.283,350.3a.255.255,0,0,0,.408-.049.416.416,0,0,0-.037-.5.254.254,0,0,0-.408.051A.414.414,0,0,0,501.283,350.3Z" transform="translate(-353.764 -256.662)" fill="#5c504e"/>
        <path id="Trazado_158079" data-name="Trazado 158079" d="M498.79,350.273l-.523.495,4.4-.446-.048-.622Z" transform="translate(-355.32 -256.645)" fill="#493f41"/>
        <path id="Trazado_158080" data-name="Trazado 158080" d="M505.737,349.052c-.046,0-12.472,6.451-12.472,6.451l-.133-.393,12.109-6.547Z" transform="translate(-358.064 -257.253)" fill="#5c504e"/>
        <path id="Trazado_158081" data-name="Trazado 158081" d="M509.683,355.908l6.759,8.431L496.482,375.88l-10.551-11.716,10.446,12.194,20.611-11.9Z" transform="translate(-361.912 -253.328)" fill="#faf8f5"/>
      </g>
      <path id="Trazado_158082" data-name="Trazado 158082" d="M497.7,385.281l5.88-3.394a2.5,2.5,0,0,0,1.043-1.995v-3.356c0-.769-.466-1.122-1.043-.789l-5.88,3.4a2.5,2.5,0,0,0-1.043,1.993v3.356C496.655,385.261,497.121,385.614,497.7,385.281Z" transform="translate(-356.181 -242.792)" fill="#faf8f5"/>
      <path id="Trazado_158083" data-name="Trazado 158083" d="M504.833,376.627v3.359a2.5,2.5,0,0,1-1.053,1.99l-5.884,3.39c-.575.331-1.037-.015-1.037-.778v-3.36a2.494,2.494,0,0,1,1.037-1.99l5.884-3.4C504.358,375.5,504.833,375.861,504.833,376.627Z" transform="translate(-356.072 -242.746)" fill="#ebe7e3"/>
      <path id="Trazado_158084" data-name="Trazado 158084" d="M504.833,376.627V377l-7.974,4.6v-.374a2.494,2.494,0,0,1,1.037-1.99l5.884-3.4C504.358,375.5,504.833,375.861,504.833,376.627Z" transform="translate(-356.072 -242.746)" fill="#ff8e8c" style="mix-blend-mode: multiply;isolation: isolate"/>
      <g id="Grupo_101898" data-name="Grupo 101898" transform="translate(2.005 62.354)">
        <path id="Trazado_158085" data-name="Trazado 158085" d="M408.793,343.8c0-.087-.025-6.8-.017-10.818-.74-.354-1.518-.735-1.956-.971l-.408-.218.115-.546a4.2,4.2,0,0,1,2.8-1.551.645.645,0,0,1,.546.657c-.006.368-.012,1.062-.014,1.95.727.347,1.312.62,1.326.626a1.36,1.36,0,0,0,1.494.045l.741-.474.583.911-.741.474a2.4,2.4,0,0,1-2.6-.014c-.017-.006-.341-.156-.8-.374-.006,4.042.015,10.214.015,10.3Zm-.881-12.442c.261.13.56.276.868.427,0-.341,0-.643,0-.9A6.7,6.7,0,0,0,407.913,331.362Z" transform="translate(-406.412 -329.692)" fill="#898184"/>
      </g>
      <path id="Trazado_158086" data-name="Trazado 158086" d="M408.886,338.776a.848.848,0,0,0-.764,0,.233.233,0,0,0,0,.442.847.847,0,0,0,.766,0C409.1,339.1,409.1,338.9,408.886,338.776Z" transform="translate(-403.578 -262.532)" fill="#898184"/>
      <path id="Trazado_158087" data-name="Trazado 158087" d="M410.919,331.779a.846.846,0,0,0,.394.655c.213.118.381.015.377-.23a.854.854,0,0,0-.394-.655C411.083,331.431,410.914,331.534,410.919,331.779Z" transform="translate(-401.999 -266.371)" fill="#898184"/>
    </g>
    <g id="Grupo_101909" data-name="Grupo 101909" transform="translate(322.601 324.861)">
      <g id="Grupo_101902" data-name="Grupo 101902" transform="translate(9.656)">
        <path id="Trazado_158088" data-name="Trazado 158088" d="M338.39,338.669l-12.44-7.314,15.743-8.568,3.4,16.237Z" transform="translate(-325.951 -300.617)" fill="#dfe4eb" style="mix-blend-mode: multiply;isolation: isolate"/>
        <g id="Grupo_101901" data-name="Grupo 101901" transform="translate(6.708)">
          <g id="Grupo_101900" data-name="Grupo 101900">
            <path id="Trazado_158089" data-name="Trazado 158089" d="M354.171,313.105v22.528L338.428,344.2V321.671Z" transform="translate(-325.99 -305.791)" fill="#edf4ff"/>
            <path id="Trazado_158090" data-name="Trazado 158090" d="M342.76,321.234v22.528l-12.438-7.313V313.922Z" transform="translate(-330.322 -305.355)" fill="#dde7f8"/>
            <path id="Trazado_158091" data-name="Trazado 158091" d="M342.762,324.221l-12.44-7.314,15.743-8.568,12.44,7.314Z" transform="translate(-330.322 -308.339)" fill="#ebf4ff"/>
          </g>
        </g>
      </g>
      <g id="Grupo_101905" data-name="Grupo 101905" transform="translate(33.101 20.214)">
        <path id="Trazado_158092" data-name="Trazado 158092" d="M356.439,346.463l-15.209-8.942,20.418-11.108,1.016,20.05Z" transform="translate(-341.23 -318.894)" fill="#dfe4eb" style="mix-blend-mode: multiply;isolation: isolate"/>
        <g id="Grupo_101904" data-name="Grupo 101904" transform="translate(6.227)">
          <g id="Grupo_101903" data-name="Grupo 101903">
            <path id="Trazado_158093" data-name="Trazado 158093" d="M375.616,327.34v7.522L355.2,345.968v-7.522Z" transform="translate(-339.992 -318.398)" fill="#edf4ff"/>
            <path id="Trazado_158094" data-name="Trazado 158094" d="M360.495,337.691v7.522l-15.207-8.941v-7.521Z" transform="translate(-345.288 -317.644)" fill="#dde7f8"/>
            <path id="Trazado_158095" data-name="Trazado 158095" d="M360.5,341.562l-15.209-8.942,20.417-11.108,15.209,8.942Z" transform="translate(-345.288 -321.512)" fill="#ebf4ff"/>
          </g>
        </g>
      </g>
      <g id="Grupo_101908" data-name="Grupo 101908" transform="translate(0 38.607)">
        <path id="Trazado_158096" data-name="Trazado 158096" d="M336.94,356.9l-17.283-10.161,14.1-7.674L344.013,356.9Z" transform="translate(-319.657 -330.524)" fill="#dfe4eb" style="mix-blend-mode: multiply;isolation: isolate"/>
        <g id="Grupo_101907" data-name="Grupo 101907" transform="translate(7.076)">
          <g id="Grupo_101906" data-name="Grupo 101906">
            <path id="Trazado_158097" data-name="Trazado 158097" d="M349.633,340.122v8.548l-14.1,7.67v-8.548Z" transform="translate(-318.251 -329.961)" fill="#edf4ff"/>
            <path id="Trazado_158098" data-name="Trazado 158098" d="M341.549,348.659v8.548l-17.28-10.161V338.5Z" transform="translate(-324.269 -330.828)" fill="#dde7f8"/>
            <path id="Trazado_158099" data-name="Trazado 158099" d="M341.552,351.334l-17.283-10.161,14.1-7.674,17.283,10.161Z" transform="translate(-324.269 -333.5)" fill="#ebf4ff"/>
          </g>
        </g>
      </g>
    </g>
    <g id="Grupo_101937" data-name="Grupo 101937" transform="translate(371.621 391.903)">
      <g id="Grupo_101912" data-name="Grupo 101912" transform="translate(207.662 85.746)">
        <path id="Trazado_158100" data-name="Trazado 158100" d="M504.225,431.317l-17.283-10.161,14.1-7.674L511.3,431.317Z" transform="translate(-486.942 -404.938)" fill="#dfe4eb" style="mix-blend-mode: multiply;isolation: isolate"/>
        <g id="Grupo_101911" data-name="Grupo 101911" transform="translate(7.076)">
          <g id="Grupo_101910" data-name="Grupo 101910">
            <path id="Trazado_158101" data-name="Trazado 158101" d="M516.918,414.536v8.548l-14.1,7.67v-8.548Z" transform="translate(-485.536 -404.375)" fill="#edf4ff"/>
            <path id="Trazado_158102" data-name="Trazado 158102" d="M508.834,423.073v8.548l-17.28-10.16v-8.546Z" transform="translate(-491.554 -405.241)" fill="#dde7f8"/>
            <path id="Trazado_158103" data-name="Trazado 158103" d="M508.837,425.748l-17.283-10.161,14.1-7.674,17.283,10.161Z" transform="translate(-491.554 -407.914)" fill="#ebf4ff"/>
          </g>
        </g>
      </g>
      <g id="Grupo_101915" data-name="Grupo 101915" transform="translate(38.477)">
        <path id="Trazado_158104" data-name="Trazado 158104" d="M393.044,389.513l-16.364-9.619,39.268-21.365-15.831,30.984Z" transform="translate(-376.681 -348.559)" fill="#dfe4eb" style="mix-blend-mode: multiply;isolation: isolate"/>
        <g id="Grupo_101914" data-name="Grupo 101914" transform="translate(7.076)">
          <g id="Grupo_101913" data-name="Grupo 101913">
            <path id="Trazado_158105" data-name="Trazado 158105" d="M431.223,358.3v9.972l-39.268,21.362v-9.972Z" transform="translate(-375.594 -348.681)" fill="#edf4ff"/>
            <path id="Trazado_158106" data-name="Trazado 158106" d="M397.654,375.572v9.972l-16.361-9.618v-9.971Z" transform="translate(-381.292 -344.59)" fill="#dde7f8"/>
            <path id="Trazado_158107" data-name="Trazado 158107" d="M397.656,383.015,381.292,373.4l39.268-21.365,16.363,9.619Z" transform="translate(-381.292 -352.031)" fill="#ebf4ff"/>
          </g>
        </g>
      </g>
      <g id="Grupo_101918" data-name="Grupo 101918" transform="translate(76.844 9.619)">
        <path id="Trazado_158108" data-name="Trazado 158108" d="M424.013,400.741l-22.328-13.127,28.258-15.379L429.83,400.8Z" transform="translate(-401.685 -350.854)" fill="#dfe4eb" style="mix-blend-mode: multiply;isolation: isolate"/>
        <g id="Grupo_101917" data-name="Grupo 101917" transform="translate(5.821)">
          <g id="Grupo_101916" data-name="Grupo 101916">
            <path id="Trazado_158109" data-name="Trazado 158109" d="M441.594,366.855v25.086l-21.566,11.735V378.591Z" transform="translate(-397.703 -353.728)" fill="#edf4ff"/>
            <path id="Trazado_158110" data-name="Trazado 158110" d="M427.8,379.074V404.16l-22.325-13.126V365.95Z" transform="translate(-405.479 -354.212)" fill="#dde7f8"/>
            <path id="Trazado_158111" data-name="Trazado 158111" d="M427.807,383.167l-22.328-13.127L427.046,358.3l22.328,13.127Z" transform="translate(-405.479 -358.3)" fill="#ebf4ff"/>
          </g>
        </g>
      </g>
      <g id="Grupo_101921" data-name="Grupo 101921" transform="translate(114.096 25.503)">
        <path id="Trazado_158112" data-name="Trazado 158112" d="M461.847,421.043l-35.884-20.718,23.168-13.359,19.789,34.6Z" transform="translate(-425.963 -358.866)" fill="#dfe4eb" style="mix-blend-mode: multiply;isolation: isolate"/>
        <g id="Grupo_101920" data-name="Grupo 101920" transform="translate(7.076)">
          <g id="Grupo_101919" data-name="Grupo 101919">
            <path id="Trazado_158113" data-name="Trazado 158113" d="M477.127,382.155v28.624l-23.167,13.355V395.511Z" transform="translate(-418.079 -361.437)" fill="#edf4ff"/>
            <path id="Trazado_158114" data-name="Trazado 158114" d="M466.456,398.074V426.7l-35.88-20.718V377.358Z" transform="translate(-430.575 -364)" fill="#dde7f8"/>
            <path id="Trazado_158115" data-name="Trazado 158115" d="M466.459,402.73l-35.884-20.718,23.168-13.359,35.884,20.718Z" transform="translate(-430.575 -368.652)" fill="#ebf4ff"/>
          </g>
        </g>
      </g>
      <g id="Grupo_101924" data-name="Grupo 101924" transform="translate(160.89 67.506)">
        <path id="Trazado_158116" data-name="Trazado 158116" d="M472.823,431.494l-16.363-9.619,39.268-21.365L479.9,431.251Z" transform="translate(-456.46 -393.63)" fill="#dfe4eb" style="mix-blend-mode: multiply;isolation: isolate"/>
        <g id="Grupo_101923" data-name="Grupo 101923" transform="translate(7.076)">
          <g id="Grupo_101922" data-name="Grupo 101922">
            <path id="Trazado_158117" data-name="Trazado 158117" d="M504.876,402.3v9.972L471.734,430.3v-9.972Z" transform="translate(-455.373 -392.676)" fill="#edf4ff"/>
            <path id="Trazado_158118" data-name="Trazado 158118" d="M477.433,417.395v9.972l-16.361-9.619v-9.971Z" transform="translate(-461.071 -389.747)" fill="#dde7f8"/>
            <path id="Trazado_158119" data-name="Trazado 158119" d="M477.435,423.677l-16.363-9.619,33.141-18.032,16.363,9.619Z" transform="translate(-461.071 -396.026)" fill="#ebf4ff"/>
          </g>
        </g>
      </g>
      <g id="Grupo_101927" data-name="Grupo 101927" transform="translate(115.695 83.186)">
        <path id="Trazado_158120" data-name="Trazado 158120" d="M453.382,440.809,427.005,425.3l14.1-7.674,19.348,23.183Z" transform="translate(-427.005 -400.164)" fill="#dfe4eb" style="mix-blend-mode: multiply;isolation: isolate"/>
        <g id="Grupo_101926" data-name="Grupo 101926" transform="translate(7.076)">
          <g id="Grupo_101925" data-name="Grupo 101925">
            <path id="Trazado_158121" data-name="Trazado 158121" d="M462.908,416.353v17.465l-14.1,7.67V424.024Z" transform="translate(-422.431 -400.844)" fill="#edf4ff"/>
            <path id="Trazado_158122" data-name="Trazado 158122" d="M457.991,426.753v17.465L431.617,428.71V411.246Z" transform="translate(-431.617 -403.573)" fill="#dde7f8"/>
            <path id="Trazado_158123" data-name="Trazado 158123" d="M457.994,429.429l-26.377-15.51,14.1-7.674,26.377,15.51Z" transform="translate(-431.617 -406.245)" fill="#ebf4ff"/>
          </g>
        </g>
      </g>
      <g id="Grupo_101930" data-name="Grupo 101930" transform="translate(11.106 30.142)">
        <path id="Trazado_158124" data-name="Trazado 158124" d="M400.485,414.527l-41.643-24.483,19.753-10.75,28.964,35.234Z" transform="translate(-358.842 -367.605)" fill="#dfe4eb" style="mix-blend-mode: multiply;isolation: isolate"/>
        <g id="Grupo_101929" data-name="Grupo 101929" transform="translate(7.076)">
          <g id="Grupo_101928" data-name="Grupo 101928">
            <path id="Trazado_158125" data-name="Trazado 158125" d="M410.344,387.632v11.692l-19.752,10.748V398.379Z" transform="translate(-348.952 -363.149)" fill="#edf4ff"/>
            <path id="Trazado_158126" data-name="Trazado 158126" d="M405.094,403.162v11.692l-41.64-24.483v-11.69Z" transform="translate(-363.454 -367.932)" fill="#dde7f8"/>
            <path id="Trazado_158127" data-name="Trazado 158127" d="M405.1,406.909l-41.643-24.483,19.753-10.75,41.643,24.483Z" transform="translate(-363.454 -371.676)" fill="#ebf4ff"/>
          </g>
        </g>
      </g>
      <g id="Grupo_101933" data-name="Grupo 101933" transform="translate(0 60.786)">
        <path id="Trazado_158128" data-name="Trazado 158128" d="M379.107,427.507l-27.5-16.172,21.531-11.719,13.045,28.4Z" transform="translate(-351.604 -387.387)" fill="#dfe4eb" style="mix-blend-mode: multiply;isolation: isolate"/>
        <g id="Grupo_101932" data-name="Grupo 101932" transform="translate(7.076)">
          <g id="Grupo_101931" data-name="Grupo 101931">
            <path id="Trazado_158129" data-name="Trazado 158129" d="M395.669,402.186V414.93l-21.531,11.715V413.9Z" transform="translate(-346.638 -386.014)" fill="#edf4ff"/>
            <path id="Trazado_158130" data-name="Trazado 158130" d="M383.716,415.453V428.2l-27.5-16.171V399.283Z" transform="translate(-356.216 -387.565)" fill="#dde7f8"/>
            <path id="Trazado_158131" data-name="Trazado 158131" d="M383.719,419.537l-27.5-16.172,21.531-11.719,27.5,16.172Z" transform="translate(-356.216 -391.646)" fill="#ebf4ff"/>
          </g>
        </g>
      </g>
      <g id="Grupo_101936" data-name="Grupo 101936" transform="translate(66.422 52.777)">
        <path id="Trazado_158132" data-name="Trazado 158132" d="M415.364,431.384l-20.471-12.036,25.907-14.1,1.636,26.409Z" transform="translate(-394.893 -376.369)" fill="#dfe4eb" style="mix-blend-mode: multiply;isolation: isolate"/>
        <g id="Grupo_101935" data-name="Grupo 101935" transform="translate(7.076)">
          <g id="Grupo_101934" data-name="Grupo 101934">
            <path id="Trazado_158133" data-name="Trazado 158133" d="M438.751,394.271v29.156l-25.907,14.1V408.367Z" transform="translate(-392.376 -382.235)" fill="#edf4ff"/>
            <path id="Trazado_158134" data-name="Trazado 158134" d="M419.972,407.648V436.8L399.5,424.769V395.616Z" transform="translate(-399.504 -381.516)" fill="#dde7f8"/>
            <path id="Trazado_158135" data-name="Trazado 158135" d="M419.976,412.563,399.5,400.527l25.907-14.1,20.471,12.036Z" transform="translate(-399.504 -386.427)" fill="#ebf4ff"/>
          </g>
        </g>
      </g>
    </g>
  </g>
</svg>
