<svg xmlns="http://www.w3.org/2000/svg" xmlns:xlink="http://www.w3.org/1999/xlink" width="177.017" height="177.017" viewBox="0 0 177.017 177.017">
  <defs>
    <linearGradient id="linear-gradient" x1="0.059" y1="-0.237" x2="1.358" y2="1.933" gradientUnits="objectBoundingBox">
      <stop offset="0" stop-color="#ff9100"/>
      <stop offset="0.006" stop-color="#ff9000"/>
      <stop offset="0.264" stop-color="#ff7000"/>
      <stop offset="0.515" stop-color="#ff5a00"/>
      <stop offset="0.752" stop-color="#ff4c00"/>
      <stop offset="0.962" stop-color="#ff4800"/>
    </linearGradient>
  </defs>
  <g id="Grupo_102473" data-name="Grupo 102473" transform="translate(-1032.982 -718)">
    <circle id="Elipse_4581" data-name="Elipse 4581" cx="88.509" cy="88.509" r="88.509" transform="translate(1032.982 718)" fill="url(#linear-gradient)"/>
    <g id="Grupo_102449" data-name="Grupo 102449" transform="translate(1197.875 730.969) rotate(90)">
      <path id="Trazado_156338" data-name="Trazado 156338" d="M304.223,254.194a76.4,76.4,0,1,0-76.4,76.4A76.1,76.1,0,0,0,304.223,254.194Z" transform="translate(-152.339 -178.702)" fill="#fff"/>
    </g>
    <g id="Grupo_102451" data-name="Grupo 102451" transform="translate(922.183 499.853)">
      <path id="Trazado_158369" data-name="Trazado 158369" d="M242.522,325.944c-4.608-2.678-11.077-3.617-17.02-2.84a13.179,13.179,0,0,0-3.408-2.759c-7.143-4.151-18.759-4.151-25.946,0-3.83,2.21-5.609,5.152-5.375,8.048-.662.011-1.321.037-1.98.082,4.424-4.588,3.311-10.483-3.391-14.377-8.109-4.712-21.293-4.712-29.453,0s-8.2,12.35-.1,17.059c4.351,2.53,10.166,3.688,15.884,3.5-5.795,5.243-4.769,12.279,3.109,16.856,6.165,3.585,14.951,4.733,22.831,3.462a12.662,12.662,0,0,0,3.708,3.134c7.137,4.152,18.758,4.152,25.944,0,6.643-3.833,7.164-9.87,1.567-14.039a26.8,26.8,0,0,0,13.541-3.1C249.623,336.822,249.662,330.093,242.522,325.944Zm-28.017,13.641c.164.134.329.268.5.4-.131,0-.262-.009-.394-.01C214.584,339.843,214.543,339.715,214.505,339.585Z" opacity="0.1"/>
      <g id="Grupo_102017" data-name="Grupo 102017">
        <path id="Trazado_158370" data-name="Trazado 158370" d="M215.469,278.916l-.125-1.192c-.479-2.534-2.393-5-5.756-6.938-.48-.277-7.391-2.75-6.459-9.573l-7.695-.669.007.669h-7.675c1.125,5.97-5.638,9.142-6.373,9.568a11.47,11.47,0,0,0-5.375,5.81l-.01.005h.008a7.189,7.189,0,0,0-.29,1.128h-.011v.057a6.758,6.758,0,0,0,0,2.318v35.935c-.594,3.35,1.326,6.825,5.769,9.392,7.811,4.509,20.438,4.505,28.2-.005,4.387-2.55,6.276-6,5.68-9.326l.108-37.1Zm-19.951-11.564v.05h0Z" fill="#5abce5"/>
        <path id="Trazado_158371" data-name="Trazado 158371" d="M202.734,289.01c-8.279-.149-1.075-10.1-.035-14.849.806-3.683-14.254,1.931-18.105-5.473a18.346,18.346,0,0,1-3.2,2.093,11.47,11.47,0,0,0-5.375,5.81l-.01.005h.008a7.189,7.189,0,0,0-.29,1.128h-.011v.057a6.758,6.758,0,0,0,0,2.318v14.656c10.743,10.52,29.877,2.175,37.676-.7a8.475,8.475,0,0,0,2.037-1.07l.029-10.138C213.682,286.154,210.992,289.157,202.734,289.01Z" fill="#7dd4f2"/>
        <path id="Trazado_158372" data-name="Trazado 158372" d="M215.361,316.1l.02-7.105-8.6,8.555-31.066-2.787v1.276a6.782,6.782,0,0,0-.09,1.511,10.617,10.617,0,0,0,6.211,4.056c5.234,1.471,16.487,4.313,23.943.976,7.907-3.538,7.573-2.091,6.125-.531-1.32,1.423-4.415,4.512-7.375,5.528a23.2,23.2,0,0,0,5.152-2.153C214.068,322.871,215.957,319.424,215.361,316.1Z" fill="#40a3c6"/>
        <path id="Trazado_158373" data-name="Trazado 158373" d="M183.471,305.711c8.24,2.437,15.627,2.576,26.65-1.631,0,0,4.01-2.576,3.12.68-.61,2.23-.385,3.612-1.079,5.049,1.011-1.079,2.223-2.354,3.311-3.489V291.647l-3.311,4.41-15.516,3.271-20.931-3.271v4.213A14.462,14.462,0,0,0,183.471,305.711Z" fill="#40a3c6"/>
        <g id="Grupo_102012" data-name="Grupo 102012">
          <path id="Trazado_158374" data-name="Trazado 158374" d="M200.861,258.03c3.011,1.758,3.028,4.607.037,6.365a11.857,11.857,0,0,1-10.865,0c-3.008-1.758-3.024-4.611-.035-6.369A11.85,11.85,0,0,1,200.861,258.03Z" fill="#5abce5"/>
        </g>
        <g id="Grupo_102013" data-name="Grupo 102013">
          <path id="Trazado_158375" data-name="Trazado 158375" d="M200.861,258.03c3.011,1.758,3.028,4.607.037,6.365a11.857,11.857,0,0,1-10.865,0c-3.008-1.758-3.024-4.611-.035-6.369A11.85,11.85,0,0,1,200.861,258.03Z" fill="#0467d8"/>
        </g>
        <g id="Grupo_102014" data-name="Grupo 102014">
          <path id="Trazado_158376" data-name="Trazado 158376" d="M215.41,286.95c.742,3.253-1.12,6.651-5.637,9.147-7.787,4.306-20.459,4.309-28.3,0-5.229-2.872-5.876-5.458-5.762-10.605-3.9,5.519-1.748,12.052,4.1,15.495,8.56,5.041,22.436,5.014,30.954,0C217.211,297.19,218.751,291.614,215.41,286.95Z" fill="#89d2f5"/>
          <path id="Trazado_158377" data-name="Trazado 158377" d="M215.453,284.294c-.074,3.507-1.163,6.634-5.68,9.13-7.787,4.306-20.459,4.311-28.3,0-5.229-2.873-5.876-5.459-5.762-10.607-3.9,5.52-1.748,12.052,4.1,15.495,8.56,5.041,22.436,5.015,30.954,0C217.211,294.518,218.793,288.957,215.453,284.294Z" fill="#a1e0ff"/>
        </g>
        <g id="Grupo_102015" data-name="Grupo 102015">
          <path id="Trazado_158378" data-name="Trazado 158378" d="M215.41,304.768c.742,3.254-1.12,6.65-5.637,9.147-7.787,4.307-20.459,4.31-28.3,0-5.229-2.873-5.876-5.459-5.762-10.606-3.9,5.518-1.748,12.051,4.1,15.5,8.56,5.042,22.436,5.013,30.954,0C217.211,315.01,218.751,309.432,215.41,304.768Z" fill="#89d2f5"/>
          <path id="Trazado_158379" data-name="Trazado 158379" d="M215.473,302.086c.106,3.534-1.183,6.658-5.7,9.156-7.787,4.307-20.459,4.31-28.3,0-5.229-2.872-5.876-5.457-5.762-10.6-3.9,5.517-1.748,12.05,4.1,15.495,8.56,5.04,22.436,5.013,30.954,0C217.211,312.336,218.812,306.75,215.473,302.086Z" fill="#a1e0ff"/>
        </g>
        <rect id="Rectángulo_35670" data-name="Rectángulo 35670" width="15.363" height="3.563" transform="translate(187.766 257.649)" fill="#0467d8"/>
        <g id="Grupo_102016" data-name="Grupo 102016">
          <path id="Trazado_158380" data-name="Trazado 158380" d="M200.861,254.467c3.011,1.758,3.028,4.606.037,6.364a11.851,11.851,0,0,1-10.865,0c-3.008-1.758-3.024-4.61-.035-6.368A11.847,11.847,0,0,1,200.861,254.467Z" fill="#298bed"/>
        </g>
      </g>
      <g id="Grupo_102028" data-name="Grupo 102028">
        <path id="Trazado_158381" data-name="Trazado 158381" d="M220.24,314.6c0,2.843,4.147,5.3,9.246,5.3s9.248-1.846,9.248-5.505-4.146-9.2-9.248-9.2S220.24,310.938,220.24,314.6Z" fill="#7dd4f2"/>
        <g id="Grupo_102018" data-name="Grupo 102018">
          <path id="Trazado_158382" data-name="Trazado 158382" d="M222.974,330.615c-3.621,2.1-3.636,5.49-.037,7.58a14.4,14.4,0,0,0,13.1,0c3.617-2.09,3.64-5.484.032-7.575A14.416,14.416,0,0,0,222.974,330.615Z" fill="#7dd4f2"/>
        </g>
        <path id="Trazado_158383" data-name="Trazado 158383" d="M220.269,334.725l18.491-.321-.025-20.418H220.24Z" fill="#7dd4f2"/>
        <g id="Grupo_102019" data-name="Grupo 102019">
          <path id="Trazado_158384" data-name="Trazado 158384" d="M225.084,307.249c-2.46,1.412-2.473,3.722-.024,5.142a9.8,9.8,0,0,0,8.861,0c2.462-1.42,2.47-3.73.036-5.142A9.8,9.8,0,0,0,225.084,307.249Z" fill="#37bcd2"/>
        </g>
        <g id="Grupo_102020" data-name="Grupo 102020">
          <path id="Trazado_158385" data-name="Trazado 158385" d="M225.084,301.8c-2.46,1.424-2.473,3.723-.024,5.135a9.736,9.736,0,0,0,8.861,0c2.462-1.412,2.47-3.711.036-5.135A9.785,9.785,0,0,0,225.084,301.8Z" fill="#37bcd2"/>
        </g>
        <rect id="Rectángulo_35671" data-name="Rectángulo 35671" width="12.532" height="6.454" transform="translate(223.24 303.644)" fill="#37bcd2"/>
        <g id="Grupo_102021" data-name="Grupo 102021">
          <path id="Trazado_158386" data-name="Trazado 158386" d="M222.974,301.585c-3.621,2.1-3.636,5.491-.037,7.586a14.442,14.442,0,0,0,13.1,0c3.617-2.1,3.64-5.49.032-7.586A14.462,14.462,0,0,0,222.974,301.585Z" fill="#40daf4"/>
        </g>
        <path id="Trazado_158387" data-name="Trazado 158387" d="M220.24,305.162c0,2.848,4.147,5.3,9.246,5.3s9.248-1.854,9.248-5.512-4.146-9.185-9.248-9.185S220.24,301.508,220.24,305.162Z" fill="#7dd4f2"/>
        <g id="Grupo_102027" data-name="Grupo 102027">
          <g id="Grupo_102022" data-name="Grupo 102022">
            <path id="Trazado_158388" data-name="Trazado 158388" d="M226.728,295.7c-1.451.836-1.46,2.186-.025,3.021a5.732,5.732,0,0,0,5.225.007c1.449-.842,1.449-2.192.019-3.028A5.775,5.775,0,0,0,226.728,295.7Z" fill="#37bcd2"/>
          </g>
          <g id="Grupo_102023" data-name="Grupo 102023">
            <path id="Trazado_158389" data-name="Trazado 158389" d="M226.681,292.584c-1.464.847-1.48,2.223-.02,3.076a5.87,5.87,0,0,0,5.3,0c1.474-.846,1.48-2.229.021-3.076A5.865,5.865,0,0,0,226.681,292.584Z" fill="#40daf4"/>
          </g>
          <rect id="Rectángulo_35672" data-name="Rectángulo 35672" width="7.379" height="3.033" transform="translate(225.631 294.331)" fill="#37bcd2"/>
          <g id="Grupo_102026" data-name="Grupo 102026">
            <g id="Grupo_102024" data-name="Grupo 102024">
              <path id="Trazado_158390" data-name="Trazado 158390" d="M226.348,292.715c-1.645.954-1.655,2.495-.017,3.45a6.648,6.648,0,0,0,5.966.005c1.652-.954,1.652-2.5.013-3.455A6.562,6.562,0,0,0,226.348,292.715Z" fill="#0c2035"/>
            </g>
            <rect id="Rectángulo_35673" data-name="Rectángulo 35673" width="8.427" height="2.063" transform="translate(225.107 292.552)" fill="#0c2035"/>
            <g id="Grupo_102025" data-name="Grupo 102025">
              <path id="Trazado_158391" data-name="Trazado 158391" d="M226.363,290.688c-1.65.959-1.66,2.5-.023,3.443a6.532,6.532,0,0,0,5.945,0c1.653-.949,1.653-2.486.025-3.445A6.537,6.537,0,0,0,226.363,290.688Z" fill="#102946"/>
            </g>
          </g>
        </g>
        <path id="Trazado_158392" data-name="Trazado 158392" d="M236.391,318.034a11.44,11.44,0,0,0,2.369-2.219v14.453a4.2,4.2,0,0,1-2.369,3.042,10.629,10.629,0,0,1-3.805,1.244l-1.853.171a18.047,18.047,0,0,1-2.74-.3V319.15A12.674,12.674,0,0,0,236.391,318.034Z" fill="#102946"/>
      </g>
      <g id="Grupo_102039" data-name="Grupo 102039">
        <path id="Trazado_158393" data-name="Trazado 158393" d="M156.893,298.44c0,3.415,4.966,6.356,11.085,6.356s11.086-2.221,11.086-6.6-4.962-11.017-11.086-11.017S156.893,294.058,156.893,298.44Z" fill="#40daf4"/>
        <g id="Grupo_102029" data-name="Grupo 102029">
          <path id="Trazado_158394" data-name="Trazado 158394" d="M160.171,317.655c-4.347,2.512-4.368,6.584-.05,9.1s11.349,2.511,15.7,0,4.367-6.584.053-9.094A17.3,17.3,0,0,0,160.171,317.655Z" fill="#40daf4"/>
        </g>
        <path id="Trazado_158395" data-name="Trazado 158395" d="M156.912,322.582l22.188-.38-.035-24.488H156.893Z" fill="#40daf4"/>
        <g id="Grupo_102030" data-name="Grupo 102030">
          <path id="Trazado_158396" data-name="Trazado 158396" d="M162.7,289.632c-2.95,1.7-2.965,4.46-.036,6.161a11.725,11.725,0,0,0,10.636,0c2.947-1.7,2.96-4.461.033-6.157A11.716,11.716,0,0,0,162.7,289.632Z" fill="#37bcd2"/>
        </g>
        <g id="Grupo_102031" data-name="Grupo 102031">
          <path id="Trazado_158397" data-name="Trazado 158397" d="M162.7,283.1c-2.95,1.7-2.965,4.461-.036,6.162a11.728,11.728,0,0,0,10.636,0c2.947-1.7,2.96-4.458.033-6.161A11.713,11.713,0,0,0,162.7,283.1Z" fill="#37bcd2"/>
        </g>
        <rect id="Rectángulo_35674" data-name="Rectángulo 35674" width="15.045" height="7.73" transform="translate(160.477 285.315)" fill="#37bcd2"/>
        <g id="Grupo_102032" data-name="Grupo 102032">
          <path id="Trazado_158398" data-name="Trazado 158398" d="M160.171,282.844c-4.347,2.509-4.368,6.581-.05,9.092a17.3,17.3,0,0,0,15.7,0c4.352-2.511,4.367-6.583.053-9.092A17.292,17.292,0,0,0,160.171,282.844Z" fill="#40daf4"/>
        </g>
        <path id="Trazado_158399" data-name="Trazado 158399" d="M156.893,287.129c0,3.41,4.966,6.351,11.085,6.351s11.086-2.216,11.086-6.6-4.962-11.02-11.086-11.02S156.893,282.744,156.893,287.129Z" fill="#40daf4"/>
        <g id="Grupo_102038" data-name="Grupo 102038">
          <g id="Grupo_102033" data-name="Grupo 102033">
            <path id="Trazado_158400" data-name="Trazado 158400" d="M164.658,275.784c-1.73,1-1.741,2.625-.019,3.629a6.907,6.907,0,0,0,6.265,0c1.735-1,1.74-2.627.016-3.629A6.9,6.9,0,0,0,164.658,275.784Z" fill="#37bcd2"/>
          </g>
          <g id="Grupo_102034" data-name="Grupo 102034">
            <path id="Trazado_158401" data-name="Trazado 158401" d="M164.614,272.049c-1.762,1.017-1.77,2.666-.022,3.681a7,7,0,0,0,6.358,0c1.763-1.015,1.769-2.664.02-3.681A7.008,7.008,0,0,0,164.614,272.049Z" fill="#40daf4"/>
          </g>
          <rect id="Rectángulo_35675" data-name="Rectángulo 35675" width="8.85" height="3.637" transform="translate(163.355 274.145)" fill="#37bcd2"/>
          <g id="Grupo_102037" data-name="Grupo 102037">
            <g id="Grupo_102035" data-name="Grupo 102035">
              <path id="Trazado_158402" data-name="Trazado 158402" d="M164.223,272.2c-1.982,1.147-2,3-.028,4.142a7.893,7.893,0,0,0,7.149,0c1.981-1.144,1.986-2.995.021-4.142A7.879,7.879,0,0,0,164.223,272.2Z" fill="#ffbd4a"/>
            </g>
            <rect id="Rectángulo_35676" data-name="Rectángulo 35676" width="10.104" height="2.472" transform="translate(162.73 272.008)" fill="#ffbd4a"/>
            <g id="Grupo_102036" data-name="Grupo 102036">
              <path id="Trazado_158403" data-name="Trazado 158403" d="M164.227,269.772c-1.975,1.142-1.986,2.992-.02,4.13a7.853,7.853,0,0,0,7.131,0c1.974-1.141,1.985-2.991.019-4.133A7.878,7.878,0,0,0,164.227,269.772Z" fill="#f29200"/>
            </g>
          </g>
        </g>
        <path id="Trazado_158404" data-name="Trazado 158404" d="M176.254,302.571a13.628,13.628,0,0,0,2.846-2.657v17.325a5.082,5.082,0,0,1-2.846,3.653,12.814,12.814,0,0,1-4.563,1.48l-2.216.21a22.421,22.421,0,0,1-3.293-.366v-18.31A15.22,15.22,0,0,0,176.254,302.571Z" fill="#f29200"/>
      </g>
      <g id="Grupo_102047" data-name="Grupo 102047">
        <path id="Trazado_158405" data-name="Trazado 158405" d="M173.756,315.922c0,11.053,7.924,20.016,17.693,20.016s17.695-8.963,17.695-20.016-7.921-20.02-17.695-20.02S173.756,304.863,173.756,315.922Z" fill="#37bcd2"/>
        <g id="Grupo_102040" data-name="Grupo 102040">
          <path id="Trazado_158406" data-name="Trazado 158406" d="M178.978,334.778c-6.937,4.007-6.969,10.5-.082,14.5s18.094,4.008,25.028,0,6.963-10.491.081-14.491S185.911,330.776,178.978,334.778Z" fill="#40daf4"/>
        </g>
        <rect id="Rectángulo_35677" data-name="Rectángulo 35677" width="35.233" height="29.438" transform="translate(173.845 314.43)" fill="#40daf4"/>
        <g id="Grupo_102041" data-name="Grupo 102041">
          <path id="Trazado_158407" data-name="Trazado 158407" d="M178.978,308.671c-6.933,4-6.965,10.491-.084,14.493s18.09,4.005,25.024,0,6.971-10.49.084-14.493S185.911,304.666,178.978,308.671Z" fill="#37bcd2"/>
        </g>
        <g id="Grupo_102042" data-name="Grupo 102042">
          <path id="Trazado_158408" data-name="Trazado 158408" d="M186.295,295.781c-2.865,1.654-2.877,4.336-.032,5.988a11.4,11.4,0,0,0,10.34,0c2.863-1.652,2.875-4.337.03-5.991A11.4,11.4,0,0,0,186.295,295.781Z" fill="#40daf4"/>
        </g>
        <g id="Grupo_102043" data-name="Grupo 102043">
          <path id="Trazado_158409" data-name="Trazado 158409" d="M186.217,289.611c-2.908,1.68-2.924,4.4-.037,6.08a11.578,11.578,0,0,0,10.5,0c2.91-1.677,2.918-4.4.027-6.083A11.575,11.575,0,0,0,186.217,289.611Z" fill="#40daf4"/>
        </g>
        <rect id="Rectángulo_35678" data-name="Rectángulo 35678" width="14.619" height="6.005" transform="translate(184.139 293.073)" fill="#40daf4"/>
        <g id="Grupo_102046" data-name="Grupo 102046">
          <g id="Grupo_102044" data-name="Grupo 102044">
            <path id="Trazado_158410" data-name="Trazado 158410" d="M185.568,289.862c-3.271,1.891-3.286,4.949-.039,6.835a13.009,13.009,0,0,0,11.8,0c3.268-1.886,3.276-4.947.032-6.838A13.01,13.01,0,0,0,185.568,289.862Z" fill="#ffbd4a"/>
          </g>
          <rect id="Rectángulo_35679" data-name="Rectángulo 35679" width="16.689" height="4.082" transform="translate(183.102 289.542)" fill="#ffbd4a"/>
          <g id="Grupo_102045" data-name="Grupo 102045">
            <path id="Trazado_158411" data-name="Trazado 158411" d="M185.578,285.853c-3.268,1.883-3.281,4.937-.037,6.822a12.98,12.98,0,0,0,11.779,0c3.266-1.885,3.272-4.942.033-6.825A12.984,12.984,0,0,0,185.578,285.853Z" fill="#f29200"/>
          </g>
        </g>
      </g>
      <g id="Grupo_102058" data-name="Grupo 102058">
        <path id="Trazado_158412" data-name="Trazado 158412" d="M211.264,334.813c0,2.563,3.729,4.773,8.325,4.773s8.322-1.667,8.322-4.962-3.725-8.272-8.322-8.272S211.264,331.52,211.264,334.813Z" fill="#40daf4"/>
        <g id="Grupo_102048" data-name="Grupo 102048">
          <path id="Trazado_158413" data-name="Trazado 158413" d="M213.725,349.241c-3.266,1.886-3.284,4.944-.038,6.83a13,13,0,0,0,11.79,0c3.267-1.886,3.282-4.944.04-6.826A12.98,12.98,0,0,0,213.725,349.241Z" fill="#40daf4"/>
        </g>
        <path id="Trazado_158414" data-name="Trazado 158414" d="M211.281,352.94l16.656-.283-.026-18.391H211.264Z" fill="#40daf4"/>
        <g id="Grupo_102049" data-name="Grupo 102049">
          <path id="Trazado_158415" data-name="Trazado 158415" d="M215.623,328.2c-2.216,1.278-2.227,3.35-.029,4.627a8.8,8.8,0,0,0,7.988,0c2.215-1.277,2.224-3.349.025-4.624A8.8,8.8,0,0,0,215.623,328.2Z" fill="#37bcd2"/>
        </g>
        <g id="Grupo_102050" data-name="Grupo 102050">
          <path id="Trazado_158416" data-name="Trazado 158416" d="M215.623,323.294c-2.216,1.279-2.227,3.351-.029,4.629a8.822,8.822,0,0,0,7.988,0c2.215-1.278,2.224-3.35.025-4.626A8.8,8.8,0,0,0,215.623,323.294Z" fill="#37bcd2"/>
        </g>
        <rect id="Rectángulo_35680" data-name="Rectángulo 35680" width="11.298" height="5.809" transform="translate(213.952 324.954)" fill="#37bcd2"/>
        <g id="Grupo_102051" data-name="Grupo 102051">
          <path id="Trazado_158417" data-name="Trazado 158417" d="M213.725,323.1c-3.266,1.885-3.284,4.942-.038,6.83a12.994,12.994,0,0,0,11.79,0c3.267-1.888,3.282-4.945.04-6.83A12.986,12.986,0,0,0,213.725,323.1Z" fill="#40daf4"/>
        </g>
        <path id="Trazado_158418" data-name="Trazado 158418" d="M211.264,326.317c0,2.563,3.729,4.771,8.325,4.771s8.322-1.666,8.322-4.958-3.725-8.276-8.322-8.276S211.264,323.023,211.264,326.317Z" fill="#40daf4"/>
        <g id="Grupo_102057" data-name="Grupo 102057">
          <g id="Grupo_102052" data-name="Grupo 102052">
            <path id="Trazado_158419" data-name="Trazado 158419" d="M217.1,317.8c-1.3.752-1.307,1.97-.016,2.723a5.184,5.184,0,0,0,4.7,0c1.3-.752,1.3-1.971.014-2.723A5.174,5.174,0,0,0,217.1,317.8Z" fill="#37bcd2"/>
          </g>
          <g id="Grupo_102053" data-name="Grupo 102053">
            <path id="Trazado_158420" data-name="Trazado 158420" d="M217.06,314.993c-1.322.764-1.332,2-.017,2.766a5.268,5.268,0,0,0,4.777,0c1.324-.762,1.324-2,.012-2.766A5.26,5.26,0,0,0,217.06,314.993Z" fill="#40daf4"/>
          </g>
          <rect id="Rectángulo_35681" data-name="Rectángulo 35681" width="6.648" height="2.728" transform="translate(216.115 316.568)" fill="#37bcd2"/>
          <g id="Grupo_102056" data-name="Grupo 102056">
            <g id="Grupo_102054" data-name="Grupo 102054">
              <path id="Trazado_158421" data-name="Trazado 158421" d="M216.766,315.106c-1.487.861-1.5,2.249-.02,3.109a5.911,5.911,0,0,0,5.367,0c1.489-.857,1.493-2.248.018-3.109A5.919,5.919,0,0,0,216.766,315.106Z" fill="#ffbd4a"/>
            </g>
            <rect id="Rectángulo_35682" data-name="Rectángulo 35682" width="7.585" height="1.857" transform="translate(215.647 314.961)" fill="#ffbd4a"/>
            <g id="Grupo_102055" data-name="Grupo 102055">
              <path id="Trazado_158422" data-name="Trazado 158422" d="M216.768,313.283c-1.483.857-1.489,2.248-.016,3.1a5.919,5.919,0,0,0,5.359,0c1.485-.858,1.491-2.249.018-3.106A5.929,5.929,0,0,0,216.768,313.283Z" fill="#f29200"/>
            </g>
          </g>
        </g>
        <path id="Trazado_158423" data-name="Trazado 158423" d="M225.8,337.911a10.169,10.169,0,0,0,2.134-1.991v13.009a3.809,3.809,0,0,1-2.134,2.744,9.68,9.68,0,0,1-3.428,1.112l-1.662.155a16.956,16.956,0,0,1-2.476-.273V338.915A11.414,11.414,0,0,0,225.8,337.911Z" fill="#f29200"/>
      </g>
    </g>
  </g>
</svg>
