<svg xmlns="http://www.w3.org/2000/svg" xmlns:xlink="http://www.w3.org/1999/xlink" width="177.017" height="177.017" viewBox="0 0 177.017 177.017">
  <defs>
    <linearGradient id="linear-gradient" x1="0.059" y1="-0.237" x2="1.358" y2="1.933" gradientUnits="objectBoundingBox">
      <stop offset="0" stop-color="#a1a1ff"/>
      <stop offset="1" stop-color="#8078bf"/>
    </linearGradient>
  </defs>
  <g id="Grupo_102470" data-name="Grupo 102470" transform="translate(-1032.982 -1250)">
    <circle id="Elipse_4584" data-name="Elipse 4584" cx="88.509" cy="88.509" r="88.509" transform="translate(1032.982 1250)" fill="url(#linear-gradient)"/>
    <g id="Grupo_102455" data-name="Grupo 102455" transform="translate(1197.875 1261.969) rotate(90)">
      <path id="Trazado_156338" data-name="Trazado 156338" d="M304.223,254.194a76.4,76.4,0,1,0-76.4,76.4A76.1,76.1,0,0,0,304.223,254.194Z" transform="translate(-152.339 -178.702)" fill="#fff"/>
    </g>
    <g id="Grupo_102456" data-name="Grupo 102456" transform="translate(909.868 899.913)">
      <path id="Trazado_158616" data-name="Trazado 158616" d="M262.61,458.471c-7.763-4.483-20.307-4.483-28.021,0-.323.188-.613.387-.909.585-.723-5.236-4.544-10.36-11.479-14.364-15.42-8.9-40.335-8.9-55.651,0s-15.236,23.333.181,32.234,40.332,8.9,55.65,0a27.815,27.815,0,0,0,7.715-6.369,13.1,13.1,0,0,0,4.585,4.142c7.762,4.483,20.307,4.483,28.02,0S270.372,462.952,262.61,458.471Z" opacity="0.1"/>
      <g id="Grupo_102229" data-name="Grupo 102229">
        <g id="Grupo_102219" data-name="Grupo 102219">
          <path id="Trazado_158617" data-name="Trazado 158617" d="M188.048,454.156c5.841,3.372,5.872,8.839.068,12.212s-15.239,3.37-21.08,0-5.869-8.838-.069-12.208S182.21,450.785,188.048,454.156Z" fill="#b5dbdc"/>
        </g>
        <g id="Grupo_102220" data-name="Grupo 102220">
          <path id="Trazado_158618" data-name="Trazado 158618" d="M188.048,453.134c5.841,3.372,5.872,8.84.068,12.212s-15.239,3.371-21.08,0-5.869-8.839-.069-12.209S182.21,449.763,188.048,453.134Z" fill="#5abce5"/>
        </g>
        <g id="Grupo_102221" data-name="Grupo 102221">
          <path id="Trazado_158619" data-name="Trazado 158619" d="M188.048,425.224c5.841,3.372,5.872,8.84.068,12.212s-15.239,3.371-21.08,0-5.869-8.839-.069-12.209S182.21,421.853,188.048,425.224Z" fill="#5abce5"/>
        </g>
        <rect id="Rectángulo_35685" data-name="Rectángulo 35685" width="29.709" height="40.974" transform="translate(162.637 419.289)" fill="#5abce5"/>
        <g id="Grupo_102222" data-name="Grupo 102222">
          <path id="Trazado_158620" data-name="Trazado 158620" d="M188.048,439.845c5.841,3.372,5.872,8.84.068,12.212s-15.239,3.371-21.08,0-5.869-8.839-.069-12.209S182.21,436.475,188.048,439.845Z" fill="#b5dbdc"/>
        </g>
        <g id="Grupo_102223" data-name="Grupo 102223">
          <path id="Trazado_158621" data-name="Trazado 158621" d="M188.048,438.822c5.841,3.372,5.872,8.84.068,12.213s-15.239,3.37-21.08,0-5.869-8.839-.069-12.209S182.21,435.452,188.048,438.822Z" fill="#5abce5"/>
        </g>
        <g id="Grupo_102224" data-name="Grupo 102224">
          <path id="Trazado_158622" data-name="Trazado 158622" d="M188.048,425.735c5.841,3.372,5.872,8.839.068,12.212s-15.239,3.37-21.08,0-5.869-8.838-.069-12.208S182.21,422.364,188.048,425.735Z" fill="#b5dbdc"/>
        </g>
        <g id="Grupo_102225" data-name="Grupo 102225">
          <path id="Trazado_158623" data-name="Trazado 158623" d="M188.048,424.713c5.841,3.372,5.872,8.84.068,12.212s-15.239,3.371-21.08,0-5.869-8.839-.069-12.209S182.21,421.342,188.048,424.713Z" fill="#5abce5"/>
        </g>
        <g id="Grupo_102226" data-name="Grupo 102226">
          <path id="Trazado_158624" data-name="Trazado 158624" d="M188.048,415.112c5.841,3.372,5.872,8.839.068,12.212s-15.239,3.37-21.08,0-5.869-8.838-.069-12.208S182.21,411.741,188.048,415.112Z" fill="#b5dbdc"/>
        </g>
        <g id="Grupo_102227" data-name="Grupo 102227">
          <path id="Trazado_158625" data-name="Trazado 158625" d="M188.048,414.09c5.841,3.372,5.872,8.84.068,12.212s-15.239,3.371-21.08,0-5.869-8.839-.069-12.209S182.21,410.719,188.048,414.09Z" fill="#5abce5"/>
        </g>
        <g id="Grupo_102228" data-name="Grupo 102228">
          <path id="Trazado_158626" data-name="Trazado 158626" d="M187.1,414.612c5.34,3.084,5.37,8.083.062,11.168s-13.935,3.082-19.277,0-5.366-8.082-.063-11.164S181.759,411.529,187.1,414.612Z" fill="#298bed"/>
        </g>
        <path id="Trazado_158627" data-name="Trazado 158627" d="M167.883,425.778c5.342,3.084,13.973,3.084,19.277,0a9.978,9.978,0,0,0,2.428-1.918c1.408-2.547.361-5.453-3.143-7.476-4.976-2.873-13.021-2.873-17.968,0-3.456,2.009-4.48,4.889-3.084,7.423A10.025,10.025,0,0,0,167.883,425.778Z" fill="#0467d8"/>
      </g>
      <g id="Grupo_102230" data-name="Grupo 102230">
        <path id="Trazado_158628" data-name="Trazado 158628" d="M221.8,443.779c5.841,3.372,5.872,8.839.069,12.212s-15.24,3.37-21.081,0-5.868-8.838-.069-12.208S215.96,440.408,221.8,443.779Z" fill="#b5dbdc"/>
      </g>
      <g id="Grupo_102231" data-name="Grupo 102231">
        <path id="Trazado_158629" data-name="Trazado 158629" d="M221.8,442.757c5.841,3.372,5.872,8.84.069,12.212s-15.24,3.371-21.081,0-5.868-8.839-.069-12.209S215.96,439.386,221.8,442.757Z" fill="#5abce5"/>
      </g>
      <g id="Grupo_102232" data-name="Grupo 102232">
        <path id="Trazado_158630" data-name="Trazado 158630" d="M221.8,414.847c5.841,3.372,5.872,8.839.069,12.213s-15.24,3.37-21.081,0-5.868-8.839-.069-12.209S215.96,411.477,221.8,414.847Z" fill="#5abce5"/>
      </g>
      <rect id="Rectángulo_35686" data-name="Rectángulo 35686" width="29.709" height="40.974" transform="translate(196.387 408.912)" fill="#5abce5"/>
      <g id="Grupo_102233" data-name="Grupo 102233">
        <path id="Trazado_158631" data-name="Trazado 158631" d="M221.8,429.468c5.841,3.372,5.872,8.84.069,12.212s-15.24,3.371-21.081,0-5.868-8.839-.069-12.209S215.96,426.1,221.8,429.468Z" fill="#b5dbdc"/>
      </g>
      <g id="Grupo_102234" data-name="Grupo 102234">
        <path id="Trazado_158632" data-name="Trazado 158632" d="M221.8,428.445c5.841,3.372,5.872,8.84.069,12.213s-15.24,3.37-21.081,0-5.868-8.839-.069-12.209S215.96,425.075,221.8,428.445Z" fill="#5abce5"/>
      </g>
      <g id="Grupo_102235" data-name="Grupo 102235">
        <path id="Trazado_158633" data-name="Trazado 158633" d="M221.8,415.358c5.841,3.372,5.872,8.839.069,12.212s-15.24,3.37-21.081,0-5.868-8.838-.069-12.208S215.96,411.987,221.8,415.358Z" fill="#b5dbdc"/>
      </g>
      <g id="Grupo_102236" data-name="Grupo 102236">
        <path id="Trazado_158634" data-name="Trazado 158634" d="M221.8,414.336c5.841,3.372,5.872,8.84.069,12.212s-15.24,3.371-21.081,0-5.868-8.839-.069-12.209S215.96,410.965,221.8,414.336Z" fill="#5abce5"/>
      </g>
      <g id="Grupo_102237" data-name="Grupo 102237">
        <path id="Trazado_158635" data-name="Trazado 158635" d="M221.8,404.735c5.841,3.372,5.872,8.839.069,12.212s-15.24,3.37-21.081,0-5.868-8.838-.069-12.208S215.96,401.364,221.8,404.735Z" fill="#b5dbdc"/>
      </g>
      <g id="Grupo_102238" data-name="Grupo 102238">
        <path id="Trazado_158636" data-name="Trazado 158636" d="M221.8,403.713c5.841,3.372,5.872,8.84.069,12.212s-15.24,3.371-21.081,0-5.868-8.839-.069-12.209S215.96,400.342,221.8,403.713Z" fill="#5abce5"/>
      </g>
      <g id="Grupo_102239" data-name="Grupo 102239">
        <path id="Trazado_158637" data-name="Trazado 158637" d="M220.848,404.235c5.341,3.084,5.37,8.083.062,11.168s-13.935,3.082-19.277,0-5.366-8.082-.063-11.164S215.51,401.152,220.848,404.235Z" fill="#298bed"/>
      </g>
      <g id="Grupo_102242" data-name="Grupo 102242">
        <g id="Grupo_102240" data-name="Grupo 102240">
          <path id="Trazado_158638" data-name="Trazado 158638" d="M220,409.926a1.055,1.055,0,0,1,.012,1.995,3.78,3.78,0,0,1-3.437,0,1.055,1.055,0,0,1-.011-1.995A3.778,3.778,0,0,1,220,409.926Z" fill="#5abce5"/>
        </g>
        <rect id="Rectángulo_35687" data-name="Rectángulo 35687" width="4.859" height="3.321" transform="translate(215.858 407.692)" fill="#5abce5"/>
        <g id="Grupo_102241" data-name="Grupo 102241">
          <path id="Trazado_158639" data-name="Trazado 158639" d="M220,406.7a1.055,1.055,0,0,1,.012,1.995,3.783,3.783,0,0,1-3.437,0,1.055,1.055,0,0,1-.011-1.995A3.784,3.784,0,0,1,220,406.7Z" fill="#b5dbdc"/>
        </g>
      </g>
      <g id="Grupo_102256" data-name="Grupo 102256">
        <g id="Grupo_102243" data-name="Grupo 102243">
          <path id="Trazado_158640" data-name="Trazado 158640" d="M220.471,463.813c5.841,3.372,5.873,8.838.07,12.211s-15.241,3.371-21.082,0-5.868-8.837-.069-12.207S214.633,460.441,220.471,463.813Z" fill="#b5dbdc"/>
        </g>
        <g id="Grupo_102244" data-name="Grupo 102244">
          <path id="Trazado_158641" data-name="Trazado 158641" d="M220.471,462.79c5.841,3.372,5.873,8.84.07,12.212s-15.241,3.371-21.082,0-5.868-8.839-.069-12.209S214.633,459.419,220.471,462.79Z" fill="#a6ecff"/>
        </g>
        <g id="Grupo_102245" data-name="Grupo 102245">
          <path id="Trazado_158642" data-name="Trazado 158642" d="M220.471,434.88c5.841,3.372,5.873,8.84.07,12.213s-15.241,3.37-21.082,0-5.868-8.839-.069-12.209S214.633,431.51,220.471,434.88Z" fill="#5abce5"/>
        </g>
        <rect id="Rectángulo_35688" data-name="Rectángulo 35688" width="29.71" height="40.974" transform="translate(195.06 428.945)" fill="#a6ecff"/>
        <g id="Grupo_102246" data-name="Grupo 102246">
          <path id="Trazado_158643" data-name="Trazado 158643" d="M220.471,449.5c5.841,3.372,5.873,8.84.07,12.212s-15.241,3.371-21.082,0-5.868-8.839-.069-12.209S214.633,446.131,220.471,449.5Z" fill="#5abce5"/>
        </g>
        <g id="Grupo_102247" data-name="Grupo 102247">
          <path id="Trazado_158644" data-name="Trazado 158644" d="M220.471,448.478c5.841,3.373,5.873,8.84.07,12.213s-15.241,3.37-21.082,0-5.868-8.839-.069-12.21S214.633,445.108,220.471,448.478Z" fill="#a6ecff"/>
        </g>
        <g id="Grupo_102248" data-name="Grupo 102248">
          <path id="Trazado_158645" data-name="Trazado 158645" d="M220.471,435.392c5.841,3.372,5.873,8.838.07,12.211s-15.241,3.371-21.082,0-5.868-8.838-.069-12.208S214.633,432.021,220.471,435.392Z" fill="#5abce5"/>
        </g>
        <g id="Grupo_102249" data-name="Grupo 102249">
          <path id="Trazado_158646" data-name="Trazado 158646" d="M220.471,434.369c5.841,3.372,5.873,8.84.07,12.212s-15.241,3.371-21.082,0-5.868-8.839-.069-12.209S214.633,431,220.471,434.369Z" fill="#a6ecff"/>
        </g>
        <g id="Grupo_102250" data-name="Grupo 102250">
          <path id="Trazado_158647" data-name="Trazado 158647" d="M220.471,424.769c5.841,3.372,5.873,8.838.07,12.211s-15.241,3.371-21.082,0-5.868-8.837-.069-12.207S214.633,421.4,220.471,424.769Z" fill="#b5dbdc"/>
        </g>
        <g id="Grupo_102251" data-name="Grupo 102251">
          <path id="Trazado_158648" data-name="Trazado 158648" d="M220.471,423.746c5.841,3.372,5.873,8.84.07,12.212s-15.241,3.371-21.082,0-5.868-8.839-.069-12.209S214.633,420.375,220.471,423.746Z" fill="#5abce5"/>
        </g>
        <g id="Grupo_102252" data-name="Grupo 102252">
          <path id="Trazado_158649" data-name="Trazado 158649" d="M219.52,424.269c5.343,3.084,5.371,8.083.063,11.167s-13.936,3.083-19.277,0-5.367-8.082-.063-11.164S214.183,421.185,219.52,424.269Z" fill="#298bed"/>
        </g>
        <g id="Grupo_102255" data-name="Grupo 102255">
          <g id="Grupo_102253" data-name="Grupo 102253">
            <path id="Trazado_158650" data-name="Trazado 158650" d="M218.673,429.959a1.055,1.055,0,0,1,.012,1.995,3.78,3.78,0,0,1-3.437,0,1.055,1.055,0,0,1-.011-1.995A3.778,3.778,0,0,1,218.673,429.959Z" fill="#5abce5"/>
          </g>
          <rect id="Rectángulo_35689" data-name="Rectángulo 35689" width="4.859" height="3.321" transform="translate(214.531 427.726)" fill="#5abce5"/>
          <g id="Grupo_102254" data-name="Grupo 102254">
            <path id="Trazado_158651" data-name="Trazado 158651" d="M218.673,426.728a1.055,1.055,0,0,1,.012,1.995,3.783,3.783,0,0,1-3.437,0,1.055,1.055,0,0,1-.011-1.995A3.784,3.784,0,0,1,218.673,426.728Z" fill="#b5dbdc"/>
          </g>
        </g>
      </g>
      <g id="Grupo_102274" data-name="Grupo 102274">
        <path id="Trazado_158652" data-name="Trazado 158652" d="M252.877,418.474l-5.988-2.211-6.405-5.572-1.741,1.384s6.157,7.586,7.459,8.39a27.746,27.746,0,0,0,4.968,1.773Z" fill="#ccdcf8"/>
        <path id="Trazado_158653" data-name="Trazado 158653" d="M246.328,467.419s1.024,1.641-.4,2.036-1-.5-4.093.284-2.734-.962-2.668-1.321,1.423-.852,2.1-1.03,3.384-.8,3.384-.8l1.651.3Z" fill="#111114"/>
        <path id="Trazado_158654" data-name="Trazado 158654" d="M248.2,462.87s-1.184.178-.894.861,1.649,1.723,1.826,2.159a5.218,5.218,0,0,0,1.657,1.832c.64.11,1.294.074,1.188-1.69S249.785,462.793,248.2,462.87Z" fill="#111114"/>
        <path id="Trazado_158655" data-name="Trazado 158655" d="M253.3,432.783s2.3,3.419.806,9.185c0,0-2.579,8.7-2.118,10.414s2.032,5.822,1,9.341a40.8,40.8,0,0,0-1.041,4.15c-.08.925-1.615,1.013-1.84-.026-.482-2.2-.119-5.482-.455-7.113-1.092-5.336-1.654-8.119-1.308-11.75s-.075-11.851-.075-11.851S252.383,435.559,253.3,432.783Z" fill="#efb185"/>
        <path id="Trazado_158656" data-name="Trazado 158656" d="M250.727,434.855s1.976,3.621-.047,9.221c0,0-3.385,8.428-3.08,10.174s1.48,5.988.123,9.393a29.313,29.313,0,0,0-1.416,4.036c-.163,1.432-1.614,1.613-1.763.56-.314-2.141.321-6.223.138-7.881-.587-5.415-.9-8.238-.212-11.818s1.028-11.812,1.028-11.812S249.55,437.538,250.727,434.855Z" fill="#efb185"/>
        <path id="Trazado_158657" data-name="Trazado 158657" d="M245.014,437.133h0s.113-4.731-.922-6-2.654-4.153-1.274-5.767,2.2-2.422,2.2-2.422,6.456-6.342,8.644-4.5c0,0,1.963,1.5,1.154,6.686s-2.371,5.994-.46,8.758c1.482,2.143,2.1,2.735,1.113,10.79-.9,7.415-.46,8.333-.46,8.333s-6,3.307-11.531.766c0,0-1.148-1.76,0-8.379C244.508,439.441,245.014,437.133,245.014,437.133Z" fill="#e5eeff"/>
        <path id="Trazado_158658" data-name="Trazado 158658" d="M244.081,467.053a1.31,1.31,0,0,0,2.263.395s.226,1.9-1.129,1.651S243.31,467.446,244.081,467.053Z" fill="#111114"/>
        <path id="Trazado_158659" data-name="Trazado 158659" d="M246.4,418.843l.315,3.167a3.749,3.749,0,0,0,4.633-.86l-.317-3.179A11.024,11.024,0,0,1,246.4,418.843Z" fill="#efb185"/>
        <path id="Trazado_158660" data-name="Trazado 158660" d="M248.077,409.582s-2.41-.022-3.321,1.77-1.687,4.444-.553,5.94c1.211,1.6.571,2.565,0,3.084s6.277,2.858,9.219-1.529C253.422,418.847,255.357,407.967,248.077,409.582Z" fill="#231202"/>
        <g id="Grupo_102270" data-name="Grupo 102270">
          <path id="Trazado_158661" data-name="Trazado 158661" d="M236.147,442.623h1.148a4.587,4.587,0,0,0,4.586-4.584V397.147H231.564v40.892A4.584,4.584,0,0,0,236.147,442.623Z" fill="#ade9f4"/>
          <path id="Trazado_158662" data-name="Trazado 158662" d="M236.3,441.21h.847a3.387,3.387,0,0,0,3.386-3.386V407.635h-7.617v30.189A3.387,3.387,0,0,0,236.3,441.21Z" fill="#f6802d"/>
          <g id="Grupo_102257" data-name="Grupo 102257">
            <path id="Trazado_158663" data-name="Trazado 158663" d="M239.473,406.1c1.455.878,1.4,2.275-.113,3.122a5.935,5.935,0,0,1-5.385-.057c-1.455-.874-1.41-2.271.108-3.118A5.939,5.939,0,0,1,239.473,406.1Z" fill="#e35b01"/>
          </g>
          <g id="Grupo_102261" data-name="Grupo 102261">
            <g id="Grupo_102260" data-name="Grupo 102260">
              <g id="Grupo_102258" data-name="Grupo 102258">
                <path id="Trazado_158664" data-name="Trazado 158664" d="M231,397.138v-1.082c0,.811.52,1.111,1.567,1.742a8.789,8.789,0,0,0,7.979.081c1.158-.644,1.741-.85,1.739-1.71l0,.936a2.862,2.862,0,0,1-1.737,2.369,8.79,8.79,0,0,1-7.978-.081A2.765,2.765,0,0,1,231,397.138Z" fill="#4ed2f2"/>
              </g>
              <g id="Grupo_102259" data-name="Grupo 102259">
                <path id="Trazado_158665" data-name="Trazado 158665" d="M240.711,394.086c2.157,1.3,2.082,3.368-.167,4.624a8.792,8.792,0,0,1-7.979-.082c-2.157-1.3-2.085-3.367.165-4.623A8.79,8.79,0,0,1,240.711,394.086Z" fill="#b8f8ff"/>
                <path id="Trazado_158666" data-name="Trazado 158666" d="M236.62,398.839a7.3,7.3,0,0,1-3.65-.886,2.009,2.009,0,0,1-1.189-1.6,2.185,2.185,0,0,1,1.333-1.656,7.419,7.419,0,0,1,3.542-.82,7.3,7.3,0,0,1,3.648.886,2.016,2.016,0,0,1,1.188,1.6,2.182,2.182,0,0,1-1.33,1.658A7.418,7.418,0,0,1,236.62,398.839Z" fill="#2bb4da"/>
                <path id="Trazado_158667" data-name="Trazado 158667" d="M233.114,395.385a7.4,7.4,0,0,1,3.542-.818,7.306,7.306,0,0,1,3.648.886,2.391,2.391,0,0,1,1.131,1.236,1.128,1.128,0,0,0,.057-.325,2.016,2.016,0,0,0-1.188-1.6,7.3,7.3,0,0,0-3.648-.886,7.419,7.419,0,0,0-3.542.82,2.185,2.185,0,0,0-1.333,1.656,1.168,1.168,0,0,0,.057.368A2.549,2.549,0,0,1,233.114,395.385Z" fill="#29b2dc"/>
              </g>
            </g>
            <path id="Trazado_158668" data-name="Trazado 158668" d="M229.735,397.106s1.046.866,1.941,1.577-.26-1.161-.26-1.161Z" fill="#4ed2f2"/>
            <path id="Trazado_158669" data-name="Trazado 158669" d="M231.23,396.056s-2.019.919-1.4,1.094,2.388.543,2.388.543S231.21,396.725,231.23,396.056Z" fill="#b8f8ff"/>
            <path id="Trazado_158670" data-name="Trazado 158670" d="M232.466,396.274s-2.424.632-2.094.77a5.132,5.132,0,0,0,2.049.241Z" fill="#2bb4da"/>
          </g>
          <g id="Grupo_102262" data-name="Grupo 102262">
            <path id="Trazado_158671" data-name="Trazado 158671" d="M241.429,402.834c.147-.085.266-.018.266.152a.586.586,0,0,1-.263.462l-2.178,1.256c-.145.085-.265.017-.265-.157a.577.577,0,0,1,.265-.456Z" fill="#f3f4f4"/>
          </g>
          <g id="Grupo_102263" data-name="Grupo 102263">
            <path id="Trazado_158672" data-name="Trazado 158672" d="M241.429,405.7c.147-.083.266-.015.266.152a.584.584,0,0,1-.263.463l-2.178,1.256c-.145.084-.265.017-.265-.156a.585.585,0,0,1,.265-.459Z" fill="#f3f4f4"/>
          </g>
          <g id="Grupo_102264" data-name="Grupo 102264">
            <path id="Trazado_158673" data-name="Trazado 158673" d="M241.429,409.993c.147-.086.266-.018.266.152a.583.583,0,0,1-.263.461l-2.178,1.257c-.145.084-.265.016-.265-.157a.577.577,0,0,1,.265-.457Z" fill="#f3f4f4"/>
          </g>
          <g id="Grupo_102265" data-name="Grupo 102265">
            <path id="Trazado_158674" data-name="Trazado 158674" d="M241.429,412.856c.147-.084.266-.017.266.152a.585.585,0,0,1-.263.462l-2.178,1.256c-.145.084-.265.017-.265-.157a.58.58,0,0,1,.265-.457Z" fill="#f3f4f4"/>
          </g>
          <g id="Grupo_102266" data-name="Grupo 102266">
            <path id="Trazado_158675" data-name="Trazado 158675" d="M241.429,418.583c.147-.086.266-.018.266.151a.583.583,0,0,1-.263.462l-2.178,1.257c-.145.084-.265.017-.265-.156a.579.579,0,0,1,.265-.458Z" fill="#f3f4f4"/>
          </g>
          <g id="Grupo_102267" data-name="Grupo 102267">
            <path id="Trazado_158676" data-name="Trazado 158676" d="M241.429,421.446c.147-.085.266-.016.266.152a.583.583,0,0,1-.263.462l-2.178,1.256c-.145.085-.265.018-.265-.156a.582.582,0,0,1,.265-.458Z" fill="#f3f4f4"/>
          </g>
          <g id="Grupo_102268" data-name="Grupo 102268">
            <path id="Trazado_158677" data-name="Trazado 158677" d="M241.429,425.741c.147-.084.266-.016.266.152a.583.583,0,0,1-.263.462l-2.178,1.256c-.145.084-.265.017-.265-.156a.58.58,0,0,1,.265-.458Z" fill="#f3f4f4"/>
          </g>
          <g id="Grupo_102269" data-name="Grupo 102269">
            <path id="Trazado_158678" data-name="Trazado 158678" d="M241.429,428.605c.147-.085.266-.017.266.152a.585.585,0,0,1-.263.462l-2.178,1.256c-.145.085-.265.017-.265-.157a.579.579,0,0,1,.265-.457Z" fill="#f3f4f4"/>
          </g>
        </g>
        <g id="Grupo_102272" data-name="Grupo 102272">
          <g id="Grupo_102271" data-name="Grupo 102271">
            <path id="Trazado_158679" data-name="Trazado 158679" d="M233.182,424.442a10.22,10.22,0,0,0-1.313-.919,1.915,1.915,0,0,1-.706-1.269c-.02-.4.036-1.466.537-1.154s.671.568,1.017.72a2.5,2.5,0,0,1,.955.922c.1.247.4,1.041.4,1.041Z" fill="#efb185"/>
          </g>
        </g>
        <g id="Grupo_102273" data-name="Grupo 102273">
          <path id="Trazado_158680" data-name="Trazado 158680" d="M247.4,425.5c-.207-.713-1.06-1.66-2.875-.852s-6.839,3.118-6.839,3.118-3.386-4.137-3.852-4.555a1.076,1.076,0,0,1-.948,1.224s2.01,5.6,3.735,6.039S248.256,428.45,247.4,425.5Z" fill="#f9f9f9"/>
        </g>
      </g>
    </g>
  </g>
</svg>
