<svg xmlns="http://www.w3.org/2000/svg" width="167" height="167" viewBox="0 0 167 167">
  <g id="Grupo_102475" data-name="Grupo 102475" transform="translate(-1031 -2175)">
    <g id="Elipse_154" data-name="Elipse 154" transform="translate(1031 2175)" fill="#fff" stroke="#7ae582" stroke-width="10">
      <circle cx="83.5" cy="83.5" r="83.5" stroke="none"/>
      <circle cx="83.5" cy="83.5" r="78.5" fill="none"/>
    </g>
    <g id="rio" transform="translate(1058 2184.929)">
      <g id="Grupo_86974" data-name="Grupo 86974" transform="translate(1.67 68.397)">
        <path id="Trazado_145741" data-name="Trazado 145741" d="M7.5,252.971H118.16v52.547H7.5Z" transform="translate(-7.5 -252.971)" fill="#b6edff"/>
      </g>
      <g id="Grupo_86975" data-name="Grupo 86975" transform="translate(105.65 68.397)">
        <path id="Trazado_145742" data-name="Trazado 145742" d="M474.5,252.971h6.68v52.547H474.5Z" transform="translate(-474.5 -252.971)" fill="#92edfc"/>
      </g>
      <g id="Grupo_86976" data-name="Grupo 86976" transform="translate(61.155 15.653)">
        <circle id="Elipse_4330" data-name="Elipse 4330" cx="11.674" cy="11.674" r="11.674" transform="translate(0 22.717) rotate(-76.7)" fill="#ffea9a"/>
      </g>
      <g id="Grupo_86977" data-name="Grupo 86977" transform="translate(71.845 17.999)">
        <path id="Trazado_145743" data-name="Trazado 145743" d="M326.01,26.624a11.673,11.673,0,0,0-3.34.487,11.675,11.675,0,0,1,0,22.373,11.674,11.674,0,1,0,3.34-22.86Z" transform="translate(-322.67 -26.624)" fill="#ffe06f"/>
      </g>
      <g id="Grupo_86978" data-name="Grupo 86978" transform="translate(22.156 92.363)">
        <path id="Trazado_145744" data-name="Trazado 145744" d="M189.681,389.19V360.609H156.706a63.5,63.5,0,0,0-45.395,19.1,63.475,63.475,0,0,1-11.8,9.483h90.174Z" transform="translate(-99.507 -360.609)" fill="#b5ebb9"/>
      </g>
      <g id="Grupo_86979" data-name="Grupo 86979" transform="translate(1.67 44.406)">
        <path id="Trazado_145745" data-name="Trazado 145745" d="M9.536,145.221H34.145A54.759,54.759,0,0,1,58.635,151a54.759,54.759,0,0,0,24.489,5.781h32.563a2.474,2.474,0,0,1,2.474,2.474v9.955H7.5V147.257A2.036,2.036,0,0,1,9.536,145.221Z" transform="translate(-7.5 -145.221)" fill="#b5ebb9"/>
      </g>
      <g id="Grupo_86980" data-name="Grupo 86980" transform="translate(105.65 92.363)">
        <path id="Trazado_145746" data-name="Trazado 145746" d="M474.5,360.608h6.68v28.581H474.5Z" transform="translate(-474.5 -360.608)" fill="#89e391"/>
      </g>
      <g id="Grupo_86981" data-name="Grupo 86981" transform="translate(103.177 55.968)">
        <path id="Trazado_145747" data-name="Trazado 145747" d="M470.07,197.149h-6.68a2.474,2.474,0,0,1,2.474,2.474v9.955h6.68v-9.955A2.474,2.474,0,0,0,470.07,197.149Z" transform="translate(-463.39 -197.149)" fill="#89e391"/>
      </g>
      <g id="Grupo_86982" data-name="Grupo 86982" transform="translate(80.495 64.238)">
        <path id="Trazado_145748" data-name="Trazado 145748" d="M371.233,234.291c-4.857,0-9.714,15.2-9.714,25.852s7.207,10.419,9.714,10.419,9.714.235,9.714-10.419S376.09,234.291,371.233,234.291Z" transform="translate(-361.519 -234.291)" fill="#15a977"/>
      </g>
      <g id="Grupo_86983" data-name="Grupo 86983" transform="translate(11.675 17.199)">
        <path id="Trazado_145749" data-name="Trazado 145749" d="M58.353,23.028c-2.96,0-5.919,7.622-5.919,14.114s4.392,6.349,5.919,6.349,5.919.143,5.919-6.349S61.313,23.028,58.353,23.028Z" transform="translate(-52.434 -23.028)" fill="#15a977"/>
      </g>
      <g id="Grupo_86984" data-name="Grupo 86984" transform="translate(97.917 30.624)">
        <path id="Trazado_145750" data-name="Trazado 145750" d="M445.686,83.323c-2.96,0-5.919,7.622-5.919,14.114s4.392,6.349,5.919,6.349,5.919.143,5.919-6.349S448.646,83.323,445.686,83.323Z" transform="translate(-439.767 -83.323)" fill="#15a977"/>
      </g>
      <g id="Grupo_86985" data-name="Grupo 86985" transform="translate(34.745 32.123)">
        <path id="Trazado_145751" data-name="Trazado 145751" d="M163.074,90.058c-3.514,0-7.028,9.049-7.028,16.757s5.214,7.538,7.028,7.538,7.028.17,7.028-7.538S166.588,90.058,163.074,90.058Z" transform="translate(-156.046 -90.058)" fill="#15a977"/>
      </g>
      <g id="Grupo_86986" data-name="Grupo 86986" transform="translate(0 15.529)">
        <circle id="Elipse_4331" data-name="Elipse 4331" cx="1.67" cy="1.67" r="1.67" transform="translate(70.179 93.242)" fill="#12263f"/>
        <circle id="Elipse_4332" data-name="Elipse 4332" cx="1.67" cy="1.67" r="1.67" transform="translate(55.33 90.744)" fill="#12263f"/>
        <circle id="Elipse_4333" data-name="Elipse 4333" cx="1.67" cy="1.67" r="1.67" transform="translate(13.99 39.22)" fill="#12263f"/>
        <path id="Trazado_145752" data-name="Trazado 145752" d="M291.084,45.813a13.347,13.347,0,0,0,11.575-19.987,1.67,1.67,0,0,0-2.9,1.665,9.992,9.992,0,1,1-4.3-4.017,1.67,1.67,0,0,0,1.466-3,13.22,13.22,0,0,0-5.849-1.347,13.344,13.344,0,0,0,0,26.688Z" transform="translate(-215.899 -18.324)" fill="#12263f"/>
        <path id="Trazado_145753" data-name="Trazado 145753" d="M109.856,54.3h-4.35V52.676a6.445,6.445,0,0,0,3.837-1.767c1.382-1.379,2.083-3.456,2.083-6.171,0-6.436-2.956-15.784-7.589-15.784S96.247,38.3,96.247,44.738c0,2.716.7,4.792,2.083,6.171a6.442,6.442,0,0,0,3.836,1.767V54.3H77.294a53.362,53.362,0,0,1-23.743-5.6c-.914-.457-1.852-.894-2.788-1.3a1.688,1.688,0,0,0-.34-.106A33.3,33.3,0,0,0,48.15,36.98c-2.2-5.394-4.684-6.527-6.378-6.527S37.6,31.586,35.395,36.98a31.716,31.716,0,0,0-1.74,6.014c-1.773-.168-3.563-.258-5.34-.258H19.2a1.667,1.667,0,0,0,.063-.449V39.251A6.448,6.448,0,0,0,23.1,37.484c1.382-1.379,2.083-3.456,2.083-6.171,0-6.436-2.956-15.784-7.589-15.784S10,24.877,10,31.313c0,2.715.7,4.792,2.083,6.171a6.443,6.443,0,0,0,3.837,1.767v3.036a1.668,1.668,0,0,0,.063.449H3.706A3.709,3.709,0,0,0,0,46.441v74.5a1.67,1.67,0,0,0,1.67,1.67H112.33a1.67,1.67,0,0,0,1.67-1.67v-62.5a4.149,4.149,0,0,0-4.144-4.144Zm-9.167-5.753a5.313,5.313,0,0,1-1.1-3.807,24.676,24.676,0,0,1,1.726-8.86c1.2-2.946,2.313-3.584,2.523-3.584s1.32.638,2.524,3.584a24.681,24.681,0,0,1,1.726,8.86,5.311,5.311,0,0,1-1.1,3.807,2.906,2.906,0,0,1-1.477.749V44.776a1.67,1.67,0,1,0-3.34,0v4.519a2.911,2.911,0,0,1-1.477-.749ZM14.447,35.12a5.312,5.312,0,0,1-1.1-3.807,24.677,24.677,0,0,1,1.726-8.86c1.2-2.946,2.313-3.584,2.524-3.584s1.32.638,2.523,3.584a24.676,24.676,0,0,1,1.726,8.86,5.313,5.313,0,0,1-1.1,3.807,2.9,2.9,0,0,1-1.477.749V31.351a1.67,1.67,0,0,0-3.34,0V35.87A2.908,2.908,0,0,1,14.447,35.12ZM98.461,72.61c-.3-.831-.628-1.691-1-2.543h13.2V90.693h-9.077c.005-.2.01-.4.01-.6a56.146,56.146,0,0,0-3.132-17.48ZM90.209,85.457a1.67,1.67,0,0,0-1.67,1.67V98.8a6.587,6.587,0,0,1-4.251-1.7c-1.409-1.406-2.123-3.763-2.123-7.006A52.576,52.576,0,0,1,85.1,73.727,25,25,0,0,1,88,67.75c1.223-1.71,2-1.843,2.209-1.843s.985.133,2.209,1.843a24.991,24.991,0,0,1,2.9,5.976,52.575,52.575,0,0,1,2.939,16.362c0,3.243-.714,5.6-2.123,7.006a6.584,6.584,0,0,1-4.251,1.7V87.127a1.67,1.67,0,0,0-1.67-1.67ZM38.487,38.243c1.324-3.242,2.718-4.45,3.286-4.45s1.961,1.208,3.286,4.45A29.634,29.634,0,0,1,47.13,48.881c0,2.219-.471,3.814-1.4,4.741a3.954,3.954,0,0,1-2.287,1.044V48.926a1.67,1.67,0,0,0-3.34,0v5.74a3.955,3.955,0,0,1-2.287-1.044c-.929-.927-1.4-2.523-1.4-4.741a29.628,29.628,0,0,1,2.072-10.638ZM3.706,46.076H28.315c1.623,0,3.259.079,4.88.228-.077.875-.12,1.739-.12,2.577,0,3.138.8,5.528,2.381,7.105A7.489,7.489,0,0,0,40.1,58.027V61.91a1.67,1.67,0,0,0,3.34,0V58.025a7.48,7.48,0,0,0,4.647-2.039,8.529,8.529,0,0,0,2.259-5.118c.575.262,1.148.531,1.71.812a56.718,56.718,0,0,0,25.236,5.957h32.563a.8.8,0,0,1,.8.8v8.285H95.954a1.673,1.673,0,0,0-.2.013c-1.481-2.386-3.328-4.173-5.544-4.173s-4.056,1.78-5.536,4.159H3.34V46.441a.366.366,0,0,1,.366-.366Zm23.844,73.2a65.154,65.154,0,0,0,7.6-6.645A61.776,61.776,0,0,1,49.6,101.662,1.67,1.67,0,1,0,48,98.734a65.11,65.11,0,0,0-15.23,11.56,61.866,61.866,0,0,1-11.1,8.981H3.34v-11.49h8.6a1.67,1.67,0,1,0,0-3.34H3.34V70.067H82.954c-.369.851-.7,1.712-1,2.543a56.144,56.144,0,0,0-3.132,17.48c0,.206,0,.409.01.61a64.89,64.89,0,0,0-23.327,4.514,1.67,1.67,0,1,0,1.222,3.108A61.572,61.572,0,0,1,79.2,94.035a10.475,10.475,0,0,0,2.728,5.424,9.9,9.9,0,0,0,6.61,2.686v6.626a1.67,1.67,0,0,0,3.34,0v-6.626a9.9,9.9,0,0,0,6.61-2.686,10.478,10.478,0,0,0,2.728-5.426h9.443v25.241Z" transform="translate(0 -15.529)" fill="#12263f"/>
        <path id="Trazado_145754" data-name="Trazado 145754" d="M91.9,288.4H85.122a1.67,1.67,0,1,0,0,3.34H91.9a1.67,1.67,0,1,0,0-3.34Z" transform="translate(-64.871 -227.641)" fill="#12263f"/>
        <path id="Trazado_145755" data-name="Trazado 145755" d="M146.467,329.693H132.426a1.67,1.67,0,1,0,0,3.34h14.041a1.67,1.67,0,1,0,0-3.34Z" transform="translate(-101.642 -259.742)" fill="#12263f"/>
      </g>
    </g>
  </g>
</svg>
