<svg xmlns="http://www.w3.org/2000/svg" width="1327.333" height="520" viewBox="0 0 1327.333 520">
  <g id="Grupo_101211" data-name="Grupo 101211" transform="translate(0)" opacity="0.17">
    <path id="Trazado_156602" data-name="Trazado 156602" d="M1480.295,124.356c-100.928,23.016-298.759,2.877-410.924-9.59s-256.969,5.754-381.558,0-269.828-70.5-269.828-70.5v56.586s25.28,17.746,85.2,29.254,176.838,12.467,375.842,4.216,152.312,20.717,379.259,23.068,487.033-83.225,487.033-83.225V44.27S1581.222,101.341,1480.295,124.356Z" transform="translate(-417.985 -44.27)" fill="#3ca8f4"/>
    <path id="Trazado_156603" data-name="Trazado 156603" d="M1513.951,205.344c-133.463,13.859-327.928,87.62-586.949,81.9s-509.016-87.389-509.016-87.389V254.2c186.828,6.065,309.574,53.629,494.994,59.268s577.443-99.287,638.543-103.149,193.8,2.921,193.8,2.921v-19.76S1647.411,191.484,1513.951,205.344Z" transform="translate(-417.985 -29.643)" fill="#3ca8f4"/>
    <path id="Trazado_156604" data-name="Trazado 156604" d="M1561.068,391.83c-90.553,11.364-243.927-35.793-484.633-37.169S662.644,391.255,570.79,381.895s-152.805-48.479-152.805-48.479v78.972s19.371,2.6,121.117.518,266.735-37.474,478.283-41.671,357.626,43.482,503.428,44.408,224.505-21.18,224.505-21.18V324.326S1651.624,380.467,1561.068,391.83Z" transform="translate(-417.985 -18.823)" fill="#3ca8f4"/>
    <path id="Trazado_156605" data-name="Trazado 156605" d="M1405.3,507.1c-115.581,1.619-412.509-2.584-683.786-16.7s-303.527-13.148-303.527-13.148v51.313S542.55,506.509,702.857,504.8s528.956,10.355,697.957,14.371c260.508,6.19,344.5-21.583,344.5-21.583V458.071S1639.7,503.816,1405.3,507.1Z" transform="translate(-417.985 -8.565)" fill="#3ca8f4"/>
  </g>
</svg>
