<svg xmlns="http://www.w3.org/2000/svg" width="36" height="36" viewBox="0 0 36 36">
  <g id="Icon_ionic-ios-arrow-dropleft" data-name="Icon ionic-ios-arrow-dropleft" transform="translate(-3.375 -3.375)">
    <path id="Trazado_144113" data-name="Trazado 144113" d="M23.267,10.469a1.677,1.677,0,0,0-2.362,0l-8.256,8.282a1.668,1.668,0,0,0-.052,2.3l8.135,8.161a1.667,1.667,0,1,0,2.363-2.354l-6.906-7.01,7.088-7.018A1.669,1.669,0,0,0,23.267,10.469Z" transform="translate(2.028 1.525)" fill="#fb0"/>
    <path id="Trazado_144114" data-name="Trazado 144114" d="M21.375,3.375a18,18,0,1,0,18,18A18,18,0,0,0,21.375,3.375ZM32.14,32.14A15.225,15.225,0,1,1,10.61,10.61,15.225,15.225,0,1,1,32.14,32.14Z" fill="#fb0"/>
  </g>
</svg>
